<svg xmlns="http://www.w3.org/2000/svg" width="292" height="294" viewBox="0 0 292 294">
  <g id="Grupo_54838" data-name="Grupo 54838" transform="translate(-180 -1917)">
    <path id="Trazado_105626" data-name="Trazado 105626" d="M0,0H292V294H0Z" transform="translate(180 1917)" fill="#d8ecff"/>
    <g id="Grupo_54534" data-name="Grupo 54534" transform="translate(220.375 -5353.781)">
      <path id="Trazado_104733" data-name="Trazado 104733" d="M76.916,7523.653a2.964,2.964,0,0,1-.9-.134,2.687,2.687,0,0,1-1.654-1.505l-.027-.094c-.01-.049-1.024-4.82-1.768-6.888-.575-1.6-3.257-4.166-4.3-5.071a21.961,21.961,0,0,1-8.6-11.082,15.941,15.941,0,0,1-.625-6.444c.314-2.265-2.272-5.835-3.325-7.056l-7.83-7.319c-.141-.115-4.169-3.527-6.248-11.324-.232-1.018-1.011-3.789-1.88-4.659-1.514-1.512-2.61-4.083-.724-6.347.254-.3.708-.979,1.337-1.914a133.813,133.813,0,0,1,28.389-30.967c19.085-15.2,29.121-22.654,29.22-22.728l25.089-18.614,19.005-12.319,22.046-13.387,11.848-6.95c.359-.195,8.358-4.4,12.863.1,4.79,4.79,5.052,10.538,1.074,23.651-.663,2.187-1.222,4.077-1.716,5.747-2.652,8.973-3.452,11.681-8.484,19.906l-.062.084L165.3,7415.076l-18.085,22.864-11.935,16.71-9.571,12.875-6.66,7.75-4.709,6.914-7.545,9.377-5.923,7.29-7.619,9.78c-.369.455-8.881,10.932-12.9,13.687A6.354,6.354,0,0,1,76.916,7523.653Zm-1.314-2.07a1.373,1.373,0,0,0,.827.692c.767.229,1.867-.129,3.186-1.033,3.86-2.647,12.526-13.312,12.613-13.42l7.619-9.781,5.929-7.3,7.512-9.333,4.743-6.961,6.655-7.742,9.535-12.829,11.947-16.726,18.121-22.909,14.327-16.716c4.918-8.044,5.709-10.721,8.318-19.55.495-1.673,1.055-3.566,1.718-5.756,4.249-14.009,3.082-18.517-.746-22.345s-11.223.074-11.3.115l-11.818,6.933L142.771,7370.3l-18.955,12.286-25.054,18.59c-.1.074-10.119,7.515-29.184,22.7a132.524,132.524,0,0,0-28.118,30.674c-.675,1-1.121,1.666-1.417,2.021-1.661,1.994.072,4.012.643,4.583,1.292,1.292,2.133,4.867,2.225,5.271,1.957,7.34,5.8,10.625,5.843,10.657l7.931,7.418c.169.193,4.118,4.788,3.655,8.119a14.847,14.847,0,0,0,.571,5.851,20.906,20.906,0,0,0,8.083,10.4l.091.066c.159.137,3.9,3.383,4.713,5.653C74.534,7516.63,75.473,7520.977,75.6,7521.583Z" transform="translate(-12.622 -14.884)" fill="#1a4e75"/>
      <path id="Trazado_104734" data-name="Trazado 104734" d="M21.76,7592.7a1.684,1.684,0,0,1-.728-.164c-1.249-.588-2.242-1.486-1.056-4.055a23.552,23.552,0,0,1,1.558-2.758,9.681,9.681,0,0,0,1.2-2.268c.044-.157.094-.327.147-.5.249-.832.666-2.227.355-2.743a.449.449,0,0,0-.342-.2,5.2,5.2,0,0,0-3.213.873l-.109.058-9.221,3.814-3.357,1.045c-.235.091-2.7,1-4.277.2a2.228,2.228,0,0,1-1.161-1.451c-.686-2.558,4.515-8.22,5.564-9.329l4.625-5.247a18.275,18.275,0,0,1,5.975-5.478c1.633-.816,3.256-1.512,4.687-2.125a31.913,31.913,0,0,0,3.322-1.547c1.339-.821,7.915-6.159,7.981-6.212l5.177-4.916,5.424,5.148,1.579,2.147-1.329,1.753-6.412,9.608a25.637,25.637,0,0,0-4.423,7.846c-1.332,4.476-4.761,10.741-7.2,13.145C24.467,7591.362,23.011,7592.7,21.76,7592.7Zm.666-14.049a3.657,3.657,0,0,1,.72.069,1.758,1.758,0,0,1,1.207.812c.609,1.012.149,2.554-.222,3.793-.051.171-.1.333-.142.483a10.483,10.483,0,0,1-1.348,2.612,22.54,22.54,0,0,0-1.477,2.608c-.805,1.743-.369,1.948.424,2.321.7.338,2.776-1.723,4.018-2.947,2.268-2.239,5.6-8.356,6.86-12.585a26.392,26.392,0,0,1,4.657-8.292l6.378-9.564.75-.99-.965-1.312-4.376-4.142-.484.438-3.86,3.634c-.31.253-6.746,5.476-8.158,6.343a31.657,31.657,0,0,1-3.491,1.634c-1.415.606-3.02,1.293-4.617,2.092a17.322,17.322,0,0,0-5.5,5.074l-.052.067-4.668,5.294c-2.416,2.555-5.633,6.742-5.267,8.107a.913.913,0,0,0,.489.623c.9.459,2.655-.037,3.254-.267l3.343-1.04,9.113-3.771A7.175,7.175,0,0,1,22.426,7578.646Z" transform="translate(0 -84.925)" fill="#1a4e75"/>
      <g id="Grupo_54532" data-name="Grupo 54532" transform="translate(171.387 7370.14)">
        <path id="Trazado_104735" data-name="Trazado 104735" d="M265.534,7615.213a.656.656,0,0,1-.632-.486c-.007-.028-.186-.7-.452-1.94a.655.655,0,0,1,1.28-.275c.259,1.2.436,1.873.438,1.879a.656.656,0,0,1-.465.8A.719.719,0,0,1,265.534,7615.213Z" transform="translate(-262.199 -7476.585)" fill="#1a4e75"/>
        <path id="Trazado_104736" data-name="Trazado 104736" d="M263.175,7540.84a.655.655,0,0,1-.645-.545c-.215-1.272-.411-2.586-.583-3.9a.654.654,0,1,1,1.3-.169c.17,1.3.365,2.6.577,3.854a.657.657,0,0,1-.537.756A.84.84,0,0,1,263.175,7540.84Zm-1.017-7.777a.653.653,0,0,1-.651-.592c-.124-1.3-.225-2.622-.3-3.936a.654.654,0,1,1,1.307-.076c.077,1.3.177,2.605.3,3.888a.654.654,0,0,1-.589.713Zm-.458-7.831a.655.655,0,0,1-.655-.64q-.027-1.165-.026-2.364,0-.785.011-1.582a.655.655,0,0,1,.655-.646h.01a.654.654,0,0,1,.645.664q-.012.79-.011,1.563,0,1.185.026,2.335a.655.655,0,0,1-.64.669Zm.123-7.842a.235.235,0,0,1-.037,0,.654.654,0,0,1-.617-.689c.072-1.321.172-2.646.3-3.938a.654.654,0,1,1,1.3.126c-.123,1.274-.221,2.581-.293,3.885A.654.654,0,0,1,261.823,7517.39Zm.757-7.807a.729.729,0,0,1-.092-.006.655.655,0,0,1-.557-.74c.185-1.307.4-2.618.644-3.9a.648.648,0,0,1,.765-.521.654.654,0,0,1,.521.765c-.239,1.261-.452,2.553-.634,3.839A.655.655,0,0,1,262.58,7509.583Zm1.465-7.7a.639.639,0,0,1-.154-.019.654.654,0,0,1-.482-.789c.1-.418.2-.834.313-1.251l.919-2.545a.655.655,0,0,1,1.231.446l-.9,2.486c-.088.352-.191.761-.291,1.17A.654.654,0,0,1,264.045,7501.882Zm2.547-7.414a.664.664,0,0,1-.223-.039.655.655,0,0,1-.392-.839l1.336-3.687a.655.655,0,0,1,1.231.445l-1.336,3.688A.657.657,0,0,1,266.592,7494.468Zm2.672-7.375a.664.664,0,0,1-.223-.039.655.655,0,0,1-.392-.839l1.336-3.688a.655.655,0,0,1,1.231.446l-1.336,3.688A.656.656,0,0,1,269.264,7487.093Zm2.672-7.377a.653.653,0,0,1-.615-.878l.5-1.387a.725.725,0,0,1,.041-.089,18.984,18.984,0,0,0,.935-2.163.655.655,0,1,1,1.227.455,20.564,20.564,0,0,1-.988,2.286l-.486,1.345A.655.655,0,0,1,271.936,7479.716Zm2.588-7.4a.667.667,0,0,1-.145-.016.655.655,0,0,1-.494-.782,29.97,29.97,0,0,0,.6-3.789.655.655,0,1,1,1.3.121,31.228,31.228,0,0,1-.629,3.956A.655.655,0,0,1,274.524,7472.32Zm.719-7.79a.654.654,0,0,1-.653-.628,27.813,27.813,0,0,0-.419-3.807.655.655,0,1,1,1.289-.232,29.192,29.192,0,0,1,.438,3.985.655.655,0,0,1-.627.682Zm-1.225-7.747a.655.655,0,0,1-.64-.517c-.251-1.167-.536-2.456-.844-3.835a.655.655,0,0,1,1.278-.285c.308,1.381.593,2.674.846,3.845a.654.654,0,0,1-.5.777A.614.614,0,0,1,274.017,7456.783Zm-1.711-7.673a.655.655,0,0,1-.638-.509c-.283-1.241-.577-2.524-.879-3.827a.655.655,0,0,1,1.277-.3c.3,1.306.6,2.589.879,3.831a.654.654,0,0,1-.492.784A.628.628,0,0,1,272.306,7449.11Zm-1.766-7.658a.654.654,0,0,1-.636-.507c-.3-1.276-.6-2.557-.894-3.824a.655.655,0,0,1,1.275-.3c.3,1.27.6,2.55.894,3.827a.657.657,0,0,1-.638.8Zm-1.794-7.651a.654.654,0,0,1-.636-.5l-.9-3.823a.654.654,0,1,1,1.273-.3l.905,3.825a.655.655,0,0,1-.487.787A.668.668,0,0,1,268.746,7433.8Zm-1.813-7.647a.655.655,0,0,1-.636-.5l-.913-3.824a.654.654,0,1,1,1.273-.3l.913,3.824a.655.655,0,0,1-.485.789A.676.676,0,0,1,266.933,7426.153ZM265.1,7418.5a.656.656,0,0,1-.636-.5l-.148-.617a.929.929,0,0,1-.048-.273h0a24.719,24.719,0,0,0-.518-2.976.655.655,0,1,1,1.275-.3,24.93,24.93,0,0,1,.545,3.169l.167.693a.656.656,0,0,1-.484.789A.634.634,0,0,1,265.1,7418.5Z" transform="translate(-261.019 -7407.973)" fill="#1a4e75"/>
        <path id="Trazado_104737" data-name="Trazado 104737" d="M263.487,7408.181a.655.655,0,0,1-.6-.385,11.8,11.8,0,0,0-.89-1.631.654.654,0,1,1,1.092-.722,13.126,13.126,0,0,1,.99,1.813.655.655,0,0,1-.6.925Z" transform="translate(-261.32 -7405.149)" fill="#1a4e75"/>
      </g>
      <path id="Trazado_104738" data-name="Trazado 104738" d="M265.214,7333.959l-.444-1.231,17.849-6.442,9.182-2.721c7.709-4.584,7.58-19.613,7.577-19.765l1.309-.019c.009.653.136,16.037-8.294,20.955l-.144.062-9.222,2.732Z" transform="translate(-90.927)" fill="#1a4e75"/>
      <g id="Grupo_54533" data-name="Grupo 54533" transform="translate(48.823 7514.112)">
        <path id="Trazado_104739" data-name="Trazado 104739" d="M77.036,7626.427l3.157,9.131h.051l3.184-9.131h3.251v12.39H84.194v-3.693l.238-5.472-.05-.009-3.319,9.173H79.394l-3.3-9.139-.05.008.238,5.438v3.693H73.794v-12.39Z" transform="translate(-73.794 -7625.542)" fill="#1a4e75"/>
        <path id="Trazado_104740" data-name="Trazado 104740" d="M101.86,7640.405a5.079,5.079,0,0,1-.235-.663,4.633,4.633,0,0,1-.139-.715,3.42,3.42,0,0,1-1.009,1.114,2.514,2.514,0,0,1-1.494.443,3.111,3.111,0,0,1-2.229-.745,2.667,2.667,0,0,1-.783-2.029,2.429,2.429,0,0,1,1.042-2.1,5.2,5.2,0,0,1,3.043-.745h1.387v-.731a1.434,1.434,0,0,0-.348-1.029,1.628,1.628,0,0,0-1.962-.072,1.036,1.036,0,0,0-.327.813l-2.4-.009-.009-.051a2.34,2.34,0,0,1,1.013-2.014,4.418,4.418,0,0,1,2.817-.846,4.112,4.112,0,0,1,2.68.838,2.9,2.9,0,0,1,1.03,2.388v3.8a7.167,7.167,0,0,0,.1,1.218,6.041,6.041,0,0,0,.31,1.131Zm-2.273-1.659a2.128,2.128,0,0,0,1.166-.323,1.682,1.682,0,0,0,.689-.748v-1.3h-1.387a1.658,1.658,0,0,0-1.2.4,1.286,1.286,0,0,0-.408.958.956.956,0,0,0,.306.74A1.183,1.183,0,0,0,99.587,7638.746Z" transform="translate(-81.453 -7627.131)" fill="#1a4e75"/>
        <path id="Trazado_104741" data-name="Trazado 104741" d="M113.261,7631.2l.111,1.319a3.365,3.365,0,0,1,1.132-1.1,2.931,2.931,0,0,1,1.507-.392,2.77,2.77,0,0,1,2.178.876,4.047,4.047,0,0,1,.783,2.749v5.752h-2.494v-5.757a1.869,1.869,0,0,0-.374-1.317,1.5,1.5,0,0,0-1.131-.388,1.927,1.927,0,0,0-.886.2,1.822,1.822,0,0,0-.655.567v6.694h-2.485V7631.2Z" transform="translate(-86.625 -7627.131)" fill="#1a4e75"/>
        <path id="Trazado_104742" data-name="Trazado 104742" d="M125.453,7635.878a5.944,5.944,0,0,1,.949-3.514,3.076,3.076,0,0,1,2.66-1.336,2.619,2.619,0,0,1,1.362.349,3.061,3.061,0,0,1,1,1l.2-1.175h2.144v9.165a3.418,3.418,0,0,1-1.178,2.779,4.977,4.977,0,0,1-3.28.982,6.275,6.275,0,0,1-1.481-.191,6.914,6.914,0,0,1-1.447-.523l.46-1.855a5.786,5.786,0,0,0,1.162.413,5.56,5.56,0,0,0,1.288.14,2.228,2.228,0,0,0,1.5-.425,1.685,1.685,0,0,0,.481-1.328v-.833a2.792,2.792,0,0,1-.962.791,2.847,2.847,0,0,1-1.269.272,3.13,3.13,0,0,1-2.642-1.247,5.274,5.274,0,0,1-.949-3.28Zm2.485.181a3.793,3.793,0,0,0,.408,1.914,1.42,1.42,0,0,0,1.327.7,2.044,2.044,0,0,0,.966-.209,1.606,1.606,0,0,0,.634-.613v-4.023a1.716,1.716,0,0,0-.634-.649,1.838,1.838,0,0,0-.949-.231,1.4,1.4,0,0,0-1.332.813,4.61,4.61,0,0,0-.422,2.123Z" transform="translate(-91.635 -7627.131)" fill="#1a4e75"/>
        <path id="Trazado_104743" data-name="Trazado 104743" d="M146.213,7640.405a5.174,5.174,0,0,1-.234-.663,4.556,4.556,0,0,1-.14-.715,3.413,3.413,0,0,1-1.009,1.114,2.512,2.512,0,0,1-1.493.443,3.108,3.108,0,0,1-2.229-.745,2.667,2.667,0,0,1-.784-2.029,2.428,2.428,0,0,1,1.043-2.1,5.2,5.2,0,0,1,3.042-.745H145.8v-.731a1.431,1.431,0,0,0-.349-1.029,1.628,1.628,0,0,0-1.962-.072,1.036,1.036,0,0,0-.327.813l-2.4-.009-.008-.051a2.339,2.339,0,0,1,1.012-2.014,4.419,4.419,0,0,1,2.817-.846,4.114,4.114,0,0,1,2.681.838,2.9,2.9,0,0,1,1.029,2.388v3.8a7.1,7.1,0,0,0,.1,1.218,5.99,5.99,0,0,0,.31,1.131Zm-2.272-1.659a2.129,2.129,0,0,0,1.166-.323,1.686,1.686,0,0,0,.689-.748v-1.3h-1.387a1.659,1.659,0,0,0-1.2.4,1.286,1.286,0,0,0-.408.958.958.958,0,0,0,.306.74A1.186,1.186,0,0,0,143.941,7638.746Z" transform="translate(-96.771 -7627.131)" fill="#1a4e75"/>
        <path id="Trazado_104744" data-name="Trazado 104744" d="M170.3,7636.058a5.285,5.285,0,0,1-.945,3.284,3.123,3.123,0,0,1-2.638,1.243,2.946,2.946,0,0,1-1.285-.269,2.656,2.656,0,0,1-.962-.786v4.416h-2.476V7631.2h2.238l.145,1.09a2.95,2.95,0,0,1,.983-.933,2.665,2.665,0,0,1,1.341-.327,3.063,3.063,0,0,1,2.655,1.336,5.962,5.962,0,0,1,.945,3.514Zm-2.485-.191a4.482,4.482,0,0,0-.434-2.114,1.417,1.417,0,0,0-1.328-.809,1.866,1.866,0,0,0-.957.23,1.636,1.636,0,0,0-.626.655v4.039a1.532,1.532,0,0,0,.626.6,2.1,2.1,0,0,0,.975.2,1.429,1.429,0,0,0,1.323-.707,3.741,3.741,0,0,0,.422-1.918Z" transform="translate(-104.255 -7627.131)" fill="#1a4e75"/>
        <path id="Trazado_104745" data-name="Trazado 104745" d="M182.169,7640.405a5.174,5.174,0,0,1-.234-.663,4.556,4.556,0,0,1-.14-.715,3.412,3.412,0,0,1-1.009,1.114,2.512,2.512,0,0,1-1.493.443,3.108,3.108,0,0,1-2.229-.745,2.667,2.667,0,0,1-.784-2.029,2.43,2.43,0,0,1,1.043-2.1,5.2,5.2,0,0,1,3.043-.745h1.387v-.731a1.431,1.431,0,0,0-.349-1.029,1.628,1.628,0,0,0-1.962-.072,1.036,1.036,0,0,0-.327.813l-2.4-.009-.008-.051a2.339,2.339,0,0,1,1.013-2.014,4.416,4.416,0,0,1,2.816-.846,4.114,4.114,0,0,1,2.681.838,2.9,2.9,0,0,1,1.029,2.388v3.8a7.1,7.1,0,0,0,.1,1.218,6.038,6.038,0,0,0,.31,1.131Zm-2.272-1.659a2.129,2.129,0,0,0,1.166-.323,1.686,1.686,0,0,0,.689-.748v-1.3h-1.387a1.658,1.658,0,0,0-1.2.4,1.284,1.284,0,0,0-.409.958.958.958,0,0,0,.306.74A1.186,1.186,0,0,0,179.9,7638.746Z" transform="translate(-109.189 -7627.131)" fill="#1a4e75"/>
        <path id="Trazado_104746" data-name="Trazado 104746" d="M190.736,7635.878a5.939,5.939,0,0,1,.949-3.514,3.074,3.074,0,0,1,2.659-1.336,2.618,2.618,0,0,1,1.362.349,3.055,3.055,0,0,1,1,1l.2-1.175h2.145v9.165a3.419,3.419,0,0,1-1.179,2.779,4.974,4.974,0,0,1-3.28.982,6.275,6.275,0,0,1-1.481-.191,6.914,6.914,0,0,1-1.447-.523l.46-1.855a5.8,5.8,0,0,0,1.162.413,5.562,5.562,0,0,0,1.289.14,2.229,2.229,0,0,0,1.5-.425,1.688,1.688,0,0,0,.48-1.328v-.833a2.786,2.786,0,0,1-.962.791,2.846,2.846,0,0,1-1.268.272,3.129,3.129,0,0,1-2.642-1.247,5.27,5.27,0,0,1-.949-3.28Zm2.485.181a3.793,3.793,0,0,0,.408,1.914,1.42,1.42,0,0,0,1.328.7,2.041,2.041,0,0,0,.966-.209,1.6,1.6,0,0,0,.634-.613v-4.023a1.711,1.711,0,0,0-.634-.649,1.838,1.838,0,0,0-.949-.231,1.4,1.4,0,0,0-1.332.813,4.61,4.61,0,0,0-.422,2.123Z" transform="translate(-114.181 -7627.131)" fill="#1a4e75"/>
        <path id="Trazado_104747" data-name="Trazado 104747" d="M205.764,7635.717a4.939,4.939,0,0,1,1.149-3.373,4,4,0,0,1,3.182-1.315,4.047,4.047,0,0,1,3.2,1.311,4.917,4.917,0,0,1,1.157,3.378v.179a4.924,4.924,0,0,1-1.153,3.383,4.55,4.55,0,0,1-6.382,0,4.923,4.923,0,0,1-1.153-3.383Zm2.476.175a3.984,3.984,0,0,0,.443,2.018,1.7,1.7,0,0,0,2.838,0,3.969,3.969,0,0,0,.446-2.014v-.179a3.916,3.916,0,0,0-.451-2,1.526,1.526,0,0,0-1.421-.773,1.507,1.507,0,0,0-1.408.776,3.958,3.958,0,0,0-.447,1.993Z" transform="translate(-119.371 -7627.131)" fill="#1a4e75"/>
        <path id="Trazado_104748" data-name="Trazado 104748" d="M220.79,7633.822a5.986,5.986,0,0,1,.941-3.515,3.055,3.055,0,0,1,2.65-1.336,2.584,2.584,0,0,1,1.243.3,3,3,0,0,1,.97.852v-5.047h2.494v13.275h-2.136l-.2-1.123a3.069,3.069,0,0,1-1.026.97,2.722,2.722,0,0,1-1.357.333,3.113,3.113,0,0,1-2.634-1.243,5.3,5.3,0,0,1-.941-3.285Zm2.476.181a3.789,3.789,0,0,0,.408,1.913,1.42,1.42,0,0,0,1.328.7,1.921,1.921,0,0,0,.935-.218,1.733,1.733,0,0,0,.655-.639v-3.945a1.914,1.914,0,0,0-.651-.681,1.719,1.719,0,0,0-.923-.244,1.4,1.4,0,0,0-1.332.813,4.621,4.621,0,0,0-.422,2.123Z" transform="translate(-124.561 -7625.074)" fill="#1a4e75"/>
        <path id="Trazado_104749" data-name="Trazado 104749" d="M241.55,7640.405a5.078,5.078,0,0,1-.234-.663,4.558,4.558,0,0,1-.14-.715,3.412,3.412,0,0,1-1.009,1.114,2.514,2.514,0,0,1-1.493.443,3.111,3.111,0,0,1-2.23-.745,2.669,2.669,0,0,1-.783-2.029,2.428,2.428,0,0,1,1.043-2.1,5.2,5.2,0,0,1,3.042-.745h1.387v-.731a1.431,1.431,0,0,0-.349-1.029,1.628,1.628,0,0,0-1.962-.072,1.036,1.036,0,0,0-.327.813l-2.4-.009-.008-.051a2.339,2.339,0,0,1,1.012-2.014,4.419,4.419,0,0,1,2.817-.846,4.114,4.114,0,0,1,2.681.838,2.9,2.9,0,0,1,1.029,2.388v3.8a7.1,7.1,0,0,0,.1,1.218,5.99,5.99,0,0,0,.31,1.131Zm-2.272-1.659a2.129,2.129,0,0,0,1.166-.323,1.686,1.686,0,0,0,.689-.748v-1.3h-1.387a1.659,1.659,0,0,0-1.2.4,1.286,1.286,0,0,0-.408.958.958.958,0,0,0,.306.74A1.185,1.185,0,0,0,239.278,7638.746Z" transform="translate(-129.697 -7627.131)" fill="#1a4e75"/>
      </g>
    </g>
  </g>
</svg>
