<svg xmlns="http://www.w3.org/2000/svg" width="292" height="294" viewBox="0 0 292 294">
  <g id="Grupo_54839" data-name="Grupo 54839" transform="translate(-492 -1917)">
    <path id="Trazado_105627" data-name="Trazado 105627" d="M0,0H292V294H0Z" transform="translate(492 1917)" fill="#f3f9ff"/>
    <g id="Grupo_54537" data-name="Grupo 54537" transform="translate(189.067 -5359.834)">
      <path id="Trazado_104750" data-name="Trazado 104750" d="M361.687,7599.249a1.71,1.71,0,0,1-.739-.167c-1.265-.6-2.271-1.506-1.07-4.108a23.871,23.871,0,0,1,1.58-2.8,9.834,9.834,0,0,0,1.211-2.3c.044-.159.1-.333.151-.515.251-.843.674-2.255.359-2.778a.463.463,0,0,0-.347-.206,5.464,5.464,0,0,0-3.257.886l-.11.058-9.347,3.866-3.4,1.058c-.236.094-2.734,1.014-4.334.2a2.258,2.258,0,0,1-1.177-1.471c-.7-2.592,4.576-8.332,5.64-9.456l4.689-5.317a18.5,18.5,0,0,1,6.056-5.552c1.654-.827,3.3-1.531,4.748-2.153a31.75,31.75,0,0,0,3.368-1.569c1.358-.833,8.024-6.241,8.091-6.3l3.335-2.476,6.694,8.343-1.32,1.755-4.21,6.305a25.951,25.951,0,0,0-4.485,7.952c-1.349,4.537-4.825,10.887-7.293,13.323C364.431,7597.9,362.956,7599.249,361.687,7599.249Zm.676-14.239a3.692,3.692,0,0,1,.731.069,1.782,1.782,0,0,1,1.223.823c.617,1.025.151,2.587-.224,3.841-.053.174-.1.339-.145.492a10.611,10.611,0,0,1-1.367,2.648,22.992,22.992,0,0,0-1.5,2.644c-.815,1.767-.373,1.975.43,2.353.7.332,2.813-1.746,4.072-2.987,2.3-2.27,5.678-8.469,6.953-12.757a26.79,26.79,0,0,1,4.721-8.4l4.174-6.257.711-.947-5.25-6.542-2.286,1.7c-.254.207-6.778,5.5-8.209,6.38a31.871,31.871,0,0,1-3.54,1.658c-1.434.615-3.059,1.311-4.678,2.121a17.468,17.468,0,0,0-5.573,5.142l-.053.069-4.732,5.367c-2.449,2.589-5.71,6.833-5.338,8.217a.928.928,0,0,0,.5.631c.913.463,2.691-.039,3.3-.271l3.388-1.052,9.236-3.823A7.285,7.285,0,0,1,362.362,7585.01Z" transform="translate(0 -83.552)" fill="#1a4e75"/>
      <g id="Grupo_54535" data-name="Grupo 54535" transform="translate(517.245 7374.548)">
        <path id="Trazado_104751" data-name="Trazado 104751" d="M611.072,7615.258a.665.665,0,0,1-.641-.494c-.007-.028-.188-.712-.458-1.967a.664.664,0,1,1,1.3-.278c.261,1.219.441,1.9.443,1.9a.664.664,0,0,1-.471.812A.693.693,0,0,1,611.072,7615.258Z" transform="translate(-607.691 -7476.213)" fill="#1a4e75"/>
        <path id="Trazado_104752" data-name="Trazado 104752" d="M608.736,7543.385a.664.664,0,0,1-.654-.553c-.214-1.269-.412-2.584-.586-3.912a.663.663,0,1,1,1.315-.174c.173,1.312.368,2.611.58,3.864a.663.663,0,0,1-.543.765A.673.673,0,0,1,608.736,7543.385Zm-1.027-7.793a.663.663,0,0,1-.66-.6c-.125-1.3-.229-2.628-.309-3.941a.663.663,0,0,1,.622-.7.67.67,0,0,1,.7.622c.079,1.3.181,2.607.3,3.894a.664.664,0,0,1-.6.725Zm-.473-7.846a.663.663,0,0,1-.663-.647c-.021-.859-.032-1.737-.032-2.627q0-.658.009-1.327a.664.664,0,0,1,.664-.656h.008a.664.664,0,0,1,.656.672c-.006.44-.009.876-.009,1.311q0,1.321.032,2.6a.664.664,0,0,1-.648.679Zm.1-7.858H607.3a.664.664,0,0,1-.628-.7c.068-1.324.164-2.652.284-3.948a.664.664,0,0,1,1.322.123c-.119,1.277-.213,2.587-.28,3.893A.664.664,0,0,1,607.339,7519.888Zm.729-7.825a.816.816,0,0,1-.091,0,.665.665,0,0,1-.567-.749c.179-1.312.39-2.626.626-3.909a.663.663,0,1,1,1.305.239c-.232,1.263-.439,2.558-.616,3.85A.664.664,0,0,1,608.068,7512.063Zm1.425-7.724a.662.662,0,0,1-.646-.815q.207-.88.435-1.759l.745-2.065a.664.664,0,0,1,1.248.452l-.727,2.006c-.131.516-.273,1.094-.409,1.67A.665.665,0,0,1,609.492,7504.339Zm2.5-7.445a.663.663,0,0,1-.624-.891l1.338-3.695a.664.664,0,1,1,1.248.453l-1.339,3.7A.664.664,0,0,1,611.988,7496.895Zm2.677-7.391a.663.663,0,0,1-.624-.889l1.338-3.7a.664.664,0,0,1,1.248.453l-1.338,3.695A.665.665,0,0,1,614.665,7489.5Zm2.677-7.391a.675.675,0,0,1-.226-.04.664.664,0,0,1-.4-.851l.774-2.135a.8.8,0,0,1,.041-.09s.282-.524.658-1.445a.663.663,0,1,1,1.228.5c-.344.846-.613,1.375-.695,1.53l-.757,2.093A.665.665,0,0,1,617.343,7482.113Zm2.684-7.383a.638.638,0,0,1-.164-.021.662.662,0,0,1-.478-.806,30.569,30.569,0,0,0,.713-3.778.663.663,0,0,1,1.317.163,31.636,31.636,0,0,1-.744,3.944A.663.663,0,0,1,620.027,7474.73Zm.956-7.782a.664.664,0,0,1-.664-.658,28.465,28.465,0,0,0-.29-3.827.664.664,0,0,1,1.315-.189,30.031,30.031,0,0,1,.3,4,.664.664,0,0,1-.658.669Zm-1.045-7.78a.666.666,0,0,1-.648-.526c-.244-1.15-.526-2.444-.838-3.843a.664.664,0,1,1,1.3-.288c.312,1.4.6,2.7.841,3.855a.663.663,0,0,1-.512.786A.638.638,0,0,1,619.937,7459.168Zm-1.7-7.692a.665.665,0,0,1-.647-.516c-.28-1.24-.575-2.525-.877-3.838a.663.663,0,0,1,1.293-.3c.3,1.314.6,2.6.879,3.84a.664.664,0,0,1-.5.794A.65.65,0,0,1,618.236,7451.476Zm-1.764-7.674a.663.663,0,0,1-.646-.512l-.894-3.834a.664.664,0,1,1,1.293-.3l.893,3.835a.663.663,0,0,1-.5.8A.614.614,0,0,1,616.472,7443.8Zm-1.794-7.667a.665.665,0,0,1-.646-.512l-.9-3.831a.663.663,0,1,1,1.291-.306l.906,3.832a.665.665,0,0,1-.494.8A.656.656,0,0,1,614.679,7436.135Zm-1.815-7.663a.663.663,0,0,1-.644-.51l-.914-3.832a.663.663,0,0,1,1.291-.309l.914,3.833a.663.663,0,0,1-.492.8A.7.7,0,0,1,612.864,7428.472Zm-1.831-7.667a.662.662,0,0,1-.645-.508l-.4-1.664a2.361,2.361,0,0,1-.14-.89c.006-.1.013-.252.013-.458,0-.31-.015-.634-.044-.965a.664.664,0,1,1,1.322-.118c.033.369.05.734.05,1.083,0,.268-.01.468-.017.584l.508,2.117a.664.664,0,0,1-.49.8A.677.677,0,0,1,611.033,7420.8Z" transform="translate(-606.541 -7410.134)" fill="#1a4e75"/>
        <path id="Trazado_104753" data-name="Trazado 104753" d="M610.263,7410.445a.663.663,0,0,1-.61-.4,10.357,10.357,0,0,0-.888-1.648.664.664,0,0,1,1.107-.734,11.851,11.851,0,0,1,1,1.858.664.664,0,0,1-.61.926Z" transform="translate(-607.252 -7407.364)" fill="#1a4e75"/>
      </g>
      <path id="Trazado_104754" data-name="Trazado 104754" d="M606.935,7341.545l-.451-1.248,21.2-7.652,9.306-2.758c7.814-4.646,7.683-19.88,7.681-20.034l1.327-.019c.01.662.138,16.254-8.407,21.239l-.146.063L628.1,7333.9Z" transform="translate(-89.277 0)" fill="#1a4e75"/>
      <g id="Grupo_54536" data-name="Grupo 54536" transform="translate(400.081 7519.932)">
        <path id="Trazado_104755" data-name="Trazado 104755" d="M433.255,7627.817l3.2,9.255h.052l3.227-9.255h3.295v12.559h-2.518v-3.744l.241-5.546-.051-.009-3.365,9.3h-1.691l-3.346-9.264-.052.009.242,5.512v3.744h-2.519v-12.559Z" transform="translate(-429.968 -7626.92)" fill="#1a4e75"/>
        <path id="Trazado_104756" data-name="Trazado 104756" d="M458.114,7641.924a5.175,5.175,0,0,1-.238-.673,4.691,4.691,0,0,1-.142-.724,3.465,3.465,0,0,1-1.022,1.129,2.546,2.546,0,0,1-1.514.449,3.149,3.149,0,0,1-2.259-.755,2.7,2.7,0,0,1-.794-2.057,2.462,2.462,0,0,1,1.056-2.126,5.277,5.277,0,0,1,3.084-.755h1.405v-.742a1.452,1.452,0,0,0-.353-1.043,1.649,1.649,0,0,0-1.989-.073,1.048,1.048,0,0,0-.332.824l-2.433-.01-.009-.051a2.369,2.369,0,0,1,1.026-2.041,4.474,4.474,0,0,1,2.855-.858,4.168,4.168,0,0,1,2.717.85,2.943,2.943,0,0,1,1.044,2.419v3.855a7.2,7.2,0,0,0,.1,1.234,6.136,6.136,0,0,0,.315,1.147Zm-2.3-1.682a2.153,2.153,0,0,0,1.182-.329,1.7,1.7,0,0,0,.7-.759v-1.319h-1.405a1.684,1.684,0,0,0-1.216.4,1.3,1.3,0,0,0-.414.971.967.967,0,0,0,.311.75A1.2,1.2,0,0,0,455.81,7640.243Z" transform="translate(-437.43 -7628.468)" fill="#1a4e75"/>
        <path id="Trazado_104757" data-name="Trazado 104757" d="M469.466,7632.592l.112,1.336a3.421,3.421,0,0,1,1.147-1.113,2.981,2.981,0,0,1,1.527-.4,2.808,2.808,0,0,1,2.208.888,4.1,4.1,0,0,1,.794,2.787v5.831h-2.527v-5.836a1.9,1.9,0,0,0-.38-1.336,1.528,1.528,0,0,0-1.147-.392,1.931,1.931,0,0,0-.9.2,1.846,1.846,0,0,0-.664.575v6.787H467.12v-9.333Z" transform="translate(-442.468 -7628.468)" fill="#1a4e75"/>
        <path id="Trazado_104758" data-name="Trazado 104758" d="M481.627,7637.335a6.018,6.018,0,0,1,.961-3.562,3.116,3.116,0,0,1,2.7-1.354,2.657,2.657,0,0,1,1.38.354,3.105,3.105,0,0,1,1.017,1.009l.2-1.19h2.173v9.29a3.462,3.462,0,0,1-1.2,2.816,5.042,5.042,0,0,1-3.324,1,6.349,6.349,0,0,1-1.5-.194,7,7,0,0,1-1.466-.531l.466-1.881a5.879,5.879,0,0,0,1.178.419,5.647,5.647,0,0,0,1.306.142,2.256,2.256,0,0,0,1.523-.432,1.706,1.706,0,0,0,.488-1.345v-.845a2.817,2.817,0,0,1-.975.8,2.881,2.881,0,0,1-1.286.276,3.173,3.173,0,0,1-2.678-1.264,5.339,5.339,0,0,1-.961-3.325Zm2.519.183a3.842,3.842,0,0,0,.414,1.939,1.439,1.439,0,0,0,1.345.708,2.079,2.079,0,0,0,.979-.212,1.624,1.624,0,0,0,.643-.62v-4.079a1.761,1.761,0,0,0-.643-.66,1.885,1.885,0,0,0-.961-.233,1.42,1.42,0,0,0-1.35.824,4.681,4.681,0,0,0-.427,2.152Z" transform="translate(-447.349 -7628.468)" fill="#1a4e75"/>
        <path id="Trazado_104759" data-name="Trazado 104759" d="M502.467,7641.924a5.178,5.178,0,0,1-.238-.673,4.613,4.613,0,0,1-.142-.724,3.474,3.474,0,0,1-1.023,1.129,2.548,2.548,0,0,1-1.514.449,3.151,3.151,0,0,1-2.26-.755,2.7,2.7,0,0,1-.794-2.057,2.461,2.461,0,0,1,1.057-2.126,5.273,5.273,0,0,1,3.083-.755h1.405v-.742a1.45,1.45,0,0,0-.353-1.043,1.649,1.649,0,0,0-1.989-.073,1.049,1.049,0,0,0-.332.824l-2.433-.01-.009-.051a2.373,2.373,0,0,1,1.026-2.041,4.475,4.475,0,0,1,2.855-.858,4.169,4.169,0,0,1,2.717.85,2.942,2.942,0,0,1,1.043,2.419v3.855a7.266,7.266,0,0,0,.1,1.234,6.136,6.136,0,0,0,.315,1.147Zm-2.3-1.682a2.157,2.157,0,0,0,1.182-.329,1.7,1.7,0,0,0,.7-.759v-1.319h-1.405a1.685,1.685,0,0,0-1.216.4,1.3,1.3,0,0,0-.414.971.969.969,0,0,0,.311.75A1.2,1.2,0,0,0,500.163,7640.243Z" transform="translate(-452.353 -7628.468)" fill="#1a4e75"/>
        <path id="Trazado_104760" data-name="Trazado 104760" d="M517.583,7635.332a6.064,6.064,0,0,1,.954-3.562,3.094,3.094,0,0,1,2.686-1.354,2.606,2.606,0,0,1,1.26.3,3.047,3.047,0,0,1,.983.862v-5.115h2.527v13.457h-2.165l-.206-1.14a3.09,3.09,0,0,1-1.04.983,2.76,2.76,0,0,1-1.375.337,3.154,3.154,0,0,1-2.669-1.26,5.375,5.375,0,0,1-.954-3.33Zm2.51.183a3.841,3.841,0,0,0,.414,1.939,1.44,1.44,0,0,0,1.346.707,1.939,1.939,0,0,0,.948-.222,1.744,1.744,0,0,0,.664-.646v-4a1.948,1.948,0,0,0-.66-.688,1.745,1.745,0,0,0-.936-.248,1.422,1.422,0,0,0-1.35.824,4.682,4.682,0,0,0-.427,2.152Z" transform="translate(-459.447 -7626.465)" fill="#1a4e75"/>
        <path id="Trazado_104761" data-name="Trazado 104761" d="M537.174,7642.105a4.2,4.2,0,0,1-3.226-1.294,4.624,4.624,0,0,1-1.208-3.287v-.344a5.107,5.107,0,0,1,1.143-3.425,4.262,4.262,0,0,1,6-.2,4.38,4.38,0,0,1,1.043,3.079v1.373h-5.572l-.017.051a2.423,2.423,0,0,0,.616,1.512,1.927,1.927,0,0,0,1.488.593,4.863,4.863,0,0,0,1.389-.167,6.37,6.37,0,0,0,1.207-.531l.682,1.557a4.655,4.655,0,0,1-1.492.776A6.5,6.5,0,0,1,537.174,7642.105Zm-.224-7.745a1.31,1.31,0,0,0-1.1.534,2.793,2.793,0,0,0-.5,1.406l.026.044h3.087v-.225a2.019,2.019,0,0,0-.375-1.281A1.351,1.351,0,0,0,536.95,7634.36Z" transform="translate(-464.546 -7628.468)" fill="#1a4e75"/>
        <path id="Trazado_104762" data-name="Trazado 104762" d="M562.335,7637.517a5.359,5.359,0,0,1-.958,3.33,3.167,3.167,0,0,1-2.673,1.259,2.986,2.986,0,0,1-1.3-.272,2.673,2.673,0,0,1-.975-.8v4.477h-2.509v-12.92h2.269l.147,1.1a2.98,2.98,0,0,1,1-.945,2.7,2.7,0,0,1,1.359-.332,3.1,3.1,0,0,1,2.691,1.354,6.041,6.041,0,0,1,.958,3.562Zm-2.519-.194a4.536,4.536,0,0,0-.44-2.143,1.436,1.436,0,0,0-1.346-.819,1.907,1.907,0,0,0-.97.232,1.681,1.681,0,0,0-.634.665v4.095a1.55,1.55,0,0,0,.634.605,2.14,2.14,0,0,0,.988.207,1.449,1.449,0,0,0,1.341-.716,3.792,3.792,0,0,0,.427-1.944Z" transform="translate(-471.671 -7628.468)" fill="#1a4e75"/>
        <path id="Trazado_104763" data-name="Trazado 104763" d="M572.922,7642.105a4.2,4.2,0,0,1-3.225-1.294,4.623,4.623,0,0,1-1.208-3.287v-.344a5.109,5.109,0,0,1,1.143-3.425,4.261,4.261,0,0,1,6-.2,4.38,4.38,0,0,1,1.043,3.079v1.373H571.1l-.017.051a2.423,2.423,0,0,0,.617,1.512,1.927,1.927,0,0,0,1.488.593,4.864,4.864,0,0,0,1.389-.167,6.371,6.371,0,0,0,1.207-.531l.682,1.557a4.654,4.654,0,0,1-1.492.776A6.5,6.5,0,0,1,572.922,7642.105Zm-.224-7.745a1.31,1.31,0,0,0-1.1.534,2.794,2.794,0,0,0-.5,1.406l.026.044h3.087v-.225a2.018,2.018,0,0,0-.375-1.281A1.351,1.351,0,0,0,572.7,7634.36Z" transform="translate(-476.574 -7628.468)" fill="#1a4e75"/>
        <path id="Trazado_104764" data-name="Trazado 104764" d="M587.943,7634.756l-.923-.026a1.682,1.682,0,0,0-.924.233,1.481,1.481,0,0,0-.552.656v6.305h-2.51v-9.333h2.338l.112,1.38a2.94,2.94,0,0,1,.849-1.143,1.9,1.9,0,0,1,1.2-.41,1.809,1.809,0,0,1,.35.031c.107.02.214.043.324.073Z" transform="translate(-481.469 -7628.468)" fill="#1a4e75"/>
        <path id="Trazado_104765" data-name="Trazado 104765" d="M594.636,7632.592l.112,1.336a3.421,3.421,0,0,1,1.147-1.113,2.982,2.982,0,0,1,1.527-.4,2.808,2.808,0,0,1,2.208.888,4.1,4.1,0,0,1,.794,2.787v5.831H597.9v-5.836a1.9,1.9,0,0,0-.38-1.336,1.529,1.529,0,0,0-1.147-.392,1.93,1.93,0,0,0-.9.2,1.841,1.841,0,0,0-.664.575v6.787H592.29v-9.333Z" transform="translate(-484.582 -7628.468)" fill="#1a4e75"/>
        <path id="Trazado_104766" data-name="Trazado 104766" d="M610.1,7628.354h-2.518v-1.89H610.1Zm0,11.567h-2.518v-9.334H610.1Z" transform="translate(-489.726 -7626.465)" fill="#1a4e75"/>
        <path id="Trazado_104767" data-name="Trazado 104767" d="M617.206,7639.922h-2.518v-13.457h2.518Z" transform="translate(-492.118 -7626.465)" fill="#1a4e75"/>
      </g>
      <path id="Trazado_104768" data-name="Trazado 104768" d="M402.871,7499.693l-14.592-20.185,13.5-13.266,16.443-16.271c.161-.15,14.988-14.109,21.675-19.768a33.584,33.584,0,0,0,9.151-12.7c.046-.158,5.772-19.177,10.754-30,5.019-10.9,15.631-20.545,15.737-20.642l4.641-4.815,5.916-5.4,9.375-7.639c.338-.282,8.5-7.032,16.827-9.809,8.873-2.958,12.171-1.49,19.614,8.721,6.728,9.232,6.4,13.642,5.5,25.426-.115,1.519-.239,3.16-.358,4.955-1.048,15.722-16.065,26.023-16.216,26.125L502.722,7418.6l-23.545,19.2L442.135,7468.1Zm-12.848-20.038,13.1,18.128,38.172-30.719,37.039-30.291,23.556-19.215,18.172-14.2c.184-.125,14.667-10.076,15.672-25.14.119-1.8.244-3.445.36-4.967.888-11.749,1.187-15.707-5.254-24.544-7.552-10.363-10.348-10.834-18.121-8.244-8.091,2.7-16.32,9.505-16.4,9.575l-9.353,7.62L481.11,7363l-4.643,4.818c-.138.125-10.551,9.589-15.454,20.241-4.944,10.74-10.642,29.67-10.7,29.859a34.282,34.282,0,0,1-9.555,13.3c-6.66,5.635-21.462,19.57-21.61,19.71l-16.433,16.26Z" transform="translate(-15.86 -9.428)" fill="#1a4e75"/>
      <path id="Trazado_104769" data-name="Trazado 104769" d="M579.474,7350.367a.665.665,0,0,1-.573-1c.133-.23,3.35-5.592,11.658-5.592h.165a.663.663,0,0,1-.006,1.327c-.058,0-.106,0-.159,0-7.517,0-10.393,4.732-10.513,4.934A.666.666,0,0,1,579.474,7350.367Z" transform="translate(-79.966 -11.422)" fill="#1a4e75"/>
      <path id="Trazado_104770" data-name="Trazado 104770" d="M583.126,7370.972a.664.664,0,0,1-.518-1.078c.308-.385,7.6-9.379,15.927-9.379h.1a.664.664,0,0,1-.006,1.328c-.03,0-.061,0-.091,0-7.688,0-14.82,8.791-14.893,8.88A.663.663,0,0,1,583.126,7370.972Z" transform="translate(-81.195 -17.052)" fill="#1a4e75"/>
      <path id="Trazado_104771" data-name="Trazado 104771" d="M578.171,7386.865a.664.664,0,0,1-.445-1.157c.553-.5,13.6-12.17,21.909-12.17h.075a.663.663,0,1,1-.012,1.327h-.064c-7.8,0-20.887,11.711-21.018,11.83A.663.663,0,0,1,578.171,7386.865Z" transform="translate(-79.527 -21.435)" fill="#1a4e75"/>
      <path id="Trazado_104772" data-name="Trazado 104772" d="M585.122,7406.247a.664.664,0,0,1-.536-1.054c.366-.5,9.024-12.273,17.388-12.273h.075a.664.664,0,0,1-.006,1.327c-.022,0-.046,0-.07,0-7.7,0-16.229,11.609-16.314,11.727A.664.664,0,0,1,585.122,7406.247Z" transform="translate(-81.866 -27.955)" fill="#1a4e75"/>
    </g>
  </g>
</svg>
