<svg xmlns="http://www.w3.org/2000/svg" width="292" height="294" viewBox="0 0 292 294">
  <g id="Grupo_54841" data-name="Grupo 54841" transform="translate(-1116 -1917)">
    <path id="Trazado_105633" data-name="Trazado 105633" d="M0,0H292V294H0Z" transform="translate(1116 1917)" fill="#f3f9ff"/>
    <g id="Grupo_54543" data-name="Grupo 54543" transform="translate(139.694 -5355.666)">
      <path id="Trazado_104796" data-name="Trazado 104796" d="M1043.833,7581.023a1.7,1.7,0,0,1-.73-.165c-1.25-.59-2.244-1.489-1.057-4.062a23.5,23.5,0,0,1,1.561-2.762,9.721,9.721,0,0,0,1.2-2.27c.044-.158.1-.328.149-.508.249-.833.665-2.228.355-2.744a.451.451,0,0,0-.343-.2,5.218,5.218,0,0,0-3.216.875l-.114.06-8.841,3.583-4.642,2.246c-.968.533-6.048,3.224-8.078,2.364a1.519,1.519,0,0,1-.9-1.029c-.675-2.518,7.5-10.528,10.022-12.923l4.606-5.228a18.288,18.288,0,0,1,5.984-5.485c1.634-.817,3.259-1.514,4.692-2.127a31.883,31.883,0,0,0,3.328-1.55c.977-.6,7.614-6.814,11.855-10.862l12.069-14.446,9.8,9.994-11.754,11.417-9.529,11.431a25.617,25.617,0,0,0-4.436,7.862c-1.333,4.482-4.767,10.756-7.205,13.163C1046.544,7579.687,1045.086,7581.023,1043.833,7581.023Zm.666-14.069a3.679,3.679,0,0,1,.722.069,1.76,1.76,0,0,1,1.209.813c.61,1.013.149,2.556-.221,3.8-.052.172-.1.335-.143.487a10.5,10.5,0,0,1-1.351,2.616,22.771,22.771,0,0,0-1.479,2.612c-.806,1.745-.368,1.952.425,2.326.7.331,2.78-1.725,4.024-2.953,2.271-2.242,5.609-8.367,6.868-12.6a26.5,26.5,0,0,1,4.691-8.334l9.594-11.5,10.834-10.523-7.867-8.02-11.215,13.417c-1.09,1.04-10.689,10.19-12.1,11.057a31.619,31.619,0,0,1-3.5,1.638c-1.417.607-3.023,1.3-4.623,2.1a17.335,17.335,0,0,0-5.507,5.081l-.052.067-4.674,5.3c-4.958,4.713-10.012,10.5-9.7,11.674a.213.213,0,0,0,.149.162c1.064.453,4.712-1.084,6.962-2.322l4.712-2.279,8.825-3.579A7.184,7.184,0,0,1,1044.5,7566.954Z" transform="translate(0 -75.128)" fill="#1a4e75"/>
      <g id="Grupo_54541" data-name="Grupo 54541" transform="translate(1190.159 7372.076)">
        <path id="Trazado_104797" data-name="Trazado 104797" d="M1284.534,7611.768a.658.658,0,0,1-.633-.487c-.007-.028-.186-.705-.452-1.944a.655.655,0,0,1,1.282-.275c.259,1.2.436,1.875.438,1.882a.657.657,0,0,1-.465.8A.7.7,0,0,1,1284.534,7611.768Z" transform="translate(-1281.194 -7476.398)" fill="#1a4e75"/>
        <path id="Trazado_104798" data-name="Trazado 104798" d="M1282.195,7539.5a.656.656,0,0,1-.646-.545c-.212-1.249-.406-2.531-.574-3.811a.655.655,0,0,1,1.3-.172c.167,1.264.358,2.53.568,3.763a.657.657,0,0,1-.536.757A.719.719,0,0,1,1282.195,7539.5Zm-1.008-7.591a.655.655,0,0,1-.652-.592c-.124-1.27-.227-2.562-.307-3.839a.656.656,0,0,1,.613-.7.663.663,0,0,1,.7.614c.079,1.262.181,2.54.3,3.794a.655.655,0,0,1-.589.715C1281.229,7531.906,1281.208,7531.907,1281.187,7531.907Zm-.477-7.642a.657.657,0,0,1-.655-.639q-.037-1.4-.039-2.868,0-.49,0-.985a.657.657,0,0,1,.656-.649h.007a.656.656,0,0,1,.649.662c0,.326,0,.649,0,.972q0,1.444.039,2.833a.657.657,0,0,1-.638.673Zm.076-7.658h-.032a.656.656,0,0,1-.624-.686c.062-1.285.149-2.579.261-3.847a.655.655,0,0,1,1.306.115c-.11,1.25-.2,2.526-.257,3.794A.655.655,0,0,1,1280.787,7516.607Zm.674-7.625a.642.642,0,0,1-.086-.006.654.654,0,0,1-.564-.735c.168-1.288.365-2.57.586-3.812a.648.648,0,0,1,.76-.531.655.655,0,0,1,.531.76c-.217,1.222-.411,2.485-.578,3.753A.655.655,0,0,1,1281.46,7508.982Zm1.339-7.536a.644.644,0,0,1-.146-.016.656.656,0,0,1-.495-.784q.263-1.159.565-2.321l.516-1.432a.655.655,0,0,1,1.232.447l-.5,1.374c-.18.7-.365,1.463-.537,2.221A.654.654,0,0,1,1282.8,7501.447Zm2.361-7.274a.678.678,0,0,1-.224-.039.656.656,0,0,1-.393-.84l1.3-3.6a.656.656,0,0,1,1.233.447l-1.3,3.6A.657.657,0,0,1,1285.16,7494.172Zm2.608-7.2a.655.655,0,0,1-.617-.878l1.3-3.6a.656.656,0,1,1,1.233.447l-1.3,3.6A.656.656,0,0,1,1287.768,7486.972Zm2.609-7.2a.648.648,0,0,1-.223-.04.656.656,0,0,1-.393-.84l1.076-2.971a.8.8,0,0,1,.041-.09c.005-.009.11-.2.276-.564a.656.656,0,0,1,1.19.549c-.142.308-.245.509-.29.594l-1.06,2.928A.657.657,0,0,1,1290.377,7479.772Zm2.694-7.167a.654.654,0,0,1-.629-.839,30.155,30.155,0,0,0,.821-3.655.655.655,0,0,1,1.294.207,31.362,31.362,0,0,1-.857,3.816A.656.656,0,0,1,1293.071,7472.6Zm1.2-7.544h-.021a.658.658,0,0,1-.635-.676q.013-.432.013-.877a28.169,28.169,0,0,0-.145-2.86.656.656,0,1,1,1.3-.133,29.647,29.647,0,0,1,.152,2.993q0,.464-.013.917A.656.656,0,0,1,1294.273,7465.061Zm-.764-7.6a.656.656,0,0,1-.642-.523c-.223-1.079-.492-2.342-.8-3.747a.656.656,0,1,1,1.282-.279c.307,1.41.577,2.676.8,3.76a.658.658,0,0,1-.642.788Zm-1.631-7.5a.655.655,0,0,1-.639-.512c-.268-1.192-.553-2.443-.85-3.735a.655.655,0,0,1,1.278-.294c.3,1.294.583,2.547.852,3.741a.656.656,0,0,1-.5.783A.67.67,0,0,1,1291.878,7449.961Zm-1.719-7.472a.655.655,0,0,1-.637-.506c-.288-1.225-.582-2.47-.883-3.725a.656.656,0,0,1,1.275-.306c.3,1.257.6,2.5.884,3.731a.656.656,0,0,1-.488.788A.665.665,0,0,1,1290.159,7442.49Zm-1.783-7.457a.655.655,0,0,1-.636-.5c-.3-1.247-.612-2.491-.918-3.719a.656.656,0,1,1,1.272-.317c.307,1.23.614,2.476.919,3.726a.655.655,0,0,1-.637.811Zm-1.859-7.438a.656.656,0,0,1-.635-.493c-.326-1.272-.648-2.513-.966-3.7a.656.656,0,0,1,1.268-.337c.317,1.195.641,2.439.968,3.716a.656.656,0,0,1-.472.8A.648.648,0,0,1,1286.516,7427.595Zm-1.969-7.412a.655.655,0,0,1-.631-.479c-.372-1.334-.727-2.568-1.059-3.672a.656.656,0,0,1,1.256-.378c.334,1.113.692,2.355,1.066,3.7a.656.656,0,0,1-.456.808A.666.666,0,0,1,1284.547,7420.183Z" transform="translate(-1280.017 -7409.799)" fill="#1a4e75"/>
        <path id="Trazado_104799" data-name="Trazado 104799" d="M1282.746,7410.072a.658.658,0,0,1-.616-.428,8.922,8.922,0,0,0-.733-1.657.656.656,0,0,1,1.093-.724,10.3,10.3,0,0,1,.87,1.926.656.656,0,0,1-.615.883Z" transform="translate(-1280.455 -7406.969)" fill="#1a4e75"/>
      </g>
      <g id="Grupo_54542" data-name="Grupo 54542" transform="translate(1066.033 7515.971)">
        <path id="Trazado_104800" data-name="Trazado 104800" d="M1093.922,7627.818l3.161,9.144h.051l3.188-9.144h3.255v12.408h-2.488v-3.7l.238-5.479-.05-.009-3.324,9.187h-1.67l-3.307-9.152-.051.008.239,5.445v3.7h-2.489v-12.408Z" transform="translate(-1090.675 -7626.932)" fill="#1a4e75"/>
        <path id="Trazado_104801" data-name="Trazado 104801" d="M1118.75,7641.811a5.067,5.067,0,0,1-.235-.665,4.647,4.647,0,0,1-.14-.715,3.416,3.416,0,0,1-1.01,1.115,2.521,2.521,0,0,1-1.5.444,3.111,3.111,0,0,1-2.232-.746,2.67,2.67,0,0,1-.784-2.033,2.431,2.431,0,0,1,1.044-2.1,5.212,5.212,0,0,1,3.047-.746h1.388v-.733a1.44,1.44,0,0,0-.349-1.031,1.363,1.363,0,0,0-1.031-.367,1.346,1.346,0,0,0-.933.3,1.034,1.034,0,0,0-.328.813l-2.4-.009-.009-.05a2.342,2.342,0,0,1,1.014-2.017,4.423,4.423,0,0,1,2.821-.847,4.124,4.124,0,0,1,2.684.839,2.908,2.908,0,0,1,1.031,2.391v3.809a7.125,7.125,0,0,0,.1,1.219,6.06,6.06,0,0,0,.311,1.133Zm-2.276-1.661a2.122,2.122,0,0,0,1.167-.325,1.673,1.673,0,0,0,.69-.75v-1.3h-1.388a1.664,1.664,0,0,0-1.2.4,1.286,1.286,0,0,0-.409.958.955.955,0,0,0,.307.742A1.189,1.189,0,0,0,1116.473,7640.149Z" transform="translate(-1098.313 -7628.517)" fill="#1a4e75"/>
        <path id="Trazado_104802" data-name="Trazado 104802" d="M1130.145,7632.591l.111,1.32a3.394,3.394,0,0,1,1.134-1.1,2.953,2.953,0,0,1,1.509-.391,2.771,2.771,0,0,1,2.181.878,4.048,4.048,0,0,1,.784,2.752v5.76h-2.5v-5.765a1.875,1.875,0,0,0-.375-1.32,1.509,1.509,0,0,0-1.133-.388,1.912,1.912,0,0,0-.887.2,1.827,1.827,0,0,0-.656.567v6.705h-2.489v-9.22Z" transform="translate(-1103.471 -7628.517)" fill="#1a4e75"/>
        <path id="Trazado_104803" data-name="Trazado 104803" d="M1142.334,7637.277a5.949,5.949,0,0,1,.95-3.52,3.08,3.08,0,0,1,2.664-1.338,2.621,2.621,0,0,1,1.364.35,3.061,3.061,0,0,1,1.005,1l.2-1.175h2.147v9.178a3.42,3.42,0,0,1-1.181,2.782,4.981,4.981,0,0,1-3.285.984,6.243,6.243,0,0,1-1.483-.192,6.875,6.875,0,0,1-1.449-.524l.46-1.857a5.922,5.922,0,0,0,1.164.414,5.652,5.652,0,0,0,1.29.14,2.225,2.225,0,0,0,1.5-.426,1.686,1.686,0,0,0,.482-1.329v-.835a2.779,2.779,0,0,1-.963.792,2.844,2.844,0,0,1-1.271.273,3.135,3.135,0,0,1-2.646-1.25,5.274,5.274,0,0,1-.95-3.284Zm2.489.18a3.8,3.8,0,0,0,.409,1.916,1.421,1.421,0,0,0,1.329.7,2.055,2.055,0,0,0,.968-.209,1.609,1.609,0,0,0,.635-.614v-4.029a1.729,1.729,0,0,0-.635-.651,1.856,1.856,0,0,0-.95-.231,1.4,1.4,0,0,0-1.334.814,4.623,4.623,0,0,0-.422,2.125Z" transform="translate(-1108.468 -7628.517)" fill="#1a4e75"/>
        <path id="Trazado_104804" data-name="Trazado 104804" d="M1163.1,7641.811a5.066,5.066,0,0,1-.235-.665,4.6,4.6,0,0,1-.14-.715,3.423,3.423,0,0,1-1.01,1.115,2.524,2.524,0,0,1-1.5.444,3.112,3.112,0,0,1-2.233-.746,2.672,2.672,0,0,1-.784-2.033,2.43,2.43,0,0,1,1.044-2.1,5.208,5.208,0,0,1,3.046-.746h1.389v-.733a1.437,1.437,0,0,0-.349-1.031,1.362,1.362,0,0,0-1.031-.367,1.347,1.347,0,0,0-.933.3,1.034,1.034,0,0,0-.328.813l-2.4-.009-.009-.05a2.345,2.345,0,0,1,1.014-2.017,4.424,4.424,0,0,1,2.821-.847,4.125,4.125,0,0,1,2.685.839,2.908,2.908,0,0,1,1.03,2.391v3.809a7.187,7.187,0,0,0,.1,1.219,6.041,6.041,0,0,0,.311,1.133Zm-2.276-1.661a2.125,2.125,0,0,0,1.168-.325,1.672,1.672,0,0,0,.69-.75v-1.3H1161.3a1.665,1.665,0,0,0-1.2.4,1.286,1.286,0,0,0-.409.958.957.957,0,0,0,.307.742A1.19,1.19,0,0,0,1160.827,7640.149Z" transform="translate(-1113.59 -7628.517)" fill="#1a4e75"/>
        <path id="Trazado_104805" data-name="Trazado 104805" d="M1183.724,7634.728l-.911-.025a1.657,1.657,0,0,0-.912.231,1.465,1.465,0,0,0-.545.647v6.229h-2.479v-9.22h2.309l.111,1.363a2.909,2.909,0,0,1,.84-1.13,1.872,1.872,0,0,1,1.188-.4,1.814,1.814,0,0,1,.345.03c.106.021.212.043.32.072Z" transform="translate(-1121.054 -7628.517)" fill="#1a4e75"/>
        <path id="Trazado_104806" data-name="Trazado 104806" d="M1192.121,7641.99a4.147,4.147,0,0,1-3.187-1.279,4.566,4.566,0,0,1-1.194-3.246v-.34a5.044,5.044,0,0,1,1.13-3.384,4.21,4.21,0,0,1,5.927-.195,4.327,4.327,0,0,1,1.031,3.042v1.355h-5.5l-.017.051a2.4,2.4,0,0,0,.609,1.494,1.9,1.9,0,0,0,1.47.585,4.807,4.807,0,0,0,1.372-.166,6.249,6.249,0,0,0,1.192-.524l.674,1.538a4.573,4.573,0,0,1-1.474.767A6.419,6.419,0,0,1,1192.121,7641.99Zm-.222-7.652a1.3,1.3,0,0,0-1.091.527,2.755,2.755,0,0,0-.494,1.389l.026.044h3.05v-.222a2,2,0,0,0-.37-1.266A1.334,1.334,0,0,0,1191.9,7634.338Z" transform="translate(-1124.108 -7628.517)" fill="#1a4e75"/>
        <path id="Trazado_104807" data-name="Trazado 104807" d="M1205.932,7640.072a1.475,1.475,0,0,0,1.065-.385,1.363,1.363,0,0,0,.4-1.03h2.258l.025.052a2.872,2.872,0,0,1-1.052,2.339,4.437,4.437,0,0,1-5.876-.362,4.967,4.967,0,0,1-1.116-3.349v-.256a5,5,0,0,1,1.112-3.348,3.927,3.927,0,0,1,3.175-1.313,3.875,3.875,0,0,1,2.748.971,3.228,3.228,0,0,1,1.009,2.558l-.016.051H1207.4a1.8,1.8,0,0,0-.393-1.189,1.327,1.327,0,0,0-1.082-.472,1.442,1.442,0,0,0-1.394.766,4.215,4.215,0,0,0-.4,1.974v.256a4.2,4.2,0,0,0,.4,1.986A1.457,1.457,0,0,0,1205.932,7640.072Z" transform="translate(-1128.894 -7628.517)" fill="#1a4e75"/>
        <path id="Trazado_104808" data-name="Trazado 104808" d="M1215.481,7637.115a4.945,4.945,0,0,1,1.151-3.378,4.54,4.54,0,0,1,6.391,0,4.917,4.917,0,0,1,1.16,3.382v.179a4.93,4.93,0,0,1-1.155,3.388,4.556,4.556,0,0,1-6.391,0,4.927,4.927,0,0,1-1.155-3.388Zm2.48.175a4,4,0,0,0,.443,2.021,1.531,1.531,0,0,0,1.432.761,1.514,1.514,0,0,0,1.41-.766,3.974,3.974,0,0,0,.448-2.016v-.179a3.929,3.929,0,0,0-.452-2,1.527,1.527,0,0,0-1.423-.773,1.511,1.511,0,0,0-1.411.778,3.969,3.969,0,0,0-.447,2Z" transform="translate(-1133.662 -7628.517)" fill="#1a4e75"/>
        <path id="Trazado_104809" data-name="Trazado 104809" d="M1230.509,7637.277a5.947,5.947,0,0,1,.95-3.52,3.079,3.079,0,0,1,2.663-1.338,2.622,2.622,0,0,1,1.364.35,3.061,3.061,0,0,1,1.005,1l.2-1.175h2.147v9.178a3.421,3.421,0,0,1-1.181,2.782,4.981,4.981,0,0,1-3.285.984,6.24,6.24,0,0,1-1.482-.192,6.881,6.881,0,0,1-1.449-.524l.46-1.857a5.936,5.936,0,0,0,1.163.414,5.664,5.664,0,0,0,1.291.14,2.226,2.226,0,0,0,1.5-.426,1.686,1.686,0,0,0,.481-1.329v-.835a2.776,2.776,0,0,1-.962.792,2.844,2.844,0,0,1-1.271.273,3.134,3.134,0,0,1-2.646-1.25,5.272,5.272,0,0,1-.95-3.284Zm2.489.18a3.793,3.793,0,0,0,.409,1.916,1.421,1.421,0,0,0,1.329.7,2.057,2.057,0,0,0,.968-.209,1.6,1.6,0,0,0,.635-.614v-4.029a1.725,1.725,0,0,0-.635-.651,1.859,1.859,0,0,0-.95-.231,1.4,1.4,0,0,0-1.333.814,4.624,4.624,0,0,0-.422,2.125Z" transform="translate(-1138.839 -7628.517)" fill="#1a4e75"/>
        <path id="Trazado_104810" data-name="Trazado 104810" d="M1248.8,7628.333h-2.488v-1.867h2.488Zm0,11.427h-2.488v-9.22h2.488Z" transform="translate(-1144.283 -7626.466)" fill="#1a4e75"/>
        <path id="Trazado_104811" data-name="Trazado 104811" d="M1252.646,7635.227a5.989,5.989,0,0,1,.942-3.52,3.057,3.057,0,0,1,2.654-1.338,2.573,2.573,0,0,1,1.244.3,2.992,2.992,0,0,1,.972.852v-5.054h2.5v13.294h-2.139l-.2-1.125a3.068,3.068,0,0,1-1.027.972,2.732,2.732,0,0,1-1.36.333,3.116,3.116,0,0,1-2.637-1.245,5.31,5.31,0,0,1-.942-3.29Zm2.48.18a3.8,3.8,0,0,0,.409,1.916,1.422,1.422,0,0,0,1.33.7,1.928,1.928,0,0,0,.937-.218,1.742,1.742,0,0,0,.656-.639v-3.953a1.924,1.924,0,0,0-.652-.681,1.73,1.73,0,0,0-.925-.244,1.4,1.4,0,0,0-1.334.814,4.633,4.633,0,0,0-.422,2.126Z" transform="translate(-1146.463 -7626.466)" fill="#1a4e75"/>
        <path id="Trazado_104812" data-name="Trazado 104812" d="M1273.416,7641.811a5.05,5.05,0,0,1-.235-.665,4.647,4.647,0,0,1-.14-.715,3.416,3.416,0,0,1-1.01,1.115,2.521,2.521,0,0,1-1.5.444,3.111,3.111,0,0,1-2.232-.746,2.67,2.67,0,0,1-.784-2.033,2.431,2.431,0,0,1,1.044-2.1,5.212,5.212,0,0,1,3.047-.746H1273v-.733a1.439,1.439,0,0,0-.349-1.031,1.363,1.363,0,0,0-1.031-.367,1.346,1.346,0,0,0-.933.3,1.034,1.034,0,0,0-.328.813l-2.4-.009-.009-.05a2.342,2.342,0,0,1,1.014-2.017,4.423,4.423,0,0,1,2.821-.847,4.124,4.124,0,0,1,2.684.839,2.908,2.908,0,0,1,1.031,2.391v3.809a7.125,7.125,0,0,0,.1,1.219,6.05,6.05,0,0,0,.311,1.133Zm-2.276-1.661a2.122,2.122,0,0,0,1.167-.325,1.675,1.675,0,0,0,.69-.75v-1.3h-1.388a1.665,1.665,0,0,0-1.2.4,1.286,1.286,0,0,0-.409.958.955.955,0,0,0,.307.742A1.189,1.189,0,0,0,1271.139,7640.149Z" transform="translate(-1151.586 -7628.517)" fill="#1a4e75"/>
      </g>
      <path id="Trazado_104813" data-name="Trazado 104813" d="M1280.673,7334.082a.656.656,0,0,1-.114-1.3,117.628,117.628,0,0,0,25.416-8.151c12.033-5.588,7.177-17.549,6.964-18.055a.656.656,0,0,1,1.208-.51c.058.136,5.57,13.628-7.62,19.754a119.018,119.018,0,0,1-25.74,8.252A.617.617,0,0,1,1280.673,7334.082Z" transform="translate(-89.858)" fill="#1a4e75"/>
      <path id="Trazado_104814" data-name="Trazado 104814" d="M1109.261,7473.339a14.038,14.038,0,0,1-1.673-.094l-.223-.028-9.413-9.5-.048-.141a5,5,0,0,1,1.879-5.333,2.2,2.2,0,0,0,.891-1.578,3.563,3.563,0,0,0-.944-2.257l-.1-.1-.048-.133a2.733,2.733,0,0,1,.347-2.489c1.41-2.141,5.393-3.315,6.669-3.4a2.838,2.838,0,0,0,2.028-.937l.135-.176.218-.063c.142-.038.163-.087.174-.117a2.749,2.749,0,0,0-.456-1.656,2.756,2.756,0,0,1-.087-2.941c1.111-1.567,4.24-1.3,4.832-1.239a2.513,2.513,0,0,0,1.476-.556.6.6,0,0,0,.135-.486c-.216-2.093,2.053-4.379,4.407-5.556,1.7-.851,3.849-4.76,4.531-6.193l.114-.24,1.505-.565a5.357,5.357,0,0,1-1.318-1.823,2.216,2.216,0,0,1-.056-2.355c.726-.984,2.38-.77,2.568-.743h0a19.95,19.95,0,0,0,5.029-.337c2.752-.51,5.012-4.11,5.034-4.147l.064-.085,8.551-9.805,11.883-12.114,29.892-27.953,23.071-18.277c.089-.086,3.18-2.958,6.046-2.32a4.626,4.626,0,0,1,3.18,3.164c2.437,6.15,2.9,23.443,2.438,28.8a10.8,10.8,0,0,1-4.953,8.123l-15.124,12.281-38.511,29.476c-2.2,1.255-4.167,2.959-4.045,3.506a2.967,2.967,0,0,1-1.662,3.1c-1.973,1.412-4.7,3.951-4.651,5.231.106,2.765-3.54,4.932-6.1,5.374l-.17.03a4.5,4.5,0,0,0-1.64.424,3.911,3.911,0,0,0-.549,1.483l-.113.414c-.775,2.811-4.251,3.756-4.4,3.794l-.079.017c-.875.119-2.725.646-2.861,1.5-.319,2.023-2.3,3.861-3.9,4.821a11.215,11.215,0,0,1-1.155.6c-.53.245-.53.245-.869,1.264-.665,2-3.21,2.421-3.722,2.488-.423.154-3.011,1.16-3.541,2.884-.721,2.34-3.314,3.229-4.561,3.657l-.289.1c-.253.093-.579.179-.956.279a12.136,12.136,0,0,0-4.18,1.77A8.313,8.313,0,0,1,1109.261,7473.339Zm-1.287-1.372c.817.076,3.726.257,5.209-.84a13.227,13.227,0,0,1,4.623-1.982c.344-.092.633-.167.844-.244l.311-.109c1.042-.356,3.21-1.1,3.733-2.8.774-2.518,4.289-3.714,4.438-3.764l.144-.03c.021,0,2.236-.242,2.691-1.607.474-1.423.7-1.643,1.563-2.04a9.713,9.713,0,0,0,1.03-.539c1.761-1.056,3.08-2.625,3.282-3.9.312-1.978,3.387-2.513,3.931-2.592.321-.095,2.9-.908,3.437-2.866l.112-.41c.614-2.254.825-2.442,3.233-2.855l.169-.029c2.326-.4,5.081-2.29,5.014-4.032-.094-2.452,4.344-5.739,5.235-6.374l.087-.052c.049-.025,1.247-.653,1.021-1.666-.4-1.8,3.077-4.015,4.637-4.907l38.388-29.389,15.238-12.363a9.639,9.639,0,0,0,4.345-7.125c.473-5.448-.075-22.462-2.351-28.2a3.418,3.418,0,0,0-2.243-2.365c-2.181-.487-4.88,2.006-4.907,2.031l-23.073,18.279-29.83,27.9-11.837,12.065-8.491,9.739c-.308.484-2.711,4.112-5.881,4.7a20.718,20.718,0,0,1-5.432.35c-.455-.064-1.172-.019-1.349.222-.087.119-.085.447.185,1.01.95,1.986,1.89,1.728,1.931,1.715l.448,1.232,0,0-2.791,1.047c-.574,1.165-2.807,5.461-5.013,6.563-2.164,1.082-3.819,2.989-3.688,4.249a1.906,1.906,0,0,1-.446,1.477,3.786,3.786,0,0,1-2.454,1.013l-.054,0-.055-.007c-.955-.114-3.111-.1-3.667.689-.235.331-.177.856.172,1.563a3.71,3.71,0,0,1,.515,2.773,1.463,1.463,0,0,1-.839.818,4.255,4.255,0,0,1-2.843,1.287c-1.217.081-4.617,1.228-5.661,2.813a1.427,1.427,0,0,0-.241,1.219,4.752,4.752,0,0,1,1.2,3.1,3.488,3.488,0,0,1-1.356,2.517,3.805,3.805,0,0,0-1.518,3.777Z" transform="translate(-27.071 -14.412)" fill="#1a4e75"/>
      <path id="Trazado_104815" data-name="Trazado 104815" d="M1130.175,7506.28a3.421,3.421,0,0,1-2.213-.686,3.3,3.3,0,0,1-.948-3.085.656.656,0,0,1,1.3.144,2.117,2.117,0,0,0,.482,1.933,3.307,3.307,0,0,0,2.614.217.655.655,0,0,1,.374,1.256A6.094,6.094,0,0,1,1130.175,7506.28Z" transform="translate(-37.145 -67.599)" fill="#1a4e75"/>
      <path id="Trazado_104816" data-name="Trazado 104816" d="M1138.805,7493.028a.576.576,0,0,1-.077-.005.655.655,0,0,1-.576-.725c.024-.215.555-5.274-3.525-6.479a.655.655,0,1,1,.371-1.257c4.116,1.215,4.715,5.691,4.456,7.888A.654.654,0,0,1,1138.805,7493.028Z" transform="translate(-39.619 -61.61)" fill="#1a4e75"/>
      <path id="Trazado_104817" data-name="Trazado 104817" d="M1148.3,7477.791a.656.656,0,0,1-.65-.575c-.01-.074-1-7.476-6.054-7.476h-.071a.655.655,0,0,1-.008-1.311h.079c4.968,0,6.982,5.631,7.354,8.626a.654.654,0,0,1-.569.73A.67.67,0,0,1,1148.3,7477.791Z" transform="translate(-41.93 -56.062)" fill="#1a4e75"/>
      <path id="Trazado_104818" data-name="Trazado 104818" d="M1175.537,7488.285a.656.656,0,0,1-.619-.439,12.118,12.118,0,0,0-8.741-7.923.655.655,0,0,1,.231-1.291,13.434,13.434,0,0,1,9.749,8.781.657.657,0,0,1-.4.836A.642.642,0,0,1,1175.537,7488.285Z" transform="translate(-50.461 -59.572)" fill="#1a4e75"/>
      <path id="Trazado_104819" data-name="Trazado 104819" d="M1170.663,7453.856a.634.634,0,0,1-.184-.027.655.655,0,0,1-.447-.81h0a7.581,7.581,0,0,0-3.036-7.885.656.656,0,1,1,.8-1.041,9.029,9.029,0,0,1,3.5,9.291A.656.656,0,0,1,1170.663,7453.856Z" transform="translate(-50.841 -47.634)" fill="#1a4e75"/>
      <path id="Trazado_104820" data-name="Trazado 104820" d="M1162.708,7500.857l-.062,0a.658.658,0,0,1-.591-.715c.512-5.449-5.639-7.479-5.7-7.5a.655.655,0,1,1,.4-1.248c.072.022,7.217,2.383,6.608,8.87A.656.656,0,0,1,1162.708,7500.857Z" transform="translate(-47.106 -63.96)" fill="#1a4e75"/>
      <path id="Trazado_104821" data-name="Trazado 104821" d="M1149.461,7501.02a.655.655,0,0,1-.65-.574c-.238-1.907-3.061-3.3-4.128-3.681a.655.655,0,0,1,.435-1.237c.188.066,4.607,1.652,4.994,4.755a.656.656,0,0,1-.569.732A.669.669,0,0,1,1149.461,7501.02Z" transform="translate(-43.093 -65.382)" fill="#1a4e75"/>
      <path id="Trazado_104822" data-name="Trazado 104822" d="M1149.061,7512.111a.657.657,0,0,1-.635-.5c-1.41-5.624-7.261-6.041-7.51-6.056a.655.655,0,0,1-.615-.693.664.664,0,0,1,.69-.616c.071,0,7.059.475,8.706,7.046a.655.655,0,0,1-.477.795A.694.694,0,0,1,1149.061,7512.111Z" transform="translate(-41.734 -68.399)" fill="#1a4e75"/>
      <path id="Trazado_104823" data-name="Trazado 104823" d="M1119.032,7521.871a.656.656,0,0,1-.654-.623h0a3.836,3.836,0,0,0-1.212-2.7,2.314,2.314,0,0,0-2.123-.021.656.656,0,1,1-.457-1.229,3.534,3.534,0,0,1,3.307.157c1.651,1.091,1.79,3.625,1.8,3.732a.657.657,0,0,1-.624.687Z" transform="translate(-32.73 -72.78)" fill="#1a4e75"/>
      <path id="Trazado_104824" data-name="Trazado 104824" d="M1120.83,7506.338a.648.648,0,0,1-.118-.012.655.655,0,0,1-.527-.762c.007-.04.713-4.059-1.076-6.087a3.887,3.887,0,0,0-3.343-1.156.633.633,0,0,1-.691-.618.655.655,0,0,1,.618-.69,5.16,5.16,0,0,1,4.4,1.6c2.21,2.509,1.415,7,1.38,7.188A.656.656,0,0,1,1120.83,7506.338Z" transform="translate(-33.045 -65.902)" fill="#1a4e75"/>
      <path id="Trazado_104825" data-name="Trazado 104825" d="M1128.063,7495.1a.656.656,0,0,1-.656-.655c0-.054-.078-5.377-2.617-5.466a.655.655,0,0,1,.022-1.31h.024c3.838.136,3.882,6.5,3.882,6.776a.656.656,0,0,1-.655.655Z" transform="translate(-36.175 -62.687)" fill="#1a4e75"/>
      <path id="Trazado_104826" data-name="Trazado 104826" d="M1138.822,7519.654a.656.656,0,0,1-.654-.614c-.245-3.849-4.671-5.568-4.715-5.584a.656.656,0,0,1,.461-1.228c.214.081,5.263,2.027,5.563,6.729a.656.656,0,0,1-.612.7Z" transform="translate(-39.23 -71.134)" fill="#1a4e75"/>
      <path id="Trazado_104827" data-name="Trazado 104827" d="M1121.509,7532.729a.655.655,0,0,1-.646-.548,7.135,7.135,0,0,0-3.863-5.515.656.656,0,0,1,.5-1.214,8.431,8.431,0,0,1,4.659,6.515.654.654,0,0,1-.54.752A.507.507,0,0,1,1121.509,7532.729Z" transform="translate(-33.57 -75.686)" fill="#1a4e75"/>
      <path id="Trazado_104828" data-name="Trazado 104828" d="M1130.631,7526.788a.638.638,0,0,1-.189-.029.655.655,0,0,1-.438-.817,6.949,6.949,0,0,0-2.717-7.848.656.656,0,0,1,.694-1.113,8.3,8.3,0,0,1,3.278,9.339A.655.655,0,0,1,1130.631,7526.788Z" transform="translate(-37.146 -72.751)" fill="#1a4e75"/>
      <path id="Trazado_104829" data-name="Trazado 104829" d="M1107.738,7518.379a.655.655,0,0,1-.638-.513c-.708-3.17-1.684-4.1-2.2-4.375a.956.956,0,0,0-.768-.1.665.665,0,0,1-.856-.339.647.647,0,0,1,.307-.851,2.187,2.187,0,0,1,1.851.093c1.316.641,2.307,2.419,2.947,5.288a.654.654,0,0,1-.5.781A.627.627,0,0,1,1107.738,7518.379Z" transform="translate(-28.961 -71.083)" fill="#1a4e75"/>
      <path id="Trazado_104830" data-name="Trazado 104830" d="M1188.675,7472.244a.656.656,0,0,1-.65-.579c-.005-.041-.522-4.164-2.891-6.532a.656.656,0,0,1,.927-.928c2.7,2.7,3.245,7.12,3.266,7.307a.654.654,0,0,1-.574.727A.533.533,0,0,1,1188.675,7472.244Z" transform="translate(-57.11 -54.541)" fill="#1a4e75"/>
    </g>
  </g>
</svg>
