<svg xmlns="http://www.w3.org/2000/svg" width="292" height="294" viewBox="0 0 292 294">
  <g id="Grupo_54842" data-name="Grupo 54842" transform="translate(-180 -2225)">
    <path id="Trazado_105629" data-name="Trazado 105629" d="M0,0H292V294H0Z" transform="translate(180 2225)" fill="#f3f9ff"/>
    <g id="Grupo_54544" data-name="Grupo 54544" transform="translate(218.463 -5431.84)">
      <g id="Grupo_54544-2" data-name="Grupo 54544" transform="translate(174.698 7762.731)">
        <path id="Trazado_104831" data-name="Trazado 104831" d="M260.945,7999.7a.684.684,0,0,1-.659-.509c-.008-.027-.194-.732-.472-2.022a.682.682,0,1,1,1.335-.286c.27,1.253.455,1.953.457,1.96a.685.685,0,0,1-.66.857Z" transform="translate(-257.466 -7860.007)" fill="#1a4e75"/>
        <path id="Trazado_104832" data-name="Trazado 104832" d="M258.619,7932.948a.683.683,0,0,1-.672-.569c-.229-1.363-.436-2.76-.615-4.148a.683.683,0,0,1,1.355-.176c.176,1.374.38,2.751.606,4.1a.683.683,0,0,1-.56.787A.756.756,0,0,1,258.619,7932.948Zm-1.07-8.263a.684.684,0,0,1-.679-.62c-.128-1.384-.232-2.789-.31-4.181a.682.682,0,0,1,.643-.72.689.689,0,0,1,.72.644c.077,1.374.18,2.765.307,4.131a.684.684,0,0,1-.617.743A.471.471,0,0,1,257.55,7924.685Zm-.465-8.319a.683.683,0,0,1-.683-.67q-.018-1.027-.019-2.084,0-1.042.021-2.108a.682.682,0,0,1,.683-.669h.014a.682.682,0,0,1,.669.7q-.02,1.053-.021,2.082c0,.7.007,1.381.019,2.06a.684.684,0,0,1-.67.694Zm.167-8.329-.041,0a.682.682,0,0,1-.641-.722c.084-1.4.2-2.809.34-4.182a.683.683,0,1,1,1.359.141c-.141,1.354-.253,2.739-.337,4.122A.683.683,0,0,1,257.251,7908.037Zm.859-8.285a.876.876,0,0,1-.1-.007.686.686,0,0,1-.575-.777c.208-1.391.449-2.783.719-4.135a.682.682,0,1,1,1.339.266c-.266,1.332-.5,2.7-.708,4.071A.684.684,0,0,1,258.11,7899.751Zm1.629-8.167a.65.65,0,0,1-.167-.021.681.681,0,0,1-.5-.827l.125-.486,1.269-3.512a.683.683,0,0,1,1.284.465l-1.251,3.455-.1.41A.684.684,0,0,1,259.739,7891.584Zm2.793-7.849a.683.683,0,0,1-.642-.915l1.418-3.918a.683.683,0,1,1,1.284.466l-1.418,3.917A.683.683,0,0,1,262.532,7883.736Zm2.838-7.835a.692.692,0,0,1-.233-.04.684.684,0,0,1-.41-.875l1.42-3.918a.683.683,0,1,1,1.283.466l-1.419,3.917A.683.683,0,0,1,265.37,7875.9Zm2.838-7.834a.7.7,0,0,1-.233-.041.682.682,0,0,1-.409-.874l.067-.186a31.121,31.121,0,0,0,.491-3.753.683.683,0,1,1,1.361.106,31,31,0,0,1-.528,3.985c-.007.027-.015.056-.024.084l-.083.227A.684.684,0,0,1,268.207,7868.067Zm.741-8.281a.683.683,0,0,1-.683-.677c-.01-1.356-.074-2.737-.191-4.109a.682.682,0,1,1,1.36-.116c.121,1.406.186,2.823.2,4.214a.683.683,0,0,1-.677.688Zm-.707-8.3a.682.682,0,0,1-.673-.572q-.158-.966-.357-1.97c-.124-.624-.265-1.329-.416-2.106a.683.683,0,0,1,1.34-.262c.151.775.289,1.479.414,2.1q.206,1.029.366,2.019a.684.684,0,0,1-.565.784A.838.838,0,0,1,268.241,7851.49Zm-1.572-8.2a.681.681,0,0,1-.669-.552l-.792-4.1a.682.682,0,1,1,1.339-.259l.792,4.1a.683.683,0,0,1-.541.8A.7.7,0,0,1,266.669,7843.294Zm-1.588-8.189a.682.682,0,0,1-.669-.552c-.261-1.336-.53-2.705-.8-4.093a.683.683,0,0,1,1.34-.265c.273,1.389.542,2.759.8,4.1a.681.681,0,0,1-.539.8A.629.629,0,0,1,265.08,7835.105Zm-1.618-8.186a.683.683,0,0,1-.669-.547c-.274-1.365-.551-2.731-.829-4.085a.683.683,0,1,1,1.337-.275c.278,1.357.556,2.725.83,4.091a.682.682,0,0,1-.535.8A.672.672,0,0,1,263.462,7826.92Zm-1.679-8.171a.683.683,0,0,1-.668-.541c-.294-1.4-.588-2.76-.876-4.073a.682.682,0,1,1,1.333-.293c.29,1.316.584,2.684.879,4.083a.68.68,0,0,1-.668.823Zm-1.8-8.147a.685.685,0,0,1-.664-.527c-.35-1.5-.682-2.86-.986-4.039a.683.683,0,1,1,1.323-.342c.306,1.189.64,2.558.993,4.069a.682.682,0,0,1-.509.821A.691.691,0,0,1,259.986,7810.6Z" transform="translate(-256.382 -7799.337)" fill="#1a4e75"/>
        <path id="Trazado_104833" data-name="Trazado 104833" d="M257.86,7799.869a.683.683,0,0,1-.647-.465,8.194,8.194,0,0,0-.717-1.722.683.683,0,0,1,1.139-.753,9.442,9.442,0,0,1,.873,2.041.682.682,0,0,1-.43.864A.7.7,0,0,1,257.86,7799.869Z" transform="translate(-256.382 -7796.621)" fill="#1a4e75"/>
      </g>
      <path id="Trazado_104834" data-name="Trazado 104834" d="M256.142,7721.309l-.463-1.284,18.612-6.715,9.575-2.839c8.03-4.776,7.9-20.452,7.9-20.609l1.365-.021c.01.681.142,16.723-8.649,21.85l-.15.066-9.616,2.85Z" transform="translate(-81.46)" fill="#1a4e75"/>
      <g id="Grupo_54545" data-name="Grupo 54545" transform="translate(48.873 7899.446)">
        <path id="Trazado_104835" data-name="Trazado 104835" d="M75.436,7998.252l3.292,9.522h.053l3.32-9.522H85.49v12.92H82.9v-3.851l.248-5.705-.053-.011-3.462,9.566H77.893l-3.443-9.529-.053.008.248,5.671v3.851H72.055v-12.92Z" transform="translate(-72.055 -7997.329)" fill="#1a4e75"/>
        <path id="Trazado_104836" data-name="Trazado 104836" d="M100.373,8012.634a5.472,5.472,0,0,1-.245-.692,4.886,4.886,0,0,1-.146-.745,3.566,3.566,0,0,1-1.052,1.161,2.624,2.624,0,0,1-1.557.462,3.237,3.237,0,0,1-2.324-.776,2.781,2.781,0,0,1-.817-2.116,2.531,2.531,0,0,1,1.087-2.187,5.431,5.431,0,0,1,3.173-.776h1.446v-.764a1.5,1.5,0,0,0-.363-1.073,1.7,1.7,0,0,0-2.046-.076,1.084,1.084,0,0,0-.341.849l-2.5-.01-.009-.053a2.44,2.44,0,0,1,1.056-2.1,4.61,4.61,0,0,1,2.937-.883,4.287,4.287,0,0,1,2.8.875,3.025,3.025,0,0,1,1.073,2.488v3.967a7.41,7.41,0,0,0,.1,1.27,6.359,6.359,0,0,0,.323,1.181ZM98,8010.9a2.215,2.215,0,0,0,1.216-.338,1.752,1.752,0,0,0,.719-.779v-1.359H98.491a1.736,1.736,0,0,0-1.251.413,1.342,1.342,0,0,0-.426,1,1,1,0,0,0,.319.771A1.238,1.238,0,0,0,98,8010.9Z" transform="translate(-79.093 -7998.79)" fill="#1a4e75"/>
        <path id="Trazado_104837" data-name="Trazado 104837" d="M111.621,8003.032l.115,1.376a3.51,3.51,0,0,1,1.18-1.145,3.061,3.061,0,0,1,1.571-.409,2.889,2.889,0,0,1,2.272.915,4.218,4.218,0,0,1,.816,2.865v6h-2.6v-6a1.949,1.949,0,0,0-.39-1.373,1.564,1.564,0,0,0-1.18-.405,1.992,1.992,0,0,0-.923.21,1.885,1.885,0,0,0-.683.591v6.982h-2.591v-9.6Z" transform="translate(-83.846 -7998.79)" fill="#1a4e75"/>
        <path id="Trazado_104838" data-name="Trazado 104838" d="M123.714,8007.914a6.19,6.19,0,0,1,.989-3.665,3.208,3.208,0,0,1,2.773-1.395,2.724,2.724,0,0,1,1.42.365,3.184,3.184,0,0,1,1.046,1.038l.2-1.226h2.236v9.557a3.566,3.566,0,0,1-1.229,2.9,5.19,5.19,0,0,1-3.42,1.023,6.516,6.516,0,0,1-1.544-.2,7.107,7.107,0,0,1-1.509-.547l.479-1.934a6.156,6.156,0,0,0,1.211.431,5.81,5.81,0,0,0,1.344.146,2.326,2.326,0,0,0,1.567-.443,1.758,1.758,0,0,0,.5-1.385v-.868a2.912,2.912,0,0,1-1,.825,2.983,2.983,0,0,1-1.323.283,3.265,3.265,0,0,1-2.755-1.3,5.5,5.5,0,0,1-.989-3.421Zm2.591.187a3.957,3.957,0,0,0,.426,2,1.479,1.479,0,0,0,1.384.727,2.134,2.134,0,0,0,1.008-.218,1.657,1.657,0,0,0,.661-.64v-4.194a1.8,1.8,0,0,0-.661-.679,1.925,1.925,0,0,0-.989-.241,1.463,1.463,0,0,0-1.389.848,4.823,4.823,0,0,0-.439,2.215Z" transform="translate(-88.45 -7998.79)" fill="#1a4e75"/>
        <path id="Trazado_104839" data-name="Trazado 104839" d="M144.726,8012.634a5.359,5.359,0,0,1-.244-.692,4.8,4.8,0,0,1-.146-.745,3.581,3.581,0,0,1-1.052,1.161,2.627,2.627,0,0,1-1.557.462,3.238,3.238,0,0,1-2.325-.776,2.781,2.781,0,0,1-.816-2.116,2.53,2.53,0,0,1,1.087-2.187,5.427,5.427,0,0,1,3.172-.776h1.446v-.764a1.5,1.5,0,0,0-.363-1.073,1.7,1.7,0,0,0-2.046-.076,1.084,1.084,0,0,0-.341.849l-2.5-.01-.009-.053a2.441,2.441,0,0,1,1.056-2.1,4.612,4.612,0,0,1,2.937-.883,4.287,4.287,0,0,1,2.8.875,3.025,3.025,0,0,1,1.073,2.488v3.967a7.478,7.478,0,0,0,.1,1.27,6.36,6.36,0,0,0,.324,1.181Zm-2.37-1.731a2.219,2.219,0,0,0,1.216-.338,1.75,1.75,0,0,0,.718-.779v-1.359h-1.446a1.737,1.737,0,0,0-1.251.413,1.342,1.342,0,0,0-.426,1,.993.993,0,0,0,.319.771A1.235,1.235,0,0,0,142.356,8010.9Z" transform="translate(-93.17 -7998.79)" fill="#1a4e75"/>
        <path id="Trazado_104840" data-name="Trazado 104840" d="M162.909,7999.67v2.351h1.615v1.819h-1.615v4.891a1.127,1.127,0,0,0,.231.8.819.819,0,0,0,.621.239,2.407,2.407,0,0,0,.35-.021,3.328,3.328,0,0,0,.341-.075l.223,1.871a5.258,5.258,0,0,1-.764.2,4.636,4.636,0,0,1-.807.066,2.761,2.761,0,0,1-2.064-.736,3.228,3.228,0,0,1-.723-2.333v-4.9h-1.4v-1.819h1.4v-2.351Z" transform="translate(-99.623 -7997.779)" fill="#1a4e75"/>
        <path id="Trazado_104841" data-name="Trazado 104841" d="M175.387,8011.331a3.217,3.217,0,0,1-1.128,1.162,3.32,3.32,0,0,1-3.944-.562,4.486,4.486,0,0,1-.856-3.021v-5.8h2.582v5.827a2.5,2.5,0,0,0,.356,1.508,1.24,1.24,0,0,0,1.046.457,2.6,2.6,0,0,0,1.065-.2,1.8,1.8,0,0,0,.728-.592v-7h2.591v9.6h-2.21Z" transform="translate(-102.969 -7998.872)" fill="#1a4e75"/>
        <path id="Trazado_104842" data-name="Trazado 104842" d="M187.363,8010.744h-2.591V7996.9h2.591Z" transform="translate(-107.829 -7996.9)" fill="#1a4e75"/>
        <path id="Trazado_104843" data-name="Trazado 104843" d="M194.474,7998.845h-2.591V7996.9h2.591Zm0,11.9h-2.591v-9.6h2.591Z" transform="translate(-110.086 -7996.9)" fill="#1a4e75"/>
        <path id="Trazado_104844" data-name="Trazado 104844" d="M207.458,8008.1a5.513,5.513,0,0,1-.985,3.426,3.26,3.26,0,0,1-2.75,1.3,3.082,3.082,0,0,1-1.34-.279,2.761,2.761,0,0,1-1-.821v4.605H198.8v-13.293h2.334l.151,1.136a3.089,3.089,0,0,1,1.024-.972,2.776,2.776,0,0,1,1.4-.342,3.2,3.2,0,0,1,2.769,1.395,6.214,6.214,0,0,1,.985,3.665Zm-2.591-.2a4.665,4.665,0,0,0-.453-2.205,1.478,1.478,0,0,0-1.384-.844,1.951,1.951,0,0,0-1,.24,1.72,1.72,0,0,0-.653.684v4.213a1.593,1.593,0,0,0,.653.622,2.187,2.187,0,0,0,1.016.213,1.49,1.49,0,0,0,1.38-.737,3.9,3.9,0,0,0,.439-2Z" transform="translate(-112.28 -7998.79)" fill="#1a4e75"/>
        <path id="Trazado_104845" data-name="Trazado 104845" d="M219.225,8011a5.278,5.278,0,0,1-.244-.693,4.764,4.764,0,0,1-.146-.745,3.569,3.569,0,0,1-1.052,1.163,2.634,2.634,0,0,1-1.557.461,3.243,3.243,0,0,1-2.325-.776,2.778,2.778,0,0,1-.816-2.117,2.527,2.527,0,0,1,1.087-2.186,5.419,5.419,0,0,1,3.172-.777h1.446v-.763a1.5,1.5,0,0,0-.363-1.074,1.7,1.7,0,0,0-2.046-.075,1.079,1.079,0,0,0-.341.847l-2.5-.008-.009-.053a2.44,2.44,0,0,1,1.056-2.1,4.612,4.612,0,0,1,2.937-.883,4.287,4.287,0,0,1,2.8.874,3.027,3.027,0,0,1,1.073,2.489v3.966a7.472,7.472,0,0,0,.1,1.27,6.339,6.339,0,0,0,.324,1.181Zm-2.37-1.731a2.227,2.227,0,0,0,1.216-.338,1.742,1.742,0,0,0,.718-.78v-1.358h-1.446a1.729,1.729,0,0,0-1.251.414,1.336,1.336,0,0,0-.426,1,.992.992,0,0,0,.319.771A1.23,1.23,0,0,0,216.855,8009.269Zm1.021-11.562h2.741l.018.054-2.457,2.307H216.11Z" transform="translate(-116.814 -7997.157)" fill="#1a4e75"/>
        <path id="Trazado_104846" data-name="Trazado 104846" d="M230.474,8003.032l.115,1.376a3.508,3.508,0,0,1,1.18-1.145,3.063,3.063,0,0,1,1.571-.409,2.888,2.888,0,0,1,2.271.915,4.214,4.214,0,0,1,.816,2.865v6h-2.6v-6a1.952,1.952,0,0,0-.39-1.373,1.564,1.564,0,0,0-1.18-.405,2,2,0,0,0-.924.21,1.9,1.9,0,0,0-.683.591v6.982H228.06v-9.6Z" transform="translate(-121.568 -7998.79)" fill="#1a4e75"/>
      </g>
      <path id="Trazado_104847" data-name="Trazado 104847" d="M23.1,7930.128a1.735,1.735,0,0,1-.76-.172c-1.3-.612-2.337-1.548-1.1-4.228a24.78,24.78,0,0,1,1.625-2.875,10.1,10.1,0,0,0,1.246-2.364,11.083,11.083,0,0,1,1.119-2.188,10.211,10.211,0,0,0,1.317-2.734c-1.181-.172-4.061,1.276-5.635,2.245l-.1.05-9.616,3.977-3.436,1.069c-1.066.576-5.707,2.962-7.727,2.1a1.644,1.644,0,0,1-.972-1.114c-.7-2.621,6.55-9.861,8.789-12.02l4.8-5.446a19.054,19.054,0,0,1,6.23-5.712c1.7-.851,3.392-1.574,4.883-2.214a33.506,33.506,0,0,0,3.467-1.615c1.4-.857,8.254-6.422,8.323-6.478l1.548-1.15c1.233-1.683,20.391-27.854,21.988-31.637.911-2.16,5.133-8.871,10.379-15.354,1.008-1.247,11.013-9.474,25.037-20.962,7.04-5.767,13.689-11.213,16.05-13.26,5.965-5.177,20.163-19.586,20.306-19.731l.973.958c-.143.146-14.379,14.593-20.384,19.8-2.376,2.062-9.032,7.513-16.079,13.286-10.624,8.7-23.845,19.531-24.842,20.764-5.167,6.386-9.3,12.938-10.183,15.026-1.7,4.033-21.369,30.859-22.205,32l-.144.145-1.606,1.192c-.261.214-6.973,5.659-8.446,6.563a32.613,32.613,0,0,1-3.642,1.707c-1.475.634-3.146,1.35-4.811,2.182a18.041,18.041,0,0,0-5.734,5.291l-.055.069-4.868,5.521c-4.35,4.194-8.794,9.458-8.456,10.721a.289.289,0,0,0,.192.214c1.065.458,4.5-.935,6.6-2.073l.124-.052,3.442-1.069,9.507-3.934c.87-.532,4.683-2.778,6.593-2.395a1.275,1.275,0,0,1,.955.723c.436.979-.449,2.47-1.386,4.051a11.127,11.127,0,0,0-.978,1.856,10.932,10.932,0,0,1-1.406,2.726,23.509,23.509,0,0,0-1.54,2.719c-.84,1.817-.384,2.031.442,2.421.723.354,2.894-1.795,4.189-3.073,2.365-2.335,5.842-8.714,7.153-13.124a27.6,27.6,0,0,1,4.884-8.677c.242-.306,6.311-7.914,9.309-10.077,7.989-5.764,26.812-19.371,29.042-21.289,12.364-10.637,28.4-28.231,32.665-33.886,5.473-7.255,28.639-21.979,29.622-22.6l.731,1.154c-.239.149-23.939,15.21-29.262,22.272-4.294,5.693-20.434,23.4-32.865,34.1-2.189,1.883-19.193,14.192-29.134,21.362-2.847,2.053-8.992,9.761-9.054,9.838a26.74,26.74,0,0,0-4.628,8.2c-1.388,4.667-4.964,11.2-7.5,13.707C25.921,7928.739,24.4,7930.128,23.1,7930.128Z" transform="translate(0 -31.253)" fill="#1a4e75"/>
      <path id="Trazado_104848" data-name="Trazado 104848" d="M208.89,7811.229a2.39,2.39,0,0,1-.745-.114,2.476,2.476,0,0,1-1.587-1.874c-2.595-8.523-3.567-21.705-3.577-21.837-.014-.157-1.358-16.73,5.764-31.567a60.225,60.225,0,0,1,18.041-22.3l.07-.042a10.641,10.641,0,0,1,10.42.036c8.34,6.062,4.619,31.818,4.457,32.913-2.95,19.266-16.083,31.145-23.93,38.243-1.314,1.188-2.449,2.214-3.331,3.1C212.161,7810.091,210.324,7811.229,208.89,7811.229Zm18.627-76.541a59,59,0,0,0-17.543,21.739c-6.955,14.49-5.647,30.706-5.634,30.868.011.141.975,13.21,3.534,21.585l.02.087a1.175,1.175,0,0,0,.674.85c.44.133,1.814.122,4.937-3,.906-.906,2.053-1.942,3.38-3.144,7.712-6.975,20.62-18.651,23.5-37.434.038-.257,3.765-26.026-3.881-31.585A9.291,9.291,0,0,0,227.517,7734.688Z" transform="translate(-64.7 -13.433)" fill="#1a4e75"/>
      <path id="Trazado_104849" data-name="Trazado 104849" d="M161.957,7791.419a25.449,25.449,0,0,1,6.426-20.7c.064-.071,8.634-9.466,19.178-22.911A36.428,36.428,0,0,1,214.1,7734h0l-.007,1.365h0a35.011,35.011,0,0,0-25.457,13.282c-10.579,13.487-19.18,22.917-19.266,23.011a24.526,24.526,0,0,0-6.061,19.562Z" transform="translate(-51.63 -14.015)" fill="#1a4e75"/>
      <path id="Trazado_104850" data-name="Trazado 104850" d="M166.488,7794.547l-.709-1.167c.438-.266,10.91-6.525,27.293-6.613l.008,1.366C177.1,7788.22,166.593,7794.484,166.488,7794.547Z" transform="translate(-52.928 -30.762)" fill="#1a4e75"/>
      <path id="Trazado_104851" data-name="Trazado 104851" d="M197.81,7847.151a16.463,16.463,0,0,1-11.351-4.74l1.011-.916a14.626,14.626,0,0,0,16.19,3.114l.505,1.267A17.059,17.059,0,0,1,197.81,7847.151Z" transform="translate(-59.491 -48.132)" fill="#1a4e75"/>
    </g>
  </g>
</svg>
