<svg xmlns="http://www.w3.org/2000/svg" width="396" height="323" viewBox="0 0 396 323">
  <g id="Grupo_54819" data-name="Grupo 54819" transform="translate(-180 -6196)">
    <rect id="Rectángulo_5277" data-name="Rectángulo 5277" width="396" height="323" transform="translate(180 6196)" fill="#d8ecff"/>
    <g id="Grupo_53996" data-name="Grupo 53996" transform="translate(69.119 -2964.652)">
      <path id="Trazado_101737" data-name="Trazado 101737" d="M296.956,9212.295s-4.42,1.271-22.537-2.8c-20.375-4.583-27.371-8.437-33.912-3.7s1.781,12.944,1.781,12.944,7.051,7.745,37.1,4.739c0,0,23.579-1.5,31.669-4.393l3.505-4.783-2.12-5.421Z" transform="translate(25.829 0.001)" fill="#333"/>
      <path id="Trazado_101738" data-name="Trazado 101738" d="M297.3,9213.861s-4.422,1.268-22.539-2.8c-20.375-4.582-27.371-8.437-33.911-3.7s1.781,12.943,1.781,12.943,7.05,7.744,37.1,4.738c0,0,23.577-1.5,31.667-4.391l3.505-4.783-2.118-5.42Z" transform="translate(26.092 1.209)" fill="#e9929c"/>
      <path id="Trazado_101739" data-name="Trazado 101739" d="M402.88,9356.411s-88.3,73.045-198.33,3.238l37.909-104.021s5.605-25.889,18.551-32.823a10.393,10.393,0,0,1,.326-7.553l3.415-7.4s1.439-1.849,2.981-1.077,22.654,10.941,51.547,5.547c0,0,16.1-2.62,19.34-4.778,0,0,3.39,7.86,3.236,10.019a5.256,5.256,0,0,1,0,1.927c-.23.384,9.015,8.86,13.176,17.182s22.422,55.478,22.422,55.478Z" transform="translate(0 2.289)" fill="#333"/>
      <path id="Trazado_101740" data-name="Trazado 101740" d="M397.57,9352.752s-85.008,70.32-190.933,3.115l36.495-100.141s8.081-24.73,20.543-31.408c0,0-4.074-3.6-2.369-7.461l3.287-7.121s1.386-1.779,2.869-1.039,21.808,10.535,49.625,5.342c0,0,15.5-2.521,18.619-4.6,0,0,3.264,7.564,3.115,9.643a5.056,5.056,0,0,1,0,1.854c-.221.371,8.68,8.529,12.685,16.543s21.585,53.406,21.585,53.406Z" transform="translate(1.612 3.781)" fill="#e9929c"/>
      <path id="Trazado_101741" data-name="Trazado 101741" d="M245.739,9221.563s-6.449,9.617-7.682,20.4c0,0,7.9-19.109,11.808-19.57,0,0,30.724,5.084,55.111-.926,0,0,8.9,9.479,13.215,21.111,0,0-3.544-20.031-6.626-23.115l6.063-2.615-1.556-2.547a91.973,91.973,0,0,1-33.633,6.242c-18.8-.154-35.651-.385-45-6.242l-.849,2.313,2.12,3.121Z" transform="translate(24.743 8.245)" fill="#333"/>
      <text id="A-LINE" transform="translate(255.404 9432.68)" font-size="28" font-family="Roboto-Bold, Roboto" font-weight="700"><tspan x="0" y="0">A-LINE</tspan></text>
    </g>
  </g>
</svg>
