<svg xmlns="http://www.w3.org/2000/svg" xmlns:xlink="http://www.w3.org/1999/xlink" width="396" height="323" viewBox="0 0 396 323">
  <defs>
    <clipPath id="clip-path">
      <path id="Trazado_101870" data-name="Trazado 101870" d="M449.827,9855.609l-9.317-25.772c-7.392-16.13-10.4-58.041-10.4-58.041h0l5.555-56.9,1.228-14.9v-4.645s-.175-5.348-1.578-8.592a89.182,89.182,0,0,0-6.4-12.1c-1.292-1.846-5.861-6.838-5.861-6.838a16.818,16.818,0,0,0-3.606,1.041s5.435,7.987,4.119,15.177c0,0-4.821-14.4-6.486-14.169,0,0-21.578,2.174-27.876-1.008a34.493,34.493,0,0,0-8.989,14.65s1.888-12.983,5.044-15.083c0,0-2.149-2.187-3.66-1.924,0,0-11.154,12.1-12.863,21.828a300.575,300.575,0,0,0,.526,31.032c.813,9.933,2.928,34.809,4.173,49.42v0c.744,22.935-2.847,34.046-4.881,45.792s-12.518,36.468-13.043,41.815,6.925,3.243,6.925,3.243,5.61-3.067,8.591.613,4.47,3.595,4.47,3.595,2.893,1.052,7.1-1.14a7.93,7.93,0,0,1,7.8.262c3.682,4.385,6.926,5.612,12.324,5.524s11.258-6.4,11.258-6.4a8.44,8.44,0,0,1,10.431-1.841,26.7,26.7,0,0,1,4.208,3.507c1.578,1.753,4.379,0,4.379,0l3.423-2.1s3.331-1.929,5.961,0a5.931,5.931,0,0,0,5.348.877C453.25,9861.921,449.827,9855.609,449.827,9855.609Z" transform="translate(-355.481 -9666.487)" fill="none"/>
    </clipPath>
  </defs>
  <g id="Grupo_54828" data-name="Grupo 54828" transform="translate(-596 -7226)">
    <rect id="Rectángulo_5285" data-name="Rectángulo 5285" width="396" height="323" transform="translate(596 7226)" fill="#d8ecff"/>
    <g id="Grupo_54028" data-name="Grupo 54028" transform="translate(396.809 -2385.498)">
      <path id="Trazado_101858" data-name="Trazado 101858" d="M451.693,9854.906l-9.3-25.723-.034-.076c-6.924-15.105-9.993-54.275-10.213-57.178l5.542-56.755,1.235-14.987V9695.4c-.008-.234-.206-5.771-1.742-9.325a90.414,90.414,0,0,0-6.6-12.455c-.96-1.37-3.491-4.231-4.951-5.855a4.492,4.492,0,0,0,1.879-1.832,3.656,3.656,0,0,0,.051-3.235,28.283,28.283,0,0,1-1.034-3.256,11.306,11.306,0,0,0-1.265-2.277,1.733,1.733,0,0,0-1.5-.668l-9.729,1.391a5.974,5.974,0,0,1-.948.052,53.727,53.727,0,0,1-10.969-1.652c-2.779-.625-5.092-1.22-7.132-1.744-3.7-.953-6.38-1.643-8.657-1.643a8.326,8.326,0,0,0-5.127,1.618,5.569,5.569,0,0,0-1.656,1.849c-.054.093-.114.182-.162.28a19.661,19.661,0,0,0-1.242,4.36,5.047,5.047,0,0,0,.208,3.595,4.01,4.01,0,0,0,1.138,1.373c-2.473,2.814-11.159,13.214-12.724,22.129l-.024.133,0,.137a305.018,305.018,0,0,0,.53,31.275c.782,9.578,2.752,32.753,4.169,49.376a146.994,146.994,0,0,1-3.48,38.187c-.5,2.447-.963,4.76-1.375,7.145-1.1,6.35-4.745,16.626-7.962,25.691-3,8.46-4.856,13.772-5.1,16.27a5.134,5.134,0,0,0,1.18,4.123,4.706,4.706,0,0,0,1.177.9l-.014.02s3.434,1.758,9.945-.659a6.292,6.292,0,0,1,1.207-.129,2.88,2.88,0,0,1,2.461,1.063c2.616,3.231,4.48,4.164,5.663,4.317a8.751,8.751,0,0,0,2.273.277,13.436,13.436,0,0,0,6.133-1.62,5.822,5.822,0,0,1,2.7-.684,6.227,6.227,0,0,1,2.848.719c.253.294.5.572.756.842.2,1.01,6.381,5.1,12.61,4.765,6.3-.336,9.234-2.981,12.884-6.536l.114-.119a6.54,6.54,0,0,1,4.814-2.269,6.912,6.912,0,0,1,3.095.756,24.172,24.172,0,0,1,3.77,3.139,4.359,4.359,0,0,0,3.335,1.447,7.544,7.544,0,0,0,3.6-1.078l3.363-2.069a5.241,5.241,0,0,1,2.249-.594,2.688,2.688,0,0,1,.956.169,12.906,12.906,0,0,0,9.053,1.15,4.747,4.747,0,0,0,2.642-2.251C453.751,9859.28,452.125,9855.75,451.693,9854.906Z" fill="#333"/>
      <text id="MERMAID" transform="translate(363.975 9889.102)" font-size="16" font-family="Roboto-Bold, Roboto" font-weight="700"><tspan x="0" y="0">MERMAID</tspan></text>
      <g id="Grupo_54027" data-name="Grupo 54027" transform="translate(355.497 9654.912)">
        <g id="Grupo_54022" data-name="Grupo 54022">
          <path id="Trazado_101859" data-name="Trazado 101859" d="M414.277,9659.828s-2.515.721-12.821-1.6c-11.59-2.606-15.57-4.8-19.29-2.1s1.013,7.363,1.013,7.363,4.01,4.405,21.1,2.7c0,0,12.341-.786,17.409-2.3a1.806,1.806,0,0,0,.944-.659l1.079-1.472a1.782,1.782,0,0,0,.222-1.7l-.3-.758a1.778,1.778,0,0,0-2.038-1.088Z" transform="translate(-355.276 -9654.896)" fill="#333"/>
          <path id="Trazado_101860" data-name="Trazado 101860" d="M414.617,9661.393s-2.514.722-12.82-1.6c-11.59-2.606-15.57-4.8-19.291-2.1s1.013,7.364,1.013,7.364,4.011,4.405,21.1,2.7c0,0,13.413-.854,18.015-2.5l1.994-2.72-1.206-3.084Z" transform="translate(-355.273 -9654.883)" fill="#9d74a3"/>
          <g id="Grupo_54021" data-name="Grupo 54021" transform="translate(24.423 1.577)">
            <path id="Trazado_101861" data-name="Trazado 101861" d="M402.972,9669.587c-11.89,0-19.342-3.54-19.653-3.69l-2.23-1.209a2.023,2.023,0,0,1-1.144-1.014,3.1,3.1,0,0,1-.053-2.222,19.014,19.014,0,0,1,1.093-3.956,1.872,1.872,0,0,1,1.761-1.036,5.506,5.506,0,0,1,2.488.823c.656.233,4.361,1.55,6.537,2.385,1.771.682,6.08,1,8.655,1.193.717.055,1.342.1,1.813.146.368.035.837.054,1.392.054a86.443,86.443,0,0,0,10.045-.838c5.063-.677,7.106-1.2,7.929-1.517a2.8,2.8,0,0,1,1.011-.209,1.722,1.722,0,0,1,1.736,1.372,30.449,30.449,0,0,0,1.169,3.647,1.624,1.624,0,0,1-.018,1.461c-.56,1.089-2.314,1.513-2.838,1.615l-6.618,1.569A61.751,61.751,0,0,1,402.972,9669.587Z" transform="translate(-379.707 -9656.46)" fill="#333"/>
            <path id="Trazado_101862" data-name="Trazado 101862" d="M383.76,9664.982l-2.263-1.227c-1.243-.394-.622-2.061-.622-2.061a19.36,19.36,0,0,1,1.021-3.77c.577-1.184,2.884.263,2.884.263s4.216,1.49,6.612,2.411,8.431,1.184,10.738,1.4a68.678,68.678,0,0,0,11.671-.79,44.132,44.132,0,0,0,8.165-1.577c1.242-.483,1.376.438,1.376.438a33.019,33.019,0,0,0,1.242,3.858c.532,1.139-2.13,1.665-2.13,1.665l-6.656,1.577C396.806,9671.294,383.76,9664.982,383.76,9664.982Z" transform="translate(-379.699 -9656.452)" fill="#bf8cc4"/>
          </g>
          <path id="Trazado_101863" data-name="Trazado 101863" d="M449.827,9855.609l-9.317-25.772c-7.392-16.13-10.4-58.041-10.4-58.041h0l5.555-56.9,1.228-14.9v-4.645s-.175-5.348-1.578-8.592a89.182,89.182,0,0,0-6.4-12.1c-1.292-1.846-5.861-6.838-5.861-6.838a16.818,16.818,0,0,0-3.606,1.041s5.435,7.987,4.119,15.177c0,0-4.821-14.4-6.486-14.169,0,0-21.578,2.174-27.876-1.008a34.493,34.493,0,0,0-8.989,14.65s1.888-12.983,5.044-15.083c0,0-2.149-2.187-3.66-1.924,0,0-11.154,12.1-12.863,21.828a300.575,300.575,0,0,0,.526,31.032c.813,9.933,2.928,34.809,4.173,49.42v0c.744,22.935-2.847,34.046-4.881,45.792s-12.518,36.468-13.043,41.815,6.925,3.243,6.925,3.243,5.61-3.067,8.591.613,4.47,3.595,4.47,3.595,2.893,1.052,7.1-1.14a7.93,7.93,0,0,1,7.8.262c3.682,4.385,6.926,5.612,12.324,5.524s11.258-6.4,11.258-6.4a8.44,8.44,0,0,1,10.431-1.841,26.7,26.7,0,0,1,4.208,3.507c1.578,1.753,4.379,0,4.379,0l3.423-2.1s3.331-1.929,5.961,0a5.931,5.931,0,0,0,5.348.877C453.25,9861.921,449.827,9855.609,449.827,9855.609Z" transform="translate(-355.481 -9654.802)" fill="#bf8cc4"/>
        </g>
        <g id="Grupo_54026" data-name="Grupo 54026" transform="translate(0 11.686)">
          <g id="Grupo_54025" data-name="Grupo 54025" clip-path="url(#clip-path)">
            <g id="Grupo_54023" data-name="Grupo 54023" transform="translate(1.675 61.485)">
              <path id="Trazado_101864" data-name="Trazado 101864" d="M397.921,9869.844s-3.155-3.571-5.457-18.167-7.085-70.678-6.033-81.329c0,0-3.5,20.25-10.6,45.233s-12.755,38.792-18.277,45.892c0,0-1.578,3.287,1.447,2.63s7.889-9.073,10.914-19.724,14.99-58.121,14.99-58.121,3.682,70.087,8.022,82.447Z" transform="translate(-357.142 -9727.13)" fill="#333"/>
              <path id="Trazado_101865" data-name="Trazado 101865" d="M382.873,9803.392s-1.929,41.815-7.714,52.686C375.159,9856.077,377.659,9826.958,382.873,9803.392Z" transform="translate(-356.996 -9726.862)" fill="#333"/>
              <path id="Trazado_101866" data-name="Trazado 101866" d="M372.269,9727.478s18.659,52.422-8.378,111.857C363.891,9839.335,384.381,9788.461,372.269,9727.478Z" transform="translate(-357.087 -9727.478)" fill="#333"/>
            </g>
            <g id="Grupo_54024" data-name="Grupo 54024" transform="translate(51.418 61.485)">
              <path id="Trazado_101867" data-name="Trazado 101867" d="M406.485,9869.844s3.156-3.571,5.457-18.167,7.086-70.678,6.034-81.329c0,0,3.5,20.25,10.6,45.233s12.756,38.792,18.278,45.892c0,0,1.578,3.287-1.447,2.63s-7.889-9.073-10.914-19.724-14.991-58.121-14.991-58.121-3.682,70.087-8.021,82.447Z" transform="translate(-406.485 -9727.13)" fill="#333"/>
              <path id="Trazado_101868" data-name="Trazado 101868" d="M421.268,9803.392s1.929,41.815,7.714,52.686C428.982,9856.077,426.482,9826.958,421.268,9803.392Z" transform="translate(-406.365 -9726.862)" fill="#333"/>
              <path id="Trazado_101869" data-name="Trazado 101869" d="M431.928,9727.478s-18.659,52.422,8.378,111.857C440.306,9839.335,419.816,9788.461,431.928,9727.478Z" transform="translate(-406.329 -9727.478)" fill="#333"/>
            </g>
          </g>
        </g>
      </g>
    </g>
  </g>
</svg>
