<svg xmlns="http://www.w3.org/2000/svg" width="396" height="323" viewBox="0 0 396 323">
  <g id="Grupo_54829" data-name="Grupo 54829" transform="translate(-1012 -7226)">
    <rect id="Rectángulo_5286" data-name="Rectángulo 5286" width="396" height="323" transform="translate(1012 7226)" fill="#f3f9ff"/>
    <g id="Grupo_54032" data-name="Grupo 54032" transform="translate(649.533 -2416.375)">
      <path id="Trazado_101871" data-name="Trazado 101871" d="M645.915,9851.673a4.172,4.172,0,0,0-1.157-1.025c4.137-3.187,4.426-6.693,4.056-10.041-.409-3.687-3.8-10.432-4.376-11.553a15.108,15.108,0,0,0-3.152-4.617,5.754,5.754,0,0,0,3.291-4.405c.8-5.468-2.13-11.494-3.429-13.833a25.02,25.02,0,0,0-5.117-6.377,8.523,8.523,0,0,0,2.536-2.265c1.734-2.368,2.025-5.421.868-9.073l-.069-.218-.1-.2c-.632-1.26-15.628-30.986-27.729-42.707l-9.2-8.03a8.6,8.6,0,0,0-6.512-2.856c-.286,0-.583.051-.875.077a5.7,5.7,0,0,0,.623-1,5.551,5.551,0,0,0,.068-4.628,46.557,46.557,0,0,1-1.5-5.038,5.416,5.416,0,0,0-2.094-3.288,4.5,4.5,0,0,0-3.531-1.746,4.362,4.362,0,0,0-1.018.12l-11.258,2.658a8.564,8.564,0,0,1-1.294.071c-1.922,0-6.506-.327-15.622-2.521-3.969-.956-7.269-1.863-10.184-2.666-5.3-1.459-9.129-2.513-12.4-2.513a11.481,11.481,0,0,0-7.394,2.487,8.208,8.208,0,0,0-2.315,2.752c-.082.146-.17.287-.24.443a31.251,31.251,0,0,0-1.75,6.591,7.817,7.817,0,0,0,.271,5.246,6.122,6.122,0,0,0,.6,1.007,7.7,7.7,0,0,0-1.437-.134c-3.1,0-6.459,1.622-10,4.818-.677.612-1.5,1.337-2.433,2.165-9.336,8.255-28.761,25.431-34.758,42.718-.658,1.763-1.992,6.148-.189,8.764a4.3,4.3,0,0,0,3.619,1.858h0c-.062.059-.134.1-.193.164-2.915,3.061-4.97,10.23-5.156,10.911-.592,1.8-3.213,10.735,1.638,14.6.069.087.15.179.236.277a6.631,6.631,0,0,0-4.056,4.9,17.322,17.322,0,0,1-2.153,5.483h0l-.4.47-.173.593c-1.6,5.451-2.888,12.53.033,15.29a6.246,6.246,0,0,0,2.968,1.542,8.118,8.118,0,0,0-4.906,5.851c-.681,2.654-.951,3.668-1.059,4.052l-.042-.011c-.263.9-2.476,8.938.74,13.536a7.291,7.291,0,0,0,5.712,3.1c2.279.151,4.285.228,5.964.228a25.741,25.741,0,0,0,3.82-.211c.03,0,.059,0,.091,0a7.1,7.1,0,0,0,3.865-1.059,4.537,4.537,0,0,0,2.456.675l.288-.01c.559-.025,1.475-.111,2.6-.22,2.421-.23,5.736-.547,8.506-.547a11.1,11.1,0,0,1,3.483.329,43.907,43.907,0,0,1,6.037,3.02l.377.233.43.108a25.455,25.455,0,0,0,5.335.7,9.367,9.367,0,0,0,2.993-.425,5.99,5.99,0,0,0,.887,1.2c4.053,4.291,16.762,5.643,20,5.643.318,0,.6-.009.844-.025a101.684,101.684,0,0,0,18.668-3.912,51.778,51.778,0,0,1,15.644-2.853,23.852,23.852,0,0,1,4.835.451,19.152,19.152,0,0,0,3.894.45,8.438,8.438,0,0,0,4.862-1.3,8.108,8.108,0,0,0,4.592,2.457c5.319.96,10.47,1.588,11.4,1.7a26.83,26.83,0,0,0,5.2.524,16.558,16.558,0,0,0,6.888-1.312l.364-.169.3-.256c.058-.049,5.861-4.93,11.3-6.249,2.434-.59,3.911-.84,4.887-1a7.457,7.457,0,0,0,3.961-1.5,12.635,12.635,0,0,1,1.375-.22c1.9-.235,6.352-.791,6.617-5.15.166-2.735.056-7.069.017-8.414A5.845,5.845,0,0,0,645.915,9851.673Z" fill="#333"/>
      <text id="RUFFLED" transform="translate(515.08 9917.979)" font-size="23" font-family="Roboto-Bold, Roboto" font-weight="700"><tspan x="0" y="0">RUFFLED</tspan></text>
      <g id="Grupo_54031" data-name="Grupo 54031" transform="translate(469.34 9716.875)">
        <g id="Grupo_54030" data-name="Grupo 54030" transform="translate(58.242)">
          <path id="Trazado_101872" data-name="Trazado 101872" d="M557.843,9723.534s-3.59,1.1-18.305-2.439c-16.549-3.982-22.232-7.333-27.545-3.216s1.447,11.252,1.447,11.252,5.728,6.731,30.135,4.12c0,0,18.248-1.245,25.231-3.641a1.62,1.62,0,0,0,.8-.634l2-2.92a1.867,1.867,0,0,0,.206-1.684l-.878-2.405a1.631,1.631,0,0,0-1.89-1.081Z" transform="translate(-508.471 -9715.996)" fill="#333"/>
          <path id="Trazado_101873" data-name="Trazado 101873" d="M558.184,9725.209s-3.591,1.1-18.307-2.439c-16.549-3.982-22.232-7.334-27.544-3.217s1.447,11.254,1.447,11.254,5.726,6.73,30.135,4.119c0,0,19.15-1.307,25.721-3.816l2.847-4.158-1.72-4.715Z" transform="translate(-508.321 -9715.259)" fill="#d18691"/>
          <g id="Grupo_54029" data-name="Grupo 54029" transform="translate(0 2.411)">
            <path id="Trazado_101874" data-name="Trazado 101874" d="M542.145,9737.729c-16.977,0-27.619-5.408-28.062-5.637l-3.185-1.848a2.969,2.969,0,0,1-1.634-1.549,5.038,5.038,0,0,1-.075-3.4,30.628,30.628,0,0,1,1.559-6.043,2.655,2.655,0,0,1,2.515-1.584,7.546,7.546,0,0,1,3.553,1.256c.938.357,6.228,2.369,9.335,3.646,2.529,1.039,8.681,1.529,12.358,1.822,1.022.084,1.914.154,2.587.223.527.055,1.2.08,1.988.08a115.232,115.232,0,0,0,14.343-1.279c7.23-1.033,10.147-1.832,11.321-2.316a3.793,3.793,0,0,1,1.445-.322,2.507,2.507,0,0,1,2.477,2.1,49.05,49.05,0,0,0,1.671,5.574,2.648,2.648,0,0,1-.026,2.232c-.8,1.664-3.3,2.311-4.053,2.467l-9.45,2.4A82.645,82.645,0,0,1,542.145,9737.729Z" transform="translate(-508.924 -9717.672)" fill="#333"/>
            <path id="Trazado_101875" data-name="Trazado 101875" d="M514.278,9730.236l-3.232-1.875c-1.773-.6-.887-3.148-.887-3.148a31.218,31.218,0,0,1,1.457-5.76c.825-1.811,4.118.4,4.118.4s6.02,2.279,9.441,3.686,12.039,1.809,15.333,2.145,10.583-.336,16.664-1.209,9.885-1.674,11.658-2.41,1.965.67,1.965.67a53.022,53.022,0,0,0,1.773,5.895c.762,1.742-3.04,2.545-3.04,2.545l-9.5,2.41C532.906,9739.881,514.278,9730.236,514.278,9730.236Z" transform="translate(-508.479 -9717.199)" fill="#e7919b"/>
          </g>
        </g>
        <path id="Trazado_101876" data-name="Trazado 101876" d="M546.605,9746.061l.125,42.934s-.25,5.7,3.567,7.51,18.713,7.385,18.713,7.385,4.756,2.629,12.768,0,27.536-13.143,27.536-13.143,2.5-2,1.127-6.385-14.9-36.3-18.651-41.682c0,0,18.526,28.164,22.4,42.309a9.591,9.591,0,0,0,9.764,7.26s12.142.875,8.887-9.389c0,0-15.271-30.416-27.162-41.932l-9.263-8.078s-2.3-3.148-7.035-1.539a64.906,64.906,0,0,1-11.239,2.732c-4.632.877-6.008,2.629-5.006,4.633s10.832,16.271,14.052,36.549c0,0-14.678-34.422-18.684-37.176a5.135,5.135,0,0,0-4.756-1.877c-3.38.25-22.781.625-31.668-2.5,0,0-6.683-1.252-8.349,4.381s-14.088,11.141-29.029,39.555c0,0,17.1-35.8,27.99-43.309,0,0,3.129-2.754.5-4.758,0,0-3.505-3.139-10.639,3.313s-30.041,25.352-36.425,43.752c0,0-2.5,6.717.751,6.738,0,0,1.252-.1,3.63-5.486s11.14-22.906,20.653-31.043c0,0-12.893,15.771-17.774,31.668,0,0-1.878,4.006,1.752,5.633s8.762,8.637,8.762,8.637l4.505,4.883s3.505,5.633,8.762,1,12.893-33.17,15.521-39.8c0,0-4.505,30.791-11.14,38.3,0,0-2.879,3.381,2.754,3.631s19.4-2.5,25.033-6.26,5.132-18.4,5.132-18.4Z" transform="translate(-465.495 -9710.381)" fill="#e7919b"/>
        <path id="Trazado_101877" data-name="Trazado 101877" d="M474.878,9780.371s-2.965,9.014.957,11.641c0,0,2.234,3.943,11.246,3,0,0,15.4-1.689,23.657,2.254s10.339,5.256,13.619,5.445,6.283-1.127,7.6-4.508,2.066-13.141,2.066-13.141.376-3.381-3.943-1.5-20.152,2.131-20.152,2.131-9.513-.252-13.519-5.322c-2.574-3.258-5.4.035-7.33,4-.258.531-1.844,5.063-2,4.918-.475-.461,1.075-8.143,2.692-10.828,2.128-3.537-.5-5.789-1.878-7.039s-6.008-3.506-8.511-.877S474.878,9780.371,474.878,9780.371Z" transform="translate(-466.116 -9692.561)" fill="#e7919b"/>
        <path id="Trazado_101878" data-name="Trazado 101878" d="M517.981,9801.787c5.257,2.377,20.152-1.252,20.152-1.252s16.522-4.222,25.659-1.61a132.91,132.91,0,0,0,17.273,3.669s5.132,1.48,5.633-3.669-4.883-17.792-4.883-17.792-.875-3.629-3.879-1.252a28.2,28.2,0,0,1-12.267,5.134c-4.006.5-8.762,0-9.764,2.378a16.343,16.343,0,0,0-1.126,4.881s0-5.257-2.754-6.385-15.4-4.756-17.4-5.631-11.39-3.006-14.144-2c0,0-3.694,1.313-3.694,6.194S512.722,9799.409,517.981,9801.787Z" transform="translate(-447.885 -9688.754)" fill="#e7919b"/>
        <path id="Trazado_101879" data-name="Trazado 101879" d="M565.916,9792.146s-.347,15.18,9.6,9.078c0,0,6.76-6.291,11.547-5.445s11.828,1.313,12.392-2.533-1.221-8.637-3.1-12.018a20.589,20.589,0,0,0-6.1-6.854c-1.5-.937-3.378-.092-3.1,2.346s2.952,6.086,2.066,12.676c0,0-2.346-8.168-4.788-10.891s-7.885-4.223-10.889-3.848-11.078,2.721-10.889,6.947S563.257,9783.912,565.916,9792.146Z" transform="translate(-427.07 -9690.508)" fill="#e7919b"/>
        <path id="Trazado_101880" data-name="Trazado 101880" d="M471.644,9798.188s-3,10.26-.751,12.389,6.008,0,6.008,0,3-6.008,2.628-11.266c0,0,1.5,7.021.032,12.211,0,0-.97,2,2.909,2.559s3.443.5,5.6,1.816,5.163,2.721,5.163,2.721,5.538,5.258,19.15,3.475l11.734-1.129s5.915-.281,7.135-4.691a79.027,79.027,0,0,0,1.783-11.641l.563,9.293s-1.877,4.787,3.755,5.82a138.293,138.293,0,0,1,15.959,2.717,79.625,79.625,0,0,0,17.571,2.447c3.832,0,12.281,0,18.852-2.816a31.83,31.83,0,0,0,6.571-1.627c2.754-1.127,4.632-1.377,5.132-5.26a51.534,51.534,0,0,0,0-9.26l1.378,10.137s.751,2.879,4.756,2.252,6.259-2.377,12.142-2.627a22.064,22.064,0,0,1,9.764,1.629s6.783,1.625,10.776-.877,4.493-4.881,4.118-8.262-4.118-10.639-4.118-10.639-2.139-5.008-5.143-5.008-5.382.5-5.006,2.629,3.128,10.828,2.628,13.549c0,0-3.881-10.295-4.883-11.17s-3-4.131-11.14,2.252a13.982,13.982,0,0,1-9.138,2.879c-5.507-.25-12.266-3.629-12.266-3.629l-12.643-2.748s-13.017-2.76-13.267,3.75.625,17.273.625,17.273l-3.129-15.9s.5-3.746-3.692-3.25-10.826,3.5-18.838,3.375a47.272,47.272,0,0,1-17.9-3.375c-4.757-1.881-14.9-5.637-14.9-5.637s-6.384-3.754-8.887,0-4.507,14.645-4.131,17.523a38.983,38.983,0,0,1,.626-15.754s1.877-4.773-1.5-4.4-8.137,1.5-11.141,1.127a26.388,26.388,0,0,1-6.508-2s-4.382-2.379-5.633,2.5S471.644,9798.188,471.644,9798.188Z" transform="translate(-467.763 -9684.149)" fill="#e7919b"/>
        <path id="Trazado_101881" data-name="Trazado 101881" d="M469.34,9816.441s-3.63,12.453,3.879,12.955,9.388,0,9.388,0,3.505.343,4.006-2.832,1.251-8.185,1.251-8.185v7.636s-1,3.131,1.5,3.006,12.516-1.5,15.771-.252a45.761,45.761,0,0,1,6.509,3.256s5.507,1.376,7.384,0,1.753-9.139,1.753-9.139a48.377,48.377,0,0,1,.75,9.75c-.249,4.395,15.521,6.647,19.277,6.4a99.555,99.555,0,0,0,17.9-3.754c4.255-1.5,14.269-4.131,22.029-2.5s7.76-2.378,7.76-2.378.626-7.385-.5-10.012c0,0-.563-2.725-4.834-1.645a29.569,29.569,0,0,1-11.578.83c-6.056-.877-10.187-1.627-10.187-1.627s-5.444-1.752-5.195,2.816.314,9.951.314,9.951-3-3.756-3.068-11.83c0,0,.564-4.129-5.945-4.506s-29.916,1.189-29.916,1.189-13.205,2.128-17.836.877-10.076-7.762-15.208-8.138-12.464-2.3-14.082,4.007S469.34,9816.441,469.34,9816.441Z" transform="translate(-468.463 -9675.683)" fill="#e7919b"/>
        <path id="Trazado_101882" data-name="Trazado 101882" d="M552.657,9825.377s-1.314,6.775,4.412,7.807,11.36,1.689,11.36,1.689,6.1,1.406,10.42-.562c0,0,6.289-5.354,12.486-6.854s6.383-.877,7.885-2.08,6.571-.068,6.76-3.17,0-8.551,0-8.551,1.055-3.566-1.961-3.189-4.8.748-4.8.748-.845.564-.658,6.01c0,0-.094-5.727-3.191-6.1a82.607,82.607,0,0,0-9.106-.187s-3.755-.375-3.38,2.721,1.032,5.551.563,8.551c0,0-.795-7.424-4.105-9.77s-12.232-.658-12.232-.658l-9.759,3.475s-5.048,1.219-4.823,4.223S552.657,9825.377,552.657,9825.377Z" transform="translate(-431.524 -9674.496)" fill="#e7919b"/>
      </g>
    </g>
  </g>
</svg>
