<svg xmlns="http://www.w3.org/2000/svg" width="396" height="323" viewBox="0 0 396 323">
  <g id="Grupo_54830" data-name="Grupo 54830" transform="translate(-180 -7575)">
    <rect id="Rectángulo_5287" data-name="Rectángulo 5287" width="396" height="323" transform="translate(180 7575)" fill="#d8ecff"/>
    <g id="Grupo_54034" data-name="Grupo 54034" transform="translate(-345.337 -2085.016)">
      <path id="Trazado_101883" data-name="Trazado 101883" d="M840.347,9868.863c-.257-.334-.845-1.029-1.7-2.028-5.558-6.529-22.443-26.37-30.232-44.191a2.616,2.616,0,0,0-.119-.242c-1.079-1.959-15.509-28.224-20.178-39.222-3.008-7.088-10.881-32.843-11.987-36.471a3.4,3.4,0,0,1-.147-.843c-.085-1.714-.523-8.185-2.4-12.525-2-4.617-6.291-13.193-9.16-17.286-1.037-1.48-3.4-4.219-5.351-6.424a3.529,3.529,0,0,1-.651-1.064l-1.238-3.17a3.587,3.587,0,0,0-4.115-2.2l-11.6,2.563a8.145,8.145,0,0,1-1.314.073c-1.876,0-6.347-.3-15.229-2.3-3.86-.867-7.071-1.694-9.9-2.423-5.139-1.321-8.851-2.276-12.011-2.276a11.565,11.565,0,0,0-7.115,2.244,7.248,7.248,0,0,0-2.983,4.427,3.676,3.676,0,0,1-.834,1.606c-4.547,5.41-14.291,18.035-16.224,29.042l-.034.183a196.411,196.411,0,0,1-5.658,21.064c-4.827,13.867-11.344,27.931-13.281,33.55a3.186,3.186,0,0,1-.175.417l-12.753,25.422-.064.14c-7.728,17.772-24.673,37.688-30.245,44.238-.858,1.007-1.448,1.7-1.7,2.033a11.205,11.205,0,0,0-2.533,8.147,8.288,8.288,0,0,0,3.309,5.624,13.547,13.547,0,0,0,8.51,2.621,34,34,0,0,0,8.714-1.367,6.6,6.6,0,0,1,1.711-.245,4.238,4.238,0,0,1,3.068,1.289,3.3,3.3,0,0,1,.666,1.017c1.518,3.452,5.087,9.922,10.513,9.922a6.58,6.58,0,0,0,1.535-.181,8.473,8.473,0,0,0,5.156-3.81,3.611,3.611,0,0,1,4.844-1.186c.425.247.672.382.679.385l.078.041,4.219,1.9.175.065c-.725,4.166-.076,6.727.543,8.071.95,3.539,3.7,7.517,8.487,7.517a10.464,10.464,0,0,0,5.78-1.961,3.724,3.724,0,0,1,2.184-.634c2.477,0,5.416,1.81,6.885,2.96a3.3,3.3,0,0,1,.361.329c1.553,1.613,6.669,6.453,12.279,6.633l.3,0c5.976,0,10.028-4.812,12.987-8.327l.1-.124c.314-.372.62-.738.925-1.089a10.109,10.109,0,0,0,.854-1.171,100.523,100.523,0,0,0,11.883.723q.921,0,1.837-.02a3.563,3.563,0,0,1,3.21,1.923,9.671,9.671,0,0,0,1.224,1.8c.326.381.656.779,1.024,1.222,2.95,3.544,6.989,8.4,13,8.4h.018l.266,0c6.414-.168,12.128-6.367,12.758-7.075l.127-.153c1.847-2.394,5.609-5.711,7.87-5.711a1.564,1.564,0,0,1,.94.294,13.205,13.205,0,0,0,7.239,2.613,7.552,7.552,0,0,0,6.856-4.135c.763-1.352,1.69-4.244.653-9.363a5.163,5.163,0,0,0,1.049-.243l3.429-1.09.325-.124.186-.092c1.493-.728,6.193-3.052,8.9-4.664l.015.09c.2,1.884,1.451,10.156,7.751,11.654a6.614,6.614,0,0,0,1.542.182c5.86,0,9.557-7.632,10.666-10.295a4.241,4.241,0,0,1,3.581-1.934,6.544,6.544,0,0,1,1.711.248,34.049,34.049,0,0,0,8.713,1.364,13.545,13.545,0,0,0,8.511-2.622,8.288,8.288,0,0,0,3.309-5.615A11.214,11.214,0,0,0,840.347,9868.863Z" fill="#58585c"/>
      <text id="GODET" transform="translate(680.275 9938.191)" font-size="22" font-family="Roboto-Bold, Roboto" font-weight="700"><tspan x="0" y="0">GODET</tspan></text>
      <path id="Trazado_101884" data-name="Trazado 101884" d="M742.741,9874.163c-1.069,0-2.552-.622-3.537-3.582-1.1-3.293-19.327-74.1-20.1-77.11l-10.2-36.984,19.5-24.255.611-.186.262,0c6.3,0,15.169,37.825,24.326,103.776l3.613,24.025c1.137,2.238,2.191,6.218-.59,8-2.6,1.67-9.173,4.876-9.452,5.011l-.092.045-3.492,1.109A2.356,2.356,0,0,1,742.741,9874.163Z" transform="translate(39.743 13.252)" fill="#58585c"/>
      <path id="Trazado_101885" data-name="Trazado 101885" d="M651.878,9874.108a3.007,3.007,0,0,1-.7-.075l-.123-.03-4.139-1.864a49.3,49.3,0,0,1-4.519-2.89c-2.871-2.055-1.427-8.4-1.041-9.875l2.847-21.105c12.824-102.854,22.882-111.047,23.986-111.641l1.32-.712,15.054,33.2-8.521,34.418c-.779,3.013-19.013,73.533-19.993,76.806-1.019,3.4-3.257,3.771-4.174,3.771Z" transform="translate(12.501 10.809)" fill="#58585c"/>
      <path id="Trazado_101886" data-name="Trazado 101886" d="M756.431,9867.793a3.807,3.807,0,0,1-.886-.1c-4.666-1.109-5.546-8.471-5.632-9.306l-9.661-59.173c-.021-.157-1.571-11.752-3.629-20.34-3.094-12.914-2.482-15.869-.382-16.611l.227-.079.365-.021c.778,0,2.6,0,6.1,10.464l12.913,25.735c7.931,18.233,25.083,38.391,30.722,45.015.812.952,1.371,1.611,1.617,1.93a8.425,8.425,0,0,1,1.966,6.072,5.537,5.537,0,0,1-2.225,3.749,10.857,10.857,0,0,1-6.82,2.054,31.386,31.386,0,0,1-7.986-1.27,9.374,9.374,0,0,0-2.437-.343,7.09,7.09,0,0,0-6.092,3.481c-.553,1.356-3.82,8.746-8.155,8.746Z" transform="translate(49.956 25.275)" fill="#58585c"/>
      <path id="Trazado_101887" data-name="Trazado 101887" d="M645.1,9863.752c-4.336,0-7.6-7.389-8.216-8.871a7.115,7.115,0,0,0-6.032-3.357,9.378,9.378,0,0,0-2.439.344,31.387,31.387,0,0,1-7.987,1.27,10.856,10.856,0,0,1-6.818-2.055,5.531,5.531,0,0,1-2.225-3.752,8.411,8.411,0,0,1,1.966-6.068c.246-.318.809-.98,1.625-1.937,5.634-6.623,22.786-26.781,30.681-44.937l12.947-25.8c3.5-10.463,5.318-10.465,6.1-10.465h.239l.353.1c2.1.744,2.712,3.7-.382,16.609-2.058,8.592-3.609,20.186-3.624,20.3l-9.678,59.3c-.076.752-.957,8.111-5.62,9.223A3.862,3.862,0,0,1,645.1,9863.752Z" transform="translate(0.798 23.663)" fill="#58585c"/>
      <g id="Grupo_54033" data-name="Grupo 54033" transform="translate(695.56 9701.638)">
        <path id="Trazado_101888" data-name="Trazado 101888" d="M717.509,9707.687s-3.491,1-17.793-2.215c-16.088-3.618-21.61-6.662-26.775-2.921s1.406,10.22,1.406,10.22,5.566,6.113,29.292,3.741c0,0,18.615-1.186,25-3.468l2.768-3.776-1.673-4.281Z" transform="translate(-670.961 -9700.84)" fill="#58585c"/>
        <path id="Trazado_101889" data-name="Trazado 101889" d="M717.849,9709.251s-3.49,1-17.793-2.216c-16.086-3.618-21.61-6.661-26.773-2.92s1.406,10.22,1.406,10.22,5.566,6.114,29.291,3.742c0,0,18.616-1.187,25-3.468l2.768-3.778-1.672-4.277Z" transform="translate(-670.825 -9700.214)" fill="#8db795"/>
      </g>
      <path id="Trazado_101890" data-name="Trazado 101890" d="M664.2,9729.628l27.01,7.549,29.2,1.041,18.007-1.041,3.13-11.975-8.036-20.249s-8.539,4.606-33.452,3.625c0,0-15.264-.023-26.37-6.173l-2.127,5.677-4.079,12.678Z" transform="translate(21.901 1.422)" fill="#58585c"/>
      <path id="Trazado_101891" data-name="Trazado 101891" d="M669.341,9888.291s34.912,15.225,67.58,1.173l14.893-118.1,1.7-20.685v-6.446s-.243-7.424-2.19-11.925-6.156-12.9-8.882-16.79c-1.794-2.56-8.133-9.491-8.133-9.491a23.4,23.4,0,0,0-5.006,1.446s7.543,11.087,5.719,21.063c0,0-6.692-19.984-9-19.664,0,0-29.679,3.2-39.469-.661,0,0-7.627,6.576-11.7,19.6,0,0,2.621-18.021,7-20.934a22.243,22.243,0,0,1-5.082-2.67s-15.48,16.79-17.853,30.3a417.16,417.16,0,0,0,.73,43.07c1.643,20.076,7.118,84.132,7.118,84.132Z" transform="translate(19.692 2.142)" fill="#a4d9b1"/>
      <path id="Trazado_101892" data-name="Trazado 101892" d="M728.776,9733.045s8.4-2.555,23,102.566l3.65,24.273s2.555,4.744,0,6.387-9.307,4.93-9.307,4.93l-3.448,1.094s-1.48.73-2.576-2.555-20.074-77.016-20.074-77.016L710,9756.406Z" transform="translate(40.183 13.652)" fill="#a4d9b1"/>
      <path id="Trazado_101893" data-name="Trazado 101893" d="M668.458,9727.3S658.3,9732.78,645.2,9837.9l-2.861,21.191s-1.813,6.822.481,8.464a50.857,50.857,0,0,0,4.28,2.752l4.023,1.81s2.212.55,3.194-2.736,19.976-76.74,19.976-76.74l8.4-33.945Z" transform="translate(12.901 11.362)" fill="#a4d9b1"/>
      <path id="Trazado_101894" data-name="Trazado 101894" d="M711.1,9892.484c-4.945,0-8.532-4.316-11.416-7.783-.375-.451-.742-.891-1.1-1.312-3.3-3.85-1.613-9.084-1.212-10.162l7.016-49.5c.041-.365,4.609-40.633,5.427-51.486,1.41-18.684,3.852-18.684,5.027-18.684a1.912,1.912,0,0,1,.8.182c.5.234,2.034.951,3.8,9.48l4.487,24.611c3.229,13.346,11.9,43.961,17.631,64.221,2.622,9.262,4.517,15.953,5,17.855,1.486,5.816.332,8.482-.122,9.238a4.97,4.97,0,0,1-4.6,2.773,11.1,11.1,0,0,1-5.972-2.242,4.565,4.565,0,0,0-2.635-.814c-4.177,0-9.075,5.164-10.61,7.152-.309.348-5.809,6.32-11.3,6.461Z" transform="translate(34.825 21.843)" fill="#58585c"/>
      <path id="Trazado_101895" data-name="Trazado 101895" d="M684.742,9885.018c4.945,0,8.532-4.113,11.416-7.418.375-.431.742-.851,1.1-1.251,3.3-3.673,1.613-8.662,1.212-9.69l-7.014-47.193c-.042-.349-4.61-38.744-5.429-49.09-1.409-17.815-3.852-17.815-5.026-17.815a1.935,1.935,0,0,0-.8.174c-.5.223-2.033.907-3.8,9.04l-4.486,23.465c-3.231,12.726-11.9,41.917-17.632,61.232-2.622,8.83-4.517,15.21-5,17.023-1.487,5.549-.333,8.089.12,8.809a4.991,4.991,0,0,0,4.6,2.648,11.438,11.438,0,0,0,5.97-2.143,4.746,4.746,0,0,1,2.636-.773c4.175,0,9.074,4.923,10.61,6.82.308.329,5.808,6.022,11.3,6.159Z" transform="translate(15.65 21.444)" fill="#58585c"/>
      <path id="Trazado_101896" data-name="Trazado 101896" d="M720.721,9880.669s8.153-10.6,14.48-6.332,8.03,0,8.03,0,1.459-2.063,0-7.781-17.034-59.494-21.535-78.111l-4.259-23.358s-1.539-7.424-2.838-8.031-2.762,5.961-3.551,16.427-5.17,49.031-5.17,49.031l-6.691,47.207s-2.069,4.987.851,8.4,6.324,8.272,11.01,8.15S720.721,9880.669,720.721,9880.669Z" transform="translate(35.583 23.223)" fill="#a4d9b1"/>
      <path id="Trazado_101897" data-name="Trazado 101897" d="M673.262,9878.243s-8.131-7.154-14.483-2.927-7.988-3.548-7.988-3.548-1.448-2.073.048-7.786,17.4-59.422,22.016-78.02l4.4-23.346s1.585-7.417,2.888-8.019,2.726,5.983,3.45,16.456,4.866,49.091,4.866,49.091l6.4,47.273s2.037,5-.9,8.395-6.373,8.24-11.059,8.09S673.262,9878.243,673.262,9878.243Z" transform="translate(16.296 22.243)" fill="#a4d9b1"/>
      <path id="Trazado_101898" data-name="Trazado 101898" d="M710.069,9768.522s8.921,77.623,16.464,93.2C726.533,9861.719,707.475,9830.815,710.069,9768.522Z" transform="translate(40.113 27.816)" fill="#58585c"/>
      <path id="Trazado_101899" data-name="Trazado 101899" d="M660.037,9866.056s15.3-76.622,12.889-93.759C672.926,9772.3,681.6,9807.555,660.037,9866.056Z" transform="translate(20.238 29.322)" fill="#58585c"/>
      <path id="Trazado_101900" data-name="Trazado 101900" d="M741.236,9798.585l9.672,59.258s.73,7.175,4.563,8.088,7.483-7.94,7.483-7.94a8.617,8.617,0,0,1,10.129-3.831c7.118,1.915,10.95,1.459,13.6-.55s1.915-5.382,0-7.846-23.361-26.19-32.486-47.179l-12.958-25.822s-3.376-10.129-4.927-9.582-.821,6.206,1.277,14.966S741.236,9798.585,741.236,9798.585Z" transform="translate(50.353 25.674)" fill="#a4d9b1"/>
      <path id="Trazado_101901" data-name="Trazado 101901" d="M742.593,9783.783s19.163,45.809,30.844,54.75C773.437,9838.533,756.1,9840.357,742.593,9783.783Z" transform="translate(53.193 33.908)" fill="#58585c"/>
      <path id="Trazado_101902" data-name="Trazado 101902" d="M659.5,9794.544l-9.673,59.258s-.73,7.174-4.563,8.086-7.483-7.938-7.483-7.938a8.62,8.62,0,0,0-10.129-3.833c-7.118,1.917-10.95,1.461-13.6-.548s-1.917-5.383,0-7.847,23.361-26.189,32.485-47.178l12.958-25.823s3.376-10.129,4.928-9.581.821,6.205-1.277,14.965S659.5,9794.544,659.5,9794.544Z" transform="translate(1.197 24.061)" fill="#a4d9b1"/>
      <path id="Trazado_101903" data-name="Trazado 101903" d="M651.844,9779.742s-19.162,45.809-30.842,54.75C621,9834.492,638.339,9836.316,651.844,9779.742Z" transform="translate(4.656 32.294)" fill="#58585c"/>
    </g>
  </g>
</svg>
