<svg xmlns="http://www.w3.org/2000/svg" width="396" height="323" viewBox="0 0 396 323">
  <g id="Grupo_54832" data-name="Grupo 54832" transform="translate(-1012 -6539)">
    <rect id="Rectángulo_5280" data-name="Rectángulo 5280" width="396" height="323" transform="translate(1012 6539)" fill="#f3f9ff"/>
    <g id="Grupo_54004" data-name="Grupo 54004" transform="translate(947.977 -2845.811)">
      <path id="Trazado_101794" data-name="Trazado 101794" d="M247.185,9436.509a4.2,4.2,0,0,1-1.432,3.126c-1.588,1.586-9.278,12.784-9.278,12.784s-5.535,6.79-7.916,18.782-5.22,32.183-5.22,32.183l-5.812,54.4-5.042,39.943-3.148,25.571s-3,10.4,8.729,10.58c0,0,10.846.618,15.519-1.322,0,0,5.731-2.646,9.346-.264s13.755,6.524,13.755,6.524,6.966,3.615,13.447,3.35,14.857-4.937,14.857-4.937,9.171-4.144,12.7-4.408,14.284,1.852,17.458,3.174,9.7.529,12.256-.793a10.537,10.537,0,0,0,5.467-8.729c0-3.968-3.7-28.833-3.7-28.833l-6.789-45.674-7.664-53.168-5.3-31.214s-3.262-11.462-7.759-17.282-8.933-10.425-8.994-12.521l-16.224-.529-21.161-1.469-4.674-1.175Z" transform="translate(0 0.087)" fill="#333"/>
      <path id="Trazado_101795" data-name="Trazado 101795" d="M281.251,9433.369s-2.529.725-12.9-1.606c-11.658-2.621-15.661-4.826-19.4-2.116s1.02,7.407,1.02,7.407,4.034,4.43,21.227,2.712c0,0,13.491-.86,18.12-2.514l2.006-2.737-1.212-3.1Z" transform="translate(0.539)" fill="#333"/>
      <path id="Trazado_101796" data-name="Trazado 101796" d="M281.592,9434.935s-2.53.726-12.9-1.6c-11.658-2.623-15.661-4.828-19.4-2.116s1.019,7.405,1.019,7.405,4.034,4.432,21.228,2.712c0,0,13.49-.86,18.119-2.513l2.007-2.738-1.213-3.1Z" transform="translate(0.544 0.022)" fill="#e9929c"/>
      <text id="ASYMMETRICAL" transform="translate(210.308 9660.215)" font-size="16" font-family="Roboto-Bold, Roboto" font-weight="700"><tspan x="0" y="0">ASYMMETRICAL</tspan></text>
      <g id="Grupo_54001" data-name="Grupo 54001" transform="translate(247.01 9429.994)">
        <path id="Trazado_101797" data-name="Trazado 101797" d="M269.887,9443.176c-11.959,0-19.456-3.56-19.768-3.712l-2.244-1.216a2.038,2.038,0,0,1-1.151-1.019,3.111,3.111,0,0,1-.053-2.235,19.041,19.041,0,0,1,1.1-3.979,1.882,1.882,0,0,1,1.771-1.043,5.549,5.549,0,0,1,2.5.828c.661.235,4.388,1.559,6.576,2.4,1.782.684,6.115,1.008,8.705,1.2.721.054,1.35.1,1.822.147.371.033.843.051,1.4.051a86.7,86.7,0,0,0,10.1-.842c5.093-.681,7.149-1.205,7.975-1.525a2.859,2.859,0,0,1,1.018-.211,1.731,1.731,0,0,1,1.745,1.383,30.7,30.7,0,0,0,1.177,3.667,1.64,1.64,0,0,1-.018,1.47c-.564,1.1-2.328,1.521-2.855,1.626l-6.657,1.577A62.072,62.072,0,0,1,269.887,9443.176Z" transform="translate(-246.485 -9429.973)" fill="#333"/>
        <path id="Trazado_101798" data-name="Trazado 101798" d="M250.556,9438.538l-2.276-1.233c-1.249-.4-.625-2.072-.625-2.072a19.464,19.464,0,0,1,1.026-3.792c.581-1.19,2.9.266,2.9.266s4.24,1.5,6.65,2.424,8.481,1.19,10.8,1.41a68.882,68.882,0,0,0,11.738-.792,44.3,44.3,0,0,0,8.213-1.588c1.249-.485,1.383.441,1.383.441a32.977,32.977,0,0,0,1.25,3.878c.535,1.148-2.143,1.677-2.143,1.677l-6.7,1.587C263.679,9444.888,250.556,9438.538,250.556,9438.538Z" transform="translate(-246.471 -9429.959)" fill="#e7919b"/>
      </g>
      <path id="Trazado_101799" data-name="Trazado 101799" d="M253.946,9476.536s-.881,20.81,0,25.13c0,0,.088,5.025,2.2,5.908a24.9,24.9,0,0,0,9.082,2.292c5.29.527,7.406-2.381,7.406-2.381s3-2.116,3.086-11.64-.088-29.8-.969-39.942a95.174,95.174,0,0,1,3,30.155c-.969,17.194-1.234,21.955-1.234,21.955s4.762,1.939,6.26-11.109-.176-37.738-2.689-45.232-5.511-7.672-5.511-7.672h-8.112s-10.1,11.507-8.112,48.54c0,0-3.571-36.107,5.555-48.54h-2.248S254.2,9453.771,253.946,9476.536Z" transform="translate(0.624 0.218)" fill="#e7919b"/>
      <g id="Grupo_54002" data-name="Grupo 54002" transform="translate(279.405 9443.613)">
        <path id="Trazado_101800" data-name="Trazado 101800" d="M279.742,9447.976s6.039,16,5.246,43.514c0,0-.265,10.581-.661,14.549a7.546,7.546,0,0,0,.485,4.674s2.188,1.1,1.932,4.806-1.4,7.317,1.066,9.346,11.21,13.578,11.733,16.136,1.494,2.2,1.935,1.763-.794-32.183-3.263-45.408-3.527-28.745-9.17-43.029c0,0-2.381-6.7-5.2-10.316a3.75,3.75,0,0,0-3.02-.529c-2.05.33-2.711,1.323-2.248,2.514A7.212,7.212,0,0,0,279.742,9447.976Z" transform="translate(-278.433 -9443.403)" fill="#e7919b"/>
        <path id="Trazado_101801" data-name="Trazado 101801" d="M285.751,9453.13s12.03,39.149,6.475,67.057C292.226,9520.187,294.474,9494.131,285.751,9453.13Z" transform="translate(-278.331 -9443.268)" fill="#333"/>
      </g>
      <g id="Grupo_54003" data-name="Grupo 54003" transform="translate(235.444 9443.613)">
        <path id="Trazado_101802" data-name="Trazado 101802" d="M256.9,9447.976s-6.04,16-5.246,43.514c0,0,.265,10.581.661,14.549a7.546,7.546,0,0,1-.485,4.674s-2.189,1.1-1.933,4.806,1.4,7.317-1.066,9.346S237.624,9538.441,237.1,9541s-1.493,2.2-1.934,1.763.794-32.183,3.262-45.408,3.528-28.745,9.171-43.029c0,0,2.381-6.7,5.2-10.316a3.752,3.752,0,0,1,3.02-.529c2.05.33,2.711,1.323,2.249,2.514A7.241,7.241,0,0,1,256.9,9447.976Z" transform="translate(-235.079 -9443.403)" fill="#e7919b"/>
        <path id="Trazado_101803" data-name="Trazado 101803" d="M250.683,9453.13s-12.03,39.149-6.474,67.057C244.208,9520.187,241.959,9494.131,250.683,9453.13Z" transform="translate(-234.972 -9443.268)" fill="#333"/>
      </g>
      <path id="Trazado_101804" data-name="Trazado 101804" d="M292.156,9454.948a306.216,306.216,0,0,1,9.28,51.139c2.469,27.511,2.822,49.907,2.822,49.907a43.375,43.375,0,0,1-.969,9.7c-1.1,4.629-.718,4.167.974,6.943s10.687,12.631,10.687,12.631,2.447,3.108,2.777,0-3.77-55.372-5.8-72.654-3.174-39.325-10.493-53.258-10.306-14.812-10.306-14.812a9.106,9.106,0,0,0-3.184-1.551c-1.41-.213,1.749,4.9,1.749,4.9Z" transform="translate(1.1 0.204)" fill="#e7919b"/>
      <path id="Trazado_101805" data-name="Trazado 101805" d="M322.956,9580.8s2.85,23.808,3.644,26.1,3.7,13.226,0,14.02-7.494-5.466-7.494-5.466-3.616-4.586-.97-9.612,3.175-5.378,2.557-10.579-2.469-27.247-2.469-27.247l-1.5-15.694s-.441-9.171,1.587-.441,3.35,20.192,3.35,20.192Z" transform="translate(1.507 1.675)" fill="#e7919b"/>
      <path id="Trazado_101806" data-name="Trazado 101806" d="M229.56,9574.03s5.885-3.968,6.084-8.067a16.356,16.356,0,0,0-1.587-8.134c-1.984-3.7-3.175-9.788-2.58-18.848s2.91-32.338,2.91-32.338,3.517-25.526,5.263-30.221,8.2-27.312,8.2-27.312,3.535-6.15,1.616-6.482-14.879,14.615-17.657,27.048-4.894,47.879-4.894,47.879-3.562,25.129-3.765,38.885-.6,18.384-.6,18.384-.265,4.762,1.455,4.364S229.56,9574.03,229.56,9574.03Z" transform="translate(0.19 0.201)" fill="#e7919b"/>
      <path id="Trazado_101807" data-name="Trazado 101807" d="M214.835,9598.674s-1.323,7.494-1.587,11.374-.176,5.38.793,5.908,3-1.234,3.615-2.028,3.175-5.113,2.646-9.258-3-7.494-2.116-11.638,2.5-5.731,3.364-10.052-.631-19.664-.631-19.664.7-5.467-.794-7.142-2.656,20.81-2.656,20.81l-1.333,14.724Z" transform="translate(0.058 1.787)" fill="#e7919b"/>
      <path id="Trazado_101808" data-name="Trazado 101808" d="M214.668,9627.448s3.66,3.107,12.057,2.381c0,0,5.687-.265,8.465-2.447,2.557-2.009,3.695-10.683,3.695-10.683l4.395-50.267,1.9-14.108-1.9,41.97-2.424,30.157a3.432,3.432,0,0,0,1.675,4.144,87.912,87.912,0,0,0,10.4,4.407c3.262,1.236,8.729,6.879,14.461,3.087,0,0,1.41-.705,0-6.524s-.97-108.718-.97-108.718l5.2,109.688s-1.587,7.361,3.835,5.313,9.259-4.3,13.557-5.489,5.621-1.324,5.885-7.01-3.835-61.238-4.761-69.966,8.067,63.138,8.067,68.14.133,6.257.86,6.652,6.679.265,9.391,1.455,8.663,3.5,12.564,2.845,6.613-2.315,6.878-3.968-2.711-4.432-2.711-4.432-10.382-7.473-9.457-12.563,1.228-7.077,3.06-9.722,1.105-6.349,1.105-6.349a11.837,11.837,0,0,0-4.43-8.729c-4.431-3.372-11.756-12.5-11.756-12.5s-3.441-2.978-3.25-9.325l.722-5.753a14.59,14.59,0,0,0,1.3-5.29c-.11-2.183.42-5.29-4.607-12.035s-9.721-12.9-9.721-12.9-3.9-3.77-3.9-8.067.066-6.084.066-6.084a4.21,4.21,0,0,0-3.122-3.867c-3.981-1.359-5.336-1.506-11.023.742a13,13,0,0,1-4.5.148s-4.629-2.315-7.936-.794-3.61,6.35-3.61,6.35.3,5.158-1.085,6.018-7.738,8.927-7.738,8.927-9.28,9.392-8.377,18.913,2.293,14.615.706,17.194-10.581,11.507-10.581,11.507-6.679,5.886-6.084,14.086,1.7,10.448,1.7,10.448,1.863,4.827-.847,8.862a31,31,0,0,1-6.478,6.811s-3.042,1.917-2.91,3.638S214.668,9627.448,214.668,9627.448Z" transform="translate(0.048 1.142)" fill="#e7919b"/>
    </g>
  </g>
</svg>
