<svg xmlns="http://www.w3.org/2000/svg" width="396" height="323" viewBox="0 0 396 323">
  <g id="Grupo_54821" data-name="Grupo 54821" transform="translate(-1012 -6196)">
    <rect id="Rectángulo_5267" data-name="Rectángulo 5267" width="396" height="323" transform="translate(1012 6196)" fill="#d8ecff"/>
    <g id="Grupo_53998" data-name="Grupo 53998" transform="translate(641.172 -2954.849)">
      <path id="Trazado_101758" data-name="Trazado 101758" d="M499.725,9394.9c14.984,5.906,68.793,23.135,136.25-1.921a8.852,8.852,0,0,0,5.66-9.511l-17.974-130.12s-1.036-10.026-10.891-27.187l-9.27-16.672a19.121,19.121,0,0,1-1.264-4.766,36.9,36.9,0,0,1-.2-6.125s.389-1.849-2.431-.877-8.558,3.6-15.852,3.114-26.645-2.141-31.118-5.352-15.365-.777-15.365-.777-2.529.094-2.724,4.959a55.064,55.064,0,0,1-1.944,10.893l-12.448,18.186a78.619,78.619,0,0,0-11.573,31.8c-2.061,16.314-10.642,107.19-12.622,128.23A5.97,5.97,0,0,0,499.725,9394.9Z" transform="translate(0)" fill="#333"/>
      <text id="WRAP" transform="translate(535.165 9429.114)" font-size="23" font-family="Roboto-Bold, Roboto" font-weight="700"><tspan x="0" y="0">WRAP</tspan></text>
      <path id="Trazado_101759" data-name="Trazado 101759" d="M539.525,9198.3c3.659,1.734,14.776,5.906,34.472,4.27a6.35,6.35,0,0,1,4.271,1.153c2.159,1.564,5.034,4.735,5.274,10.59.389,9.463-2.463,69.628-6.613,91.93s-13.484,59.9-38.769,78.833c-22.3,16.694-35.62,1.725-38.456-2.041a2.42,2.42,0,0,1-.476-1.717l8.462-80,3.371-35.441s1-21.414,9.822-35.416c7.67-12.185,12.421-19.761,13.527-21.525a2.4,2.4,0,0,0,.33-.865l1.345-7.692v-.042A2.4,2.4,0,0,1,539.525,9198.3Z" transform="translate(1.61 2.082)" fill="#c8dc56"/>
      <path id="Trazado_101760" data-name="Trazado 101760" d="M568.768,9199.131a49.959,49.959,0,0,1-9.336,2.465s-2.723.13-1.944,2.332,5.445,52.984-3.112,90.74c0,0,2.917,51.371,27.034,75.487,0,0,11.282,12.837,22.173,11.671,0,0,4.279,1.556,3.5-4.667s-15.56-114.364-15.56-114.364-4.084-19.256-7.585-28.395-14-32.953-14-32.953S569.594,9199.211,568.768,9199.131Z" transform="translate(28.701 2.606)" fill="#c8dc56"/>
      <path id="Trazado_101761" data-name="Trazado 101761" d="M517.724,9355.4s56.014,14.264,102.109-6.093c0,0-38.51-1.881-48.624-74.428C571.209,9274.883,558.956,9344.317,517.724,9355.4Z" transform="translate(10.7 39.811)" fill="#7f9403"/>
      <path id="Trazado_101762" data-name="Trazado 101762" d="M531.045,9198.76v7.684s-10.885,19.451-10.755,29.306c0,0,9.223-21.776,14.377-27.927l1.572-9.062Z" transform="translate(11.96 2.425)" fill="#333"/>
      <path id="Trazado_101763" data-name="Trazado 101763" d="M559.072,9200.038a33.033,33.033,0,0,1,1.944,9.984s10.632,24.248,13.744,31.9c0,0-7.909-25.543-11.021-32.545l-1.685-10.244Z" transform="translate(31.007 2.606)" fill="#333"/>
    </g>
  </g>
</svg>
