<svg xmlns="http://www.w3.org/2000/svg" width="396" height="323" viewBox="0 0 396 323">
  <g id="Grupo_54822" data-name="Grupo 54822" transform="translate(-180 -6539)">
    <rect id="Rectángulo_5278" data-name="Rectángulo 5278" width="396" height="323" transform="translate(180 6539)" fill="#f3f9ff"/>
    <g id="Grupo_53999" data-name="Grupo 53999" transform="translate(-312.036 -2610.565)">
      <path id="Trazado_101764" data-name="Trazado 101764" d="M609.264,9389.5c-.034.158-.629,2.93.545,4.116,1.666,1.686,5.425,1.28,5.786,1.363a9.3,9.3,0,0,1,2.211.543c.671.429.606,1.7,1.157,2.62.626,1.045.563,1.236,1.021,2.042a6.481,6.481,0,0,0,2.586,2.792,5.271,5.271,0,0,0,3,.543,4.85,4.85,0,0,0,2.858-1.293c1.023-1.022,1.469-1.433,2.207-1.346.772.092,2.269,2.753,2.614,3.115a6.571,6.571,0,0,0,2.862,1.979,5.6,5.6,0,0,0,2.458-.209,10.5,10.5,0,0,0,2.45-1.294,4.237,4.237,0,0,1,1.565-.884,3.894,3.894,0,0,1,1.565,0,3.093,3.093,0,0,1,1.589.725,7.7,7.7,0,0,1,1.882,2.065,4.529,4.529,0,0,0,2.791,1.77,5.573,5.573,0,0,0,3.63-1.539,5.87,5.87,0,0,1,2.564-1.364,3.761,3.761,0,0,1,1.77.316,6.849,6.849,0,0,1,1.7,1.294c1.977,1.727,4.049,2.364,5.241,2.178a6.549,6.549,0,0,0,3.131-1.021c1.024-.753.963-1.4,1.973-1.769a4.979,4.979,0,0,1,1.7-.205,7.968,7.968,0,0,1,1.906.137c1.693.42,1.571,1.917,3.539,3.063a6.237,6.237,0,0,0,3,.815,5.3,5.3,0,0,0,2.994-.68c.732-.452.591-.675,1.565-1.362a5.9,5.9,0,0,1,2.315-1.089,5.509,5.509,0,0,1,2.109,0,5.868,5.868,0,0,1,1.5.477c1.461.718,1.375,1.574,2.655,2.246a4.686,4.686,0,0,0,2.381.477,4.768,4.768,0,0,0,2.723-.816,19.07,19.07,0,0,1,3.879-2.655,5.061,5.061,0,0,1,1.362-.407,3.418,3.418,0,0,1,1.837.34c1.013.535.832,1.272,1.77,2.178a4.8,4.8,0,0,0,3.131,1.293c3.335.073,4.735-.783,5.309-1.5a20.052,20.052,0,0,1,2.723-2.79,5.825,5.825,0,0,1,1.974-.205,6.877,6.877,0,0,1,1.77.136c1.461.384,1.578,1.456,2.994,2.247a6.468,6.468,0,0,0,3,.612,13.2,13.2,0,0,0,4.56-.545,10.259,10.259,0,0,0,3.131-1.361,6.584,6.584,0,0,1,1.634-1.021,6.3,6.3,0,0,1,2.314-.272,10.257,10.257,0,0,1,2.246.2,15.693,15.693,0,0,1,2.315.817,7.659,7.659,0,0,0,4.084.408,7.343,7.343,0,0,0,2.926-1.5c.872-.653.793-.819,1.973-1.838a12.134,12.134,0,0,1,2.791-1.974,5.829,5.829,0,0,1,3.131-.817c.823.071.863.328,2.858,1.089,1.577.6,4.605-.783,5.548-1.769.124-.131,2.586-1.97,2.824-3.744.33-2.459-.139-3.648-.34-5.717a15.373,15.373,0,0,0-1.021-4.084c-1.414-3.873-2.157-7.959-3.335-11.911-1.362-4.569-2.45-9.852-4.628-20.417-2.237-10.856-2-10.965-3.743-19.058-1.549-7.209-2.129-8.964-4.356-18.31-3.067-12.873-2.68-12.541-5.92-26.544-4.132-17.851-4.432-16.971-6.6-27.7-.942-4.664-1.932-10-3.879-18.58-1.832-8.073-2.937-12.075-5.037-16.744-1.39-3.09-3.017-6.031-4.764-9.188-1.976-3.568-2.988-5.381-4.22-6.806-1.914-2.213-4.361-5.041-6.67-6.262a4.351,4.351,0,0,1-1.633-1.36,6.458,6.458,0,0,1-.817-2.451,17.489,17.489,0,0,1-.408-2.994c-.043-.976-.126-1.951-.137-2.928-.006-.582,0-1.069-.34-1.36a1.488,1.488,0,0,0-1.293-.137,3.253,3.253,0,0,0-1.565,1.362c-1.078,1.258-3.4.856-5.717.611-3.71-.393-1.944.2-7.759-.271-4.821-.389-7.232-.583-10.278-1.43-2.19-.609-1.958-.774-5.512-1.838a23.2,23.2,0,0,0-7.691-1.226,8.331,8.331,0,0,0-3.2.75,4.957,4.957,0,0,0-1.838,1.292,5.181,5.181,0,0,0-1.021,2.382c-.5,2.123-.307,2.607-.749,4.629-.349,1.6-.537,2.409-1.225,3.131-.632.665-1.069.628-2.041,1.361a9.149,9.149,0,0,0-2.11,2.382c-1.949,2.8-1.152,1.2-4.424,5.854-1.273,1.81-1.2,1.773-3.335,4.9-3.081,4.508-3.144,4.448-4.015,5.854a49.746,49.746,0,0,0-3.676,7.214c-1.173,2.9-1.457,4.563-2.586,9.46-2.01,8.714-2.092,7.7-3.676,14.906-.729,3.322-1.235,5.936-2.246,11.163-1.257,6.494-1.158,6.413-1.838,9.665-1.108,5.3-1.614,6.686-3.063,12.863-.84,3.581-1,4.515-2.723,12.659-.582,2.749-1.612,7.528-3.675,17.084-2.675,12.392-4.012,18.587-5.378,24.706-4.086,18.3-3.8,15.791-4.764,21.03-.643,3.494-1.585,7.593-3.471,15.79-1.11,4.829-1.46,5.884-2.11,7.011A10.981,10.981,0,0,0,609.264,9389.5Z" fill="#333"/>
      <text id="ACCORDION" transform="translate(640.47 9427.254)" font-size="16" font-family="Roboto-Bold, Roboto" font-weight="700"><tspan x="0" y="0">ACCORDION</tspan></text>
      <path id="Trazado_101765" data-name="Trazado 101765" d="M752.722,9394.106a4.834,4.834,0,0,0,1.43,2.314,4.131,4.131,0,0,0,2.45.816,4.7,4.7,0,0,0,2.178-.408,5.279,5.279,0,0,0,1.7-1.361,5.947,5.947,0,0,0,1.361-1.905c.225-.565.27-1.046.137-3.336-.089-1.518-.132-2.276-.2-2.858a32.577,32.577,0,0,0-1.429-6.193c-3.49-10.146-4.953-20.881-7.487-31.309-1.769-7.276-1.387-6.262-9.189-43.149-8.571-40.531-7.475-34.4-8.031-37.435-1.779-9.729-4.416-19.281-6.6-28.926a59.367,59.367,0,0,0-2.791-9.053,65.173,65.173,0,0,0-3.471-7.282,91.445,91.445,0,0,0-5.718-8.984,31.18,31.18,0,0,0-4.9-5.649c-.641-.6-.906-.889-1.611-.953-.4-.035-.459.248-.454.5.028,1.327.859,2.19,1.929,3.7,1.265,1.779,2.831,4.125,3.7,5.1,0,0,1.7,2.49,5.014,8.122,2.728,4.635,3.565,8.463,4.9,14.089,3.734,15.735,2.985,10.233,5.921,23.414,2.055,9.222,1.971,9.894,4.7,22.255,1.7,7.718,1.658,7.12,2.926,13,2.589,12.019,2.427,12.959,4.492,22.189.706,3.155.328,1.269,4.22,17.354,3.547,14.661,1.078,4.723,3.811,16.132,0,0,1.893,7.9,3.063,14.95.253,1.526.3,2.27.453,3.039.127.641-.242.5-.317.455-1.626-1.047-2.408-5.807-3.13-7.913-.574-1.677-1.5-4.829-3.064-11.621-.32-1.388-.985-4.3-1.769-7.9-.174-.795-.3-1.385-.34-1.565-1.373-6.35-3.54-15.994-3.54-15.994-.679-3.023-2.063-9.39-4.832-22.12-4.379-20.134-4.1-19.04-5.173-23.753-2.1-9.219-2.638-11.079-4.084-18.036-.247-1.2-1.344-6.5-2.654-12.863,0,0-1.029-5-3.471-14.158-1.794-6.722-1.141-2.816-1.974-5.58a9.517,9.517,0,0,0-1.156-2.314c-.318-.471-.536-.79-.68-.749-.471.133.223,3.962.408,4.97,1.459,7.937,2.188,11.905,3.266,15.516.552,1.85.145.67,5.241,25.933,2.638,13.08,3.957,19.619,4.832,23.687,2.07,9.613,3.056,13.59,6.058,27.563.861,4.01,1.484,6.955,2.041,9.6,2.989,14.147,4.986,24.048,6.943,33.758.43,2.136,3.5,17.415,3.879,20.147.14,1.022.253,1.566.476,2.654A12.737,12.737,0,0,0,752.722,9394.106Z" transform="translate(4.405 0.766)" fill="#7fc7cd"/>
      <path id="Trazado_101766" data-name="Trazado 101766" d="M731.814,9368.771c1.853,12.95,3.727,17.184,3.993,22.869.109,2.32.92,4.574,1,6.9a3.6,3.6,0,0,0,.545,1.9,4.184,4.184,0,0,0,1.542,1.271,7.856,7.856,0,0,0,3.54,1.089,6.36,6.36,0,0,0,3.448-.636,6.285,6.285,0,0,0,2.269-2.087,7.653,7.653,0,0,0,1.088-2.359,10.227,10.227,0,0,0,0-5.082c-.816-3.459-1.029-7.073-2.177-10.436-.49-1.436-.189-.764-3.9-20.057-2.224-11.554-3.982-20.365-4.446-22.687-2-9.98-2-9.705-3.358-16.607-1.871-9.5-2.45-12.982-4.447-23.6-2.315-12.308-2.064-10.43-5.081-26.226-1.972-10.319-4.659-20.523-5.989-30.944a67.99,67.99,0,0,0-3.449-15.609,72.538,72.538,0,0,0-4.9-10.709c-2.7-4.752-2.648-4.016-3.9-6.262-.358-.64-.643-2.2-1.815-2.631a1.959,1.959,0,0,0-1.724.09c-1.369,1.1,1.2,5.78,3.222,12.024.545,1.681,1.18,4.568,2.45,10.345,1.878,8.543,2.846,15.088,3.539,19.6.619,4.029,2.047,12.306,4.9,28.858,3.289,19.071,3.3,17.4,5.854,32.669,1.957,11.7,3.5,21.021,4.492,30.22.526,4.9,1.1,9.8,1.633,14.7.14,1.28.456,4.174.953,8.032C731.087,9363.418,731.449,9366.229,731.814,9368.771Z" transform="translate(4.125 0.691)" fill="#7fc7cd"/>
      <path id="Trazado_101767" data-name="Trazado 101767" d="M712.2,9343.779c1.789,16.3,2.587,31.854,2.587,31.854.3,5.814,1.014,11.6,1.224,17.424.067,1.827.488,3.626.682,5.445a6.163,6.163,0,0,0,.816,2.993,7.731,7.731,0,0,0,2.45,2.042,12.266,12.266,0,0,0,3.676,1.906,5.784,5.784,0,0,0,3.131.271,7.6,7.6,0,0,0,2.858-1.769,20.51,20.51,0,0,0,2.041-1.906,7.816,7.816,0,0,0,1.5-1.771,4.4,4.4,0,0,0,0-3.131c-3.3-10.667-2-22.3-4.356-33.214-1.381-6.4-2.872-17.7-5.853-40.291-2-15.168-1.882-16.346-3.54-27.361-1.625-10.8-1.968-11.18-4.9-28.723-3.272-19.571-3.222-21.352-5.309-31.989-3.612-18.4-4.583-20.689-5.173-23.412a10.22,10.22,0,0,0-1.27-3.812c-.35-.577-.612-.705-1.5-.771-.991-.073-.966.448-1.021.522a4.688,4.688,0,0,0-.431,3.516c.11.794-.434-.571,2.586,30.084,2.52,25.58,3,26.188,4.764,45.465.722,7.894,2.675,30.044,3.4,39.34.114,1.453.509,6.567,1.225,13.476C711.992,9341.859,712.139,9343.19,712.2,9343.779Z" transform="translate(3.95 0.727)" fill="#7fc7cd"/>
      <path id="Trazado_101768" data-name="Trazado 101768" d="M699.418,9349.794c.527,11.111,1.49,32.268,1.906,40.7.377,7.66.415,7.11.408,7.215a11.456,11.456,0,0,0,.272,3.981,5.942,5.942,0,0,0,1.463,2.994,5.835,5.835,0,0,0,4.424,1.429,7.372,7.372,0,0,0,2.723-.748,6.524,6.524,0,0,0,3.164-2.383,5.764,5.764,0,0,0,.579-1.224,6.883,6.883,0,0,0,.374-2.484c-.11-5.27-.165-7.905-.34-8.883-1.427-7.951-1.074-16.122-1.871-24.161-1.095-11.038-.414-6.268-2.847-34.769-.327-3.824-.536-6.226-2.9-32.67-2.227-24.882-3.347-37.381-3.63-40.2-1.214-12.1-2.043-19.181-3.268-33.3-.894-10.33-1.314-15.5-1.27-15.7a2.078,2.078,0,0,0-.1-1.327,1.951,1.951,0,0,0-.613-.713,2.693,2.693,0,0,0-1.259-.478,2.917,2.917,0,0,0-1.43,0,2.635,2.635,0,0,0-1.123.68,2.605,2.605,0,0,0-.715,1.09c-.154.475-.028.725,0,1.53a11.133,11.133,0,0,1-.068,1.5,81.917,81.917,0,0,0,.17,8.883c.333,4.563.09,9.655.964,31.308.636,15.741,1.416,29.167,1.906,37.026.4,6.336.631,9.521,1,16.424.247,4.653.2,4.316,1,21.327.092,1.959.454,9.615.636,13.432Q699.189,9345.03,699.418,9349.794Z" transform="translate(3.669 0.702)" fill="#7fc7cd"/>
      <path id="Trazado_101769" data-name="Trazado 101769" d="M698.459,9366.29c.763,12.286.13,22.568,1,27.588a19.9,19.9,0,0,1,.272,4.265,7.391,7.391,0,0,1-.363,2.814,8.805,8.805,0,0,1-2.087,2.721,9.145,9.145,0,0,1-2.814,2.36,3.846,3.846,0,0,1-2.541.453,4.084,4.084,0,0,1-1.906-1.271,29.389,29.389,0,0,1-2.178-2.723c-.9-1.086-1.012-1.059-1.27-1.541a5.159,5.159,0,0,1-.454-3.087c.01-.091.189-8.471.545-25.228.036-1.7.039-3.219.045-6.262.011-5.606-.062-7.933-.091-11.889-.038-5.3.06-5.879.182-17.061.078-7.178.032-6.449.091-11.3.1-8.134.2-9.455.318-17.105.1-6.345.113-11,.136-17.923.039-11.58-.05-11.145,0-16.381.108-11.284.5-11.824.862-25.864.077-3.036.374-14.616.272-23.957-.014-1.27-.086-7.2-.091-15.245,0-.215-.433-1.149,0-1.725a1.6,1.6,0,0,1,1.542-.454,1.931,1.931,0,0,1,.885.5,3.927,3.927,0,0,1,1.111,1.793c.556,1.849.252,3.373.363,6.329.006.165.065.972.182,2.586.208,2.865.283,3.451.363,4.766.122,1.984.121,3.34.136,4.491.053,4.209.312,6.231.5,10.346.257,5.641-.066,5.415.091,12.523.075,3.428.158,3.827.59,12.841.169,3.544.083,1.942.59,13.249.536,11.968.635,13.791.726,17.877.09,4.012.03,3.815.136,8.168.027,1.122.112,4.415.5,13.612.2,4.84.263,5.748.591,13.432.23,5.4.181,4.521.317,7.622.358,8.13.448,8.612.816,16.788.066,1.449.175,3.917.363,7.306C698.317,9364.049,698.424,9365.713,698.459,9366.29Z" transform="translate(3.357 0.722)" fill="#7fc7cd"/>
      <path id="Trazado_101770" data-name="Trazado 101770" d="M686.528,9234.577c.068-2.78.153-4.657.2-5.718.085-2.143.154-5.234.077-9.256,0,0-.069-4.967-.408-8.031-.014-.117-.272-2.45-.272-2.45a2.675,2.675,0,0,0-2.723-.681,1.711,1.711,0,0,0-.59.545,2.324,2.324,0,0,0-.226,1.134c-.031.426-.112.845-.137,1.271-.063,1.056-.237,1.906-.68,7.352-.456,5.6-.817,11.343-.817,11.343-.488,7.773-.468,8.609-.816,14.248-.188,3.039-.565,7.97-1.316,17.832-.715,9.371-.87,11.134-1.067,15.088-.247,4.99-.142,5.069-.408,10.548-.223,4.6-.331,5.209-.953,14.77-.568,8.719-.523,8.9-.885,13.817-.458,6.233-.6,6.889-1.021,12.387-.381,4.949-.351,5.511-1.089,18.173-.534,9.165-.8,13.749-1.156,18.922-.45,6.542-.616,8.147-.953,13.884-.642,10.881-.311,9.585-.613,12.658-.22,2.237.126,4.517-.2,6.739a4.081,4.081,0,0,0,.136,2.041,5.275,5.275,0,0,0,1.906,2.247,19.745,19.745,0,0,0,3.472,2.178c1.323.729,1.7.855,2.177.816.562-.045.747-.278,2.042-1.157,1.919-1.3,2.325-1.34,3.2-2.246a7.639,7.639,0,0,0,1.021-1.293,7.135,7.135,0,0,0,.817-1.838,8.012,8.012,0,0,0-.068-3.607c-.227-1.526-.119-3.087-.2-4.628-.211-3.81.042-6.764.137-11.3.088-4.2-.095-3.318-.137-11.025-.035-6.617.074-11.757.137-14.565.124-5.66.191-4.812.34-10.891.165-6.733.1-8.267.272-17.22.105-5.367.124-4.517.2-8.848.044-2.395.154-8.962.137-18.036-.02-9.693-.159-8.566-.137-15.042.032-9.1.3-8.711.409-19.6.045-4.471.054-9.793.068-18.172,0,0,.005-3.576.068-8.507C686.478,9237.038,686.5,9235.922,686.528,9234.577Z" transform="translate(2.674 0.759)" fill="#7fc7cd"/>
      <path id="Trazado_101771" data-name="Trazado 101771" d="M657.354,9397.02a11.3,11.3,0,0,0,.477,3.231,6.345,6.345,0,0,0,.953,1.976,8.741,8.741,0,0,0,2.041,2.178,3.626,3.626,0,0,0,1.225.748,3.248,3.248,0,0,0,2.178-.205c.807-.341.7-.617,2.383-2.041a9.217,9.217,0,0,0,1.5-1.361,5.48,5.48,0,0,0,.884-1.5,5.865,5.865,0,0,0,.272-2.383c.072-1.655.176-3.312.137-4.97-.021-.828.008-3.388.068-8.507.04-3.46.165-5.933.34-9.393.248-4.9.545-8.566.885-12.729.35-4.273.413-4.3.816-9.12.384-4.581.423-5.676.817-10.89.475-6.268.527-6.128,1.225-14.837.491-6.118.735-9.177.953-12.728.354-5.761.291-6.661.613-13,.389-7.674.571-8.152,1.157-17.833.457-7.561.333-7.062.884-16.812.5-8.878.753-13.317,1.157-18.375,1.109-13.88,1.109-13.88,1.5-18.718.288-3.589.431-5.354.657-9.415a43.439,43.439,0,0,1,.976-7.056,21.949,21.949,0,0,0,.272-2.791,3.289,3.289,0,0,0-.136-1.293c-.058-.176-.383-1.17-.953-1.226-.323-.029-.617.249-.953.681a7.692,7.692,0,0,0-1.43,2.859c-.476,2.319-1.037,4.62-1.5,6.942-.485,2.446-.593,2.463-1.021,4.764-.44,2.364-.748,4.832-.748,4.832-.362,2.906-.468,2.881-1.157,7.9-.138,1-.723,5.284-1.362,11.16-.4,3.656-.35,3.646-.884,8.985-.8,8.007-.937,8.3-1.5,14.157-.546,5.7-.4,5.2-1.021,11.774-.278,2.929-.6,5.985-1.225,11.979-.449,4.281-.546,5.089-1.09,10.277-.578,5.515-1.083,10.338-1.633,16.13-.547,5.759-.521,5.981-1.157,12.934-.564,6.16-1.006,10.6-1.565,16.2-1.84,18.448-2,17.921-2.54,22.847-.614,5.581-.632,6.234-1.2,9.619-.595,3.529-.583,7.368-.918,10.89C657.552,9394.752,657.408,9395.257,657.354,9397.02Z" transform="translate(2.105 0.746)" fill="#7fc7cd"/>
      <path id="Trazado_101772" data-name="Trazado 101772" d="M647.582,9375.339c-.168,1.742-.335,2.75-1.361,8.78-.666,3.913-.708,4.15-.817,4.9-.652,4.467-.334,4.03-.748,5.582a6.884,6.884,0,0,0-.408,2.994,6.168,6.168,0,0,0,.884,2.382,10.736,10.736,0,0,0,1.94,2.586,2.929,2.929,0,0,0,1.6.953,2.791,2.791,0,0,0,1.429.136c.508-.077.924-.28,2.246-1.36a14.468,14.468,0,0,0,2.247-2.043,9.454,9.454,0,0,0,1.224-2.108,12.883,12.883,0,0,0,.885-2.859c.469-2.363.28-3.538.477-7.215.024-.442.083-1.247.2-2.857.327-4.365.734-7.934.954-9.87.8-7.072,1.2-10.61,1.429-12.795.692-6.737.552-7.068,1.293-14.7.3-3.095.3-2.813,1.362-12.523,1.182-10.83,1.151-10.9,1.906-17.627.859-7.662.914-7.7,1.565-13.682.682-6.273.644-6.441,1.5-14.634,1.08-10.368,1.272-11.351,2.042-19.192.288-2.937.555-5.86,1.089-11.706.995-10.9,1.126-12.894,1.7-17.9.53-4.607.428-3,1.361-10.617a92.665,92.665,0,0,1,1.884-10.844,47.051,47.051,0,0,0,1.452-5.9,20.765,20.765,0,0,0,.51-3.165,3.6,3.6,0,0,0,0-1.565c-.062-.2-.649-.369-1.059-.442s-.7.276-1.089.885c-1.242,1.96-1.559,3.851-2.247,6.33-.248.9-.442,1.5-.816,2.654-.887,2.749-1.329,3.692-1.906,5.444a48.539,48.539,0,0,0-1.362,5.241c-1.038,4.7-1.5,8.389-1.973,11.706-.762,5.386-.734,4.128-1.973,12.184-1.067,6.924-1.012,7.363-2.246,15.858-1.159,7.973-1.144,7.149-2.518,16.539-.961,6.56-1.773,12.456-2.11,14.905-.774,5.631-.668,5.038-1.09,8.031-1.324,9.417-1.825,11.356-2.994,19.466-.58,4.026-1,7.4-1.838,14.157-.823,6.633-1.193,10.036-2.042,15.858-.614,4.208-.92,6.313-1.156,7.555-.429,2.253-.846,4.036-1.157,6.941C647.664,9373.586,647.768,9373.405,647.582,9375.339Z" transform="translate(1.532 0.747)" fill="#7fc7cd"/>
      <path id="Trazado_101773" data-name="Trazado 101773" d="M635.8,9364.987c-.949,5.036-1.1,6.268-1.633,8.983-.893,4.562-2,8.894-2,8.894a41.673,41.673,0,0,0-1.179,6.354,16.616,16.616,0,0,0,0,3.9,7.784,7.784,0,0,0,.907,3.448,27.622,27.622,0,0,0,1.906,2.948,8.113,8.113,0,0,0,2.723,1.86,2.923,2.923,0,0,0,2.087.272c.663-.2,1.091-.67,2.36-2.993a28.962,28.962,0,0,0,1.906-3.813,16.829,16.829,0,0,0,.908-4.445c.307-3.834,1.19-7.6,1.542-11.435.809-8.8,1.91-16.912,2.632-22.234.213-1.572.868-5.767,2.177-14.155,1.688-10.809,2.531-16.212,3.449-21.689,1.944-11.608,1.917-10.316,2.813-16.335,1.368-9.187,1.164-10.391,2.632-19.875,1.105-7.138,1.307-7.006,2.269-13.7.668-4.641.663-5.344,1.906-14.883.843-6.468,1.273-9.753,1.724-12.342.994-5.7,1.243-5.479,2.36-11.979a84.65,84.65,0,0,1,1.724-8.894c.02-.073.71-2.259,2.087-6.625a22.951,22.951,0,0,1,1.907-5.06,12.416,12.416,0,0,0,1.089-2.109c.462-1.036.585-1.539.408-2.042a1.486,1.486,0,0,0-.816-.885,1.848,1.848,0,0,0-1.565.408,8.753,8.753,0,0,0-2.791,3c-2.375,4.639-3.563,6.959-3.948,7.963-1.324,3.458-1.987,5.187-2.723,7.556a131.771,131.771,0,0,0-4.084,17.49c-.664,3.625-1.689,9.251-2.926,16.2-1.359,7.627-1.323,7.577-2.11,11.909-1.853,10.214-2.347,12.116-3.879,20.692-1.108,6.2-.764,4.72-2.178,12.795-.894,5.107-2.181,12.427-4.016,21.644-1.778,8.936-1.6,7.256-2.45,11.91-1.369,7.536-2.52,15.76-3.607,20.01-.113.438-.606,2.335-1.157,4.97C636.037,9363.729,635.89,9364.509,635.8,9364.987Z" transform="translate(0.95 0.664)" fill="#7fc7cd"/>
      <path id="Trazado_101774" data-name="Trazado 101774" d="M659.538,9231.225c.623-2.647.6-2.572,2.631-8.122,1.62-4.417,1.927-5.493,3-7.963,1.274-2.949,1.912-4.423,2.586-5.1a5.861,5.861,0,0,0,1.157-1.837c.2-.511.451-1.167.136-1.635a1.36,1.36,0,0,0-1.021-.477c-1.233-.065-2.254,1.269-2.586,1.7a44.2,44.2,0,0,0-7.487,16.086c-2.087,6.624-3.79,13.268-5.445,19.965-5.229,21.159-5.045,20.105-6.534,26.5-1.91,8.193-3.208,14.2-4.628,20.781-2.671,12.373-4.567,21.791-8.258,40.11-2.5,12.392-3.1,15.555-4.719,23.142-2.391,11.19-3.587,16.785-3.9,17.967-1.491,5.591-1.64,11.54-3.63,16.972a7.853,7.853,0,0,0-.454,3.9,6.606,6.606,0,0,0,1,2.633,5.581,5.581,0,0,0,2.36,2.087,2.784,2.784,0,0,0,1.906.363c.926-.262,1.385-1.275,1.816-2.359a26.755,26.755,0,0,0,1.724-5.354c.6-3.381,1.568-8.742,2.813-15.337,1.194-6.318,2.06-10.682,4.9-24.956,4.086-20.528,4.113-20.649,4.447-22.414,2.2-11.629,2.079-12.038,4.447-24.775.3-1.6,1.832-9.509,4.9-25.318,3.081-15.872,3.644-18.738,4.265-23.141.332-2.353,1.026-4.845,1.861-9.12.479-2.455.769-4.186,1.633-8.667C659.148,9233.228,659.311,9232.185,659.538,9231.225Z" transform="translate(0.489 0.663)" fill="#7fc7cd"/>
      <path id="Trazado_101775" data-name="Trazado 101775" d="M623.345,9366.559c-1.085,3.964-.862,3.935-2.041,10.028-1.159,5.982-1.086,6.337-1.486,8.384a20.786,20.786,0,0,1-.964,3.5,2.947,2.947,0,0,1-1,1.634,2.459,2.459,0,0,1-2.722,0,3.081,3.081,0,0,1-1.271-1.667,7,7,0,0,1-.182-2.326,15.461,15.461,0,0,1,.42-2.369,29.361,29.361,0,0,1,.987-4.119c.749-2.858.917-3.308,2.5-10.617.67-3.1.9-2.936,1.679-6.443,1-4.5,1.959-7.408,2.315-9.393,1.262-7.043,1.8-8.127,3.721-17.423,1.534-7.419,1.26-7.054,3.085-16.427,1.758-9.029,1.934-8.964,4.447-21.234,2.529-12.348,2.53-13.286,4.265-20.963,1.388-6.139,1.293-5.121,3.357-14.067,2.624-11.362,3.934-17.044,4.174-18.513.483-2.944,3.925-14.3,5.809-17.061.954-1.4,3.277-5.584,4.4-7.259a2.63,2.63,0,0,1,1.542-1.226,1.265,1.265,0,0,1,.953.091c.671.515-.191,2.574-.544,3.448,0,0-.429,1.06-3.086,9.211-.978,3-3.328,11.882-4.129,15.2-.35,1.446-.571,2.571-1,4.764-.976,5-1.234,7.086-1.861,10.48-.537,2.916-.874,4.238-2,9.167-1.571,6.9-3.023,13.823-4.536,20.735-1.692,7.721-3.121,14.25-3.131,14.294-2.9,13.289-2.791,12.872-3.631,16.606-2.483,11.042-2.485,10.28-3.811,16.653-.879,4.222-1.338,8.028-2.223,12.25-.542,2.584-1.1,5.36-2.087,8.667C624.3,9363.909,624.011,9364.128,623.345,9366.559Z" transform="translate(0.2 1.224)" fill="#7fc7cd"/>
      <path id="Trazado_101776" data-name="Trazado 101776" d="M710,9217.043s30.476,135.442,31.293,156.813C741.293,9373.856,715.316,9250.8,710,9217.043Z" transform="translate(4.401 1.141)" fill="#333"/>
      <path id="Trazado_101777" data-name="Trazado 101777" d="M704.724,9231.3s19.783,117.7,21.152,162.351C725.876,9393.654,716.1,9326.572,704.724,9231.3Z" transform="translate(4.171 1.763)" fill="#333"/>
      <path id="Trazado_101778" data-name="Trazado 101778" d="M697.6,9229.826s12.667,139.121,11.234,160.218C708.832,9390.044,696.236,9274.475,697.6,9229.826Z" transform="translate(3.856 1.699)" fill="#333"/>
      <path id="Trazado_101779" data-name="Trazado 101779" d="M690.58,9232.435s4.487,143.213,2.788,163.761S688.4,9262.11,690.58,9232.435Z" transform="translate(3.522 1.812)" fill="#333"/>
      <path id="Trazado_101780" data-name="Trazado 101780" d="M682.918,9227.826s-.923,139.639-4.647,159.719C678.271,9387.545,680.06,9247.383,682.918,9227.826Z" transform="translate(3.017 1.611)" fill="#333"/>
      <path id="Trazado_101781" data-name="Trazado 101781" d="M676.608,9238.435s-8.615,137.212-11.35,148.647C665.258,9387.082,671.563,9255.116,676.608,9238.435Z" transform="translate(2.45 2.074)" fill="#333"/>
      <path id="Trazado_101782" data-name="Trazado 101782" d="M670.235,9238.435s-13.653,133.129-18.421,146.74C651.814,9385.175,665.246,9250.142,670.235,9238.435Z" transform="translate(1.864 2.074)" fill="#333"/>
      <path id="Trazado_101783" data-name="Trazado 101783" d="M664.462,9223.565s-22.037,152.458-25.3,165.525C639.159,9389.091,654.495,9264.765,664.462,9223.565Z" transform="translate(1.312 1.426)" fill="#333"/>
      <path id="Trazado_101784" data-name="Trazado 101784" d="M652.784,9252s-20.558,105.359-23.008,112.981S647.926,9261.982,652.784,9252Z" transform="translate(0.894 2.666)" fill="#333"/>
      <path id="Trazado_101785" data-name="Trazado 101785" d="M650.175,9232.174s-21.6,95.232-24.321,108.6C625.854,9340.773,642.552,9252.319,650.175,9232.174Z" transform="translate(0.731 1.801)" fill="#333"/>
      <path id="Trazado_101786" data-name="Trazado 101786" d="M673.132,9193.571c-4.075.692.318,5.491,15.382,6.058,3.757.142,11.543.743,15.832.4s0-2.718,0-2.718-12.207-.389-17.04-.761S678.339,9192.686,673.132,9193.571Z" transform="translate(2.73 0.111)" fill="#5d9293"/>
      <path id="Trazado_101787" data-name="Trazado 101787" d="M668.419,9203.281s13.34,6.533,32.76,2.269l6.806-1.633s2.723-.545,2.178-1.725a34.274,34.274,0,0,1-1.27-3.993s-.137-.953-1.407-.453a44.7,44.7,0,0,1-8.349,1.633,69.309,69.309,0,0,1-11.934.817c-2.36-.227-8.531-.5-10.981-1.451s-6.761-2.5-6.761-2.5-2.36-1.5-2.949-.272a20.212,20.212,0,0,0-1.044,3.9s-.636,1.724.636,2.132Z" transform="translate(2.452 0.202)" fill="#7ec5cc"/>
    </g>
  </g>
</svg>
