<svg xmlns="http://www.w3.org/2000/svg" width="396" height="323" viewBox="0 0 396 323">
  <g id="Grupo_54823" data-name="Grupo 54823" transform="translate(-596 -6539)">
    <rect id="Rectángulo_5279" data-name="Rectángulo 5279" width="396" height="323" transform="translate(596 6539)" fill="#d8ecff"/>
    <g id="Grupo_54000" data-name="Grupo 54000" transform="translate(-54.237 -2615.631)">
      <path id="Trazado_101788" data-name="Trazado 101788" d="M799.627,9390.548s51.025,12.543,104.1,1.272c0,0,3.483-.309,4.1-1.845s1.741-13.729,1.741-13.729,5.294-47.83,5.431-71.595.41-36.331-8.061-56.413-15.437-25.821-16.393-35.385l-.24-4.95a1.929,1.929,0,0,0-2.509-1.743c-2.357.46-8.352,2.665-18.188,2.152a97.48,97.48,0,0,1-20.594-3.9s-13.73-5.941-19.469-3.688c0,0-8.361,2.356-8.792,7.891a14.245,14.245,0,0,1-1.659,7.731c-2.151,4.257-9.7,14.912-9.7,14.912s-11.811,20.391-14.68,37.194,0,85.043,0,85.043l2.459,31.217S797.305,9389.361,799.627,9390.548Z" transform="translate(0)" fill="#333"/>
      <text id="TULIP" transform="translate(818.548 9429.32)" font-size="24" font-family="Roboto-Bold, Roboto" font-weight="700"><tspan x="0" y="0">TULIP</tspan></text>
      <path id="Trazado_101789" data-name="Trazado 101789" d="M821.464,9203.724c-6.135,1.041.479,8.268,23.156,9.119,5.656.212,17.378,1.118,23.833.606s0-4.089,0-4.089-18.377-.588-25.651-1.148S829.3,9202.392,821.464,9203.724Z" transform="translate(14.768 1.877)" fill="#5d9293"/>
      <path id="Trazado_101790" data-name="Trazado 101790" d="M816.22,9216.7s20.083,9.835,49.318,3.414l10.247-2.459s4.1-.819,3.279-2.6a51.6,51.6,0,0,1-1.912-6.01s-.206-1.435-2.118-.684-6.011,1.57-12.569,2.459-14.413,1.571-17.965,1.23-12.842-.752-16.531-2.187-10.177-3.757-10.177-3.757-3.552-2.254-4.44-.408a30.4,30.4,0,0,0-1.571,5.872s-.957,2.6.957,3.211Z" transform="translate(10.34 2.717)" fill="#7ec5cc"/>
      <path id="Trazado_101791" data-name="Trazado 101791" d="M811.7,9224.574a108.278,108.278,0,0,0-9.29,17.762,97.858,97.858,0,0,0-5.738,20.081c-1.229,7.438-1.123,12.747-.957,21.179.754,38.121.724,37.7.82,39.48,1.268,23.377,2.9,28.224,3.005,36.067.061,4.309,1.313,8.535,1.5,12.842a5.083,5.083,0,0,0,.545,2.184,6.036,6.036,0,0,0,3.005,2.6,13.67,13.67,0,0,0,7.788.683c6.831-1.142,10.247-1.713,13.662-3.007a85.482,85.482,0,0,0,17.9-9.562,96.315,96.315,0,0,0,33.2-36.339,97.947,97.947,0,0,0,10.52-25.957c1.893-8.009,2.036-13.945,2.322-25.821.181-7.456-.471-15.626-1.775-31.967a65.153,65.153,0,0,0-2.6-13.8,67.2,67.2,0,0,0-3.279-7.786c-1.689-3.679-2.754-5.553-4.782-6.284a4.258,4.258,0,0,0-2.459-.272c-1.635.474-2.556,2.352-2.732,3.824-.159,1.317,2.292,5.322,2.641,10.214.4,5.667.537,15.2.228,25.035a197.454,197.454,0,0,1-2.049,21.994,134.4,134.4,0,0,1-3.962,19.809,130.971,130.971,0,0,1-7.515,19.263c-5.1,11.156-11.686,22.854-17.076,27.6-.66.577-2.251,1.958-3.005,1.5-.41-.245-.5-.989-.41-1.5a2.1,2.1,0,0,1,.87-1.247c1.516-1.158,20.809-26.295,26.726-58.592.459-2.5.9-6.86,1.775-15.573,2.333-23.141,1.761-30.98.684-37.295-.822-4.82-2.6-9.513-2.732-11.2a2.2,2.2,0,0,0-1.683-2.109c-2.786-.869-13.04.229-15.393-.076a7.463,7.463,0,0,0-2.118.067,2.227,2.227,0,0,0-1.161.377c-.874.854.847,3.877,1.024,4.2,2.751,4.994,3.607,27.16-1.571,57.653-1.031,6.063-1.546,9.1-2.459,12.569-2.875,10.918-6.784,18.036-14.482,31.829-8.454,15.146-22.627,31.663-23.634,31.287-.465-.176-.682-.949-.683-1.5a3.255,3.255,0,0,1,1.093-2.186c3.262-3.254,16.672-23.549,21.175-30.874.049-.083,1.117-1.822,2.185-3.689,2.174-3.8,12.105-21.665,16.121-48.911,3.2-21.742.82-29.4.273-39.754-.069-1.311.4-4.51-1.5-7.1-.4-.539-.994-1.2-8.06-4.508-3.745-1.757-4.93-2.205-6.148-1.641a4.424,4.424,0,0,0-2.322,3.145,3.892,3.892,0,0,0,.137,1.775c.809,2.706,1.4,22.694-4.919,45.765a158.329,158.329,0,0,1-5.191,15.576c-4.766,12.465-5.4,12.26-7.241,15.983a17.547,17.547,0,0,1-2.7,3.245c-.077.076-1.4,1.372-2.05.956-.408-.263.1-1.326.171-1.709.316-1.592,3.065-4.808,3.145-4.9,1.964-2.158,11.829-20.823,13.386-44.593.347-5.3.445-6.14.957-13.8.391-5.867.751-14.618.068-18.17a6.818,6.818,0,0,0-.82-2.459,4,4,0,0,0-2.185-1.641,4.522,4.522,0,0,0-3.416-.135c-.5.229-.8.526-2.049,2.323-1.224,1.755-2.17,3.234-2.732,4.1C812.733,9223.126,812.063,9224.048,811.7,9224.574Z" transform="translate(1.246 8.36)" fill="#7fc7cd"/>
      <path id="Trazado_101792" data-name="Trazado 101792" d="M841.734,9357.923s10.247,11.681,25.923,15.677c0,0,9.631,3.793,10.861-3.277s6.352-61.888,6.148-89.757-18.033-60.452-18.033-60.452-2.528-4.988-5.329-4.851-.408,7.106-.408,7.106a145.965,145.965,0,0,1,7.557,49.179,94.619,94.619,0,0,0,5.148,32.38s3.791,10.45,1.435,8.4-4.919-14.034-4.919-14.034-2.049-4.818-3.585,0-4.953,16.869-6.729,22.711c-1.789,5.884,1.4,13.354,1.4,13.354s4.056,7.895,5.6,10.417,7.343,10.588,5.09,10.689-4.646-3.074-8.745-9.63a68.792,68.792,0,0,1-6.044-13.525s-.842-4-3.034,1.229-8.033,13.626-10.492,15.68-4.3,3.378-4.2,4.712S841.734,9357.923,841.734,9357.923Z" transform="translate(26.235 8.588)" fill="#7fc7cd"/>
      <path id="Trazado_101793" data-name="Trazado 101793" d="M851.958,9308.934s17.213,14.073,30.328,14.891c0,0,5.447.787,5.755,2.324s-7.428,3.021-13.73,2.563c0,0-16.548.067-23.412.084s-33.3.392-35.759,0c0,0-3.075.428-3.587-1.008s2.049-1.639,2.049-1.639,22.473-9.066,29.612-14.756C850.283,9305.757,851.958,9308.934,851.958,9308.934Z" transform="translate(10.308 61.575)" fill="#62a2a3"/>
    </g>
  </g>
</svg>
