<svg xmlns="http://www.w3.org/2000/svg" width="396" height="323" viewBox="0 0 396 323">
  <g id="Grupo_54825" data-name="Grupo 54825" transform="translate(-596 -6884)">
    <rect id="Rectángulo_5282" data-name="Rectángulo 5282" width="396" height="323" transform="translate(596 6884)" fill="#f3f9ff"/>
    <g id="Grupo_54009" data-name="Grupo 54009" transform="translate(142.255 -2517.163)">
      <path id="Trazado_101819" data-name="Trazado 101819" d="M652.658,9658.762a72,72,0,0,1-29.563-6.238l-1.166-.578-5.858-55.254c-.051-.59-4.66-54.514-6.035-71.332a358.47,358.47,0,0,1-.625-36.775l0-.16.028-.156c2.106-11.988,15.163-26.262,15.718-26.863l.545-.592,1.2-2.594c.3-.291,8.589,4.729,8.589,4.729l1.422.717c1.318.668,4.977,1.785,14.676,1.785a111,111,0,0,0,16.35-1.588l2.822-1.312a7.791,7.791,0,0,1,4.507-.332l1.265-.2.863.945c.224.244,5.494,6.01,7.084,8.277a106.883,106.883,0,0,1,7.759,14.645c1.807,4.18,2.039,10.689,2.048,10.965v5.637l-1.452,17.621-12.971,132.85-1.287.555a65.189,65.189,0,0,1-25.92,5.254Z" transform="translate(0 1.334)" fill="#333"/>
      <text id="PENCIL" transform="translate(621.095 9680.927)" font-size="18" font-family="Roboto-Bold, Roboto" font-weight="700"><tspan x="0" y="0">PENCIL</tspan></text>
      <path id="Trazado_101820" data-name="Trazado 101820" d="M663.229,9456.812s-2.956.849-15.074-1.876c-13.628-3.065-18.308-5.645-22.683-2.475s1.192,8.658,1.192,8.658,4.715,5.18,24.814,3.169c0,0,15.771-1,21.182-2.937l2.345-3.2-1.418-3.627Z" transform="translate(2.706)" fill="#333"/>
      <path id="Trazado_101821" data-name="Trazado 101821" d="M663.57,9458.376s-2.957.849-15.075-1.876c-13.628-3.065-18.308-5.644-22.682-2.475s1.191,8.658,1.191,8.658,4.715,5.18,24.815,3.17c0,0,15.77-1.006,21.181-2.937l2.345-3.2-1.417-3.624Z" transform="translate(2.769 0.291)" fill="#9d74a3"/>
      <g id="Grupo_54008" data-name="Grupo 54008" transform="translate(625.277 9452.867)">
        <path id="Trazado_101822" data-name="Trazado 101822" d="M650.12,9468.011c-13.98,0-22.743-4.162-23.109-4.34l-2.623-1.421a2.377,2.377,0,0,1-1.345-1.19,3.637,3.637,0,0,1-.062-2.613,22.292,22.292,0,0,1,1.284-4.65,2.2,2.2,0,0,1,2.071-1.22,6.483,6.483,0,0,1,2.925.967c.773.275,5.129,1.823,7.687,2.806,2.083.8,7.149,1.178,10.176,1.4.843.063,1.578.118,2.13.172.434.04.985.061,1.637.061A100.976,100.976,0,0,0,662.7,9457c5.954-.794,8.357-1.407,9.323-1.781a3.32,3.32,0,0,1,1.19-.246,2.022,2.022,0,0,1,2.04,1.614,35.782,35.782,0,0,0,1.376,4.289,1.917,1.917,0,0,1-.021,1.718c-.659,1.28-2.722,1.778-3.338,1.9l-7.782,1.845A72.548,72.548,0,0,1,650.12,9468.011Z" transform="translate(-622.763 -9452.576)" fill="#333"/>
        <path id="Trazado_101823" data-name="Trazado 101823" d="M627.351,9462.422l-2.661-1.442c-1.46-.465-.73-2.423-.73-2.423a22.731,22.731,0,0,1,1.2-4.433c.679-1.392,3.393.309,3.393.309s4.956,1.753,7.774,2.835,9.914,1.392,12.628,1.648,8.714-.257,13.722-.927a51.9,51.9,0,0,0,9.6-1.854c1.46-.568,1.617.514,1.617.514a38.652,38.652,0,0,0,1.461,4.537c.626,1.339-2.5,1.958-2.5,1.958L665.023,9465C642.692,9469.843,627.351,9462.422,627.351,9462.422Z" transform="translate(-622.575 -9452.391)" fill="#bf8cc4"/>
      </g>
      <path id="Trazado_101824" data-name="Trazado 101824" d="M623.779,9649.653s25.82,12.833,53.5.928l12.833-131.42,1.444-17.523v-5.461s-.206-6.288-1.856-10.1a104.717,104.717,0,0,0-7.523-14.225c-1.52-2.168-6.892-8.039-6.892-8.039a19.8,19.8,0,0,0-4.241,1.224s6.391,9.394,4.845,17.845c0,0-5.668-16.931-7.628-16.659,0,0-25.37,2.556-32.777-1.186a40.558,40.558,0,0,0-10.57,17.226s2.221-15.266,5.932-17.733c0,0-2.527-2.571-4.3-2.263,0,0-13.115,14.225-15.125,25.666a353.453,353.453,0,0,0,.619,36.489c1.392,17.006,6.03,71.275,6.03,71.275Z" transform="translate(0.37 2.082)" fill="#bf8cc4"/>
    </g>
  </g>
</svg>
