<svg xmlns="http://www.w3.org/2000/svg" width="396" height="323" viewBox="0 0 396 323">
  <g id="Grupo_54826" data-name="Grupo 54826" transform="translate(-1012 -6884)">
    <rect id="Rectángulo_5283" data-name="Rectángulo 5283" width="396" height="323" transform="translate(1012 6884)" fill="#d8ecff"/>
    <g id="Grupo_54016" data-name="Grupo 54016" transform="translate(406.488 -2498.921)">
      <path id="Trazado_101825" data-name="Trazado 101825" d="M882.122,9614.312l-4.474-11.966-17.62-65.935-14.987-65.945c-.937-4.119-5.374-16.813-8.585-20.635-.906-1.077-7.144-10.7-8.95-10.7-.964,0-9.886-.262-10.956,1.3-1.705-1.423-4.388,1.447-5.008,1.447a6.632,6.632,0,0,0-1.018.078c-.2,0-.514,0-.917,0-1.912,0-5.62-.044-8.965-.344-.294-.026-.575-.038-.845-.038a7.011,7.011,0,0,0-4.6,1.554,5.818,5.818,0,0,0-.634-.883,6.775,6.775,0,0,0-5.011-2.166,6.162,6.162,0,0,0-.792-.047c-1.712,0-1.686-5.452-5.391-2.646-1.147.868-5.5,5.72-9.308,11.477a83.433,83.433,0,0,0-6.189,11.337c-3.915,7.636-13.186,48.707-14.32,53.767l-11.877,43.612-11.983,40.639-5.357,16.926c-1.309,2.19-.695,6.415.619,7.623,2.345,2.155,11.447,6.655,12.812,7.141.4.142,9.513,2.734,10.718,2.76,2.562.528,30.994,5.016,31.653,5.059l.116.006c.242.007,24.385.669,36.862.669,3.535,0,19.719-.581,19.72-.581a199.042,199.042,0,0,0,22.174-2.936,76.485,76.485,0,0,0,14.02-4.722l1.565-.956.124-.08a64.917,64.917,0,0,0,6.331-5C884.637,9620.869,883.418,9616.475,882.122,9614.312Z" fill="#333"/>
      <text id="PANELED" transform="translate(777.321 9663.685)" font-size="16.408" font-family="Roboto-Bold, Roboto" font-weight="700"><tspan x="0" y="0">PANELED</tspan></text>
      <path id="Trazado_101826" data-name="Trazado 101826" d="M816.634,9434.4s-2.495.715-12.718-1.584c-11.5-2.586-15.445-4.762-19.135-2.088s1.005,7.306,1.005,7.306,3.978,4.369,20.935,2.674c0,0,13.3-.848,17.869-2.479l1.978-2.7-1.2-3.06Z" fill="#333"/>
      <path id="Trazado_101827" data-name="Trazado 101827" d="M816.974,9435.963s-2.494.715-12.717-1.584c-11.5-2.585-15.445-4.76-19.136-2.087s1.005,7.3,1.005,7.3,3.979,4.369,20.935,2.675c0,0,13.3-.849,17.87-2.479l1.978-2.7-1.2-3.059Z" fill="#d39c4c"/>
      <g id="Grupo_54014" data-name="Grupo 54014">
        <path id="Trazado_101828" data-name="Trazado 101828" d="M805.412,9444.09c-11.794,0-19.186-3.511-19.495-3.66l-2.212-1.2a2,2,0,0,1-1.135-1.006,3.066,3.066,0,0,1-.053-2.2,18.777,18.777,0,0,1,1.084-3.925,1.857,1.857,0,0,1,1.747-1.027,5.468,5.468,0,0,1,2.468.815c.651.231,4.326,1.537,6.484,2.366,1.757.675,6.031.993,8.585,1.184.711.055,1.331.1,1.8.145.366.035.831.052,1.382.052a85.275,85.275,0,0,0,9.964-.831c5.022-.671,7.049-1.187,7.865-1.5a2.794,2.794,0,0,1,1-.208,1.708,1.708,0,0,1,1.721,1.362,30.443,30.443,0,0,0,1.161,3.619,1.609,1.609,0,0,1-.018,1.448c-.555,1.08-2.295,1.5-2.815,1.6l-6.565,1.557A61.265,61.265,0,0,1,805.412,9444.09Z" fill="#333"/>
        <path id="Trazado_101829" data-name="Trazado 101829" d="M786.362,9439.532l-2.244-1.218c-1.233-.392-.617-2.043-.617-2.043a19.107,19.107,0,0,1,1.013-3.739c.572-1.174,2.861.26,2.861.26s4.181,1.479,6.559,2.392,8.363,1.175,10.652,1.392a67.965,67.965,0,0,0,11.577-.783,43.725,43.725,0,0,0,8.1-1.565c1.232-.478,1.364.436,1.364.436a32.723,32.723,0,0,0,1.233,3.826c.528,1.131-2.113,1.652-2.113,1.652l-6.6,1.564C799.3,9445.792,786.362,9439.532,786.362,9439.532Z" fill="#f3b755"/>
      </g>
      <g id="Grupo_54015" data-name="Grupo 54015">
        <path id="Trazado_101830" data-name="Trazado 101830" d="M750.289,9575.3l-8.174,42.957-1.391,5.392s-.609,3.913-1.957,3.435a107.655,107.655,0,0,1-11.7-6.435c-1.3-.956,0-4.218,0-4.218l5.478-17.3,12-40.7,11.913-43.738s10.435-46.609,14.174-53.306c0,0,1.565-4.781,2.956-6.348s-.782,7.74-.782,7.74l-3.218,16.869-8.911,45.651Z" fill="#f4b856"/>
        <path id="Trazado_101831" data-name="Trazado 101831" d="M791.246,9463.957l-6.914,62.347-10.274,89.479-1.073,11.674s-.261,5.478-4.7,5.413-19.5-3.2-19.5-3.2-6.239-.717-5.022-5.348c1.457-5.542,8.87-43.239,8.87-43.239l9.261-51.521,12.913-63.522s3.045-16.826,7.523-20.217,7-2.736,7-2.736,4.362-.307,3.7,4.563S791.246,9463.957,791.246,9463.957Z" fill="#f4b856"/>
        <path id="Trazado_101832" data-name="Trazado 101832" d="M776.441,9624l3.587-34.435,8.348-74.262,5.913-58.5,1.13-7.591s.087-5.043,4.957-4.607,10.447.348,10.447.348,4.944-1.3,5.031,6.956,3.392,47.652,3.392,47.652l3.565,52,4.174,59.825,1.739,18.349s.739,5-4.913,5.521-43.479-.521-43.479-.521-4.608-.3-4.391-3.13S776.441,9624,776.441,9624Z" fill="#f4b856"/>
        <path id="Trazado_101833" data-name="Trazado 101833" d="M817.985,9457.7l5.347,64.174,6.522,86.869,1.565,19.957s-.913,5.869,5.479,5.674,19.7-2.022,26.152-5.87c0,0,3.782-.587,1.3-6.587s-.152-.436-.152-.436l-8.509-41.738-8.621-48.174-10.7-53.739s-5.677-27.826-9.447-31.652-6.64-2.608-6.64-2.608-3.565.869-3.043,6.7S817.985,9457.7,817.985,9457.7Z" fill="#f4b856"/>
        <path id="Trazado_101834" data-name="Trazado 101834" d="M842.115,9471.13l15,66,17.672,66.131,4.632,12.392s2.479,3.651-.391,6.261a62,62,0,0,1-6,4.739l-1.565.957s-3.652,2.348-4.087-.913-10.13-56-10.13-56l-15.131-76.957s-4.882-24.266-6.913-32.3c-.546-2.159-2.217-8.738-2.217-8.738s-1.4-4,1.174-.936S841.114,9466.726,842.115,9471.13Z" fill="#f4b856"/>
      </g>
    </g>
  </g>
</svg>
