<svg xmlns="http://www.w3.org/2000/svg" width="396" height="323" viewBox="0 0 396 323">
  <g id="Grupo_54827" data-name="Grupo 54827" transform="translate(-180 -7226)">
    <rect id="Rectángulo_5284" data-name="Rectángulo 5284" width="396" height="323" transform="translate(180 7226)" fill="#f3f9ff"/>
    <g id="Grupo_54020" data-name="Grupo 54020" transform="translate(79.098 -2417.055)">
      <path id="Trazado_101835" data-name="Trazado 101835" d="M412.875,9832.883a6.815,6.815,0,0,0-1.746-3.991l-24.085-38.956-17.884-28.855a3.406,3.406,0,0,1-.241-.459c-1.879-4.269-7.526-11.574-9.03-15.565-.336-.893-7.538-19.867-14.113-28.818a3.937,3.937,0,0,1-.493-.879l-1.994-4.952a4.351,4.351,0,0,0-4.96-2.573l-13.974,3a10.452,10.452,0,0,1-1.585.083c-2.259,0-7.644-.347-18.337-2.68-4.647-1.017-8.513-1.98-11.925-2.831-6.19-1.544-10.666-2.661-14.469-2.661a14.218,14.218,0,0,0-8.571,2.622,8.348,8.348,0,0,0-3.7,5.828,7.477,7.477,0,0,0-1.121,1.043l-.11.133-9.146,13.652c-.071.106-.137.215-.2.327l-9.21,16.92-.083.167c-.814,1.727-7.546,16.115-8.095,17.049L204.7,9819.8a4.194,4.194,0,0,1-.289.446c-2.021,2.714-7.038,10.213-5.979,16.473a9.243,9.243,0,0,0,4.045,6.228,11.614,11.614,0,0,0,6.432,2.1,9.5,9.5,0,0,0,4.408-1.074,4.389,4.389,0,0,1,3.354-.158l.133.043a4.291,4.291,0,0,1,3.126,4.045,10.693,10.693,0,0,0,1.123,4.955,8.679,8.679,0,0,0,5.356,4.419,14.5,14.5,0,0,0,3.893.561,11.129,11.129,0,0,0,6.562-2.075,4.267,4.267,0,0,1,4-.421c.093.036.187.069.282.106a4.409,4.409,0,0,1,2.809,2.73,9.268,9.268,0,0,0,1.837,3.376c2.794,3.267,7.175,3.767,10.264,3.858l.238,0a8.964,8.964,0,0,0,6.488-2.742,4.363,4.363,0,0,1,3.481-1.153q.77.07,1.59.069c.346,0,.7-.03,1.045-.05,1.4,4.342,4.458,8.415,10.431,8.836.382.025.75.041,1.106.041a11.353,11.353,0,0,0,8.307-3.206,4.437,4.437,0,0,1,3.473-1.27c.37.03.748.049,1.134.049s.755-.026,1.131-.054a8.61,8.61,0,0,0,2.416,4.159,7.661,7.661,0,0,0,4.308,1.957,19.657,19.657,0,0,0,4.469.6c4.438,0,6.271-2.354,6.982-3.711.044-.021.09-.042.138-.062.382-.173.785-.357,1.205-.586a7.09,7.09,0,0,0,3.364-4.554c.442.025.888.049,1.34.049.206,0,.409,0,.611-.01a4.33,4.33,0,0,1,3.592,1.708,10.534,10.534,0,0,0,5.34,3.577,10.958,10.958,0,0,0,3.461.567,9.714,9.714,0,0,0,8.135-4.208l.866-.3a6.119,6.119,0,0,0,3.552-3.24,4.225,4.225,0,0,1,3.383-2.45c.214-.021.425-.045.635-.07a4.673,4.673,0,0,1,3.786,1.07,7.138,7.138,0,0,0,4.972,2.013,7.41,7.41,0,0,0,2.34-.387c.527-.178.935-.288,1.3-.388,3.378-.915,4.408-2.227,6.29-5.474a12.052,12.052,0,0,1,.827-1.27,6.109,6.109,0,0,0,2.853-2.692,7.206,7.206,0,0,0,.522-1.3,24.2,24.2,0,0,0,2.515-.192,4.387,4.387,0,0,1,3.491,1.053,8.671,8.671,0,0,0,5.934,2.234c3.094,0,6.707-1.548,7.676-4.427.123-.251.483-.891.939-1.628a8.911,8.911,0,0,0,1.7-3.106,4.445,4.445,0,0,1,3.067-3l.108-.031a4.249,4.249,0,0,1,3.167.356,7.272,7.272,0,0,0,3.528.9,8.841,8.841,0,0,0,6.212-2.79C411.964,9837.924,413.1,9835.428,412.875,9832.883Z" transform="translate(0 0.001)" fill="#333"/>
      <text id="KNIFE_PLEATED" data-name="KNIFE PLEATED" transform="translate(210.747 9899.368)" font-size="25" font-family="Roboto-Bold, Roboto" font-weight="700"><tspan x="0" y="0">KNIFE PLEATED</tspan></text>
      <g id="Grupo_54019" data-name="Grupo 54019" transform="translate(200.923 9702.741)">
        <path id="Trazado_101836" data-name="Trazado 101836" d="M205.688,9819.466s-1.393,12.951,19.67,8.806l3.084,5.14s4.109,9.1,17.761,8.074l6.02,1.059s6.459,6.868,17.027,2.317l8.336,1.557s9.427,10.219,20,0l6.459.205s11.643,5.577,17.785-1.617l8.859-1.173s15.634,2.79,20.33-3.816,6.606-5.577,6.606-5.577,13.358,3.815,17.322-3.522,6.018-3.6,6.018-3.6,13.066.073,14.974-5.065-39.194-73.785-39.194-73.785L343,9722.434H252.223Z" transform="translate(-195.845 -9689.188)" fill="#5a6718"/>
        <g id="Grupo_54017" data-name="Grupo 54017" transform="translate(0 52.72)">
          <path id="Trazado_101837" data-name="Trazado 101837" d="M265.383,9845.476a16.61,16.61,0,0,1-3.895-.571,4.157,4.157,0,0,1-2.585-1.147c-1.232-1.163-1.859-3.021-1.859-5.53,0-5.142-.506-62.233-.512-62.812l-.439-28.66a6.693,6.693,0,0,1,1.116-4.765,4.262,4.262,0,0,1,3.213-1.528c1.148-.047,2.414-.067,3.591-.067,2.335,0,4.318.067,4.318.067l.157.007.155.032a5.361,5.361,0,0,1,4.036,5.206c.071,2.978,1.6,75.459,1.614,76.19v12.147c.066,2.228-.132,6.218-2.2,7.351-.356.194-.692.352-1.01.5-.93.433-1.28.6-1.71,1.566C268.971,9844.384,267.946,9845.476,265.383,9845.476Z" transform="translate(-161.182 -9729.551)" fill="#333"/>
          <path id="Trazado_101838" data-name="Trazado 101838" d="M250.342,9843.182c-.279,0-.567-.014-.864-.031-8.557-.623-8.331-12.387-8.317-12.885l7.423-63.275,2.09-20.377a6.238,6.238,0,0,1,6.329-6.232c.236,0,.484.01.741.033,6.564.549,7.436,4.646,7.428,8.578-.01,3.822-1.562,27.432-1.627,28.434l-4.848,57.865C258.551,9837.99,256.615,9843.182,250.342,9843.182Z" transform="translate(-171.424 -9729.56)" fill="#333"/>
          <path id="Trazado_101839" data-name="Trazado 101839" d="M235.965,9838.634c-2.607-.08-5.843-.468-7.75-2.766-1.41-1.694-1.857-4.068-1.366-7.253,1.037-6.735,14.369-64.741,14.937-67.206L245,9745.141a5.9,5.9,0,0,1,6.045-5.656,9.963,9.963,0,0,1,2.142.25c6.04,1.344,6.336,4.2,6.135,6.769-.019.256-.04.508-.04.751,0,2.114-12.989,68.387-15.592,81.649-.143.938-1.678,9.734-7.556,9.734Z" transform="translate(-181.402 -9730.178)" fill="#333"/>
          <path id="Trazado_101840" data-name="Trazado 101840" d="M219.712,9831.883a10.745,10.745,0,0,1-3.037-.47,5.249,5.249,0,0,1-3.209-2.809c-1.389-2.773-.917-6.851,1.408-12.114,4.918-11.14,25.742-64.859,25.952-65.4l2.941-9.485.064-.127c.672-1.316,2.531-3.548,5.254-3.548a5.534,5.534,0,0,1,2.211.481c5.3,2.3,3.842,7.078,3.361,8.646-.8,2.637-4.342,13.107-4.492,13.556l-22.285,64.215C227.309,9827.331,224.915,9831.883,219.712,9831.883Z" transform="translate(-191.015 -9731.247)" fill="#333"/>
          <path id="Trazado_101841" data-name="Trazado 101841" d="M207.116,9821.4a8.079,8.079,0,0,1-4.539-1.582,6.134,6.134,0,0,1-2.623-4.186c-.934-5.693,4.7-13.547,5.67-14.856l33.412-61.692c.319-.556,3.061-5.116,7.227-5.116a6.252,6.252,0,0,1,3.984,1.527c4.612,3.75,3.349,8.351,1.99,10.351l-1.568,2.915-36.81,67.46C213.523,9817.006,211.436,9821.4,207.116,9821.4Z" transform="translate(-199.849 -9733.971)" fill="#333"/>
          <path id="Trazado_101842" data-name="Trazado 101842" d="M284.623,9842.075a7.341,7.341,0,0,1-2.374-.405c-3.835-1.311-5.164-3.553-5.684-9.6-.506-5.844-9.445-76.435-9.536-77.146l-.866-6.507a6.717,6.717,0,0,1,.819-5.136,5.7,5.7,0,0,1,4.36-2.283,14.707,14.707,0,0,1,2.357-.191c4.072,0,6.606,1.789,6.958,4.906.258,2.289.4,3.557.432,4.311l.019,0,12.735,77.837c.859,3.19,1.788,8.611-1.366,9.768l-.638.23c-1.4.5-1.4.5-1.752,1.17A6.2,6.2,0,0,1,284.623,9842.075Z" transform="translate(-154.343 -9729.268)" fill="#333"/>
          <path id="Trazado_101843" data-name="Trazado 101843" d="M303.517,9835.526c-3.8,0-5.1-5.671-5.355-7.039l-20.676-72.143c-.034-.123-.8-2.855-1.786-7.251-1.33-5.914,1.764-7.075,6.891-9a7.915,7.915,0,0,1,2.76-.559c3.393,0,4.769,2.941,4.9,5.062l4.9,17.43c.15.465,16.734,52.291,18.583,57.831,1.064,3.189,1.2,5.455.429,6.937a2.648,2.648,0,0,1-1.553,1.383l-.176.053a8.1,8.1,0,0,0-1.911,2.568c-1.646,2.924-2.07,3.439-4.266,4.052-.388.108-.871.241-1.5.461a3.821,3.821,0,0,1-1.242.213Z" transform="translate(-147.866 -9730.141)" fill="#333"/>
          <path id="Trazado_101844" data-name="Trazado 101844" d="M323.108,9828a5.558,5.558,0,0,1-5.255-3.722c-1.891-4.363-26-62.366-27.02-64.836l-5.647-13.346a5.624,5.624,0,0,1,2.384-6.63,8.807,8.807,0,0,1,4.6-1.607,3.239,3.239,0,0,1,3.3,2.128c.437,1.308,1.744,4.866,1.746,4.87l28.423,61.081,3.527,7.641c.079.134,3.137,5.784-.174,9.573a22.379,22.379,0,0,0-1.357,2.485C327.2,9827.049,324.945,9828,323.108,9828Z" transform="translate(-141.331 -9731.297)" fill="#333"/>
          <path id="Trazado_101845" data-name="Trazado 101845" d="M339.025,9819.26a4.82,4.82,0,0,1-4.117-3l-1.643-3.642-38.564-65.84a19.671,19.671,0,0,1-1.768-2.386c-3.191-4.644-1.19-7.052-.954-7.311l2.007-1.859a3.621,3.621,0,0,1,2.514-1.08c2.9,0,4.612,3.721,5.146,5.1l18.2,30.256,24.311,40.519a3.715,3.715,0,0,1,1.094,2.359c.133,1.586-.669,3.268-2.39,4.988A5.5,5.5,0,0,1,339.025,9819.26Z" transform="translate(-137.026 -9733.849)" fill="#333"/>
        </g>
        <path id="Trazado_101846" data-name="Trazado 101846" d="M271.919,9821.246v12.111s.147,5.064-1.32,5.869-2.569.883-3.451,2.861-6.1.441-6.1.441-3,.221-3-4.99-.515-62.83-.515-62.83l-.439-28.77s-.662-4.33,2.715-4.477,7.781,0,7.781,0a3.667,3.667,0,0,1,2.716,3.6C270.377,9748.068,271.919,9821.246,271.919,9821.246Z" transform="translate(-160.494 -9676.143)" fill="#cbe057"/>
        <path id="Trazado_101847" data-name="Trazado 101847" d="M261.168,9776.629l-4.843,57.838s-.368,6.826-7.413,6.312-6.753-11.155-6.753-11.155l7.413-63.124,2.09-20.4s.111-5.121,5.25-4.688,5.892,3.073,5.881,6.889S261.168,9776.629,261.168,9776.629Z" transform="translate(-170.735 -9676.151)" fill="#cbe057"/>
        <path id="Trazado_101848" data-name="Trazado 101848" d="M241.347,9827.891s-1.32,8.514-6.018,8.367-8.54-1.32-7.5-8.073,14.913-67.085,14.913-67.085l3.253-16.439s.194-5.286,6.141-3.965,4.772,3.818,4.772,5.87S241.347,9827.891,241.347,9827.891Z" transform="translate(-180.713 -9676.77)" fill="#cbe057"/>
        <path id="Trazado_101849" data-name="Trazado 101849" d="M247.878,9759.378l-22.312,64.3s-1.616,7.636-9.1,5.433c0,0-5.725-1.32-.733-12.623s25.982-65.471,25.982-65.471l2.936-9.46s1.909-3.753,5.286-2.285,3.229,3.964,2.421,6.605S247.878,9759.378,247.878,9759.378Z" transform="translate(-190.327 -9677.837)" fill="#cbe057"/>
        <path id="Trazado_101850" data-name="Trazado 101850" d="M248.494,9747.278,211.648,9814.8s-2.79,7.046-8.809,2.937S206.363,9801,206.363,9801l33.469-61.8s3.964-6.9,8.662-3.081,1.614,8.155,1.614,8.155Z" transform="translate(-199.162 -9680.565)" fill="#cbe057"/>
        <path id="Trazado_101851" data-name="Trazado 101851" d="M278.731,9749.472l12.771,78.054s1.909,7.018-.294,7.824-2.568.806-3.3,2.2a4.773,4.773,0,0,1-5.8,1.835c-2.789-.956-4.036-2.205-4.55-8.147s-9.543-77.216-9.543-77.216l-.88-6.605s-1.322-4.991,3.743-5.432c0,0,6.9-1.321,7.413,3.229C278.929,9750.855,278.731,9749.472,278.731,9749.472Z" transform="translate(-153.654 -9675.856)" fill="#cbe057"/>
        <path id="Trazado_101852" data-name="Trazado 101852" d="M278.426,9755.189l20.7,72.224s1.212,6.716,4.4,5.616,2.863-.22,4.843-3.742,3.084-3.414,3.084-3.414,1.87-.552,0-6.166-18.607-57.911-18.607-57.911l-4.955-17.614s-.11-5.177-5.4-3.193-6.825,2.644-5.834,7.045S278.426,9755.189,278.426,9755.189Z" transform="translate(-147.184 -9676.731)" fill="#cbe057"/>
        <path id="Trazado_101853" data-name="Trazado 101853" d="M294.938,9744.75l28.477,61.215,3.523,7.631s2.716,4.917,0,7.856a24.441,24.441,0,0,0-1.614,3.008c-.221.734-4.7,2.862-6.607-1.541s-27.01-64.811-27.01-64.811l-5.65-13.358a3.929,3.929,0,0,1,1.742-4.551c2.735-1.761,4.936-1.688,5.377-.366S294.938,9744.75,294.938,9744.75Z" transform="translate(-140.647 -9677.888)" fill="#cbe057"/>
        <path id="Trazado_101854" data-name="Trazado 101854" d="M294.887,9744.245l39.2,66.913,1.688,3.742s1.761,4.038,5.211.588,1.173-5.064,1.173-5.064l-24.441-40.734L299.438,9739.3s-2.276-6.093-4.992-3.522l-1.908,1.761s-1.42,1.544,1.1,5.211S294.887,9744.245,294.887,9744.245Z" transform="translate(-136.34 -9680.441)" fill="#cbe057"/>
        <g id="Grupo_54018" data-name="Grupo 54018" transform="translate(67.526)">
          <path id="Trazado_101855" data-name="Trazado 101855" d="M296.01,9711s-4.212,1.208-21.468-2.674c-19.41-4.363-26.073-8.034-32.3-3.521s1.7,12.33,1.7,12.33,6.715,7.376,35.341,4.516c0,0,22.459-1.433,30.167-4.185l3.339-4.559-2.019-5.162Z" transform="translate(-239.849 -9702.741)" fill="#333"/>
          <path id="Trazado_101856" data-name="Trazado 101856" d="M296.349,9712.567s-4.21,1.206-21.468-2.673c-19.409-4.366-26.073-8.036-32.3-3.524s1.7,12.332,1.7,12.332,6.715,7.377,35.34,4.513c0,0,22.461-1.432,30.167-4.183l3.339-4.559-2.017-5.161Z" transform="translate(-239.615 -9701.664)" fill="#5a6718"/>
        </g>
        <path id="Trazado_101857" data-name="Trazado 101857" d="M228.667,9749.314s7.926,14.828,54.6,13.727,53.72-15.485,53.72-15.485.881-.992-.991-6.169-9.687-25.321-15.411-31.265c0,0-1.1-2.863-5.946-.991,0,0-20.695,5.723-34.014,4.073s-23.008-3.194-26.86-5.507a4.748,4.748,0,0,0-6.32.771l-8.981,13.983-9.136,17.507S226.292,9746.673,228.667,9749.314Z" transform="translate(-180.643 -9699.921)" fill="#cbe057"/>
      </g>
    </g>
  </g>
</svg>
