<svg xmlns="http://www.w3.org/2000/svg" width="89.962" height="99.944" viewBox="0 0 89.962 99.944">
  <g id="Grupo_53753" data-name="Grupo 53753" transform="translate(-175.085 -4279.541)">
    <circle id="Elipse_3987" data-name="Elipse 3987" cx="44.981" cy="44.981" r="44.981" transform="translate(175.085 4289.523)" fill="#0dcea9"/>
    <g id="Grupo_53752" data-name="Grupo 53752">
      <path id="Trazado_100851" data-name="Trazado 100851" d="M255.217,4313.464l-16.06,16.046-1.1,1.1v-3.8h-3.815l17.157-17.158Z" fill="#ff475a"/>
      <path id="Trazado_100852" data-name="Trazado 100852" d="M251.4,4309.648l-17.157,17.158v-3.816h-3.8c1.038-1.033,3.462-3.445,4.469-4.456v-.013l12.689-12.676Z" fill="#ff9696"/>
      <path id="Trazado_100853" data-name="Trazado 100853" d="M220.092,4286.075c-1.687,8.188-11.064,2.722-10.441-5.672l3.907-.862A6.535,6.535,0,0,0,220.092,4286.075Z" fill="#f2f6fc"/>
      <path id="Trazado_100854" data-name="Trazado 100854" d="M226.625,4279.541l3.908.862c.622,8.393-8.754,13.861-10.441,5.672A6.534,6.534,0,0,0,226.625,4279.541Z" fill="#f2f6fc"/>
      <path id="Trazado_100855" data-name="Trazado 100855" d="M260.6,4337.037v10.454a2.622,2.622,0,0,1-2.614,2.614H182.2a2.621,2.621,0,0,1-2.613-2.614v-10.454c-3.155-5.9,77.475-1.185,78.4-2.615A2.625,2.625,0,0,1,260.6,4337.037Z" fill="#ffe45c"/>
      <path id="Trazado_100856" data-name="Trazado 100856" d="M257.987,4346.184H182.2a2.62,2.62,0,0,1-2.613-2.613c.138,2.129-.787,6.589,2.614,6.534h75.79c3.338.06,2.553-4.412,2.614-6.534A2.621,2.621,0,0,1,257.987,4346.184Z" fill="#ffa426"/>
      <path id="Trazado_100857" data-name="Trazado 100857" d="M259.019,4302.03a5.387,5.387,0,0,1,0,7.617l-.955.955-7.619-7.618C252.525,4300.265,256.488,4299.441,259.019,4302.03Z" fill="#f2f6fc"/>
      <path id="Trazado_100858" data-name="Trazado 100858" d="M258.066,4310.6l-2.849,2.862-7.618-7.619,2.848-2.861Z" fill="#9196aa"/>
      <path id="Trazado_100859" data-name="Trazado 100859" d="M237,4295.535c-5.5,26.733,3.707,17.778-28.762,19.288a2.614,2.614,0,0,1-2.6-2.47,92.782,92.782,0,0,0-2.456-16.818c-1.542,4.992-4,6.22-4,6.22l-5.227-5.227a16.011,16.011,0,0,1,7.84-14.374l7.854-1.751c-.622,8.393,8.753,13.861,10.441,5.672,1.686,8.188,11.063,2.722,10.441-5.672l7.853,1.751a16.012,16.012,0,0,1,7.841,14.374L241,4301.755S238.543,4300.527,237,4295.535Z" fill="#b5efff"/>
      <path id="Trazado_100860" data-name="Trazado 100860" d="M209.559,4312.353c-.3-5.67-2.672-16.839-4-22.357-.526,1.939-1.124,4.61-2.452,6.118.665,3.832,2.3,12.358,2.535,16.239.078,3.226,4.449,2.38,6.521,2.47a2.614,2.614,0,0,1-2.6-2.47Z" fill="#19cffc"/>
      <path id="Trazado_100861" data-name="Trazado 100861" d="M197.877,4296.528c-.276-7.032,4.416-14.645,11.827-15.262-.022-.284-.043-.567-.053-.863l-7.854,1.751a16.011,16.011,0,0,0-7.84,14.374l5.227,5.227a6.342,6.342,0,0,0,1.973-1.947Z" fill="#19cffc"/>
      <path id="Trazado_100862" data-name="Trazado 100862" d="M242.306,4360.559H197.877c0-3.777.092-7.253.275-10.454h43.88C242.215,4353.306,242.306,4356.782,242.306,4360.559Z" fill="#b5efff"/>
      <path id="Trazado_100863" data-name="Trazado 100863" d="M240.242,4334.424H226.625c2.852-.95,8.585-2.863,11.434-3.816l1.1-1.1c.392,1.49.745,3.124,1.085,4.914Z" fill="#b5efff"/>
      <path id="Trazado_100864" data-name="Trazado 100864" d="M238.059,4326.806v3.8l-5.71,1.908-3.816-3.816,1.908-5.71h3.8v3.816Z" fill="#f2d1a5"/>
      <path id="Trazado_100865" data-name="Trazado 100865" d="M234.91,4318.521v.013l-1.633,1.633-.118-.117H204.437c2.1-4.1,3.894-5.227,3.894-5.227h23.521A11.522,11.522,0,0,1,234.91,4318.521Z" fill="#1ea1e3"/>
      <path id="Trazado_100866" data-name="Trazado 100866" d="M233.159,4320.05l.118.117.117-.117Z" fill="#368dcf"/>
      <path id="Trazado_100867" data-name="Trazado 100867" d="M212.251,4314.823h-3.92s-1.79,1.124-3.894,5.227h3.92C210.461,4315.947,212.251,4314.823,212.251,4314.823Z" fill="#368dcf"/>
      <path id="Trazado_100868" data-name="Trazado 100868" d="M233.277,4320.167l-2.836,2.823c-.952,2.848-2.867,8.585-3.816,11.434H199.942a52.867,52.867,0,0,1,4.495-14.374h28.722Z" fill="#b5efff"/>
      <path id="Trazado_100869" data-name="Trazado 100869" d="M198.152,4350.1c-.183,3.2-.275,6.677-.275,10.454h3.92c0-3.777.092-7.253.275-10.454Z" fill="#19cffc"/>
      <path id="Trazado_100870" data-name="Trazado 100870" d="M204.437,4320.05a52.867,52.867,0,0,0-4.495,14.374h3.92a52.868,52.868,0,0,1,4.495-14.374Z" fill="#19cffc"/>
      <path id="Trazado_100871" data-name="Trazado 100871" d="M232.349,4332.516l-5.724,1.908,1.908-5.724Z" fill="#7e8596"/>
      <path id="Trazado_100872" data-name="Trazado 100872" d="M213.558,4279.541h13.067C226.749,4288.02,213.434,4288.016,213.558,4279.541Z" fill="#1ea1e3"/>
      <g id="Grupo_53751" data-name="Grupo 53751">
        <path id="Trazado_100873" data-name="Trazado 100873" d="M218.785,4334.424H221.4v7.84h-2.613Z" fill="#faa68e"/>
        <path id="Trazado_100874" data-name="Trazado 100874" d="M225.319,4334.424h2.613v5.227h-2.613Z" fill="#faa68e"/>
        <path id="Trazado_100875" data-name="Trazado 100875" d="M231.852,4334.424h2.614v7.84h-2.614Z" fill="#faa68e"/>
        <path id="Trazado_100876" data-name="Trazado 100876" d="M238.386,4334.424H241v5.227h-2.614Z" fill="#faa68e"/>
        <path id="Trazado_100877" data-name="Trazado 100877" d="M244.92,4334.424h2.613v7.84H244.92Z" fill="#faa68e"/>
        <path id="Trazado_100878" data-name="Trazado 100878" d="M251.453,4334.424h2.614v5.227h-2.614Z" fill="#faa68e"/>
        <path id="Trazado_100879" data-name="Trazado 100879" d="M212.251,4334.424h2.614v5.227h-2.614Z" fill="#faa68e"/>
        <path id="Trazado_100880" data-name="Trazado 100880" d="M205.718,4334.424h2.613v7.84h-2.613Z" fill="#faa68e"/>
        <path id="Trazado_100881" data-name="Trazado 100881" d="M199.184,4334.424H201.8v5.227h-2.613Z" fill="#faa68e"/>
        <path id="Trazado_100882" data-name="Trazado 100882" d="M192.65,4334.424h2.614v7.84H192.65Z" fill="#faa68e"/>
        <path id="Trazado_100883" data-name="Trazado 100883" d="M186.117,4334.424h2.613v5.227h-2.613Z" fill="#faa68e"/>
      </g>
    </g>
  </g>
</svg>
