<svg xmlns="http://www.w3.org/2000/svg" width="832" height="445.559" viewBox="0 0 832 445.559">
  <g id="Grupo_53734" data-name="Grupo 53734" transform="translate(-206.719 -3807.652)">
    <g id="Grupo_53713" data-name="Grupo 53713" transform="translate(260.16 3807.652)" opacity="0.47">
      <path id="Trazado_100740" data-name="Trazado 100740" d="M702.622,3844.742c-98.842,29-206.825,84.306-284.482,89.354s-175.993,31.351-161.525,94.051,298.949,156.76,431.54,180.278,250.732-39.19,236.267-153.624-122.956-239.055-221.8-210.06Zm0,0" transform="translate(-255.186 -3804.282)" fill="#09b291" fill-rule="evenodd"/>
      <path id="Trazado_100741" data-name="Trazado 100741" d="M335.913,3892.948c-9.635,37.548,24.111,97.282,19.289,157.02s-101.254,106.665-14.468,151.9,273.636-24.749,493.021-33.284S1049.531,3917.69,969.97,3893.8s-168.761,26.454-248.313,29.869c-103.216,4.426-356.5-144.6-385.744-30.72Zm0,0" transform="translate(-250.109 -3803.308)" fill="#0dcea9" fill-rule="evenodd"/>
      <path id="Trazado_100742" data-name="Trazado 100742" d="M356.042,3834.292c0,14.714-9.3,26.642-20.78,26.642s-20.781-11.929-20.781-26.642,9.3-26.64,20.781-26.64,20.78,11.928,20.78,26.64Zm0,0" transform="translate(-249.101 -3807.652)" fill="#0dcea9" fill-rule="evenodd"/>
      <path id="Trazado_100743" data-name="Trazado 100743" d="M794.706,4165.538c0,14.714-10.568,26.641-23.6,26.641s-23.606-11.926-23.606-26.641S758.065,4138.9,771.1,4138.9s23.6,11.927,23.6,26.641Zm0,0" transform="translate(-204.662 -3773.657)" fill="#09b291" fill-rule="evenodd"/>
      <path id="Trazado_100744" data-name="Trazado 100744" d="M845.088,4185.251c0,7.579-5.2,13.722-11.61,13.722s-11.609-6.144-11.609-13.722,5.2-13.724,11.609-13.724,11.61,6.145,11.61,13.724Zm0,0" transform="translate(-197.029 -3770.308)" fill="#09b291" fill-rule="evenodd"/>
      <path id="Trazado_100745" data-name="Trazado 100745" d="M579.383,4168.208s-33.958,4.225-45.862,19.357,4.353,21.818,10.16,12.316,9.576-20.41,35.7-31.673Zm0,0" transform="translate(-227.057 -3770.649)" fill="#0dcea9" fill-rule="evenodd"/>
      <path id="Trazado_100746" data-name="Trazado 100746" d="M595.026,4171.662s-18.419,19.217-20.288,33.927,9.866,10.593,10.068,2.181-1.256-16.646,10.22-36.108Zm0,0" transform="translate(-222.412 -3770.295)" fill="#0dcea9" fill-rule="evenodd"/>
      <path id="Trazado_100747" data-name="Trazado 100747" d="M837.518,3886.98s40.58-38.92,37.1-62.787-34.2-11.764-29.75,1.468,13.475,25.377-7.347,61.319Zm0,0" transform="translate(-195.423 -3807.352)" fill="#09b291" fill-rule="evenodd"/>
      <path id="Trazado_100748" data-name="Trazado 100748" d="M822.79,3892.577s.046-29.46-14.376-40.782-23.645,2.138-14.367,7.817,20.307,9.719,28.743,32.965Zm0,0" transform="translate(-200.267 -3803.573)" fill="#09b291" fill-rule="evenodd"/>
      <path id="Trazado_100749" data-name="Trazado 100749" d="M860.8,4159.748c-1.493.356-3.145-.165-3.685-1.166s.248-2.106,1.742-2.469c29.091-6.993,54.909-26.167,73.952-49.179,21.628-26.145,34.425-57.158,33.345-80.961-.036-1.064,1.22-1.954,2.805-1.984s2.917.81,2.961,1.879c1.1,24.456-11.965,56.222-34.067,82.939-19.659,23.76-46.522,43.6-77.053,50.942Zm0,0" transform="translate(-193.428 -3785.45)" fill="#0dcea9"/>
      <path id="Trazado_100750" data-name="Trazado 100750" d="M525.059,3884.171a3.874,3.874,0,0,1-4.016-.479c-.907-.872-.585-2.076.717-2.684,59.318-27.833,103.646-45.484,138.257-54.743,35.177-9.412,60.539-10.21,81.44-4.212,1.468.418,2.146,1.552,1.523,2.536a3.541,3.541,0,0,1-3.787,1.026c-19.474-5.588-43.439-4.753-77.049,4.236-34.179,9.143-78.132,26.658-137.084,54.32Zm0,0" transform="translate(-227.955 -3806.567)" fill="#09b291"/>
      <path id="Trazado_100751" data-name="Trazado 100751" d="M315.852,4172.525c1.438.467,2.034,1.628,1.336,2.585a3.644,3.644,0,0,1-3.867.9q-1.694-.553-3.331-1.179l-.174-.074c-20.884-8.044-30.244-23.154-31-40.842-.732-17.406,6.912-37.369,20.116-55.443q3.038-4.164,6.39-8.111a3.741,3.741,0,0,1,3.933-.726c1.385.528,1.869,1.708,1.089,2.634-2.217,2.6-4.308,5.244-6.242,7.9-12.808,17.542-20.225,36.857-19.52,53.639.688,16.4,9.2,30.336,28.139,37.612l.136.047c.954.371,1.954.72,2.991,1.064Zm0,0" transform="translate(-252.766 -3780.792)" fill="#0dcea9"/>
    </g>
    <path id="Trazado_100752" data-name="Trazado 100752" d="M571.281,3876.16s1.188,2.529,2.948-.552a21.932,21.932,0,0,1,3.188-5.01c1-1.217,3.5-4.3,2.109-5.944-.748-.883-3.355-4.123-4.506-1.055S571.281,3876.16,571.281,3876.16Z" transform="translate(37.414 5.609)" fill="#fff" stroke="#666" stroke-linecap="round" stroke-linejoin="round" stroke-width="1"/>
    <path id="Trazado_100753" data-name="Trazado 100753" d="M544.616,3872.651s-1.717,2.205-2.754-1.189a21.926,21.926,0,0,0-2-5.59c-.708-1.409-2.463-4.968-.745-6.263.924-.7,4.183-3.281,4.629-.034S544.616,3872.651,544.616,3872.651Z" transform="translate(34.038 5.165)" fill="#fff" stroke="#666" stroke-linecap="round" stroke-linejoin="round" stroke-width="1"/>
    <path id="Trazado_100754" data-name="Trazado 100754" d="M344.241,3901.61v-8.055l.335-.766,5.824-6.832a10.043,10.043,0,0,0,.986-1.379l3.338-5.625a8.909,8.909,0,0,0,.839-1.863,21.892,21.892,0,0,0,1.191-6.21c-.1-2.732,0-10.691,0-10.691a17.306,17.306,0,0,0-2.161-6.663c-1.917-3.308-2.877-6.615-12.752-11.937s-21.477,3.978-21.477,3.978-7.336,6.425-7.048,13.615l-.008,8.821s.583,3.74,1.255,4.794,1.917,5.082,0,6.9a38.316,38.316,0,0,0-4.315,5.56l9.582,12.849a4.61,4.61,0,0,0,5.519.647,30.784,30.784,0,0,0,4.17-2.733l1.2-.862,1.246,7.118.359,5.394a5.084,5.084,0,0,1-.431,2.588c-.576.863-6.04,7.622-6.04,7.622l-11.29,14.6a14.59,14.59,0,0,0-1.223,12.512l3.524,4.89-2.3,39.263-5.25,21.717-2.948,24.089v32.288L309,4097.925l1.055,20.806-.767,7.19.48,4.028,1.822,3.834,3.547,4.411,18.122,30.586,1.822,2.4,2.109,17.45,1.631,14.095.67,14.286-.1,2.11-.766,1.341-9.11,8.821-7.382,3.835-7.1,2.494s-6.232,2.491-4.889,5.848,6.04,2.493,6.04,2.493l12.368.1,8.725-1.25a13.342,13.342,0,0,0,6.137,1.25,12.274,12.274,0,0,0,6.807-3.837c3.069-3.357,11.026-13.52,11.026-13.52l5.082-4.7,4.219-3.165,2.109-2.493s1.727-3.355,0-4.7-8.245-11.7-8.245-11.7l-7.479-13.615L351,4168.493l-6.328-18.984-5.656-23.683-1.343-7.67v-8.149a22.447,22.447,0,0,1,1.63-6.426,79.07,79.07,0,0,0,2.925-8.821,119.707,119.707,0,0,0,4.938-27.421c.862-15.054.48-25.323.48-25.323A21.557,21.557,0,0,0,351,4031.671c.192-5.752-1.822-20.615-5.465-33.75l6.136-16.107a28.643,28.643,0,0,0,1.726-8.343c.1-4.123,1.055-47.94,1.055-47.94s.479-3.931-1.919-10.067Z" transform="translate(10.227 3.314)" fill="#fff" stroke="#666" stroke-miterlimit="10" stroke-width="1"/>
    <path id="Trazado_100755" data-name="Trazado 100755" d="M333.423,4032.512s-4.459,50.636-6.76,61.279c0,0-1.869,6.615,0,9.78s11.3,14.784,17.086,29.4" transform="translate(12.224 23.077)" fill="none" stroke="#666" stroke-miterlimit="10" stroke-width="1"/>
    <path id="Trazado_100756" data-name="Trazado 100756" d="M316.87,3940.924s14.094,2.446,16.107-13.663a43.346,43.346,0,0,1,5.921,16.251c1.558,9.852-4.952,43.142-4.952,43.142l-4.229,24.34-1.046,7.045-.153,3.856-.61,2.155-1.388,2.722-1.07,2.506,1.39-19.032,4.075-28.284s4.794-22.916-.527-30.4-14.239-5.033-14.239-5.033Z" transform="translate(11.231 12.275)" fill="#e6e6e6"/>
    <path id="Trazado_100757" data-name="Trazado 100757" d="M324.421,4021.7s-2.589,3.882-.359,13.519c0,0,.84,5.321,2.865,7.981s3.319,20.877,3.319,20.877l3.3-28.71-.42-1.742-3.6-2.507A14.94,14.94,0,0,1,324.421,4021.7Z" transform="translate(11.95 21.967)" fill="#e6e6e6"/>
    <path id="Trazado_100758" data-name="Trazado 100758" d="M329.928,3922.261s8.006,5.273,8.078,18.218v17.642a83.16,83.16,0,0,1-1.558,11.7l-5.944,30.395-2.758,18.563a4.09,4.09,0,0,0,.044,1.451,5.423,5.423,0,0,1-.164,3.284c-.766,1.534-4.218,5.753-2.108,11.123a22.284,22.284,0,0,0,4.986,7.958s3.835,2.781,7.094,0,5.753-3.857,7.287-9.023c0,0,.568-7.78-2.774-5.966a2,2,0,0,0-1.028,1.616l-.129,1.868a3.327,3.327,0,0,1-.8,1.52,1.293,1.293,0,0,1-2.15-.979v-5.719a3.216,3.216,0,0,0-2.134-3.452s-.958-1.054.671-7.286,6.112-24.329,6.112-24.329l4.755-11.267" transform="translate(12.123 11.762)" fill="none" stroke="#666" stroke-linecap="round" stroke-linejoin="round" stroke-width="1"/>
    <path id="Trazado_100759" data-name="Trazado 100759" d="M342.247,3873.194s6.821,1.115,11.334-2.783c0,0,.233,6.02-11.543,19.25a5.352,5.352,0,0,1-1.321.948c-3.353,1.994-10.885,6.208-10.885,6.208l-.9-4.53,9.482-9.2A9.621,9.621,0,0,0,342.247,3873.194Z" transform="translate(12.543 6.441)" fill="#e6e6e6"/>
    <path id="Trazado_100760" data-name="Trazado 100760" d="M333.968,3872.834a6.143,6.143,0,0,1,4.506-2.4c3.259-.384,3.739,3.547,3.739,3.547s.863,6.136-2.973,8.149l-10.786,9.9" transform="translate(12.493 6.441)" fill="none" stroke="#666" stroke-linecap="round" stroke-linejoin="round" stroke-width="1"/>
    <path id="Trazado_100761" data-name="Trazado 100761" d="M336.781,4148.609l4.435,21.428s2.54,20.711,3.067,25.17l3.548-7.767,2.432-4.83,1.16-7.634-3.592-7.686-5.207-9.483Z" transform="translate(13.348 34.992)" fill="#e1e2e4"/>
    <path id="Trazado_100762" data-name="Trazado 100762" d="M336.939,4212.215s-4.123-1.1-.767-5.753,6.185-6.04,8.533-10.4,2.973-5.706,2.973-5.706,6.089-10.691,3.547-16.4-18.553-33.654-18.553-33.654" transform="translate(12.926 34.139)" fill="none" stroke="#666" stroke-miterlimit="10" stroke-width="1"/>
    <path id="Trazado_100763" data-name="Trazado 100763" d="M588.513,3922.625s-.192-9.876-11.218-14.958a25.407,25.407,0,0,1-9.2-3.067s-2.205-1.822-2.3-2.877,0-6.52,0-6.52-.1-1.15,1.438-2.013,10.163-7.479,14.095-13.327c0,0,5.273-9.4,6.616-17.258s0-14.1-2.973-17.834-6.808-7.861-16.779-8.246-19.465,4.411-20.231,16.683a84.076,84.076,0,0,0,2.493,24.162s1.63,8.725-1.055,15.341-4.7,6.424-12.176,8.821-10.74-.479-18.6,7.383S496.18,3939.5,496.18,3939.5l-8.739,12.464a9,9,0,0,0,0,9.3,54.309,54.309,0,0,1,4.233,7.767l17.93,22.148,3.739,3.74s5.466,13.231,15.341,7.191c0,0,10.74-10.164,5.945-14.382s-7.959-1.246-7.959-1.246a7.6,7.6,0,0,1-8.533.766c-5.081-2.491-7.19-4.889-9.491-10.642s-4.7-14.669-7.287-19.56a2.858,2.858,0,0,1,.672-1.534c.574-.576,24.162-28.189,24.162-28.189s.862-1.343,1.342.479,6.424,31.449,6.424,31.449,4.507,14.094,2.781,25.025l-7.959,24.832-3.451,20.807-7.191,43.241-3.068,21.67-2.205,13.614-1.918,9.013-6.137,13.52-5.465,17.642-3.356,15.341-3.067,15.82-3.452,18.984-6.9,26.943-2.4,9.2s-1.822,7.671,5.753,9.2c0,0,5.752.192,9.2-6.711,0,0,5.273-3.932,3.163-8.725,0,0-4.7-4.794-4.027-7.671s4.7-16.683,4.7-16.683l5.178-17.642s4.506-10.066,6.9-14.383,7.383-21.381,9.2-26.75S523.7,4132.6,523.7,4132.6s.48-4.219,1.534-5.657,6.232-8.437,7.1-15.532.862-8.341,2.877-13.711,11.888-36.147,11.888-36.147l4.315-22.341a17.124,17.124,0,0,0,2.685-.287s1.342.192,2.4.287l-.288,63.377-.192,4.89-1.726,20.039s-3.548,12.272-3.643,20.327-1.919,47.365-1.919,47.365-1.917,17.066-5.465,27.134-3.452,21.765-3.452,21.765a6.533,6.533,0,0,0,6.041,4.6c5.081.48,10.451-10.164,10.451-10.164s4.41-7.382,1.726-9.3-3.451-2.973-2.589-7.575,6.137-23.875,6.137-23.875l7.574-32.694a99.67,99.67,0,0,0,3.548-18.6c.67-9.108-.1-35.476-.1-35.476s.1-5.465,1.438-8.917,10.739-49.186,10.739-49.186l.192-2.781a7.033,7.033,0,0,0,4.411-6.136,71.008,71.008,0,0,0-.671-18.122c-1.342-7.384-2.78-9.972-2.589-21.095s.1-31.544.1-31.544Z" transform="translate(28.044 2.961)" fill="#fff" stroke="#666" stroke-miterlimit="10" stroke-width="1"/>
    <path id="Trazado_100764" data-name="Trazado 100764" d="M529.267,4078.217s-6.281,9.2-12.033,8.438c0,0,1.726,2.684,4.411,2.588,0,0-1.151,3.836-8.1,3.788,0,0,7.191,5.178,11.17,3.308S529.267,4078.217,529.267,4078.217Z" transform="translate(31.488 27.767)" fill="#e1e2e4"/>
    <path id="Trazado_100765" data-name="Trazado 100765" d="M533.585,4018.7s9.709,9.636,9.133,13.087l2.229-7.865.9-4.194S534.414,4019.766,533.585,4018.7Z" transform="translate(33.545 21.659)" fill="#e1e2e4"/>
    <path id="Trazado_100766" data-name="Trazado 100766" d="M569.613,4019.674s-13.416,10.14-15.013,19.56a150.943,150.943,0,0,0-1.526,31.065c.863,17.978,6.472,19.057,6.472,19.057s-4.5.5-4.946,3.811a10.669,10.669,0,0,0,7.464.863s-5.938,2.228-7.464,5.681-4.473,24.952-4.473,24.952l-4.171,21.717-1.87,10.93,1.511-37.681,3.308-15.892.447-14.111,1.207-69.233S558.035,4022.478,569.613,4019.674Z" transform="translate(34.623 21.76)" fill="#e1e2e4"/>
    <path id="Trazado_100767" data-name="Trazado 100767" d="M525.759,4012.565s9.493,11.146,24.162,7.12c0,0,11,6.256,25.241-2.086" transform="translate(32.742 21.03)" fill="none" stroke="#666" stroke-linecap="round" stroke-linejoin="round" stroke-width="1"/>
    <path id="Trazado_100768" data-name="Trazado 100768" d="M547.473,3936.626s-.384,1.342-7.67,1.917a10.838,10.838,0,0,0,4.985-8.629c.1-5.754-.287-13.615-1.534-14.767s5.944,2.589,4.794,11.7Z" transform="translate(34.184 11.012)" fill="#e1e2e4"/>
    <path id="Trazado_100769" data-name="Trazado 100769" d="M572.441,3876.367s-10.643,6.712-20.615-.67a18.822,18.822,0,0,1-9.6-10.748s.3,16.308,10.941,23.6c0,0,1.151.862-.287,1.726s-1.631,1.438-5.849,1.918a11.834,11.834,0,0,0,7.758.671s-4.665,4.531-7.973,5.009c0,0,12.68,1.127,14.885,3.812,0,0-3.165-1.583-2.542-6.136l.384-4.219,2.732-2.446,4.075-2.853,6.751-6.678,2.933-4.563Z" transform="translate(34.432 5.88)" fill="#e1e2e4" opacity="0.21"/>
    <path id="Trazado_100770" data-name="Trazado 100770" d="M572.9,3919.565l-6.759,32.5s-2.589,16.4,1.293,32.072,7.91,37.969,7.91,37.969,1.762,11.9,1.151,15.569c0,0,3.667-3.2,1.366-15.569s-6.256-33.007-6.256-33.007a71.7,71.7,0,0,1-3.451-24.88C568.659,3950.055,572.9,3919.565,572.9,3919.565Z" transform="translate(36.8 11.485)" fill="#e1e2e4"/>
    <path id="Trazado_100771" data-name="Trazado 100771" d="M493.627,4188.375s.48,10.115-1.246,11.794-8.084,7.046-8.084,7.046a4.063,4.063,0,0,0,2.266.295,9.522,9.522,0,0,0,6.094-3.693c1.173-1.419,2.973-4,3.577-4.674a6.283,6.283,0,0,0,1.366-2.589l.253-1.347a3.022,3.022,0,0,0-.411-2.186c-.121-.184-.513-.536-.506-.584a24.841,24.841,0,0,0-1.822-2.192l-1.774-3.1Z" transform="translate(28.487 38.947)" fill="#e1e2e4"/>
    <path id="Trazado_100772" data-name="Trazado 100772" d="M532.235,3976.554s-2.205-2.445-3.692-.576c0,0-.863.527-.623,2.349s-1.678,3.165-1.678,3.165a7.193,7.193,0,0,1-8.39,2.3l-9.875-6.759,6.663,8.533s6.9,6.28,11.6,1.677,5.225-7.239,5.225-7.239S532.954,3977.657,532.235,3976.554Z" transform="translate(30.917 17.203)" fill="#e0e1e3"/>
    <path id="Trazado_100773" data-name="Trazado 100773" d="M522.892,3912s-12.944,19.656-15.437,23.2l15.437-18.121,2.589,3.26Z" transform="translate(30.864 10.709)" fill="#e0e1e3"/>
    <path id="Trazado_100774" data-name="Trazado 100774" d="M503.9,3938.261s-8.821,8.725-13.232,10.163c0,0,5.039-.574,6.115-1.246l9.034,17.354-5.975-19.175Z" transform="translate(29.141 13.404)" fill="#e0e1e3"/>
    <path id="Trazado_100775" data-name="Trazado 100775" d="M821.979,3857.494s2.917-1.952,3.492,2.614c0,0,.431,1.258-1.042,5a13.343,13.343,0,0,0-.54,2.876c-.072,1.4-.579,3.9-3.382,3.836l1.168-6.724.305-5.381Z" transform="translate(62.992 5.072)" fill="#fff" stroke="#666" stroke-linecap="round" stroke-linejoin="round" stroke-width="1"/>
    <path id="Trazado_100776" data-name="Trazado 100776" d="M788.933,3858.635s-3.145-1.558-3.123,3.044c0,0-.265,1.3,1.682,4.821a13.328,13.328,0,0,1,.909,2.781c.254,1.382,1.081,3.789,3.851,3.365l-2.031-6.517-1-5.3Z" transform="translate(59.429 5.207)" fill="#fff" stroke="#666" stroke-linecap="round" stroke-linejoin="round" stroke-width="1"/>
    <path id="Trazado_100777" data-name="Trazado 100777" d="M884.762,4236.443s-9.684-12.37-13.807-17.356-5.37-14.669-5.37-14.669-2.3-16.97-4.985-46.022a256.187,256.187,0,0,0-10.452-52.159l-.287-12.657-.767-34.8s-.288-24.258-4.41-43.721-9.972-29.579-9.972-29.579h5.466a31.774,31.774,0,0,0,14.861-5.321s25.4-20.135,27.986-22.724-.18-5.464-.18-5.464L877,3943.814s-17.738-26.943-24.258-36.434-8.917-7.767-19.751-10.164-9.779-11.123-9.779-11.123v-10.354H805.9l.359,12.512c-.143,6.471-6.759,8.486-6.759,8.486s-7.263-.144-10.787.072a5.841,5.841,0,0,0-4.817,2.589l-40.415,37.968c-3.811,4.243,0,9.276,0,9.276l11.146,16.468s13.088,16.9,17.762,21.142,12.176,3.188,12.176,3.188l1.247.288c-8.342,25.313-8.533,35.38-7.44,65.966s6.1,43.051,6.1,43.051l-.384,18.122a161.2,161.2,0,0,0-4.6,16.011c-2.781,13.616.527,45.161.527,45.161l4.674,33.295v24.953s2.877,11.505,11.937,9.06,5.681-11.578,5.681-11.578l-3.236-9.563c-3.451-6.4-3.163-17.042-3.667-23.3s0-22.437,0-22.437,6.232-49.234,7.671-57.767a175.414,175.414,0,0,0,1.678-20.758c2.876-9.781,5.513-72.822,5.513-72.822h.67c.672,0,2.973-.192,2.973-.192l14.669,64.528s5.466,20.615,6.232,36.531,10.068,44.968,10.068,44.968a253.726,253.726,0,0,1,7.766,26.847c2.781,12.848,1.247,25.025,1.343,27.135s2.4,2.97,2.4,2.97l5.944,6.137s5.944,9.2,11.986,10.931,8.629.289,11.7-2.109S884.762,4236.443,884.762,4236.443Zm-93.317-262.115a1.194,1.194,0,0,1-1.726,0s-1.726-8.342-13.807-2.014c0,0-.862.431-2.013-.575s-16.539-20.926-16.395-28.4c0,0-.054-.934,1.366-1.941l24.521-17.906s-3.1,16.074,8.405,23.083C791.8,3946.57,792.238,3969.223,791.446,3974.328Zm39.12-4.386V3947.9s10.139-5.648,10.427-16.362c0,0,.359-6.616-.935-10.5l27.326,29.2a1.389,1.389,0,0,1,.288,1.906c-.792,1.007-8.2,11.254-12.153,17.366,0,0-5.105,7.047-12.441,4.818C843.078,3974.328,837.613,3968.5,830.566,3969.942Z" transform="translate(54.913 6.988)" fill="#fff" stroke="#666" stroke-linecap="round" stroke-linejoin="round" stroke-width="1"/>
    <path id="Trazado_100778" data-name="Trazado 100778" d="M819.6,3928.517s2.822,1.545,3.158-1.68" transform="translate(62.898 12.232)" fill="none" stroke="#666" stroke-linecap="round" stroke-linejoin="round" stroke-width="1"/>
    <path id="Trazado_100779" data-name="Trazado 100779" d="M792.879,3928.671s-3.235,1.772-3.621-1.926" transform="translate(59.784 12.222)" fill="none" stroke="#666" stroke-linecap="round" stroke-linejoin="round" stroke-width="1"/>
    <path id="Trazado_100780" data-name="Trazado 100780" d="M805.738,4006.783s-.563,3.375.047,4.074" transform="translate(61.451 20.436)" fill="none" stroke="#666" stroke-linecap="round" stroke-linejoin="round" stroke-width="1"/>
    <path id="Trazado_100781" data-name="Trazado 100781" d="M808.964,3935.739s10.657,6,14.492,6.13l-.576,15.539S814.079,3939.382,808.964,3935.739Z" transform="translate(61.807 13.145)" fill="#e1e2e4"/>
    <path id="Trazado_100782" data-name="Trazado 100782" d="M805.807,3935.217s-5.705,9.109-18.265,7.287v-2.253A32.432,32.432,0,0,0,805.807,3935.217Z" transform="translate(59.608 13.091)" fill="#e1e2e4"/>
    <path id="Trazado_100783" data-name="Trazado 100783" d="M817.835,4006.174s-1.511,27.542,1.15,37.25,9.133,44.8,9.133,44.8,1.869,15.964,6.4,17.762,6.975-1.366,6.975-1.366-2.512,6.615-12.043,8.341l-1.908-13.016-5.609-26.535-5.752-25.1-4.675-20.638-2.876-12.944-.944-3.811,5.4-2.039,3.457-2.441Z" transform="translate(61.676 20.374)" fill="#e1e2e4"/>
    <path id="Trazado_100784" data-name="Trazado 100784" d="M792.759,4004.288s7.383,6.951,14.334,6.855S821.331,4004,821.331,4004" transform="translate(60.144 20.151)" fill="none" stroke="#666" stroke-linecap="round" stroke-linejoin="round" stroke-width="1"/>
    <path id="Trazado_100785" data-name="Trazado 100785" d="M795.15,4006.783s3.979,23.826,4.075,31.4.527,26.271.527,26.271v15.772s1.441-15.535,1.823-20.722c.887-12.085,2.853-48.384,2.853-48.384s-3.578-.989-4.639-1.485C798.531,4009.046,795.15,4006.783,795.15,4006.783Z" transform="translate(60.389 20.436)" fill="#e1e2e4"/>
    <path id="Trazado_100786" data-name="Trazado 100786" d="M787.2,3904.174a62.435,62.435,0,0,1-16.833,20.566c-1.4,1.07-10.877,9.156-21.52,11.266a13.876,13.876,0,0,1,4.506,2.973l19.52-14.09S784.25,3919.2,787.2,3904.174Z" transform="translate(55.637 9.906)" fill="#e1e2e4"/>
    <path id="Trazado_100787" data-name="Trazado 100787" d="M803.824,3879.748s3.875,11.027,3.524,14.383c0,0,3.332-2.446,10.618-2.495,0,0-1.845-2.731-1.677-12.919Z" transform="translate(61.279 7.293)" fill="#e1e2e4"/>
    <path id="Trazado_100788" data-name="Trazado 100788" d="M832.966,3908.608s18.889,29.723,24.929,33.75,9.3,4.314,9.3,4.314,2.3,2.3,0,2.685-7.287-.575-7.287-.575,1.917-.479.863-1.63-25.7-27.038-28.286-31.832l-2.684-4.41,2.684,2.78A5.672,5.672,0,0,0,832.966,3908.608Z" transform="translate(63.945 10.361)" fill="#e1e2e4"/>
    <path id="Trazado_100789" data-name="Trazado 100789" d="M807.106,3834.131s15.473-.815,17.989,13.519c0,0,2.044,19.37-1.366,28-.55,1.392-5.561,11.17-14.957,12.608S791.13,3875.6,791.13,3875.6s-6.328-12.464-.767-28.956C790.363,3846.644,791.922,3835.626,807.106,3834.131Z" transform="translate(59.663 2.716)" fill="#fff" stroke="#666" stroke-linecap="round" stroke-linejoin="round" stroke-width="1"/>
    <path id="Trazado_100790" data-name="Trazado 100790" d="M805.143,3863.043a29.7,29.7,0,0,1-1.054,5.082s-1.055,2.205,1.054,2.109a5.942,5.942,0,0,0,2.013-.766" transform="translate(61.279 5.685)" fill="none" stroke="#666" stroke-linecap="round" stroke-linejoin="round" stroke-width="1"/>
    <path id="Trazado_100791" data-name="Trazado 100791" d="M796.216,3894.326l6.543.863,3.3.647a1.649,1.649,0,0,1,1.739,1.654s1.078,1.509,1.726,0a3.009,3.009,0,0,1,2.732-2.087c2.085,0,11.325-.647,11.325-.647" transform="translate(60.499 8.895)" fill="#fff" stroke="#666" stroke-linecap="round" stroke-linejoin="round" stroke-width="1"/>
    <line id="Línea_189" data-name="Línea 189" y2="78.526" transform="translate(869.362 3908.183)" fill="#fff" stroke="#666" stroke-linecap="round" stroke-linejoin="round" stroke-width="1"/>
    <line id="Línea_190" data-name="Línea 190" x2="48.036" transform="translate(842.836 3928.03)" fill="#fff" stroke="#666" stroke-linecap="round" stroke-linejoin="round" stroke-width="1"/>
    <circle id="Elipse_3964" data-name="Elipse 3964" cx="1.438" cy="1.438" r="1.438" transform="translate(891.447 3926.257)" fill="#bf3976" stroke="#666" stroke-linecap="round" stroke-linejoin="round" stroke-width="1"/>
    <line id="Línea_191" data-name="Línea 191" x2="32.408" transform="translate(805.538 3903.221)" fill="none" stroke="#bf3976" stroke-linecap="round" stroke-linejoin="round" stroke-width="1"/>
    <line id="Línea_192" data-name="Línea 192" x2="26.439" transform="translate(596.614 3908.902)" fill="none" stroke="#bf3976" stroke-linecap="round" stroke-linejoin="round" stroke-width="1"/>
    <path id="Trazado_100792" data-name="Trazado 100792" d="M750.347,3891.739v5.417l-5.849-2.373Z" transform="translate(55.191 8.63)" fill="#bf3976"/>
    <path id="Trazado_100793" data-name="Trazado 100793" d="M584.3,3897.021v5.417l5.849-2.373Z" transform="translate(38.75 9.172)" fill="#bf3976"/>
    <line id="Línea_193" data-name="Línea 193" x1="26.439" transform="translate(547.23 3900.586)" fill="none" stroke="#bf3976" stroke-linecap="round" stroke-linejoin="round" stroke-width="1"/>
    <path id="Trazado_100794" data-name="Trazado 100794" d="M516.082,3889.48v5.417l-5.849-2.373Z" transform="translate(31.149 8.398)" fill="#bf3976"/>
    <line id="Línea_194" data-name="Línea 194" x1="40.454" y1="0.119" transform="translate(514.943 3928.342)" fill="none" stroke="#bf3976" stroke-linecap="round" stroke-linejoin="round" stroke-width="1"/>
    <path id="Trazado_100795" data-name="Trazado 100795" d="M486.8,3914.652v5.417l-5.849-2.373Z" transform="translate(28.144 10.981)" fill="#bf3976"/>
    <line id="Línea_195" data-name="Línea 195" x1="22.705" y1="0.119" transform="translate(490.061 3960.991)" fill="none" stroke="#bf3976" stroke-linecap="round" stroke-linejoin="round" stroke-width="1"/>
    <path id="Trazado_100796" data-name="Trazado 100796" d="M464.233,3944.263v5.418l-5.849-2.374Z" transform="translate(25.828 14.02)" fill="#bf3976"/>
    <line id="Línea_196" data-name="Línea 196" x1="32.725" y1="0.119" transform="translate(514.607 3991.481)" fill="none" stroke="#bf3976" stroke-linecap="round" stroke-linejoin="round" stroke-width="1"/>
    <path id="Trazado_100797" data-name="Trazado 100797" d="M486.494,3971.915v5.417l-5.849-2.373Z" transform="translate(28.112 16.858)" fill="#bf3976"/>
    <line id="Línea_197" data-name="Línea 197" x2="35.366" transform="translate(590.861 3980.645)" fill="none" stroke="#bf3976" stroke-linecap="round" stroke-linejoin="round" stroke-width="1"/>
    <path id="Trazado_100798" data-name="Trazado 100798" d="M587.181,3962.087v5.418l5.849-2.373Z" transform="translate(39.046 15.849)" fill="#bf3976"/>
    <line id="Línea_198" data-name="Línea 198" x2="41.133" transform="translate(800.073 3928.174)" fill="none" stroke="#bf3976" stroke-linecap="round" stroke-linejoin="round" stroke-width="1"/>
    <line id="Línea_199" data-name="Línea 199" x2="56.798" transform="translate(888.731 3940.143)" fill="none" stroke="#bf3976" stroke-linecap="round" stroke-linejoin="round" stroke-width="1"/>
    <line id="Línea_200" data-name="Línea 200" x2="41.172" transform="translate(872.023 3905.139)" fill="none" stroke="#bf3976" stroke-linecap="round" stroke-linejoin="round" stroke-width="1"/>
    <line id="Línea_201" data-name="Línea 201" x2="41.172" transform="translate(869.331 4028.921)" fill="none" stroke="#bf3976" stroke-linecap="round" stroke-linejoin="round" stroke-width="1"/>
    <line id="Línea_202" data-name="Línea 202" x2="27.677" transform="translate(912.682 4213.035)" fill="none" stroke="#bf3976" stroke-linecap="round" stroke-linejoin="round" stroke-width="1"/>
    <line id="Línea_203" data-name="Línea 203" x2="27.677" transform="translate(808.603 4209.631)" fill="none" stroke="#bf3976" stroke-linecap="round" stroke-linejoin="round" stroke-width="1"/>
    <line id="Línea_204" data-name="Línea 204" x2="41.133" transform="translate(782.814 3941.676)" fill="none" stroke="#bf3976" stroke-linecap="round" stroke-linejoin="round" stroke-width="1"/>
    <line id="Línea_205" data-name="Línea 205" x2="50.038" transform="translate(818.53 3988.292)" fill="none" stroke="#bf3976" stroke-linecap="round" stroke-linejoin="round" stroke-width="1"/>
    <path id="Trazado_100799" data-name="Trazado 100799" d="M745.39,3914.37v5.417l-5.849-2.373Z" transform="translate(54.682 10.952)" fill="#bf3976"/>
    <path id="Trazado_100800" data-name="Trazado 100800" d="M876.851,3925.354v5.417l5.849-2.373Z" transform="translate(68.774 12.079)" fill="#bf3976"/>
    <path id="Trazado_100801" data-name="Trazado 100801" d="M845.183,4005.869v5.418l5.849-2.374Z" transform="translate(65.524 20.343)" fill="#bf3976"/>
    <path id="Trazado_100802" data-name="Trazado 100802" d="M872.075,4172.848v5.417l5.849-2.373Z" transform="translate(68.284 37.479)" fill="#bf3976"/>
    <path id="Trazado_100803" data-name="Trazado 100803" d="M753.446,4169.76v5.417L747.6,4172.8Z" transform="translate(55.509 37.163)" fill="#bf3976"/>
    <path id="Trazado_100804" data-name="Trazado 100804" d="M847.44,3893.608v5.417l5.849-2.373Z" transform="translate(65.756 8.822)" fill="#bf3976"/>
    <path id="Trazado_100805" data-name="Trazado 100805" d="M730.782,3926.745v5.417l-5.849-2.373Z" transform="translate(53.183 12.222)" fill="#bf3976"/>
    <path id="Trazado_100806" data-name="Trazado 100806" d="M762.956,3969.021v5.417l-5.849-2.373Z" transform="translate(56.485 16.561)" fill="#bf3976"/>
    <circle id="Elipse_3965" data-name="Elipse 3965" cx="1.438" cy="1.438" r="1.438" transform="translate(838.065 3901.975)" fill="#bf3976" stroke="#666" stroke-linecap="round" stroke-linejoin="round" stroke-width="1"/>
    <circle id="Elipse_3966" data-name="Elipse 3966" cx="1.438" cy="1.438" r="1.438" transform="translate(870.737 3903.701)" fill="#bf3976" stroke="#666" stroke-linecap="round" stroke-linejoin="round" stroke-width="1"/>
    <circle id="Elipse_3967" data-name="Elipse 3967" cx="1.438" cy="1.438" r="1.438" transform="translate(907.387 4211.885)" fill="#bf3976" stroke="#666" stroke-linecap="round" stroke-linejoin="round" stroke-width="1"/>
    <circle id="Elipse_3968" data-name="Elipse 3968" cx="1.438" cy="1.438" r="1.438" transform="translate(836.795 4208.193)" fill="#bf3976" stroke="#666" stroke-linecap="round" stroke-linejoin="round" stroke-width="1"/>
    <circle id="Elipse_3969" data-name="Elipse 3969" cx="1.438" cy="1.438" r="1.438" transform="translate(840.055 3926.257)" fill="#bf3976" stroke="#666" stroke-linecap="round" stroke-linejoin="round" stroke-width="1"/>
    <circle id="Elipse_3970" data-name="Elipse 3970" cx="1.438" cy="1.438" r="1.438" transform="translate(823.563 3939.88)" fill="#bf3976" stroke="#666" stroke-linecap="round" stroke-linejoin="round" stroke-width="1"/>
    <path id="Trazado_100807" data-name="Trazado 100807" d="M803.514,3969.448l4.6,4.7,4.539-4.89-4.539,1.438Z" transform="translate(61.247 16.586)" fill="#bf3976" stroke="#666" stroke-linecap="round" stroke-linejoin="round" stroke-width="1"/>
    <rect id="Rectángulo_5186" data-name="Rectángulo 5186" width="79.006" height="21.672" rx="9.043" transform="translate(919.432 3892.893)" fill="#bf3976"/>
    <text id="Centro_del_puño_o_Manubrio_external" data-name="Centro del puño o
Manubrio external" transform="translate(950.958 3900.03)" fill="#fff" font-size="6" font-family="Roboto-Regular, Roboto"><tspan x="-23.525" y="0">Centro del puño o</tspan><tspan x="-24.116" y="8">Manubrio external</tspan></text>
    <rect id="Rectángulo_5187" data-name="Rectángulo 5187" width="32.887" height="13.807" rx="3.308" transform="translate(952.766 3932.486)" fill="#bf3976"/>
    <text id="Pezón" transform="translate(966.183 3939.927)" fill="#fff" font-size="6" font-family="Roboto-Regular, Roboto"><tspan x="-8.292" y="0">Pezón</tspan></text>
    <g id="Grupo_53714" data-name="Grupo 53714" transform="translate(918.259 4022.353)">
      <rect id="Rectángulo_5188" data-name="Rectángulo 5188" width="66.429" height="13.807" rx="3.308" fill="#bf3976"/>
      <text id="Zona_perineal" data-name="Zona perineal" transform="translate(28.059 7.441)" fill="#fff" font-size="6" font-family="Roboto-Regular, Roboto"><tspan x="-18.126" y="0">Zona perineal</tspan></text>
    </g>
    <g id="Grupo_53715" data-name="Grupo 53715" transform="translate(735.465 4201.291)">
      <rect id="Rectángulo_5189" data-name="Rectángulo 5189" width="66.429" height="13.807" rx="3.308" fill="#bf3976"/>
      <text id="Maleolo_exterior" data-name="Maleolo exterior" transform="translate(27.648 7.441)" fill="#fff" font-size="6" font-family="Roboto-Regular, Roboto"><tspan x="-21.576" y="0">Maleolo exterior</tspan></text>
    </g>
    <g id="Grupo_53716" data-name="Grupo 53716" transform="translate(949.183 4206.419)">
      <rect id="Rectángulo_5190" data-name="Rectángulo 5190" width="66.429" height="13.807" rx="3.308" fill="#bf3976"/>
      <text id="Maleolo_interior" data-name="Maleolo interior" transform="translate(26.648 7.442)" fill="#fff" font-size="6" font-family="Roboto-Regular, Roboto"><tspan x="-20.883" y="0">Maleolo interior</tspan></text>
    </g>
    <g id="Grupo_53717" data-name="Grupo 53717" transform="translate(733.26 3894.52)">
      <rect id="Rectángulo_5191" data-name="Rectángulo 5191" width="66.429" height="13.807" rx="3.308" transform="translate(0)" fill="#bf3976"/>
      <text id="Punto_acromio" data-name="Punto acromio" transform="translate(27.854 7.441)" fill="#fff" font-size="6" font-family="Roboto-Regular, Roboto"><tspan x="-19.573" y="0">Punto acromio</tspan></text>
    </g>
    <g id="Grupo_53718" data-name="Grupo 53718" transform="translate(740.163 3936.659)">
      <rect id="Rectángulo_5192" data-name="Rectángulo 5192" width="37.377" height="13.807" rx="3.308" fill="#bf3976"/>
      <text id="Biceps" transform="translate(15.559 7.442)" fill="#fff" font-size="6" font-family="Roboto-Regular, Roboto"><tspan x="-8.985" y="0">Biceps</tspan></text>
    </g>
    <g id="Grupo_53719" data-name="Grupo 53719" transform="translate(725.637 3911.115)">
      <rect id="Rectángulo_5193" data-name="Rectángulo 5193" width="66.429" height="21.673" rx="3.308" fill="#bf3976"/>
      <text id="Pliegues_axiliares_delanteros" data-name="Pliegues axiliares 
delanteros" transform="translate(26.341 7.442)" fill="#fff" font-size="6" font-family="Roboto-Regular, Roboto"><tspan x="-23.955" y="0">Pliegues axiliares </tspan><tspan x="-14.109" y="8">delanteros</tspan></text>
    </g>
    <g id="Grupo_53720" data-name="Grupo 53720" transform="translate(629.948 3898.066)">
      <rect id="Rectángulo_5194" data-name="Rectángulo 5194" width="66.429" height="21.673" rx="3.308" fill="#bf3976"/>
      <text id="Séptima_vértebra_cervical" data-name="Séptima vértebra
cervical" transform="translate(26.443 7.441)" fill="#fff" font-size="6" font-family="Roboto-Regular, Roboto"><tspan x="-22.717" y="0">Séptima vértebra</tspan><tspan x="-10.313" y="8">cervical</tspan></text>
    </g>
    <g id="Grupo_53721" data-name="Grupo 53721" transform="translate(220.894 3926.426)">
      <rect id="Rectángulo_5195" data-name="Rectángulo 5195" width="54.047" height="15.769" rx="3.308" fill="#bf3976"/>
      <text id="Fosa_axilar" data-name="Fosa axilar" transform="translate(23.278 8.544)" fill="#fff" font-size="6" font-family="Roboto-Regular, Roboto"><tspan x="-14.481" y="0">Fosa axilar</tspan></text>
    </g>
    <g id="Grupo_53722" data-name="Grupo 53722" transform="translate(238.676 4127.035)">
      <rect id="Rectángulo_5196" data-name="Rectángulo 5196" width="42.971" height="15.769" rx="3.308" fill="#bf3976"/>
      <text id="Rotula" transform="translate(19.459 8.544)" fill="#fff" font-size="6" font-family="Roboto-Regular, Roboto"><tspan x="-8.552" y="0">Rotula</tspan></text>
    </g>
    <g id="Grupo_53723" data-name="Grupo 53723" transform="translate(272.377 4225.143)">
      <rect id="Rectángulo_5197" data-name="Rectángulo 5197" width="42.971" height="15.769" rx="3.308" fill="#bf3976"/>
      <text id="Empeine" transform="translate(18.048 8.544)" fill="#fff" font-size="6" font-family="Roboto-Regular, Roboto"><tspan x="-11.58" y="0">Empeine</tspan></text>
    </g>
    <g id="Grupo_53724" data-name="Grupo 53724" transform="translate(413.594 4207.695)">
      <rect id="Rectángulo_5198" data-name="Rectángulo 5198" width="36.267" height="15.769" rx="3.308" fill="#bf3976"/>
      <text id="Talón" transform="translate(15.209 8.544)" fill="#fff" font-size="6" font-family="Roboto-Regular, Roboto"><tspan x="-7.351" y="0">Talón</tspan></text>
    </g>
    <g id="Grupo_53725" data-name="Grupo 53725" transform="translate(375.282 4116.646)">
      <rect id="Rectángulo_5199" data-name="Rectángulo 5199" width="65.454" height="15.769" rx="3.308" fill="#bf3976"/>
      <text id="Fosa_popítrea" data-name="Fosa popítrea" transform="translate(27.469 8.544)" fill="#fff" font-size="6" font-family="Roboto-Regular, Roboto"><tspan x="-18.267" y="0">Fosa popítrea</tspan></text>
    </g>
    <g id="Grupo_53726" data-name="Grupo 53726" transform="translate(388.322 4019.742)">
      <rect id="Rectángulo_5200" data-name="Rectángulo 5200" width="65.454" height="23.541" rx="3.308" fill="#bf3976"/>
      <text id="Apófisis_estiloide_del_radio" data-name="Apófisis estiloide
del radio" transform="translate(25.956 8.544)" fill="#fff" font-size="6" font-family="Roboto-Regular, Roboto"><tspan x="-22.869" y="0">Apófisis estiloide</tspan><tspan x="-11.471" y="8">del radio</tspan></text>
    </g>
    <g id="Grupo_53727" data-name="Grupo 53727" transform="translate(452.205 3886.912)">
      <rect id="Rectángulo_5201" data-name="Rectángulo 5201" width="86.113" height="21.673" rx="3.308" fill="#bf3976"/>
      <text id="Fosa_supracavicular_ángulo_cuello-hombro_" data-name="Fosa supracavicular
(ángulo cuello-hombro)" transform="translate(33.259 6.339)" fill="#fff" font-size="6" font-family="Roboto-Regular, Roboto"><tspan x="-26.692" y="0">Fosa supracavicular</tspan><tspan x="-31.055" y="8">(ángulo cuello-hombro)</tspan></text>
    </g>
    <g id="Grupo_53728" data-name="Grupo 53728" transform="translate(439.861 3912.637)">
      <rect id="Rectángulo_5202" data-name="Rectángulo 5202" width="68.159" height="21.673" rx="3.308" fill="#bf3976"/>
      <text id="Pliegue_posterior_post-axilar" data-name="Pliegue posterior
post-axilar" transform="translate(27.308 6.339)" fill="#fff" font-size="6" font-family="Roboto-Regular, Roboto"><tspan x="-22.586" y="0">Pliegue posterior</tspan><tspan x="-13.97" y="8">post-axilar</tspan></text>
    </g>
    <g id="Grupo_53729" data-name="Grupo 53729" transform="translate(427.683 3948.716)">
      <rect id="Rectángulo_5203" data-name="Rectángulo 5203" width="55.696" height="21.673" rx="3.308" fill="#bf3976"/>
      <text id="Hueso_olio_craneano" data-name="Hueso olio
craneano" transform="translate(23.103 6.339)" fill="#fff" font-size="6" font-family="Roboto-Regular, Roboto"><tspan x="-14.26" y="0">Hueso olio</tspan><tspan x="-12.401" y="8">craneano</tspan></text>
    </g>
    <g id="Grupo_53730" data-name="Grupo 53730" transform="translate(439.977 3980.764)">
      <rect id="Rectángulo_5204" data-name="Rectángulo 5204" width="67.926" height="21.673" rx="3.308" fill="#bf3976"/>
      <text id="Apófisis_estilolde_del_cúbito" data-name="Apófisis estilolde
del cúbito" transform="translate(27.191 6.339)" fill="#fff" font-size="6" font-family="Roboto-Regular, Roboto"><tspan x="-22.869" y="0">Apófisis estilolde</tspan><tspan x="-13.049" y="8">del cúbito</tspan></text>
    </g>
    <g id="Grupo_53731" data-name="Grupo 53731" transform="translate(206.719 3972.134)">
      <rect id="Rectángulo_5205" data-name="Rectángulo 5205" width="67.926" height="21.673" rx="3.308" fill="#bf3976"/>
      <text id="Terminación_de_la_reja_costal" data-name="Terminación de la 
reja costal" transform="translate(28.089 6.339)" fill="#fff" font-size="6" font-family="Roboto-Regular, Roboto"><tspan x="-24.428" y="0">Terminación de la </tspan><tspan x="-13.835" y="8">reja costal</tspan></text>
    </g>
    <g id="Grupo_53732" data-name="Grupo 53732" transform="translate(632.802 3969.808)">
      <rect id="Rectángulo_5206" data-name="Rectángulo 5206" width="92.132" height="21.673" rx="3.308" transform="translate(0)" fill="#bf3976"/>
      <text id="Promontorio_de_inicio_de_las_vertebras_lumbares" data-name="Promontorio de inicio de 
las vertebras lumbares" transform="translate(37.412 7.442)" fill="#fff" font-size="6" font-family="Roboto-Regular, Roboto"><tspan x="-33.354" y="0">Promontorio de inicio de </tspan><tspan x="-30.341" y="8">las vertebras lumbares</tspan></text>
    </g>
    <g id="Grupo_53733" data-name="Grupo 53733" transform="translate(731.797 3975.01)">
      <rect id="Rectángulo_5207" data-name="Rectángulo 5207" width="80.62" height="21.673" rx="3.308" transform="translate(0)" fill="#bf3976"/>
      <text id="Cintura_centro_frente_zona_umbilical_" data-name="Cintura centro frente
(zona umbilical)" transform="translate(33.025 7.442)" fill="#fff" font-size="6" font-family="Roboto-Regular, Roboto"><tspan x="-27.378" y="0">Cintura centro frente</tspan><tspan x="-21.353" y="8">(zona umbilical)</tspan></text>
    </g>
    <line id="Línea_206" data-name="Línea 206" y2="110.167" transform="translate(584.684 3908.902)" fill="none" stroke="#666" stroke-linecap="round" stroke-linejoin="round" stroke-width="1"/>
    <line id="Línea_207" data-name="Línea 207" x1="53.659" transform="translate(555.397 3928.462)" fill="none" stroke="#666" stroke-linecap="round" stroke-linejoin="round" stroke-width="1"/>
    <circle id="Elipse_3971" data-name="Elipse 3971" cx="1.438" cy="1.438" r="1.438" transform="translate(583.246 3907.464)" fill="#bf3976" stroke="#666" stroke-linecap="round" stroke-linejoin="round" stroke-width="1"/>
    <circle id="Elipse_3972" data-name="Elipse 3972" cx="1.438" cy="1.438" r="1.438" transform="translate(607.887 3927.024)" fill="#bf3976" stroke="#666" stroke-linecap="round" stroke-linejoin="round" stroke-width="1"/>
    <circle id="Elipse_3973" data-name="Elipse 3973" cx="1.438" cy="1.438" r="1.438" transform="translate(554.002 3927.024)" fill="#bf3976" stroke="#666" stroke-linecap="round" stroke-linejoin="round" stroke-width="1"/>
    <circle id="Elipse_3974" data-name="Elipse 3974" cx="1.438" cy="1.438" r="1.438" transform="translate(545.893 3990.043)" fill="#bf3976" stroke="#666" stroke-linecap="round" stroke-linejoin="round" stroke-width="1"/>
    <circle id="Elipse_3975" data-name="Elipse 3975" cx="1.438" cy="1.438" r="1.438" transform="translate(512.057 3959.553)" fill="#bf3976" stroke="#666" stroke-linecap="round" stroke-linejoin="round" stroke-width="1"/>
    <circle id="Elipse_3976" data-name="Elipse 3976" cx="1.438" cy="1.438" r="1.438" transform="translate(571.823 3899.148)" fill="#bf3976" stroke="#666" stroke-linecap="round" stroke-linejoin="round" stroke-width="1"/>
    <circle id="Elipse_3977" data-name="Elipse 3977" cx="1.438" cy="1.438" r="1.438" transform="translate(609.095 4014.778)" fill="#bf3976" stroke="#666" stroke-linecap="round" stroke-linejoin="round" stroke-width="1"/>
    <circle id="Elipse_3978" data-name="Elipse 3978" cx="1.438" cy="1.438" r="1.438" transform="translate(583.215 3979.207)" fill="#bf3976" stroke="#666" stroke-linecap="round" stroke-linejoin="round" stroke-width="1"/>
    <path id="Trazado_100808" data-name="Trazado 100808" d="M545.332,3998.8l4.6,4.7,4.539-4.89-4.539,1.438Z" transform="translate(34.751 19.597)" fill="#bf3976" stroke="#666" stroke-linecap="round" stroke-linejoin="round" stroke-width="1"/>
    <line id="Línea_208" data-name="Línea 208" y2="110.167" transform="translate(584.684 3908.902)" fill="none" stroke="#666" stroke-linecap="round" stroke-linejoin="round" stroke-width="1"/>
    <circle id="Elipse_3979" data-name="Elipse 3979" cx="1.438" cy="1.438" r="1.438" transform="translate(609.095 4014.778)" fill="#bf3976" stroke="#666" stroke-linecap="round" stroke-linejoin="round" stroke-width="1"/>
    <path id="Trazado_100809" data-name="Trazado 100809" d="M545.332,3998.8l4.6,4.7,4.539-4.89-4.539,1.438Z" transform="translate(34.751 19.597)" fill="#bf3976" stroke="#666" stroke-linecap="round" stroke-linejoin="round" stroke-width="1"/>
    <line id="Línea_209" data-name="Línea 209" y2="47.317" transform="translate(342.195 3935.653)" fill="none" stroke="#666" stroke-linecap="round" stroke-linejoin="round" stroke-width="1"/>
    <circle id="Elipse_3980" data-name="Elipse 3980" cx="1.438" cy="1.438" r="1.438" transform="translate(345.326 4031.512)" fill="#bf3976" stroke="#666" stroke-linecap="round" stroke-linejoin="round" stroke-width="1"/>
    <circle id="Elipse_3981" data-name="Elipse 3981" cx="1.438" cy="1.438" r="1.438" transform="translate(335.529 4122.839)" fill="#bf3976" stroke="#666" stroke-linecap="round" stroke-linejoin="round" stroke-width="1"/>
    <circle id="Elipse_3982" data-name="Elipse 3982" cx="1.438" cy="1.438" r="1.438" transform="translate(318.812 4132.763)" fill="#bf3976" stroke="#666" stroke-linecap="round" stroke-linejoin="round" stroke-width="1"/>
    <circle id="Elipse_3983" data-name="Elipse 3983" cx="1.438" cy="1.438" r="1.438" transform="translate(382.225 4215.076)" fill="#bf3976" stroke="#666" stroke-linecap="round" stroke-linejoin="round" stroke-width="1"/>
    <circle id="Elipse_3984" data-name="Elipse 3984" cx="1.438" cy="1.438" r="1.438" transform="translate(334.646 4231.588)" fill="#bf3976" stroke="#666" stroke-linecap="round" stroke-linejoin="round" stroke-width="1"/>
    <circle id="Elipse_3985" data-name="Elipse 3985" cx="1.438" cy="1.438" r="1.438" transform="translate(340.757 3933.375)" fill="#bf3976" stroke="#666" stroke-linecap="round" stroke-linejoin="round" stroke-width="1"/>
    <line id="Línea_210" data-name="Línea 210" x1="58.181" transform="translate(281.569 3934.311)" fill="none" stroke="#bf3976" stroke-linecap="round" stroke-linejoin="round" stroke-width="1"/>
    <path id="Trazado_100810" data-name="Trazado 100810" d="M275.146,3920.065v5.417l-5.849-2.373Z" transform="translate(6.422 11.536)" fill="#bf3976"/>
    <line id="Línea_211" data-name="Línea 211" x1="58.181" transform="translate(282.288 3983.449)" fill="none" stroke="#bf3976" stroke-linecap="round" stroke-linejoin="round" stroke-width="1"/>
    <path id="Trazado_100811" data-name="Trazado 100811" d="M275.8,3964.63v5.417l-5.849-2.373Z" transform="translate(6.489 16.11)" fill="#bf3976"/>
    <line id="Línea_212" data-name="Línea 212" x1="31.28" transform="translate(288.143 4134.201)" fill="none" stroke="#bf3976" stroke-linecap="round" stroke-linejoin="round" stroke-width="1"/>
    <path id="Trazado_100812" data-name="Trazado 100812" d="M281.109,4101.351v5.417l-5.849-2.373Z" transform="translate(7.034 30.142)" fill="#bf3976"/>
    <line id="Línea_213" data-name="Línea 213" x1="12.856" transform="translate(322.269 4233.026)" fill="none" stroke="#bf3976" stroke-linecap="round" stroke-linejoin="round" stroke-width="1"/>
    <path id="Trazado_100813" data-name="Trazado 100813" d="M312.059,4190.978v5.417l-5.849-2.373Z" transform="translate(10.211 39.34)" fill="#bf3976"/>
    <line id="Línea_214" data-name="Línea 214" x2="22.732" transform="translate(383.663 4216.131)" fill="none" stroke="#bf3976" stroke-linecap="round" stroke-linejoin="round" stroke-width="1"/>
    <path id="Trazado_100814" data-name="Trazado 100814" d="M387.81,4175.655v5.417l5.849-2.374Z" transform="translate(18.585 37.767)" fill="#bf3976"/>
    <line id="Línea_215" data-name="Línea 215" x2="30.953" transform="translate(337.413 4124.337)" fill="none" stroke="#bf3976" stroke-linecap="round" stroke-linejoin="round" stroke-width="1"/>
    <path id="Trazado_100815" data-name="Trazado 100815" d="M353.32,4092.405v5.417l5.849-2.373Z" transform="translate(15.045 29.223)" fill="#bf3976"/>
    <line id="Línea_216" data-name="Línea 216" x2="30.953" transform="translate(349.11 4032.951)" fill="none" stroke="#bf3976" stroke-linecap="round" stroke-linejoin="round" stroke-width="1"/>
    <path id="Trazado_100816" data-name="Trazado 100816" d="M363.929,4009.524v5.417l5.849-2.373Z" transform="translate(16.134 20.718)" fill="#bf3976"/>
    <path id="Trazado_100817" data-name="Trazado 100817" d="M325.441,3966.056l4.6,4.7,4.539-4.89-4.539,1.438Z" transform="translate(12.184 16.237)" fill="#bf3976" stroke="#666" stroke-linecap="round" stroke-linejoin="round" stroke-width="1"/>
  </g>
</svg>
