<svg xmlns="http://www.w3.org/2000/svg" xmlns:xlink="http://www.w3.org/1999/xlink" width="426.015" height="397.827" viewBox="0 0 426.015 397.827">
  <defs>
    <clipPath id="clip-path">
      <circle id="Elipse_3963" data-name="Elipse 3963" cx="164.359" cy="164.359" r="164.359" transform="translate(825.824 3378.284)" fill="none"/>
    </clipPath>
  </defs>
  <g id="Grupo_54823" data-name="Grupo 54823" transform="translate(-277.164 -6014.909)">
    <path id="Trazado_105629" data-name="Trazado 105629" d="M48.982,12.965H43.592v3.4h6.367V19H40.164V4.781h9.814V7.428H43.592v3h5.391Zm5.762-4.531V19.361a3.836,3.836,0,0,1-1.074,2.891A4.127,4.127,0,0,1,50.7,23.268a7.009,7.009,0,0,1-1.553-.166v-2.49a6.3,6.3,0,0,0,.928.088,1.2,1.2,0,0,0,1.367-1.357V8.434ZM51.2,5.7a1.482,1.482,0,0,1,.508-1.159,2.149,2.149,0,0,1,2.637,0A1.482,1.482,0,0,1,54.852,5.7a1.482,1.482,0,0,1-.508,1.159,2.149,2.149,0,0,1-2.637,0A1.482,1.482,0,0,1,51.2,5.7ZM61.717,19.2a5.432,5.432,0,0,1-3.936-1.45,5.008,5.008,0,0,1-1.5-3.774V13.7a6.489,6.489,0,0,1,.6-2.861,4.395,4.395,0,0,1,1.753-1.919,5.292,5.292,0,0,1,2.734-.679A4.574,4.574,0,0,1,64.881,9.62a5.43,5.43,0,0,1,1.289,3.853v1.279H59.627a2.372,2.372,0,0,0,.771,1.4,2.3,2.3,0,0,0,1.543.508,2.958,2.958,0,0,0,2.441-1.094l1.5,1.777a4.2,4.2,0,0,1-1.743,1.353A5.891,5.891,0,0,1,61.717,19.2Zm-.371-8.418q-1.445,0-1.719,1.914h3.32v-.254a1.63,1.63,0,0,0-.4-1.226A1.593,1.593,0,0,0,61.346,10.777ZM70.6,8.434l.107,1.24a3.633,3.633,0,0,1,3.018-1.436A2.675,2.675,0,0,1,76.434,9.83a3.517,3.517,0,0,1,3.105-1.592q3.213,0,3.3,3.887V19h-3.3V12.33a2.014,2.014,0,0,0-.273-1.182,1.164,1.164,0,0,0-1-.371,1.559,1.559,0,0,0-1.455.869l.01.137V19h-3.3V12.35a2.117,2.117,0,0,0-.264-1.2,1.161,1.161,0,0,0-1.006-.371,1.578,1.578,0,0,0-1.445.869V19H67.518V8.434Zm23.926,5.361a6.372,6.372,0,0,1-1.108,3.931,3.554,3.554,0,0,1-2.993,1.47,3.046,3.046,0,0,1-2.393-1.064v4.932H84.744V8.434H87.82l.1.977a3.046,3.046,0,0,1,2.49-1.172,3.582,3.582,0,0,1,3.037,1.44,6.45,6.45,0,0,1,1.084,3.96Zm-3.291-.205q0-2.812-1.641-2.812a1.549,1.549,0,0,0-1.562.84v4.16a1.6,1.6,0,0,0,1.582.879q1.572,0,1.621-2.715ZM99.451,19h-3.3V4h3.3Zm1.611-5.381a6.236,6.236,0,0,1,.615-2.817,4.4,4.4,0,0,1,1.768-1.9,5.323,5.323,0,0,1,2.705-.664,4.858,4.858,0,0,1,3.74,1.47,5.64,5.64,0,0,1,1.367,4v.117a5.472,5.472,0,0,1-1.372,3.921,4.871,4.871,0,0,1-3.716,1.45,4.927,4.927,0,0,1-3.623-1.353,5.29,5.29,0,0,1-1.475-3.667Zm3.291.205a3.932,3.932,0,0,0,.459,2.148,1.529,1.529,0,0,0,1.357.684q1.758,0,1.8-2.705v-.332q0-2.842-1.816-2.842-1.65,0-1.787,2.451Zm12.92-.186a6.455,6.455,0,0,1,1.084-3.955,3.568,3.568,0,0,1,3.027-1.445,3.035,3.035,0,0,1,2.383,1.113V4h3.3V19h-2.959l-.166-1.133a3.116,3.116,0,0,1-2.578,1.328,3.562,3.562,0,0,1-2.988-1.445A6.659,6.659,0,0,1,117.273,13.639Zm3.291.205q0,2.813,1.641,2.813a1.62,1.62,0,0,0,1.563-.918V11.715a1.576,1.576,0,0,0-1.543-.937q-1.523,0-1.65,2.461ZM134.051,19.2a5.432,5.432,0,0,1-3.936-1.45,5.008,5.008,0,0,1-1.5-3.774V13.7a6.489,6.489,0,0,1,.6-2.861,4.395,4.395,0,0,1,1.753-1.919,5.292,5.292,0,0,1,2.734-.679,4.574,4.574,0,0,1,3.516,1.382,5.43,5.43,0,0,1,1.289,3.853v1.279h-6.543a2.372,2.372,0,0,0,.771,1.4,2.3,2.3,0,0,0,1.543.508,2.958,2.958,0,0,0,2.441-1.094l1.5,1.777a4.2,4.2,0,0,1-1.743,1.353A5.891,5.891,0,0,1,134.051,19.2Zm-.371-8.418q-1.445,0-1.719,1.914h3.32v-.254a1.63,1.63,0,0,0-.4-1.226A1.593,1.593,0,0,0,133.68,10.777ZM149.92,19.2a5.432,5.432,0,0,1-3.936-1.45,5.008,5.008,0,0,1-1.5-3.774V13.7a6.489,6.489,0,0,1,.6-2.861,4.395,4.395,0,0,1,1.753-1.919,5.292,5.292,0,0,1,2.734-.679,4.574,4.574,0,0,1,3.516,1.382,5.43,5.43,0,0,1,1.289,3.853v1.279H147.83a2.372,2.372,0,0,0,.771,1.4,2.3,2.3,0,0,0,1.543.508,2.958,2.958,0,0,0,2.441-1.094l1.5,1.777a4.2,4.2,0,0,1-1.743,1.353A5.891,5.891,0,0,1,149.92,19.2Zm-.371-8.418q-1.445,0-1.719,1.914h3.32v-.254a1.63,1.63,0,0,0-.4-1.226A1.593,1.593,0,0,0,149.549,10.777Zm11.68,5.254a.76.76,0,0,0-.439-.674,6.685,6.685,0,0,0-1.67-.527,7.615,7.615,0,0,1-2.031-.718,3.4,3.4,0,0,1-1.221-1.079,2.577,2.577,0,0,1-.42-1.455,2.92,2.92,0,0,1,1.2-2.4,4.948,4.948,0,0,1,3.145-.942,5.482,5.482,0,0,1,3.359.947,2.962,2.962,0,0,1,1.27,2.49h-3.3q0-1.27-1.338-1.27a1.326,1.326,0,0,0-.869.288.892.892,0,0,0-.352.718.819.819,0,0,0,.43.713,4.06,4.06,0,0,0,1.372.449,11.857,11.857,0,0,1,1.655.42,3.007,3.007,0,0,1,2.383,2.939,2.767,2.767,0,0,1-1.284,2.354,5.632,5.632,0,0,1-3.325.908,5.747,5.747,0,0,1-2.422-.488,4.05,4.05,0,0,1-1.66-1.328,3.007,3.007,0,0,1-.6-1.768h3.076a1.272,1.272,0,0,0,.488,1.069,2.009,2.009,0,0,0,1.2.337,1.58,1.58,0,0,0,1.011-.273A.875.875,0,0,0,161.229,16.031Zm9.18.625a1.464,1.464,0,0,0,1.074-.376,1.379,1.379,0,0,0,.371-1.05h3.086a3.653,3.653,0,0,1-1.245,2.852,4.631,4.631,0,0,1-3.208,1.113,4.689,4.689,0,0,1-3.633-1.445,5.7,5.7,0,0,1-1.328-4v-.137a6.436,6.436,0,0,1,.591-2.827,4.3,4.3,0,0,1,1.7-1.885,5.081,5.081,0,0,1,2.637-.659,4.573,4.573,0,0,1,3.271,1.143,4.053,4.053,0,0,1,1.211,3.1h-3.086a1.807,1.807,0,0,0-.4-1.26,1.382,1.382,0,0,0-1.074-.439q-1.279,0-1.494,1.631a11.507,11.507,0,0,0-.068,1.426,4.52,4.52,0,0,0,.381,2.207A1.319,1.319,0,0,0,170.408,16.656ZM182.283,19a3.716,3.716,0,0,1-.312-.947,3.06,3.06,0,0,1-2.539,1.143,3.749,3.749,0,0,1-2.539-.9,2.875,2.875,0,0,1-1.045-2.271,2.955,2.955,0,0,1,1.27-2.6,6.468,6.468,0,0,1,3.691-.879h1.016v-.559q0-1.462-1.26-1.462a1.03,1.03,0,0,0-1.172,1.158H176.1a2.95,2.95,0,0,1,1.3-2.487,5.479,5.479,0,0,1,3.325-.956,4.8,4.8,0,0,1,3.193.986,3.429,3.429,0,0,1,1.2,2.705v4.678a4.79,4.79,0,0,0,.449,2.227V19Zm-2.061-2.148a1.836,1.836,0,0,0,1.021-.264,1.653,1.653,0,0,0,.581-.6V14.3h-.957q-1.719,0-1.719,1.543a.942.942,0,0,0,.3.728A1.1,1.1,0,0,0,180.223,16.852ZM190.418,19h-3.3V4h3.3Zm7.979,0a3.716,3.716,0,0,1-.312-.947,3.06,3.06,0,0,1-2.539,1.143,3.749,3.749,0,0,1-2.539-.9,2.875,2.875,0,0,1-1.045-2.271,2.955,2.955,0,0,1,1.27-2.6,6.468,6.468,0,0,1,3.691-.879h1.016v-.559q0-1.462-1.26-1.462a1.03,1.03,0,0,0-1.172,1.158h-3.291a2.95,2.95,0,0,1,1.3-2.487,5.479,5.479,0,0,1,3.325-.956,4.8,4.8,0,0,1,3.193.986,3.429,3.429,0,0,1,1.2,2.705v4.678a4.79,4.79,0,0,0,.449,2.227V19Zm-2.061-2.148a1.836,1.836,0,0,0,1.021-.264,1.653,1.653,0,0,0,.581-.6V14.3h-.957q-1.719,0-1.719,1.543a.942.942,0,0,0,.3.728A1.1,1.1,0,0,0,196.336,16.852Zm6.309-3.213a6.455,6.455,0,0,1,1.084-3.955,3.568,3.568,0,0,1,3.027-1.445,3.035,3.035,0,0,1,2.383,1.113V4h3.3V19H209.48l-.166-1.133a3.116,3.116,0,0,1-2.578,1.328,3.562,3.562,0,0,1-2.988-1.445A6.659,6.659,0,0,1,202.645,13.639Zm3.291.205q0,2.813,1.641,2.813a1.62,1.62,0,0,0,1.563-.918V11.715a1.576,1.576,0,0,0-1.543-.937q-1.523,0-1.65,2.461Zm7.959-.225a6.236,6.236,0,0,1,.615-2.817,4.4,4.4,0,0,1,1.768-1.9,5.323,5.323,0,0,1,2.705-.664,4.858,4.858,0,0,1,3.74,1.47,5.64,5.64,0,0,1,1.367,4v.117a5.472,5.472,0,0,1-1.372,3.921A4.871,4.871,0,0,1,219,19.2a4.927,4.927,0,0,1-3.623-1.353,5.29,5.29,0,0,1-1.475-3.667Zm3.291.205a3.932,3.932,0,0,0,.459,2.148,1.529,1.529,0,0,0,1.357.684q1.758,0,1.8-2.705v-.332q0-2.842-1.816-2.842-1.65,0-1.787,2.451Zm12.92-.186a6.455,6.455,0,0,1,1.084-3.955,3.568,3.568,0,0,1,3.027-1.445A3.035,3.035,0,0,1,236.6,9.352V4h3.3V19h-2.959l-.166-1.133A3.116,3.116,0,0,1,234.2,19.2a3.562,3.562,0,0,1-2.988-1.445A6.659,6.659,0,0,1,230.105,13.639Zm3.291.205q0,2.813,1.641,2.813a1.62,1.62,0,0,0,1.563-.918V11.715a1.576,1.576,0,0,0-1.543-.937q-1.523,0-1.65,2.461ZM246.883,19.2a5.432,5.432,0,0,1-3.936-1.45,5.008,5.008,0,0,1-1.5-3.774V13.7a6.489,6.489,0,0,1,.6-2.861A4.395,4.395,0,0,1,243.8,8.917a5.292,5.292,0,0,1,2.734-.679,4.574,4.574,0,0,1,3.516,1.382,5.43,5.43,0,0,1,1.289,3.853v1.279h-6.543a2.372,2.372,0,0,0,.771,1.4,2.3,2.3,0,0,0,1.543.508,2.958,2.958,0,0,0,2.441-1.094l1.5,1.777a4.2,4.2,0,0,1-1.743,1.353A5.891,5.891,0,0,1,246.883,19.2Zm-.371-8.418q-1.445,0-1.719,1.914h3.32v-.254a1.63,1.63,0,0,0-.4-1.226A1.593,1.593,0,0,0,246.512,10.777ZM256.131,19h-3.3V4h3.3Zm16.816-5.205a6.372,6.372,0,0,1-1.108,3.931,3.554,3.554,0,0,1-2.993,1.47,3.046,3.046,0,0,1-2.393-1.064v4.932h-3.291V8.434h3.076l.1.977a3.046,3.046,0,0,1,2.49-1.172,3.582,3.582,0,0,1,3.037,1.44,6.45,6.45,0,0,1,1.084,3.96Zm-3.291-.205q0-2.812-1.641-2.812a1.549,1.549,0,0,0-1.562.84v4.16a1.6,1.6,0,0,0,1.582.879q1.572,0,1.621-2.715Zm11.035,4.268a3.393,3.393,0,0,1-2.822,1.338,3.328,3.328,0,0,1-2.632-1.011,4.251,4.251,0,0,1-.894-2.905V8.434h3.291V15.3a1.183,1.183,0,0,0,1.318,1.357,1.72,1.72,0,0,0,1.611-.811V8.434h3.311V19h-3.086ZM288.7,8.434l.107,1.24a3.583,3.583,0,0,1,3.018-1.436,3.015,3.015,0,0,1,2.466.986,4.7,4.7,0,0,1,.845,2.969V19h-3.3V12.33a1.783,1.783,0,0,0-.322-1.177,1.491,1.491,0,0,0-1.172-.376,1.569,1.569,0,0,0-1.436.762V19h-3.291V8.434Zm12.09-2.627V8.434h1.738v2.285h-1.738v4.834a1.234,1.234,0,0,0,.215.83,1.152,1.152,0,0,0,.85.234,4.828,4.828,0,0,0,.82-.059v2.354a6.074,6.074,0,0,1-1.855.283,3.448,3.448,0,0,1-2.51-.8,3.282,3.282,0,0,1-.811-2.432V10.719H296.15V8.434H297.5V5.807Zm2.324,7.813a6.236,6.236,0,0,1,.615-2.817A4.4,4.4,0,0,1,305.5,8.9a5.323,5.323,0,0,1,2.705-.664,4.859,4.859,0,0,1,3.74,1.47,5.64,5.64,0,0,1,1.367,4v.117a5.472,5.472,0,0,1-1.372,3.921,4.871,4.871,0,0,1-3.716,1.45,4.927,4.927,0,0,1-3.623-1.353,5.29,5.29,0,0,1-1.475-3.667Zm3.291.205a3.931,3.931,0,0,0,.459,2.148,1.529,1.529,0,0,0,1.357.684q1.758,0,1.8-2.705v-.332q0-2.842-1.816-2.842-1.65,0-1.787,2.451Zm16.553-4.258a3.612,3.612,0,0,1,5.332-.293,4.651,4.651,0,0,1,.908,3.057V19h-3.3V12.408a1.86,1.86,0,0,0-.342-1.235,1.469,1.469,0,0,0-1.162-.4,1.582,1.582,0,0,0-1.436.645V19h-3.291V4h3.291Zm7.656,4.053a6.236,6.236,0,0,1,.615-2.817A4.4,4.4,0,0,1,333,8.9a5.323,5.323,0,0,1,2.705-.664,4.859,4.859,0,0,1,3.74,1.47,5.64,5.64,0,0,1,1.367,4v.117a5.472,5.472,0,0,1-1.372,3.921,4.871,4.871,0,0,1-3.716,1.45,4.927,4.927,0,0,1-3.623-1.353,5.29,5.29,0,0,1-1.475-3.667Zm3.291.205a3.931,3.931,0,0,0,.459,2.148,1.529,1.529,0,0,0,1.357.684q1.758,0,1.8-2.705v-.332q0-2.842-1.816-2.842-1.65,0-1.787,2.451Zm11.465-5.391.107,1.24a3.633,3.633,0,0,1,3.018-1.436A2.675,2.675,0,0,1,351.2,9.83,3.517,3.517,0,0,1,354.3,8.238q3.213,0,3.3,3.887V19h-3.3V12.33a2.014,2.014,0,0,0-.273-1.182,1.164,1.164,0,0,0-1-.371,1.559,1.559,0,0,0-1.455.869l.01.137V19h-3.3V12.35a2.117,2.117,0,0,0-.264-1.2,1.161,1.161,0,0,0-1.006-.371,1.578,1.578,0,0,0-1.445.869V19h-3.291V8.434ZM369.295,13.8a6.44,6.44,0,0,1-1.074,3.994,3.6,3.6,0,0,1-3.027,1.4,3.122,3.122,0,0,1-2.6-1.279L362.459,19H359.51V4H362.8V9.283a3.012,3.012,0,0,1,2.373-1.045,3.6,3.6,0,0,1,3.047,1.416,6.473,6.473,0,0,1,1.074,3.984Zm-3.3-.21a4.3,4.3,0,0,0-.405-2.169,1.366,1.366,0,0,0-1.245-.648,1.576,1.576,0,0,0-1.543.848v4.192a1.585,1.585,0,0,0,1.563.838,1.4,1.4,0,0,0,1.475-1.131A8.122,8.122,0,0,0,365.994,13.595Zm11.143-2.183-1.084-.078a1.947,1.947,0,0,0-1.992.977V19H370.77V8.434h3.086l.107,1.357a2.548,2.548,0,0,1,2.314-1.553,3.209,3.209,0,0,1,.918.117Zm.42,2.207a6.236,6.236,0,0,1,.615-2.817,4.4,4.4,0,0,1,1.768-1.9,5.323,5.323,0,0,1,2.705-.664,4.859,4.859,0,0,1,3.74,1.47,5.64,5.64,0,0,1,1.367,4v.117a5.472,5.472,0,0,1-1.372,3.921,4.871,4.871,0,0,1-3.716,1.45,4.927,4.927,0,0,1-3.623-1.353,5.29,5.29,0,0,1-1.475-3.667Zm3.291.205a3.931,3.931,0,0,0,.459,2.148,1.529,1.529,0,0,0,1.357.684q1.758,0,1.8-2.705v-.332q0-2.842-1.816-2.842-1.65,0-1.787,2.451Zm23.145-.029a6.372,6.372,0,0,1-1.108,3.931,3.554,3.554,0,0,1-2.993,1.47,3.046,3.046,0,0,1-2.393-1.064v4.932h-3.291V8.434h3.076l.1.977a3.046,3.046,0,0,1,2.49-1.172,3.582,3.582,0,0,1,3.037,1.44,6.45,6.45,0,0,1,1.084,3.96ZM400.7,13.59q0-2.812-1.641-2.812a1.549,1.549,0,0,0-1.562.84v4.16a1.6,1.6,0,0,0,1.582.879q1.572,0,1.621-2.715Zm4.326.029a6.236,6.236,0,0,1,.615-2.817,4.4,4.4,0,0,1,1.768-1.9,5.323,5.323,0,0,1,2.705-.664,4.859,4.859,0,0,1,3.74,1.47,5.64,5.64,0,0,1,1.367,4v.117a5.472,5.472,0,0,1-1.372,3.921,4.871,4.871,0,0,1-3.716,1.45,4.927,4.927,0,0,1-3.623-1.353,5.29,5.29,0,0,1-1.475-3.667Zm3.291.205a3.931,3.931,0,0,0,.459,2.148,1.529,1.529,0,0,0,1.357.684q1.758,0,1.8-2.705v-.332q0-2.842-1.816-2.842-1.65,0-1.787,2.451Zm14.746-2.412-1.084-.078a1.947,1.947,0,0,0-1.992.977V19H416.7V8.434h3.086l.107,1.357a2.548,2.548,0,0,1,2.314-1.553,3.209,3.209,0,0,1,.918.117Zm11.7,4.619a.76.76,0,0,0-.439-.674,6.685,6.685,0,0,0-1.67-.527,7.615,7.615,0,0,1-2.031-.718,3.4,3.4,0,0,1-1.221-1.079,2.577,2.577,0,0,1-.42-1.455,2.92,2.92,0,0,1,1.2-2.4,4.948,4.948,0,0,1,3.145-.942,5.482,5.482,0,0,1,3.359.947,2.962,2.962,0,0,1,1.27,2.49h-3.3q0-1.27-1.338-1.27a1.326,1.326,0,0,0-.869.288.892.892,0,0,0-.352.718.819.819,0,0,0,.43.713,4.06,4.06,0,0,0,1.372.449,11.856,11.856,0,0,1,1.655.42,3.007,3.007,0,0,1,2.383,2.939,2.767,2.767,0,0,1-1.284,2.354,5.631,5.631,0,0,1-3.325.908,5.747,5.747,0,0,1-2.422-.488,4.05,4.05,0,0,1-1.66-1.328,3.007,3.007,0,0,1-.6-1.768h3.076a1.272,1.272,0,0,0,.488,1.069,2.009,2.009,0,0,0,1.2.337,1.58,1.58,0,0,0,1.011-.273A.875.875,0,0,0,434.764,16.031ZM442.947,19h-3.3V8.434h3.3Zm-3.5-13.3a1.482,1.482,0,0,1,.508-1.159,2.149,2.149,0,0,1,2.637,0A1.482,1.482,0,0,1,443.1,5.7a1.482,1.482,0,0,1-.508,1.159,2.149,2.149,0,0,1-2.637,0A1.482,1.482,0,0,1,439.451,5.7Zm11.055,10.332a.76.76,0,0,0-.439-.674,6.685,6.685,0,0,0-1.67-.527,7.615,7.615,0,0,1-2.031-.718,3.4,3.4,0,0,1-1.221-1.079,2.577,2.577,0,0,1-.42-1.455,2.92,2.92,0,0,1,1.2-2.4,4.948,4.948,0,0,1,3.145-.942,5.482,5.482,0,0,1,3.359.947,2.962,2.962,0,0,1,1.27,2.49h-3.3q0-1.27-1.338-1.27a1.326,1.326,0,0,0-.869.288.892.892,0,0,0-.352.718.819.819,0,0,0,.43.713,4.06,4.06,0,0,0,1.372.449,11.856,11.856,0,0,1,1.655.42,3.007,3.007,0,0,1,2.383,2.939,2.767,2.767,0,0,1-1.284,2.354,5.631,5.631,0,0,1-3.325.908,5.747,5.747,0,0,1-2.422-.488,4.05,4.05,0,0,1-1.66-1.328,3.007,3.007,0,0,1-.6-1.768h3.076a1.272,1.272,0,0,0,.488,1.069,2.009,2.009,0,0,0,1.2.337,1.58,1.58,0,0,0,1.011-.273A.875.875,0,0,0,450.506,16.031ZM461.17,19a3.716,3.716,0,0,1-.312-.947,3.06,3.06,0,0,1-2.539,1.143,3.749,3.749,0,0,1-2.539-.9,2.875,2.875,0,0,1-1.045-2.271,2.955,2.955,0,0,1,1.27-2.6,6.468,6.468,0,0,1,3.691-.879h1.016v-.559q0-1.462-1.26-1.462a1.03,1.03,0,0,0-1.172,1.158h-3.291a2.95,2.95,0,0,1,1.3-2.487,5.479,5.479,0,0,1,3.325-.956,4.8,4.8,0,0,1,3.193.986,3.429,3.429,0,0,1,1.2,2.705v4.678a4.79,4.79,0,0,0,.449,2.227V19Zm-2.061-2.148a1.836,1.836,0,0,0,1.021-.264,1.653,1.653,0,0,0,.581-.6V14.3h-.957q-1.719,0-1.719,1.543a.942.942,0,0,0,.3.728A1.1,1.1,0,0,0,459.109,16.852Z" transform="translate(237 6389.469)" fill="#12263f"/>
    <g id="Grupo_53711" data-name="Grupo 53711" transform="translate(-451.864 2637.125)">
      <g id="Grupo_53671" data-name="Grupo 53671">
        <g id="Grupo_53670" data-name="Grupo 53670" clip-path="url(#clip-path)">
          <g id="Grupo_53669" data-name="Grupo 53669">
            <g id="Grupo_53652" data-name="Grupo 53652">
              <g id="Grupo_53651" data-name="Grupo 53651">
                <path id="Trazado_100628" data-name="Trazado 100628" d="M916.5,3470.953l.412-2.273-3.86-.7.132-.728,4.668-4.631,1.213.22-.935,5.162,1.163.21-.158.869-1.163-.211-.412,2.274Zm.569-3.143.5-2.773c.078-.434.17-.866.273-1.3l-.038-.008c-.343.44-.612.76-.911,1.1l-2.544,2.456-.005.025Z" fill="#497a53"/>
                <path id="Trazado_100629" data-name="Trazado 100629" d="M925.678,3464.856a4.341,4.341,0,0,0-.854-.089,3.38,3.38,0,0,0-3.42,2.416l.025,0a2.575,2.575,0,0,1,4.213,2.533,2.828,2.828,0,0,1-3.305,2.436c-1.763-.319-2.676-1.91-2.285-4.069a5.248,5.248,0,0,1,2.084-3.489,4.6,4.6,0,0,1,2.88-.746,5.6,5.6,0,0,1,.829.084Zm-3.158,6.436c.958.174,1.756-.513,1.971-1.7a1.716,1.716,0,0,0-1.367-2.215,1.877,1.877,0,0,0-1.807.728,1.048,1.048,0,0,0-.2.465c-.236,1.369.218,2.507,1.393,2.72Z" fill="#497a53"/>
              </g>
            </g>
            <g id="Grupo_53654" data-name="Grupo 53654">
              <g id="Grupo_53653" data-name="Grupo 53653">
                <path id="Trazado_100630" data-name="Trazado 100630" d="M911.8,3490.128l.412-2.274-3.859-.7.132-.728,4.668-4.631,1.213.219-.936,5.163,1.163.21-.157.869-1.163-.211-.412,2.274Zm.57-3.143.5-2.773c.078-.434.17-.866.273-1.295l-.038-.008c-.344.44-.612.76-.911,1.1l-2.544,2.456-.005.025Z" fill="#497a53"/>
                <path id="Trazado_100631" data-name="Trazado 100631" d="M918.357,3491.315l.412-2.274-3.859-.7.132-.729,4.667-4.631,1.214.22-.936,5.162,1.163.211-.157.869-1.163-.211-.412,2.275Zm.569-3.142.5-2.774c.078-.433.17-.866.274-1.3l-.038-.006c-.344.438-.614.759-.912,1.1l-2.543,2.455-.005.027Z" fill="#497a53"/>
              </g>
            </g>
            <g id="Grupo_53656" data-name="Grupo 53656">
              <g id="Grupo_53655" data-name="Grupo 53655">
                <path id="Trazado_100632" data-name="Trazado 100632" d="M905.129,3509.953l.412-2.273-3.86-.7.132-.728,4.668-4.631,1.213.22-.936,5.162,1.164.21-.158.869-1.163-.211-.412,2.274Zm.569-3.143.5-2.773c.078-.434.17-.866.273-1.3l-.038-.008c-.344.44-.612.76-.911,1.1l-2.544,2.456-.005.025Z" fill="#cb4a95"/>
                <path id="Trazado_100633" data-name="Trazado 100633" d="M908.205,3510.511l.125-.69,1.037-.7c2.486-1.634,3.653-2.531,3.88-3.783a1.5,1.5,0,0,0-1.342-1.919,2.877,2.877,0,0,0-1.891.383l-.215-.858a3.757,3.757,0,0,1,2.5-.417,2.372,2.372,0,0,1,2.093,2.874c-.277,1.533-1.615,2.57-3.671,3.941l-.762.5-.005.025,3.718.674-.169.933Z" fill="#cb4a95"/>
              </g>
            </g>
            <g id="Grupo_53658" data-name="Grupo 53658">
              <g id="Grupo_53657" data-name="Grupo 53657">
                <path id="Trazado_100634" data-name="Trazado 100634" d="M898.476,3528.345l.412-2.274-3.859-.7.132-.729,4.668-4.63,1.213.219-.936,5.162,1.163.21-.157.87-1.163-.211-.412,2.274Zm.57-3.143.5-2.773c.078-.434.169-.867.273-1.295l-.038-.008c-.344.439-.612.76-.911,1.1l-2.544,2.456-.005.026Z" fill="#71519e"/>
                <path id="Trazado_100635" data-name="Trazado 100635" d="M904.173,3529.522c-1.624-.294-2.46-2.015-1.987-4.767.507-2.8,2-4.1,3.682-3.793,1.737.314,2.466,2.055,1.986,4.7-.512,2.823-1.855,4.19-3.67,3.861Zm.22-.857c1.138.206,1.929-1.036,2.314-3.157.37-2.044.1-3.479-1.073-3.692-1.021-.185-1.922,1-2.3,3.08-.417,2.156.01,3.579,1.046,3.767Z" fill="#71519e"/>
              </g>
            </g>
            <g id="Grupo_53660" data-name="Grupo 53660">
              <g id="Grupo_53659" data-name="Grupo 53659">
                <path id="Trazado_100636" data-name="Trazado 100636" d="M890.546,3547.486a3.917,3.917,0,0,0,1.746.844,1.654,1.654,0,0,0,2.171-1.269c.2-1.165-.761-1.853-1.847-2.05l-.625-.114.153-.842.625.113c.819.148,1.929-.086,2.107-1.07.121-.665-.195-1.329-1.229-1.516a3.1,3.1,0,0,0-1.761.249l-.157-.874a4.092,4.092,0,0,1,2.3-.243c1.636.3,2.2,1.4,2.019,2.411a2.118,2.118,0,0,1-1.89,1.69l-.005.026a2.175,2.175,0,0,1,1.468,2.457c-.24,1.328-1.5,2.3-3.479,1.942a4.279,4.279,0,0,1-2.058-.954Z"/>
                <path id="Trazado_100637" data-name="Trazado 100637" d="M900.912,3541.962a2.184,2.184,0,0,1,2.057,2.483,2.149,2.149,0,0,1-1.732,1.693l-.007.038a2.352,2.352,0,0,1,1.285,2.45,2.59,2.59,0,0,1-3.26,1.9c-1.739-.314-2.6-1.527-2.381-2.74a2.431,2.431,0,0,1,2.041-1.94l.007-.039a2.083,2.083,0,0,1-.992-2.106,2.366,2.366,0,0,1,2.97-1.745Zm-1.484,7.754a1.528,1.528,0,0,0,1.93-1.181c.181-1-.432-1.622-1.5-2.145a1.847,1.847,0,0,0-1.807,1.454,1.556,1.556,0,0,0,1.365,1.87Zm1.275-6.961a1.343,1.343,0,0,0-1.686,1.067c-.162.828.4,1.392,1.308,1.82a1.663,1.663,0,0,0,1.537-1.279,1.305,1.305,0,0,0-1.147-1.6Z"/>
              </g>
            </g>
            <g id="Grupo_53662" data-name="Grupo 53662">
              <g id="Grupo_53661" data-name="Grupo 53661">
                <path id="Trazado_100638" data-name="Trazado 100638" d="M885.98,3567.965a3.908,3.908,0,0,0,1.746.843,1.653,1.653,0,0,0,2.171-1.268c.2-1.165-.761-1.854-1.847-2.051l-.625-.113.154-.843.625.113c.818.149,1.928-.086,2.106-1.07.121-.664-.194-1.328-1.228-1.516a3.1,3.1,0,0,0-1.761.249l-.157-.874a4.094,4.094,0,0,1,2.3-.243c1.635.3,2.2,1.4,2.018,2.411a2.117,2.117,0,0,1-1.89,1.691l0,.025a2.175,2.175,0,0,1,1.467,2.457c-.24,1.328-1.5,2.3-3.478,1.943a4.293,4.293,0,0,1-2.059-.954Z" fill="#6cac40"/>
                <path id="Trazado_100639" data-name="Trazado 100639" d="M896.346,3562.44a2.185,2.185,0,0,1,2.058,2.484,2.147,2.147,0,0,1-1.732,1.692l-.007.038a2.352,2.352,0,0,1,1.285,2.45,2.592,2.592,0,0,1-3.261,1.9c-1.738-.315-2.6-1.528-2.381-2.741a2.435,2.435,0,0,1,2.041-1.94l.007-.038a2.086,2.086,0,0,1-.991-2.107,2.366,2.366,0,0,1,2.97-1.745Zm-1.483,7.754a1.527,1.527,0,0,0,1.93-1.18c.18-1-.432-1.623-1.5-2.146a1.847,1.847,0,0,0-1.807,1.454,1.554,1.554,0,0,0,1.364,1.87Zm1.274-6.961a1.344,1.344,0,0,0-1.685,1.068c-.162.828.395,1.391,1.307,1.82a1.664,1.664,0,0,0,1.538-1.279,1.307,1.307,0,0,0-1.147-1.606Z" fill="#6cac40"/>
              </g>
            </g>
            <g id="Grupo_53664" data-name="Grupo 53664">
              <g id="Grupo_53663" data-name="Grupo 53663">
                <path id="Trazado_100640" data-name="Trazado 100640" d="M881.632,3587.514a3.915,3.915,0,0,0,1.747.843,1.652,1.652,0,0,0,2.17-1.268c.2-1.165-.76-1.854-1.846-2.051l-.625-.113.153-.843.625.113c.818.149,1.929-.086,2.107-1.07.121-.664-.2-1.328-1.229-1.516a3.1,3.1,0,0,0-1.761.249l-.157-.874a4.1,4.1,0,0,1,2.3-.243c1.636.3,2.2,1.4,2.018,2.411a2.118,2.118,0,0,1-1.889,1.691l-.005.025a2.176,2.176,0,0,1,1.468,2.457c-.241,1.328-1.5,2.3-3.479,1.942a4.271,4.271,0,0,1-2.058-.954Z" fill="#ed6e23"/>
                <path id="Trazado_100641" data-name="Trazado 100641" d="M892,3581.989a2.184,2.184,0,0,1,2.057,2.484,2.147,2.147,0,0,1-1.732,1.692l-.007.038a2.353,2.353,0,0,1,1.285,2.45,2.591,2.591,0,0,1-3.261,1.9c-1.738-.315-2.6-1.528-2.38-2.741a2.432,2.432,0,0,1,2.041-1.94l.006-.038a2.085,2.085,0,0,1-.991-2.107,2.367,2.367,0,0,1,2.97-1.745Zm-1.484,7.754a1.527,1.527,0,0,0,1.93-1.181c.181-1-.432-1.622-1.5-2.145a1.847,1.847,0,0,0-1.807,1.454,1.555,1.555,0,0,0,1.365,1.87Zm1.275-6.961a1.344,1.344,0,0,0-1.686,1.067c-.162.829.4,1.392,1.308,1.821a1.663,1.663,0,0,0,1.537-1.28,1.306,1.306,0,0,0-1.147-1.6Z" fill="#ed6e23"/>
              </g>
            </g>
            <path id="Trazado_100642" data-name="Trazado 100642" d="M1009.236,3719.587c-9.346-42.279,34.932-206.072,37.756-216.434l-203.519-47.187.227-.975,204.531,47.423-.138.5c-.475,1.727-47.431,173.25-37.88,216.454Z" fill="#497a53"/>
            <path id="Trazado_100643" data-name="Trazado 100643" d="M989.7,3739.934c-9.348-42.289,35.371-208.679,38.2-219.126l-203.519-47.187.226-.975,204.53,47.423-.136.5c-.481,1.755-47.875,175.943-38.325,219.148Z" fill="#1caed0"/>
            <path id="Trazado_100644" data-name="Trazado 100644" d="M969.333,3750.021c-9.343-42.26,36.7-202.782,39.682-213.089l-203.51-47.186.226-.975L1010.27,3536.2l-.148.508c-.494,1.693-49.363,169.9-39.813,213.1Z" fill="#cb4a95"/>
            <path id="Trazado_100645" data-name="Trazado 100645" d="M948.141,3767.761c-9.342-42.262,39.212-203.749,42.361-214.139L787,3506.439l.226-.974L991.77,3552.89l-.156.512c-.522,1.7-52.045,170.945-42.5,214.142Z" fill="#71519e"/>
            <path id="Trazado_100646" data-name="Trazado 100646" d="M929.691,3778.231c-9.343-42.263,36.84-191.851,41.573-206.99l-204.653-49.748.473-1.943L973.813,3569.8l-.321,1.019c-.515,1.634-51.368,163.912-41.848,206.978Z"/>
            <path id="Trazado_100647" data-name="Trazado 100647" d="M908.92,3793.413c-9.335-42.229,41.024-195.849,44.381-206.008l-205.163-49.872.237-.972,206.218,50.129-.171.516c-.542,1.623-54.074,162.8-44.526,205.99Z" fill="#6cac40"/>
            <path id="Trazado_100648" data-name="Trazado 100648" d="M886.924,3804.978c-9.329-42.2,44.2-191.355,47.848-201.45L729.623,3553.66l.236-.973,206.235,50.133-.192.526c-.577,1.577-57.548,158.233-48,201.416Z" fill="#ed6e23"/>
            <g id="Grupo_53668" data-name="Grupo 53668">
              <g id="Grupo_53667" data-name="Grupo 53667">
                <path id="Trazado_100649" data-name="Trazado 100649" d="M1048.608,3604.587H934.782V3501.761h113.826Zm-112.826-1h111.826V3502.761H935.782Z" fill="red"/>
                <g id="Grupo_53665" data-name="Grupo 53665">
                  <rect id="Rectángulo_5160" data-name="Rectángulo 5160" width="1" height="101.826" transform="translate(953.695 3502.26)" fill="red"/>
                  <rect id="Rectángulo_5161" data-name="Rectángulo 5161" width="1" height="101.826" transform="translate(972.038 3502.26)" fill="red"/>
                  <rect id="Rectángulo_5162" data-name="Rectángulo 5162" width="1" height="101.826" transform="translate(990.382 3502.26)" fill="red"/>
                  <rect id="Rectángulo_5163" data-name="Rectángulo 5163" width="1" height="101.826" transform="translate(1009.724 3502.26)" fill="red"/>
                  <rect id="Rectángulo_5164" data-name="Rectángulo 5164" width="1" height="101.826" transform="translate(1028.067 3502.26)" fill="red"/>
                </g>
                <g id="Grupo_53666" data-name="Grupo 53666">
                  <rect id="Rectángulo_5165" data-name="Rectángulo 5165" width="112.857" height="1" transform="translate(935.251 3519.152)" fill="red"/>
                  <rect id="Rectángulo_5166" data-name="Rectángulo 5166" width="112.857" height="1" transform="translate(935.251 3536.108)" fill="red"/>
                  <rect id="Rectángulo_5167" data-name="Rectángulo 5167" width="112.857" height="1" transform="translate(935.251 3553.065)" fill="red"/>
                  <rect id="Rectángulo_5168" data-name="Rectángulo 5168" width="112.857" height="1" transform="translate(935.251 3570.021)" fill="red"/>
                  <rect id="Rectángulo_5169" data-name="Rectángulo 5169" width="112.857" height="1" transform="translate(935.251 3586.978)" fill="red"/>
                </g>
              </g>
              <circle id="Elipse_3957" data-name="Elipse 3957" cx="2.717" cy="2.717" r="2.717" transform="translate(951.478 3584.391)" fill="red"/>
              <circle id="Elipse_3958" data-name="Elipse 3958" cx="2.717" cy="2.717" r="2.717" transform="translate(969.821 3567.804)" fill="red"/>
              <circle id="Elipse_3959" data-name="Elipse 3959" cx="2.717" cy="2.717" r="2.717" transform="translate(988.164 3550.848)" fill="red"/>
              <circle id="Elipse_3960" data-name="Elipse 3960" cx="2.717" cy="2.717" r="2.717" transform="translate(1007.007 3534.239)" fill="red"/>
              <circle id="Elipse_3961" data-name="Elipse 3961" cx="2.717" cy="2.717" r="2.717" transform="translate(1025.85 3516.935)" fill="red"/>
              <circle id="Elipse_3962" data-name="Elipse 3962" cx="2.717" cy="2.717" r="2.717" transform="translate(1044.893 3500.065)" fill="red"/>
            </g>
          </g>
        </g>
      </g>
      <path id="Trazado_100650" data-name="Trazado 100650" d="M990.183,3707.5c-90.9,0-164.859-73.956-164.859-164.86s73.956-164.859,164.859-164.859,164.86,73.956,164.86,164.859S1081.087,3707.5,990.183,3707.5Zm0-328.719c-90.352,0-163.859,73.507-163.859,163.859s73.507,163.86,163.859,163.86,163.86-73.507,163.86-163.86S1080.536,3378.784,990.183,3378.784Z"/>
      <g id="Grupo_53709" data-name="Grupo 53709">
        <path id="Trazado_100651" data-name="Trazado 100651" d="M751.124,3692.643a75.644,75.644,0,0,1-11.563-.651l-.238-.04v-87.135l.27-.016c.117-.007,11.745-.861,15.1-17.124l.06-.291,38.733,9.549-.1.293c-.095.292-9.464,29.35-1,41.021,2.324,3.205,5.824,4.831,10.4,4.831h.285v46.373l-.257.026C802.421,3689.518,770.717,3692.643,751.124,3692.643Zm-11.23-1.174c13.5,2.171,58.765-2.159,62.61-2.533v-45.287c-4.633-.067-8.191-1.77-10.579-5.065-8.268-11.406-.209-37.968.829-41.241l-37.562-9.26c-3.229,15.047-13.5,17.027-15.3,17.26Z"/>
        <rect id="Rectángulo_5170" data-name="Rectángulo 5170" width="0.571" height="59.604" transform="translate(770.914 3611.709)"/>
        <g id="Grupo_53672" data-name="Grupo 53672">
          <path id="Trazado_100652" data-name="Trazado 100652" d="M748.306,3650.79h2.9v.584h-2.2v1.791h2.032v.577H749.01v2.439h-.7Z"/>
          <path id="Trazado_100653" data-name="Trazado 100653" d="M751.977,3653.518c0-.456-.008-.848-.032-1.208h.616l.032.76h.024a1.171,1.171,0,0,1,1.08-.848,1.423,1.423,0,0,1,.192.016v.664a2.008,2.008,0,0,0-.241-.016.986.986,0,0,0-.943.9,2.171,2.171,0,0,0-.024.327v2.072h-.7Z"/>
          <path id="Trazado_100654" data-name="Trazado 100654" d="M754.912,3654.374a1.232,1.232,0,0,0,1.32,1.335,2.518,2.518,0,0,0,1.072-.2l.128.5a3.153,3.153,0,0,1-1.3.248,1.805,1.805,0,0,1-1.9-1.952,1.885,1.885,0,0,1,1.823-2.087,1.633,1.633,0,0,1,1.592,1.823,1.73,1.73,0,0,1-.024.329Zm2.056-.5a1,1,0,0,0-.968-1.144,1.16,1.16,0,0,0-1.08,1.144Z"/>
          <path id="Trazado_100655" data-name="Trazado 100655" d="M758.519,3653.358c0-.408-.008-.728-.032-1.048h.624l.04.632h.016a1.434,1.434,0,0,1,1.28-.72c.536,0,1.367.32,1.367,1.648v2.311h-.7v-2.231c0-.624-.232-1.152-.9-1.152a1.014,1.014,0,0,0-.944.72,1.044,1.044,0,0,0-.048.327v2.336h-.7Z"/>
          <path id="Trazado_100656" data-name="Trazado 100656" d="M763.774,3651.382v.928h1.008v.536h-1.008v2.079c0,.48.135.752.528.752a1.319,1.319,0,0,0,.408-.048l.031.536a1.912,1.912,0,0,1-.623.1,1,1,0,0,1-.76-.3,1.513,1.513,0,0,1-.272-1.016v-2.1h-.6v-.536h.6v-.712Z"/>
          <path id="Trazado_100657" data-name="Trazado 100657" d="M765.925,3654.374a1.232,1.232,0,0,0,1.32,1.335,2.518,2.518,0,0,0,1.072-.2l.128.5a3.153,3.153,0,0,1-1.3.248,1.806,1.806,0,0,1-1.9-1.952,1.885,1.885,0,0,1,1.824-2.087,1.633,1.633,0,0,1,1.592,1.823,1.73,1.73,0,0,1-.024.329Zm2.056-.5a1,1,0,0,0-.968-1.144,1.16,1.16,0,0,0-1.08,1.144Z"/>
        </g>
        <g id="Grupo_53674" data-name="Grupo 53674">
          <rect id="Rectángulo_5171" data-name="Rectángulo 5171" width="0.509" height="12.696" transform="translate(739.64 3595.099)" fill="red"/>
          <g id="Grupo_53673" data-name="Grupo 53673">
            <path id="Trazado_100658" data-name="Trazado 100658" d="M740.757,3596.113l-.863-.864-.863.864v-.733l.863-.863.863.863Z" fill="red"/>
          </g>
        </g>
        <g id="Grupo_53676" data-name="Grupo 53676">
          <rect id="Rectángulo_5172" data-name="Rectángulo 5172" width="0.509" height="12.695" transform="translate(754.782 3578.989)" fill="red"/>
          <g id="Grupo_53675" data-name="Grupo 53675">
            <path id="Trazado_100659" data-name="Trazado 100659" d="M755.9,3580l-.863-.863-.863.863v-.733l.863-.863.863.863Z" fill="red"/>
          </g>
        </g>
        <g id="Grupo_53678" data-name="Grupo 53678">
          <rect id="Rectángulo_5173" data-name="Rectángulo 5173" width="0.509" height="12.695" transform="translate(791.251 3589.168)" fill="red"/>
          <g id="Grupo_53677" data-name="Grupo 53677">
            <path id="Trazado_100660" data-name="Trazado 100660" d="M792.368,3590.182l-.863-.863-.863.863v-.733l.863-.863.863.863Z" fill="red"/>
          </g>
        </g>
        <g id="Grupo_53680" data-name="Grupo 53680">
          <rect id="Rectángulo_5174" data-name="Rectángulo 5174" width="0.509" height="12.696" transform="translate(802.404 3686.004)" fill="red"/>
          <g id="Grupo_53679" data-name="Grupo 53679">
            <path id="Trazado_100661" data-name="Trazado 100661" d="M801.8,3697.687l.863.863.863-.863v.732l-.863.863-.863-.863Z" fill="red"/>
          </g>
        </g>
        <g id="Grupo_53682" data-name="Grupo 53682">
          <rect id="Rectángulo_5175" data-name="Rectángulo 5175" width="0.509" height="12.695" transform="translate(763.379 3685.436)" fill="red"/>
          <g id="Grupo_53681" data-name="Grupo 53681">
            <path id="Trazado_100662" data-name="Trazado 100662" d="M762.771,3697.118l.863.863.863-.863v.733l-.863.863-.863-.863Z" fill="red"/>
          </g>
        </g>
        <g id="Grupo_53684" data-name="Grupo 53684">
          <rect id="Rectángulo_5176" data-name="Rectángulo 5176" width="0.509" height="12.695" transform="translate(739.64 3685.436)" fill="red"/>
          <g id="Grupo_53683" data-name="Grupo 53683">
            <path id="Trazado_100663" data-name="Trazado 100663" d="M739.032,3697.118l.863.863.863-.863v.733l-.863.863-.863-.863Z" fill="red"/>
          </g>
        </g>
        <g id="Grupo_53686" data-name="Grupo 53686">
          <rect id="Rectángulo_5177" data-name="Rectángulo 5177" width="12.695" height="0.509" transform="translate(750.257 3587.829)" fill="red"/>
          <g id="Grupo_53685" data-name="Grupo 53685">
            <path id="Trazado_100664" data-name="Trazado 100664" d="M761.939,3588.946l.863-.863-.863-.863h.733l.863.863-.863.863Z" fill="red"/>
          </g>
        </g>
        <g id="Grupo_53688" data-name="Grupo 53688">
          <rect id="Rectángulo_5178" data-name="Rectángulo 5178" width="12.696" height="0.509" transform="translate(785.697 3596.586)" fill="red"/>
          <g id="Grupo_53687" data-name="Grupo 53687">
            <path id="Trazado_100665" data-name="Trazado 100665" d="M797.379,3597.7l.863-.863-.863-.863h.733l.863.863-.863.863Z" fill="red"/>
          </g>
        </g>
        <g id="Grupo_53690" data-name="Grupo 53690">
          <rect id="Rectángulo_5179" data-name="Rectángulo 5179" width="12.695" height="0.509" transform="translate(782.865 3619.247)" fill="red"/>
          <g id="Grupo_53689" data-name="Grupo 53689">
            <path id="Trazado_100666" data-name="Trazado 100666" d="M794.546,3620.364l.863-.863-.863-.863h.733l.863.863-.863.863Z" fill="red"/>
          </g>
        </g>
        <g id="Grupo_53692" data-name="Grupo 53692">
          <rect id="Rectángulo_5180" data-name="Rectángulo 5180" width="12.695" height="0.509" transform="translate(796.949 3642.991)" fill="red"/>
          <g id="Grupo_53691" data-name="Grupo 53691">
            <path id="Trazado_100667" data-name="Trazado 100667" d="M808.631,3644.108l.863-.863-.863-.863h.733l.863.863-.863.863Z" fill="red"/>
          </g>
        </g>
        <g id="Grupo_53694" data-name="Grupo 53694">
          <rect id="Rectángulo_5181" data-name="Rectángulo 5181" width="12.695" height="0.509" transform="translate(796.949 3689.396)" fill="red"/>
          <g id="Grupo_53693" data-name="Grupo 53693">
            <path id="Trazado_100668" data-name="Trazado 100668" d="M808.631,3690.513l.863-.863-.863-.863h.733l.863.863-.863.863Z" fill="red"/>
          </g>
        </g>
        <g id="Grupo_53696" data-name="Grupo 53696">
          <rect id="Rectángulo_5182" data-name="Rectángulo 5182" width="12.696" height="0.509" transform="translate(759.85 3691.82)" fill="red"/>
          <g id="Grupo_53695" data-name="Grupo 53695">
            <path id="Trazado_100669" data-name="Trazado 100669" d="M771.532,3692.938l.863-.863-.863-.863h.733l.863.863-.863.863Z" fill="red"/>
          </g>
        </g>
        <g id="Grupo_53697" data-name="Grupo 53697">
          <path id="Trazado_100670" data-name="Trazado 100670" d="M738.356,3592.049c-.593,0-1-.557-1.009-1.562,0-1.024.443-1.581,1.061-1.581.635,0,1.005.571,1.005,1.539,0,1.033-.388,1.6-1.052,1.6Zm.023-.318c.417,0,.618-.492.618-1.267,0-.748-.187-1.24-.618-1.24-.373,0-.616.478-.616,1.24-.01.789.233,1.267.612,1.267Z" fill="red"/>
          <path id="Trazado_100671" data-name="Trazado 100671" d="M740.091,3592.049a.275.275,0,0,1-.271-.3.279.279,0,0,1,.281-.295.273.273,0,0,1,.275.295.277.277,0,0,1-.28.3Z" fill="red"/>
          <path id="Trazado_100672" data-name="Trazado 100672" d="M742.027,3592v-.832h-1.412v-.267l1.355-1.94h.445v1.889h.425v.318h-.425V3592Zm0-1.15v-1.014c0-.159,0-.318.014-.477h-.014c-.094.178-.169.308-.253.448l-.743,1.034v.009Z" fill="red"/>
        </g>
        <g id="Grupo_53698" data-name="Grupo 53698">
          <path id="Trazado_100673" data-name="Trazado 100673" d="M753.227,3576.381c-.593,0-1-.556-1.009-1.561,0-1.024.444-1.581,1.061-1.581.636,0,1.005.571,1.005,1.538,0,1.034-.388,1.6-1.052,1.6Zm.024-.318c.416,0,.617-.491.617-1.267,0-.748-.187-1.239-.617-1.239-.374,0-.617.477-.617,1.239-.009.79.234,1.267.612,1.267Z" fill="red"/>
          <path id="Trazado_100674" data-name="Trazado 100674" d="M754.963,3576.381a.275.275,0,0,1-.272-.294.279.279,0,0,1,.281-.295.272.272,0,0,1,.275.295.275.275,0,0,1-.28.294Z" fill="red"/>
          <path id="Trazado_100675" data-name="Trazado 100675" d="M756.646,3573.239a.787.787,0,0,1,.888.748.773.773,0,0,1-.505.711v.014a.846.846,0,0,1,.612.786.932.932,0,0,1-1.033.883c-.636,0-1.019-.374-1.019-.818a.876.876,0,0,1,.6-.818v-.014a.751.751,0,0,1-.486-.683.852.852,0,0,1,.94-.809Zm-.029,2.843a.55.55,0,0,0,.608-.543c0-.364-.257-.546-.668-.663a.664.664,0,0,0-.547.631.559.559,0,0,0,.6.575Zm.005-2.548a.484.484,0,0,0-.528.486c-.005.3.229.468.579.561a.6.6,0,0,0,.463-.552.47.47,0,0,0-.509-.5Z" fill="red"/>
          <path id="Trazado_100676" data-name="Trazado 100676" d="M759.3,3576.33v-.832h-1.412v-.267l1.356-1.94h.444v1.889h.425v.318h-.425v.832Zm0-1.15v-1.015c0-.159,0-.318.014-.477H759.3c-.094.178-.169.309-.253.449l-.743,1.033v.01Z" fill="red"/>
        </g>
        <g id="Grupo_53699" data-name="Grupo 53699">
          <path id="Trazado_100677" data-name="Trazado 100677" d="M802.885,3598.333c-.594,0-1-.556-1.01-1.561,0-1.024.444-1.581,1.061-1.581.636,0,1.005.571,1.005,1.539,0,1.033-.388,1.6-1.051,1.6Zm.023-.317c.417,0,.617-.491.617-1.267,0-.748-.186-1.239-.617-1.239-.374,0-.617.477-.617,1.239-.009.789.234,1.267.613,1.267Z" fill="red"/>
          <path id="Trazado_100678" data-name="Trazado 100678" d="M804.62,3598.333a.274.274,0,0,1-.271-.294.279.279,0,0,1,.28-.3.273.273,0,0,1,.276.3.276.276,0,0,1-.281.294Z" fill="red"/>
          <path id="Trazado_100679" data-name="Trazado 100679" d="M806.3,3595.191a.786.786,0,0,1,.888.748.772.772,0,0,1-.505.711v.014a.846.846,0,0,1,.612.786.932.932,0,0,1-1.032.883c-.637,0-1.02-.374-1.02-.818a.875.875,0,0,1,.6-.818v-.014a.75.75,0,0,1-.486-.682.851.851,0,0,1,.939-.81Zm-.028,2.843a.549.549,0,0,0,.607-.542c0-.365-.256-.547-.668-.664a.665.665,0,0,0-.547.631.56.56,0,0,0,.6.575Zm.005-2.548a.484.484,0,0,0-.529.486c0,.3.229.468.58.561a.6.6,0,0,0,.463-.551.471.471,0,0,0-.51-.5Z" fill="red"/>
          <path id="Trazado_100680" data-name="Trazado 100680" d="M808.954,3598.282v-.832h-1.412v-.266l1.356-1.941h.444v1.889h.425v.318h-.425v.832Zm0-1.15v-1.015c0-.159.005-.318.014-.477h-.014c-.093.178-.168.309-.252.449l-.744,1.033v.01Z" fill="red"/>
        </g>
        <g id="Grupo_53700" data-name="Grupo 53700">
          <path id="Trazado_100681" data-name="Trazado 100681" d="M799.344,3621.259c-.593,0-1-.556-1.009-1.561,0-1.024.444-1.581,1.061-1.581.636,0,1.005.571,1.005,1.538,0,1.034-.388,1.6-1.052,1.6Zm.024-.318c.416,0,.617-.491.617-1.267,0-.748-.187-1.239-.617-1.239-.374,0-.617.477-.617,1.239-.01.79.234,1.267.612,1.267Z" fill="red"/>
          <path id="Trazado_100682" data-name="Trazado 100682" d="M801.08,3621.259a.275.275,0,0,1-.272-.295.279.279,0,0,1,.281-.294.272.272,0,0,1,.275.294.276.276,0,0,1-.28.295Z" fill="red"/>
          <path id="Trazado_100683" data-name="Trazado 100683" d="M802.763,3618.117a.787.787,0,0,1,.888.748.773.773,0,0,1-.505.711v.014a.847.847,0,0,1,.612.785.933.933,0,0,1-1.033.884c-.636,0-1.019-.374-1.019-.818a.877.877,0,0,1,.6-.819v-.013a.752.752,0,0,1-.486-.683.851.851,0,0,1,.94-.809Zm-.029,2.842a.549.549,0,0,0,.608-.542c0-.364-.257-.547-.668-.663a.664.664,0,0,0-.547.63.558.558,0,0,0,.6.575Zm.005-2.547a.483.483,0,0,0-.528.486c-.005.3.229.467.579.561a.6.6,0,0,0,.463-.552.47.47,0,0,0-.509-.495Z" fill="red"/>
          <path id="Trazado_100684" data-name="Trazado 100684" d="M805.414,3621.208v-.833H804v-.266l1.356-1.94h.444v1.888h.425v.318H805.8v.833Zm0-1.151v-1.014c0-.159,0-.318.014-.477h-.014c-.094.178-.169.308-.253.449l-.743,1.033v.009Z" fill="red"/>
        </g>
        <g id="Grupo_53701" data-name="Grupo 53701">
          <path id="Trazado_100685" data-name="Trazado 100685" d="M813.056,3641.849h-.009l-.529.285-.079-.313.664-.355h.35v3.039h-.4Z" fill="red"/>
          <path id="Trazado_100686" data-name="Trazado 100686" d="M814.866,3644.556a.273.273,0,0,1-.271-.294.279.279,0,0,1,.28-.295.295.295,0,0,1-.005.589Z" fill="red"/>
          <path id="Trazado_100687" data-name="Trazado 100687" d="M815.529,3644.5v-.252l.323-.313c.776-.739,1.132-1.132,1.132-1.59a.539.539,0,0,0-.6-.594,1.035,1.035,0,0,0-.645.257l-.131-.29a1.349,1.349,0,0,1,.86-.308.853.853,0,0,1,.926.883c0,.561-.407,1.014-1.047,1.632l-.238.224v.009h1.36v.342Z" fill="red"/>
          <path id="Trazado_100688" data-name="Trazado 100688" d="M819.663,3641.756a1.549,1.549,0,0,0-.309.024,1.216,1.216,0,0,0-1.056,1.075h.009a.927.927,0,0,1,1.655.626,1.018,1.018,0,0,1-1.014,1.075c-.646,0-1.071-.5-1.071-1.294a1.889,1.889,0,0,1,.514-1.37,1.641,1.641,0,0,1,.973-.449,1.919,1.919,0,0,1,.3-.023Zm-.706,2.483c.35,0,.589-.295.589-.73a.618.618,0,0,0-.627-.7.675.675,0,0,0-.593.374.383.383,0,0,0-.042.178c.005.5.238.875.668.875Z" fill="red"/>
        </g>
        <g id="Grupo_53702" data-name="Grupo 53702">
          <path id="Trazado_100689" data-name="Trazado 100689" d="M814.583,3684.868h-.009l-.529.286-.079-.313.664-.356h.35v3.039h-.4Z" fill="red"/>
          <path id="Trazado_100690" data-name="Trazado 100690" d="M816.393,3687.575a.274.274,0,0,1-.272-.294.28.28,0,0,1,.281-.295.295.295,0,0,1-.005.589Z" fill="red"/>
          <path id="Trazado_100691" data-name="Trazado 100691" d="M817.056,3687.524v-.252l.323-.313c.776-.739,1.132-1.132,1.132-1.59a.539.539,0,0,0-.6-.594,1.033,1.033,0,0,0-.645.257l-.131-.29a1.349,1.349,0,0,1,.86-.308.853.853,0,0,1,.926.883c0,.561-.407,1.015-1.047,1.632l-.239.225v.009H819v.341Z" fill="red"/>
          <path id="Trazado_100692" data-name="Trazado 100692" d="M821.19,3684.775a1.639,1.639,0,0,0-.309.023,1.217,1.217,0,0,0-1.057,1.076h.01a.927.927,0,0,1,1.655.626,1.018,1.018,0,0,1-1.014,1.075c-.646,0-1.071-.5-1.071-1.294a1.89,1.89,0,0,1,.514-1.37,1.655,1.655,0,0,1,.973-.449,1.945,1.945,0,0,1,.3-.023Zm-.706,2.483c.35,0,.589-.3.589-.73a.618.618,0,0,0-.627-.7.674.674,0,0,0-.593.373.379.379,0,0,0-.043.178c.005.5.239.875.669.875Z" fill="red"/>
        </g>
        <g id="Grupo_53703" data-name="Grupo 53703">
          <path id="Trazado_100693" data-name="Trazado 100693" d="M799.721,3703.464c-.594,0-1-.556-1.01-1.561,0-1.024.444-1.581,1.061-1.581.636,0,1.005.571,1.005,1.538,0,1.034-.388,1.6-1.051,1.6Zm.023-.318c.416,0,.617-.491.617-1.267,0-.748-.187-1.239-.617-1.239-.374,0-.617.477-.617,1.239-.009.79.234,1.267.613,1.267Z" fill="red"/>
          <path id="Trazado_100694" data-name="Trazado 100694" d="M801.456,3703.464a.275.275,0,0,1-.272-.3.279.279,0,0,1,.281-.294.273.273,0,0,1,.276.294.277.277,0,0,1-.281.3Z" fill="red"/>
          <path id="Trazado_100695" data-name="Trazado 100695" d="M803.854,3700.663a1.549,1.549,0,0,0-.309.024,1.217,1.217,0,0,0-1.056,1.075h.009a.927.927,0,0,1,1.655.627,1.018,1.018,0,0,1-1.014,1.075c-.645,0-1.071-.505-1.071-1.3a1.887,1.887,0,0,1,.515-1.37,1.652,1.652,0,0,1,.972-.449,1.927,1.927,0,0,1,.3-.023Zm-.706,2.483c.351,0,.589-.295.589-.73a.618.618,0,0,0-.627-.7.676.676,0,0,0-.593.374.39.39,0,0,0-.042.178c.005.5.238.874.668.874Z" fill="red"/>
          <path id="Trazado_100696" data-name="Trazado 100696" d="M806.253,3700.663a1.549,1.549,0,0,0-.309.024,1.217,1.217,0,0,0-1.057,1.075h.01a.927.927,0,0,1,1.655.627,1.019,1.019,0,0,1-1.015,1.075c-.645,0-1.07-.505-1.07-1.3a1.891,1.891,0,0,1,.514-1.37,1.652,1.652,0,0,1,.973-.449,1.919,1.919,0,0,1,.3-.023Zm-.706,2.483c.35,0,.589-.295.589-.73a.618.618,0,0,0-.627-.7.676.676,0,0,0-.593.374.377.377,0,0,0-.043.178c.005.5.239.874.669.874Z" fill="red"/>
        </g>
        <g id="Grupo_53704" data-name="Grupo 53704">
          <path id="Trazado_100697" data-name="Trazado 100697" d="M760.774,3703.907c-.594,0-1-.557-1.01-1.562,0-1.024.444-1.58,1.061-1.58.635,0,1.005.57,1.005,1.538,0,1.033-.388,1.6-1.052,1.6Zm.022-.318c.417,0,.618-.491.618-1.267,0-.748-.187-1.239-.618-1.239-.373,0-.616.477-.616,1.239-.01.79.234,1.267.612,1.267Z" fill="red"/>
          <path id="Trazado_100698" data-name="Trazado 100698" d="M762.508,3703.907a.274.274,0,0,1-.271-.295.279.279,0,0,1,.281-.294.272.272,0,0,1,.275.294.276.276,0,0,1-.28.295Z" fill="red"/>
          <path id="Trazado_100699" data-name="Trazado 100699" d="M764.907,3701.106a1.581,1.581,0,0,0-.309.024,1.219,1.219,0,0,0-1.057,1.075h.01a.927.927,0,0,1,1.655.626,1.019,1.019,0,0,1-1.015,1.076c-.645,0-1.07-.5-1.07-1.295a1.89,1.89,0,0,1,.514-1.37,1.654,1.654,0,0,1,.973-.449,1.914,1.914,0,0,1,.3-.023Zm-.706,2.483c.35,0,.589-.3.589-.73a.617.617,0,0,0-.627-.7.675.675,0,0,0-.593.374.376.376,0,0,0-.043.178c.005.5.239.874.669.874Z" fill="red"/>
          <path id="Trazado_100700" data-name="Trazado 100700" d="M767.306,3701.106a1.6,1.6,0,0,0-.31.024,1.217,1.217,0,0,0-1.056,1.075h.01a.927.927,0,0,1,1.655.626,1.019,1.019,0,0,1-1.015,1.076c-.645,0-1.071-.5-1.071-1.295a1.89,1.89,0,0,1,.515-1.37,1.654,1.654,0,0,1,.972-.449,1.934,1.934,0,0,1,.3-.023Zm-.706,2.483c.35,0,.588-.3.588-.73a.617.617,0,0,0-.626-.7.675.675,0,0,0-.593.374.376.376,0,0,0-.043.178c.005.5.238.874.669.874Z" fill="red"/>
        </g>
        <g id="Grupo_53705" data-name="Grupo 53705">
          <path id="Trazado_100701" data-name="Trazado 100701" d="M774.3,3695.675c-.593,0-1-.557-1.009-1.562,0-1.024.444-1.58,1.061-1.58.636,0,1.005.57,1.005,1.538,0,1.034-.388,1.6-1.052,1.6Zm.024-.318c.416,0,.617-.491.617-1.267,0-.748-.187-1.239-.617-1.239-.374,0-.617.477-.617,1.239-.009.79.234,1.267.612,1.267Z" fill="red"/>
          <path id="Trazado_100702" data-name="Trazado 100702" d="M776.041,3695.675a.275.275,0,0,1-.272-.3.279.279,0,0,1,.281-.294.272.272,0,0,1,.275.294.276.276,0,0,1-.28.3Z" fill="red"/>
          <path id="Trazado_100703" data-name="Trazado 100703" d="M777.976,3695.623v-.832h-1.412v-.266l1.356-1.94h.444v1.888h.425v.318h-.425v.832Zm0-1.15v-1.014c0-.159.005-.318.014-.477h-.014c-.093.178-.168.308-.252.448l-.744,1.034v.009Z" fill="red"/>
          <path id="Trazado_100704" data-name="Trazado 100704" d="M779.1,3695.623v-.252l.322-.313c.777-.739,1.132-1.131,1.132-1.59a.539.539,0,0,0-.6-.594,1.031,1.031,0,0,0-.645.257l-.132-.29a1.356,1.356,0,0,1,.861-.308.854.854,0,0,1,.925.884c0,.561-.406,1.014-1.047,1.631l-.238.225v.009h1.36v.341Z" fill="red"/>
        </g>
        <g id="Grupo_53706" data-name="Grupo 53706">
          <path id="Trazado_100705" data-name="Trazado 100705" d="M736.874,3704.614c-.594,0-1-.555-1.01-1.56,0-1.024.444-1.581,1.062-1.581.635,0,1.005.571,1.005,1.538,0,1.034-.389,1.6-1.052,1.6Zm.023-.317c.417,0,.618-.491.618-1.267,0-.748-.187-1.239-.618-1.239-.374,0-.617.477-.617,1.239-.009.79.234,1.267.613,1.267Z" fill="red"/>
          <path id="Trazado_100706" data-name="Trazado 100706" d="M738.609,3704.614a.273.273,0,0,1-.271-.294.278.278,0,0,1,.28-.294.272.272,0,0,1,.276.294.276.276,0,0,1-.281.294Z" fill="red"/>
          <path id="Trazado_100707" data-name="Trazado 100707" d="M741.007,3701.814a1.572,1.572,0,0,0-.308.024,1.217,1.217,0,0,0-1.057,1.076h.009a.927.927,0,0,1,1.655.626,1.017,1.017,0,0,1-1.014,1.074c-.645,0-1.071-.5-1.071-1.294a1.892,1.892,0,0,1,.515-1.37,1.653,1.653,0,0,1,.972-.449,1.931,1.931,0,0,1,.3-.023Zm-.706,2.483c.351,0,.589-.3.589-.729a.618.618,0,0,0-.626-.7.677.677,0,0,0-.594.374.387.387,0,0,0-.042.177c.005.5.239.875.668.875Z" fill="red"/>
          <path id="Trazado_100708" data-name="Trazado 100708" d="M743.406,3701.814a1.587,1.587,0,0,0-.309.024,1.217,1.217,0,0,0-1.056,1.076h.009a.927.927,0,0,1,1.655.626,1.018,1.018,0,0,1-1.014,1.074c-.645,0-1.071-.5-1.071-1.294a1.888,1.888,0,0,1,.515-1.37,1.651,1.651,0,0,1,.972-.449,1.914,1.914,0,0,1,.3-.023Zm-.706,2.483c.351,0,.589-.3.589-.729a.618.618,0,0,0-.627-.7.675.675,0,0,0-.593.374.388.388,0,0,0-.042.177c.005.5.238.875.668.875Z" fill="red"/>
        </g>
        <g id="Grupo_53707" data-name="Grupo 53707">
          <path id="Trazado_100709" data-name="Trazado 100709" d="M789.785,3587.437c-.594,0-1-.556-1.01-1.561,0-1.024.444-1.58,1.061-1.58.636,0,1.005.57,1.005,1.538,0,1.033-.388,1.6-1.051,1.6Zm.023-.317c.416,0,.617-.491.617-1.267,0-.748-.187-1.239-.617-1.239-.374,0-.617.477-.617,1.239-.01.79.234,1.267.613,1.267Z" fill="red"/>
          <path id="Trazado_100710" data-name="Trazado 100710" d="M791.519,3587.437a.273.273,0,0,1-.271-.294.279.279,0,0,1,.281-.294.273.273,0,0,1,.276.294.276.276,0,0,1-.281.294Z" fill="red"/>
          <path id="Trazado_100711" data-name="Trazado 100711" d="M794.157,3584.347v.272l-1.323,2.767h-.422l1.314-2.689v-.009h-1.487v-.341Z" fill="red"/>
          <path id="Trazado_100712" data-name="Trazado 100712" d="M796.317,3584.637a1.581,1.581,0,0,0-.309.024,1.218,1.218,0,0,0-1.057,1.075h.01a.926.926,0,0,1,1.655.626,1.018,1.018,0,0,1-1.015,1.075c-.645,0-1.07-.5-1.07-1.294a1.89,1.89,0,0,1,.514-1.37,1.642,1.642,0,0,1,.973-.449,1.914,1.914,0,0,1,.3-.023Zm-.706,2.483c.35,0,.589-.3.589-.73a.618.618,0,0,0-.627-.7.677.677,0,0,0-.593.374.384.384,0,0,0-.043.178c.005.5.239.875.669.875Z" fill="red"/>
        </g>
        <g id="Grupo_53708" data-name="Grupo 53708">
          <path id="Trazado_100713" data-name="Trazado 100713" d="M766.267,3589.875c-.594,0-1-.557-1.01-1.562,0-1.024.444-1.58,1.062-1.58.635,0,1.005.57,1.005,1.538,0,1.033-.389,1.6-1.052,1.6Zm.023-.318c.417,0,.617-.491.617-1.267,0-.748-.186-1.239-.617-1.239-.374,0-.617.477-.617,1.239-.009.79.234,1.267.613,1.267Z" fill="red"/>
          <path id="Trazado_100714" data-name="Trazado 100714" d="M768,3589.875a.274.274,0,0,1-.271-.295.278.278,0,0,1,.28-.294.272.272,0,0,1,.276.294.276.276,0,0,1-.281.295Z" fill="red"/>
          <path id="Trazado_100715" data-name="Trazado 100715" d="M768.666,3589.823v-.252l.322-.313c.776-.739,1.132-1.132,1.132-1.59a.539.539,0,0,0-.6-.594,1.035,1.035,0,0,0-.645.257l-.131-.29a1.35,1.35,0,0,1,.86-.308.854.854,0,0,1,.926.884c0,.561-.407,1.014-1.047,1.631l-.238.225v.009h1.36v.341Z" fill="red"/>
          <path id="Trazado_100716" data-name="Trazado 100716" d="M772.878,3587.13h-1.159l-.117.781a1.7,1.7,0,0,1,.248-.019,1.276,1.276,0,0,1,.654.164.861.861,0,0,1,.435.781,1.054,1.054,0,0,1-1.131,1.038,1.51,1.51,0,0,1-.758-.187l.1-.313a1.364,1.364,0,0,0,.655.168.667.667,0,0,0,.715-.664c0-.388-.266-.669-.87-.669a2.521,2.521,0,0,0-.425.033l.2-1.459h1.453Z" fill="red"/>
        </g>
      </g>
      <g id="Grupo_53710" data-name="Grupo 53710">
        <path id="Trazado_100717" data-name="Trazado 100717" d="M1026.258,3439.84h-3.775v3.515h4.225v1.056h-5.5v-9.75h5.28v1.057h-4.008v3.081h3.775Z"/>
        <path id="Trazado_100718" data-name="Trazado 100718" d="M1026.58,3446.465a2.025,2.025,0,0,0,1.388-.535c.347-.391.492-.955.492-2.633v-5.887h1.273v6.379a3.842,3.842,0,0,1-.839,2.879,3.236,3.236,0,0,1-2.17.795Zm2.487-10.241a.757.757,0,0,1-.767-.782.767.767,0,0,1,.8-.795.789.789,0,1,1-.014,1.577Z"/>
        <path id="Trazado_100719" data-name="Trazado 100719" d="M1032.54,3441.141a2.227,2.227,0,0,0,2.386,2.416,4.566,4.566,0,0,0,1.939-.361l.231.911a5.7,5.7,0,0,1-2.343.449,3.266,3.266,0,0,1-3.443-3.53c0-2.112,1.259-3.775,3.3-3.775,2.285,0,2.879,2.011,2.879,3.3a3.069,3.069,0,0,1-.044.592Zm3.717-.911a1.81,1.81,0,0,0-1.75-2.068,2.1,2.1,0,0,0-1.953,2.068Z"/>
        <path id="Trazado_100720" data-name="Trazado 100720" d="M1039.065,3439.3c0-.738-.028-1.317-.058-1.9h1.115l.057,1.128h.043a2.422,2.422,0,0,1,2.214-1.287,2.064,2.064,0,0,1,1.967,1.4h.029a2.779,2.779,0,0,1,.8-.912,2.356,2.356,0,0,1,1.534-.491c.94,0,2.315.607,2.315,3.037v4.123h-1.244v-3.964c0-1.359-.507-2.155-1.52-2.155a1.672,1.672,0,0,0-1.518,1.142,2.259,2.259,0,0,0-.1.637v4.34h-1.244V3440.2c0-1.114-.491-1.91-1.461-1.91a1.9,1.9,0,0,0-1.678,1.9v4.224h-1.244Z"/>
        <path id="Trazado_100721" data-name="Trazado 100721" d="M1051.132,3439.7c0-.9-.014-1.62-.057-2.285h1.142l.073,1.2h.029a2.7,2.7,0,0,1,2.474-1.359c1.707,0,2.979,1.431,2.979,3.558,0,2.517-1.548,3.761-3.182,3.761a2.441,2.441,0,0,1-2.156-1.1h-.028v3.8h-1.274Zm1.274,1.866a2.072,2.072,0,0,0,.058.521,1.946,1.946,0,0,0,1.894,1.49c1.346,0,2.127-1.1,2.127-2.705,0-1.4-.724-2.6-2.068-2.6a2.031,2.031,0,0,0-1.939,1.576,3.028,3.028,0,0,0-.072.507Z"/>
        <path id="Trazado_100722" data-name="Trazado 100722" d="M1059.365,3434.14h1.273v10.271h-1.273Z"/>
        <path id="Trazado_100723" data-name="Trazado 100723" d="M1065.63,3444.57a3.336,3.336,0,0,1-3.356-3.6,3.427,3.427,0,0,1,3.472-3.718,3.31,3.31,0,0,1,3.37,3.587,3.431,3.431,0,0,1-3.472,3.732Zm.058-.955c1.215,0,2.126-1.142,2.126-2.733,0-1.187-.593-2.677-2.1-2.677-1.489,0-2.14,1.389-2.14,2.72,0,1.533.868,2.69,2.1,2.69Z"/>
        <path id="Trazado_100724" data-name="Trazado 100724" d="M984.7,3452.155a12.931,12.931,0,0,1,2.415-.2,4,4,0,0,1,2.734.811,2.62,2.62,0,0,1,.868,2.025,2.822,2.822,0,0,1-.766,2.083,4.046,4.046,0,0,1-2.981,1.07,4.3,4.3,0,0,1-1.012-.087v3.92H984.7Zm1.258,4.672a4.234,4.234,0,0,0,1.042.1c1.518,0,2.444-.739,2.444-2.069,0-1.288-.911-1.91-2.3-1.91a5.251,5.251,0,0,0-1.186.1Z"/>
        <path id="Trazado_100725" data-name="Trazado 100725" d="M997.994,3459.85c0,.738.014,1.374.058,1.924h-1.128l-.073-1.142h-.028a2.615,2.615,0,0,1-2.315,1.3c-1.1,0-2.416-.622-2.416-3.066v-4.094h1.273v3.863c0,1.33.42,2.242,1.562,2.242a1.831,1.831,0,0,0,1.678-1.172,1.754,1.754,0,0,0,.116-.651v-4.282h1.273Z"/>
        <path id="Trazado_100726" data-name="Trazado 100726" d="M1000.108,3456.668c0-.737-.014-1.317-.058-1.9h1.128l.073,1.143h.029a2.593,2.593,0,0,1,2.314-1.3c.97,0,2.474.578,2.474,2.98v4.18H1004.8v-4.036c0-1.128-.42-2.083-1.621-2.083a1.838,1.838,0,0,0-1.707,1.3,1.891,1.891,0,0,0-.086.594v4.223h-1.274Z"/>
        <path id="Trazado_100727" data-name="Trazado 100727" d="M1009.614,3453.095v1.678h1.823v.969h-1.823v3.761c0,.868.246,1.36.955,1.36a2.366,2.366,0,0,0,.738-.087l.058.969a3.47,3.47,0,0,1-1.129.174,1.814,1.814,0,0,1-1.374-.535,2.737,2.737,0,0,1-.491-1.837v-3.805h-1.085v-.969h1.085v-1.288Z"/>
        <path id="Trazado_100728" data-name="Trazado 100728" d="M1015.632,3461.933a3.336,3.336,0,0,1-3.355-3.6,3.427,3.427,0,0,1,3.472-3.718,3.311,3.311,0,0,1,3.37,3.587,3.43,3.43,0,0,1-3.472,3.732Zm.059-.955c1.215,0,2.126-1.142,2.126-2.733,0-1.187-.593-2.677-2.1-2.677-1.489,0-2.14,1.389-2.14,2.72,0,1.533.868,2.69,2.1,2.69Z"/>
        <path id="Trazado_100729" data-name="Trazado 100729" d="M1023.794,3451.5h1.273v4.368h.028a2.294,2.294,0,0,1,.912-.9,2.483,2.483,0,0,1,1.3-.361c.941,0,2.445.578,2.445,2.994v4.166h-1.273v-4.036c0-1.128-.42-2.068-1.62-2.068a1.843,1.843,0,0,0-1.707,1.273,1.546,1.546,0,0,0-.087.608v4.223h-1.273Z"/>
        <path id="Trazado_100730" data-name="Trazado 100730" d="M1034.674,3461.933a3.336,3.336,0,0,1-3.356-3.6,3.427,3.427,0,0,1,3.472-3.718,3.311,3.311,0,0,1,3.37,3.587,3.43,3.43,0,0,1-3.472,3.732Zm.058-.955c1.215,0,2.126-1.142,2.126-2.733,0-1.187-.593-2.677-2.1-2.677-1.489,0-2.14,1.389-2.14,2.72,0,1.533.868,2.69,2.1,2.69Z"/>
        <path id="Trazado_100731" data-name="Trazado 100731" d="M1039.768,3456.668c0-.737-.028-1.317-.057-1.9h1.114l.057,1.128h.043a2.422,2.422,0,0,1,2.214-1.287,2.064,2.064,0,0,1,1.967,1.4h.029a2.779,2.779,0,0,1,.8-.912,2.359,2.359,0,0,1,1.535-.491c.939,0,2.314.608,2.314,3.037v4.123h-1.244v-3.964c0-1.359-.507-2.155-1.52-2.155a1.671,1.671,0,0,0-1.518,1.143,2.252,2.252,0,0,0-.1.636v4.34h-1.244v-4.209c0-1.114-.491-1.91-1.461-1.91a1.9,1.9,0,0,0-1.678,1.9v4.223h-1.244Z"/>
        <path id="Trazado_100732" data-name="Trazado 100732" d="M1051.836,3451.5h1.273v4.383h.028a2.6,2.6,0,0,1,2.387-1.273c1.736,0,2.951,1.446,2.951,3.559,0,2.516-1.591,3.76-3.153,3.76a2.507,2.507,0,0,1-2.343-1.316h-.029l-.072,1.157h-1.1c.043-.477.058-1.186.058-1.808Zm1.273,7.464a2.478,2.478,0,0,0,.043.463,1.977,1.977,0,0,0,1.909,1.49c1.346,0,2.127-1.085,2.127-2.691,0-1.418-.723-2.618-2.083-2.618a2.018,2.018,0,0,0-1.924,1.563,1.964,1.964,0,0,0-.072.535Z"/>
        <path id="Trazado_100733" data-name="Trazado 100733" d="M1060.068,3456.957c0-.824-.015-1.533-.058-2.184h1.115l.057,1.374h.043a2.119,2.119,0,0,1,1.953-1.533,2.848,2.848,0,0,1,.348.028v1.2a3.541,3.541,0,0,0-.435-.03,1.785,1.785,0,0,0-1.707,1.62,4.078,4.078,0,0,0-.043.594v3.746h-1.273Z"/>
        <path id="Trazado_100734" data-name="Trazado 100734" d="M1067.505,3461.933a3.336,3.336,0,0,1-3.356-3.6,3.427,3.427,0,0,1,3.472-3.718,3.31,3.31,0,0,1,3.37,3.587,3.43,3.43,0,0,1-3.472,3.732Zm.058-.955c1.215,0,2.126-1.142,2.126-2.733,0-1.187-.593-2.677-2.1-2.677-1.489,0-2.14,1.389-2.14,2.72,0,1.533.868,2.69,2.1,2.69Z"/>
        <path id="Trazado_100735" data-name="Trazado 100735" d="M1076.259,3454.773l1,1.5c.26.391.478.738.708,1.143h.044c.232-.419.463-.78.709-1.157l.969-1.49h1.389l-2.387,3.385,2.444,3.616h-1.446l-1.026-1.577c-.276-.4-.507-.795-.753-1.215h-.028c-.232.42-.478.8-.739,1.215l-1.012,1.577h-1.4l2.489-3.573-2.373-3.428Z"/>
        <path id="Trazado_100736" data-name="Trazado 100736" d="M1085.259,3460.473a3.6,3.6,0,0,0,1.693.491c.911,0,1.345-.449,1.345-1.041,0-.608-.362-.926-1.288-1.274-1.273-.463-1.866-1.156-1.866-1.981a2.168,2.168,0,0,1,2.416-2.054,3.25,3.25,0,0,1,1.707.434l-.3.911a2.877,2.877,0,0,0-1.433-.4c-.752,0-1.157.433-1.157.954,0,.579.4.839,1.316,1.2,1.2.448,1.837,1.055,1.837,2.1,0,1.244-.969,2.112-2.6,2.112a3.979,3.979,0,0,1-1.967-.492Z"/>
        <path id="Trazado_100737" data-name="Trazado 100737" d="M1091.769,3453.587a.756.756,0,0,1-.766-.781.788.788,0,1,1,.781.781Zm-.607,8.187v-7h1.273v7Z"/>
        <path id="Trazado_100738" data-name="Trazado 100738" d="M1094.375,3460.473a3.59,3.59,0,0,0,1.692.491c.911,0,1.345-.449,1.345-1.041,0-.608-.362-.926-1.287-1.274-1.274-.463-1.867-1.156-1.867-1.981a2.168,2.168,0,0,1,2.416-2.054,3.253,3.253,0,0,1,1.708.434l-.3.911a2.873,2.873,0,0,0-1.433-.4c-.752,0-1.157.433-1.157.954,0,.579.4.839,1.316,1.2,1.2.448,1.837,1.055,1.837,2.1,0,1.244-.968,2.112-2.6,2.112a3.979,3.979,0,0,1-1.967-.492Z"/>
        <path id="Trazado_100739" data-name="Trazado 100739" d="M1105.21,3460.1a11.778,11.778,0,0,0,.1,1.677h-1.142l-.117-.883h-.043a2.585,2.585,0,0,1-2.14,1.042,2,2,0,0,1-2.142-2.01c0-1.693,1.505-2.618,4.21-2.6v-.144a1.438,1.438,0,0,0-1.591-1.62,3.375,3.375,0,0,0-1.838.52l-.289-.853a4.536,4.536,0,0,1,2.315-.608c2.155,0,2.676,1.461,2.676,2.864Zm-1.245-1.9c-1.388-.028-2.964.218-2.964,1.577a1.115,1.115,0,0,0,1.186,1.215,1.765,1.765,0,0,0,1.721-1.172,1.28,1.28,0,0,0,.057-.4Z"/>
      </g>
      <rect id="Rectángulo_5183" data-name="Rectángulo 5183" width="40.527" height="0.75" transform="matrix(0.935, -0.354, 0.354, 0.935, 792.766, 3596.934)"/>
    </g>
  </g>
</svg>
