<svg xmlns="http://www.w3.org/2000/svg" width="89.962" height="99.944" viewBox="0 0 89.962 99.944">
  <g id="Grupo_53780" data-name="Grupo 53780" transform="translate(-294.303 -4279.541)">
    <circle id="Elipse_3988" data-name="Elipse 3988" cx="44.981" cy="44.981" r="44.981" transform="translate(294.303 4289.523)" fill="#0dcea9"/>
    <g id="Grupo_53779" data-name="Grupo 53779">
      <path id="Trazado_100884" data-name="Trazado 100884" d="M340.932,4360.559h-3.3a1.352,1.352,0,0,1-1.352-1.353v-9.581h6v9.581A1.353,1.353,0,0,1,340.932,4360.559Z" fill="#555e84"/>
      <path id="Trazado_100885" data-name="Trazado 100885" d="M336.284,4349.624v9.582a1.352,1.352,0,0,0,1.352,1.352h1.546v-10.934Z" fill="#4d5375"/>
      <path id="Trazado_100886" data-name="Trazado 100886" d="M377.43,4315.74l-5.139,8.81H301.139l5.138-8.81h4.552l1.449,1.875,1.45-1.875h3.1l1.449,1.875,1.449-1.875H358.84l1.449,1.875,1.449-1.875h3.1l1.449,1.875,1.449-1.875Z" fill="#f9e487"/>
      <path id="Trazado_100887" data-name="Trazado 100887" d="M322.427,4351.556a1.352,1.352,0,0,1-1.334-1.13l-2.36-14.155a14.974,14.974,0,0,1,2.789-11.444,14.481,14.481,0,0,0-3.1-20.435l-3.146-3.246v-9.715a1.353,1.353,0,0,1,1.06-1.321l10.411-2.306c3.089-.651,4.842-3.961,6.2-7.407a1.352,1.352,0,0,1,1.257-.856h10.148a1.35,1.35,0,0,1,1.257.856c1.361,3.446,3.114,6.756,6.2,7.407l10.411,2.306a1.352,1.352,0,0,1,1.06,1.321v9.715l-3.145,3.246a14.48,14.48,0,0,0-3.1,20.435,14.97,14.97,0,0,1,2.789,11.444l-2.359,14.155a1.353,1.353,0,0,1-1.334,1.13Z" fill="#85c4f2"/>
      <path id="Trazado_100888" data-name="Trazado 100888" d="M331.183,4324.827a14.486,14.486,0,0,0-3.1-20.435l-3.146-3.247v-10.8l11.472-2.541c3.343-.705,5.122-4.527,6.532-8.263H334.21a1.352,1.352,0,0,0-1.257.856c-1.361,3.446-3.114,6.756-6.2,7.407l-10.412,2.306a1.353,1.353,0,0,0-1.06,1.321v9.715l3.146,3.246a14.486,14.486,0,0,1,3.1,20.435,14.971,14.971,0,0,0-2.79,11.444l2.36,14.155a1.353,1.353,0,0,0,1.334,1.13h8.514l-2.548-15.285a14.971,14.971,0,0,1,2.79-11.444Z" fill="#2675af"/>
      <path id="Trazado_100889" data-name="Trazado 100889" d="M369.291,4334.809v6.488a1.352,1.352,0,0,1-1.353,1.352H306.277l-5.138-9.192H313.83l1.449,1.875,1.449-1.875h3.1l1.449,1.875,1.449-1.875h3.1l1.449,1.875,1.449-1.875h3.1l1.449,1.875,1.449-1.875h3.1l1.5,1.875,1.4-1.875h3.1l1.449,1.875,1.449-1.875h3.1l1.449,1.875,1.449-1.875h3.1l1.449,1.875,1.449-1.875h3.1l1.449,1.875,1.449-1.875h3.2a1.353,1.353,0,0,1,1.354,1.352Z" fill="#f9e487"/>
      <path id="Trazado_100890" data-name="Trazado 100890" d="M377.43,4306.547h-69.8a1.352,1.352,0,0,1-1.352-1.352v-6.488a1.352,1.352,0,0,1,1.352-1.352h6.2l1.449,1.875,1.449-1.875h3.1l1.449,1.875,1.449-1.875h3.1l1.449,1.875,1.449-1.875h3.1l1.449,1.875,1.449-1.875h3.1l1.449,1.875,1.449-1.875h3.1l1.448,1.875,1.449-1.875h3.1l1.449,1.875,1.449-1.875h3.1l1.449,1.875,1.449-1.875h3.1l1.448,1.875,1.45-1.875h7.552Z" fill="#f9e487"/>
      <path id="Trazado_100891" data-name="Trazado 100891" d="M372.291,4297.355v27.2l8.6-8.414a1.354,1.354,0,0,0,.406-.966V4307.1a1.353,1.353,0,0,0-.386-.947Z" fill="#f9bf6c"/>
      <path id="Trazado_100892" data-name="Trazado 100892" d="M306.277,4315.739v26.911l-8.616-8.8a1.357,1.357,0,0,1-.386-.947v-7.786a1.353,1.353,0,0,1,.407-.966Z" fill="#f9bf6c"/>
      <g id="Grupo_53763" data-name="Grupo 53763">
        <g id="Grupo_53754" data-name="Grupo 53754">
          <path id="Trazado_100893" data-name="Trazado 100893" d="M316.728,4297.355v3.191a1.449,1.449,0,1,1-2.9,0v-3.191Z" fill="#8897dc"/>
        </g>
        <g id="Grupo_53755" data-name="Grupo 53755">
          <path id="Trazado_100894" data-name="Trazado 100894" d="M322.729,4297.355v3.191a1.449,1.449,0,1,1-2.9,0v-3.191Z" fill="#8897dc"/>
        </g>
        <g id="Grupo_53756" data-name="Grupo 53756">
          <path id="Trazado_100895" data-name="Trazado 100895" d="M334.732,4297.355v3.191a1.449,1.449,0,1,1-2.9,0v-3.191Z" fill="#8897dc"/>
        </g>
        <g id="Grupo_53757" data-name="Grupo 53757">
          <path id="Trazado_100896" data-name="Trazado 100896" d="M346.734,4297.355v3.191a1.449,1.449,0,1,1-2.9,0v-3.191Z" fill="#8897dc"/>
        </g>
        <g id="Grupo_53758" data-name="Grupo 53758">
          <path id="Trazado_100897" data-name="Trazado 100897" d="M358.738,4297.355v3.191a1.449,1.449,0,1,1-2.9,0v-3.191Z" fill="#8897dc"/>
        </g>
        <g id="Grupo_53759" data-name="Grupo 53759">
          <path id="Trazado_100898" data-name="Trazado 100898" d="M328.732,4297.355v3.191a1.449,1.449,0,1,1-2.9,0v-3.191Z" fill="#8897dc"/>
        </g>
        <g id="Grupo_53760" data-name="Grupo 53760">
          <path id="Trazado_100899" data-name="Trazado 100899" d="M340.733,4297.355v3.191a1.449,1.449,0,1,1-2.9,0v-3.191Z" fill="#8897dc"/>
        </g>
        <g id="Grupo_53761" data-name="Grupo 53761">
          <path id="Trazado_100900" data-name="Trazado 100900" d="M352.735,4297.355v3.191a1.449,1.449,0,1,1-2.9,0v-3.191Z" fill="#8897dc"/>
        </g>
        <g id="Grupo_53762" data-name="Grupo 53762">
          <path id="Trazado_100901" data-name="Trazado 100901" d="M364.739,4297.355v3.191a1.449,1.449,0,1,1-2.9,0v-3.191Z" fill="#8897dc"/>
        </g>
      </g>
      <g id="Grupo_53773" data-name="Grupo 53773">
        <g id="Grupo_53764" data-name="Grupo 53764">
          <path id="Trazado_100902" data-name="Trazado 100902" d="M316.728,4333.457v3.1a1.449,1.449,0,0,1-2.9,0v-3.1Z" fill="#8897dc"/>
        </g>
        <g id="Grupo_53765" data-name="Grupo 53765">
          <path id="Trazado_100903" data-name="Trazado 100903" d="M328.732,4333.457v3.1a1.449,1.449,0,0,1-2.9,0v-3.1Z" fill="#8897dc"/>
        </g>
        <g id="Grupo_53766" data-name="Grupo 53766">
          <path id="Trazado_100904" data-name="Trazado 100904" d="M340.733,4333.457v3.1a1.449,1.449,0,0,1-2.9,0v-3.1Z" fill="#8897dc"/>
        </g>
        <g id="Grupo_53767" data-name="Grupo 53767">
          <path id="Trazado_100905" data-name="Trazado 100905" d="M352.735,4333.457v3.1a1.449,1.449,0,0,1-2.9,0v-3.1Z" fill="#8897dc"/>
        </g>
        <g id="Grupo_53768" data-name="Grupo 53768">
          <path id="Trazado_100906" data-name="Trazado 100906" d="M364.739,4333.457v3.1a1.449,1.449,0,0,1-2.9,0v-3.1Z" fill="#8897dc"/>
        </g>
        <g id="Grupo_53769" data-name="Grupo 53769">
          <path id="Trazado_100907" data-name="Trazado 100907" d="M322.729,4333.457v3.1a1.449,1.449,0,0,1-2.9,0v-3.1Z" fill="#8897dc"/>
        </g>
        <g id="Grupo_53770" data-name="Grupo 53770">
          <path id="Trazado_100908" data-name="Trazado 100908" d="M334.732,4333.457v3.1a1.449,1.449,0,1,1-2.9,0v-3.1Z" fill="#8897dc"/>
        </g>
        <g id="Grupo_53771" data-name="Grupo 53771">
          <path id="Trazado_100909" data-name="Trazado 100909" d="M346.734,4333.457v3.1a1.449,1.449,0,0,1-2.9,0v-3.1Z" fill="#8897dc"/>
        </g>
        <g id="Grupo_53772" data-name="Grupo 53772">
          <path id="Trazado_100910" data-name="Trazado 100910" d="M358.738,4333.457v3.1a1.449,1.449,0,0,1-2.9,0v-3.1Z" fill="#8897dc"/>
        </g>
      </g>
      <g id="Grupo_53778" data-name="Grupo 53778">
        <g id="Grupo_53774" data-name="Grupo 53774">
          <path id="Trazado_100911" data-name="Trazado 100911" d="M319.728,4315.74v2.809a1.449,1.449,0,1,1-2.9,0v-2.809Z" fill="#8897dc"/>
        </g>
        <g id="Grupo_53775" data-name="Grupo 53775">
          <path id="Trazado_100912" data-name="Trazado 100912" d="M313.728,4315.74v2.809a1.449,1.449,0,1,1-2.9,0v-2.809Z" fill="#8897dc"/>
        </g>
        <g id="Grupo_53776" data-name="Grupo 53776">
          <path id="Trazado_100913" data-name="Trazado 100913" d="M361.738,4315.74v2.809a1.449,1.449,0,1,1-2.9,0v-2.809Z" fill="#8897dc"/>
        </g>
        <g id="Grupo_53777" data-name="Grupo 53777">
          <path id="Trazado_100914" data-name="Trazado 100914" d="M367.739,4315.74v2.809a1.449,1.449,0,1,1-2.9,0v-2.809Z" fill="#8897dc"/>
        </g>
      </g>
    </g>
  </g>
</svg>
