<svg xmlns="http://www.w3.org/2000/svg" width="30.829" height="30.829" viewBox="0 0 30.829 30.829">
  <g id="Grupo_54917" data-name="Grupo 54917" transform="translate(-809.53 -5803.391)">
    <circle id="Elipse_5026" data-name="Elipse 5026" cx="15.414" cy="15.414" r="15.414" transform="translate(809.53 5803.391)" fill="#6b2042"/>
    <g id="Grupo_54916" data-name="Grupo 54916" transform="translate(817.563 5809.73)">
      <path id="Trazado_106056" data-name="Trazado 106056" d="M819.3,5818.568a1.542,1.542,0,0,0,1.119-.405,1.432,1.432,0,0,0,.422-1.083h2.372l.028.055a3.019,3.019,0,0,1-1.106,2.458,4.666,4.666,0,0,1-6.174-.38,5.228,5.228,0,0,1-1.172-3.52v-.269a5.254,5.254,0,0,1,1.168-3.518,4.133,4.133,0,0,1,3.336-1.38,4.074,4.074,0,0,1,2.888,1.021,3.391,3.391,0,0,1,1.061,2.687l-.018.053H820.84a1.891,1.891,0,0,0-.412-1.249,1.4,1.4,0,0,0-1.137-.5,1.518,1.518,0,0,0-1.464.8,4.439,4.439,0,0,0-.425,2.073v.269a4.421,4.421,0,0,0,.425,2.088A1.532,1.532,0,0,0,819.3,5818.568Z" transform="translate(-814.787 -5805.96)" fill="#fff"/>
      <path id="Trazado_106057" data-name="Trazado 106057" d="M825.929,5816.868a11.787,11.787,0,0,1-1.42,5.923,6.994,6.994,0,0,1-3.156,3.211H821.3l-.484-1.281a6.634,6.634,0,0,0,1.961-2.839,13.238,13.238,0,0,0,.807-5v-.232a13.123,13.123,0,0,0-.816-4.982,6.849,6.849,0,0,0-1.952-2.86l.484-1.271h.054a6.976,6.976,0,0,1,3.156,3.213,11.791,11.791,0,0,1,1.42,5.918Z" transform="translate(-811.603 -5807.539)" fill="#fff"/>
    </g>
  </g>
</svg>
