<svg xmlns="http://www.w3.org/2000/svg" width="89.962" height="97.312" viewBox="0 0 89.962 97.312">
  <g id="Grupo_53750" data-name="Grupo 53750" transform="translate(-54.777 -4282.174)">
    <circle id="Elipse_3986" data-name="Elipse 3986" cx="44.981" cy="44.981" r="44.981" transform="translate(54.777 4289.523)" fill="#0dcea9"/>
    <g id="Grupo_53749" data-name="Grupo 53749">
      <g id="Grupo_53746" data-name="Grupo 53746">
        <g id="Grupo_53745" data-name="Grupo 53745">
          <path id="Trazado_100818" data-name="Trazado 100818" d="M113.087,4359.9l-6.53-51.424-1.832,14.431-4.7,36.993-8.762,2.068L82.7,4359.9l2.989-57.143.136-2.61v0l.477-9.126.066-1.265v-5.286a2.291,2.291,0,0,1,2.292-2.292h35.788a2.292,2.292,0,0,1,2.292,2.292v5.287l.066,1.264.476,9.121.137,2.617,1.319,25.234.133,2.564,1.536,29.345-7.9,2.068Z" fill="#acc8e8"/>
          <path id="Trazado_100819" data-name="Trazado 100819" d="M124.453,4282.174h-3.711a2.292,2.292,0,0,1,2.291,2.291v5.288h3.711v-5.288A2.292,2.292,0,0,0,124.453,4282.174Z" fill="#94b9e3"/>
          <path id="Trazado_100820" data-name="Trazado 100820" d="M130.411,4359.9l-3.667-70.146h-3.711L126.7,4359.9l2.175,1.31Z" fill="#94b9e3"/>
          <path id="Trazado_100821" data-name="Trazado 100821" d="M130.606,4363.646a2.162,2.162,0,0,1-2.159,2.275h-12.69a2.164,2.164,0,0,1-2.145-1.889l-.525-4.134h17.324Z" fill="#d5e3f4"/>
          <path id="Trazado_100822" data-name="Trazado 100822" d="M130.606,4363.646a2.162,2.162,0,0,1-2.159,2.275h-3.712a2.164,2.164,0,0,0,2.161-2.275l-.2-3.748h3.711Z" fill="#c0d6f2"/>
          <g id="Grupo_53735" data-name="Grupo 53735">
            <path id="Trazado_100823" data-name="Trazado 100823" d="M93.1,4289.753l-.012,1.264c-.406,3.589-2.832,8.181-7.261,9.128l-.136,2.61a10.585,10.585,0,0,0,8.732-6.646,21.444,21.444,0,0,0,1.312-6.317v-.039Z" fill="#c0d6f2"/>
          </g>
          <g id="Grupo_53736" data-name="Grupo 53736">
            <path id="Trazado_100824" data-name="Trazado 100824" d="M127.286,4300.138a9.676,9.676,0,0,1-3.8-1.771,7.307,7.307,0,0,1-2.414-3.112,18.47,18.47,0,0,1-1.043-4.239l0-1.263h-2.646v.039a21.481,21.481,0,0,0,1.311,6.319,10.329,10.329,0,0,0,4.965,5.5,10.942,10.942,0,0,0,3.769,1.149Z" fill="#c0d6f2"/>
            <path id="Trazado_100825" data-name="Trazado 100825" d="M127.423,4302.755a10.942,10.942,0,0,1-3.769-1.149l-.171-3.239a9.676,9.676,0,0,0,3.8,1.771Z" fill="#acc8e8"/>
          </g>
          <g id="Grupo_53737" data-name="Grupo 53737">
            <path id="Trazado_100826" data-name="Trazado 100826" d="M106.557,4308.474a1.264,1.264,0,0,1,0-2.527,3.836,3.836,0,0,0,2.862-1.095c1.713-1.724,1.719-4.911,1.719-4.943v-9.525a1.264,1.264,0,0,1,2.528,0v9.517c0,.16.011,4.239-2.442,6.721a6.323,6.323,0,0,1-4.661,1.852Z" fill="#94b9e3"/>
          </g>
          <path id="Trazado_100827" data-name="Trazado 100827" d="M105.293,4289.12a1.264,1.264,0,0,0-1.263,1.264v15.386L96.317,4359.9l1.759,1.31,1.952-1.31,4.7-36.993h0l1.706-13.438.126-.992h0v-18.09a1.263,1.263,0,0,0-1.264-1.264Z" fill="#94b9e3"/>
          <g id="Grupo_53738" data-name="Grupo 53738">
            <path id="Trazado_100828" data-name="Trazado 100828" d="M128.875,4330.553a21,21,0,0,1-3.67.767,21.286,21.286,0,0,1-2.515.148,19.425,19.425,0,0,1-6.5-1.039,1.264,1.264,0,0,1,.913-2.358,18.271,18.271,0,0,0,7.969.715,18.515,18.515,0,0,0,3.348-.738,1.191,1.191,0,0,1,.32-.059Z" fill="#d5e3f4"/>
            <path id="Trazado_100829" data-name="Trazado 100829" d="M128.875,4330.553a21,21,0,0,1-3.67.767l-.131-2.534a18.515,18.515,0,0,0,3.348-.738,1.191,1.191,0,0,1,.32-.059Z" fill="#c0d6f2"/>
          </g>
          <g id="Grupo_53739" data-name="Grupo 53739">
            <path id="Trazado_100830" data-name="Trazado 100830" d="M93.584,4332.675a13.853,13.853,0,0,1-4.821-.825,1.264,1.264,0,0,1,.948-2.344,11.881,11.881,0,0,0,7.695-.016,1.264,1.264,0,1,1,.86,2.378A13.756,13.756,0,0,1,93.584,4332.675Z" fill="#d5e3f4"/>
          </g>
          <g id="Grupo_53740" data-name="Grupo 53740">
            <path id="Trazado_100831" data-name="Trazado 100831" d="M94.52,4316.715a13.853,13.853,0,0,1-4.821-.825,1.264,1.264,0,0,1,.948-2.344,11.879,11.879,0,0,0,7.695-.016,1.264,1.264,0,1,1,.86,2.377,13.735,13.735,0,0,1-4.682.808Z" fill="#d5e3f4"/>
          </g>
          <g id="Grupo_53741" data-name="Grupo 53741">
            <path id="Trazado_100832" data-name="Trazado 100832" d="M99.3,4282.174v7.579a1.264,1.264,0,1,1-2.528,0v-7.579Z" fill="#d5e3f4"/>
          </g>
          <g id="Grupo_53742" data-name="Grupo 53742">
            <path id="Trazado_100833" data-name="Trazado 100833" d="M116.324,4282.174v7.579a1.264,1.264,0,1,1-2.528,0v-7.579Z" fill="#d5e3f4"/>
          </g>
          <g id="Grupo_53743" data-name="Grupo 53743">
            <path id="Trazado_100834" data-name="Trazado 100834" d="M126.744,4289.753v-1.263H86.372v1.262l-.066,1.265h40.5Z" fill="#d5e3f4"/>
          </g>
          <g id="Grupo_53744" data-name="Grupo 53744">
            <path id="Trazado_100835" data-name="Trazado 100835" d="M107.821,4282.174v3.1a1.264,1.264,0,1,1-2.528,0v-3.1Z" fill="#d5e3f4"/>
          </g>
          <path id="Trazado_100836" data-name="Trazado 100836" d="M100.028,4359.9l-.526,4.134a2.162,2.162,0,0,1-2.144,1.889H84.668a2.163,2.163,0,0,1-2.16-2.275l.2-3.748Z" fill="#d5e3f4"/>
          <path id="Trazado_100837" data-name="Trazado 100837" d="M100.028,4359.9l-.526,4.134a2.162,2.162,0,0,1-2.144,1.889H93.646a2.162,2.162,0,0,0,2.145-1.889l.526-4.134Z" fill="#c0d6f2"/>
        </g>
      </g>
      <g id="Grupo_53748" data-name="Grupo 53748">
        <path id="Trazado_100838" data-name="Trazado 100838" d="M80.125,4365.887H71.151a2.251,2.251,0,0,1-2.244-2.244v-65.068a2.249,2.249,0,0,1,2.244-2.243h8.974c5.065-2.709,1.018,66.513,2.246,67.311A2.254,2.254,0,0,1,80.125,4365.887Z" fill="#ffe45c"/>
        <path id="Trazado_100839" data-name="Trazado 100839" d="M72.272,4363.643v-65.068a2.251,2.251,0,0,1,2.244-2.243c-1.827.118-5.657-.676-5.609,2.244v65.067c-.052,2.865,3.787,2.192,5.609,2.244A2.253,2.253,0,0,1,72.272,4363.643Z" fill="#ffa426"/>
        <g id="Grupo_53747" data-name="Grupo 53747">
          <path id="Trazado_100840" data-name="Trazado 100840" d="M82.369,4329.987v2.244H75.638v-2.244Z" fill="#faa68e"/>
          <path id="Trazado_100841" data-name="Trazado 100841" d="M82.369,4335.6v2.243H77.882V4335.6Z" fill="#faa68e"/>
          <path id="Trazado_100842" data-name="Trazado 100842" d="M82.369,4341.206v2.244H75.638v-2.244Z" fill="#faa68e"/>
          <path id="Trazado_100843" data-name="Trazado 100843" d="M82.369,4346.815v2.244H77.882v-2.244Z" fill="#faa68e"/>
          <path id="Trazado_100844" data-name="Trazado 100844" d="M82.369,4352.425v2.243H75.638v-2.243Z" fill="#faa68e"/>
          <path id="Trazado_100845" data-name="Trazado 100845" d="M82.369,4358.034v2.243H77.882v-2.243Z" fill="#faa68e"/>
          <path id="Trazado_100846" data-name="Trazado 100846" d="M82.369,4324.378v2.244H77.882v-2.244Z" fill="#faa68e"/>
          <path id="Trazado_100847" data-name="Trazado 100847" d="M82.369,4318.769v2.244H75.638v-2.244Z" fill="#faa68e"/>
          <path id="Trazado_100848" data-name="Trazado 100848" d="M82.369,4313.16v2.243H77.882v-2.243Z" fill="#faa68e"/>
          <path id="Trazado_100849" data-name="Trazado 100849" d="M82.369,4307.55v2.244H75.638v-2.244Z" fill="#faa68e"/>
          <path id="Trazado_100850" data-name="Trazado 100850" d="M82.369,4301.941v2.244H77.882v-2.244Z" fill="#faa68e"/>
        </g>
      </g>
    </g>
  </g>
</svg>
