<svg xmlns="http://www.w3.org/2000/svg" xmlns:xlink="http://www.w3.org/1999/xlink" width="419.178" height="329.719" viewBox="0 0 419.178 329.719">
  <defs>
    <clipPath id="clip-path">
      <circle id="Elipse_5008" data-name="Elipse 5008" cx="164.359" cy="164.359" r="164.359" transform="translate(738.503 3378.284)" fill="none"/>
    </clipPath>
  </defs>
  <g id="Grupo_54817" data-name="Grupo 54817" transform="translate(-648.543 -3377.784)">
    <g id="Grupo_54877" data-name="Grupo 54877">
      <g id="Grupo_54837" data-name="Grupo 54837">
        <g id="Grupo_54836" data-name="Grupo 54836" clip-path="url(#clip-path)">
          <g id="Grupo_54835" data-name="Grupo 54835">
            <g id="Grupo_54818" data-name="Grupo 54818">
              <g id="Grupo_54817-2" data-name="Grupo 54817">
                <path id="Trazado_105622" data-name="Trazado 105622" d="M829.158,3471.014l.412-2.276-3.859-.7.131-.728,4.668-4.63,1.213.219-.935,5.162,1.163.211-.157.868-1.163-.21-.413,2.274Zm.569-3.144.5-2.772q.118-.652.275-1.3l-.039-.007c-.343.438-.612.76-.912,1.1l-2.544,2.455,0,.026Z" fill="#497a53"/>
                <path id="Trazado_105623" data-name="Trazado 105623" d="M838.336,3464.917a4.232,4.232,0,0,0-.855-.089,3.381,3.381,0,0,0-3.421,2.415l.026.005a2.574,2.574,0,0,1,4.213,2.532,2.831,2.831,0,0,1-3.3,2.437c-1.764-.321-2.676-1.911-2.285-4.071a5.247,5.247,0,0,1,2.085-3.488,4.585,4.585,0,0,1,2.879-.746,5.584,5.584,0,0,1,.829.085Zm-3.159,6.434c.958.174,1.755-.512,1.971-1.7a1.716,1.716,0,0,0-1.367-2.214,1.873,1.873,0,0,0-1.808.729,1.056,1.056,0,0,0-.2.464c-.236,1.37.219,2.508,1.394,2.72Z" fill="#497a53"/>
              </g>
            </g>
            <g id="Grupo_54820" data-name="Grupo 54820">
              <g id="Grupo_54819" data-name="Grupo 54819">
                <path id="Trazado_105624" data-name="Trazado 105624" d="M824.463,3490.188l.412-2.275-3.86-.7.132-.728,4.668-4.631,1.213.22-.936,5.162,1.164.211-.158.868-1.163-.211-.412,2.275Zm.569-3.143.5-2.773q.118-.651.274-1.3l-.038-.006c-.344.438-.612.759-.912,1.1l-2.544,2.455,0,.026Z" fill="#497a53"/>
                <path id="Trazado_105625" data-name="Trazado 105625" d="M831.014,3491.375l.412-2.275-3.859-.7.132-.727,4.667-4.632,1.214.221-.936,5.162,1.163.21-.157.869-1.163-.211-.412,2.274Zm.57-3.143.5-2.772q.118-.653.274-1.3l-.038-.007c-.344.44-.612.76-.913,1.1l-2.542,2.456-.005.025Z" fill="#497a53"/>
              </g>
            </g>
            <g id="Grupo_54822" data-name="Grupo 54822">
              <g id="Grupo_54821" data-name="Grupo 54821">
                <path id="Trazado_105626" data-name="Trazado 105626" d="M817.786,3510.015l.412-2.276-3.859-.7.131-.729,4.668-4.63,1.213.22-.935,5.162,1.163.211-.157.867-1.164-.21-.412,2.275Zm.569-3.145.5-2.771q.118-.654.275-1.3l-.039-.006c-.343.437-.612.76-.912,1.1l-2.544,2.455,0,.026Z" fill="#cb4a95"/>
                <path id="Trazado_105627" data-name="Trazado 105627" d="M820.862,3510.571l.125-.689,1.037-.7c2.486-1.634,3.652-2.531,3.879-3.783a1.5,1.5,0,0,0-1.341-1.92,2.877,2.877,0,0,0-1.891.385l-.215-.857a3.748,3.748,0,0,1,2.505-.418,2.371,2.371,0,0,1,2.092,2.873c-.278,1.533-1.615,2.572-3.671,3.941l-.762.494-.005.028,3.719.673-.169.932Z" fill="#cb4a95"/>
              </g>
            </g>
            <g id="Grupo_54824" data-name="Grupo 54824">
              <g id="Grupo_54823" data-name="Grupo 54823">
                <path id="Trazado_105628" data-name="Trazado 105628" d="M811.133,3528.405l.413-2.275-3.86-.7.132-.728,4.668-4.631,1.213.22-.936,5.162,1.163.211-.157.868-1.163-.211-.412,2.275Zm.57-3.143.5-2.773q.118-.651.274-1.3l-.038-.007c-.344.439-.612.76-.912,1.1l-2.544,2.455,0,.025Z" fill="#71519e"/>
                <path id="Trazado_105629" data-name="Trazado 105629" d="M816.829,3529.583c-1.623-.295-2.459-2.017-1.987-4.769.508-2.8,2-4.1,3.683-3.793,1.737.316,2.465,2.057,1.986,4.7-.511,2.824-1.856,4.19-3.669,3.862Zm.221-.859c1.138.207,1.93-1.036,2.314-3.157.371-2.044.1-3.477-1.073-3.691-1.022-.185-1.922,1-2.3,3.08-.416,2.155.012,3.579,1.047,3.767Z" fill="#71519e"/>
              </g>
            </g>
            <g id="Grupo_54826" data-name="Grupo 54826">
              <g id="Grupo_54825" data-name="Grupo 54825">
                <path id="Trazado_105630" data-name="Trazado 105630" d="M803.2,3547.547a3.918,3.918,0,0,0,1.746.843,1.653,1.653,0,0,0,2.17-1.269c.2-1.165-.76-1.854-1.846-2.05l-.625-.113.152-.844.625.113c.819.149,1.929-.086,2.108-1.069.12-.665-.194-1.328-1.23-1.517a3.1,3.1,0,0,0-1.76.249l-.158-.873a4.09,4.09,0,0,1,2.3-.243c1.636.3,2.2,1.4,2.019,2.411a2.117,2.117,0,0,1-1.891,1.69l-.005.025a2.175,2.175,0,0,1,1.469,2.457c-.241,1.329-1.5,2.3-3.478,1.944a4.292,4.292,0,0,1-2.059-.954Z"/>
                <path id="Trazado_105631" data-name="Trazado 105631" d="M813.569,3542.021a2.185,2.185,0,0,1,2.057,2.485,2.147,2.147,0,0,1-1.732,1.692l-.007.038a2.352,2.352,0,0,1,1.286,2.449,2.593,2.593,0,0,1-3.261,1.905c-1.738-.316-2.6-1.528-2.381-2.741a2.432,2.432,0,0,1,2.04-1.94l.007-.039a2.084,2.084,0,0,1-.99-2.106,2.364,2.364,0,0,1,2.969-1.745Zm-1.484,7.755a1.527,1.527,0,0,0,1.929-1.181c.181-1-.43-1.622-1.5-2.146a1.847,1.847,0,0,0-1.806,1.454,1.554,1.554,0,0,0,1.363,1.871Zm1.274-6.962a1.342,1.342,0,0,0-1.684,1.068c-.163.828.4,1.391,1.306,1.82a1.663,1.663,0,0,0,1.538-1.278,1.308,1.308,0,0,0-1.147-1.607Z"/>
              </g>
            </g>
            <g id="Grupo_54828" data-name="Grupo 54828">
              <g id="Grupo_54827" data-name="Grupo 54827">
                <path id="Trazado_105632" data-name="Trazado 105632" d="M798.637,3568.025a3.931,3.931,0,0,0,1.746.844,1.653,1.653,0,0,0,2.17-1.27c.2-1.165-.759-1.853-1.845-2.049l-.625-.114.152-.843.625.113c.818.148,1.929-.086,2.107-1.069.121-.665-.194-1.329-1.229-1.517a3.113,3.113,0,0,0-1.761.248l-.157-.872a4.089,4.089,0,0,1,2.3-.243c1.636.3,2.2,1.4,2.018,2.411a2.115,2.115,0,0,1-1.89,1.689l-.005.026a2.176,2.176,0,0,1,1.469,2.457c-.242,1.329-1.5,2.3-3.479,1.943a4.288,4.288,0,0,1-2.059-.954Z" fill="#6cac40"/>
                <path id="Trazado_105633" data-name="Trazado 105633" d="M809,3562.5a2.183,2.183,0,0,1,2.056,2.484,2.148,2.148,0,0,1-1.731,1.693l-.007.038a2.349,2.349,0,0,1,1.285,2.449,2.592,2.592,0,0,1-3.261,1.9c-1.738-.315-2.6-1.527-2.381-2.741a2.434,2.434,0,0,1,2.041-1.939l.006-.039a2.086,2.086,0,0,1-.99-2.107,2.364,2.364,0,0,1,2.97-1.744Zm-1.485,7.755a1.528,1.528,0,0,0,1.93-1.182c.181-1-.431-1.622-1.5-2.145a1.848,1.848,0,0,0-1.807,1.454,1.556,1.556,0,0,0,1.364,1.871Zm1.275-6.962a1.341,1.341,0,0,0-1.684,1.067c-.163.828.4,1.392,1.306,1.821a1.666,1.666,0,0,0,1.538-1.279,1.307,1.307,0,0,0-1.148-1.606Z" fill="#6cac40"/>
              </g>
            </g>
            <g id="Grupo_54830" data-name="Grupo 54830">
              <g id="Grupo_54829" data-name="Grupo 54829">
                <path id="Trazado_105634" data-name="Trazado 105634" d="M794.29,3587.574a3.928,3.928,0,0,0,1.746.844,1.654,1.654,0,0,0,2.17-1.27c.2-1.165-.76-1.853-1.846-2.049l-.625-.114.152-.844.625.114c.819.148,1.929-.086,2.108-1.07.12-.665-.2-1.328-1.23-1.516a3.1,3.1,0,0,0-1.76.248l-.158-.872a4.088,4.088,0,0,1,2.3-.243c1.636.3,2.2,1.4,2.019,2.411a2.117,2.117,0,0,1-1.891,1.689l-.005.026a2.176,2.176,0,0,1,1.469,2.457c-.241,1.329-1.5,2.3-3.479,1.943a4.284,4.284,0,0,1-2.058-.954Z" fill="#ed6e23"/>
                <path id="Trazado_105635" data-name="Trazado 105635" d="M804.656,3582.049a2.184,2.184,0,0,1,2.057,2.484,2.147,2.147,0,0,1-1.732,1.692l-.007.039a2.35,2.35,0,0,1,1.285,2.449,2.591,2.591,0,0,1-3.26,1.9c-1.739-.315-2.6-1.527-2.381-2.741a2.432,2.432,0,0,1,2.04-1.94l.007-.039a2.084,2.084,0,0,1-.991-2.106,2.364,2.364,0,0,1,2.97-1.744Zm-1.484,7.755a1.528,1.528,0,0,0,1.929-1.182c.181-1-.43-1.622-1.5-2.146a1.848,1.848,0,0,0-1.806,1.455,1.554,1.554,0,0,0,1.363,1.871Zm1.274-6.962a1.341,1.341,0,0,0-1.684,1.067c-.163.828.395,1.392,1.306,1.82a1.663,1.663,0,0,0,1.538-1.278,1.306,1.306,0,0,0-1.147-1.606Z" fill="#ed6e23"/>
              </g>
            </g>
            <path id="Trazado_105636" data-name="Trazado 105636" d="M921.915,3719.587c-9.346-42.279,34.931-206.072,37.756-216.434l-203.519-47.187.227-.975,204.531,47.423-.138.5c-.475,1.727-47.432,173.25-37.881,216.454Z" fill="#497a53"/>
            <path id="Trazado_105637" data-name="Trazado 105637" d="M902.374,3739.934c-9.348-42.289,35.371-208.679,38.2-219.126l-203.52-47.187.227-.975,204.53,47.423-.137.5c-.48,1.755-47.876,175.943-38.325,219.148Z" fill="#1caed0"/>
            <path id="Trazado_105638" data-name="Trazado 105638" d="M882.011,3750.021c-9.342-42.26,36.7-202.782,39.683-213.089l-203.511-47.186.227-.975L922.949,3536.2l-.149.508c-.494,1.693-49.362,169.9-39.812,213.1Z" fill="#cb4a95"/>
            <path id="Trazado_105639" data-name="Trazado 105639" d="M860.82,3767.761c-9.342-42.262,39.212-203.749,42.36-214.139l-203.5-47.183.227-.974,204.546,47.425-.156.512c-.522,1.7-52.045,170.945-42.5,214.142Z" fill="#71519e"/>
            <path id="Trazado_105640" data-name="Trazado 105640" d="M842.37,3778.231c-9.343-42.263,36.84-191.851,41.573-206.99L679.29,3521.493l.472-1.943,206.73,50.253-.321,1.019c-.515,1.634-51.369,163.912-41.848,206.978Z"/>
            <path id="Trazado_105641" data-name="Trazado 105641" d="M821.6,3793.413c-9.335-42.229,41.025-195.849,44.382-206.008l-205.163-49.872.236-.972,206.219,50.129-.172.516c-.542,1.623-54.073,162.8-44.525,205.99Z" fill="#6cac40"/>
            <path id="Trazado_105642" data-name="Trazado 105642" d="M799.6,3804.978c-9.329-42.2,44.195-191.355,47.848-201.45L642.3,3553.66l.237-.973,206.235,50.133-.192.526c-.577,1.577-57.548,158.233-48,201.416Z" fill="#ed6e23"/>
            <g id="Grupo_54834" data-name="Grupo 54834">
              <g id="Grupo_54833" data-name="Grupo 54833">
                <path id="Trazado_105643" data-name="Trazado 105643" d="M961.287,3604.587H847.461V3501.761H961.287Zm-112.826-1H960.287V3502.761H848.461Z" fill="red"/>
                <g id="Grupo_54831" data-name="Grupo 54831">
                  <rect id="Rectángulo_5592" data-name="Rectángulo 5592" width="1" height="101.826" transform="translate(866.374 3502.26)" fill="red"/>
                  <rect id="Rectángulo_5593" data-name="Rectángulo 5593" width="1" height="101.826" transform="translate(884.716 3502.26)" fill="red"/>
                  <rect id="Rectángulo_5594" data-name="Rectángulo 5594" width="1" height="101.826" transform="translate(903.06 3502.26)" fill="red"/>
                  <rect id="Rectángulo_5595" data-name="Rectángulo 5595" width="1" height="101.826" transform="translate(922.403 3502.26)" fill="red"/>
                  <rect id="Rectángulo_5596" data-name="Rectángulo 5596" width="1" height="101.826" transform="translate(940.746 3502.26)" fill="red"/>
                </g>
                <g id="Grupo_54832" data-name="Grupo 54832">
                  <rect id="Rectángulo_5597" data-name="Rectángulo 5597" width="112.857" height="1" transform="translate(847.929 3519.152)" fill="red"/>
                  <rect id="Rectángulo_5598" data-name="Rectángulo 5598" width="112.857" height="1" transform="translate(847.929 3536.108)" fill="red"/>
                  <rect id="Rectángulo_5599" data-name="Rectángulo 5599" width="112.857" height="1" transform="translate(847.929 3553.065)" fill="red"/>
                  <rect id="Rectángulo_5600" data-name="Rectángulo 5600" width="112.857" height="1" transform="translate(847.929 3570.021)" fill="red"/>
                  <rect id="Rectángulo_5601" data-name="Rectángulo 5601" width="112.857" height="1" transform="translate(847.929 3586.978)" fill="red"/>
                </g>
              </g>
              <circle id="Elipse_5002" data-name="Elipse 5002" cx="2.717" cy="2.717" r="2.717" transform="translate(864.156 3584.391)" fill="red"/>
              <circle id="Elipse_5003" data-name="Elipse 5003" cx="2.717" cy="2.717" r="2.717" transform="translate(882.499 3567.804)" fill="red"/>
              <circle id="Elipse_5004" data-name="Elipse 5004" cx="2.717" cy="2.717" r="2.717" transform="translate(900.843 3550.848)" fill="red"/>
              <circle id="Elipse_5005" data-name="Elipse 5005" cx="2.717" cy="2.717" r="2.717" transform="translate(919.686 3534.239)" fill="red"/>
              <circle id="Elipse_5006" data-name="Elipse 5006" cx="2.717" cy="2.717" r="2.717" transform="translate(938.529 3516.935)" fill="red"/>
              <circle id="Elipse_5007" data-name="Elipse 5007" cx="2.717" cy="2.717" r="2.717" transform="translate(957.572 3500.065)" fill="red"/>
            </g>
          </g>
        </g>
      </g>
      <path id="Trazado_105644" data-name="Trazado 105644" d="M902.862,3707.5c-90.9,0-164.859-73.956-164.859-164.86s73.956-164.859,164.859-164.859,164.859,73.956,164.859,164.859S993.765,3707.5,902.862,3707.5Zm0-328.719c-90.353,0-163.859,73.507-163.859,163.859s73.506,163.86,163.859,163.86,163.859-73.507,163.859-163.86S993.215,3378.784,902.862,3378.784Z"/>
      <g id="Grupo_54875" data-name="Grupo 54875">
        <path id="Trazado_105645" data-name="Trazado 105645" d="M663.8,3692.643a75.661,75.661,0,0,1-11.563-.651l-.237-.04v-87.135l.269-.016c.118-.007,11.746-.861,15.1-17.124l.061-.291,38.733,9.549-.1.293c-.1.292-9.464,29.35-1,41.021,2.324,3.205,5.824,4.831,10.4,4.831h.286v46.373l-.257.026C715.1,3689.518,683.4,3692.643,663.8,3692.643Zm-11.229-1.174c13.5,2.171,58.764-2.159,62.61-2.533v-45.287c-4.633-.067-8.191-1.77-10.58-5.065-8.267-11.406-.209-37.968.83-41.241l-37.562-9.26c-3.23,15.047-13.5,17.027-15.3,17.26Z"/>
        <rect id="Rectángulo_5602" data-name="Rectángulo 5602" width="0.571" height="59.604" transform="translate(683.592 3611.709)"/>
        <g id="Grupo_54838" data-name="Grupo 54838">
          <path id="Trazado_105646" data-name="Trazado 105646" d="M660.985,3650.79h2.9v.584h-2.2v1.791h2.032v.577h-2.032v2.439h-.7Z"/>
          <path id="Trazado_105647" data-name="Trazado 105647" d="M664.656,3653.518c0-.456-.008-.848-.033-1.208h.617l.031.76h.024a1.171,1.171,0,0,1,1.08-.848,1.409,1.409,0,0,1,.192.016v.664a1.976,1.976,0,0,0-.24-.016.988.988,0,0,0-.944.9,2.171,2.171,0,0,0-.024.327v2.072h-.7Z"/>
          <path id="Trazado_105648" data-name="Trazado 105648" d="M667.591,3654.374a1.232,1.232,0,0,0,1.32,1.335,2.517,2.517,0,0,0,1.072-.2l.128.5a3.153,3.153,0,0,1-1.3.248,1.806,1.806,0,0,1-1.9-1.952,1.885,1.885,0,0,1,1.824-2.087,1.633,1.633,0,0,1,1.592,1.823,1.729,1.729,0,0,1-.024.329Zm2.056-.5a1,1,0,0,0-.968-1.144,1.16,1.16,0,0,0-1.08,1.144Z"/>
          <path id="Trazado_105649" data-name="Trazado 105649" d="M671.2,3653.358c0-.408-.008-.728-.033-1.048h.625l.039.632h.016a1.437,1.437,0,0,1,1.28-.72c.537,0,1.368.32,1.368,1.648v2.311h-.7v-2.231c0-.624-.231-1.152-.9-1.152a1.032,1.032,0,0,0-.992,1.047v2.336h-.7Z"/>
          <path id="Trazado_105650" data-name="Trazado 105650" d="M676.452,3651.382v.928h1.008v.536h-1.008v2.079c0,.48.136.752.528.752a1.315,1.315,0,0,0,.408-.048l.032.536a1.923,1.923,0,0,1-.624.1,1,1,0,0,1-.76-.3,1.518,1.518,0,0,1-.271-1.016v-2.1h-.6v-.536h.6v-.712Z"/>
          <path id="Trazado_105651" data-name="Trazado 105651" d="M678.6,3654.374a1.232,1.232,0,0,0,1.32,1.335,2.517,2.517,0,0,0,1.072-.2l.128.5a3.153,3.153,0,0,1-1.3.248,1.806,1.806,0,0,1-1.9-1.952,1.885,1.885,0,0,1,1.824-2.087,1.633,1.633,0,0,1,1.592,1.823,1.715,1.715,0,0,1-.025.329Zm2.056-.5a1,1,0,0,0-.968-1.144,1.16,1.16,0,0,0-1.08,1.144Z"/>
        </g>
        <g id="Grupo_54840" data-name="Grupo 54840">
          <rect id="Rectángulo_5603" data-name="Rectángulo 5603" width="0.509" height="12.696" transform="translate(652.319 3595.099)" fill="red"/>
          <g id="Grupo_54839" data-name="Grupo 54839">
            <path id="Trazado_105652" data-name="Trazado 105652" d="M653.436,3596.113l-.863-.864-.863.864v-.733l.863-.863.863.863Z" fill="red"/>
          </g>
        </g>
        <g id="Grupo_54842" data-name="Grupo 54842">
          <rect id="Rectángulo_5604" data-name="Rectángulo 5604" width="0.509" height="12.695" transform="translate(667.461 3578.989)" fill="red"/>
          <g id="Grupo_54841" data-name="Grupo 54841">
            <path id="Trazado_105653" data-name="Trazado 105653" d="M668.578,3580l-.863-.863-.863.863v-.733l.863-.863.863.863Z" fill="red"/>
          </g>
        </g>
        <g id="Grupo_54844" data-name="Grupo 54844">
          <rect id="Rectángulo_5605" data-name="Rectángulo 5605" width="0.509" height="12.695" transform="translate(703.93 3589.168)" fill="red"/>
          <g id="Grupo_54843" data-name="Grupo 54843">
            <path id="Trazado_105654" data-name="Trazado 105654" d="M705.047,3590.182l-.863-.863-.863.863v-.733l.863-.863.863.863Z" fill="red"/>
          </g>
        </g>
        <g id="Grupo_54846" data-name="Grupo 54846">
          <rect id="Rectángulo_5606" data-name="Rectángulo 5606" width="0.509" height="12.696" transform="translate(715.083 3686.004)" fill="red"/>
          <g id="Grupo_54845" data-name="Grupo 54845">
            <path id="Trazado_105655" data-name="Trazado 105655" d="M714.474,3697.687l.863.863.863-.863v.732l-.863.863-.863-.863Z" fill="red"/>
          </g>
        </g>
        <g id="Grupo_54848" data-name="Grupo 54848">
          <rect id="Rectángulo_5607" data-name="Rectángulo 5607" width="0.509" height="12.695" transform="translate(676.058 3685.436)" fill="red"/>
          <g id="Grupo_54847" data-name="Grupo 54847">
            <path id="Trazado_105656" data-name="Trazado 105656" d="M675.45,3697.118l.863.863.863-.863v.733l-.863.863-.863-.863Z" fill="red"/>
          </g>
        </g>
        <g id="Grupo_54850" data-name="Grupo 54850">
          <rect id="Rectángulo_5608" data-name="Rectángulo 5608" width="0.509" height="12.695" transform="translate(652.319 3685.436)" fill="red"/>
          <g id="Grupo_54849" data-name="Grupo 54849">
            <path id="Trazado_105657" data-name="Trazado 105657" d="M651.71,3697.118l.863.863.863-.863v.733l-.863.863-.863-.863Z" fill="red"/>
          </g>
        </g>
        <g id="Grupo_54852" data-name="Grupo 54852">
          <rect id="Rectángulo_5609" data-name="Rectángulo 5609" width="12.695" height="0.509" transform="translate(662.936 3587.829)" fill="red"/>
          <g id="Grupo_54851" data-name="Grupo 54851">
            <path id="Trazado_105658" data-name="Trazado 105658" d="M674.617,3588.946l.863-.863-.863-.863h.733l.863.863-.863.863Z" fill="red"/>
          </g>
        </g>
        <g id="Grupo_54854" data-name="Grupo 54854">
          <rect id="Rectángulo_5610" data-name="Rectángulo 5610" width="12.696" height="0.509" transform="translate(698.376 3596.586)" fill="red"/>
          <g id="Grupo_54853" data-name="Grupo 54853">
            <path id="Trazado_105659" data-name="Trazado 105659" d="M710.058,3597.7l.863-.863-.863-.863h.733l.863.863-.863.863Z" fill="red"/>
          </g>
        </g>
        <g id="Grupo_54856" data-name="Grupo 54856">
          <rect id="Rectángulo_5611" data-name="Rectángulo 5611" width="12.695" height="0.509" transform="translate(695.543 3619.247)" fill="red"/>
          <g id="Grupo_54855" data-name="Grupo 54855">
            <path id="Trazado_105660" data-name="Trazado 105660" d="M707.225,3620.364l.863-.863-.863-.863h.733l.863.863-.863.863Z" fill="red"/>
          </g>
        </g>
        <g id="Grupo_54858" data-name="Grupo 54858">
          <rect id="Rectángulo_5612" data-name="Rectángulo 5612" width="12.695" height="0.509" transform="translate(709.628 3642.991)" fill="red"/>
          <g id="Grupo_54857" data-name="Grupo 54857">
            <path id="Trazado_105661" data-name="Trazado 105661" d="M721.31,3644.108l.863-.863-.863-.863h.733l.863.863-.863.863Z" fill="red"/>
          </g>
        </g>
        <g id="Grupo_54860" data-name="Grupo 54860">
          <rect id="Rectángulo_5613" data-name="Rectángulo 5613" width="12.695" height="0.509" transform="translate(709.628 3689.396)" fill="red"/>
          <g id="Grupo_54859" data-name="Grupo 54859">
            <path id="Trazado_105662" data-name="Trazado 105662" d="M721.31,3690.513l.863-.863-.863-.863h.733l.863.863-.863.863Z" fill="red"/>
          </g>
        </g>
        <g id="Grupo_54862" data-name="Grupo 54862">
          <rect id="Rectángulo_5614" data-name="Rectángulo 5614" width="12.696" height="0.509" transform="translate(672.529 3691.82)" fill="red"/>
          <g id="Grupo_54861" data-name="Grupo 54861">
            <path id="Trazado_105663" data-name="Trazado 105663" d="M684.211,3692.938l.863-.863-.863-.863h.733l.863.863-.863.863Z" fill="red"/>
          </g>
        </g>
        <g id="Grupo_54863" data-name="Grupo 54863">
          <path id="Trazado_105664" data-name="Trazado 105664" d="M651.035,3592.049c-.594,0-1-.557-1.01-1.562,0-1.024.444-1.581,1.061-1.581.636,0,1.005.571,1.005,1.539,0,1.033-.388,1.6-1.051,1.6Zm.023-.318c.417,0,.617-.492.617-1.267,0-.748-.186-1.24-.617-1.24-.374,0-.617.478-.617,1.24-.009.789.234,1.267.613,1.267Z" fill="red"/>
          <path id="Trazado_105665" data-name="Trazado 105665" d="M652.77,3592.049a.276.276,0,0,1-.272-.3.279.279,0,0,1,.281-.295.273.273,0,0,1,.276.295.277.277,0,0,1-.281.3Z" fill="red"/>
          <path id="Trazado_105666" data-name="Trazado 105666" d="M654.705,3592v-.832h-1.412v-.267l1.356-1.94h.445v1.889h.425v.318h-.425V3592Zm0-1.15v-1.014c0-.159.005-.318.014-.477h-.014c-.093.178-.168.308-.252.448l-.744,1.034v.009Z" fill="red"/>
        </g>
        <g id="Grupo_54864" data-name="Grupo 54864">
          <path id="Trazado_105667" data-name="Trazado 105667" d="M665.906,3576.381c-.593,0-1-.556-1.009-1.561,0-1.024.444-1.581,1.061-1.581.636,0,1.005.571,1.005,1.538,0,1.034-.388,1.6-1.052,1.6Zm.024-.318c.416,0,.617-.491.617-1.267,0-.748-.187-1.239-.617-1.239-.374,0-.617.477-.617,1.239-.01.79.233,1.267.612,1.267Z" fill="red"/>
          <path id="Trazado_105668" data-name="Trazado 105668" d="M667.641,3576.381a.274.274,0,0,1-.271-.294.279.279,0,0,1,.281-.295.273.273,0,0,1,.275.295.276.276,0,0,1-.28.294Z" fill="red"/>
          <path id="Trazado_105669" data-name="Trazado 105669" d="M669.324,3573.239a.787.787,0,0,1,.889.748.773.773,0,0,1-.505.711v.014a.847.847,0,0,1,.612.786.932.932,0,0,1-1.033.883c-.636,0-1.019-.374-1.019-.818a.876.876,0,0,1,.6-.818v-.014a.751.751,0,0,1-.486-.683.851.851,0,0,1,.939-.809Zm-.028,2.843a.55.55,0,0,0,.608-.543c0-.364-.257-.546-.669-.663a.664.664,0,0,0-.546.631.558.558,0,0,0,.6.575Zm.005-2.548a.483.483,0,0,0-.528.486c-.005.3.229.468.579.561a.6.6,0,0,0,.463-.552.471.471,0,0,0-.51-.5Z" fill="red"/>
          <path id="Trazado_105670" data-name="Trazado 105670" d="M671.976,3576.33v-.832h-1.413v-.267l1.356-1.94h.445v1.889h.425v.318h-.425v.832Zm0-1.15v-1.015c0-.159,0-.318.013-.477h-.013c-.094.178-.169.309-.253.449l-.744,1.033v.01Z" fill="red"/>
        </g>
        <g id="Grupo_54865" data-name="Grupo 54865">
          <path id="Trazado_105671" data-name="Trazado 105671" d="M715.563,3598.333c-.593,0-1-.556-1.009-1.561,0-1.024.444-1.581,1.061-1.581.636,0,1.005.571,1.005,1.539,0,1.033-.388,1.6-1.052,1.6Zm.024-.317c.416,0,.617-.491.617-1.267,0-.748-.187-1.239-.617-1.239-.374,0-.617.477-.617,1.239-.009.789.234,1.267.612,1.267Z" fill="red"/>
          <path id="Trazado_105672" data-name="Trazado 105672" d="M717.3,3598.333a.275.275,0,0,1-.272-.294.279.279,0,0,1,.281-.3.272.272,0,0,1,.275.3.275.275,0,0,1-.28.294Z" fill="red"/>
          <path id="Trazado_105673" data-name="Trazado 105673" d="M718.982,3595.191a.787.787,0,0,1,.888.748.772.772,0,0,1-.505.711v.014a.846.846,0,0,1,.612.786.932.932,0,0,1-1.033.883c-.636,0-1.019-.374-1.019-.818a.876.876,0,0,1,.6-.818v-.014a.751.751,0,0,1-.486-.682.852.852,0,0,1,.94-.81Zm-.029,2.843a.55.55,0,0,0,.608-.542c0-.365-.257-.547-.668-.664a.664.664,0,0,0-.547.631.559.559,0,0,0,.6.575Zm.005-2.548a.483.483,0,0,0-.528.486c-.005.3.229.468.579.561a.6.6,0,0,0,.463-.551.471.471,0,0,0-.509-.5Z" fill="red"/>
          <path id="Trazado_105674" data-name="Trazado 105674" d="M721.633,3598.282v-.832h-1.412v-.266l1.356-1.941h.444v1.889h.425v.318h-.425v.832Zm0-1.15v-1.015c0-.159,0-.318.014-.477h-.014c-.094.178-.169.309-.253.449l-.743,1.033v.01Z" fill="red"/>
        </g>
        <g id="Grupo_54866" data-name="Grupo 54866">
          <path id="Trazado_105675" data-name="Trazado 105675" d="M712.023,3621.259c-.593,0-1-.556-1.009-1.561,0-1.024.443-1.581,1.061-1.581.635,0,1.005.571,1.005,1.538,0,1.034-.388,1.6-1.052,1.6Zm.023-.318c.417,0,.618-.491.618-1.267,0-.748-.187-1.239-.618-1.239-.373,0-.616.477-.616,1.239-.01.79.233,1.267.612,1.267Z" fill="red"/>
          <path id="Trazado_105676" data-name="Trazado 105676" d="M713.758,3621.259a.274.274,0,0,1-.271-.295.279.279,0,0,1,.281-.294.272.272,0,0,1,.275.294.276.276,0,0,1-.28.295Z" fill="red"/>
          <path id="Trazado_105677" data-name="Trazado 105677" d="M715.441,3618.117a.786.786,0,0,1,.888.748.772.772,0,0,1-.505.711v.014a.846.846,0,0,1,.613.785.934.934,0,0,1-1.033.884c-.636,0-1.019-.374-1.019-.818a.877.877,0,0,1,.6-.819v-.013a.75.75,0,0,1-.486-.683.85.85,0,0,1,.939-.809Zm-.028,2.842a.549.549,0,0,0,.608-.542c0-.364-.257-.547-.669-.663a.664.664,0,0,0-.546.63.558.558,0,0,0,.6.575Zm.005-2.547a.482.482,0,0,0-.528.486c-.005.3.229.467.579.561a.6.6,0,0,0,.463-.552.471.471,0,0,0-.51-.495Z" fill="red"/>
          <path id="Trazado_105678" data-name="Trazado 105678" d="M718.092,3621.208v-.833H716.68v-.266l1.356-1.94h.445v1.888h.425v.318h-.425v.833Zm0-1.151v-1.014c0-.159.005-.318.014-.477h-.014c-.093.178-.168.308-.252.449l-.744,1.033v.009Z" fill="red"/>
        </g>
        <g id="Grupo_54867" data-name="Grupo 54867">
          <path id="Trazado_105679" data-name="Trazado 105679" d="M725.735,3641.849h-.01l-.528.285-.079-.313.664-.355h.35v3.039h-.4Z" fill="red"/>
          <path id="Trazado_105680" data-name="Trazado 105680" d="M727.545,3644.556a.274.274,0,0,1-.272-.294.28.28,0,0,1,.281-.295.295.295,0,0,1-.005.589Z" fill="red"/>
          <path id="Trazado_105681" data-name="Trazado 105681" d="M728.208,3644.5v-.252l.323-.313c.776-.739,1.132-1.132,1.132-1.59a.539.539,0,0,0-.6-.594,1.033,1.033,0,0,0-.645.257l-.131-.29a1.347,1.347,0,0,1,.86-.308.853.853,0,0,1,.926.883c0,.561-.407,1.014-1.048,1.632l-.238.224v.009h1.361v.342Z" fill="red"/>
          <path id="Trazado_105682" data-name="Trazado 105682" d="M732.342,3641.756a1.549,1.549,0,0,0-.309.024,1.216,1.216,0,0,0-1.057,1.075h.01a.927.927,0,0,1,1.655.626,1.018,1.018,0,0,1-1.015,1.075c-.645,0-1.07-.5-1.07-1.294a1.889,1.889,0,0,1,.514-1.37,1.641,1.641,0,0,1,.972-.449,1.939,1.939,0,0,1,.3-.023Zm-.706,2.483c.35,0,.589-.295.589-.73a.618.618,0,0,0-.627-.7.674.674,0,0,0-.593.374.383.383,0,0,0-.043.178c.005.5.239.875.669.875Z" fill="red"/>
        </g>
        <g id="Grupo_54868" data-name="Grupo 54868">
          <path id="Trazado_105683" data-name="Trazado 105683" d="M727.262,3684.868h-.01l-.528.286-.079-.313.664-.356h.35v3.039h-.4Z" fill="red"/>
          <path id="Trazado_105684" data-name="Trazado 105684" d="M729.072,3687.575a.274.274,0,0,1-.272-.294.28.28,0,0,1,.281-.295.295.295,0,0,1-.005.589Z" fill="red"/>
          <path id="Trazado_105685" data-name="Trazado 105685" d="M729.735,3687.524v-.252l.323-.313c.776-.739,1.131-1.132,1.131-1.59a.538.538,0,0,0-.6-.594,1.033,1.033,0,0,0-.645.257l-.131-.29a1.347,1.347,0,0,1,.86-.308.852.852,0,0,1,.925.883c0,.561-.406,1.015-1.047,1.632l-.238.225v.009h1.361v.341Z" fill="red"/>
          <path id="Trazado_105686" data-name="Trazado 105686" d="M733.868,3684.775a1.629,1.629,0,0,0-.308.023,1.217,1.217,0,0,0-1.057,1.076h.01a.927.927,0,0,1,1.655.626,1.018,1.018,0,0,1-1.015,1.075c-.645,0-1.07-.5-1.07-1.294a1.89,1.89,0,0,1,.514-1.37,1.655,1.655,0,0,1,.972-.449,1.962,1.962,0,0,1,.3-.023Zm-.7,2.483c.35,0,.589-.3.589-.73a.618.618,0,0,0-.627-.7.676.676,0,0,0-.594.373.392.392,0,0,0-.042.178c.005.5.239.875.669.875Z" fill="red"/>
        </g>
        <g id="Grupo_54869" data-name="Grupo 54869">
          <path id="Trazado_105687" data-name="Trazado 105687" d="M712.4,3703.464c-.593,0-1-.556-1.009-1.561,0-1.024.444-1.581,1.061-1.581.636,0,1.005.571,1.005,1.538,0,1.034-.388,1.6-1.052,1.6Zm.024-.318c.416,0,.617-.491.617-1.267,0-.748-.187-1.239-.617-1.239-.374,0-.617.477-.617,1.239-.01.79.233,1.267.612,1.267Z" fill="red"/>
          <path id="Trazado_105688" data-name="Trazado 105688" d="M714.134,3703.464a.275.275,0,0,1-.271-.3.279.279,0,0,1,.281-.294.273.273,0,0,1,.275.294.276.276,0,0,1-.28.3Z" fill="red"/>
          <path id="Trazado_105689" data-name="Trazado 105689" d="M716.533,3700.663a1.549,1.549,0,0,0-.309.024,1.217,1.217,0,0,0-1.057,1.075h.01a.927.927,0,0,1,1.655.627,1.019,1.019,0,0,1-1.015,1.075c-.645,0-1.07-.505-1.07-1.3a1.891,1.891,0,0,1,.514-1.37,1.652,1.652,0,0,1,.972-.449,1.939,1.939,0,0,1,.3-.023Zm-.706,2.483c.35,0,.589-.295.589-.73a.618.618,0,0,0-.627-.7.676.676,0,0,0-.593.374.377.377,0,0,0-.043.178c.005.5.239.874.669.874Z" fill="red"/>
          <path id="Trazado_105690" data-name="Trazado 105690" d="M718.931,3700.663a1.54,1.54,0,0,0-.308.024,1.217,1.217,0,0,0-1.057,1.075h.01a.927.927,0,0,1,1.655.627,1.019,1.019,0,0,1-1.015,1.075c-.645,0-1.07-.505-1.07-1.3a1.891,1.891,0,0,1,.514-1.37,1.652,1.652,0,0,1,.972-.449,1.936,1.936,0,0,1,.3-.023Zm-.705,2.483c.35,0,.589-.295.589-.73a.618.618,0,0,0-.627-.7.677.677,0,0,0-.594.374.39.39,0,0,0-.042.178c.005.5.239.874.669.874Z" fill="red"/>
        </g>
        <g id="Grupo_54870" data-name="Grupo 54870">
          <path id="Trazado_105691" data-name="Trazado 105691" d="M673.452,3703.907c-.593,0-1-.557-1.01-1.562,0-1.024.445-1.58,1.062-1.58.635,0,1,.57,1,1.538,0,1.033-.389,1.6-1.052,1.6Zm.023-.318c.417,0,.617-.491.617-1.267,0-.748-.186-1.239-.617-1.239-.374,0-.616.477-.616,1.239-.01.79.233,1.267.612,1.267Z" fill="red"/>
          <path id="Trazado_105692" data-name="Trazado 105692" d="M675.187,3703.907a.274.274,0,0,1-.271-.295.279.279,0,0,1,.281-.294.272.272,0,0,1,.275.294.276.276,0,0,1-.28.295Z" fill="red"/>
          <path id="Trazado_105693" data-name="Trazado 105693" d="M677.586,3701.106a1.6,1.6,0,0,0-.31.024,1.217,1.217,0,0,0-1.056,1.075h.01a.927.927,0,0,1,1.655.626,1.019,1.019,0,0,1-1.015,1.076c-.645,0-1.071-.5-1.071-1.295a1.89,1.89,0,0,1,.515-1.37,1.653,1.653,0,0,1,.972-.449,1.934,1.934,0,0,1,.3-.023Zm-.706,2.483c.35,0,.588-.3.588-.73a.617.617,0,0,0-.626-.7.675.675,0,0,0-.593.374.375.375,0,0,0-.043.178c.005.5.238.874.669.874Z" fill="red"/>
          <path id="Trazado_105694" data-name="Trazado 105694" d="M679.984,3701.106a1.587,1.587,0,0,0-.309.024,1.219,1.219,0,0,0-1.057,1.075h.01a.928.928,0,0,1,1.656.626,1.019,1.019,0,0,1-1.015,1.076c-.646,0-1.071-.5-1.071-1.295a1.89,1.89,0,0,1,.515-1.37,1.648,1.648,0,0,1,.972-.449,1.922,1.922,0,0,1,.3-.023Zm-.705,2.483c.349,0,.588-.3.588-.73a.617.617,0,0,0-.626-.7.677.677,0,0,0-.594.374.376.376,0,0,0-.042.178c.005.5.238.874.669.874Z" fill="red"/>
        </g>
        <g id="Grupo_54871" data-name="Grupo 54871">
          <path id="Trazado_105695" data-name="Trazado 105695" d="M686.984,3695.675c-.593,0-1-.557-1.009-1.562,0-1.024.444-1.58,1.061-1.58.636,0,1.005.57,1.005,1.538,0,1.034-.388,1.6-1.052,1.6Zm.024-.318c.416,0,.617-.491.617-1.267,0-.748-.187-1.239-.617-1.239-.374,0-.617.477-.617,1.239-.01.79.233,1.267.612,1.267Z" fill="red"/>
          <path id="Trazado_105696" data-name="Trazado 105696" d="M688.719,3695.675a.274.274,0,0,1-.271-.3.279.279,0,0,1,.281-.294.272.272,0,0,1,.275.294.276.276,0,0,1-.28.3Z" fill="red"/>
          <path id="Trazado_105697" data-name="Trazado 105697" d="M690.655,3695.623v-.832h-1.412v-.266l1.356-1.94h.444v1.888h.425v.318h-.425v.832Zm0-1.15v-1.014c0-.159,0-.318.014-.477h-.014c-.094.178-.169.308-.253.448l-.743,1.034v.009Z" fill="red"/>
          <path id="Trazado_105698" data-name="Trazado 105698" d="M691.782,3695.623v-.252l.322-.313c.777-.739,1.132-1.131,1.132-1.59a.539.539,0,0,0-.6-.594,1.036,1.036,0,0,0-.645.257l-.131-.29a1.355,1.355,0,0,1,.86-.308.854.854,0,0,1,.926.884c0,.561-.407,1.014-1.047,1.631l-.238.225v.009h1.36v.341Z" fill="red"/>
        </g>
        <g id="Grupo_54872" data-name="Grupo 54872">
          <path id="Trazado_105699" data-name="Trazado 105699" d="M649.553,3704.614c-.594,0-1-.555-1.01-1.56,0-1.024.444-1.581,1.061-1.581.636,0,1.005.571,1.005,1.538,0,1.034-.388,1.6-1.051,1.6Zm.023-.317c.416,0,.617-.491.617-1.267,0-.748-.187-1.239-.617-1.239-.374,0-.617.477-.617,1.239-.009.79.234,1.267.612,1.267Z" fill="red"/>
          <path id="Trazado_105700" data-name="Trazado 105700" d="M651.288,3704.614a.274.274,0,0,1-.272-.294.279.279,0,0,1,.281-.294.272.272,0,0,1,.276.294.276.276,0,0,1-.281.294Z" fill="red"/>
          <path id="Trazado_105701" data-name="Trazado 105701" d="M653.686,3701.814a1.586,1.586,0,0,0-.309.024,1.217,1.217,0,0,0-1.056,1.076h.009a.927.927,0,0,1,1.655.626,1.018,1.018,0,0,1-1.014,1.074c-.645,0-1.071-.5-1.071-1.294a1.891,1.891,0,0,1,.514-1.37,1.654,1.654,0,0,1,.973-.449,1.914,1.914,0,0,1,.3-.023Zm-.706,2.483c.351,0,.589-.3.589-.729a.618.618,0,0,0-.627-.7.675.675,0,0,0-.593.374.387.387,0,0,0-.042.177c.005.5.238.875.668.875Z" fill="red"/>
          <path id="Trazado_105702" data-name="Trazado 105702" d="M656.085,3701.814a1.586,1.586,0,0,0-.309.024,1.217,1.217,0,0,0-1.057,1.076h.01a.927.927,0,0,1,1.655.626,1.018,1.018,0,0,1-1.015,1.074c-.645,0-1.07-.5-1.07-1.294a1.891,1.891,0,0,1,.514-1.37,1.654,1.654,0,0,1,.972-.449,1.934,1.934,0,0,1,.3-.023Zm-.706,2.483c.35,0,.589-.3.589-.729a.618.618,0,0,0-.627-.7.675.675,0,0,0-.593.374.374.374,0,0,0-.043.177c.005.5.239.875.669.875Z" fill="red"/>
        </g>
        <g id="Grupo_54873" data-name="Grupo 54873">
          <path id="Trazado_105703" data-name="Trazado 105703" d="M702.463,3587.437c-.593,0-1-.556-1.009-1.561,0-1.024.444-1.58,1.061-1.58.635,0,1.005.57,1.005,1.538,0,1.033-.388,1.6-1.052,1.6Zm.023-.317c.417,0,.618-.491.618-1.267,0-.748-.187-1.239-.618-1.239-.373,0-.616.477-.616,1.239-.01.79.234,1.267.612,1.267Z" fill="red"/>
          <path id="Trazado_105704" data-name="Trazado 105704" d="M704.2,3587.437a.273.273,0,0,1-.271-.294.279.279,0,0,1,.281-.294.272.272,0,0,1,.275.294.275.275,0,0,1-.28.294Z" fill="red"/>
          <path id="Trazado_105705" data-name="Trazado 105705" d="M706.835,3584.347v.272l-1.323,2.767h-.421l1.314-2.689v-.009h-1.487v-.341Z" fill="red"/>
          <path id="Trazado_105706" data-name="Trazado 105706" d="M709,3584.637a1.6,1.6,0,0,0-.31.024,1.216,1.216,0,0,0-1.056,1.075h.01a.926.926,0,0,1,1.655.626,1.018,1.018,0,0,1-1.015,1.075c-.645,0-1.071-.5-1.071-1.294a1.89,1.89,0,0,1,.515-1.37,1.642,1.642,0,0,1,.972-.449,1.934,1.934,0,0,1,.3-.023Zm-.706,2.483c.35,0,.588-.3.588-.73a.618.618,0,0,0-.626-.7.676.676,0,0,0-.593.374.384.384,0,0,0-.043.178c0,.5.238.875.669.875Z" fill="red"/>
        </g>
        <g id="Grupo_54874" data-name="Grupo 54874">
          <path id="Trazado_105707" data-name="Trazado 105707" d="M678.946,3589.875c-.594,0-1-.557-1.01-1.562,0-1.024.444-1.58,1.061-1.58.636,0,1.005.57,1.005,1.538,0,1.033-.388,1.6-1.052,1.6Zm.023-.318c.416,0,.617-.491.617-1.267,0-.748-.187-1.239-.617-1.239-.374,0-.617.477-.617,1.239-.009.79.234,1.267.612,1.267Z" fill="red"/>
          <path id="Trazado_105708" data-name="Trazado 105708" d="M680.681,3589.875a.275.275,0,0,1-.272-.295.279.279,0,0,1,.281-.294.272.272,0,0,1,.275.294.276.276,0,0,1-.28.295Z" fill="red"/>
          <path id="Trazado_105709" data-name="Trazado 105709" d="M681.344,3589.823v-.252l.323-.313c.776-.739,1.132-1.132,1.132-1.59a.54.54,0,0,0-.6-.594,1.033,1.033,0,0,0-.645.257l-.131-.29a1.348,1.348,0,0,1,.86-.308.854.854,0,0,1,.926.884c0,.561-.407,1.014-1.048,1.631l-.238.225v.009h1.361v.341Z" fill="red"/>
          <path id="Trazado_105710" data-name="Trazado 105710" d="M685.557,3587.13H684.4l-.117.781a1.691,1.691,0,0,1,.248-.019,1.276,1.276,0,0,1,.654.164.863.863,0,0,1,.435.781,1.054,1.054,0,0,1-1.131,1.038,1.51,1.51,0,0,1-.758-.187l.1-.313a1.365,1.365,0,0,0,.655.168.667.667,0,0,0,.715-.664c0-.388-.267-.669-.87-.669a2.522,2.522,0,0,0-.425.033l.2-1.459h1.454Z" fill="red"/>
        </g>
      </g>
      <g id="Grupo_54876" data-name="Grupo 54876">
        <path id="Trazado_105711" data-name="Trazado 105711" d="M938.937,3439.84h-3.775v3.515h4.224v1.056h-5.5v-9.75h5.281v1.057h-4.008v3.081h3.775Z"/>
        <path id="Trazado_105712" data-name="Trazado 105712" d="M939.258,3446.465a2.029,2.029,0,0,0,1.389-.535c.347-.391.491-.955.491-2.633v-5.887h1.274v6.379a3.842,3.842,0,0,1-.839,2.879,3.237,3.237,0,0,1-2.17.795Zm2.488-10.241a.757.757,0,0,1-.767-.782.767.767,0,0,1,.8-.795.789.789,0,0,1-.015,1.577Z"/>
        <path id="Trazado_105713" data-name="Trazado 105713" d="M945.218,3441.141a2.228,2.228,0,0,0,2.387,2.416,4.57,4.57,0,0,0,1.939-.361l.231.911a5.7,5.7,0,0,1-2.344.449,3.266,3.266,0,0,1-3.442-3.53c0-2.112,1.259-3.775,3.3-3.775,2.285,0,2.879,2.011,2.879,3.3a3.075,3.075,0,0,1-.044.592Zm3.718-.911a1.81,1.81,0,0,0-1.751-2.068,2.1,2.1,0,0,0-1.952,2.068Z"/>
        <path id="Trazado_105714" data-name="Trazado 105714" d="M951.744,3439.3c0-.738-.029-1.317-.058-1.9H952.8l.058,1.128h.043a2.422,2.422,0,0,1,2.214-1.287,2.065,2.065,0,0,1,1.967,1.4h.029a2.778,2.778,0,0,1,.795-.912,2.357,2.357,0,0,1,1.534-.491c.94,0,2.315.607,2.315,3.037v4.123H960.51v-3.964c0-1.359-.506-2.155-1.519-2.155a1.674,1.674,0,0,0-1.519,1.142,2.294,2.294,0,0,0-.1.637v4.34h-1.244V3440.2c0-1.114-.492-1.91-1.461-1.91a1.9,1.9,0,0,0-1.678,1.9v4.224h-1.244Z"/>
        <path id="Trazado_105715" data-name="Trazado 105715" d="M963.811,3439.7c0-.9-.014-1.62-.057-2.285H964.9l.072,1.2H965a2.7,2.7,0,0,1,2.473-1.359c1.707,0,2.98,1.431,2.98,3.558,0,2.517-1.548,3.761-3.182,3.761a2.441,2.441,0,0,1-2.156-1.1h-.028v3.8h-1.274Zm1.274,1.866a2.069,2.069,0,0,0,.057.521,1.947,1.947,0,0,0,1.895,1.49c1.345,0,2.127-1.1,2.127-2.705,0-1.4-.724-2.6-2.069-2.6a2.03,2.03,0,0,0-1.938,1.576,3.034,3.034,0,0,0-.072.507Z"/>
        <path id="Trazado_105716" data-name="Trazado 105716" d="M972.044,3434.14h1.273v10.271h-1.273Z"/>
        <path id="Trazado_105717" data-name="Trazado 105717" d="M978.308,3444.57a3.336,3.336,0,0,1-3.355-3.6,3.426,3.426,0,0,1,3.471-3.718,3.311,3.311,0,0,1,3.371,3.587,3.431,3.431,0,0,1-3.472,3.732Zm.059-.955c1.215,0,2.126-1.142,2.126-2.733,0-1.187-.593-2.677-2.1-2.677-1.489,0-2.14,1.389-2.14,2.72,0,1.533.868,2.69,2.1,2.69Z"/>
        <path id="Trazado_105718" data-name="Trazado 105718" d="M897.378,3452.155a12.93,12.93,0,0,1,2.415-.2,4,4,0,0,1,2.734.811,2.62,2.62,0,0,1,.868,2.025,2.826,2.826,0,0,1-.766,2.083,4.046,4.046,0,0,1-2.981,1.07,4.3,4.3,0,0,1-1.013-.087v3.92h-1.257Zm1.257,4.672a4.239,4.239,0,0,0,1.042.1c1.519,0,2.445-.739,2.445-2.069,0-1.288-.911-1.91-2.3-1.91a5.267,5.267,0,0,0-1.187.1Z"/>
        <path id="Trazado_105719" data-name="Trazado 105719" d="M910.673,3459.85c0,.738.014,1.374.058,1.924H909.6l-.072-1.142H909.5a2.618,2.618,0,0,1-2.315,1.3c-1.1,0-2.416-.622-2.416-3.066v-4.094h1.273v3.863c0,1.33.42,2.242,1.562,2.242a1.832,1.832,0,0,0,1.678-1.172,1.754,1.754,0,0,0,.116-.651v-4.282h1.273Z"/>
        <path id="Trazado_105720" data-name="Trazado 105720" d="M912.787,3456.668c0-.737-.014-1.317-.058-1.9h1.128l.072,1.143h.03a2.592,2.592,0,0,1,2.314-1.3c.97,0,2.474.578,2.474,2.98v4.18h-1.273v-4.036c0-1.128-.42-2.083-1.62-2.083a1.838,1.838,0,0,0-1.707,1.3,1.892,1.892,0,0,0-.087.594v4.223h-1.273Z"/>
        <path id="Trazado_105721" data-name="Trazado 105721" d="M922.293,3453.095v1.678h1.823v.969h-1.823v3.761c0,.868.246,1.36.955,1.36a2.37,2.37,0,0,0,.738-.087l.058.969a3.471,3.471,0,0,1-1.129.174,1.813,1.813,0,0,1-1.374-.535,2.737,2.737,0,0,1-.492-1.837v-3.805h-1.084v-.969h1.084v-1.288Z"/>
        <path id="Trazado_105722" data-name="Trazado 105722" d="M928.311,3461.933a3.336,3.336,0,0,1-3.355-3.6,3.426,3.426,0,0,1,3.471-3.718,3.311,3.311,0,0,1,3.371,3.587,3.43,3.43,0,0,1-3.472,3.732Zm.059-.955c1.215,0,2.126-1.142,2.126-2.733,0-1.187-.593-2.677-2.1-2.677-1.489,0-2.141,1.389-2.141,2.72,0,1.533.869,2.69,2.1,2.69Z"/>
        <path id="Trazado_105723" data-name="Trazado 105723" d="M936.472,3451.5h1.274v4.368h.028a2.288,2.288,0,0,1,.912-.9,2.48,2.48,0,0,1,1.3-.361c.94,0,2.444.578,2.444,2.994v4.166H941.16v-4.036c0-1.128-.42-2.068-1.62-2.068a1.843,1.843,0,0,0-1.707,1.273,1.528,1.528,0,0,0-.087.608v4.223h-1.274Z"/>
        <path id="Trazado_105724" data-name="Trazado 105724" d="M947.352,3461.933a3.336,3.336,0,0,1-3.355-3.6,3.426,3.426,0,0,1,3.471-3.718,3.311,3.311,0,0,1,3.371,3.587,3.43,3.43,0,0,1-3.472,3.732Zm.059-.955c1.215,0,2.126-1.142,2.126-2.733,0-1.187-.593-2.677-2.1-2.677-1.489,0-2.14,1.389-2.14,2.72,0,1.533.868,2.69,2.1,2.69Z"/>
        <path id="Trazado_105725" data-name="Trazado 105725" d="M952.447,3456.668c0-.737-.028-1.317-.058-1.9H953.5l.057,1.128h.043a2.422,2.422,0,0,1,2.214-1.287,2.065,2.065,0,0,1,1.967,1.4h.029a2.778,2.778,0,0,1,.795-.912,2.357,2.357,0,0,1,1.534-.491c.94,0,2.315.608,2.315,3.037v4.123h-1.244v-3.964c0-1.359-.507-2.155-1.52-2.155a1.673,1.673,0,0,0-1.519,1.143,2.287,2.287,0,0,0-.1.636v4.34H956.83v-4.209c0-1.114-.491-1.91-1.461-1.91a1.755,1.755,0,0,0-1.576,1.274,1.735,1.735,0,0,0-.1.622v4.223h-1.244Z"/>
        <path id="Trazado_105726" data-name="Trazado 105726" d="M964.514,3451.5h1.274v4.383h.028a2.6,2.6,0,0,1,2.387-1.273c1.736,0,2.951,1.446,2.951,3.559,0,2.516-1.591,3.76-3.153,3.76a2.506,2.506,0,0,1-2.343-1.316h-.029l-.073,1.157h-1.1c.043-.477.057-1.186.057-1.808Zm1.274,7.464a2.394,2.394,0,0,0,.043.463,1.977,1.977,0,0,0,1.909,1.49c1.346,0,2.127-1.085,2.127-2.691,0-1.418-.724-2.618-2.083-2.618a2.018,2.018,0,0,0-1.924,1.563,1.967,1.967,0,0,0-.072.535Z"/>
        <path id="Trazado_105727" data-name="Trazado 105727" d="M972.747,3456.957c0-.824-.015-1.533-.058-2.184H973.8l.058,1.374h.043a2.118,2.118,0,0,1,1.953-1.533,2.849,2.849,0,0,1,.348.028v1.2a3.543,3.543,0,0,0-.435-.03,1.785,1.785,0,0,0-1.707,1.62,4.086,4.086,0,0,0-.043.594v3.746h-1.273Z"/>
        <path id="Trazado_105728" data-name="Trazado 105728" d="M980.183,3461.933a3.336,3.336,0,0,1-3.355-3.6,3.426,3.426,0,0,1,3.471-3.718,3.311,3.311,0,0,1,3.371,3.587,3.43,3.43,0,0,1-3.472,3.732Zm.059-.955c1.215,0,2.126-1.142,2.126-2.733,0-1.187-.593-2.677-2.1-2.677-1.489,0-2.14,1.389-2.14,2.72,0,1.533.868,2.69,2.1,2.69Z"/>
        <path id="Trazado_105729" data-name="Trazado 105729" d="M988.938,3454.773l1,1.5c.26.391.478.738.708,1.143h.044c.232-.419.463-.78.709-1.157l.969-1.49h1.389l-2.387,3.385,2.444,3.616h-1.446l-1.026-1.577c-.276-.4-.507-.795-.753-1.215h-.029c-.231.42-.477.8-.738,1.215l-1.013,1.577h-1.4l2.488-3.573-2.372-3.428Z"/>
        <path id="Trazado_105730" data-name="Trazado 105730" d="M997.938,3460.473a3.6,3.6,0,0,0,1.693.491c.911,0,1.344-.449,1.344-1.041,0-.608-.361-.926-1.287-1.274-1.273-.463-1.866-1.156-1.866-1.981a2.168,2.168,0,0,1,2.416-2.054,3.25,3.25,0,0,1,1.707.434l-.3.911a2.869,2.869,0,0,0-1.432-.4c-.752,0-1.158.433-1.158.954,0,.579.406.839,1.317,1.2,1.2.448,1.837,1.055,1.837,2.1,0,1.244-.969,2.112-2.6,2.112a3.985,3.985,0,0,1-1.967-.492Z"/>
        <path id="Trazado_105731" data-name="Trazado 105731" d="M1004.448,3453.587a.757.757,0,0,1-.767-.781.789.789,0,1,1,.782.781Zm-.608,8.187v-7h1.274v7Z"/>
        <path id="Trazado_105732" data-name="Trazado 105732" d="M1007.053,3460.473a3.6,3.6,0,0,0,1.693.491c.911,0,1.344-.449,1.344-1.041,0-.608-.361-.926-1.287-1.274-1.273-.463-1.866-1.156-1.866-1.981a2.168,2.168,0,0,1,2.416-2.054,3.25,3.25,0,0,1,1.707.434l-.3.911a2.877,2.877,0,0,0-1.433-.4c-.752,0-1.157.433-1.157.954,0,.579.405.839,1.316,1.2,1.2.448,1.837,1.055,1.837,2.1,0,1.244-.969,2.112-2.6,2.112a3.978,3.978,0,0,1-1.966-.492Z"/>
        <path id="Trazado_105733" data-name="Trazado 105733" d="M1017.888,3460.1a11.777,11.777,0,0,0,.1,1.677h-1.143l-.116-.883h-.043a2.585,2.585,0,0,1-2.14,1.042,2,2,0,0,1-2.142-2.01c0-1.693,1.505-2.618,4.21-2.6v-.144a1.438,1.438,0,0,0-1.591-1.62,3.373,3.373,0,0,0-1.838.52l-.289-.853a4.533,4.533,0,0,1,2.315-.608c2.155,0,2.675,1.461,2.675,2.864Zm-1.244-1.9c-1.388-.028-2.965.218-2.965,1.577a1.116,1.116,0,0,0,1.187,1.215,1.766,1.766,0,0,0,1.721-1.172,1.282,1.282,0,0,0,.057-.4Z"/>
      </g>
      <rect id="Rectángulo_5615" data-name="Rectángulo 5615" width="40.527" height="0.75" transform="matrix(0.935, -0.354, 0.354, 0.935, 705.445, 3596.934)"/>
    </g>
    <g id="Grupo_54879" data-name="Grupo 54879">
      <rect id="Rectángulo_5616" data-name="Rectángulo 5616" width="233.983" height="1" transform="translate(792.787 3569.239)" fill="red"/>
      <g id="Grupo_54878" data-name="Grupo 54878">
        <path id="Trazado_105734" data-name="Trazado 105734" d="M1033.83,3569.739l-9.949-4.065,2.361,4.065-2.361,4.064Z" fill="red"/>
      </g>
    </g>
    <g id="Grupo_54881" data-name="Grupo 54881">
      <rect id="Rectángulo_5617" data-name="Rectángulo 5617" width="1" height="233.982" transform="translate(883.831 3391.908)" fill="red"/>
      <g id="Grupo_54880" data-name="Grupo 54880">
        <path id="Trazado_105735" data-name="Trazado 105735" d="M884.331,3384.847l-4.065,9.949,4.065-2.361,4.064,2.361Z" fill="red"/>
      </g>
    </g>
    <path id="Trazado_105736" data-name="Trazado 105736" d="M884.157,3409.9l-3.523-5.187.828-.562,2.738,4.032,3.058-4.052.8.6Z" fill="red"/>
    <g id="Grupo_54882" data-name="Grupo 54882">
      <path id="Trazado_105737" data-name="Trazado 105737" d="M1039.3,3565.707l.576,1.363c.168.416.324.816.48,1.215h.024c.156-.449.3-.849.456-1.265l.515-1.313h1.979l-1.931,3.875,1.955,4.258h-2.063l-.587-1.464a13,13,0,0,1-.456-1.247h-.036c-.144.449-.3.848-.444,1.247l-.552,1.464h-2l1.991-4.158-1.944-3.975Z" fill="red"/>
    </g>
  </g>
</svg>
