<svg xmlns="http://www.w3.org/2000/svg" width="343.543" height="260.594" viewBox="0 0 343.543 260.594">
  <g id="Grupo_53846" data-name="Grupo 53846" transform="translate(-698.463 -5948.961)">
    <g id="Grupo_53831" data-name="Grupo 53831">
      <g id="Grupo_53830" data-name="Grupo 53830">
        <g id="Grupo_53828" data-name="Grupo 53828">
          <g id="Grupo_53826" data-name="Grupo 53826">
            <path id="Trazado_101316" data-name="Trazado 101316" d="M754.675,6148.948c-31.541-73.509,31.6-161.456,96.983-191.293,34.81-15.886,71.1-8.556,103,10.306a282.239,282.239,0,0,1,24.627,16.312c5.661,4.207,11.209,8.7,16.519,13.457C966.013,6079.669,899.6,6178.5,754.675,6148.948Z" fill="#0ac4bf"/>
          </g>
          <g id="Grupo_53827" data-name="Grupo 53827">
            <path id="Trazado_101317" data-name="Trazado 101317" d="M1038.622,6061.633c10.279,38.343-3.242,79.249-35.32,102.939-31.472,23.242-71.342,33.158-108.956,41.308-51.836,11.231-114.944-2.218-138.857-55.079q-.417-.925-.814-1.853C899.6,6178.5,966.013,6079.669,995.8,5997.73,1015.545,6015.43,1031.988,6036.888,1038.622,6061.633Z" fill="#08938f"/>
          </g>
        </g>
        <g id="Grupo_53829" data-name="Grupo 53829">
          <path id="Trazado_101318" data-name="Trazado 101318" d="M772.47,6136.172a64.9,64.9,0,0,0-10.933-18.777l-1.819,4.571-2.37-9.083a54.839,54.839,0,0,0-12.242-9l.82,6.671-5.758-9.011a58.367,58.367,0,0,0-17.729-4.158l.165,4.69-2.37-4.829a77.477,77.477,0,0,0-13.669.613q1.825,4.056,3.8,7.671l4.409-.444-3.036,2.888a81.457,81.457,0,0,0,11.671,15.7l7.019-.709-3.753,3.871a56.108,56.108,0,0,0,10.2,7.366l10.782-1.751L743.8,6137.4a44.57,44.57,0,0,0,27.243,1.249L723.331,6106.5S760.476,6128.894,772.47,6136.172Z" fill="#6cdcd9"/>
          <path id="Trazado_101319" data-name="Trazado 101319" d="M723.331,6106.5l47.714,32.145,3.22,2.169,1.883-2.4c-.119-.084-1.474-.912-3.678-2.249C760.476,6128.894,723.331,6106.5,723.331,6106.5Z" fill="#6cdcd9"/>
          <path id="Trazado_101320" data-name="Trazado 101320" d="M789.2,6112.737c-3.275,2.058-7.386,7.586-8.823,9.6q-.147-1.008-.3-2.015-.165-1.067-.338-2.131c1.84-2.013,6.621-7.628,7.911-12.923-3.228,2.832-6.626,9.467-8,12.336l-.006-.035q-.349-2.09-.739-4.174c1.292-1.718,7.343-10.088,8.25-17.378-3.933,4.346-7.456,14.534-8.3,17.1-.216-1.153-.436-2.305-.668-3.455-.189-.93-.388-1.859-.591-2.786,1.505-2.022,7.252-10.133,8.134-17.223-3.811,4.212-7.237,13.909-8.217,16.845q-.681-3.07-1.463-6.117c1.761-2.367,8.444-11.807,9.471-20.058-4.446,4.913-8.443,16.235-9.578,19.638q-.652-2.511-1.375-5.006c1.407-1.864,8.59-11.729,9.658-20.308-4.664,5.155-8.833,17.361-9.724,20.08q-.744-2.562-1.558-5.1c1.841-3.031,9.845-16.845,10.031-28.291-5.429,7.29-9.238,23.519-10.18,27.829q-.915-2.834-1.917-5.639c1.952-3.227,9.787-16.869,9.97-28.191-5.371,7.214-9.157,23.18-10.149,27.69q-.759-2.113-1.565-4.209-.36-.925-.731-1.847c2.176-3.6,10.679-18.455,10.879-30.79-5.865,7.876-10,25.295-11.1,30.261q-1.036-2.551-2.153-5.073c-.223-.5-.452-1-.681-1.5,1.785-2.917,10.871-18.363,11.078-31.119-6.11,8.205-10.345,26.765-11.216,30.816q-1.284-2.769-2.692-5.485c-.106-.207-.218-.412-.326-.619,1.879-3.789,9.824-20.719,8.79-34.182-5.659,9.089-8.4,28.612-9.036,33.715q-1.377-2.6-2.9-5.129c.906-4.064,4.467-21.953.073-34.691-3.233,9.725-1.168,28.566-.473,34.021-.038-.062-.074-.125-.112-.186-.359-.576-.7-1.161-1.073-1.729l-1.109-1.71c-.612-.9-1.218-1.793-1.851-2.676.2-1.911,2.045-21.9-4.548-34.942-2.109,10.96,3.7,32.134,4.452,34.81-.13-.181-.26-.362-.393-.541q-2.2-3.026-4.7-5.865c-.265-1.76-3.763-23.765-14.678-36.312.741,12.152,12.928,33.4,14.523,36.133a73.849,73.849,0,0,0-6.172-6.211c-.346-.307-.7-.608-1.05-.908-.735-1.9-8.92-22.469-22.345-32.693,3.284,11.45,19.347,29.475,22.019,32.419q-1.257-1.052-2.577-2.041l.081.031s-18.581-15.983-36.812-19.707c8.279,8.282,30.174,17.128,35.587,19.237.98.73,1.93,1.492,2.858,2.275-3.085-1.14-24.8-8.856-42.282-6.924,12.012,5.6,39.734,6.937,42.44,7.055.6.507,1.183,1.02,1.757,1.547a72.714,72.714,0,0,1,5.642,5.833c-3.55-1.3-24.9-8.778-42.141-6.873,11.822,5.517,38.861,6.9,42.294,7.049q2.631,3.056,4.924,6.338c.023.031.044.063.066.094-3.387-1.245-24.869-8.807-42.194-6.892,11.834,5.523,38.921,6.9,42.305,7.049.726,1.02,1.41,2.064,2.1,3.1l1.077,1.711c.362.569.694,1.154,1.043,1.73.2.343.4.689.6,1.033-4.062-1.476-25-8.677-41.951-6.8,11.612,5.419,37.906,6.844,42.088,7.039,1.05,1.828,2.055,3.679,3,5.559-4.139-1.5-25.009-8.661-41.92-6.792,11.574,5.4,37.734,6.835,42.045,7.037v0q1.362,2.73,2.608,5.508c-4.984-1.777-25.1-8.45-41.494-6.638,11.268,5.258,36.364,6.756,41.661,7.018.206.465.411.929.611,1.4q1.182,2.761,2.263,5.56c-4.4-1.555-20.457-6.78-33.583-5.33,9.038,4.218,28.993,5.466,33.726,5.707.192.5.384,1,.572,1.507q.748,2.04,1.45,4.1c-3.474-1.242-17.885-6.045-29.62-4.749,8.042,3.753,25.964,4.819,29.707,5q.546,1.606,1.068,3.221.348,1.091.68,2.185c-3.5-1.226-15.4-5.043-25.148-3.965,6.716,3.134,21.44,4.09,25.246,4.289q.778,2.572,1.493,5.163c.034.118.065.237.1.356-3.557-1.227-13.858-4.418-22.351-3.485,5.883,2.756,18.559,3.665,22.461,3.886q.758,2.73,1.439,5.479c-3.452-1.2-13.877-4.464-22.457-3.521,5.927,2.777,18.751,3.679,22.548,3.891.094.377.189.755.281,1.133q.607,2.466,1.175,4.941c-3.192-1.123-13.907-4.568-22.689-3.6,6.041,2.831,19.247,3.713,22.757,3.9.2.849.392,1.7.58,2.548q.3,1.321.575,2.645c-2.193-.847-11.378-4.17-18.8-3.434,5.119,2.549,16.434,3.436,18.832,3.6q.423,2,.817,4.008c-2.365-.957-9.7-3.675-15.647-3.159,4.178,2.22,13.1,3.182,15.7,3.422.049.252.1.5.148.755.16.807.313,1.616.464,2.425.121.653.238,1.306.355,1.959-2.46-.989-9.687-3.631-15.555-3.122,4.13,2.195,12.9,3.16,15.608,3.413q.287,1.6.562,3.2c.441,2.633.862,5.271,1.24,7.916.4,2.643.732,5.3,1.032,7.954l.149-.014c-.186-5.369-.7-10.711-1.382-16.026-.12-.958-.252-1.914-.39-2.869C782.13,6121.324,787.218,6117.118,789.2,6112.737Z" fill="#6cdcd9"/>
        </g>
      </g>
    </g>
    <g id="Grupo_53845" data-name="Grupo 53845">
      <g id="Grupo_53836" data-name="Grupo 53836">
        <path id="Trazado_101321" data-name="Trazado 101321" d="M927.911,6022.1a54.085,54.085,0,0,1-11.192,24.95c-5.039,6.122-11.845,11.161-19.718,12.811a25.3,25.3,0,0,1-16.245-2.12,34.572,34.572,0,0,1-14.332-13.774,29.538,29.538,0,0,1-3.983-18.013c.481-4.311-20.809-9.69-16.236-11.2.471-.154,13.878-2.032,14.34-2.082,14.584-1.6,21.5,10.728,30.915,18.321,2.455,1.98,5.4,3.8,8.642,3.925,3.7.144,7.058-1.961,9.8-4.236,4.87-4.048,9.353-9.865,13.091-14.949l.189-.257.281-.15c1.115-.594,2.155.268,2.764,1.143a10.493,10.493,0,0,1,1.2,2.415,7.34,7.34,0,0,1,.5,3.132l0,.041Z" fill="#cc6191" fill-rule="evenodd"/>
        <path id="Trazado_101322" data-name="Trazado 101322" d="M891.8,6186.189H880.82a17.988,17.988,0,0,1,3.763,7.373c.51,1.909,12.592,2.03,10.982,0A12.009,12.009,0,0,1,891.8,6186.189Z" fill="#feceb4" fill-rule="evenodd"/>
        <g id="Grupo_53832" data-name="Grupo 53832">
          <path id="Trazado_101323" data-name="Trazado 101323" d="M899.175,6193.414c-8.189,0-14.186-1.877-15.448-1.877a4.226,4.226,0,0,0-4.327,4.118,4.06,4.06,0,0,0,1.87,3.389h22.644a3.451,3.451,0,0,0,.342-1.494C904.256,6195.266,901.981,6193.414,899.175,6193.414Z" fill="#6cdcd9" fill-rule="evenodd"/>
          <path id="Trazado_101324" data-name="Trazado 101324" d="M899.175,6193.414c-8.189,0-14.186-1.877-15.448-1.877a4.509,4.509,0,0,0-1.825.383c4.205,4.454,13.863,6.15,22.262,6.417a3.43,3.43,0,0,0,.092-.787C904.256,6195.266,901.981,6193.414,899.175,6193.414Z" fill="#08938f" fill-rule="evenodd"/>
          <path id="Trazado_101325" data-name="Trazado 101325" d="M903.122,6200.269h-21.33a.786.786,0,0,1-.784-.784v-.441h22.9v.441A.786.786,0,0,1,903.122,6200.269Z" fill="#056260" fill-rule="evenodd"/>
        </g>
        <path id="Trazado_101326" data-name="Trazado 101326" d="M838.588,6194.482h10.255a12.825,12.825,0,0,1,.052-7.373H838.64A8.68,8.68,0,0,1,838.588,6194.482Z" fill="#feceb4" fill-rule="evenodd"/>
        <g id="Grupo_53833" data-name="Grupo 53833">
          <path id="Trazado_101327" data-name="Trazado 101327" d="M838.292,6193.414c1.835,0,3.661.2,5.311.26,1.656-.062,3.5-.26,5.336-.26,2.592,0,4.6,1.852,4.494,4.136a3.808,3.808,0,0,1-.387,1.494h-19.4a3.6,3.6,0,0,1-.244-1.494A4.708,4.708,0,0,1,838.292,6193.414Z" fill="#6cdcd9" fill-rule="evenodd"/>
          <path id="Trazado_101328" data-name="Trazado 101328" d="M834.211,6200.269h18.151a.834.834,0,0,0,.822-.784l.021-.441h-19.72l-.021.441A.742.742,0,0,0,834.211,6200.269Z" fill="#056260" fill-rule="evenodd"/>
          <path id="Trazado_101329" data-name="Trazado 101329" d="M844.724,6198.848c2.166,0,4.243.072,6.22.2h2.1a3.808,3.808,0,0,0,.387-1.494c.11-2.284-1.9-4.136-4.494-4.136-1.834,0-3.68.2-5.336.26-1.65-.062-3.476-.26-5.311-.26a5.373,5.373,0,0,0-2.034.4C837.373,6196.745,840.7,6198.848,844.724,6198.848Z" fill="#08938f" fill-rule="evenodd"/>
        </g>
        <path id="Trazado_101330" data-name="Trazado 101330" d="M894.027,6187.069c-1.031,1.833-12.065,2.015-13.79.924-14.871-21.213-22.553-45.688-25.591-67.647-8.728-63.075,27.082-68.146,24.821-38.417-1.259,16.553,3.3,36.389,5.989,54.748C888.184,6155.27,889.09,6172.377,894.027,6187.069Z" fill="#339ce9" fill-rule="evenodd"/>
        <path id="Trazado_101331" data-name="Trazado 101331" d="M860.169,6145.846a171.235,171.235,0,0,1-5.523-25.5c-3.688-26.651.576-42.945,6.56-50.636,3.487,3.575,5.7,10.4,5.049,20.832A436.405,436.405,0,0,1,860.169,6145.846Z" fill="#5cb0ed" fill-rule="evenodd"/>
        <path id="Trazado_101332" data-name="Trazado 101332" d="M886.163,6173.515c-.9-4.132-1.57-8.32-2.154-12.484-1.144-8.146-1.98-16.331-3.174-24.473-3.134-21.359-7.7-21.139-10.028-19.7-2.025,1.258-4.606,10.2-5.475,17.062-2.195,17.335,1.7,27.9,10.227,41.165C880.7,6183.1,889.223,6187.614,886.163,6173.515Z" fill="#85c4f2" fill-rule="evenodd"/>
        <path id="Trazado_101333" data-name="Trazado 101333" d="M850.377,6187.984c-1.026,1.381-12.02,1.114-13.257-.108-6.085-29.349-8.326-69.177-4.212-99.284,3.83-28.035,30.233-30.981,29.467,1.95C862.4,6120.49,857.9,6160.163,850.377,6187.984Z" fill="#85c4f2" fill-rule="evenodd"/>
        <path id="Trazado_101334" data-name="Trazado 101334" d="M850.377,6187.983a2.3,2.3,0,0,1-1.26.558c.882-3.32,2.058-7.943,2.489-10.626.112-.706.311-1.457.728-1.309s.379.875.247,1.529c-.175.858-1.13,4.336-2.125,7.653-.224.744-.169.922.139.086.382-1.036.771-2.116,1.143-3.188q-.663,2.712-1.361,5.3Zm-3.216.829c.8-3.616,2.039-8.207,2.634-10.393.291-1.073-.514-1.134-1.381-1.05-2.332.226-6.455.992-8.091,1.148-.856.081-1.735.269-1.615.722s1.132.4,2.035.28c1.214-.157,2.337-.337,3.353-.525-2.349.6-4.728,1.214-5.54,1.414s-1.632.513-1.445.957,1.154.246,2.006,0c.815-.233,2.139-.625,3.634-1.081.349-.106.694-.213,1.032-.319-3.071,1.205-6.365,2.58-7.4,2.977l-.216.086.2,1.085c.225-.075.458-.167.682-.263,1.642-.7,3.556-1.555,5.4-2.39-2.334,1.285-4.639,2.612-5.934,3.394q.121.627.245,1.247c2.25-1.6,5.3-3.5,7.879-5.068-2.763,1.965-5.924,4.339-7.739,5.766q.109.541.22,1.074a.9.9,0,0,0,.176.131c2.4-2.208,5.855-4.986,8.558-7.1.525-.412.7-.477.073.077-2.48,2.189-5.611,5.123-7.874,7.318a10.984,10.984,0,0,0,1.215.255c2.348-2.534,5.174-5.342,7.324-7.436-1.9,2.149-4.332,5.065-6.354,7.567.371.043.761.079,1.164.109,1.518-2.072,3.16-4.2,4.583-6.019-1.252,1.853-2.674,4.047-3.947,6.062.337.02.68.036,1.025.047,1.234-2.165,2.547-4.355,3.652-6.167-1.046,1.927-2.207,4.167-3.221,6.18.323.007.647.011.968.011.776-1.735,1.608-3.508,2.377-5.111-.73,1.745-1.46,3.557-2.066,5.11.347,0,.69-.009,1.025-.021.55-1.678,1.183-3.46,1.8-5.127.308-.835.362-.658.139.086-.53,1.768-1.049,3.582-1.445,5.02q.449-.023.87-.056Zm-12.1-12.14q-.177-1.092-.346-2.195c1.27-2.217,4.514-7.392,7.059-11.156-2.335,2.977-5.258,6.809-7.26,9.828-.085-.568-.168-1.137-.25-1.71,2.2-2.793,5.613-6.949,8.117-9.776-2.457,2.394-5.8,5.719-8.3,8.5l-.188-1.373c2.258-2.189,5.36-5.094,7.82-7.267.626-.553.452-.487-.074-.077-2.451,1.918-5.524,4.381-7.862,6.47l-.168-1.293c1.852-1.427,4.477-3.383,6.816-5.047-2.226,1.35-4.793,2.95-6.9,4.387l-.148-1.2c1.311-.77,3.076-1.774,4.858-2.754-1.668.756-3.4,1.527-4.928,2.189l-.131-1.109c1.491-.6,4.008-1.641,6.391-2.576-.338.106-.683.212-1.032.319-1.494.456-2.817.849-3.633,1.081a3.179,3.179,0,0,1-1.841.172l-.064-.565a3.216,3.216,0,0,1,1.344-.566c.812-.2,3.191-.815,5.54-1.416-1.016.189-2.14.37-3.353.526-.9.117-1.918.166-2.036-.28s.76-.642,1.616-.722c1.636-.156,5.759-.923,8.09-1.148.868-.084,1.673-.023,1.381,1.05-.773,2.844-2.64,9.762-3.207,13.3-.113.705-.312,1.456-.729,1.309s-.379-.876-.247-1.53c.175-.857,1.13-4.336,2.125-7.653.223-.744.169-.921-.14-.086a94.671,94.671,0,0,0-3.031,9.347c-.2.853-.517,1.756-1.029,1.55s-.4-1.093-.176-1.882c.3-1.068,1.892-5.183,3.481-8.977a118.232,118.232,0,0,0-4.755,10.952c-.3.881-.72,1.809-1.219,1.566s-.287-1.164.027-1.978c.517-1.337,3.463-7.272,5.822-11.621a138.821,138.821,0,0,0-6.995,12.536,7.809,7.809,0,0,1-.448.874Zm-2.77-22.116q-.081-.893-.159-1.788c.067-.112.137-.223.208-.333.961-1.46,6.522-8.377,10.163-12.486a143.436,143.436,0,0,0-10.226,10.763c-.094.117-.19.234-.288.347q-.075-.912-.145-1.828c1.909-1.959,6.572-6.4,9.994-9.419.626-.553.451-.488-.074-.077-2.968,2.322-6.85,5.446-9.233,7.735a7.472,7.472,0,0,1-.77.659q-.057-.779-.111-1.559c1.2-1.022,5.372-4.2,8.9-6.706-2.644,1.6-5.769,3.561-8.032,5.177a7.094,7.094,0,0,1-.932.579c-.03-.451-.058-.9-.086-1.352l.132-.089c.878-.576,3.781-2.265,6.727-3.887-1.839.834-3.753,1.687-5.394,2.39a4.219,4.219,0,0,1-1.536.427l-.052-.89a4.958,4.958,0,0,1,.918-.445c1.032-.4,4.326-1.773,7.4-2.978-.338.107-.683.213-1.031.319-1.5.456-2.819.85-3.634,1.081-.852.243-1.824.433-2.007,0s.632-.755,1.446-.956,3.191-.814,5.539-1.415c-1.016.188-2.139.37-3.353.526-.9.116-1.917.166-2.035-.28s.76-.641,1.615-.723c1.636-.155,5.759-.922,8.091-1.148.868-.084,1.673-.022,1.381,1.051-.774,2.844-2.64,9.762-3.207,13.3-.113.705-.312,1.456-.729,1.308s-.379-.875-.247-1.529c.174-.858,1.13-4.336,2.125-7.653.223-.745.168-.922-.139-.086a93.733,93.733,0,0,0-3.032,9.346c-.2.854-.518,1.757-1.029,1.551s-.4-1.093-.177-1.882c.3-1.069,1.893-5.183,3.481-8.977A118.188,118.188,0,0,0,838,6153.581c-.3.881-.721,1.809-1.219,1.565s-.287-1.164.027-1.977c.516-1.337,3.463-7.272,5.822-11.622a138.329,138.329,0,0,0-6.994,12.536c-.4.89-.931,1.819-1.438,1.527s-.2-1.23.206-2.048c.689-1.384,4.558-7.611,7.5-11.955a137.38,137.38,0,0,0-8.312,11.482c-.393.655-.867,1.325-1.293,1.467Zm-1.237-19.19q-.049-1.321-.089-2.639c1.442-2.447,4.378-7.111,6.723-10.577-2.149,2.739-4.8,6.2-6.764,9.09q-.024-.93-.043-1.86c2.178-2.734,5.163-6.347,7.413-8.887-2.185,2.127-5.068,4.992-7.437,7.558l-.02-1.42c2.114-2.024,4.688-4.418,6.792-6.276.627-.553.452-.488-.074-.077-2.071,1.621-4.587,3.63-6.728,5.475l-.009-1.285c1.676-1.269,3.688-2.755,5.524-4.061-1.761,1.069-3.736,2.293-5.528,3.47v-1.168c1.025-.586,2.178-1.235,3.339-1.874-1.112.5-2.25,1.015-3.34,1.5l0-1.116c1.377-.561,3.053-1.241,4.668-1.875l-1.031.32c-1.5.455-2.819.848-3.634,1.08h0l.009-1.1c1.084-.275,3.037-.777,4.97-1.271-1.016.188-2.139.368-3.353.525a5.267,5.267,0,0,1-1.61.028l.012-.807a5.061,5.061,0,0,1,1.179-.224c1.635-.155,5.758-.921,8.09-1.148.867-.084,1.673-.023,1.38,1.05-.773,2.845-2.639,9.763-3.207,13.3-.113.706-.311,1.457-.728,1.309s-.379-.876-.247-1.529c.174-.858,1.13-4.336,2.124-7.653.224-.745.169-.922-.139-.087a94.3,94.3,0,0,0-3.032,9.347c-.2.854-.517,1.757-1.028,1.55s-.4-1.092-.177-1.882c.3-1.067,1.892-5.182,3.481-8.976a117.9,117.9,0,0,0-4.754,10.951c-.3.882-.721,1.81-1.219,1.566s-.287-1.164.027-1.977c.516-1.337,3.463-7.273,5.822-11.622a138.335,138.335,0,0,0-6.995,12.536c-.114.253-.238.509-.369.74Zm-.049-23.653q.047-1.293.1-2.577c1.562-2.547,3.771-6.013,5.615-8.738-1.731,2.207-3.786,4.884-5.549,7.351q.047-.906.1-1.806c1.96-2.417,4.247-5.157,6.059-7.2-1.756,1.709-3.962,3.894-5.989,6.017.027-.453.057-.9.087-1.355,1.742-1.643,3.626-3.378,5.236-4.8.627-.554.452-.489-.073-.077-1.567,1.226-3.389,2.675-5.11,4.107.028-.4.056-.8.087-1.2,1.244-.925,2.566-1.89,3.809-2.774-1.2.729-2.5,1.531-3.776,2.34l.085-1.079c.492-.275,1-.555,1.5-.833l-1.488.671.09-1.079c.886-.357,1.818-.731,2.731-1.088q-.51.159-1.033.319c-.592.181-1.157.352-1.674.506l.093-1.049,2.926-.75c-.888.165-1.858.323-2.9.466l.1-1.062c1.953-.271,5.162-.84,7.115-1.029.867-.084,1.673-.022,1.381,1.05-.774,2.844-2.64,9.763-3.208,13.3-.113.706-.311,1.456-.728,1.309s-.38-.876-.247-1.53c.174-.858,1.13-4.335,2.124-7.652.223-.744.169-.922-.139-.087a94.529,94.529,0,0,0-3.032,9.347c-.2.853-.517,1.757-1.028,1.55s-.4-1.093-.177-1.882c.3-1.068,1.893-5.183,3.481-8.976a118.177,118.177,0,0,0-4.754,10.951c-.3.882-.721,1.81-1.219,1.566s-.287-1.164.027-1.977c.516-1.338,3.463-7.273,5.822-11.621-2.043,3.347-4.79,7.983-6.448,11.374Zm1.562-20.513q.162-1.315.337-2.608a37.547,37.547,0,0,1,3.155-11.04c-.871,3.226-2.433,9.146-2.944,12.332-.1.6-.251,1.223-.548,1.316Zm26.082-18.763c.19.31.374.636.552.972-.736.061-1.421.025-1.517-.337-.088-.335.372-.525.965-.635Zm.742,1.334q.227.447.439.922c-.694.207-1.291.381-1.736.508-.852.242-1.824.433-2.007,0s.632-.756,1.445-.956c.359-.088,1.025-.258,1.859-.471Zm.543,1.157c-2.058.831-3.857,1.575-4.571,1.85-.766.3-1.522.7-1.284,1.131s1.154.12,1.953-.222c1.306-.56,2.784-1.214,4.261-1.878q-.174-.453-.359-.881Zm.394.978c.1.265.2.533.292.81-1.8,1.129-3.591,2.3-5.035,3.33-.741.529-1.615,1.038-1.948.624s.346-1.015,1.063-1.487c.767-.5,3.086-1.86,5.628-3.277Zm.376,1.074c.09.276.178.555.262.842-1.981,1.616-3.943,3.283-5.368,4.652-.668.642-1.472,1.28-1.862.888s.206-1.1.858-1.681c.742-.657,3.33-2.652,6.11-4.7Zm.388,1.3q.12.438.23.894c-2.265,2.305-4.529,4.717-5.978,6.541-.605.76-1.349,1.531-1.8,1.156s.07-1.2.667-1.89c.736-.852,3.763-3.8,6.88-6.7Zm.371,1.493c-2.773,3.348-5.42,6.7-6.055,7.666-.523.795-.961,1.716-.448,2.07s1.169-.547,1.691-1.416c1.2-2,3.1-4.645,5.034-7.222-.068-.375-.143-.741-.222-1.1Zm.324,1.685c-2.037,3.188-3.867,6.2-4.321,7.106-.407.819-.722,1.752-.2,2.048s1.037-.637,1.437-1.527c.783-1.744,1.992-3.993,3.291-6.276q-.091-.69-.2-1.351Zm.294,2.053c-1.091,2.185-1.953,3.994-2.21,4.66-.314.814-.532,1.731-.026,1.978s.917-.685,1.218-1.566c.312-.915.724-1.974,1.2-3.106-.048-.673-.105-1.331-.177-1.966Zm.245,3.133c.027.575.043,1.165.052,1.765-.354-.3-.247-1.063-.052-1.765Zm.043,5.371-.005.831c-.251-.05-.426-.148-.472-.318-.061-.235.144-.4.477-.513Zm-.011,1.527-.011,1.1-.045.013c-.852.243-1.823.433-2.007,0s.633-.755,1.446-.956l.617-.155Zm-.018,1.572-.017,1.121c-.723.319-1.425.625-2.083.907-.8.342-1.719.644-1.953.223s.519-.837,1.284-1.132c.494-.191,1.509-.606,2.769-1.119Zm-.024,1.5c-1.589.909-2.874,1.672-3.408,2.024-.718.471-1.4,1.065-1.062,1.486s1.206-.095,1.947-.623,1.6-1.115,2.5-1.7l.023-1.183Zm-.038,1.787-.033,1.326c-.9.779-1.736,1.526-2.439,2.2-.668.641-1.473,1.279-1.862.887s.206-1.1.859-1.681c.5-.44,1.82-1.48,3.475-2.734Zm-.059,2.244c-1.84,1.764-3.315,3.231-3.8,3.792-.6.691-1.125,1.508-.667,1.889s1.2-.4,1.8-1.156c.71-.892,1.615-1.926,2.619-3.019q.026-.756.048-1.506Zm-.1,2.96q-.039,1.047-.085,2.1c-.437.655-.834,1.273-1.174,1.839-.523.87-1.188,1.766-1.693,1.417s-.074-1.276.449-2.071c.344-.523,1.279-1.746,2.5-3.289Zm-.167,3.9c-.118.212-.212.387-.277.518-.408.818-.723,1.75-.206,2.047a.384.384,0,0,0,.353.023q.069-1.3.13-2.588Zm-.483,8.421-.045.654a.352.352,0,0,1-.164-.174c-.076-.182.017-.341.209-.48Zm-.121,1.737-.088,1.208-.056.024c-.8.342-1.718.644-1.952.223s.518-.837,1.283-1.131c.2-.076.472-.186.813-.324Zm-.141,1.911-.111,1.441-.338.239c-.741.529-1.615,1.039-1.947.624s.344-1.015,1.062-1.486c.27-.178.735-.463,1.334-.818Zm-.179,2.287c-.579.455-1.018.814-1.26,1.028-.654.579-1.255,1.281-.859,1.681s1.194-.246,1.863-.887l.115-.111.141-1.711Zm-.241,2.874q-.09,1.04-.185,2.084l-.085.106c-.6.76-1.349,1.531-1.8,1.156s.071-1.2.667-1.89c.243-.282.737-.793,1.4-1.456Zm-.383,4.194c-.059.613-.119,1.225-.18,1.839a.493.493,0,0,1-.092-.049c-.453-.313-.163-1.069.272-1.79Zm-.7,6.794a.458.458,0,0,0-.167-.3c-.45-.376-1.2.4-1.8,1.156a143.95,143.95,0,0,1-10.226,10.762c3.64-4.109,9.2-11.026,10.162-12.486.523-.795.961-1.717.448-2.071s-1.169.548-1.691,1.417a137.648,137.648,0,0,1-8.313,11.483c2.939-4.344,6.808-10.571,7.5-11.955.408-.818.723-1.751.206-2.048s-1.038.637-1.438,1.527a138.309,138.309,0,0,1-6.995,12.535c2.36-4.349,5.306-10.284,5.823-11.621.314-.813.532-1.73.026-1.978s-.918.684-1.218,1.566a118.232,118.232,0,0,1-4.755,10.952c1.589-3.794,3.179-7.909,3.481-8.977.224-.789.343-1.672-.177-1.882s-.825.7-1.028,1.55a94.432,94.432,0,0,1-3.032,9.347c-.308.835-.362.658-.139-.087.994-3.316,1.95-6.794,2.124-7.652.132-.654.177-1.38-.247-1.53s-.615.6-.728,1.309c-.568,3.54-2.434,10.459-3.208,13.3-.292,1.073.513,1.134,1.381,1.05,2.331-.226,6.455-.992,8.09-1.147.857-.082,1.735-.27,1.616-.724s-1.132-.4-2.035-.279c-1.214.156-2.337.337-3.353.525,2.348-.6,4.728-1.214,5.54-1.415s1.632-.512,1.445-.955-1.155-.247-2.007,0c-.815.232-2.138.625-3.634,1.081-.348.106-.693.213-1.031.319,3.071-1.205,6.365-2.579,7.4-2.977a5.307,5.307,0,0,0,.847-.4l.12-.927a3.705,3.705,0,0,0-1.636.418c-1.642.7-3.556,1.556-5.4,2.39,2.947-1.621,5.85-3.31,6.727-3.887.169-.111.335-.228.488-.348l.16-1.287a3.875,3.875,0,0,0-1.534.773c-2.263,1.617-5.388,3.573-8.031,5.177,3.661-2.6,8.021-5.925,9.022-6.812a4.989,4.989,0,0,0,.744-.789l.106-.9c-.393-.375-1.19.257-1.854.9-2.383,2.289-6.265,5.412-9.232,7.734-.526.411-.7.477-.074-.076,3.983-3.517,9.648-8.956,10.693-10.167a3.978,3.978,0,0,0,.794-1.234l.04-.357Zm-2.51,19a5.991,5.991,0,0,0-.886,1.2A136.9,136.9,0,0,1,848,6167.4c2.938-4.344,6.806-10.571,7.5-11.955.407-.818.723-1.751.207-2.047s-1.039.636-1.439,1.526a138.491,138.491,0,0,1-6.994,12.535c2.359-4.349,5.3-10.283,5.822-11.621.314-.813.533-1.73.026-1.978s-.917.685-1.218,1.567a118.051,118.051,0,0,1-4.755,10.951c1.589-3.793,3.179-7.909,3.481-8.977.224-.789.343-1.671-.177-1.881s-.824.7-1.027,1.55a94.206,94.206,0,0,1-3.033,9.346c-.308.835-.362.658-.139-.087.995-3.316,1.95-6.794,2.124-7.652.133-.654.177-1.379-.247-1.529s-.615.6-.728,1.308c-.567,3.541-2.433,10.459-3.207,13.3-.292,1.073.513,1.134,1.381,1.05,2.331-.226,6.454-.992,8.09-1.147.184-.017.368-.04.543-.069l.2-1.013a7.781,7.781,0,0,0-1.166.079c-1.213.156-2.337.337-3.353.526,1.747-.447,3.511-.9,4.635-1.187l.225-1.154c-.822.236-2.09.613-3.515,1.047-.348.106-.693.213-1.032.32,1.605-.63,3.272-1.306,4.643-1.865l.231-1.215c-1.15.505-2.36,1.048-3.54,1.584,1.269-.7,2.531-1.41,3.626-2.039l.251-1.361c-1.928,1.283-4.128,2.65-6.068,3.827,2.092-1.487,4.413-3.209,6.2-4.578.1-.539.194-1.082.29-1.625-2.318,2.059-5.311,4.458-7.708,6.332-.526.412-.7.478-.073-.076,2.52-2.226,5.715-5.222,7.986-7.428q.171-.995.339-2c-2.545,2.922-6.3,6.664-8.991,9.287,3.034-3.426,7.4-8.8,9.33-11.342q.242-1.49.474-2.995Zm-3.28-41.392c-.505-.348-1.17.548-1.692,1.417a137.424,137.424,0,0,1-8.311,11.483c2.937-4.344,6.806-10.572,7.5-11.956.407-.818.722-1.75.206-2.047s-1.039.637-1.438,1.527a138.71,138.71,0,0,1-6.995,12.535c2.359-4.349,5.306-10.284,5.822-11.621.315-.813.533-1.73.027-1.978s-.918.685-1.219,1.566a117.867,117.867,0,0,1-4.754,10.952c1.589-3.794,3.179-7.909,3.481-8.977.223-.789.342-1.672-.177-1.882s-.825.7-1.028,1.551a94.518,94.518,0,0,1-3.032,9.346c-.308.835-.363.658-.139-.086.994-3.317,1.95-6.795,2.124-7.653.132-.654.177-1.38-.247-1.53s-.615.6-.728,1.309c-.568,3.54-2.435,10.459-3.208,13.3-.292,1.072.513,1.134,1.381,1.051,2.332-.227,6.454-.994,8.09-1.149.856-.081,1.735-.269,1.616-.723s-1.133-.4-2.036-.279c-1.213.156-2.336.337-3.352.526,2.348-.6,4.727-1.216,5.54-1.416s1.632-.512,1.445-.956-1.155-.245-2.007,0c-.815.232-2.138.625-3.634,1.081-.347.106-.693.213-1.031.319,3.071-1.205,6.365-2.579,7.4-2.977.765-.295,1.521-.7,1.284-1.131s-1.155-.119-1.953.222c-1.643.7-3.556,1.556-5.4,2.39,2.947-1.622,5.849-3.31,6.727-3.886.717-.472,1.4-1.065,1.062-1.487s-1.207.1-1.948.624c-2.263,1.617-5.388,3.573-8.032,5.177,3.662-2.6,8.022-5.925,9.023-6.813.652-.578,1.254-1.28.858-1.679s-1.194.245-1.862.887c-2.383,2.288-6.264,5.412-9.233,7.734-.525.411-.7.477-.073-.077,3.983-3.516,9.648-8.955,10.692-10.166.6-.691,1.125-1.508.668-1.89s-1.2.4-1.8,1.156a143.171,143.171,0,0,1-10.226,10.763c3.641-4.109,9.2-11.026,10.162-12.486.523-.795.961-1.717.449-2.071Zm-.965-21.752c-.505-.348-1.17.547-1.692,1.417a137.386,137.386,0,0,1-8.312,11.483c2.938-4.345,6.807-10.572,7.5-11.955.407-.819.722-1.752.206-2.048s-1.039.637-1.438,1.526a138.573,138.573,0,0,1-6.995,12.536c2.36-4.349,5.306-10.284,5.822-11.621.315-.814.533-1.731.027-1.978s-.918.684-1.218,1.566a118.356,118.356,0,0,1-4.755,10.951c1.589-3.793,3.179-7.908,3.481-8.976.223-.79.342-1.672-.177-1.882s-.825.7-1.028,1.55a94.217,94.217,0,0,1-3.033,9.347c-.307.835-.362.658-.138-.086.994-3.318,1.95-6.8,2.124-7.654.132-.653.177-1.379-.247-1.529s-.615.6-.729,1.309c-.567,3.54-2.433,10.458-3.207,13.3-.292,1.073.513,1.134,1.381,1.05,2.331-.226,6.454-.992,8.09-1.148.856-.081,1.735-.269,1.616-.723s-1.132-.4-2.035-.279c-1.214.156-2.337.337-3.353.525,2.348-.6,4.728-1.215,5.54-1.415s1.631-.513,1.445-.956-1.154-.245-2.007,0c-.815.232-2.138.625-3.633,1.081q-.523.159-1.032.319c3.071-1.205,6.365-2.58,7.4-2.977.765-.295,1.521-.7,1.284-1.131s-1.154-.119-1.953.222c-1.642.7-3.556,1.556-5.4,2.39,2.946-1.621,5.85-3.31,6.727-3.886.716-.472,1.4-1.065,1.062-1.486s-1.207.094-1.948.623c-2.263,1.617-5.388,3.573-8.032,5.177,3.662-2.6,8.023-5.925,9.023-6.812.653-.579,1.254-1.281.859-1.68s-1.2.245-1.863.887c-2.382,2.288-6.264,5.412-9.232,7.734-.527.411-.7.477-.075-.077,3.984-3.517,9.649-8.955,10.694-10.166.6-.691,1.124-1.508.666-1.89s-1.194.4-1.8,1.157a143.473,143.473,0,0,1-10.227,10.762c3.641-4.109,9.2-11.026,10.162-12.486.524-.8.962-1.717.449-2.071Zm-4.208-19.457c-.505-.348-1.17.547-1.692,1.417a137.219,137.219,0,0,1-8.312,11.482c2.938-4.343,6.807-10.571,7.5-11.955.407-.818.722-1.751.206-2.047s-1.038.636-1.438,1.526a138.117,138.117,0,0,1-7,12.536c2.36-4.349,5.307-10.284,5.823-11.622.314-.813.533-1.73.027-1.977s-.918.685-1.219,1.566A118.179,118.179,0,0,1,837.884,6084c1.589-3.793,3.179-7.908,3.481-8.976.223-.79.342-1.672-.177-1.882s-.826.7-1.028,1.55a94.541,94.541,0,0,1-3.033,9.347c-.307.835-.362.658-.138-.087.994-3.317,1.949-6.8,2.124-7.653.132-.653.177-1.379-.247-1.529s-.615.6-.728,1.309c-.568,3.54-2.434,10.458-3.208,13.3-.292,1.073.513,1.134,1.381,1.05,2.332-.226,6.454-.992,8.09-1.148.856-.081,1.735-.27,1.616-.723s-1.133-.4-2.035-.28c-1.214.157-2.337.337-3.354.526,2.349-.6,4.729-1.214,5.541-1.415s1.631-.513,1.445-.956-1.155-.246-2.007,0c-.815.232-2.138.625-3.634,1.081-.348.106-.693.213-1.032.319,3.072-1.205,6.366-2.579,7.4-2.977.765-.295,1.522-.7,1.284-1.132s-1.155-.118-1.953.223c-1.642.7-3.556,1.556-5.4,2.39,2.947-1.621,5.851-3.31,6.727-3.887.718-.471,1.4-1.064,1.063-1.486s-1.207.1-1.948.624c-2.263,1.617-5.388,3.573-8.032,5.177,3.662-2.6,8.022-5.925,9.023-6.812.652-.579,1.254-1.282.858-1.68s-1.194.245-1.862.887c-2.383,2.288-6.264,5.412-9.232,7.734-.527.411-.7.477-.075-.077,3.984-3.517,9.649-8.955,10.693-10.166.6-.691,1.125-1.508.668-1.89s-1.2.4-1.8,1.156a143.544,143.544,0,0,1-10.226,10.763c3.64-4.109,9.2-11.026,10.162-12.486C848.816,6073.4,849.254,6072.475,848.742,6072.121Z" fill="#5cb0ed" fill-rule="evenodd"/>
        <path id="Trazado_101335" data-name="Trazado 101335" d="M879.2,6186.482q-.354-.519-.7-1.04c.409-1.529,1.042-3.76,1.69-5.922.223-.745.168-.922-.14-.087-.656,1.781-1.334,3.692-1.909,5.469q-.327-.5-.65-.995c.549-1.391,1.177-2.938,1.8-4.435-.633,1.318-1.309,2.753-1.961,4.188q-.258-.4-.513-.8c.777-1.516,1.594-3.073,2.35-4.467-.77,1.263-1.641,2.709-2.516,4.2l-.463-.738c.765-1.182,1.535-2.35,2.249-3.4-.761.97-1.586,2.032-2.42,3.127-.149-.242-.3-.484-.446-.726,1.212-1.455,2.423-2.874,3.473-4.059-1.109,1.08-2.4,2.349-3.706,3.673-.137-.227-.275-.454-.41-.681,1.19-1.1,2.381-2.185,3.45-3.13.627-.553.453-.488-.073-.076-1.11.867-2.347,1.848-3.586,2.854-.139-.235-.279-.47-.416-.706.931-.685,1.88-1.375,2.788-2.019-.932.565-1.924,1.174-2.917,1.8-.142-.243-.284-.487-.423-.731.379-.212.764-.425,1.149-.637l-1.2.543-.476-.836c.969-.392,2-.808,3.012-1.2-.338.106-.683.213-1.031.319-.766.234-1.488.451-2.118.638q-.255-.456-.508-.914l3.971-1.017c-1.017.188-2.14.369-3.354.525-.281.036-.572.066-.844.076q-.254-.465-.505-.931a6.413,6.413,0,0,1,.93-.148c1.636-.155,5.759-.921,8.09-1.147.868-.084,1.673-.023,1.381,1.05-.712,2.617-2.348,8.681-3.047,12.392Zm-8.966-15.243q-.378-.746-.746-1.5c.978-2.15,3.442-7.067,5.473-10.81-1.8,2.949-4.145,6.9-5.812,10.114q-.3-.612-.587-1.226c1.564-2.555,3.8-6.071,5.669-8.829-1.894,2.415-4.175,5.393-6.038,8.043q-.263-.562-.518-1.126c2.152-2.692,5-6.13,7.163-8.574-2.224,2.164-5.17,5.093-7.562,7.693q-.228-.51-.452-1.019c2.206-2.125,5.055-4.787,7.348-6.812.627-.553.452-.487-.073-.076-2.35,1.837-5.273,4.178-7.57,6.209q-.227-.522-.447-1.043c1.851-1.427,4.469-3.378,6.8-5.037-2.275,1.38-4.906,3.021-7.037,4.481q-.22-.525-.437-1.05c1.34-.792,3.3-1.913,5.283-3-1.839.834-3.753,1.687-5.394,2.389l-.119.05q-.206-.508-.407-1.014c1.168-.458,4.312-1.768,7.253-2.921q-.508.159-1.032.319c-1.5.456-2.818.849-3.633,1.081-.852.242-1.824.433-2.007,0s.632-.756,1.445-.956,3.192-.815,5.54-1.415c-1.016.188-2.139.369-3.353.525-.9.117-1.918.166-2.035-.28s.76-.641,1.615-.723c1.636-.155,5.759-.921,8.09-1.148.869-.084,1.674-.022,1.382,1.051-.774,2.844-2.64,9.763-3.208,13.3-.112.705-.311,1.456-.728,1.309s-.379-.876-.247-1.529c.175-.859,1.13-4.337,2.125-7.654.223-.744.168-.922-.14-.086a94.513,94.513,0,0,0-3.032,9.346c-.2.854-.517,1.757-1.028,1.551s-.4-1.093-.177-1.882c.3-1.068,1.893-5.183,3.481-8.976a117.843,117.843,0,0,0-4.754,10.95c-.031.092-.064.184-.1.274Zm-11.03-28.766-.2-.733.032-.261a.448.448,0,0,1,.414.15c.2.242.05.543-.245.844Zm.138-3.544.009.008c.223.226.128.548-.115.891l.106-.9Zm.367-3.205a.829.829,0,0,1-.04.357l.04-.357Zm1.391-57.442c1.31-1.217,2.635-2.425,3.813-3.465.626-.554.452-.488-.074-.077-1.193.933-2.534,2-3.865,3.082-.084-.287-.172-.566-.262-.842.97-.715,1.965-1.437,2.913-2.111-.958.58-1.978,1.207-3,1.847-.094-.277-.192-.545-.292-.81.363-.2.73-.407,1.1-.609l-1.134.512q-.174-.453-.359-.881c.915-.37,1.881-.756,2.826-1.127-.339.106-.684.213-1.032.319-.679.207-1.322.4-1.9.573q-.211-.477-.439-.923l3.682-.943c-1.017.189-2.14.369-3.353.526-.171.021-.347.041-.519.056-.06-.114-.12-.23-.182-.341.137-.249.275-.494.416-.732,1.716-.182,5.685-.914,7.955-1.134.868-.085,1.673-.023,1.381,1.05-.774,2.845-2.64,9.762-3.208,13.3-.113.706-.311,1.456-.728,1.309s-.379-.876-.247-1.529c.175-.858,1.13-4.336,2.124-7.653.224-.745.169-.922-.138-.087a94.167,94.167,0,0,0-3.032,9.347c-.2.853-.518,1.757-1.029,1.55a.487.487,0,0,1-.135-.081c-.009-.6-.025-1.191-.052-1.765l.01-.036c.3-1.068,1.893-5.182,3.481-8.976-1.183,2.464-2.516,5.335-3.559,7.845-.048-.672-.1-1.332-.177-1.966,1.1-2.2,2.429-4.779,3.612-6.96-1.121,1.837-2.454,4.063-3.7,6.258q-.091-.69-.2-1.351c1.058-1.657,2.171-3.363,3.176-4.849-1.022,1.3-2.157,2.771-3.278,4.262-.069-.374-.142-.741-.222-1.1,1.421-1.715,2.874-3.429,4.107-4.821-1.261,1.228-2.755,2.7-4.248,4.222-.074-.3-.15-.6-.23-.894Zm14.846-11.109a3.24,3.24,0,0,0-.855,1.545,118.385,118.385,0,0,1-4.754,10.951c1.588-3.793,3.178-7.909,3.48-8.976.223-.789.343-1.672-.176-1.882s-.826.7-1.029,1.55a94.173,94.173,0,0,1-3.032,9.347c-.308.835-.362.658-.139-.087.994-3.316,1.95-6.795,2.124-7.653.132-.654.177-1.38-.247-1.529s-.615.6-.728,1.309c-.568,3.54-2.434,10.458-3.208,13.3-.292,1.073.514,1.134,1.382,1.05,2.331-.226,6.454-.992,8.09-1.148.856-.081,1.735-.27,1.615-.723s-1.132-.4-2.035-.28c-1.214.157-2.337.338-3.353.526,2.349-.6,4.728-1.215,5.54-1.415a6.3,6.3,0,0,0,.789-.243q.027-.447.061-.889l.005-.085a5.561,5.561,0,0,0-1.417.258c-.815.232-2.137.625-3.633,1.08q-.523.16-1.032.32c2.249-.882,4.616-1.855,6.129-2.47.018-.4.033-.79.04-1.175-1.509.652-3.2,1.408-4.836,2.149,1.776-.977,3.536-1.979,4.846-2.747,0-.438-.008-.868-.027-1.287-2.127,1.456-4.745,3.088-7.009,4.462,2.4-1.709,5.106-3.727,6.964-5.163-.032-.46-.072-.912-.124-1.35-2.36,2.125-5.536,4.672-8.054,6.642-.526.411-.7.477-.074-.077,2.528-2.232,5.733-5.238,8.005-7.446-.072-.458-.153-.9-.247-1.334-2.512,2.812-5.924,6.209-8.423,8.643,2.511-2.835,5.937-7.007,8.135-9.8-.137-.488-.293-.951-.462-1.4-1.993,2.971-4.8,6.655-7.066,9.537,2.317-3.426,5.213-8.023,6.671-10.492a13.62,13.62,0,0,0-.7-1.348c-1.62,3.423-4.551,8.375-6.7,11.9,2.36-4.349,5.307-10.283,5.822-11.621a4.882,4.882,0,0,0,.315-1.135c-.209-.29-.425-.566-.651-.821Zm3.31,21.126q.006,1.417.056,2.854c-1.2,2.479-3.055,6.126-4.643,9.054,1.421-2.329,3.184-5.282,4.683-8q.036.865.087,1.738c-1.3,2.055-2.757,4.311-4.04,6.208,1.271-1.62,2.716-3.494,4.092-5.352q.045.677.095,1.357c-1.63,1.983-3.361,4.036-4.794,5.653,1.433-1.4,3.166-3.107,4.857-4.844.029.358.059.718.091,1.078-1.459,1.363-2.963,2.739-4.283,3.9-.627.553-.452.487.074.076,1.312-1.026,2.8-2.208,4.261-3.4l.095,1c-1.043.77-2.12,1.553-3.142,2.28,1.012-.614,2.095-1.28,3.173-1.958l.1.932c-.357.2-.717.4-1.079.6l1.09-.493.107.981c-.826.333-1.686.677-2.53,1.008.338-.107.683-.213,1.032-.319.535-.164,1.048-.318,1.524-.461q.055.494.114.99l-2.983.764c.922-.171,1.931-.335,3.016-.481.041.343.083.687.126,1.031-1.9.246-5.387.874-7.46,1.075-.867.084-1.672.023-1.38-1.05.773-2.845,2.64-9.763,3.207-13.3.114-.705.311-1.455.728-1.308s.379.875.247,1.529c-.174.858-1.129,4.337-2.124,7.653-.223.745-.169.922.139.087a94.559,94.559,0,0,0,3.033-9.347c.2-.853.517-1.757,1.028-1.55s.4,1.092.177,1.881c-.3,1.069-1.893,5.184-3.481,8.977,1.693-3.527,3.693-7.885,4.711-10.827Zm1.71,20.209q.158,1.113.324,2.23c-.812,1.865-3.483,7.216-5.656,11.222,1.8-2.954,4.152-6.91,5.82-10.129.088.582.176,1.164.268,1.747-1.541,2.5-3.613,5.743-5.358,8.323,1.721-2.194,3.761-4.853,5.517-7.308L882.1,6116c-2.02,2.5-4.446,5.414-6.348,7.561,1.906-1.858,4.344-4.275,6.509-6.565l.187,1.151c-1.949,1.852-4.173,3.91-6.031,5.55-.627.554-.452.488.074.077,1.863-1.458,4.087-3.232,6.074-4.917l.181,1.092c-1.571,1.183-3.378,2.514-5.041,3.7,1.629-.988,3.442-2.111,5.122-3.205l.173,1.037c-.966.551-2.032,1.15-3.1,1.74,1.051-.476,2.125-.959,3.159-1.415l.174,1.037c-1.377.561-3.052,1.241-4.666,1.874.338-.106.683-.213,1.032-.319,1.5-.456,2.819-.849,3.633-1.081l.076-.022.177,1.059c-1.007.253-3.131.8-5.231,1.337,1.016-.188,2.14-.369,3.353-.525.9-.117,1.918-.166,2.036.28s-.76.641-1.616.722c-1.636.156-5.759.922-8.091,1.148-.867.084-1.672.023-1.381-1.05.774-2.844,2.64-9.762,3.208-13.3.113-.706.311-1.456.729-1.309s.379.876.246,1.529c-.173.858-1.13,4.336-2.124,7.654-.223.744-.169.922.14.086a94.76,94.76,0,0,0,3.031-9.347c.2-.854.518-1.757,1.029-1.55s.4,1.093.177,1.882c-.3,1.068-1.893,5.182-3.481,8.977a118.132,118.132,0,0,0,4.754-10.952,4.276,4.276,0,0,1,.7-1.419Zm3.4,21.173q.179,1.1.353,2.19c-1.182,2.468-3.183,6.417-4.881,9.546,1.532-2.509,3.458-5.742,5.026-8.631l.243,1.569c-1.409,2.253-3.087,4.857-4.538,7,1.45-1.849,3.128-4.028,4.67-6.138l.2,1.313c-1.818,2.228-3.839,4.638-5.473,6.482,1.644-1.6,3.683-3.618,5.6-5.612l.156,1.088c-1.7,1.6-3.526,3.28-5.091,4.661-.626.554-.452.488.074.077,1.566-1.225,3.386-2.673,5.106-4.1l.143,1.032c-1.31.976-2.717,2-4.035,2.942,1.3-.788,2.717-1.662,4.09-2.539l.132.979c-.658.371-1.344.754-2.032,1.132.682-.309,1.374-.621,2.059-.926l.135,1.012c-1.113.451-2.336.943-3.527,1.41q.508-.159,1.032-.319c.942-.287,1.816-.549,2.538-.762l.133,1.026-4.016,1.029c1.016-.188,2.14-.369,3.353-.525.238-.031.484-.057.719-.07l.13,1.022c-.141.02-.285.037-.429.051-1.636.155-5.758.921-8.09,1.147-.868.085-1.673.023-1.381-1.05.774-2.844,2.639-9.762,3.207-13.3.113-.705.312-1.456.729-1.309s.379.876.246,1.53c-.174.858-1.129,4.336-2.124,7.653-.223.744-.168.922.14.086a94.232,94.232,0,0,0,3.031-9.346c.2-.854.518-1.758,1.029-1.551s.4,1.093.177,1.882c-.3,1.068-1.893,5.183-3.481,8.977,1.66-3.458,3.616-7.718,4.651-10.655Zm2.809,20.017a7.751,7.751,0,0,0-.463.9,138.776,138.776,0,0,1-6.994,12.535c2.359-4.348,5.3-10.283,5.821-11.621.315-.813.533-1.73.027-1.978s-.917.685-1.218,1.566a117.9,117.9,0,0,1-4.755,10.951c1.589-3.793,3.179-7.908,3.481-8.976.224-.789.342-1.671-.177-1.881s-.825.7-1.028,1.55a94.43,94.43,0,0,1-3.032,9.346c-.308.836-.363.658-.139-.086.995-3.317,1.95-6.795,2.124-7.653.132-.654.177-1.379-.247-1.529s-.615.6-.728,1.308c-.568,3.541-2.434,10.459-3.208,13.3-.291,1.073.513,1.135,1.381,1.05,2.331-.226,6.455-.992,8.091-1.147.856-.082,1.735-.27,1.615-.723s-1.133-.4-2.035-.281c-1.213.157-2.337.338-3.353.526,2.348-.6,4.728-1.214,5.54-1.414a3.757,3.757,0,0,0,1.266-.5l-.1-.679a3.813,3.813,0,0,0-1.73.218c-.815.232-2.138.624-3.633,1.081-.349.1-.694.212-1.032.318,2.318-.909,4.763-1.915,6.266-2.524l-.152-1.1c-1.495.647-3.167,1.393-4.781,2.126,1.714-.943,3.413-1.909,4.707-2.666l-.158-1.185c-2.076,1.408-4.57,2.962-6.74,4.279,2.273-1.617,4.814-3.508,6.655-4.924l-.166-1.275c-2.317,2.058-5.307,4.453-7.7,6.328-.526.411-.7.477-.074-.077,2.4-2.123,5.421-4.946,7.665-7.117l-.173-1.368c-2.483,2.751-5.746,6-8.157,8.347,2.459-2.776,5.8-6.835,8-9.626l-.214-1.735c-2,3-4.874,6.768-7.178,9.7,2.514-3.716,5.708-8.809,7.011-11.072l-.283-2.3Zm2.595,19.29c-.5-.236-.914.689-1.214,1.568a118.128,118.128,0,0,1-4.755,10.951c1.589-3.794,3.179-7.908,3.481-8.977.224-.789.343-1.672-.176-1.881s-.826.7-1.029,1.55a94.513,94.513,0,0,1-3.032,9.346c-.308.836-.363.658-.139-.087.995-3.316,1.95-6.794,2.124-7.652.133-.654.178-1.38-.247-1.529s-.615.6-.728,1.308c-.568,3.541-2.434,10.459-3.208,13.3-.292,1.073.514,1.135,1.382,1.051,2.331-.226,6.454-.993,8.089-1.148.857-.082,1.736-.27,1.616-.723s-1.133-.4-2.035-.28c-1.213.156-2.337.337-3.353.526,2.349-.6,4.728-1.215,5.54-1.415a4.591,4.591,0,0,0,1.125-.4c-.081-.271-.161-.541-.24-.813a5.346,5.346,0,0,0-1.447.257c-.815.231-2.138.625-3.633,1.08q-.523.159-1.032.32c2.141-.84,4.391-1.763,5.906-2.38-.095-.341-.189-.685-.282-1.029-1.365.6-2.851,1.26-4.291,1.913,1.487-.819,2.963-1.654,4.173-2.355-.093-.352-.183-.706-.272-1.06-1.934,1.287-4.143,2.661-6.091,3.843,2-1.42,4.2-3.053,5.954-4.388q-.137-.552-.266-1.109c-2.178,1.886-4.775,3.961-6.9,5.625-.526.412-.7.477-.074-.076,2.108-1.861,4.688-4.262,6.8-6.288q-.132-.579-.26-1.162c-2.324,2.5-5.094,5.252-7.209,7.312,2.107-2.378,4.858-5.7,6.987-8.354q-.147-.708-.289-1.42c-1.873,2.668-4.179,5.679-6.092,8.117,1.953-2.887,4.317-6.6,5.885-9.181q-.171-.9-.332-1.8c-1.671,3.356-4.306,7.8-6.283,11.039,2.359-4.349,5.306-10.283,5.823-11.621a6.237,6.237,0,0,0,.233-.714q-.106-.631-.211-1.265Zm-25.424-18.811c.5.349,1.169-.547,1.692-1.416a136.7,136.7,0,0,1,8.312-11.483c-2.939,4.344-6.807,10.572-7.5,11.955-.407.818-.722,1.751-.206,2.048s1.038-.638,1.438-1.527a138.136,138.136,0,0,1,6.995-12.535c-2.36,4.348-5.306,10.283-5.823,11.62-.314.814-.532,1.731-.026,1.978s.917-.684,1.218-1.566A118.222,118.222,0,0,1,875.2,6138.3c-1.589,3.794-3.179,7.909-3.482,8.976-.223.79-.342,1.672.178,1.882s.825-.7,1.028-1.55a94.25,94.25,0,0,1,3.032-9.347c.308-.835.362-.658.139.087-.995,3.317-1.95,6.795-2.124,7.653-.133.654-.177,1.379.247,1.529s.615-.6.728-1.308c.568-3.541,2.434-10.459,3.208-13.3.291-1.072-.514-1.134-1.382-1.05-2.331.226-6.454.993-8.089,1.148-.857.081-1.736.27-1.616.723s1.132.4,2.035.279c1.213-.156,2.336-.337,3.353-.524-2.348.6-4.728,1.214-5.54,1.415s-1.632.512-1.446.955,1.155.246,2.008,0c.814-.231,2.138-.625,3.633-1.081q.523-.159,1.032-.319c-3.072,1.205-6.365,2.58-7.4,2.978-.765.3-1.521.7-1.283,1.131s1.154.118,1.953-.223c1.642-.7,3.555-1.555,5.4-2.389-2.947,1.621-5.85,3.309-6.727,3.885-.717.472-1.4,1.066-1.063,1.487s1.208-.095,1.948-.624c2.264-1.616,5.388-3.573,8.032-5.177-3.661,2.6-8.022,5.925-9.022,6.812-.653.579-1.255,1.282-.859,1.681s1.2-.245,1.863-.887c2.382-2.289,6.264-5.413,9.232-7.735.526-.411.7-.476.074.077-3.983,3.517-9.648,8.955-10.693,10.167-.6.69-1.125,1.508-.667,1.889s1.2-.4,1.8-1.156a143.658,143.658,0,0,1,10.226-10.763c-3.64,4.109-9.2,11.027-10.162,12.487-.523.795-.961,1.716-.448,2.07Zm-3.937-21.247c-.059.613-.119,1.225-.18,1.839.491.194,1.109-.648,1.6-1.466a137.327,137.327,0,0,1,8.313-11.482c-2.939,4.344-6.807,10.571-7.5,11.955-.407.818-.723,1.75-.207,2.047s1.039-.637,1.439-1.526a137.95,137.95,0,0,1,6.995-12.535c-2.36,4.348-5.306,10.283-5.823,11.62-.314.814-.532,1.731-.027,1.978s.918-.684,1.219-1.566a118.3,118.3,0,0,1,4.754-10.952c-1.588,3.8-3.179,7.91-3.481,8.977-.223.79-.342,1.673.178,1.882s.824-.7,1.027-1.55a94.552,94.552,0,0,1,3.033-9.347c.308-.835.363-.657.139.087-.995,3.317-1.95,6.795-2.124,7.653-.133.654-.178,1.379.246,1.529s.615-.6.729-1.309c.567-3.54,2.433-10.458,3.208-13.3.291-1.073-.514-1.134-1.381-1.049-2.332.225-6.455.992-8.091,1.147-.856.081-1.735.27-1.616.723s1.133.4,2.036.28c1.213-.157,2.337-.338,3.353-.526-2.349.6-4.729,1.215-5.54,1.415a3.928,3.928,0,0,0-1.237.476l-.045.654a3.164,3.164,0,0,0,1.844-.171c.814-.231,2.138-.625,3.633-1.08.348-.107.693-.213,1.031-.32-2.489.977-5.125,2.065-6.584,2.654l-.088,1.208c1.63-.7,3.521-1.541,5.34-2.366-2.037,1.121-4.052,2.273-5.393,3.069l-.111,1.441c2.23-1.568,5.179-3.412,7.694-4.938-2.775,1.973-5.951,4.359-7.762,5.784l-.141,1.711c2.391-2.278,6.2-5.339,9.117-7.624.526-.411.7-.477.074.077-3.055,2.7-7.1,6.526-9.291,8.71q-.09,1.04-.185,2.084a145.882,145.882,0,0,1,10.141-10.657c-3.64,4.109-9.2,11.026-10.162,12.486-.061.092-.12.187-.177.281Zm1.715-25.322q-.039,1.047-.085,2.1c2-2.989,4.849-6.727,7.137-9.643-2.66,3.932-6.082,9.408-7.219,11.437q-.062,1.289-.13,2.588c.392-.158.777-.865,1.085-1.549a138.192,138.192,0,0,1,6.995-12.535c-2.36,4.348-5.306,10.283-5.823,11.621-.314.813-.533,1.73-.026,1.977s.917-.685,1.218-1.566a117.926,117.926,0,0,1,4.755-10.951c-1.589,3.793-3.179,7.908-3.481,8.976-.224.789-.343,1.672.177,1.882s.824-.7,1.028-1.55a94.3,94.3,0,0,1,3.032-9.347c.308-.835.363-.658.139.087-.995,3.316-1.95,6.795-2.125,7.653-.132.654-.176,1.379.248,1.529s.615-.6.728-1.309c.567-3.54,2.434-10.459,3.207-13.3.293-1.073-.513-1.134-1.38-1.049-2.332.225-6.455.991-8.091,1.147a5.222,5.222,0,0,0-1.139.21l-.005.831a5.506,5.506,0,0,0,1.564-.038c1.213-.157,2.337-.338,3.353-.526-1.9.487-3.83.983-4.923,1.26l-.011,1.1c.818-.233,2.121-.62,3.589-1.068.348-.106.693-.213,1.031-.319-1.6.628-3.258,1.3-4.627,1.858l-.017,1.121c1.081-.477,2.21-.983,3.312-1.483-1.153.634-2.3,1.278-3.319,1.863l-.023,1.183c1.793-1.178,3.769-2.4,5.532-3.474-1.845,1.312-3.866,2.8-5.547,4.078l-.033,1.326c2.155-1.86,4.7-3.9,6.794-5.533.525-.412.7-.477.074.077-2.138,1.888-4.761,4.33-6.894,6.374q-.023.75-.048,1.506c2.4-2.612,5.37-5.564,7.607-7.743C867.445,6097.048,864.318,6100.842,862.123,6103.608Z" fill="#5cb0ed" fill-rule="evenodd"/>
        <path id="Trazado_101336" data-name="Trazado 101336" d="M883.692,6058.955a27.2,27.2,0,0,1-2.936-1.214,34.575,34.575,0,0,1-14.332-13.773,29.543,29.543,0,0,1-3.983-18.014c.481-4.311-20.809-9.69-16.236-11.2.471-.155,13.877-2.033,14.34-2.083a21.242,21.242,0,0,1,14.563,3.634C883.785,6024.635,884.508,6042.814,883.692,6058.955Z" fill="#a55579" fill-rule="evenodd"/>
        <path id="Trazado_101337" data-name="Trazado 101337" d="M910.536,6032.027c-3.343,2.779-7.345,5.06-11.83,4.885-21.211-.827-10.242,34.023,13.168,5.582C916.111,6037.347,917.59,6026.166,910.536,6032.027Z" fill="#d988ad" fill-rule="evenodd"/>
        <path id="Trazado_101338" data-name="Trazado 101338" d="M853.484,6095.247c2.566-38.707,27.9-38.468,25.983-13.318a88.413,88.413,0,0,0-.083,11.052C873.376,6094.635,863.2,6095.411,853.484,6095.247Z" fill="#5cb0ed" fill-rule="evenodd"/>
        <path id="Trazado_101339" data-name="Trazado 101339" d="M832.4,6092.68q.238-2.072.513-4.088c3.83-28.035,30.233-30.981,29.467,1.95q0,2.262-.031,4.6C851.182,6095.607,838.743,6094.82,832.4,6092.68Z" fill="#85c4f2" fill-rule="evenodd"/>
        <path id="Trazado_101340" data-name="Trazado 101340" d="M836.008,6020.114c3.581-.99,8.587-3.294,11.767-.391,3.575,3.264,3.917,8.242,3.092,12.232-1.248,6.036-6.236,13.94-10.309,18.1a33.092,33.092,0,0,0-4.09,5.095c.426-11.549,0-23.531-.46-35.036Zm-2.027,58.7a73.874,73.874,0,0,0,5.588,10.022c-2.666-.271-4.712-.527-5.772-.706-2.1-.353-2.074-.064-1.518-2.057Q833.262,6082.542,833.981,6078.81Z" fill="#ac5062" fill-rule="evenodd"/>
        <path id="Trazado_101341" data-name="Trazado 101341" d="M881.531,6085.277c1.189,6.957-50.184,7.489-50.712.209-2.227-30.72-10.379-55.684,2.2-67.028,4.459-4.022,14-6.629,23.9-6.76C887.72,6011.292,880.273,6069.236,881.531,6085.277Z" fill="#d988ad" fill-rule="evenodd"/>
        <path id="Trazado_101342" data-name="Trazado 101342" d="M870.312,6089.886a120.694,120.694,0,0,1-30.344-.243,19.213,19.213,0,0,1,2.562-2.3c-5.512-7.026-7.314-15.963-6.256-24.61a33.809,33.809,0,0,1,6.944-16.485c3.661-4.729,7.085-10.776,7.793-16.987.467-4.1-.3-9.034-4.121-11.8-4.669-3.384-10.355-1.259-14.412,1.5.176-.172.355-.342.54-.509,4.28-3.86,13.243-6.417,22.709-6.732C874.506,6023.945,869.416,6073.569,870.312,6089.886Z" fill="#bf3976" fill-rule="evenodd"/>
        <path id="Trazado_101343" data-name="Trazado 101343" d="M837.6,6090.6c-12.878-15.4-9.3-33.428,1.317-45.763,16.734-19.433,8.141-34.394-7.12-22.972-15.4,11.528-20.237,40.04-12.6,57.03,3.667,8.154,9.033,13.064,15.035,15.406A6.825,6.825,0,0,1,837.6,6090.6Z" fill="#feceb4" fill-rule="evenodd"/>
        <path id="Trazado_101344" data-name="Trazado 101344" d="M844.581,6095.363c3.018,1.1,2.933.288,3.09-.017.2-.387-.486-.972-2.369-1.935a40.57,40.57,0,0,0-8.2-3.36c-.664-.189-3.606,2.158-3.411,4.037a33.674,33.674,0,0,0,4.331,8.653c3.86,5.131,8.257,7.739,5.575,3.071,3.02,2.035,4.861,2.319,1.877-1.256,4.043,1.626,5.981.974-.293-3.9C842.451,6098.788,840.6,6094.07,844.581,6095.363Z" fill="#feceb4" fill-rule="evenodd"/>
        <path id="Trazado_101345" data-name="Trazado 101345" d="M830.442,6093.7c-25.3-15.1-20.327-58.3.066-73.564,4.328-3.24,11.249-6.529,16.231-2.676,3.576,2.766,3.918,7.7,3.092,11.8-1.248,6.211-5.2,12.257-9.273,16.987a37.279,37.279,0,0,0-8.38,16.485c-1.811,8.647-.788,17.584,4.112,24.61C833.184,6089.6,832.409,6090.781,830.442,6093.7Z" fill="#bf3976" fill-rule="evenodd"/>
        <path id="Trazado_101346" data-name="Trazado 101346" d="M827.313,6080.052c-1.655-5.73-.791-12.629.451-18.559a39.591,39.591,0,0,1,8.893-17.528c3.721-4.322,7.444-9.929,8.582-15.594.6-2.983.575-6.979-2.069-9.023-3.763-2.911-9.62.288-12.81,2.675-9.2,6.888-14.3,19.372-15.6,30.5-1.234,10.517-.24,22.684,6.08,31.068C828.5,6093.757,830.117,6089.764,827.313,6080.052Z" fill="#d988ad" fill-rule="evenodd"/>
        <g id="Grupo_53835" data-name="Grupo 53835">
          <path id="Trazado_101347" data-name="Trazado 101347" d="M846.122,5976.774c-10.529-1.563-10.112,11.37-6.588,18.911,2.8,5.993-1.095,8.725,5.055,9.612,3.012.463,6.682-1.31,7.154-4.484a4.336,4.336,0,0,0-.6-2.893c-.894-1.478.841-3.061,2.183-3.724,5.2-2.569,3.765-11.162-2.053-13.445C850.708,5980.531,846.77,5976.87,846.122,5976.774Z" fill="#333" fill-rule="evenodd"/>
          <path id="Trazado_101348" data-name="Trazado 101348" d="M859.646,5980.629c-3.034-.451-7.7,1.632-8.122,4.3-6.528,3.466-5.488,11.673-1.453,13.507-1.283,3.575,1.365,6.7,4.719,7.213,3.013.464,6.683-1.309,7.155-4.484a4.333,4.333,0,0,0-.6-2.893c-.894-1.478.841-3.06,2.183-3.723,5.2-2.569,3.766-11.162-2.053-13.445A8.38,8.38,0,0,0,859.646,5980.629Z" fill="#333" fill-rule="evenodd"/>
          <path id="Trazado_101349" data-name="Trazado 101349" d="M860.336,6006.1c-.624,3.7,1.83,6.7,4.6,8.273.264.149.542.29.83.425a19.982,19.982,0,0,1-10.613,3.252,22.2,22.2,0,0,1-11.993-3.294,20.319,20.319,0,0,0,2.63-1.058c3.056-1.538,3.723-3.6,4.922-7.186a14.4,14.4,0,0,1,2.906-.625C855.046,6005.888,858.177,6005.961,860.336,6006.1Z" fill="#fea682" fill-rule="evenodd"/>
          <path id="Trazado_101350" data-name="Trazado 101350" d="M845.788,6016.165c2.754-2.822,6.726-5.332,8.912-5.2,3.863.235,5.972,2.328,8.508,4.889.073.075.147.152.218.231a18.911,18.911,0,0,1-8.273,1.965A23.278,23.278,0,0,1,845.788,6016.165Z" fill="#febea0" fill-rule="evenodd"/>
          <path id="Trazado_101351" data-name="Trazado 101351" d="M863.634,5985.246c1.579,4.712-.166,14.286-1.167,17.365-1.444,4.444-3.5,5.951-7.141,5.951-5.01,0-9.736-5.4-9.736-12.6,0-8.333,2.6-14.2,11.5-13.945C860.045,5982.1,862.88,5982.994,863.634,5985.246Z" fill="#feceb4" fill-rule="evenodd"/>
          <path id="Trazado_101352" data-name="Trazado 101352" d="M862.249,5989.06c1.094,4.015-.284,11.508-1.085,13.972-1.194,3.676-2.9,4.922-5.906,4.922-4.145,0-8.055-4.467-8.055-10.422,0-2.1.35-2.884,2.345-3.135a5.018,5.018,0,0,0,4.16-3.489c.549-1.548.17-4.826,3.126-3.5C858.745,5988.266,859.635,5989.063,862.249,5989.06Z" fill="#fedfcd" fill-rule="evenodd"/>
          <path id="Trazado_101353" data-name="Trazado 101353" d="M847.874,5975.1c-8.736-.443-13.236,8.966-9.4,13.817,2.024,2.558,6.366,3,7.3,2.655,5.231-1.9,3.214-7.5,5.481-7.975,6.544,4.351,20.368,4.5,18.623-5.988-3.192,2.942-5.458.761-5.526-.074C863.822,5970.945,851.147,5968.018,847.874,5975.1Z" fill="#333" fill-rule="evenodd"/>
          <g id="Grupo_53834" data-name="Grupo 53834">
            <path id="Trazado_101354" data-name="Trazado 101354" d="M842.036,5992.992a4.56,4.56,0,0,0,.954,4.731c.99,1.249,2.333,2.064,3.129,1.12-.035-1.764-.031-6.139.447-7.384C845.634,5990.082,842.877,5990.473,842.036,5992.992Z" fill="#feceb4" fill-rule="evenodd"/>
            <path id="Trazado_101355" data-name="Trazado 101355" d="M844.484,5992.234c-1.11.074-2.159,3.635.546,4.834a5.158,5.158,0,0,1-.355-1.7,6.731,6.731,0,0,1,.365-2.656C845.295,5992.128,845.3,5992.18,844.484,5992.234Z" fill="#fea682" fill-rule="evenodd"/>
          </g>
          <path id="Trazado_101356" data-name="Trazado 101356" d="M863.962,5995.036c.821,1.02-.3,7.691-.539,8.977-.555,2.987-1.594,5.61-3.86,5.61-3.885,0-3.459.1-7.349,0-4.775-.123-6.156-5.989-6.387-10.221-.07-1.276-.058-2.389-.042-3.1.082-3.545,1.5-.937,1.721.872.4,3.31,2.546,5.606,5.561,5.689,3.634.1,3.419,0,7.048,0,1.433,0,2.531-1.316,2.845-2.872Z" fill="#333" fill-rule="evenodd"/>
        </g>
        <path id="Trazado_101357" data-name="Trazado 101357" d="M928.362,6014.221c-6.62,1.841-7.038,3.09.287,3.427-6.437,2.525-5.562,3.354.578,3.289-4.145,2.5-2.462,2.978.11,2.348,1.559-.382,3.72-.761,4.323-2.514a8.872,8.872,0,0,0-1.936-8.567c-1.308-1.262-3.069-.67-4.583-.267C924.1,6012.748,922.235,6014.879,928.362,6014.221Z" fill="#feceb4" fill-rule="evenodd"/>
        <path id="Trazado_101358" data-name="Trazado 101358" d="M847.494,6173.283a224.41,224.41,0,0,0,5.139-26.982c2.921-21.853-7.85-29.311-14.4-28.444-5.717.757-7.277,6.794-5.929,29.042a194.237,194.237,0,0,0,3.332,26.322C838.049,6185.251,844.441,6184.95,847.494,6173.283Z" fill="#339ce9" fill-rule="evenodd"/>
        <path id="Trazado_101359" data-name="Trazado 101359" d="M851.051,6188.484c-1,1.346-5.825,1.287-7.358,1.259-1.512-.027-6.059-.179-7.163-1.27l-.18-.178-.052-.248q-.495-2.389-.946-4.8c2.015,1.031,6.854,1.19,8.585,1.222,1.646.03,6.254.088,8.456-.91q-.582,2.331-1.206,4.641l-.042.153Z" fill="#85c4f2" fill-rule="evenodd"/>
        <path id="Trazado_101360" data-name="Trazado 101360" d="M847.686,6172.544q.464-1.8.889-3.62l-.445.348c-.526.412-.7.478-.073-.076l.574-.51.25-1.087c-.521.513-1.021,1-1.49,1.46.493-.556,1.02-1.164,1.567-1.8q.171-.757.336-1.519c-.445.576-.88,1.133-1.3,1.664.445-.659.912-1.36,1.386-2.082q.23-1.071.447-2.143c-.89,1.522-1.779,3-2.563,4.284.891-1.643,1.866-3.512,2.762-5.274q.37-1.866.707-3.734c-1.048,2.529-2.4,5.436-3.594,7.927,1.589-3.793,3.179-7.909,3.481-8.977.224-.789.343-1.671-.177-1.881s-.824.7-1.027,1.55a94.206,94.206,0,0,1-3.033,9.346c-.308.835-.362.658-.139-.087.995-3.316,1.95-6.794,2.124-7.652.133-.654.177-1.379-.247-1.529s-.615.6-.728,1.308c-.567,3.541-2.433,10.459-3.207,13.3-.292,1.073.513,1.134,1.381,1.05.608-.058,1.339-.154,2.115-.266Zm4.4-22.373.155-1.071c-.791.117-1.539.242-2.235.371l2.265-.58.146-1.037-1.067.324c-.348.106-.693.213-1.031.319.707-.277,1.426-.564,2.126-.845l.147-1.076-.94.425.954-.528.023-.172q.062-.453.112-.9c-1.113.7-2.234,1.392-3.279,2.026,1.082-.769,2.225-1.6,3.323-2.414q.067-.6.121-1.189c-1.585,1.308-3.228,2.613-4.658,3.732-.526.411-.7.477-.074-.076,1.474-1.3,3.178-2.867,4.794-4.383q.051-.665.084-1.308c-1.9,1.974-3.916,3.968-5.543,5.553,1.668-1.884,3.74-4.357,5.588-6.624q.025-.831.021-1.627c-1.631,2.249-3.447,4.611-5,6.594,1.607-2.376,3.493-5.316,4.985-7.719q-.031-1-.108-1.94c-1.651,3.139-3.88,6.888-5.607,9.718,2.048-3.774,4.537-8.741,5.5-10.863q-.138-1.224-.347-2.351a5.83,5.83,0,0,0-.519,1.181,118.232,118.232,0,0,1-4.755,10.952c1.589-3.794,3.179-7.909,3.481-8.977.224-.789.343-1.672-.177-1.882s-.825.7-1.028,1.55a94.432,94.432,0,0,1-3.032,9.347c-.308.835-.362.658-.139-.087.994-3.316,1.95-6.794,2.124-7.652.132-.654.177-1.38-.247-1.53s-.615.6-.728,1.309c-.568,3.54-2.434,10.459-3.208,13.3-.292,1.073.513,1.134,1.381,1.05,1.729-.167,4.443-.632,6.4-.925Zm-.593-21.612c-.121-.345-.247-.683-.379-1.01-.113.028-.226.06-.338.091-.815.232-2.138.625-3.634,1.081-.347.106-.693.213-1.031.319,1.674-.656,3.414-1.364,4.819-1.936q-.206-.48-.425-.932c-1,.444-2.044.911-3.061,1.372,1.008-.555,2.012-1.118,2.93-1.641-.146-.29-.3-.57-.45-.843-1.55,1-3.186,2.012-4.671,2.912,1.464-1.04,3.039-2.2,4.466-3.264q-.238-.4-.489-.781c-1.745,1.453-3.6,2.929-5.191,4.174-.525.411-.7.477-.073-.077,1.525-1.346,3.3-2.974,4.961-4.539q-.257-.361-.522-.7c-1.769,1.824-3.6,3.636-5.1,5.1,1.412-1.594,3.113-3.609,4.722-5.566q-.3-.346-.6-.666c-1.2,1.6-2.42,3.18-3.513,4.575,1.013-1.5,2.136-3.22,3.2-4.89-.21-.208-.423-.4-.639-.593-1.127,1.957-2.294,3.9-3.294,5.542.976-1.8,2.053-3.871,3.017-5.776q-.349-.29-.706-.546c-.792,1.775-1.647,3.6-2.435,5.241.779-1.861,1.559-3.8,2.186-5.416q-.429-.3-.863-.545c-.609,1.921-1.357,4.039-2.079,6-.308.835-.363.658-.139-.086.684-2.281,1.349-4.637,1.754-6.166q-.422-.218-.843-.4c-.736,3.733-2.283,9.466-2.97,11.99-.292,1.072.513,1.134,1.381,1.051,2.332-.227,6.454-.994,8.09-1.149.856-.081,1.735-.269,1.616-.723s-1.133-.4-2.036-.279c-1.213.156-2.336.337-3.352.526,2.348-.6,4.727-1.216,5.54-1.416l.155-.04Zm-10.069-10.5c-.812,2.989-2.585,9.6-3.136,13.037-.113.706-.311,1.457-.728,1.309s-.379-.876-.247-1.529c.174-.858,1.13-4.336,2.124-7.653.224-.745.169-.922-.139-.087a94.3,94.3,0,0,0-3.032,9.347c-.2.854-.517,1.757-1.028,1.55s-.4-1.092-.177-1.882c.3-1.067,1.892-5.182,3.481-8.976a117.9,117.9,0,0,0-4.754,10.951c-.3.882-.721,1.81-1.219,1.566s-.287-1.164.027-1.977c.516-1.337,3.463-7.273,5.822-11.622-2.093,3.431-4.925,8.213-6.568,11.622.005-.893.022-1.738.05-2.539,1.568-2.568,3.874-6.195,5.788-9.023-1.79,2.281-3.924,5.063-5.724,7.6.037-.664.083-1.292.139-1.889,1.988-2.456,4.338-5.275,6.191-7.366-1.773,1.727-4.007,3.94-6.052,6.084.067-.527.142-1.023.225-1.494,1.722-1.621,3.576-3.327,5.162-4.728.627-.553.452-.488-.074-.077-1.509,1.18-3.253,2.568-4.918,3.947.108-.5.229-.959.36-1.388,1.106-.818,2.256-1.656,3.345-2.43-1.019.619-2.11,1.288-3.2,1.972a10.363,10.363,0,0,1,.541-1.288l.464-.256-.434.2a6.738,6.738,0,0,1,.9-1.352l.864-.341-.777.242a5.5,5.5,0,0,1,3.523-1.724,8.793,8.793,0,0,1,3.194.2Zm-9.389,23.823c.085-.037.172-.072.26-.1,1.032-.4,4.326-1.773,7.4-2.978-.338.107-.683.213-1.031.319-1.5.456-2.819.85-3.634,1.081-.852.243-1.824.433-2.007,0s.632-.755,1.446-.956,3.191-.814,5.539-1.415c-1.016.188-2.139.37-3.353.526-.9.116-1.917.166-2.035-.28s.76-.641,1.615-.723c1.636-.155,5.759-.922,8.091-1.148.868-.084,1.673-.022,1.381,1.051-.774,2.844-2.64,9.762-3.207,13.3-.113.705-.312,1.456-.729,1.308s-.379-.875-.247-1.529c.174-.858,1.13-4.336,2.125-7.653.223-.745.168-.922-.139-.086a93.733,93.733,0,0,0-3.032,9.346c-.2.854-.518,1.757-1.029,1.551s-.4-1.093-.177-1.882c.3-1.069,1.893-5.183,3.481-8.977A118.188,118.188,0,0,0,838,6153.581c-.3.881-.721,1.809-1.219,1.565s-.287-1.164.027-1.977c.516-1.337,3.463-7.272,5.822-11.622a138.329,138.329,0,0,0-6.994,12.536c-.4.89-.931,1.819-1.438,1.527s-.2-1.23.206-2.048c.689-1.384,4.558-7.611,7.5-11.955a137.38,137.38,0,0,0-8.312,11.482,7.045,7.045,0,0,1-.724,1.03q-.1-1.076-.192-2.15c1.536-2.113,6.494-8.248,9.835-12.02-3.062,2.982-7.495,7.411-9.963,10.436q-.066-.866-.125-1.731c2.155-2.158,6.3-6.088,9.423-8.842.626-.553.451-.488-.074-.077-2.968,2.322-6.85,5.446-9.233,7.735l-.183.172-.047-.743-.049-.825c1.658-1.333,5.224-4.023,8.3-6.21-2.644,1.6-5.769,3.561-8.032,5.177-.1.073-.207.146-.313.215l-.075-1.391c1.215-.747,3.706-2.184,6.229-3.573-1.839.834-3.753,1.687-5.394,2.39a7.7,7.7,0,0,1-.878.323l-.052-1.126Zm1.615,19.279a6.568,6.568,0,0,1,.694-.206c.812-.2,3.191-.815,5.54-1.416-1.016.189-2.14.37-3.353.526-.9.117-1.918.166-2.036-.28s.76-.642,1.616-.722c1.636-.156,5.759-.923,8.09-1.148.868-.084,1.673-.023,1.381,1.05-.773,2.844-2.64,9.762-3.207,13.3-.113.705-.312,1.456-.729,1.309s-.379-.876-.247-1.53c.175-.857,1.13-4.336,2.125-7.653.223-.744.169-.921-.14-.086a94.671,94.671,0,0,0-3.031,9.347c-.2.853-.517,1.756-1.029,1.55s-.4-1.093-.176-1.882c.3-1.068,1.892-5.183,3.481-8.977a118.232,118.232,0,0,0-4.755,10.952c-.3.881-.72,1.809-1.219,1.566a.511.511,0,0,1-.063-.038q-.118-.344-.233-.711a4.583,4.583,0,0,1,.323-1.229c.517-1.337,3.463-7.272,5.822-11.621-2.071,3.4-4.868,8.117-6.518,11.519q-.187-.74-.353-1.56l-.044-.222c1.554-2.576,4.1-6.6,6.185-9.678-2.02,2.575-4.479,5.789-6.4,8.565q-.142-.744-.279-1.49c2.166-2.715,5.081-6.24,7.289-8.733-2.2,2.144-5.11,5.036-7.489,7.616q-.109-.619-.214-1.24c2.158-2.072,4.851-4.582,7.038-6.513.626-.553.452-.487-.074-.077-2.191,1.714-4.881,3.866-7.1,5.8q-.1-.594-.191-1.188c1.773-1.352,4.032-3.026,6.074-4.478-1.973,1.2-4.214,2.589-6.165,3.891q-.087-.562-.17-1.125c1.205-.7,2.669-1.526,4.145-2.338-1.413.64-2.869,1.292-4.212,1.878-.053-.36-.1-.72-.154-1.08,1.509-.614,3.653-1.491,5.7-2.294-.338.106-.683.212-1.032.319-1.494.456-2.817.849-3.633,1.081a6.974,6.974,0,0,1-1.122.241l-.133-.994Zm4.779,19.282a5.865,5.865,0,0,0,.84.883c.823-.236,2.075-.608,3.478-1.036.349-.106.694-.213,1.032-.319-1.405.551-2.856,1.138-4.116,1.65a3.047,3.047,0,0,0,1.328.5c.486-.219.973-.439,1.455-.658-.407.225-.814.45-1.214.674,1.639.034,3.325-1.466,4.719-4.451-2.117.313-4.485.722-5.632.831-.856.081-1.735.269-1.615.722s1.132.4,2.035.28c1.214-.157,2.337-.337,3.353-.525-2.349.6-4.728,1.214-5.54,1.414Z" fill="#5cb0ed" fill-rule="evenodd"/>
        <path id="Trazado_101361" data-name="Trazado 101361" d="M894.43,6187.358c-.951,1.97-5.9,2.161-7.617,2.2-1.631.042-5.975,0-7.353-1.047l-.142-.109-.1-.163q-1.363-2.309-2.654-4.674a34.818,34.818,0,0,0,8.025.623c1.832-.047,6.395-.218,8.85-1.607q.491,2,1.052,3.977l.118.417Z" fill="#339ce9" fill-rule="evenodd"/>
        <path id="Trazado_101362" data-name="Trazado 101362" d="M879.947,6180.319l.238-.8c.223-.745.168-.922-.14-.087l-.269.735q-.279-.253-.557-.527l.07-.169-.078.162q-.232-.228-.463-.469l.417-.775-.451.741c-.142-.15-.285-.3-.427-.462l.148-.219-.161.2q-.217-.24-.431-.489c.415-.483.817-.944,1.2-1.374-.409.4-.842.822-1.292,1.265-.135-.16-.269-.321-.4-.485.352-.317.7-.624,1.028-.918.627-.553.453-.488-.073-.076q-.52.406-1.074.844-.206-.258-.408-.525l.268-.19-.283.171q-.419-.555-.819-1.143l.244-.1-.255.08c-.142-.207-.28-.417-.417-.629l-.094-.148,1.08-.277q-.546.1-1.131.2c-.2-.318-.405-.635-.6-.951,1.919-.292,4.422-.714,6.051-.872.868-.084,1.673-.023,1.381,1.05-.4,1.478-1.1,4.056-1.755,6.688-.18-.146-.361-.3-.541-.459Zm6.216-6.8q-.1-.448-.191-.894c-.629,2.477-1.81,5.89-2.928,8.924-.308.836-.363.658-.139-.087.995-3.316,1.95-6.794,2.124-7.652.133-.654.178-1.38-.247-1.529s-.615.6-.728,1.308c-.338,2.109-1.137,5.415-1.891,8.345,2.288,1.268,4.164.935,4.566-2.076-.716.935-1.419,1.838-2.075,2.675.677-1,1.4-2.1,2.128-3.219a12.509,12.509,0,0,0,.005-1.519c-.989,1.7-1.99,3.367-2.863,4.8.911-1.679,1.91-3.595,2.822-5.391-.043-.5-.108-1.049-.2-1.634-.875,1.993-1.854,4.084-2.747,5.944.98-2.34,1.96-4.8,2.638-6.594-.078-.445-.17-.909-.275-1.4ZM885,6167.471l-.171-1.023c-.887.127-1.721.265-2.492.408l2.455-.629-.153-.954-.957.291c-.349.1-.694.212-1.032.318.652-.255,1.314-.519,1.962-.779l-.145-.936-.484.22.477-.264-.13-.869c-.865.54-1.724,1.067-2.538,1.561.814-.579,1.663-1.193,2.5-1.809l-.134-.913c-1.237,1.005-2.472,1.984-3.58,2.851-.526.411-.7.477-.074-.077,1.11-.98,2.351-2.11,3.586-3.255l-.082-.581-.055-.388c-1.448,1.473-2.891,2.9-4.114,4.086,1.209-1.365,2.631-3.041,4.026-4.724l-.159-1.171c-1.115,1.483-2.244,2.942-3.261,4.238,1.006-1.487,2.12-3.194,3.179-4.852l-.182-1.388c-1.256,2.208-2.6,4.45-3.726,6.3,1.191-2.2,2.532-4.8,3.635-7.007l-.233-1.838c-1.039,2.49-2.356,5.326-3.527,7.763,1.485-3.546,2.972-7.373,3.406-8.728l-.267-2.159c-.415.025-.683.822-.863,1.58a94.43,94.43,0,0,1-3.032,9.346c-.308.836-.363.658-.139-.086.995-3.317,1.95-6.795,2.124-7.653.132-.654.177-1.379-.247-1.529s-.615.6-.728,1.308c-.568,3.541-2.434,10.459-3.208,13.3-.291,1.073.513,1.135,1.381,1.05,1.909-.185,5.019-.732,6.981-1.01Zm-2.878-21.253q-.231-1.867-.473-3.734l-.949.745c-.526.411-.7.477-.074-.077.322-.284.655-.58.995-.886l-.1-.778c-.545.538-1.069,1.051-1.558,1.527.481-.542.995-1.134,1.528-1.755l-.123-.923-.8,1.021c.254-.375.514-.764.778-1.162l-.142-1.04c-.475.8-.937,1.556-1.367,2.261.432-.795.882-1.642,1.334-2.5q-.089-.639-.181-1.278c-.431.928-.863,1.839-1.276,2.7.419-1,.837-2.023,1.233-3.006l-.112-.772q-.08-.542-.16-1.065c-.531,1.606-1.133,3.295-1.717,4.881-.308.836-.363.658-.14-.086.644-2.149,1.273-4.366,1.683-5.893q-.213-1.308-.432-2.5c-.04.165-.074.342-.1.516-.568,3.541-2.433,10.459-3.207,13.3-.292,1.073.513,1.135,1.381,1.05,1.083-.1,2.554-.327,3.981-.549Zm-3.2-19.615q-.129-.513-.262-.992l-.411.074.4-.1c-.211-.768-.424-1.475-.638-2.128l-.309.188.3-.214c-.076-.229-.152-.454-.227-.669-.443.35-.874.689-1.287,1.012-.526.411-.7.477-.074-.077.413-.364.843-.748,1.285-1.147-.082-.228-.165-.448-.247-.661-.6.591-1.171,1.153-1.7,1.672.51-.576,1.058-1.207,1.625-1.87-.1-.248-.2-.487-.295-.714l-.723.926c.222-.33.451-.671.682-1.018-.11-.25-.219-.488-.329-.713-.375.625-.739,1.226-1.083,1.79.332-.612.675-1.255,1.022-1.913-.132-.265-.264-.513-.4-.746-.253.539-.505,1.067-.75,1.578.233-.556.465-1.119.694-1.678-.178-.306-.355-.583-.532-.833-.3.86-.612,1.718-.918,2.549s-.363.658-.14-.086c.281-.938.559-1.888.817-2.788a6.682,6.682,0,0,0-.586-.666c-.778,3.3-1.775,6.992-2.29,8.883-.291,1.073.514,1.134,1.381,1.05,1.343-.13,3.279-.439,4.991-.707Zm-5.758-10.227c-.873,3.3-2,7.769-2.424,10.388-.114.706-.312,1.456-.729,1.309s-.379-.875-.246-1.529c.174-.858,1.129-4.336,2.124-7.653.224-.744.169-.922-.139-.087a94.552,94.552,0,0,0-3.033,9.347c-.2.854-.517,1.757-1.027,1.55s-.4-1.092-.178-1.882c.3-1.067,1.893-5.182,3.481-8.977a118.3,118.3,0,0,0-4.754,10.952,6.8,6.8,0,0,1-.425,1.02c.361-1.983.825-4.014,1.345-5.9,1.116-2.24,2.491-4.911,3.711-7.157-.964,1.578-2.084,3.444-3.173,5.33a32.921,32.921,0,0,1,1.358-3.647c.37-.561.734-1.106,1.085-1.624l-.794,1.016a5.063,5.063,0,0,1,1.46-1.973,3.071,3.071,0,0,1,2.358-.488Zm-8.2,20.982c1.225-.484,4.3-1.762,7.175-2.891q-.508.161-1.032.319c-1.495.456-2.819.85-3.633,1.081-.853.243-1.824.434-2.008,0s.632-.755,1.446-.955,3.192-.815,5.54-1.415c-1.017.187-2.14.368-3.353.524-.9.117-1.918.166-2.035-.279s.759-.642,1.616-.723c1.635-.155,5.758-.922,8.089-1.148.868-.084,1.673-.022,1.382,1.05-.774,2.845-2.64,9.763-3.208,13.3-.113.7-.312,1.456-.728,1.308s-.38-.875-.247-1.529c.174-.858,1.129-4.336,2.124-7.653.223-.745.169-.922-.139-.087a94.25,94.25,0,0,0-3.032,9.347c-.2.854-.517,1.757-1.028,1.55s-.4-1.092-.178-1.882c.3-1.067,1.893-5.182,3.482-8.976a118.222,118.222,0,0,0-4.755,10.951c-.3.882-.72,1.81-1.218,1.566s-.288-1.164.026-1.978c.517-1.337,3.463-7.272,5.823-11.62a138.136,138.136,0,0,0-6.995,12.535c-.4.889-.93,1.818-1.438,1.527s-.2-1.23.206-2.048c.69-1.383,4.558-7.611,7.5-11.955a136.7,136.7,0,0,0-8.312,11.483,6.236,6.236,0,0,1-.849,1.161c-.091-.675-.17-1.358-.233-2.05,1.307-1.856,6.527-8.331,10-12.252a146.562,146.562,0,0,0-10.124,10.635q-.054-.9-.08-1.813c2.12-2.131,6.364-6.156,9.539-8.959.627-.553.452-.488-.074-.077-2.968,2.322-6.85,5.446-9.232,7.735-.082.078-.166.157-.251.233q-.007-.819.009-1.659c1.673-1.342,5.209-4.01,8.26-6.18-2.644,1.6-5.768,3.561-8.032,5.177l-.207.145q.024-.727.065-1.471c1.284-.778,3.62-2.121,5.984-3.422-1.84.834-3.753,1.686-5.4,2.389-.177.075-.359.149-.539.213.027-.4.058-.8.092-1.208Zm1.635,19.314.191-.049c.813-.2,3.192-.815,5.54-1.415-1.016.188-2.139.369-3.353.525-.9.117-1.918.166-2.035-.28s.76-.641,1.615-.723c1.636-.155,5.759-.921,8.09-1.148.869-.084,1.674-.022,1.382,1.051-.774,2.844-2.64,9.763-3.208,13.3-.112.705-.311,1.456-.728,1.309s-.379-.876-.247-1.529c.175-.859,1.13-4.337,2.125-7.654.223-.744.168-.922-.14-.086a94.513,94.513,0,0,0-3.032,9.346,6.674,6.674,0,0,1-.252.849q-.436-.757-.85-1.511c.466-1.425,1.923-5.17,3.378-8.645-1.225,2.552-2.611,5.539-3.669,8.11q-.31-.573-.606-1.144c1.179-2.394,2.766-5.494,4.151-8.048-1.338,2.194-2.98,4.942-4.419,7.529q-.258-.508-.506-1.015c1.334-2.12,2.86-4.481,4.2-6.455-1.39,1.772-2.988,3.847-4.476,5.872q-.231-.486-.452-.971c1.834-2.249,3.882-4.693,5.535-6.558-1.714,1.668-3.857,3.79-5.845,5.866q-.2-.448-.385-.9c1.832-1.732,3.854-3.6,5.564-5.109.627-.553.452-.487-.073-.076-1.755,1.372-3.83,3.025-5.724,4.62q-.187-.459-.366-.92c1.532-1.151,3.271-2.43,4.876-3.571-1.6.971-3.38,2.073-5.036,3.149q-.175-.467-.341-.934c.987-.564,2.083-1.181,3.186-1.787-1.1.5-2.219,1-3.3,1.476-.113-.326-.221-.652-.328-.98,1.428-.581,3.228-1.314,4.957-1.992q-.508.159-1.032.319c-1.5.456-2.818.849-3.633,1.081-.146.041-.295.081-.443.117Q866.754,6157.187,866.6,6156.672Z" fill="#339ce9" fill-rule="evenodd"/>
      </g>
      <g id="Grupo_53844" data-name="Grupo 53844">
        <g id="Grupo_53838" data-name="Grupo 53838">
          <path id="Trazado_101363" data-name="Trazado 101363" d="M919.588,6054.869c-.811,5.978-6.07,12.246-12.623,17.062-6.85,5.034-15.226,8.563-21.409,8.521a6.536,6.536,0,0,0,.376-2.211,6.753,6.753,0,0,0-.131-1.329c5.4-.04,12.846-3.266,19.069-7.839,5.859-4.306,10.537-9.731,11.208-14.676Z" fill="#fab433" fill-rule="evenodd"/>
          <path id="Trazado_101364" data-name="Trazado 101364" d="M890.736,6079.8a22.158,22.158,0,0,1-5.18.65,6.536,6.536,0,0,0,.376-2.211,6.753,6.753,0,0,0-.131-1.329c5.4-.04,12.846-3.266,19.069-7.839a41.234,41.234,0,0,0,6.735-6.114,1.62,1.62,0,0,1,.47.462c1.569,2.425-5.124,8.461-14.95,13.482C894.94,6078.02,892.785,6078.991,890.736,6079.8Z" fill="#fcc846" fill-rule="evenodd"/>
          <g id="Grupo_53837" data-name="Grupo 53837">
            <path id="Trazado_101365" data-name="Trazado 101365" d="M911.635,6062.924l.125.145.888,1.027a.1.1,0,0,1-.017.143.1.1,0,0,1-.142,0l-.888-1.027-.106-.123Z" fill="#ac273d" fill-rule="evenodd"/>
            <path id="Trazado_101366" data-name="Trazado 101366" d="M912.651,6061.677l.155.179.848.983a.1.1,0,0,1-.016.143.1.1,0,0,1-.143,0l-.848-.984-.128-.149Z" fill="#ac273d" fill-rule="evenodd"/>
            <path id="Trazado_101367" data-name="Trazado 101367" d="M913.456,6060.569l.044.051.8.936a.1.1,0,0,1-.017.143.1.1,0,0,1-.143,0l-.8-.935-.01-.012Z" fill="#ac273d" fill-rule="evenodd"/>
            <path id="Trazado_101368" data-name="Trazado 101368" d="M905.8,6068.374l.138.211.868,1.332a.1.1,0,0,1-.033.141.1.1,0,0,1-.14-.02l-.868-1.332-.133-.2Z" fill="#ac273d" fill-rule="evenodd"/>
            <path id="Trazado_101369" data-name="Trazado 101369" d="M906.88,6067.513l.922,1.416a.105.105,0,0,1-.034.142.1.1,0,0,1-.139-.02l-.914-1.4Z" fill="#ac273d" fill-rule="evenodd"/>
            <path id="Trazado_101370" data-name="Trazado 101370" d="M907.977,6066.583l.128.195.834,1.284a.106.106,0,0,1-.033.141.1.1,0,0,1-.14-.02l-.835-1.283-.115-.177Z" fill="#ac273d" fill-rule="evenodd"/>
            <path id="Trazado_101371" data-name="Trazado 101371" d="M909.065,6065.6l.248.332.892,1.192a.1.1,0,0,1-.025.143.1.1,0,0,1-.142-.012l-.892-1.192-.237-.317Z" fill="#ac273d" fill-rule="evenodd"/>
            <path id="Trazado_101372" data-name="Trazado 101372" d="M900.268,6072.081l.1.211.727,1.493a.107.107,0,0,1-.049.139.1.1,0,0,1-.135-.036l-.727-1.493-.1-.208Z" fill="#ac273d" fill-rule="evenodd"/>
            <path id="Trazado_101373" data-name="Trazado 101373" d="M901.35,6071.437c.061.109.123.217.184.325l.817,1.436a.106.106,0,0,1-.041.14.1.1,0,0,1-.138-.028l-.816-1.435q-.094-.165-.186-.328Z" fill="#ac273d" fill-rule="evenodd"/>
            <path id="Trazado_101374" data-name="Trazado 101374" d="M902.519,6070.7l.165.291.813,1.43a.107.107,0,0,1-.041.14.1.1,0,0,1-.137-.028l-.814-1.43-.163-.288Z" fill="#ac273d" fill-rule="evenodd"/>
            <path id="Trazado_101375" data-name="Trazado 101375" d="M903.665,6069.931l.147.258.806,1.418a.108.108,0,0,1-.041.141.1.1,0,0,1-.137-.029l-.807-1.418-.142-.251Z" fill="#ac273d" fill-rule="evenodd"/>
            <path id="Trazado_101376" data-name="Trazado 101376" d="M894.758,6074.8l.094.248.583,1.527a.11.11,0,0,1-.06.135.094.094,0,0,1-.131-.048l-.582-1.526-.1-.257Z" fill="#ac273d" fill-rule="evenodd"/>
            <path id="Trazado_101377" data-name="Trazado 101377" d="M895.8,6074.358l.066.135.719,1.476a.109.109,0,0,1-.05.139.1.1,0,0,1-.135-.037l-.718-1.476-.075-.152Z" fill="#ac273d" fill-rule="evenodd"/>
            <path id="Trazado_101378" data-name="Trazado 101378" d="M897.059,6073.78l.072.147.722,1.484a.108.108,0,0,1-.049.139.1.1,0,0,1-.135-.036l-.723-1.484-.077-.159Z" fill="#ac273d" fill-rule="evenodd"/>
            <path id="Trazado_101379" data-name="Trazado 101379" d="M898.29,6073.165l.082.167.726,1.491a.108.108,0,0,1-.049.139.1.1,0,0,1-.135-.036l-.727-1.491-.084-.173Z" fill="#ac273d" fill-rule="evenodd"/>
            <path id="Trazado_101380" data-name="Trazado 101380" d="M888.751,6076.618l.048.226.311,1.471a.112.112,0,0,1-.078.127.092.092,0,0,1-.12-.067l-.312-1.471-.053-.25Z" fill="#ac273d" fill-rule="evenodd"/>
            <path id="Trazado_101381" data-name="Trazado 101381" d="M889.9,6076.38l.035.112.462,1.464a.109.109,0,0,1-.067.132.093.093,0,0,1-.127-.054l-.462-1.465-.045-.143Z" fill="#ac273d" fill-rule="evenodd"/>
            <path id="Trazado_101382" data-name="Trazado 101382" d="M891.235,6076.034l.075.238.473,1.5a.109.109,0,0,1-.067.132.093.093,0,0,1-.127-.054l-.473-1.5-.082-.259Z" fill="#ac273d" fill-rule="evenodd"/>
            <path id="Trazado_101383" data-name="Trazado 101383" d="M892.4,6075.674l.029.075.566,1.488a.108.108,0,0,1-.06.135.094.094,0,0,1-.131-.047l-.566-1.488-.037-.1Z" fill="#ac273d" fill-rule="evenodd"/>
            <path id="Trazado_101384" data-name="Trazado 101384" d="M886.527,6076.888l.281,1.335a.114.114,0,0,1-.079.127.093.093,0,0,1-.12-.067l-.291-1.384Z" fill="#ac273d" fill-rule="evenodd"/>
            <path id="Trazado_101385" data-name="Trazado 101385" d="M887.712,6076.778c.036.177.074.357.113.541.078.362.142.67.205.976.068.329.137.658.193.924a.11.11,0,0,1-.078.126.092.092,0,0,1-.12-.066c-.075-.351-.135-.639-.194-.925-.072-.345-.143-.687-.2-.975-.04-.188-.081-.38-.121-.576Z" fill="#ac273d" fill-rule="evenodd"/>
            <path id="Trazado_101386" data-name="Trazado 101386" d="M893.656,6075.234q.125.33.248.652c.133.346.258.675.382,1s.255.676.378,1a.109.109,0,0,1-.061.135.094.094,0,0,1-.13-.047c-.132-.343-.255-.67-.378-1s-.257-.681-.381-1c-.087-.224-.171-.446-.254-.667Z" fill="#ac273d" fill-rule="evenodd"/>
            <path id="Trazado_101387" data-name="Trazado 101387" d="M899.343,6072.6c.1.212.21.434.327.672.164.335.322.662.48.989s.322.666.48.989a.108.108,0,0,1-.049.139.1.1,0,0,1-.135-.036c-.165-.335-.323-.663-.481-.99s-.322-.666-.48-.988c-.1-.207-.212-.435-.327-.674Z" fill="#ac273d" fill-rule="evenodd"/>
            <path id="Trazado_101388" data-name="Trazado 101388" d="M904.711,6069.189q.24.374.486.747c.194.3.39.6.587.9s.382.591.577.888a.105.105,0,0,1-.034.141.1.1,0,0,1-.139-.02c-.192-.293-.385-.591-.578-.888s-.388-.6-.587-.9q-.242-.369-.484-.744Z" fill="#ac273d" fill-rule="evenodd"/>
            <path id="Trazado_101389" data-name="Trazado 101389" d="M909.9,6064.786c.189.22.374.434.544.629.24.275.437.5.63.728l.633.732a.1.1,0,0,1-.016.143.1.1,0,0,1-.142,0c-.246-.282-.439-.506-.635-.733-.226-.263-.448-.52-.629-.727l-.536-.62Z" fill="#ac273d" fill-rule="evenodd"/>
            <path id="Trazado_101390" data-name="Trazado 101390" d="M914.149,6059.487c.136.158.275.322.414.486.166.195.332.391.512.6a.1.1,0,0,1-.017.144.1.1,0,0,1-.143,0c-.163-.189-.337-.394-.512-.6-.122-.144-.244-.288-.37-.434C914.073,6059.614,914.111,6059.55,914.149,6059.487Z" fill="#ac273d" fill-rule="evenodd"/>
            <path id="Trazado_101391" data-name="Trazado 101391" d="M910.758,6063.9l.059.068.925,1.068a.1.1,0,0,1-.017.143.1.1,0,0,1-.142,0l-.925-1.067-.046-.054Z" fill="#ac273d" fill-rule="evenodd"/>
          </g>
        </g>
        <g id="Grupo_53839" data-name="Grupo 53839">
          <path id="Trazado_101392" data-name="Trazado 101392" d="M934.575,5970.579a8.566,8.566,0,0,1,5.14,15.418,11.487,11.487,0,0,0-10.279,0,8.566,8.566,0,0,1,5.139-15.418Z" fill="#e79c75" fill-rule="evenodd"/>
          <path id="Trazado_101393" data-name="Trazado 101393" d="M934.575,5970.579a8.541,8.541,0,0,1,6.394,2.867,9.135,9.135,0,0,1-3.129,11.794,11.65,11.65,0,0,0-3.265-.457,11,11,0,0,0-5.139,1.214,8.566,8.566,0,0,1,5.139-15.418Z" fill="#ebae92" fill-rule="evenodd"/>
          <path id="Trazado_101394" data-name="Trazado 101394" d="M934.575,5984.783c4.011,0,7.378,1.953,8.309,4.59-2.679.089-5.458.136-8.309.136s-5.63-.047-8.308-.136C927.2,5986.736,930.565,5984.783,934.575,5984.783Z" fill="#e79c75" fill-rule="evenodd"/>
          <path id="Trazado_101395" data-name="Trazado 101395" d="M942.9,5989.423c-2.458,10.489,4.027,13.292,10.387,15.518,6.434,2.253,9.016,2.325,11.241,8.67.666,1.9.43,2.133-.917,3.637-2.3,2.569-4.619,7.286-5.977,11.777-2.253,8.4-8.954,15.279-8.189,25.45.864,11.486,7.247,15.106,9.641,26.587,1.342,6.436,1.971,15.341.818,29.487-11.06,6.4-39.589,6.4-50.649,0-1.2-14.74-.469-23.791.99-30.286,2.439-10.857,8.625-14.573,9.469-25.788.765-10.171-5.936-17.054-8.189-25.45-1.359-4.491-3.678-9.208-5.977-11.777-1.348-1.5-1.583-1.739-.918-3.637,2.226-6.345,4.808-6.417,11.242-8.67,6.36-2.226,12.845-5.029,10.387-15.518Z" fill="#ebae92" fill-rule="evenodd"/>
          <path id="Trazado_101396" data-name="Trazado 101396" d="M939.3,6115.169v7.851h-9.443v-7.851A62.206,62.206,0,0,0,939.3,6115.169Z" fill="#e58f60" fill-rule="evenodd"/>
          <path id="Trazado_101397" data-name="Trazado 101397" d="M939.3,6115.169v3.4a62.206,62.206,0,0,1-9.443,0v-3.4A62.206,62.206,0,0,0,939.3,6115.169Z" fill="#cd7e58" fill-rule="evenodd"/>
          <rect id="Rectngulo_5220" data-name="Rectngulo 5220" width="3.8" height="43.497" transform="translate(932.675 6123.021)" fill="#e58f60"/>
          <path id="Trazado_101398" data-name="Trazado 101398" d="M936.463,6166.517c2.147,1.133,3.682,4.142,3.682,7.676,0,3.172-1.236,5.921-3.041,7.27h-5.058c-1.8-1.349-3.04-4.1-3.04-7.27,0-3.534,1.535-6.543,3.682-7.676Z" fill="#cd7e58" fill-rule="evenodd"/>
          <path id="Trazado_101399" data-name="Trazado 101399" d="M931.147,6180.623a9.884,9.884,0,0,1-2.141-6.43c0-3.534,1.535-6.543,3.682-7.676h3.2a9.637,9.637,0,0,1,1.916,5.947c0,4.523-2.745,8.189-6.13,8.189A4.652,4.652,0,0,1,931.147,6180.623Z" fill="#e58f60" fill-rule="evenodd"/>
          <path id="Trazado_101400" data-name="Trazado 101400" d="M911.2,6195.2h2.924c4.3,0,13.683-.153,16.338-7.169h8.233c2.655,7.016,12.041,7.169,16.338,7.169h2.923a3.7,3.7,0,0,1,3.644,3.741v.885a3.782,3.782,0,0,1-.026.442H907.58a3.782,3.782,0,0,1-.026-.442v-.885A3.7,3.7,0,0,1,911.2,6195.2Z" fill="#cd7e58" fill-rule="evenodd"/>
          <path id="Trazado_101401" data-name="Trazado 101401" d="M929.416,6190.017a9.09,9.09,0,0,0,1.043-1.985h8.233a9.09,9.09,0,0,0,1.043,1.985Z" fill="#ba7051" fill-rule="evenodd"/>
          <path id="Trazado_101402" data-name="Trazado 101402" d="M911.2,6195.2h2.924c4.3,0,13.683-.153,16.338-7.169h6.826c-1.558,5.139-5.892,9.513-11.792,12.237H907.58a3.782,3.782,0,0,1-.026-.442v-.885A3.7,3.7,0,0,1,911.2,6195.2Z" fill="#e58f60" fill-rule="evenodd"/>
          <path id="Trazado_101403" data-name="Trazado 101403" d="M929.416,6190.017a9.09,9.09,0,0,0,1.043-1.985h6.826a15.483,15.483,0,0,1-.756,1.985Z" fill="#d8865c" fill-rule="evenodd"/>
          <path id="Trazado_101404" data-name="Trazado 101404" d="M930.9,6181.463h7.355a2.945,2.945,0,0,1,2.921,2.952v.7a2.945,2.945,0,0,1-2.921,2.952H930.9a2.945,2.945,0,0,1-2.921-2.952v-.7A2.945,2.945,0,0,1,930.9,6181.463Z" fill="#cd7e58" fill-rule="evenodd"/>
          <path id="Trazado_101405" data-name="Trazado 101405" d="M930.9,6181.463h7.355c.075,0,.149,0,.223.009a2.344,2.344,0,0,1,1.1,1.788c0,2.144-4.382,3.882-9.789,3.882-.345,0-.687-.007-1.024-.021a2.958,2.958,0,0,1-.784-2.008v-.7A2.945,2.945,0,0,1,930.9,6181.463Z" fill="#e58f60" fill-rule="evenodd"/>
          <rect id="Rectngulo_5221" data-name="Rectngulo 5221" width="3.8" height="4.337" transform="translate(932.675 6123.021)" fill="#cd7e58"/>
          <rect id="Rectngulo_5222" data-name="Rectngulo 5222" width="1.334" height="25.038" transform="translate(933.358 6141.479)" fill="#e9a480"/>
          <path id="Trazado_101406" data-name="Trazado 101406" d="M933.332,6167.295c1.125,0,1.881,1.643,1.689,3.67s-1.258,3.669-2.383,3.669-1.88-1.643-1.689-3.669S932.208,6167.295,933.332,6167.295Z" fill="#e9a480" fill-rule="evenodd"/>
          <circle id="Elipse_3989" data-name="Elipse 3989" cx="4.99" cy="4.99" r="4.99" transform="matrix(0.851, -0.526, 0.526, 0.851, 926.217, 5975.085)" fill="#e9bba3"/>
          <path id="Trazado_101407" data-name="Trazado 101407" d="M945.93,6114.269a60.929,60.929,0,0,1-11.583,1.079c-8.383-.025-18.46-1.426-23.992-4.205l-.081-.041q-.211-.107-.418-.218l-.127-.068c-.162-.088-.322-.177-.478-.267-1.2-14.7-.473-23.739.978-30.23,2.436-10.9,8.636-14.609,9.481-25.844.765-10.171-5.936-17.054-8.189-25.45-1.359-4.491-3.678-9.208-5.977-11.777-1.348-1.5-1.583-1.739-.918-3.637,2.226-6.345,4.808-6.417,11.242-8.67,6.36-2.226,12.845-5.029,10.387-15.518h6.595c-1.124,4.274-2.4,12.624.053,16.382,1.093,1.676,3.1,2.936,6.776,3.74,13.389,2.927,6.417,21.714,2.936,29.954-5.051,11.958-7.005,22.083-5.594,33.716C938.619,6086.4,947.711,6092.446,945.93,6114.269Z" fill="#e9bba3" fill-rule="evenodd"/>
        </g>
        <g id="Grupo_53841" data-name="Grupo 53841">
          <path id="Trazado_101408" data-name="Trazado 101408" d="M909.922,6134.034c-.671-8.223-1.618-18.314-2.178-28.312l.01-.005a133.072,133.072,0,0,1-.161-13.411,70.167,70.167,0,0,1,1.509-12.238,37.118,37.118,0,0,1,2.612-7.6c.958-2.06,2.07-4.026,3.122-6.036a29.024,29.024,0,0,0,3.723-12.044c.329-4.377-.8-8.2-2.559-12.156-1.352-3.033-2.979-5.95-4.249-9.019l-.16-.528a16.6,16.6,0,0,0,1.614-10.4c-.787-5.807-3.8-10.806-7.466-13.055,2.12-2.926,4.937-3.5,9.361-5.025,3.905,3.86,11.164,6.453,19.475,6.453s15.571-2.593,19.476-6.453c2.047.7,3.751,1.206,5.2,1.832a9.24,9.24,0,0,1,3.99,3.3c-3.586,2.3-6.52,7.232-7.3,12.948a16.981,16.981,0,0,0,1.353,9.916c-1.315,3.443-3.152,6.665-4.652,10.029-1.762,3.952-2.888,7.779-2.558,12.156a29.008,29.008,0,0,0,3.722,12.044c1.052,2.01,2.165,3.976,3.122,6.036a37.476,37.476,0,0,1,2.329,6.43H934.575v61.055c-9.1-.008-18.311-1.779-24.184-5.178l-.429-.248Z" fill="#e55b59" fill-rule="evenodd"/>
          <path id="Trazado_101409" data-name="Trazado 101409" d="M911.751,6033.213h0l-.006-.019-.154-.509a16.6,16.6,0,0,0,1.614-10.4c-.787-5.807-3.8-10.806-7.466-13.055,2.12-2.926,4.937-3.5,9.361-5.025,3.905,3.86,11.164,6.453,19.475,6.453h.393c.121,0,.242,0,.363-.005h.043l.337-.008h.044l.36-.012h.016c.119,0,.238-.01.356-.016l.038,0,.324-.017.067,0,.3-.019.074,0,.316-.024.058,0,.295-.025.1-.009c.085-.007.17-.015.255-.024l.136-.013.231-.024.134-.014.245-.028.13-.016.2-.024.2-.026.13-.017.24-.034.03,0,.111-.016.019,0,.2-.029h0l.11-.017.026,0,.194-.031.11-.017.015,0c.213-.035.426-.072.637-.111l.107-.02.216-.041.107-.021c5.226,5.267,8.9,11.168,7.062,16.122-.853,2.3-3.93,4.494-5.381,6.038-12.62,13.419-14.547,30.713-5.056,46.771h-3.9v61.055h-.43c-8.957-.064-17.973-1.832-23.754-5.177l-.429-.248-.04-.493c-.671-8.223-1.618-18.314-2.178-28.312l.01-.005a133.072,133.072,0,0,1-.161-13.411,70.167,70.167,0,0,1,1.509-12.238,37.118,37.118,0,0,1,2.612-7.6c.958-2.06,2.07-4.026,3.122-6.036a29.024,29.024,0,0,0,3.723-12.044c.329-4.377-.8-8.2-2.559-12.156C914.648,6039.2,913.021,6036.282,911.751,6033.213Z" fill="#e86b6a" fill-rule="evenodd"/>
          <g id="Grupo_53840" data-name="Grupo 53840">
            <path id="Trazado_101410" data-name="Trazado 101410" d="M934.829,6011.757a.254.254,0,0,0-.507-.011v2.548a.254.254,0,0,0,.507.012v-2.549ZM934.322,6078a.254.254,0,0,0,.507.011V6076.7a.254.254,0,0,0-.507-.012V6078Zm0-2.82a.254.254,0,0,0,.507.012v-2.549a.254.254,0,0,0-.507-.011v2.548Zm0-4.059a.254.254,0,0,0,.507.012v-2.549a.254.254,0,0,0-.507-.011v2.548Zm0-4.059a.254.254,0,0,0,.507.012v-2.549a.254.254,0,0,0-.507-.011v2.548Zm0-4.059a.254.254,0,0,0,.507.011v-2.548a.254.254,0,0,0-.507-.012V6063Zm0-4.059a.254.254,0,0,0,.507.011v-2.548a.254.254,0,0,0-.507-.012v2.549Zm0-4.059a.254.254,0,0,0,.507.011v-2.548a.254.254,0,0,0-.507-.012v2.549Zm0-4.06a.254.254,0,0,0,.507.012v-2.549a.254.254,0,0,0-.507-.011v2.548Zm0-4.059a.254.254,0,0,0,.507.012v-2.549a.254.254,0,0,0-.507-.011v2.548Zm0-4.059a.254.254,0,0,0,.507.012v-2.549a.254.254,0,0,0-.507-.011v2.548Zm0-4.059a.254.254,0,0,0,.507.011v-2.548a.254.254,0,0,0-.507-.012v2.549Zm0-4.059a.254.254,0,0,0,.507.011v-2.548a.254.254,0,0,0-.507-.012v2.549Zm0-4.059a.254.254,0,0,0,.507.011v-2.548a.254.254,0,0,0-.507-.012v2.549Zm0-4.06a.254.254,0,0,0,.507.012v-2.549a.254.254,0,0,0-.507-.011v2.548Zm0-4.059a.254.254,0,0,0,.507.012v-2.549a.254.254,0,0,0-.507-.011v2.548Zm0-4.059a.254.254,0,0,0,.507.012v-2.549a.254.254,0,0,0-.507-.011Z" fill="#9f3432" fill-rule="evenodd"/>
            <path id="Trazado_101411" data-name="Trazado 101411" d="M913.045,6028.294a.254.254,0,0,0,.086.5c.834-.148,1.663-.3,2.5-.436a.254.254,0,0,0-.029-.5.322.322,0,0,0-.053,0q-1.255.2-2.505.437Zm42.905.487a.254.254,0,0,0,.121-.493c-.778-.188-1.732-.311-2.533-.441a.254.254,0,0,0-.08.5c.832.134,1.664.276,2.492.433Zm-3.993-.662a.253.253,0,0,0,.077-.5c-.841-.123-1.683-.232-2.526-.335a.251.251,0,0,0-.173.042.254.254,0,0,0,.113.462c.838.1,1.673.212,2.509.332Zm-4.018-.5a.254.254,0,0,0,.1-.494.263.263,0,0,0-.048-.01c-.844-.077-1.686-.169-2.531-.243a.254.254,0,0,0-.048.5c.844.07,1.683.166,2.525.242Zm-4.035-.361a.253.253,0,0,0,.044-.5c-.847-.067-1.7-.11-2.544-.159a.254.254,0,1,0-.026.507c.842.054,1.684.1,2.526.157Zm-4.044-.227a.254.254,0,0,0,.08-.5.233.233,0,0,0-.06-.01c-.847-.034-1.693-.058-2.54-.077a.254.254,0,1,0-.011.507c.844.019,1.687.043,2.531.077Zm-4.05-.1a.253.253,0,0,0,.008-.507c-.849,0-1.7-.011-2.545,0a.254.254,0,0,0,0,.507c.847,0,1.692-.007,2.539,0Zm-4.051.025a.257.257,0,0,0,.169-.07.254.254,0,0,0-.18-.438c-.846.018-1.7.043-2.541.079a.254.254,0,0,0,0,.507c.838,0,1.706-.061,2.55-.078Zm-4.048.148a.253.253,0,0,0,.013-.5.219.219,0,0,0-.04,0q-1.269.063-2.537.159a.254.254,0,0,0,.014.507c.834-.027,1.708-.117,2.55-.16Zm-4.042.279a.254.254,0,0,0-.017-.507c-.8.029-1.746.159-2.556.245a.254.254,0,0,0,.054.5q1.258-.135,2.519-.243Zm-4.028.415a.254.254,0,0,0-.058-.5c-.843.106-1.683.214-2.524.336a.254.254,0,0,0,.031.5l.042,0C917.966,6028.006,918.8,6027.9,919.641,6027.794Z" fill="#9f3432" fill-rule="evenodd"/>
            <path id="Trazado_101412" data-name="Trazado 101412" d="M957.253,6081.935a.253.253,0,0,0-.088-.5c-.827.155-1.666.295-2.5.423a.254.254,0,0,0,.079.5c.837-.129,1.674-.273,2.507-.425Zm-45.264-.5a.254.254,0,0,0-.1.5c.276.053.556.1.833.148a.254.254,0,0,0,.112-.494c-.271-.06-.572-.1-.847-.152Zm2.319.4a.254.254,0,0,0-.079.5q1.257.2,2.515.37a.254.254,0,0,0,.075-.5c-.839-.118-1.674-.237-2.511-.369Zm4.011.562a.254.254,0,0,0-.1.5l.041.008q1.263.155,2.527.283a.254.254,0,0,0,.076-.5c-.817-.123-1.71-.184-2.541-.286Zm4.028.426a.253.253,0,0,0-.2.434.25.25,0,0,0,.154.071c.844.073,1.691.128,2.534.2a.254.254,0,0,0,.134-.478.275.275,0,0,0-.1-.028c-.809-.1-1.7-.129-2.524-.2Zm4.04.3a.254.254,0,0,0-.07.5.276.276,0,0,0,.041.006c.847.049,1.692.088,2.539.124a.254.254,0,0,0,.064-.5.318.318,0,0,0-.044-.006c-.844-.038-1.686-.075-2.53-.124Zm4.048.177a.254.254,0,0,0-.014.507q1.27.035,2.541.051a.254.254,0,0,0,.045-.5.264.264,0,0,0-.04,0q-1.267-.015-2.532-.05Zm4.052.059a.254.254,0,0,0-.012.507c.842.015,1.709,0,2.553-.02a.254.254,0,0,0-.009-.508q-1.266.023-2.532.021Zm4.051-.054a.253.253,0,0,0-.035.5.226.226,0,0,0,.049,0c.847-.022,1.694-.055,2.54-.094a.254.254,0,0,0-.018-.507c-.846.035-1.69.072-2.536.094Zm4.048-.172a.254.254,0,0,0,.026.507c.847-.053,1.693-.1,2.539-.169a.254.254,0,0,0,.008-.5.358.358,0,0,0-.046,0c-.841.066-1.685.121-2.527.168Zm4.041-.292a.254.254,0,0,0,0,.506h.045q1.266-.111,2.53-.248a.254.254,0,0,0-.05-.5c-.841.088-1.681.174-2.524.247Zm4.029-.419a.254.254,0,0,0,.057.5c.843-.1,1.684-.212,2.524-.333a.254.254,0,0,0-.046-.5C952.367,6082.16,951.489,6082.317,950.656,6082.416Z" fill="#9f3432" fill-rule="evenodd"/>
            <path id="Trazado_101413" data-name="Trazado 101413" d="M912.912,6008.345a.254.254,0,0,0-.4.313l.3.394q.225.3.446.6c.245.342.493.69.723,1.043a.254.254,0,1,0,.422-.281c-.187-.287-.387-.571-.584-.851l-.3-.415c-.152-.2-.3-.406-.458-.608l-.155-.2Zm11.038,128.868a.254.254,0,0,0,.508.014c0-.327.006-.671.016-1a.254.254,0,0,0-.507-.015c-.008.332-.009.666-.017,1Zm.034-2.511a.254.254,0,0,0,.508.011c.013-.847.011-1.7.022-2.544a.254.254,0,0,0-.508-.007c0,.846-.015,1.694-.022,2.54Zm.034-4.058a.254.254,0,1,0,.507,0l.017-2.537a.254.254,0,0,0-.507-.006c0,.845-.011,1.694-.017,2.54Zm.026-4.059a.254.254,0,0,0,.508.006c0-.846.01-1.694.015-2.54a.254.254,0,0,0-.507-.007c0,.847-.012,1.694-.016,2.541Zm.025-4.059a.254.254,0,0,0,.507.006c0-.846.009-1.694.015-2.54a.254.254,0,0,0-.507-.006c0,.846-.011,1.693-.015,2.54Zm.024-4.059a.254.254,0,0,0,.507.006c0-.846.01-1.694.015-2.54a.254.254,0,0,0-.507-.007c0,.847-.011,1.694-.015,2.541Zm.024-4.06a.254.254,0,0,0,.507.007c0-.846.01-1.694.016-2.54a.254.254,0,0,0-.507,0l-.016,2.537Zm.026-4.059a.254.254,0,0,0,.507.007c0-.846.011-1.694.018-2.54a.254.254,0,0,0-.507-.007c0,.846-.013,1.694-.018,2.54Zm.029-4.059a.254.254,0,0,0,.508.007c0-.845.013-1.694.024-2.539a.254.254,0,0,0-.508-.014c-.02.844-.017,1.7-.024,2.546Zm.045-4.062a.254.254,0,0,0,.507.015q.027-1.271.059-2.54a.254.254,0,0,0-.507-.014c0,.841-.045,1.695-.059,2.539Zm.094-4.059a.254.254,0,0,0,.507.013c0-.837.039-1.7.057-2.538a.254.254,0,0,0-.507-.016c-.017.847-.038,1.694-.057,2.541Zm.09-4.058a.254.254,0,0,0,.507.016l.052-2.542a.254.254,0,0,0-.507-.015l-.052,2.541Zm.081-4.057a.254.254,0,0,0,.508.009l.045-2.537a.254.254,0,0,0-.508-.013c-.017.847-.029,1.694-.045,2.541Zm.07-4.058a.254.254,0,0,0,.507.016c.021-.847.025-1.7.036-2.546a.254.254,0,0,0-.507-.014c-.021.846-.024,1.7-.036,2.544Zm.053-4.058a.254.254,0,0,0,.5.046.263.263,0,0,0,0-.04q.012-1.269.024-2.538a.254.254,0,0,0-.507-.007c0,.845-.016,1.694-.025,2.539Zm.035-4.057a.254.254,0,0,0,.507.006c0-.847.008-1.7.01-2.542a.254.254,0,0,0-.507-.009c-.011.847-.006,1.7-.01,2.545Zm.011-4.058a.254.254,0,0,0,.5.046.346.346,0,0,0,0-.046q0-1.269-.007-2.539a.254.254,0,0,0-.5-.043.342.342,0,0,0,0,.046q.006,1.269.008,2.536Zm-.018-4.057a.254.254,0,0,0,.506.023v-.027q-.011-1.271-.028-2.539a.254.254,0,0,0-.506-.018c-.029.819.02,1.73.027,2.561Zm-.052-4.057a.254.254,0,1,0,.508-.009q-.021-1.269-.052-2.538a.254.254,0,0,0-.505-.032.327.327,0,0,0,0,.044q.031,1.268.052,2.535Zm-.091-4.055a.254.254,0,0,0,.507-.015q-.035-1.269-.08-2.537a.254.254,0,0,0-.507.018q.045,1.267.08,2.534Zm-.138-4.054a.254.254,0,0,0,.508,0c-.005-.83-.073-1.722-.114-2.556a.254.254,0,0,0-.507.017c.031.846.079,1.694.113,2.54Zm-.191-4.05a.253.253,0,0,0,.506-.025c-.053-.846-.1-1.693-.152-2.539a.254.254,0,0,0-.507.022c.038.843.106,1.7.153,2.542Zm-.256-4.047a.254.254,0,0,0,.506-.006v-.031q-.09-1.266-.2-2.533a.254.254,0,0,0-.506.018c.029.822.138,1.72.2,2.552Zm-.329-4.041a.254.254,0,0,0,.505-.047q-.117-1.265-.25-2.528a.254.254,0,0,0-.505,0,.31.31,0,0,0,0,.053q.133,1.26.25,2.521Zm-.417-4.031a.254.254,0,0,0,.505-.056c-.106-.842-.2-1.684-.313-2.526a.25.25,0,0,0-.089-.161.254.254,0,0,0-.414.229c.117.834.214,1.677.311,2.514Zm-.518-4.019a.254.254,0,0,0,.505-.031l0-.042q-.18-1.258-.385-2.513a.254.254,0,0,0-.5.081c.153.817.266,1.68.384,2.505Zm-.638-4a.253.253,0,1,0,.5-.088q-.219-1.252-.472-2.5a.254.254,0,0,0-.5.07l0,.031q.249,1.239.47,2.486Zm-.781-3.972a.253.253,0,0,0,.495-.109q-.271-1.244-.575-2.478a.254.254,0,0,0-.5.1c.163.816.4,1.665.577,2.488Zm-.951-3.934a.254.254,0,0,0,.495-.109c-.178-.8-.466-1.683-.705-2.47a.254.254,0,0,0-.486.148c.245.807.479,1.617.7,2.431Zm-1.154-3.875a.254.254,0,0,0,.483-.155c-.265-.808-.552-1.612-.853-2.407a.253.253,0,0,0-.475.176c.3.791.577,1.584.845,2.386Zm-1.4-3.791a.254.254,0,0,0,.482-.152.312.312,0,0,0-.013-.041c-.322-.787-.669-1.563-1.031-2.332a.253.253,0,0,0-.458.217c.358.762.7,1.529,1.02,2.308Zm-1.693-3.663a.254.254,0,0,0,.45-.234c-.391-.756-.806-1.5-1.246-2.229a.254.254,0,0,0-.453.224.383.383,0,0,0,.02.041C915.23,6012.689,915.641,6013.434,916.024,6014.175Z" fill="#9f3432" fill-rule="evenodd"/>
            <path id="Trazado_101414" data-name="Trazado 101414" d="M956.638,6008.658a.254.254,0,0,0-.39-.324,24.592,24.592,0,0,0-1.505,2.084.254.254,0,0,0,.4.307l.019-.026c.462-.7.957-1.379,1.473-2.041Zm-12.613,72.009a.254.254,0,0,0,.506.026v-.031l-.011-1.261a.254.254,0,0,0-.507,0c0,.423.007.847.011,1.269Zm-.022-2.785a.254.254,0,0,0,.5.044.342.342,0,0,0,0-.046q-.008-1.269-.01-2.536a.254.254,0,0,0-.506-.027v.027q0,1.269.009,2.538Zm-.01-4.06a.254.254,0,0,0,.507.008c.011-.846,0-1.7.008-2.544a.254.254,0,0,0-.508-.006c0,.847-.007,1.694-.007,2.542Zm.018-4.061a.254.254,0,0,0,.507.007c0-.844.015-1.694.028-2.538a.254.254,0,0,0-.507-.016c-.021.843-.028,1.7-.028,2.547Zm.051-4.062a.254.254,0,0,0,.507.014c.018-.846.032-1.693.052-2.54a.254.254,0,0,0-.5-.07.27.27,0,0,0-.008.058q-.03,1.269-.052,2.538Zm.091-4.061a.254.254,0,0,0,.508.015q.035-1.267.08-2.534a.254.254,0,0,0-.5-.086.3.3,0,0,0-.011.068q-.045,1.269-.081,2.537Zm.138-4.06a.254.254,0,0,0,.505.047l0-.026q.053-1.266.113-2.532a.254.254,0,0,0-.481-.124.25.25,0,0,0-.025.1q-.063,1.268-.114,2.536Zm.193-4.058a.254.254,0,0,0,.5.07c0-.014,0-.027.005-.041q.069-1.266.152-2.53a.254.254,0,0,0-.5-.077.3.3,0,0,0-.006.043q-.084,1.268-.152,2.535Zm.256-4.055a.254.254,0,0,0,.506.04c.052-.842.126-1.689.2-2.53a.253.253,0,1,0-.505-.042c-.071.842-.141,1.688-.2,2.532Zm.33-4.051a.254.254,0,0,0,.505.047c.076-.839.155-1.684.249-2.521a.254.254,0,0,0-.493-.106.3.3,0,0,0-.011.052c-.091.841-.174,1.686-.25,2.528Zm.418-4.043a.254.254,0,0,0,.5.065c.1-.84.2-1.68.311-2.52a.254.254,0,0,0-.5-.071c-.1.843-.215,1.682-.312,2.526Zm.519-4.033a.254.254,0,0,0,.5.077c.122-.837.248-1.672.384-2.507a.253.253,0,1,0-.5-.082q-.206,1.254-.386,2.512Zm.641-4.017a.254.254,0,0,0,.486.14.421.421,0,0,0,.014-.051c.148-.83.3-1.66.47-2.486a.254.254,0,0,0-.457-.195.24.24,0,0,0-.041.094c-.168.83-.323,1.664-.472,2.5Zm.785-3.992a.254.254,0,0,0,.5.108c.177-.822.368-1.647.572-2.463a.254.254,0,1,0-.492-.123c-.2.821-.4,1.65-.576,2.478Zm.957-3.957a.25.25,0,0,0,.064.244.254.254,0,0,0,.426-.111c.218-.812.445-1.628.7-2.431a.254.254,0,0,0-.466-.194.374.374,0,0,0-.019.044c-.249.811-.48,1.628-.7,2.448Zm1.163-3.9a.254.254,0,0,0,.48.164c.258-.8.548-1.6.845-2.385a.254.254,0,0,0-.475-.18q-.45,1.192-.85,2.4Zm1.412-3.824a.254.254,0,0,0,.463.208c.347-.776.658-1.549,1.026-2.321a.254.254,0,0,0-.453-.228c-.374.747-.716,1.568-1.036,2.341Zm1.712-3.7a.254.254,0,0,0,.449.236c.39-.748.8-1.478,1.231-2.2a.254.254,0,0,0-.434-.263C953.482,6012.444,953.071,6013.183,952.677,6013.94Z" fill="#9f3432" fill-rule="evenodd"/>
          </g>
        </g>
        <g id="Grupo_53843" data-name="Grupo 53843">
          <path id="Trazado_101415" data-name="Trazado 101415" d="M914.789,6051.549h39.683a11.923,11.923,0,0,0,.012,3.551H914.776a11.973,11.973,0,0,0,.013-3.551Z" fill="#fab433" fill-rule="evenodd"/>
          <path id="Trazado_101416" data-name="Trazado 101416" d="M914.789,6051.549H953.05a.622.622,0,0,1,.02.148c0,1.35-4.512,2.564-11.691,3.4h-26.6a11.973,11.973,0,0,0,.013-3.551Z" fill="#fcc846" fill-rule="evenodd"/>
          <g id="Grupo_53842" data-name="Grupo 53842">
            <path id="Trazado_101417" data-name="Trazado 101417" d="M915.99,6051.549v1.823a.1.1,0,0,1-.2,0v-1.823Z" fill="#ac273d" fill-rule="evenodd"/>
            <path id="Trazado_101418" data-name="Trazado 101418" d="M922.246,6051.549v1.823a.1.1,0,0,1-.2,0v-1.823Z" fill="#ac273d" fill-rule="evenodd"/>
            <path id="Trazado_101419" data-name="Trazado 101419" d="M928.516,6051.549v1.823a.1.1,0,0,1-.2,0v-1.823Z" fill="#ac273d" fill-rule="evenodd"/>
            <path id="Trazado_101420" data-name="Trazado 101420" d="M934.771,6051.549v1.823a.1.1,0,1,1-.2,0v-1.823Z" fill="#ac273d" fill-rule="evenodd"/>
            <path id="Trazado_101421" data-name="Trazado 101421" d="M941.056,6051.549v1.823a.1.1,0,0,1-.2,0v-1.823Z" fill="#ac273d" fill-rule="evenodd"/>
            <path id="Trazado_101422" data-name="Trazado 101422" d="M947.312,6051.549v1.823a.1.1,0,0,1-.2,0v-1.823Z" fill="#ac273d" fill-rule="evenodd"/>
            <path id="Trazado_101423" data-name="Trazado 101423" d="M953.553,6051.549v1.823a.1.1,0,0,1-.2,0v-1.823Z" fill="#ac273d" fill-rule="evenodd"/>
            <path id="Trazado_101424" data-name="Trazado 101424" d="M917.128,6051.549v1.044a.1.1,0,1,1-.2,0v-1.044Z" fill="#ac273d" fill-rule="evenodd"/>
            <path id="Trazado_101425" data-name="Trazado 101425" d="M918.451,6051.549v1.044a.1.1,0,1,1-.2,0v-1.044Z" fill="#ac273d" fill-rule="evenodd"/>
            <path id="Trazado_101426" data-name="Trazado 101426" d="M919.777,6051.549v1.044a.1.1,0,1,1-.2,0v-1.044Z" fill="#ac273d" fill-rule="evenodd"/>
            <path id="Trazado_101427" data-name="Trazado 101427" d="M921.1,6051.549v1.044a.1.1,0,1,1-.2,0v-1.044Z" fill="#ac273d" fill-rule="evenodd"/>
            <path id="Trazado_101428" data-name="Trazado 101428" d="M923.267,6051.549v1.044a.1.1,0,1,1-.2,0v-1.044Z" fill="#ac273d" fill-rule="evenodd"/>
            <path id="Trazado_101429" data-name="Trazado 101429" d="M924.59,6051.549v1.044a.1.1,0,1,1-.2,0v-1.044Z" fill="#ac273d" fill-rule="evenodd"/>
            <path id="Trazado_101430" data-name="Trazado 101430" d="M925.915,6051.549v1.044a.1.1,0,1,1-.2,0v-1.044Z" fill="#ac273d" fill-rule="evenodd"/>
            <path id="Trazado_101431" data-name="Trazado 101431" d="M927.238,6051.549v1.044a.1.1,0,1,1-.2,0v-1.044Z" fill="#ac273d" fill-rule="evenodd"/>
            <path id="Trazado_101432" data-name="Trazado 101432" d="M929.654,6051.549v1.044a.1.1,0,1,1-.2,0v-1.044Z" fill="#ac273d" fill-rule="evenodd"/>
            <path id="Trazado_101433" data-name="Trazado 101433" d="M930.977,6051.549v1.044a.1.1,0,1,1-.2,0v-1.044Z" fill="#ac273d" fill-rule="evenodd"/>
            <path id="Trazado_101434" data-name="Trazado 101434" d="M932.3,6051.549v1.044a.1.1,0,1,1-.2,0v-1.044Z" fill="#ac273d" fill-rule="evenodd"/>
            <path id="Trazado_101435" data-name="Trazado 101435" d="M933.626,6051.549v1.044a.1.1,0,1,1-.2,0v-1.044Z" fill="#ac273d" fill-rule="evenodd"/>
            <path id="Trazado_101436" data-name="Trazado 101436" d="M935.793,6051.549v1.044a.1.1,0,1,1-.2,0v-1.044Z" fill="#ac273d" fill-rule="evenodd"/>
            <path id="Trazado_101437" data-name="Trazado 101437" d="M937.116,6051.549v1.044a.1.1,0,1,1-.2,0v-1.044Z" fill="#ac273d" fill-rule="evenodd"/>
            <path id="Trazado_101438" data-name="Trazado 101438" d="M938.441,6051.549v1.044a.1.1,0,1,1-.2,0v-1.044Z" fill="#ac273d" fill-rule="evenodd"/>
            <path id="Trazado_101439" data-name="Trazado 101439" d="M939.764,6051.549v1.044a.1.1,0,1,1-.2,0v-1.044Z" fill="#ac273d" fill-rule="evenodd"/>
            <path id="Trazado_101440" data-name="Trazado 101440" d="M942.356,6051.549v1.044a.1.1,0,1,1-.2,0v-1.044Z" fill="#ac273d" fill-rule="evenodd"/>
            <path id="Trazado_101441" data-name="Trazado 101441" d="M943.679,6051.549v1.044a.1.1,0,1,1-.2,0v-1.044Z" fill="#ac273d" fill-rule="evenodd"/>
            <path id="Trazado_101442" data-name="Trazado 101442" d="M945.005,6051.549v1.044a.1.1,0,1,1-.2,0v-1.044Z" fill="#ac273d" fill-rule="evenodd"/>
            <path id="Trazado_101443" data-name="Trazado 101443" d="M946.328,6051.549v1.044a.1.1,0,1,1-.2,0v-1.044Z" fill="#ac273d" fill-rule="evenodd"/>
            <path id="Trazado_101444" data-name="Trazado 101444" d="M948.494,6051.549v1.044a.1.1,0,1,1-.2,0v-1.044Z" fill="#ac273d" fill-rule="evenodd"/>
            <path id="Trazado_101445" data-name="Trazado 101445" d="M949.817,6051.549v1.044a.1.1,0,1,1-.2,0v-1.044Z" fill="#ac273d" fill-rule="evenodd"/>
            <path id="Trazado_101446" data-name="Trazado 101446" d="M951.143,6051.549v1.044a.1.1,0,1,1-.2,0v-1.044Z" fill="#ac273d" fill-rule="evenodd"/>
            <path id="Trazado_101447" data-name="Trazado 101447" d="M952.466,6051.549v1.044a.1.1,0,1,1-.2,0v-1.044Z" fill="#ac273d" fill-rule="evenodd"/>
          </g>
        </g>
      </g>
    </g>
  </g>
</svg>
