<svg xmlns="http://www.w3.org/2000/svg" width="1227" height="546" viewBox="0 0 1227 546">
  <g id="Grupo_54818" data-name="Grupo 54818" transform="translate(-181 -2987.615)">
    <rect id="Rectángulo_5228" data-name="Rectángulo 5228" width="1227" height="546" rx="10" transform="translate(181 2987.615)" fill="#cff0ef"/>
    <g id="Grupo_53882" data-name="Grupo 53882" transform="translate(169.357 -4294.909)">
      <g id="Grupo_53879" data-name="Grupo 53879">
        <path id="Trazado_101506" data-name="Trazado 101506" d="M744.531,7347.31l49.361,52.044s-86.134,155.594-217.44,181.347-312.45.537-465.732-50.434l14.653-76.724s136.279,51.507,332.113,59.555c0,0,104.088,9.658,173.837-39.7S744.531,7347.31,744.531,7347.31Z" fill="#fff" stroke="#056260" stroke-miterlimit="10" stroke-width="3"/>
        <circle id="Elipse_4005" data-name="Elipse 4005" cx="5.984" cy="5.984" r="5.984" transform="translate(738.278 7341.326)" fill="#056260"/>
        <circle id="Elipse_4006" data-name="Elipse 4006" cx="5.984" cy="5.984" r="5.984" transform="translate(787.908 7393.369)" fill="#056260"/>
        <circle id="Elipse_4007" data-name="Elipse 4007" cx="4.232" cy="4.232" r="4.232" transform="translate(703.413 7506.52)" fill="#056260"/>
        <circle id="Elipse_4008" data-name="Elipse 4008" cx="4.232" cy="4.232" r="4.232" transform="translate(661.161 7442.136)" fill="#056260"/>
        <circle id="Elipse_4009" data-name="Elipse 4009" cx="4.232" cy="4.232" r="4.232" transform="translate(567.989 7496.258)" fill="#056260"/>
        <circle id="Elipse_4010" data-name="Elipse 4010" cx="4.232" cy="4.232" r="4.232" transform="translate(587.304 7572.513)" fill="#056260"/>
        <circle id="Elipse_4011" data-name="Elipse 4011" cx="4.232" cy="4.232" r="4.232" transform="translate(452.306 7587.603)" fill="#056260"/>
        <circle id="Elipse_4012" data-name="Elipse 4012" cx="4.232" cy="4.232" r="4.232" transform="translate(453.284 7507.928)" fill="#056260"/>
        <circle id="Elipse_4013" data-name="Elipse 4013" cx="4.232" cy="4.232" r="4.232" transform="translate(104.807 7526.841)" fill="#056260"/>
        <circle id="Elipse_4014" data-name="Elipse 4014" cx="4.232" cy="4.232" r="4.232" transform="translate(120.5 7449.982)" fill="#056260"/>
        <circle id="Elipse_4015" data-name="Elipse 4015" cx="4.232" cy="4.232" r="4.232" transform="translate(172.812 7546.558)" fill="#056260"/>
        <path id="Trazado_101507" data-name="Trazado 101507" d="M453.284,7527.853l-.342,47.869,2.515-4.979" fill="none" stroke="#056260" stroke-miterlimit="10" stroke-width="1"/>
        <text id="pret_Anat." data-name="pret Anat." transform="matrix(0.353, 0.936, -0.936, 0.353, 610.687, 7493.552)" fill="#056260" font-size="15.137" font-family="Roboto-Regular, Roboto"><tspan x="0" y="0">pret Anat.</tspan></text>
      </g>
      <g id="Grupo_53881" data-name="Grupo 53881">
        <g id="Grupo_53880" data-name="Grupo 53880">
          <path id="Trazado_101508" data-name="Trazado 101508" d="M1101.134,7520.967l49.361,52.043s-86.134,155.6-217.44,181.348-312.45.537-465.732-50.434l14.653-76.724s136.279,51.507,332.113,59.555c0,0,104.088,9.658,173.837-39.7S1101.134,7520.967,1101.134,7520.967Z" fill="#fff" stroke="#056260" stroke-miterlimit="10" stroke-width="3"/>
          <circle id="Elipse_4016" data-name="Elipse 4016" cx="5.984" cy="5.984" r="5.984" transform="translate(1094.881 7514.982)" fill="#056260"/>
          <circle id="Elipse_4017" data-name="Elipse 4017" cx="5.984" cy="5.984" r="5.984" transform="translate(1144.511 7567.026)" fill="#056260"/>
          <circle id="Elipse_4018" data-name="Elipse 4018" cx="4.232" cy="4.232" r="4.232" transform="translate(1060.016 7680.176)" fill="#056260"/>
          <circle id="Elipse_4019" data-name="Elipse 4019" cx="4.232" cy="4.232" r="4.232" transform="translate(1017.764 7615.792)" fill="#056260"/>
          <circle id="Elipse_4020" data-name="Elipse 4020" cx="4.232" cy="4.232" r="4.232" transform="translate(924.592 7669.915)" fill="#056260"/>
          <circle id="Elipse_4021" data-name="Elipse 4021" cx="4.232" cy="4.232" r="4.232" transform="translate(943.907 7746.17)" fill="#056260"/>
          <circle id="Elipse_4022" data-name="Elipse 4022" cx="4.232" cy="4.232" r="4.232" transform="translate(808.909 7761.26)" fill="#056260"/>
          <circle id="Elipse_4023" data-name="Elipse 4023" cx="4.232" cy="4.232" r="4.232" transform="translate(809.887 7681.585)" fill="#056260"/>
          <circle id="Elipse_4024" data-name="Elipse 4024" cx="4.232" cy="4.232" r="4.232" transform="translate(461.41 7700.498)" fill="#056260"/>
          <circle id="Elipse_4025" data-name="Elipse 4025" cx="4.232" cy="4.232" r="4.232" transform="translate(477.103 7623.639)" fill="#056260"/>
          <circle id="Elipse_4026" data-name="Elipse 4026" cx="4.232" cy="4.232" r="4.232" transform="translate(529.415 7720.215)" fill="#056260"/>
          <circle id="Elipse_4027" data-name="Elipse 4027" cx="4.232" cy="4.232" r="4.232" transform="translate(545.906 7643.558)" fill="#056260"/>
          <circle id="Elipse_4028" data-name="Elipse 4028" cx="4.232" cy="4.232" r="4.232" transform="translate(594.798 7735.506)" fill="#056260"/>
          <path id="Trazado_101509" data-name="Trazado 101509" d="M809.887,7701.51l-.342,47.869,2.515-4.979" fill="none" stroke="#056260" stroke-miterlimit="10" stroke-width="1"/>
          <text id="pret_Anat.-2" data-name="pret Anat." transform="matrix(0.353, 0.936, -0.936, 0.353, 967.291, 7667.21)" fill="#056260" font-size="15.137" font-family="Roboto-Regular, Roboto"><tspan x="0" y="0">pret Anat.</tspan></text>
        </g>
        <line id="Línea_241" data-name="Línea 241" x1="16.491" y2="72.432" transform="translate(533.647 7650.149)" fill="none" stroke="#056260" stroke-miterlimit="10" stroke-width="1" stroke-dasharray="5"/>
      </g>
    </g>
  </g>
</svg>
