<svg xmlns="http://www.w3.org/2000/svg" xmlns:xlink="http://www.w3.org/1999/xlink" width="181" height="182" viewBox="0 0 181 182">
  <defs>
    <clipPath id="clip-path">
      <ellipse id="Elipse_3992" data-name="Elipse 3992" cx="90.5" cy="91" rx="90.5" ry="91" transform="translate(0.271 0.12)" fill="#fff" stroke="#707070" stroke-width="1"/>
    </clipPath>
  </defs>
  <g id="Grupo_54815" data-name="Grupo 54815" transform="translate(-398 -814.724)">
    <g id="Enmascarar_grupo_19" data-name="Enmascarar grupo 19" transform="translate(397.729 814.604)" clip-path="url(#clip-path)">
      <g id="Rectángulo_5223" data-name="Rectángulo 5223" transform="translate(-20.729 -11.88)" fill="#fff" stroke="#707070" stroke-width="1">
        <rect width="228" height="212" stroke="none"/>
        <rect x="0.5" y="0.5" width="227" height="211" fill="none"/>
      </g>
    </g>
    <g id="Grupo_53857" data-name="Grupo 53857" transform="translate(137.056 -5455.02)">
      <path id="Trazado_101448" data-name="Trazado 101448" d="M384.745,6350.216v66.3a2.322,2.322,0,0,1-2.322,2.321H320.09a2.322,2.322,0,0,1-2.322-2.321V6309.245a2.328,2.328,0,0,1,2.411-2.316c.263.01.529.012.794.012a25.219,25.219,0,0,0,22.77-14.357,2.315,2.315,0,0,1,2.9-1.167l5.629,2.1,3.656,1.365.4.149,3.682,1.373,5.623,2.1a2.317,2.317,0,0,1,1.251,3.237,35.983,35.983,0,0,0-3.9,16.548c0,15.009,8.627,27.444,19.892,29.651A2.315,2.315,0,0,1,384.745,6350.216Z" transform="translate(0.688 0.69)" fill="#ffd6b1"/>
      <path id="Trazado_101449" data-name="Trazado 101449" d="M371.024,6402.563H329.961a1.923,1.923,0,0,0-3.584,0h-5.6a.4.4,0,0,1-.4-.4v-83.181a1.925,1.925,0,0,0-3.85,0v83.181a4.252,4.252,0,0,0,4.247,4.246h50.246a1.925,1.925,0,0,0,0-3.851Z" transform="translate(0 15.042)" fill="#bc9375"/>
      <path id="Trazado_101450" data-name="Trazado 101450" d="M332.792,6304.053c-.313.225-.635.445-.954.661l-.4.26a1.925,1.925,0,0,0,2.087,3.235c.146-.095.293-.191.442-.291.358-.238.718-.487,1.068-.737a1.925,1.925,0,0,0-2.246-3.128Z" transform="translate(7.805 7.602)" fill="#d1a580"/>
      <path id="Trazado_101451" data-name="Trazado 101451" d="M338.841,6300.755a1.924,1.924,0,0,0-2.717.184c-.358.409-.73.815-1.105,1.2a1.925,1.925,0,1,0,2.77,2.673c.419-.434.834-.885,1.236-1.344A1.926,1.926,0,0,0,338.841,6300.755Z" transform="translate(9.986 5.702)" fill="#d1a580"/>
      <path id="Trazado_101452" data-name="Trazado 101452" d="M341.269,6296.339a1.925,1.925,0,0,0-2.61.778c-.258.479-.532.959-.812,1.422a1.925,1.925,0,1,0,3.295,1.991c.313-.517.618-1.049.906-1.583A1.926,1.926,0,0,0,341.269,6296.339Z" transform="translate(11.704 3.381)" fill="#d1a580"/>
      <path id="Trazado_101453" data-name="Trazado 101453" d="M328.812,6306.307c-.5.207-1.012.405-1.525.588a1.925,1.925,0,1,0,1.295,3.625c.573-.2,1.147-.425,1.706-.656a1.925,1.925,0,0,0-1.475-3.557Z" transform="translate(5.273 8.975)" fill="#d1a580"/>
      <path id="Trazado_101454" data-name="Trazado 101454" d="M387.355,6359.51V6350.9a4.245,4.245,0,0,0-3.416-4.162c-4.983-.978-9.581-4.25-12.946-9.217a33.3,33.3,0,0,1-5.391-18.546,34.111,34.111,0,0,1,3.679-15.663,4.243,4.243,0,0,0-2.285-5.927l-7.458-2.782-.016-.007L348,6290.3a4.219,4.219,0,0,0-5.313,2.142,23.416,23.416,0,0,1-21.031,13.263c-.244,0-.489,0-.731-.012a4.254,4.254,0,0,0-4.4,4.242V6326a1.925,1.925,0,0,0,3.85,0v-4.677a1.923,1.923,0,0,0,0-3.252v-8.139a.374.374,0,0,1,.117-.274.435.435,0,0,1,.308-.117c.283.01.566.015.853.015a27.146,27.146,0,0,0,24.507-15.457.4.4,0,0,1,.492-.191l5.978,2.23a1.915,1.915,0,0,0,1.278,1.432,1.894,1.894,0,0,0,.6.1,1.926,1.926,0,0,0,1.161-.395l.868.325a1.92,1.92,0,0,0,3.032,1.132L365.65,6301a.385.385,0,0,1,.232.229.378.378,0,0,1-.019.317,37.963,37.963,0,0,0-4.11,17.436,37.2,37.2,0,0,0,6.053,20.707c3.939,5.813,9.405,9.66,15.392,10.835a.387.387,0,0,1,.308.383v6.771a1.919,1.919,0,0,0,0,3.219v44.542a1.924,1.924,0,0,0,0,3.757v8.017a.4.4,0,0,1-.4.4h-4.043a1.925,1.925,0,0,0,0,3.851h4.043a4.253,4.253,0,0,0,4.247-4.246V6359.52Z" transform="translate(0 0)" fill="#bc9375"/>
      <path id="Trazado_101455" data-name="Trazado 101455" d="M340.427,6312.24a1.926,1.926,0,0,0-1.58,2.217c.1.6.216,1.213.344,1.807a1.927,1.927,0,0,0,1.882,1.522,1.815,1.815,0,0,0,.4-.045,1.924,1.924,0,0,0,1.479-2.285c-.115-.538-.219-1.089-.311-1.636A1.926,1.926,0,0,0,340.427,6312.24Z" transform="translate(12.401 12.343)" fill="#d1a580"/>
      <path id="Trazado_101456" data-name="Trazado 101456" d="M341.529,6302.027a1.924,1.924,0,0,0-2.279,1.49c-.123.592-.237,1.2-.338,1.79a1.925,1.925,0,0,0,1.572,2.223,2.2,2.2,0,0,0,.327.026,1.926,1.926,0,0,0,1.9-1.6c.093-.549.2-1.1.313-1.651A1.923,1.923,0,0,0,341.529,6302.027Z" transform="translate(12.437 6.653)" fill="#d1a580"/>
      <path id="Trazado_101457" data-name="Trazado 101457" d="M346.074,6322.613a1.925,1.925,0,0,0-3.233,2.092c.333.513.68,1.023,1.032,1.521a1.926,1.926,0,0,0,3.138-2.234C346.689,6323.541,346.374,6323.077,346.074,6322.613Z" transform="translate(14.466 17.64)" fill="#d1a580"/>
      <path id="Trazado_101458" data-name="Trazado 101458" d="M349.045,6326.316a1.925,1.925,0,1,0-2.747,2.7c.425.434.867.864,1.314,1.28a1.925,1.925,0,0,0,2.627-2.814C349.833,6327.1,349.431,6326.71,349.045,6326.316Z" transform="translate(16.254 19.87)" fill="#d1a580"/>
      <path id="Trazado_101459" data-name="Trazado 101459" d="M343.906,6318.39a1.925,1.925,0,1,0-3.586,1.4c.221.564.459,1.136.708,1.694a1.925,1.925,0,0,0,1.76,1.146,1.891,1.891,0,0,0,.78-.167,1.923,1.923,0,0,0,.979-2.539C344.322,6319.418,344.107,6318.9,343.906,6318.39Z" transform="translate(13.162 15.097)" fill="#d1a580"/>
      <path id="Trazado_101460" data-name="Trazado 101460" d="M354.1,6330.3c-.473-.3-.945-.609-1.4-.923a1.925,1.925,0,0,0-2.184,3.171c.5.343,1.009.68,1.525,1.007a1.925,1.925,0,1,0,2.057-3.255Z" transform="translate(18.445 21.705)" fill="#d1a580"/>
      <path id="Trazado_101461" data-name="Trazado 101461" d="M343.365,6297.178a1.927,1.927,0,0,0-2.484,1.115c-.215.563-.423,1.139-.618,1.708a1.925,1.925,0,1,0,3.642,1.247c.182-.53.375-1.062.573-1.587A1.923,1.923,0,0,0,343.365,6297.178Z" transform="translate(13.146 3.908)" fill="#d1a580"/>
      <path id="Trazado_101462" data-name="Trazado 101462" d="M356.957,6335.974a1.926,1.926,0,0,0,1.469-3.561c-.518-.213-1.037-.437-1.542-.669a1.926,1.926,0,0,0-1.6,3.5C355.834,6335.5,356.4,6335.742,356.957,6335.974Z" transform="translate(20.935 23.112)" fill="#d1a580"/>
      <path id="Trazado_101463" data-name="Trazado 101463" d="M338.488,6308.955c-.014.445-.02.9-.02,1.346,0,.162,0,.324,0,.486a1.925,1.925,0,0,0,1.925,1.9h.022a1.925,1.925,0,0,0,1.9-1.947c0-.146,0-.292,0-.44,0-.409.006-.823.019-1.229a1.925,1.925,0,1,0-3.849-.118Z" transform="translate(12.205 9.49)" fill="#d1a580"/>
      <g id="Grupo_53855" data-name="Grupo 53855" transform="translate(323.595 6317.315)">
        <path id="Trazado_101464" data-name="Trazado 101464" d="M324.387,6307.588c-.535.092-1.08.17-1.622.235a1.925,1.925,0,0,0,.229,3.837,1.718,1.718,0,0,0,.233-.015c.6-.071,1.211-.16,1.805-.262a1.925,1.925,0,0,0-.646-3.8Z" transform="translate(-321.07 -6307.561)" fill="#d1a580"/>
        <path id="Trazado_101465" data-name="Trazado 101465" d="M326.621,6336.192a1.924,1.924,0,1,0-3.849,0v1.8a1.924,1.924,0,1,0,3.849,0Z" transform="translate(-320.123 -6292.701)" fill="#d1a580"/>
        <path id="Trazado_101466" data-name="Trazado 101466" d="M326.621,6341.472a1.924,1.924,0,1,0-3.849,0v1.795a1.924,1.924,0,1,0,3.849,0Z" transform="translate(-320.123 -6289.765)" fill="#d1a580"/>
        <path id="Trazado_101467" data-name="Trazado 101467" d="M326.621,6346.748a1.924,1.924,0,1,0-3.849,0v1.8a1.924,1.924,0,1,0,3.849,0Z" transform="translate(-320.123 -6286.829)" fill="#d1a580"/>
        <path id="Trazado_101468" data-name="Trazado 101468" d="M324.7,6365.934a1.923,1.923,0,0,0-1.925,1.925v1.8a1.924,1.924,0,1,0,3.849,0v-1.8A1.924,1.924,0,0,0,324.7,6365.934Z" transform="translate(-320.123 -6275.083)" fill="#d1a580"/>
        <path id="Trazado_101469" data-name="Trazado 101469" d="M326.621,6357.3a1.924,1.924,0,1,0-3.849,0v1.8a1.924,1.924,0,1,0,3.849,0Z" transform="translate(-320.123 -6280.956)" fill="#d1a580"/>
        <path id="Trazado_101470" data-name="Trazado 101470" d="M326.621,6352.026a1.924,1.924,0,1,0-3.849,0v1.8a1.924,1.924,0,1,0,3.849,0Z" transform="translate(-320.123 -6283.893)" fill="#d1a580"/>
        <path id="Trazado_101471" data-name="Trazado 101471" d="M326.621,6330.917a1.924,1.924,0,1,0-3.849,0v1.8a1.924,1.924,0,1,0,3.849,0Z" transform="translate(-320.123 -6295.638)" fill="#d1a580"/>
        <path id="Trazado_101472" data-name="Trazado 101472" d="M326.621,6362.582a1.924,1.924,0,1,0-3.849,0v1.8a1.924,1.924,0,1,0,3.849,0Z" transform="translate(-320.123 -6278.021)" fill="#d1a580"/>
        <path id="Trazado_101473" data-name="Trazado 101473" d="M326.621,6325.639a1.924,1.924,0,1,0-3.849,0v1.8a1.924,1.924,0,1,0,3.849,0Z" transform="translate(-320.123 -6298.574)" fill="#d1a580"/>
        <path id="Trazado_101474" data-name="Trazado 101474" d="M326.621,6315.083a1.924,1.924,0,1,0-3.849,0v1.8a1.924,1.924,0,1,0,3.849,0Z" transform="translate(-320.123 -6304.446)" fill="#d1a580"/>
        <path id="Trazado_101475" data-name="Trazado 101475" d="M326.621,6320.36a1.924,1.924,0,1,0-3.849,0v1.8a1.924,1.924,0,1,0,3.849,0Z" transform="translate(-320.123 -6301.51)" fill="#d1a580"/>
      </g>
      <g id="Grupo_53856" data-name="Grupo 53856" transform="translate(332.714 6405.388)">
        <path id="Trazado_101476" data-name="Trazado 101476" d="M332.207,6366.075a1.925,1.925,0,0,0,1.924,1.926h1.8a1.926,1.926,0,0,0,0-3.852h-1.8A1.925,1.925,0,0,0,332.207,6366.075Z" transform="translate(-323.993 -6364.149)" fill="#d1a580"/>
        <path id="Trazado_101477" data-name="Trazado 101477" d="M358.964,6366.075a1.924,1.924,0,0,0-1.925-1.926h-1.8a1.926,1.926,0,0,0,0,3.852h1.8A1.925,1.925,0,0,0,358.964,6366.075Z" transform="translate(-312.248 -6364.149)" fill="#d1a580"/>
        <path id="Trazado_101478" data-name="Trazado 101478" d="M337.484,6366.075a1.926,1.926,0,0,0,1.925,1.926h1.8a1.926,1.926,0,0,0,0-3.852h-1.8A1.926,1.926,0,0,0,337.484,6366.075Z" transform="translate(-321.057 -6364.149)" fill="#d1a580"/>
        <path id="Trazado_101479" data-name="Trazado 101479" d="M348.039,6366.075a1.926,1.926,0,0,0,1.925,1.926h1.8a1.926,1.926,0,0,0,0-3.852h-1.8A1.926,1.926,0,0,0,348.039,6366.075Z" transform="translate(-315.184 -6364.149)" fill="#d1a580"/>
        <path id="Trazado_101480" data-name="Trazado 101480" d="M326.929,6366.075a1.925,1.925,0,0,0,1.925,1.926h1.8a1.926,1.926,0,0,0,0-3.852h-1.8A1.925,1.925,0,0,0,326.929,6366.075Z" transform="translate(-326.929 -6364.149)" fill="#d1a580"/>
        <path id="Trazado_101481" data-name="Trazado 101481" d="M344.687,6364.149a1.926,1.926,0,0,0,0,3.852h1.8a1.926,1.926,0,0,0,0-3.852Z" transform="translate(-318.12 -6364.149)" fill="#d1a580"/>
      </g>
    </g>
  </g>
</svg>
