<svg xmlns="http://www.w3.org/2000/svg" width="652.613" height="652.473" viewBox="0 0 652.613 652.473">
  <g id="Grupo_54819" data-name="Grupo 54819" transform="translate(-473.693 -4185.339)">
    <path id="Trazado_105622" data-name="Trazado 105622" d="M31.4,16.363h5.967V19H27.968V4.781H31.4ZM44.609,19a3.716,3.716,0,0,1-.312-.947A3.06,3.06,0,0,1,41.757,19.2a3.749,3.749,0,0,1-2.539-.9,2.875,2.875,0,0,1-1.045-2.271,2.955,2.955,0,0,1,1.27-2.6,6.468,6.468,0,0,1,3.691-.879H44.15v-.559q0-1.462-1.26-1.462a1.03,1.03,0,0,0-1.172,1.158H38.427a2.95,2.95,0,0,1,1.3-2.487,5.479,5.479,0,0,1,3.325-.956,4.8,4.8,0,0,1,3.193.986,3.429,3.429,0,0,1,1.2,2.705v4.678a4.79,4.79,0,0,0,.449,2.227V19Zm-2.061-2.148a1.836,1.836,0,0,0,1.021-.264,1.653,1.653,0,0,0,.581-.6V14.3h-.957q-1.719,0-1.719,1.543a.942.942,0,0,0,.3.728A1.1,1.1,0,0,0,42.548,16.852Zm13.115-5.439-1.084-.078a1.947,1.947,0,0,0-1.992.977V19H49.3V8.434h3.086l.107,1.357A2.548,2.548,0,0,1,54.8,8.238a3.209,3.209,0,0,1,.918.117Zm.615,2.227a7.134,7.134,0,0,1,.527-2.832,4.245,4.245,0,0,1,1.514-1.9,3.99,3.99,0,0,1,2.295-.669,3.173,3.173,0,0,1,2.578,1.113l.117-.918H66.3V18.6a4.455,4.455,0,0,1-.649,2.427,4.167,4.167,0,0,1-1.88,1.582,6.91,6.91,0,0,1-2.852.552,5.961,5.961,0,0,1-2.251-.439A4.063,4.063,0,0,1,57,21.578l1.377-1.934A3.018,3.018,0,0,0,60.8,20.729a1.96,1.96,0,0,0,2.188-2.246V18.15A3.09,3.09,0,0,1,60.6,19.2a3.819,3.819,0,0,1-3.125-1.479,6.13,6.13,0,0,1-1.191-3.96Zm3.3.205a3.759,3.759,0,0,0,.488,2.056,1.541,1.541,0,0,0,1.367.757,1.748,1.748,0,0,0,1.553-.713V11.5a1.7,1.7,0,0,0-1.533-.723,1.551,1.551,0,0,0-1.377.786A4.287,4.287,0,0,0,59.58,13.844Zm8.174-.225a6.236,6.236,0,0,1,.615-2.817,4.4,4.4,0,0,1,1.768-1.9,5.323,5.323,0,0,1,2.705-.664,4.858,4.858,0,0,1,3.74,1.47,5.64,5.64,0,0,1,1.367,4v.117a5.472,5.472,0,0,1-1.372,3.921,4.871,4.871,0,0,1-3.716,1.45,4.927,4.927,0,0,1-3.623-1.353,5.29,5.29,0,0,1-1.475-3.667Zm3.291.205a3.932,3.932,0,0,0,.459,2.148,1.529,1.529,0,0,0,1.357.684q1.758,0,1.8-2.705v-.332q0-2.842-1.816-2.842-1.65,0-1.787,2.451Zm13.887,2.207a.76.76,0,0,0-.439-.674,6.685,6.685,0,0,0-1.67-.527,7.615,7.615,0,0,1-2.031-.718,3.4,3.4,0,0,1-1.221-1.079,2.577,2.577,0,0,1-.42-1.455,2.92,2.92,0,0,1,1.2-2.4A4.948,4.948,0,0,1,83.5,8.238a5.482,5.482,0,0,1,3.359.947,2.962,2.962,0,0,1,1.27,2.49h-3.3q0-1.27-1.338-1.27a1.326,1.326,0,0,0-.869.288.892.892,0,0,0-.352.718.819.819,0,0,0,.43.713,4.06,4.06,0,0,0,1.372.449,11.857,11.857,0,0,1,1.655.42A3.007,3.007,0,0,1,88.1,15.934a2.767,2.767,0,0,1-1.284,2.354A5.631,5.631,0,0,1,83.5,19.2a5.747,5.747,0,0,1-2.422-.488,4.05,4.05,0,0,1-1.66-1.328,3.007,3.007,0,0,1-.6-1.768h3.076a1.272,1.272,0,0,0,.488,1.069,2.009,2.009,0,0,0,1.2.337,1.58,1.58,0,0,0,1.011-.273A.875.875,0,0,0,84.931,16.031Zm9.277-2.393a6.455,6.455,0,0,1,1.084-3.955A3.568,3.568,0,0,1,98.32,8.238,3.035,3.035,0,0,1,100.7,9.352V4H104V19h-2.959l-.166-1.133A3.116,3.116,0,0,1,98.3,19.2a3.562,3.562,0,0,1-2.988-1.445A6.659,6.659,0,0,1,94.208,13.639Zm3.291.205q0,2.813,1.641,2.813a1.62,1.62,0,0,0,1.563-.918V11.715a1.576,1.576,0,0,0-1.543-.937q-1.523,0-1.65,2.461ZM110.986,19.2a5.432,5.432,0,0,1-3.936-1.45,5.008,5.008,0,0,1-1.5-3.774V13.7a6.489,6.489,0,0,1,.6-2.861A4.395,4.395,0,0,1,107.9,8.917a5.292,5.292,0,0,1,2.734-.679A4.574,4.574,0,0,1,114.15,9.62a5.43,5.43,0,0,1,1.289,3.853v1.279H108.9a2.372,2.372,0,0,0,.771,1.4,2.3,2.3,0,0,0,1.543.508,2.958,2.958,0,0,0,2.441-1.094l1.5,1.777a4.2,4.2,0,0,1-1.743,1.353A5.891,5.891,0,0,1,110.986,19.2Zm-.371-8.418q-1.445,0-1.719,1.914h3.32v-.254a1.63,1.63,0,0,0-.4-1.226A1.593,1.593,0,0,0,110.615,10.777Zm17.422,7.08a3.393,3.393,0,0,1-2.822,1.338,3.328,3.328,0,0,1-2.632-1.011,4.251,4.251,0,0,1-.894-2.905V8.434h3.291V15.3a1.183,1.183,0,0,0,1.318,1.357,1.72,1.72,0,0,0,1.611-.811V8.434h3.311V19h-3.086Zm8.008-9.424.107,1.24a3.583,3.583,0,0,1,3.018-1.436,3.015,3.015,0,0,1,2.466.986,4.7,4.7,0,0,1,.845,2.969V19h-3.3V12.33a1.783,1.783,0,0,0-.322-1.177,1.491,1.491,0,0,0-1.172-.376,1.569,1.569,0,0,0-1.436.762V19h-3.291V8.434ZM150.253,19a3.716,3.716,0,0,1-.312-.947A3.06,3.06,0,0,1,147.4,19.2a3.749,3.749,0,0,1-2.539-.9,2.875,2.875,0,0,1-1.045-2.271,2.955,2.955,0,0,1,1.27-2.6,6.468,6.468,0,0,1,3.691-.879h1.016v-.559q0-1.462-1.26-1.462a1.03,1.03,0,0,0-1.172,1.158h-3.291a2.95,2.95,0,0,1,1.3-2.487,5.479,5.479,0,0,1,3.325-.956,4.8,4.8,0,0,1,3.193.986,3.429,3.429,0,0,1,1.2,2.705v4.678a4.79,4.79,0,0,0,.449,2.227V19Zm-2.061-2.148a1.836,1.836,0,0,0,1.021-.264,1.653,1.653,0,0,0,.581-.6V14.3h-.957q-1.719,0-1.719,1.543a.942.942,0,0,0,.3.728A1.1,1.1,0,0,0,148.193,16.852ZM160.625,19V10.719h-1.533V8.434h1.533v-.84a3.651,3.651,0,0,1,1.064-2.8,4.206,4.206,0,0,1,2.988-1A6.544,6.544,0,0,1,166.22,4l.01,2.422a3.007,3.007,0,0,0-.811-.088q-1.494,0-1.494,1.289v.811h2.061v2.285h-2.061V19ZM173.1,19a3.716,3.716,0,0,1-.312-.947,3.06,3.06,0,0,1-2.539,1.143,3.749,3.749,0,0,1-2.539-.9,2.875,2.875,0,0,1-1.045-2.271,2.955,2.955,0,0,1,1.27-2.6,6.468,6.468,0,0,1,3.691-.879h1.016v-.559q0-1.462-1.26-1.462a1.03,1.03,0,0,0-1.172,1.158h-3.291a2.95,2.95,0,0,1,1.3-2.487,5.479,5.479,0,0,1,3.325-.956,4.8,4.8,0,0,1,3.193.986,3.429,3.429,0,0,1,1.2,2.705v4.678a4.79,4.79,0,0,0,.449,2.227V19Zm-2.061-2.148a1.836,1.836,0,0,0,1.021-.264,1.653,1.653,0,0,0,.581-.6V14.3h-.957q-1.719,0-1.719,1.543a.942.942,0,0,0,.3.728A1.1,1.1,0,0,0,171.035,16.852ZM181.23,19h-3.3V4h3.3Zm1.611-5.361a6.455,6.455,0,0,1,1.084-3.955,3.568,3.568,0,0,1,3.027-1.445,3.035,3.035,0,0,1,2.383,1.113V4h3.3V19h-2.959l-.166-1.133a3.116,3.116,0,0,1-2.578,1.328,3.562,3.562,0,0,1-2.988-1.445A6.659,6.659,0,0,1,182.841,13.639Zm3.291.205q0,2.813,1.641,2.813a1.62,1.62,0,0,0,1.563-.918V11.715a1.576,1.576,0,0,0-1.543-.937q-1.523,0-1.65,2.461ZM200.458,19a3.716,3.716,0,0,1-.312-.947,3.06,3.06,0,0,1-2.539,1.143,3.749,3.749,0,0,1-2.539-.9,2.875,2.875,0,0,1-1.045-2.271,2.955,2.955,0,0,1,1.27-2.6,6.468,6.468,0,0,1,3.691-.879H200v-.559q0-1.462-1.26-1.462a1.03,1.03,0,0,0-1.172,1.158h-3.291a2.95,2.95,0,0,1,1.3-2.487,5.479,5.479,0,0,1,3.325-.956,4.8,4.8,0,0,1,3.193.986,3.429,3.429,0,0,1,1.2,2.705v4.678a4.79,4.79,0,0,0,.449,2.227V19ZM198.4,16.852a1.836,1.836,0,0,0,1.021-.264,1.653,1.653,0,0,0,.581-.6V14.3h-.957q-1.719,0-1.719,1.543a.942.942,0,0,0,.3.728A1.1,1.1,0,0,0,198.4,16.852Zm11.289-3.213a6.455,6.455,0,0,1,1.084-3.955A3.568,3.568,0,0,1,213.8,8.238a3.035,3.035,0,0,1,2.383,1.113V4h3.3V19h-2.959l-.166-1.133a3.116,3.116,0,0,1-2.578,1.328,3.562,3.562,0,0,1-2.988-1.445A6.659,6.659,0,0,1,209.687,13.639Zm3.291.205q0,2.813,1.641,2.813a1.62,1.62,0,0,0,1.563-.918V11.715a1.576,1.576,0,0,0-1.543-.937q-1.523,0-1.65,2.461ZM226.464,19.2a5.432,5.432,0,0,1-3.936-1.45,5.008,5.008,0,0,1-1.5-3.774V13.7a6.489,6.489,0,0,1,.6-2.861,4.395,4.395,0,0,1,1.753-1.919,5.292,5.292,0,0,1,2.734-.679,4.574,4.574,0,0,1,3.516,1.382,5.43,5.43,0,0,1,1.289,3.853v1.279h-6.543a2.372,2.372,0,0,0,.771,1.4,2.3,2.3,0,0,0,1.543.508,2.958,2.958,0,0,0,2.441-1.094l1.5,1.777a4.2,4.2,0,0,1-1.743,1.353A5.891,5.891,0,0,1,226.464,19.2Zm-.371-8.418q-1.445,0-1.719,1.914h3.32v-.254a1.63,1.63,0,0,0-.4-1.226A1.593,1.593,0,0,0,226.093,10.777ZM243.173,19a3.716,3.716,0,0,1-.312-.947,3.06,3.06,0,0,1-2.539,1.143,3.749,3.749,0,0,1-2.539-.9,2.875,2.875,0,0,1-1.045-2.271,2.955,2.955,0,0,1,1.27-2.6,6.468,6.468,0,0,1,3.691-.879h1.016v-.559q0-1.462-1.26-1.462a1.03,1.03,0,0,0-1.172,1.158h-3.291a2.95,2.95,0,0,1,1.3-2.487,5.479,5.479,0,0,1,3.325-.956,4.8,4.8,0,0,1,3.193.986,3.429,3.429,0,0,1,1.2,2.705v4.678a4.79,4.79,0,0,0,.449,2.227V19Zm-2.061-2.148a1.836,1.836,0,0,0,1.021-.264,1.653,1.653,0,0,0,.581-.6V14.3h-.957q-1.719,0-1.719,1.543a.942.942,0,0,0,.3.728A1.1,1.1,0,0,0,241.113,16.852Zm11.191-.2a1.464,1.464,0,0,0,1.074-.376,1.379,1.379,0,0,0,.371-1.05h3.086a3.653,3.653,0,0,1-1.245,2.852,4.631,4.631,0,0,1-3.208,1.113,4.689,4.689,0,0,1-3.633-1.445,5.7,5.7,0,0,1-1.328-4v-.137a6.436,6.436,0,0,1,.591-2.827,4.3,4.3,0,0,1,1.7-1.885,5.081,5.081,0,0,1,2.637-.659,4.573,4.573,0,0,1,3.271,1.143,4.053,4.053,0,0,1,1.211,3.1H253.75a1.807,1.807,0,0,0-.4-1.26,1.382,1.382,0,0,0-1.074-.439q-1.279,0-1.494,1.631a11.507,11.507,0,0,0-.068,1.426,4.52,4.52,0,0,0,.381,2.207A1.319,1.319,0,0,0,252.3,16.656Zm12.217,1.2A3.393,3.393,0,0,1,261.7,19.2a3.328,3.328,0,0,1-2.632-1.011,4.251,4.251,0,0,1-.894-2.905V8.434h3.291V15.3a1.183,1.183,0,0,0,1.318,1.357,1.72,1.72,0,0,0,1.611-.811V8.434H267.7V19h-3.086Zm10.1,1.338a5.432,5.432,0,0,1-3.936-1.45,5.008,5.008,0,0,1-1.5-3.774V13.7a6.489,6.489,0,0,1,.6-2.861,4.395,4.395,0,0,1,1.753-1.919,5.292,5.292,0,0,1,2.734-.679,4.574,4.574,0,0,1,3.516,1.382,5.43,5.43,0,0,1,1.289,3.853v1.279h-6.543a2.372,2.372,0,0,0,.771,1.4,2.3,2.3,0,0,0,1.543.508,2.958,2.958,0,0,0,2.441-1.094l1.5,1.777a4.2,4.2,0,0,1-1.743,1.353A5.891,5.891,0,0,1,274.619,19.2Zm-.371-8.418q-1.445,0-1.719,1.914h3.32v-.254a1.63,1.63,0,0,0-.4-1.226A1.593,1.593,0,0,0,274.248,10.777Zm12.539.635-1.084-.078a1.947,1.947,0,0,0-1.992.977V19h-3.291V8.434h3.086l.107,1.357a2.548,2.548,0,0,1,2.314-1.553,3.209,3.209,0,0,1,.918.117Zm.586,2.227a6.455,6.455,0,0,1,1.084-3.955,3.568,3.568,0,0,1,3.027-1.445,3.035,3.035,0,0,1,2.383,1.113V4h3.3V19h-2.959l-.166-1.133a3.116,3.116,0,0,1-2.578,1.328,3.562,3.562,0,0,1-2.988-1.445A6.659,6.659,0,0,1,287.373,13.639Zm3.291.205q0,2.813,1.641,2.813a1.62,1.62,0,0,0,1.563-.918V11.715a1.576,1.576,0,0,0-1.543-.937q-1.523,0-1.65,2.461Zm7.959-.225a6.236,6.236,0,0,1,.615-2.817,4.4,4.4,0,0,1,1.768-1.9,5.323,5.323,0,0,1,2.705-.664,4.859,4.859,0,0,1,3.74,1.47,5.64,5.64,0,0,1,1.367,4v.117a5.472,5.472,0,0,1-1.372,3.921,4.871,4.871,0,0,1-3.716,1.45,4.927,4.927,0,0,1-3.623-1.353,5.29,5.29,0,0,1-1.475-3.667Zm3.291.205a3.931,3.931,0,0,0,.459,2.148,1.529,1.529,0,0,0,1.357.684q1.758,0,1.8-2.705v-.332q0-2.842-1.816-2.842-1.65,0-1.787,2.451ZM321.2,19a3.716,3.716,0,0,1-.312-.947,3.06,3.06,0,0,1-2.539,1.143,3.749,3.749,0,0,1-2.539-.9,2.875,2.875,0,0,1-1.045-2.271,2.955,2.955,0,0,1,1.27-2.6,6.468,6.468,0,0,1,3.691-.879h1.016v-.559q0-1.462-1.26-1.462a1.03,1.03,0,0,0-1.172,1.158h-3.291a2.95,2.95,0,0,1,1.3-2.487,5.479,5.479,0,0,1,3.325-.956,4.8,4.8,0,0,1,3.193.986,3.429,3.429,0,0,1,1.2,2.705v4.678a4.79,4.79,0,0,0,.449,2.227V19Zm-2.061-2.148a1.836,1.836,0,0,0,1.021-.264,1.653,1.653,0,0,0,.581-.6V14.3h-.957q-1.719,0-1.719,1.543a.942.942,0,0,0,.3.728A1.1,1.1,0,0,0,319.14,16.852Zm17.236-.82a.76.76,0,0,0-.439-.674,6.685,6.685,0,0,0-1.67-.527,7.615,7.615,0,0,1-2.031-.718,3.4,3.4,0,0,1-1.221-1.079,2.577,2.577,0,0,1-.42-1.455,2.92,2.92,0,0,1,1.2-2.4,4.948,4.948,0,0,1,3.145-.942,5.482,5.482,0,0,1,3.359.947,2.962,2.962,0,0,1,1.27,2.49h-3.3q0-1.27-1.338-1.27a1.326,1.326,0,0,0-.869.288.892.892,0,0,0-.352.718.819.819,0,0,0,.43.713,4.06,4.06,0,0,0,1.372.449,11.856,11.856,0,0,1,1.655.42,3.007,3.007,0,0,1,2.383,2.939,2.767,2.767,0,0,1-1.284,2.354,5.631,5.631,0,0,1-3.325.908,5.747,5.747,0,0,1-2.422-.488,4.05,4.05,0,0,1-1.66-1.328,3.007,3.007,0,0,1-.6-1.768h3.076a1.272,1.272,0,0,0,.488,1.069,2.009,2.009,0,0,0,1.2.337,1.58,1.58,0,0,0,1.011-.273A.875.875,0,0,0,336.376,16.031Zm11.006,1.826A3.393,3.393,0,0,1,344.56,19.2a3.328,3.328,0,0,1-2.632-1.011,4.251,4.251,0,0,1-.894-2.905V8.434h3.291V15.3a1.183,1.183,0,0,0,1.318,1.357,1.72,1.72,0,0,0,1.611-.811V8.434h3.311V19H347.48Zm14.434-1.2a1.464,1.464,0,0,0,1.074-.376,1.379,1.379,0,0,0,.371-1.05h3.086a3.653,3.653,0,0,1-1.245,2.852,4.631,4.631,0,0,1-3.208,1.113,4.689,4.689,0,0,1-3.633-1.445,5.7,5.7,0,0,1-1.328-4v-.137a6.436,6.436,0,0,1,.591-2.827,4.3,4.3,0,0,1,1.7-1.885,5.081,5.081,0,0,1,2.637-.659,4.573,4.573,0,0,1,3.271,1.143,4.053,4.053,0,0,1,1.211,3.1h-3.086a1.806,1.806,0,0,0-.4-1.26,1.382,1.382,0,0,0-1.074-.439q-1.279,0-1.494,1.631a11.51,11.51,0,0,0-.068,1.426,4.52,4.52,0,0,0,.381,2.207A1.319,1.319,0,0,0,361.816,16.656ZM371.21,19h-3.3V4h3.3Zm7.979,0a3.716,3.716,0,0,1-.312-.947,3.06,3.06,0,0,1-2.539,1.143,3.749,3.749,0,0,1-2.539-.9,2.875,2.875,0,0,1-1.045-2.271,2.955,2.955,0,0,1,1.27-2.6,6.468,6.468,0,0,1,3.691-.879h1.016v-.559q0-1.462-1.26-1.462a1.03,1.03,0,0,0-1.172,1.158h-3.291a2.95,2.95,0,0,1,1.3-2.487,5.479,5.479,0,0,1,3.325-.956,4.8,4.8,0,0,1,3.193.986,3.429,3.429,0,0,1,1.2,2.705v4.678a4.79,4.79,0,0,0,.449,2.227V19Zm-2.061-2.148a1.836,1.836,0,0,0,1.021-.264,1.653,1.653,0,0,0,.581-.6V14.3h-.957q-1.719,0-1.719,1.543a.942.942,0,0,0,.3.728A1.1,1.1,0,0,0,377.128,16.852Zm12.256-.82a.76.76,0,0,0-.439-.674,6.685,6.685,0,0,0-1.67-.527,7.615,7.615,0,0,1-2.031-.718,3.4,3.4,0,0,1-1.221-1.079,2.577,2.577,0,0,1-.42-1.455,2.92,2.92,0,0,1,1.2-2.4,4.948,4.948,0,0,1,3.145-.942,5.482,5.482,0,0,1,3.359.947,2.962,2.962,0,0,1,1.27,2.49h-3.3q0-1.27-1.338-1.27a1.326,1.326,0,0,0-.869.288.892.892,0,0,0-.352.718.819.819,0,0,0,.43.713,4.06,4.06,0,0,0,1.372.449,11.856,11.856,0,0,1,1.655.42,3.007,3.007,0,0,1,2.383,2.939,2.767,2.767,0,0,1-1.284,2.354,5.631,5.631,0,0,1-3.325.908,5.747,5.747,0,0,1-2.422-.488,4.05,4.05,0,0,1-1.66-1.328,3.007,3.007,0,0,1-.6-1.768h3.076a1.272,1.272,0,0,0,.488,1.069,2.009,2.009,0,0,0,1.2.337,1.58,1.58,0,0,0,1.011-.273A.875.875,0,0,0,389.384,16.031ZM397.568,19h-3.3V8.434h3.3Zm-3.5-13.3a1.482,1.482,0,0,1,.508-1.159,2.149,2.149,0,0,1,2.637,0,1.482,1.482,0,0,1,.508,1.159,1.482,1.482,0,0,1-.508,1.159,2.149,2.149,0,0,1-2.637,0A1.482,1.482,0,0,1,394.072,5.7ZM400.361,19V10.719h-1.533V8.434h1.533V8.082a4.034,4.034,0,0,1,1.387-3.232,5.541,5.541,0,0,1,3.6-1.055,12.787,12.787,0,0,1,3.438.566l-.449,2.6-.547-.146a8.7,8.7,0,0,0-2.246-.283q-1.885,0-1.885,1.719v.186h2.07v2.285h-2.07V19Zm9.941,0h-3.311V8.434H410.3Zm6.475-2.344a1.464,1.464,0,0,0,1.074-.376,1.379,1.379,0,0,0,.371-1.05h3.086a3.653,3.653,0,0,1-1.245,2.852,4.631,4.631,0,0,1-3.208,1.113,4.689,4.689,0,0,1-3.633-1.445,5.7,5.7,0,0,1-1.328-4v-.137a6.436,6.436,0,0,1,.591-2.827,4.3,4.3,0,0,1,1.7-1.885,5.081,5.081,0,0,1,2.637-.659A4.573,4.573,0,0,1,420.1,9.381a4.053,4.053,0,0,1,1.211,3.1h-3.086a1.806,1.806,0,0,0-.4-1.26,1.382,1.382,0,0,0-1.074-.439q-1.279,0-1.494,1.631a11.51,11.51,0,0,0-.068,1.426,4.52,4.52,0,0,0,.381,2.207A1.319,1.319,0,0,0,416.777,16.656ZM428.652,19a3.716,3.716,0,0,1-.312-.947A3.06,3.06,0,0,1,425.8,19.2a3.749,3.749,0,0,1-2.539-.9,2.875,2.875,0,0,1-1.045-2.271,2.955,2.955,0,0,1,1.27-2.6,6.468,6.468,0,0,1,3.691-.879h1.016v-.559q0-1.462-1.26-1.462a1.03,1.03,0,0,0-1.172,1.158H422.47a2.95,2.95,0,0,1,1.3-2.487,5.479,5.479,0,0,1,3.325-.956,4.8,4.8,0,0,1,3.193.986,3.429,3.429,0,0,1,1.2,2.705v4.678a4.79,4.79,0,0,0,.449,2.227V19Zm-2.061-2.148a1.836,1.836,0,0,0,1.021-.264,1.653,1.653,0,0,0,.581-.6V14.3h-.957q-1.719,0-1.719,1.543a.942.942,0,0,0,.3.728A1.1,1.1,0,0,0,426.591,16.852Zm11.191-.2a1.464,1.464,0,0,0,1.074-.376,1.379,1.379,0,0,0,.371-1.05h3.086a3.653,3.653,0,0,1-1.245,2.852,4.631,4.631,0,0,1-3.208,1.113,4.689,4.689,0,0,1-3.633-1.445,5.7,5.7,0,0,1-1.328-4v-.137a6.436,6.436,0,0,1,.591-2.827,4.3,4.3,0,0,1,1.7-1.885,5.081,5.081,0,0,1,2.637-.659A4.573,4.573,0,0,1,441.1,9.381a4.053,4.053,0,0,1,1.211,3.1h-3.086a1.806,1.806,0,0,0-.4-1.26,1.382,1.382,0,0,0-1.074-.439q-1.279,0-1.494,1.631a11.51,11.51,0,0,0-.068,1.426,4.52,4.52,0,0,0,.381,2.207A1.319,1.319,0,0,0,437.783,16.656ZM447.177,19h-3.3V8.434h3.3Zm-3.5-13.3a1.482,1.482,0,0,1,.508-1.159,2.149,2.149,0,0,1,2.637,0,1.482,1.482,0,0,1,.508,1.159,1.482,1.482,0,0,1-.508,1.159,2.149,2.149,0,0,1-2.637,0A1.482,1.482,0,0,1,443.681,5.7Zm5.107,7.92A6.236,6.236,0,0,1,449.4,10.8a4.4,4.4,0,0,1,1.768-1.9,5.323,5.323,0,0,1,2.705-.664,4.859,4.859,0,0,1,3.74,1.47,5.64,5.64,0,0,1,1.367,4v.117a5.472,5.472,0,0,1-1.372,3.921A4.871,4.871,0,0,1,453.9,19.2a4.927,4.927,0,0,1-3.623-1.353,5.29,5.29,0,0,1-1.475-3.667Zm3.291.205a3.931,3.931,0,0,0,.459,2.148,1.529,1.529,0,0,0,1.357.684q1.758,0,1.8-2.705v-.332q0-2.842-1.816-2.842-1.65,0-1.787,2.451ZM454.326,4H457.8l-2.715,3.066-2.686,0Zm9.131,4.434.107,1.24a3.583,3.583,0,0,1,3.018-1.436,3.015,3.015,0,0,1,2.466.986,4.7,4.7,0,0,1,.845,2.969V19h-3.3V12.33a1.783,1.783,0,0,0-.322-1.177,1.491,1.491,0,0,0-1.172-.376,1.569,1.569,0,0,0-1.436.762V19h-3.291V8.434Z" transform="translate(576 4814.652)" fill="#12263f"/>
    <g id="Grupo_53900" data-name="Grupo 53900" transform="translate(473.693 4185.339)">
      <path id="Trazado_101510" data-name="Trazado 101510" d="M272.85,7802.174s-79.273,7.665-148.822,7.207V8408.1H479.61V7809.438s-84.248,4.176-147.391-7.264c0,0-15.913,21.163-30.092,97C302.127,7899.177,294.813,7840.038,272.85,7802.174Z" transform="translate(-121.53 -7799.675)" fill="#fff" stroke="#000" stroke-miterlimit="10" stroke-width="1"/>
      <line id="Línea_242" data-name="Línea 242" x2="355.582" transform="translate(2.498 112.657)" fill="none" stroke="#000" stroke-miterlimit="10" stroke-width="1"/>
      <line id="Línea_243" data-name="Línea 243" x2="355.582" transform="translate(2.498 9.705)" fill="none" stroke="#000" stroke-miterlimit="10" stroke-width="1"/>
      <line id="Línea_244" data-name="Línea 244" y1="598.718" transform="translate(180.597 9.705)" fill="none" stroke="#000" stroke-miterlimit="10" stroke-width="1"/>
      <line id="Línea_245" data-name="Línea 245" x2="355.582" transform="translate(2.498 181.863)" fill="none" stroke="#006837" stroke-miterlimit="10" stroke-width="1"/>
      <line id="Línea_246" data-name="Línea 246" x2="355.582" transform="translate(2.498 259.991)" fill="none" stroke="#662d91" stroke-miterlimit="10" stroke-width="1"/>
      <line id="Línea_247" data-name="Línea 247" x2="355.582" transform="translate(2.498 349.673)" fill="none" stroke="red" stroke-miterlimit="10" stroke-width="1"/>
      <line id="Línea_248" data-name="Línea 248" x2="355.582" transform="translate(2.498 401.149)" fill="none" stroke="#93278f" stroke-miterlimit="10" stroke-width="1"/>
      <line id="Línea_249" data-name="Línea 249" x2="355.582" transform="translate(2.498 466.008)" fill="none" stroke="#339ce9" stroke-miterlimit="10" stroke-width="1"/>
      <line id="Línea_250" data-name="Línea 250" x2="355.582" transform="translate(2.498 565.87)" fill="none" stroke="#c1272d" stroke-miterlimit="10" stroke-width="1"/>
      <line id="Línea_251" data-name="Línea 251" x2="3.247" y2="69.557" transform="translate(271.615 9.183)" fill="none" stroke="#000" stroke-miterlimit="10" stroke-width="1"/>
      <line id="Línea_252" data-name="Línea 252" x1="10.887" y2="67.368" transform="translate(274.79 9.847)" fill="none" stroke="#000" stroke-miterlimit="10" stroke-width="1"/>
      <line id="Línea_253" data-name="Línea 253" x1="24.379" y2="69.034" transform="translate(274.862 9.705)" fill="none" stroke="#000" stroke-miterlimit="10" stroke-width="1"/>
      <g id="Grupo_53891" data-name="Grupo 53891" transform="translate(62.692 7.163)">
        <line id="Línea_254" data-name="Línea 254" x1="6.295" y2="58.751" transform="translate(19.541)" fill="none" stroke="#000" stroke-miterlimit="10" stroke-width="1"/>
        <line id="Línea_255" data-name="Línea 255" x2="5.798" y2="56.572" transform="translate(13.814 0.653)" fill="none" stroke="#000" stroke-miterlimit="10" stroke-width="1"/>
        <line id="Línea_256" data-name="Línea 256" x2="19.541" y2="57.448" transform="translate(0 1.303)" fill="none" stroke="#000" stroke-miterlimit="10" stroke-width="1"/>
      </g>
      <text id="Delantero" transform="translate(34.453 102.055)" font-size="21" font-family="Roboto-Regular, Roboto"><tspan x="0" y="0">Delantero</tspan></text>
      <text id="Largo_de_falda_Micro" data-name="Largo de falda Micro" transform="translate(448.613 159.219)" font-size="18" font-family="Roboto-Bold, Roboto" font-weight="700"><tspan x="0" y="0">Largo de falda Micro</tspan></text>
      <text id="Largo_de_falda_Mini" data-name="Largo de falda Mini" transform="translate(448.613 234.031)" font-size="18" font-family="Roboto-Bold, Roboto" font-weight="700"><tspan x="0" y="0">Largo de falda Mini</tspan></text>
      <text id="Largo_de_falda_a_la_rodilla" data-name="Largo de falda a la rodilla" transform="translate(448.613 313.874)" font-size="18" font-family="Roboto-Bold, Roboto" font-weight="700"><tspan x="0" y="0">Largo de falda a la rodilla</tspan></text>
      <text id="Largo_de_falda_Chanel" data-name="Largo de falda Chanel" transform="translate(448.613 379.534)" font-size="18" font-family="Roboto-Bold, Roboto" font-weight="700"><tspan x="0" y="0">Largo de falda Chanel</tspan></text>
      <text id="Largo_de_falda_Midi" data-name="Largo de falda Midi" transform="translate(448.613 438.331)" font-size="18" font-family="Roboto-Bold, Roboto" font-weight="700"><tspan x="0" y="0">Largo de falda Midi</tspan></text>
      <text id="Largo_de_falda_al_tobillo" data-name="Largo de falda al tobillo" transform="translate(448.613 522.293)" font-size="18" font-family="Roboto-Bold, Roboto" font-weight="700"><tspan x="0" y="0">Largo de falda al tobillo</tspan></text>
      <text id="Largo_de_falda_al_Maxi" data-name="Largo de falda al Maxi" transform="translate(448.613 589.554)" font-size="18" font-family="Roboto-Bold, Roboto" font-weight="700"><tspan x="0" y="0">Largo de falda al Maxi</tspan></text>
      <text id="Posterior" transform="translate(223.197 102.055)" font-size="21" font-family="Roboto-Regular, Roboto"><tspan x="0" y="0">Posterior</tspan></text>
      <ellipse id="Elipse_4029" data-name="Elipse 4029" cx="2.498" cy="2.498" rx="2.498" ry="2.498" transform="translate(79.405 62.59)" fill="red"/>
      <ellipse id="Elipse_4030" data-name="Elipse 4030" cx="2.498" cy="2.498" rx="2.498" ry="2.498" transform="translate(60.343 6.001)" fill="red"/>
      <ellipse id="Elipse_4031" data-name="Elipse 4031" cx="2.498" cy="2.498" rx="2.498" ry="2.498" transform="translate(74.002 5.266)" fill="red"/>
      <ellipse id="Elipse_4032" data-name="Elipse 4032" cx="2.498" cy="2.498" rx="2.498" ry="2.498" transform="translate(86.034 4.628)" fill="red"/>
      <ellipse id="Elipse_4033" data-name="Elipse 4033" cx="2.498" cy="2.498" rx="2.498" ry="2.498" transform="translate(148.458 0)" fill="red"/>
      <ellipse id="Elipse_4034" data-name="Elipse 4034" cx="2.498" cy="2.498" rx="2.498" ry="2.498" transform="translate(152.361 7.207)" fill="red"/>
      <ellipse id="Elipse_4035" data-name="Elipse 4035" cx="2.498" cy="2.498" rx="2.498" ry="2.498" transform="translate(208.351 0)" fill="red"/>
      <ellipse id="Elipse_4036" data-name="Elipse 4036" cx="2.498" cy="2.498" rx="2.498" ry="2.498" transform="translate(204.447 7.207)" fill="red"/>
      <ellipse id="Elipse_4037" data-name="Elipse 4037" cx="2.498" cy="2.498" rx="2.498" ry="2.498" transform="translate(269.137 7.127)" fill="red"/>
      <ellipse id="Elipse_4038" data-name="Elipse 4038" cx="2.498" cy="2.498" rx="2.498" ry="2.498" transform="translate(283.179 7.349)" fill="red"/>
      <ellipse id="Elipse_4039" data-name="Elipse 4039" cx="2.498" cy="2.498" rx="2.498" ry="2.498" transform="translate(296.47 7.977)" fill="red"/>
      <ellipse id="Elipse_4040" data-name="Elipse 4040" cx="2.498" cy="2.498" rx="2.498" ry="2.498" transform="translate(355.582 7.349)" fill="red"/>
      <ellipse id="Elipse_4041" data-name="Elipse 4041" cx="2.498" cy="2.498" rx="2.498" ry="2.498" transform="translate(272.363 76.241)" fill="red"/>
      <ellipse id="Elipse_4042" data-name="Elipse 4042" cx="2.498" cy="2.498" rx="2.498" ry="2.498" transform="translate(178.099 7.207)" fill="red"/>
      <ellipse id="Elipse_4043" data-name="Elipse 4043" cx="2.498" cy="2.498" rx="2.498" ry="2.498" transform="translate(0 7.207)" fill="red"/>
      <ellipse id="Elipse_4044" data-name="Elipse 4044" cx="2.498" cy="2.498" rx="2.498" ry="2.498" transform="translate(0 110.158)" fill="red"/>
      <line id="Línea_257" data-name="Línea 257" x2="75.562" transform="translate(343.478 155.976)" fill="none" stroke="#bf3976" stroke-linecap="round" stroke-linejoin="round" stroke-width="1"/>
      <path id="Trazado_101511" data-name="Trazado 101511" d="M441.125,7916.387v6.463l6.978-2.831Z" transform="translate(-21.489 -7763.642)" fill="#bf3976"/>
      <g id="Grupo_53892" data-name="Grupo 53892" transform="translate(343.478 225.645)">
        <line id="Línea_258" data-name="Línea 258" x2="75.562" transform="translate(0 3.232)" fill="none" stroke="#bf3976" stroke-linecap="round" stroke-linejoin="round" stroke-width="1"/>
        <path id="Trazado_101512" data-name="Trazado 101512" d="M441.125,7971.8v6.464l6.978-2.831Z" transform="translate(-364.967 -7971.804)" fill="#bf3976"/>
      </g>
      <g id="Grupo_53893" data-name="Grupo 53893" transform="translate(343.478 305.833)">
        <line id="Línea_259" data-name="Línea 259" x2="75.562" transform="translate(0 3.232)" fill="none" stroke="#bf3976" stroke-linecap="round" stroke-linejoin="round" stroke-width="1"/>
        <path id="Trazado_101513" data-name="Trazado 101513" d="M441.125,8032.76v6.463l6.978-2.831Z" transform="translate(-364.967 -8032.76)" fill="#bf3976"/>
      </g>
      <g id="Grupo_53894" data-name="Grupo 53894" transform="translate(343.478 372.18)">
        <line id="Línea_260" data-name="Línea 260" x2="75.562" transform="translate(0 3.232)" fill="none" stroke="#bf3976" stroke-linecap="round" stroke-linejoin="round" stroke-width="1"/>
        <path id="Trazado_101514" data-name="Trazado 101514" d="M441.125,8083.2v6.463l6.978-2.831Z" transform="translate(-364.967 -8083.195)" fill="#bf3976"/>
      </g>
      <g id="Grupo_53895" data-name="Grupo 53895" transform="translate(343.478 430.347)">
        <line id="Línea_261" data-name="Línea 261" x2="75.562" transform="translate(0 3.232)" fill="none" stroke="#bf3976" stroke-linecap="round" stroke-linejoin="round" stroke-width="1"/>
        <path id="Trazado_101515" data-name="Trazado 101515" d="M441.125,8127.413v6.463l6.978-2.831Z" transform="translate(-364.967 -8127.413)" fill="#bf3976"/>
      </g>
      <g id="Grupo_53896" data-name="Grupo 53896" transform="translate(343.478 515.162)">
        <line id="Línea_262" data-name="Línea 262" x2="75.562" transform="translate(0 3.232)" fill="none" stroke="#bf3976" stroke-linecap="round" stroke-linejoin="round" stroke-width="1"/>
        <path id="Trazado_101516" data-name="Trazado 101516" d="M441.125,8191.887v6.462l6.978-2.83Z" transform="translate(-364.967 -8191.887)" fill="#bf3976"/>
      </g>
      <g id="Grupo_53897" data-name="Grupo 53897" transform="translate(343.478 582.342)">
        <line id="Línea_263" data-name="Línea 263" x2="75.562" transform="translate(0 3.232)" fill="none" stroke="#bf3976" stroke-linecap="round" stroke-linejoin="round" stroke-width="1"/>
        <path id="Trazado_101517" data-name="Trazado 101517" d="M441.125,8242.956v6.463l6.978-2.83Z" transform="translate(-364.967 -8242.956)" fill="#bf3976"/>
      </g>
    </g>
  </g>
</svg>
