<svg xmlns="http://www.w3.org/2000/svg" width="1021.5" height="834.447" viewBox="0 0 1021.5 834.447">
  <g id="Grupo_54506" data-name="Grupo 54506" transform="translate(-142.311 -5203.078)">
    <path id="Trazado_104446" data-name="Trazado 104446" d="M156.079,5226.76c15.7-16.689,54.488-33.62,85.531-16.615,38.441,21.057,45.332,83.372,16.809,111.374-26.961,26.466-81.643,18.433-90.838-.758-4.867-10.159,6.449-16.281,2.962-34.709-4.327-22.868-25.189-31.608-21.542-47.824C150.144,5233.149,153.108,5229.919,156.079,5226.76Z" transform="translate(0.313 0)" fill="#d4fff1"/>
    <path id="Trazado_104447" data-name="Trazado 104447" d="M363.552,5226.76c15.7-16.689,54.488-33.62,85.531-16.615,38.441,21.057,45.332,83.372,16.809,111.374-26.961,26.466-81.643,18.433-90.838-.758-4.867-10.159,6.449-16.281,2.962-34.709-4.327-22.868-25.189-31.608-21.542-47.824C357.617,5233.149,360.582,5229.919,363.552,5226.76Z" transform="translate(13.951 0)" fill="#d4fff1"/>
    <path id="Trazado_104448" data-name="Trazado 104448" d="M571.139,5226.76c15.7-16.689,54.488-33.62,85.531-16.615,38.441,21.057,45.332,83.372,16.809,111.374-26.961,26.466-81.643,18.433-90.838-.758-4.867-10.159,6.449-16.281,2.962-34.709-4.327-22.868-25.189-31.608-21.542-47.824C565.2,5233.149,568.168,5229.919,571.139,5226.76Z" transform="translate(27.596 0)" fill="#d4fff1"/>
    <path id="Trazado_104449" data-name="Trazado 104449" d="M781.726,5226.76c15.7-16.689,54.488-33.62,85.531-16.615,38.441,21.057,45.332,83.372,16.809,111.374-26.961,26.466-81.643,18.433-90.838-.758-4.867-10.159,6.449-16.281,2.962-34.709-4.327-22.868-25.189-31.608-21.542-47.824C775.791,5233.149,778.755,5229.919,781.726,5226.76Z" transform="translate(41.439 0)" fill="#d4fff1"/>
    <path id="Trazado_104450" data-name="Trazado 104450" d="M987.384,5226.76c15.7-16.689,54.488-33.62,85.53-16.615,38.442,21.057,45.332,83.372,16.809,111.374-26.96,26.466-81.643,18.433-90.837-.758-4.868-10.159,6.448-16.281,2.962-34.709-4.327-22.868-25.189-31.608-21.542-47.824C981.448,5233.149,984.413,5229.919,987.384,5226.76Z" transform="translate(54.957 0)" fill="#d4fff1"/>
    <path id="Trazado_104451" data-name="Trazado 104451" d="M155.487,5439.428c15.7-16.689,54.488-33.619,85.531-16.615,38.441,21.058,45.332,83.373,16.808,111.375-26.96,26.466-81.643,18.433-90.837-.758-4.867-10.16,6.448-16.281,2.962-34.709-4.327-22.869-25.189-31.609-21.542-47.825C149.551,5445.816,152.516,5442.587,155.487,5439.428Z" transform="translate(0.274 13.979)" fill="#d4fff1"/>
    <path id="Trazado_104452" data-name="Trazado 104452" d="M362.96,5439.428c15.7-16.689,54.488-33.619,85.531-16.615,38.441,21.058,45.332,83.373,16.808,111.375-26.96,26.466-81.643,18.433-90.837-.758-4.867-10.16,6.449-16.281,2.962-34.709-4.327-22.869-25.189-31.609-21.542-47.825C357.025,5445.816,359.989,5442.587,362.96,5439.428Z" transform="translate(13.912 13.979)" fill="#d4fff1"/>
    <path id="Trazado_104453" data-name="Trazado 104453" d="M570.547,5439.428c15.7-16.689,54.488-33.619,85.532-16.615,38.441,21.058,45.332,83.373,16.808,111.375-26.96,26.466-81.643,18.433-90.837-.758-4.867-10.16,6.448-16.281,2.962-34.709-4.327-22.869-25.189-31.609-21.542-47.825C564.611,5445.816,567.576,5442.587,570.547,5439.428Z" transform="translate(27.557 13.979)" fill="#d4fff1"/>
    <path id="Trazado_104454" data-name="Trazado 104454" d="M781.134,5439.428c15.7-16.689,54.488-33.619,85.531-16.615,38.441,21.058,45.332,83.373,16.808,111.375-26.96,26.466-81.643,18.433-90.837-.758-4.868-10.16,6.448-16.281,2.962-34.709-4.327-22.869-25.189-31.609-21.542-47.825C775.2,5445.816,778.163,5442.587,781.134,5439.428Z" transform="translate(41.4 13.979)" fill="#d4fff1"/>
    <path id="Trazado_104455" data-name="Trazado 104455" d="M986.792,5439.428c15.7-16.689,54.488-33.619,85.53-16.615,38.441,21.058,45.332,83.373,16.809,111.375-26.96,26.466-81.643,18.433-90.837-.758-4.868-10.16,6.448-16.281,2.961-34.709-4.326-22.869-25.188-31.609-21.542-47.825C980.856,5445.816,983.821,5442.587,986.792,5439.428Z" transform="translate(54.918 13.979)" fill="#d4fff1"/>
    <path id="Trazado_104456" data-name="Trazado 104456" d="M157.618,5644.167c15.7-16.689,54.488-33.619,85.53-16.614,38.441,21.056,45.332,83.372,16.809,111.373-26.96,26.466-81.643,18.433-90.837-.757-4.868-10.161,6.448-16.282,2.961-34.71-4.326-22.868-25.188-31.607-21.542-47.825C151.682,5650.556,154.647,5647.325,157.618,5644.167Z" transform="translate(0.414 27.437)" fill="#d4fff1"/>
    <path id="Trazado_104457" data-name="Trazado 104457" d="M365.091,5644.167c15.7-16.689,54.488-33.619,85.53-16.614,38.441,21.056,45.332,83.372,16.809,111.373-26.96,26.466-81.643,18.433-90.837-.757-4.868-10.161,6.448-16.282,2.961-34.71-4.326-22.868-25.188-31.607-21.541-47.825C359.155,5650.556,362.12,5647.325,365.091,5644.167Z" transform="translate(14.052 27.437)" fill="#d4fff1"/>
    <path id="Trazado_104458" data-name="Trazado 104458" d="M572.678,5644.167c15.7-16.689,54.488-33.619,85.53-16.614,38.441,21.056,45.332,83.372,16.809,111.373-26.96,26.466-81.643,18.433-90.837-.757-4.868-10.161,6.448-16.282,2.961-34.71-4.326-22.868-25.188-31.607-21.542-47.825C566.742,5650.556,569.707,5647.325,572.678,5644.167Z" transform="translate(27.697 27.437)" fill="#d4fff1"/>
    <path id="Trazado_104459" data-name="Trazado 104459" d="M783.265,5644.167c15.7-16.689,54.488-33.619,85.53-16.614,38.441,21.056,45.332,83.372,16.809,111.373-26.96,26.466-81.643,18.433-90.838-.757-4.867-10.161,6.449-16.282,2.962-34.71-4.326-22.868-25.187-31.607-21.542-47.825C777.329,5650.556,780.294,5647.325,783.265,5644.167Z" transform="translate(41.54 27.437)" fill="#d4fff1"/>
    <path id="Trazado_104460" data-name="Trazado 104460" d="M988.922,5644.167c15.7-16.689,54.488-33.619,85.531-16.614,38.441,21.056,45.332,83.372,16.808,111.373-26.96,26.466-81.642,18.433-90.837-.757-4.868-10.161,6.448-16.282,2.962-34.71-4.327-22.868-25.189-31.607-21.542-47.825C982.986,5650.556,985.951,5647.325,988.922,5644.167Z" transform="translate(55.058 27.437)" fill="#d4fff1"/>
    <path id="Trazado_104461" data-name="Trazado 104461" d="M156.354,5851.136c15.7-16.689,54.488-33.619,85.531-16.615,38.441,21.057,45.332,83.373,16.809,111.375-26.961,26.466-81.643,18.433-90.838-.758-4.867-10.16,6.449-16.281,2.962-34.709-4.327-22.869-25.189-31.609-21.542-47.825C150.419,5857.525,153.384,5854.295,156.354,5851.136Z" transform="translate(0.331 41.042)" fill="#d4fff1"/>
    <path id="Trazado_104462" data-name="Trazado 104462" d="M363.828,5851.136c15.7-16.689,54.488-33.619,85.53-16.615,38.441,21.057,45.332,83.373,16.809,111.375-26.96,26.466-81.643,18.433-90.838-.758-4.867-10.16,6.449-16.281,2.962-34.709-4.327-22.869-25.188-31.609-21.542-47.825C357.892,5857.525,360.857,5854.295,363.828,5851.136Z" transform="translate(13.969 41.042)" fill="#d4fff1"/>
    <path id="Trazado_104463" data-name="Trazado 104463" d="M571.414,5851.136c15.7-16.689,54.488-33.619,85.531-16.615,38.441,21.057,45.332,83.373,16.809,111.375-26.961,26.466-81.643,18.433-90.838-.758-4.867-10.16,6.449-16.281,2.962-34.709-4.327-22.869-25.189-31.609-21.542-47.825C565.479,5857.525,568.444,5854.295,571.414,5851.136Z" transform="translate(27.614 41.042)" fill="#d4fff1"/>
    <path id="Trazado_104464" data-name="Trazado 104464" d="M782,5851.136c15.7-16.689,54.488-33.619,85.531-16.615,38.441,21.057,45.332,83.373,16.809,111.375-26.961,26.466-81.643,18.433-90.838-.758-4.867-10.16,6.449-16.281,2.962-34.709-4.327-22.869-25.189-31.609-21.542-47.825C776.066,5857.525,779.031,5854.295,782,5851.136Z" transform="translate(41.457 41.042)" fill="#d4fff1"/>
    <path id="Trazado_104465" data-name="Trazado 104465" d="M987.659,5851.136c15.7-16.689,54.488-33.619,85.531-16.615,38.442,21.057,45.333,83.373,16.809,111.375-26.96,26.466-81.643,18.433-90.837-.758-4.868-10.16,6.448-16.281,2.962-34.709-4.327-22.869-25.189-31.609-21.542-47.825C981.723,5857.525,984.688,5854.295,987.659,5851.136Z" transform="translate(54.975 41.042)" fill="#d4fff1"/>
    <path id="Trazado_104466" data-name="Trazado 104466" d="M260.49,5322.783H151.878a6.025,6.025,0,0,1-6.023-6.024v-67.422a6.483,6.483,0,0,1,3.731-5.871l56.321-26.423,54.449,25.545a9.739,9.739,0,0,1,5.6,8.817v65.91A5.468,5.468,0,0,1,260.49,5322.783Z" transform="translate(0.134 0.918)" fill="#fff" stroke="#000" stroke-miterlimit="10" stroke-width="3"/>
    <path id="Trazado_104467" data-name="Trazado 104467" d="M235.549,5228.116a30.8,30.8,0,0,0-10.176-10.873,15.734,15.734,0,0,0-8.317-2.287H190.929a13.626,13.626,0,0,0-6.581,1.651,30.509,30.509,0,0,0-11.261,11.509c-9.39,19.082,5.077,37.863,11.1,44.483a3.362,3.362,0,0,0,4.844.135l11.414-11.2a3.363,3.363,0,0,1,1.951-.938l1.518-.185a3.51,3.51,0,0,1,.81,0l1.519.185a3.369,3.369,0,0,1,1.951.938l11.413,11.2a3.36,3.36,0,0,0,4.843-.135C230.473,5265.979,244.941,5247.2,235.549,5228.116Z" transform="translate(1.722 0.781)" fill="#fff" stroke="#000" stroke-linecap="round" stroke-linejoin="round" stroke-width="2"/>
    <path id="Trazado_104468" data-name="Trazado 104468" d="M204.105,5258.691s-18.071-6.542-30.859-32.011" transform="translate(1.935 1.551)" fill="none" stroke="#000" stroke-linecap="round" stroke-linejoin="round" stroke-width="2"/>
    <path id="Trazado_104469" data-name="Trazado 104469" d="M201.838,5258.691s18.071-6.542,30.859-32.011" transform="translate(3.814 1.551)" fill="none" stroke="#000" stroke-linecap="round" stroke-linejoin="round" stroke-width="2"/>
    <line id="Línea_301" data-name="Línea 301" y2="46.799" transform="translate(197.051 5275.859)" fill="none" stroke="#000" stroke-linecap="round" stroke-linejoin="round" stroke-width="2"/>
    <line id="Línea_302" data-name="Línea 302" y2="46.799" transform="translate(215.029 5275.859)" fill="none" stroke="#000" stroke-linecap="round" stroke-linejoin="round" stroke-width="2"/>
    <line id="Línea_303" data-name="Línea 303" x2="42.537" transform="translate(184.772 5227.784)" fill="none" stroke="#000" stroke-linecap="round" stroke-linejoin="round" stroke-width="2"/>
    <circle id="Elipse_4181" data-name="Elipse 4181" cx="2.85" cy="2.85" r="2.85" transform="translate(203.608 5309.174)"/>
    <circle id="Elipse_4182" data-name="Elipse 4182" cx="2.85" cy="2.85" r="2.85" transform="translate(203.608 5289.365)"/>
    <circle id="Elipse_4183" data-name="Elipse 4183" cx="2.85" cy="2.85" r="2.85" transform="translate(203.608 5269.557)"/>
    <g id="Grupo_54475" data-name="Grupo 54475" transform="translate(585.134 5656.974)">
      <path id="Trazado_104470" data-name="Trazado 104470" d="M675.281,5736.805H561.206a3.293,3.293,0,0,1-3.292-3.293v-71.889a3.752,3.752,0,0,1,2.159-3.4l57.893-27.16,56.02,26.281a7.008,7.008,0,0,1,4.031,6.344v70.378A2.737,2.737,0,0,1,675.281,5736.805Z" transform="translate(-557.914 -5628.841)" fill="#fff" stroke="#000" stroke-miterlimit="10" stroke-width="3"/>
      <path id="Trazado_104471" data-name="Trazado 104471" d="M647.609,5642.138a30.465,30.465,0,0,0-11.343-11.554,13.362,13.362,0,0,0-6.4-1.605H602.317a11.062,11.062,0,0,0-4.829,1.09c-8.227,3.994-12.341,12.069-12.341,12.069-10.751,21.846,9.77,43.3,13.087,46.559a.628.628,0,0,0,.883,0l14.049-13.783a.627.627,0,0,1,.367-.177l2.769-.334a.613.613,0,0,1,.152,0l2.769.334a.627.627,0,0,1,.367.177l14.05,13.783a.628.628,0,0,0,.882,0C637.839,5685.436,658.361,5663.983,647.609,5642.138Z" transform="translate(-556.327 -5628.979)" fill="#fff" stroke="#000" stroke-linecap="round" stroke-linejoin="round" stroke-width="2"/>
      <path id="Trazado_104472" data-name="Trazado 104472" d="M616.165,5672.713s-18.072-6.542-30.86-32.011" transform="translate(-556.114 -5628.208)" fill="none" stroke="#000" stroke-linecap="round" stroke-linejoin="round" stroke-width="2"/>
      <path id="Trazado_104473" data-name="Trazado 104473" d="M613.9,5672.713s18.072-6.542,30.86-32.011" transform="translate(-554.234 -5628.208)" fill="none" stroke="#000" stroke-linecap="round" stroke-linejoin="round" stroke-width="2"/>
      <line id="Línea_304" data-name="Línea 304" y2="23.361" transform="translate(51.063 56.573)" fill="none" stroke="#000" stroke-linecap="round" stroke-linejoin="round" stroke-width="2"/>
      <line id="Línea_305" data-name="Línea 305" y2="23.361" transform="translate(69.041 56.573)" fill="none" stroke="#000" stroke-linecap="round" stroke-linejoin="round" stroke-width="2"/>
      <line id="Línea_306" data-name="Línea 306" x2="42.537" transform="translate(38.783 12.048)" fill="none" stroke="#000" stroke-linecap="round" stroke-linejoin="round" stroke-width="2"/>
      <circle id="Elipse_4184" data-name="Elipse 4184" cx="2.85" cy="2.85" r="2.85" transform="translate(57.619 67.929)"/>
      <circle id="Elipse_4185" data-name="Elipse 4185" cx="2.85" cy="2.85" r="2.85" transform="translate(57.619 53.82)"/>
      <line id="Línea_307" data-name="Línea 307" x2="17.978" transform="translate(51.063 79.977)" fill="none" stroke="#000" stroke-linecap="round" stroke-linejoin="round" stroke-width="2"/>
    </g>
    <g id="Grupo_54476" data-name="Grupo 54476" transform="translate(145.988 5436.947)">
      <path id="Trazado_104474" data-name="Trazado 104474" d="M263.854,5530.348H148.514a2.66,2.66,0,0,1-2.66-2.659v-72.925a3.122,3.122,0,0,1,1.8-2.825l58.256-27.33,56.385,26.452a6.375,6.375,0,0,1,3.667,5.771v71.412A2.1,2.1,0,0,1,263.854,5530.348Z" transform="translate(-145.854 -5422.385)" fill="#fff" stroke="#000" stroke-miterlimit="10" stroke-width="3"/>
      <path id="Trazado_104475" data-name="Trazado 104475" d="M235.518,5435.682a30.25,30.25,0,0,0-11.992-11.9,12.312,12.312,0,0,0-5.57-1.263H190.084a10.579,10.579,0,0,0-4.556,1.027c-8.314,3.972-12.471,12.132-12.471,12.132-10.285,21.963,13.438,41.934,13.438,41.934l14.736-9.313,3.058-.371,3.059.371,13.993,10.286S245.713,5456.811,235.518,5435.682Z" transform="translate(-144.236 -5422.522)" fill="#fff" stroke="#000" stroke-linecap="round" stroke-linejoin="round" stroke-width="2"/>
      <path id="Trazado_104476" data-name="Trazado 104476" d="M204.105,5466.258s-18.071-6.543-30.859-32.012" transform="translate(-144.053 -5421.751)" fill="none" stroke="#000" stroke-linecap="round" stroke-linejoin="round" stroke-width="2"/>
      <path id="Trazado_104477" data-name="Trazado 104477" d="M201.838,5466.258s18.071-6.543,30.859-32.012" transform="translate(-142.174 -5421.751)" fill="none" stroke="#000" stroke-linecap="round" stroke-linejoin="round" stroke-width="2"/>
      <line id="Línea_308" data-name="Línea 308" y2="46.799" transform="translate(51.063 60.121)" fill="none" stroke="#000" stroke-linecap="round" stroke-linejoin="round" stroke-width="2"/>
      <line id="Línea_309" data-name="Línea 309" y2="46.799" transform="translate(69.041 60.121)" fill="none" stroke="#000" stroke-linecap="round" stroke-linejoin="round" stroke-width="2"/>
      <line id="Línea_310" data-name="Línea 310" x2="42.537" transform="translate(38.784 12.047)" fill="none" stroke="#000" stroke-linecap="round" stroke-linejoin="round" stroke-width="2"/>
      <circle id="Elipse_4186" data-name="Elipse 4186" cx="2.85" cy="2.85" r="2.85" transform="translate(57.619 93.437)"/>
      <circle id="Elipse_4187" data-name="Elipse 4187" cx="2.85" cy="2.85" r="2.85" transform="translate(57.619 73.628)"/>
      <circle id="Elipse_4188" data-name="Elipse 4188" cx="2.85" cy="2.85" r="2.85" transform="translate(57.619 53.82)"/>
    </g>
    <g id="Grupo_54477" data-name="Grupo 54477" transform="translate(367.151 5215.737)">
      <path id="Trazado_104478" data-name="Trazado 104478" d="M468.012,5322.783H359.4a6.025,6.025,0,0,1-6.024-6.024v-67.422a6.483,6.483,0,0,1,3.73-5.871l56.322-26.423,54.449,25.545a9.739,9.739,0,0,1,5.6,8.817v65.91A5.468,5.468,0,0,1,468.012,5322.783Z" transform="translate(-353.376 -5214.819)" fill="#fff" stroke="#000" stroke-miterlimit="10" stroke-width="3"/>
      <path id="Trazado_104479" data-name="Trazado 104479" d="M443.071,5228.116a30.812,30.812,0,0,0-10.176-10.873,15.737,15.737,0,0,0-8.318-2.287H398.451a13.626,13.626,0,0,0-6.581,1.651,30.5,30.5,0,0,0-11.26,11.509c-7.691,15.629.622,31.057,7.193,39.766a8.511,8.511,0,0,0,12.753.927l7.411-7.271a3.369,3.369,0,0,1,1.951-.938l1.519-.185a3.511,3.511,0,0,1,.81,0l1.518.185a3.363,3.363,0,0,1,1.951.938l7.189,7.053a8.772,8.772,0,0,0,13.163-.961C442.606,5258.878,450.69,5243.6,443.071,5228.116Z" transform="translate(-351.789 -5214.956)" fill="#fff" stroke="#000" stroke-linecap="round" stroke-linejoin="round" stroke-width="2"/>
      <path id="Trazado_104480" data-name="Trazado 104480" d="M411.627,5258.691s-18.071-6.542-30.86-32.011" transform="translate(-351.576 -5214.186)" fill="none" stroke="#000" stroke-linecap="round" stroke-linejoin="round" stroke-width="2"/>
      <path id="Trazado_104481" data-name="Trazado 104481" d="M409.359,5258.691s18.072-6.542,30.86-32.011" transform="translate(-349.696 -5214.186)" fill="none" stroke="#000" stroke-linecap="round" stroke-linejoin="round" stroke-width="2"/>
      <line id="Línea_311" data-name="Línea 311" y2="46.799" transform="translate(51.062 60.122)" fill="none" stroke="#000" stroke-linecap="round" stroke-linejoin="round" stroke-width="2"/>
      <line id="Línea_312" data-name="Línea 312" y2="46.799" transform="translate(69.041 60.122)" fill="none" stroke="#000" stroke-linecap="round" stroke-linejoin="round" stroke-width="2"/>
      <line id="Línea_313" data-name="Línea 313" x2="42.537" transform="translate(38.783 12.048)" fill="none" stroke="#000" stroke-linecap="round" stroke-linejoin="round" stroke-width="2"/>
      <circle id="Elipse_4189" data-name="Elipse 4189" cx="2.85" cy="2.85" r="2.85" transform="translate(57.619 93.437)"/>
      <circle id="Elipse_4190" data-name="Elipse 4190" cx="2.85" cy="2.85" r="2.85" transform="translate(57.619 73.629)"/>
      <circle id="Elipse_4191" data-name="Elipse 4191" cx="2.85" cy="2.85" r="2.85" transform="translate(57.619 53.82)"/>
    </g>
    <g id="Grupo_54478" data-name="Grupo 54478" transform="translate(588.129 5215.205)">
      <path id="Trazado_104482" data-name="Trazado 104482" d="M675.36,5322.283H566.747a6.024,6.024,0,0,1-6.023-6.024v-67.422a6.485,6.485,0,0,1,3.73-5.872l56.322-26.422,54.448,25.543a9.738,9.738,0,0,1,5.6,8.817v65.911A5.468,5.468,0,0,1,675.36,5322.283Z" transform="translate(-560.724 -5214.32)" fill="#fff" stroke="#000" stroke-miterlimit="10" stroke-width="3"/>
      <path id="Trazado_104483" data-name="Trazado 104483" d="M650.421,5227.616a30.808,30.808,0,0,0-10.176-10.872,15.734,15.734,0,0,0-8.318-2.286H605.8a13.617,13.617,0,0,0-6.58,1.649,30.5,30.5,0,0,0-11.262,11.509c-11.676,23.725,13.23,53.565,13.23,53.565s6.023-17.421,14.126-20.144c.7-.235,3.47-1.122,3.47-1.122a3.448,3.448,0,0,1,.809,0s2.782.85,3.47,1.122c9.309,3.695,13.9,20.144,13.9,20.144S662.1,5251.34,650.421,5227.616Z" transform="translate(-559.139 -5214.458)" fill="#fff" stroke="#000" stroke-linecap="round" stroke-linejoin="round" stroke-width="2"/>
      <path id="Trazado_104484" data-name="Trazado 104484" d="M618.975,5258.192s-18.072-6.542-30.86-32.011" transform="translate(-558.924 -5213.687)" fill="none" stroke="#000" stroke-linecap="round" stroke-linejoin="round" stroke-width="2"/>
      <path id="Trazado_104485" data-name="Trazado 104485" d="M616.707,5258.192s18.072-6.542,30.86-32.011" transform="translate(-557.044 -5213.687)" fill="none" stroke="#000" stroke-linecap="round" stroke-linejoin="round" stroke-width="2"/>
      <line id="Línea_314" data-name="Línea 314" y2="46.799" transform="translate(51.062 60.121)" fill="none" stroke="#000" stroke-linecap="round" stroke-linejoin="round" stroke-width="2"/>
      <line id="Línea_315" data-name="Línea 315" y2="46.799" transform="translate(69.041 60.121)" fill="none" stroke="#000" stroke-linecap="round" stroke-linejoin="round" stroke-width="2"/>
      <line id="Línea_316" data-name="Línea 316" x2="42.537" transform="translate(38.783 12.047)" fill="none" stroke="#000" stroke-linecap="round" stroke-linejoin="round" stroke-width="2"/>
      <circle id="Elipse_4192" data-name="Elipse 4192" cx="2.85" cy="2.85" r="2.85" transform="translate(57.619 93.436)"/>
      <circle id="Elipse_4193" data-name="Elipse 4193" cx="2.85" cy="2.85" r="2.85" transform="translate(57.619 73.628)"/>
      <circle id="Elipse_4194" data-name="Elipse 4194" cx="2.85" cy="2.85" r="2.85" transform="translate(57.619 53.819)"/>
      <circle id="Elipse_4195" data-name="Elipse 4195" cx="1.541" cy="1.541" r="1.541" transform="translate(77.729 56.669)"/>
      <circle id="Elipse_4196" data-name="Elipse 4196" cx="1.541" cy="1.541" r="1.541" transform="translate(40.405 56.669)"/>
    </g>
    <g id="Grupo_54479" data-name="Grupo 54479" transform="translate(366.039 5436.784)">
      <path id="Trazado_104486" data-name="Trazado 104486" d="M466.969,5530.2H358.357a6.024,6.024,0,0,1-6.025-6.023V5456.75a6.485,6.485,0,0,1,3.731-5.871l56.321-26.421L466.833,5450a9.739,9.739,0,0,1,5.6,8.817v65.911A5.467,5.467,0,0,1,466.969,5530.2Z" transform="translate(-352.332 -5422.232)" fill="#fff" stroke="#000" stroke-miterlimit="10" stroke-width="3"/>
      <path id="Trazado_104487" data-name="Trazado 104487" d="M442.03,5435.529a30.8,30.8,0,0,0-10.177-10.873,15.728,15.728,0,0,0-8.317-2.286H397.409a13.614,13.614,0,0,0-6.58,1.651,30.493,30.493,0,0,0-11.26,11.509c-11.676,23.724,13.23,53.564,13.23,53.564s6.024-17.421,14.126-20.143c.7-.236,3.47-1.123,3.47-1.123a3.448,3.448,0,0,1,.809,0s2.781.849,3.47,1.123c9.309,3.695,13.9,20.143,13.9,20.143S453.706,5459.253,442.03,5435.529Z" transform="translate(-350.746 -5422.37)" fill="#fff" stroke="#000" stroke-linecap="round" stroke-linejoin="round" stroke-width="2"/>
      <path id="Trazado_104488" data-name="Trazado 104488" d="M410.583,5466.1s-18.071-6.543-30.859-32.011" transform="translate(-350.531 -5421.599)" fill="none" stroke="#000" stroke-linecap="round" stroke-linejoin="round" stroke-width="2"/>
      <path id="Trazado_104489" data-name="Trazado 104489" d="M408.316,5466.1s18.071-6.543,30.859-32.011" transform="translate(-348.652 -5421.599)" fill="none" stroke="#000" stroke-linecap="round" stroke-linejoin="round" stroke-width="2"/>
      <line id="Línea_317" data-name="Línea 317" y2="46.799" transform="translate(51.063 60.122)" fill="none" stroke="#000" stroke-linecap="round" stroke-linejoin="round" stroke-width="2"/>
      <line id="Línea_318" data-name="Línea 318" y2="46.799" transform="translate(69.041 60.122)" fill="none" stroke="#000" stroke-linecap="round" stroke-linejoin="round" stroke-width="2"/>
      <line id="Línea_319" data-name="Línea 319" x2="42.537" transform="translate(38.784 12.048)" fill="none" stroke="#000" stroke-linecap="round" stroke-linejoin="round" stroke-width="2"/>
      <line id="Línea_320" data-name="Línea 320" x2="28.033" transform="translate(46.151 58.21)" fill="none" stroke="#000" stroke-linecap="round" stroke-linejoin="round" stroke-width="2"/>
      <circle id="Elipse_4197" data-name="Elipse 4197" cx="2.85" cy="2.85" r="2.85" transform="translate(57.62 93.437)"/>
      <circle id="Elipse_4198" data-name="Elipse 4198" cx="2.85" cy="2.85" r="2.85" transform="translate(57.62 73.629)"/>
      <circle id="Elipse_4199" data-name="Elipse 4199" cx="2.85" cy="2.85" r="2.85" transform="translate(57.62 53.82)"/>
      <circle id="Elipse_4200" data-name="Elipse 4200" cx="1.541" cy="1.541" r="1.541" transform="translate(77.73 56.67)"/>
      <circle id="Elipse_4201" data-name="Elipse 4201" cx="1.541" cy="1.541" r="1.541" transform="translate(40.406 56.67)"/>
    </g>
    <g id="Grupo_54480" data-name="Grupo 54480" transform="translate(809.573 5215.042)">
      <path id="Trazado_104490" data-name="Trazado 104490" d="M883.147,5322.13H774.535a6.024,6.024,0,0,1-6.025-6.023v-67.423a6.484,6.484,0,0,1,3.731-5.871l56.321-26.422,54.449,25.543a9.739,9.739,0,0,1,5.6,8.817v65.911A5.467,5.467,0,0,1,883.147,5322.13Z" transform="translate(-768.51 -5214.167)" fill="#fff" stroke="#000" stroke-miterlimit="10" stroke-width="3"/>
      <path id="Trazado_104491" data-name="Trazado 104491" d="M858.135,5227.464a30.8,30.8,0,0,0-10.177-10.873,15.734,15.734,0,0,0-8.317-2.287H813.514a13.614,13.614,0,0,0-6.58,1.651,30.492,30.492,0,0,0-11.26,11.509c-7.65,20.991,9.774,39.572,9.774,39.572s11.966-7.763,20.143-7.287a5.507,5.507,0,0,0,.908.014,3.51,3.51,0,0,1,.81,0s.036.01.773.1a59.3,59.3,0,0,1,20.314,6.361S866.7,5247.667,858.135,5227.464Z" transform="translate(-766.852 -5214.304)" fill="#fff" stroke="#000" stroke-linecap="round" stroke-linejoin="round" stroke-width="2"/>
      <path id="Trazado_104492" data-name="Trazado 104492" d="M826.761,5258.04s-18.071-6.543-30.859-32.011" transform="translate(-766.709 -5213.534)" fill="none" stroke="#000" stroke-linecap="round" stroke-linejoin="round" stroke-width="2"/>
      <path id="Trazado_104493" data-name="Trazado 104493" d="M824.494,5258.04s18.071-6.543,30.859-32.011" transform="translate(-764.83 -5213.534)" fill="none" stroke="#000" stroke-linecap="round" stroke-linejoin="round" stroke-width="2"/>
      <line id="Línea_321" data-name="Línea 321" y2="46.799" transform="translate(51.063 60.122)" fill="none" stroke="#000" stroke-linecap="round" stroke-linejoin="round" stroke-width="2"/>
      <line id="Línea_322" data-name="Línea 322" y2="46.799" transform="translate(69.041 60.122)" fill="none" stroke="#000" stroke-linecap="round" stroke-linejoin="round" stroke-width="2"/>
      <line id="Línea_323" data-name="Línea 323" x2="42.537" transform="translate(38.784 12.048)" fill="none" stroke="#000" stroke-linecap="round" stroke-linejoin="round" stroke-width="2"/>
      <circle id="Elipse_4202" data-name="Elipse 4202" cx="2.85" cy="2.85" r="2.85" transform="translate(57.619 93.437)"/>
      <circle id="Elipse_4203" data-name="Elipse 4203" cx="2.85" cy="2.85" r="2.85" transform="translate(57.619 73.629)"/>
      <circle id="Elipse_4204" data-name="Elipse 4204" cx="2.85" cy="2.85" r="2.85" transform="translate(57.619 53.82)"/>
    </g>
    <g id="Grupo_54481" data-name="Grupo 54481" transform="translate(1029.637 5215.042)">
      <path id="Trazado_104494" data-name="Trazado 104494" d="M1089.637,5322.13H981.025a6.024,6.024,0,0,1-6.024-6.023v-67.423a6.482,6.482,0,0,1,3.731-5.871l56.321-26.422,54.449,25.543a9.739,9.739,0,0,1,5.6,8.817v65.911A5.467,5.467,0,0,1,1089.637,5322.13Z" transform="translate(-975.001 -5214.167)" fill="#fff" stroke="#000" stroke-miterlimit="10" stroke-width="3"/>
      <line id="Línea_324" data-name="Línea 324" y2="46.799" transform="translate(51.063 60.122)" fill="none" stroke="#000" stroke-linecap="round" stroke-linejoin="round" stroke-width="2"/>
      <line id="Línea_325" data-name="Línea 325" y2="46.799" transform="translate(69.041 60.122)" fill="none" stroke="#000" stroke-linecap="round" stroke-linejoin="round" stroke-width="2"/>
      <circle id="Elipse_4205" data-name="Elipse 4205" cx="2.85" cy="2.85" r="2.85" transform="translate(57.619 93.437)"/>
      <circle id="Elipse_4206" data-name="Elipse 4206" cx="2.85" cy="2.85" r="2.85" transform="translate(58.61 72.638)"/>
      <circle id="Elipse_4207" data-name="Elipse 4207" cx="2.85" cy="2.85" r="2.85" transform="translate(57.619 50.391)"/>
      <rect id="Rectángulo_5408" data-name="Rectángulo 5408" width="37.81" height="4.448" transform="translate(41.313 59.913)" fill="#fff" stroke="#000" stroke-miterlimit="10" stroke-width="1"/>
      <path id="Trazado_104495" data-name="Trazado 104495" d="M1064.632,5227.464a30.8,30.8,0,0,0-10.176-10.873,15.733,15.733,0,0,0-8.317-2.287h-26.128a13.61,13.61,0,0,0-6.58,1.651,30.5,30.5,0,0,0-11.262,11.509c-7.649,20.991,8.495,63.318,8.495,63.318s13.246-31.509,21.423-31.033a5.505,5.505,0,0,0,.908.014,3.51,3.51,0,0,1,.81,0s.036.01.772.1c11.672,1.407,21.4,30.92,21.4,30.92S1073.2,5247.667,1064.632,5227.464Z" transform="translate(-973.35 -5214.304)" fill="#fff" stroke="#000" stroke-linecap="round" stroke-linejoin="round" stroke-width="2"/>
      <path id="Trazado_104496" data-name="Trazado 104496" d="M1033.252,5258.04s-18.071-6.543-30.859-32.011" transform="translate(-973.2 -5213.534)" fill="none" stroke="#000" stroke-linecap="round" stroke-linejoin="round" stroke-width="2"/>
      <path id="Trazado_104497" data-name="Trazado 104497" d="M1030.985,5258.04s18.071-6.543,30.859-32.011" transform="translate(-971.321 -5213.534)" fill="none" stroke="#000" stroke-linecap="round" stroke-linejoin="round" stroke-width="2"/>
      <line id="Línea_326" data-name="Línea 326" x2="42.537" transform="translate(38.784 12.048)" fill="none" stroke="#000" stroke-linecap="round" stroke-linejoin="round" stroke-width="2"/>
    </g>
    <g id="Grupo_54482" data-name="Grupo 54482" transform="translate(366.039 5656.535)">
      <path id="Trazado_104498" data-name="Trazado 104498" d="M466.969,5736.393H358.357a6.024,6.024,0,0,1-6.025-6.023v-67.423a6.486,6.486,0,0,1,3.731-5.871l56.321-26.422,54.449,25.545a9.738,9.738,0,0,1,5.6,8.816v65.911A5.467,5.467,0,0,1,466.969,5736.393Z" transform="translate(-352.332 -5628.43)" fill="#fff" stroke="#000" stroke-miterlimit="10" stroke-width="3"/>
      <path id="Trazado_104499" data-name="Trazado 104499" d="M441.964,5641.727a30.8,30.8,0,0,0-10.177-10.874,15.746,15.746,0,0,0-8.317-2.286H397.343a13.6,13.6,0,0,0-6.58,1.651,30.482,30.482,0,0,0-11.261,11.509c-7.65,20.989,8.494,63.318,8.494,63.318s13.246-31.51,21.423-31.035a5.477,5.477,0,0,0,.909.015,3.3,3.3,0,0,1,.809,0s.036.01.773.1c11.671,1.407,21.4,30.921,21.4,30.921S450.532,5661.929,441.964,5641.727Z" transform="translate(-350.681 -5628.567)" fill="#fff" stroke="#000" stroke-linecap="round" stroke-linejoin="round" stroke-width="2"/>
      <path id="Trazado_104500" data-name="Trazado 104500" d="M410.583,5672.3s-18.071-6.543-30.859-32.012" transform="translate(-350.531 -5627.796)" fill="none" stroke="#000" stroke-linecap="round" stroke-linejoin="round" stroke-width="2"/>
      <path id="Trazado_104501" data-name="Trazado 104501" d="M408.316,5672.3s18.071-6.543,30.859-32.012" transform="translate(-348.652 -5627.796)" fill="none" stroke="#000" stroke-linecap="round" stroke-linejoin="round" stroke-width="2"/>
      <line id="Línea_327" data-name="Línea 327" y2="46.799" transform="translate(51.063 60.122)" fill="none" stroke="#000" stroke-linecap="round" stroke-linejoin="round" stroke-width="2"/>
      <line id="Línea_328" data-name="Línea 328" y2="46.799" transform="translate(69.041 60.122)" fill="none" stroke="#000" stroke-linecap="round" stroke-linejoin="round" stroke-width="2"/>
      <line id="Línea_329" data-name="Línea 329" x2="42.537" transform="translate(38.784 12.048)" fill="none" stroke="#000" stroke-linecap="round" stroke-linejoin="round" stroke-width="2"/>
      <circle id="Elipse_4208" data-name="Elipse 4208" cx="2.85" cy="2.85" r="2.85" transform="translate(57.62 93.437)"/>
      <circle id="Elipse_4209" data-name="Elipse 4209" cx="2.85" cy="2.85" r="2.85" transform="translate(57.62 73.628)"/>
      <circle id="Elipse_4210" data-name="Elipse 4210" cx="2.85" cy="2.85" r="2.85" transform="translate(57.62 53.82)"/>
    </g>
    <g id="Grupo_54486" data-name="Grupo 54486" transform="translate(587.626 5436.205)">
      <g id="Grupo_54484" data-name="Grupo 54484">
        <path id="Trazado_104502" data-name="Trazado 104502" d="M678.252,5529.652H562.912a2.66,2.66,0,0,1-2.66-2.659v-72.924a3.121,3.121,0,0,1,1.8-2.825l58.256-27.331,56.385,26.453a6.374,6.374,0,0,1,3.667,5.771v71.413A2.1,2.1,0,0,1,678.252,5529.652Z" transform="translate(-560.252 -5421.689)" fill="#fff" stroke="#000" stroke-miterlimit="10" stroke-width="3"/>
        <path id="Trazado_104503" data-name="Trazado 104503" d="M650.009,5434.986a30.241,30.241,0,0,0-11.992-11.9,12.3,12.3,0,0,0-5.569-1.264H604.574a10.573,10.573,0,0,0-4.556,1.028c-8.314,3.971-12.471,12.131-12.471,12.131-.869,1.066-4.088,5.635-4.088,5.635s14.966,23.9,22.288,27.426l13.032-1.714,13.426,1.714c12.556-9.175,22.8-27,22.8-27S651.1,5437.246,650.009,5434.986Z" transform="translate(-558.727 -5421.827)" fill="#fff" stroke="#000" stroke-linecap="round" stroke-linejoin="round" stroke-width="2"/>
        <path id="Trazado_104504" data-name="Trazado 104504" d="M618.5,5465.562s-18.07-6.542-30.859-32.011" transform="translate(-558.451 -5421.056)" fill="none" stroke="#000" stroke-linecap="round" stroke-linejoin="round" stroke-width="2"/>
        <path id="Trazado_104505" data-name="Trazado 104505" d="M616.236,5465.562s18.071-6.542,30.859-32.011" transform="translate(-556.572 -5421.056)" fill="none" stroke="#000" stroke-linecap="round" stroke-linejoin="round" stroke-width="2"/>
        <line id="Línea_330" data-name="Línea 330" y2="52.041" transform="translate(51.063 54.76)" fill="none" stroke="#000" stroke-linecap="round" stroke-linejoin="round" stroke-width="2"/>
        <line id="Línea_331" data-name="Línea 331" y2="52.041" transform="translate(69.041 54.76)" fill="none" stroke="#000" stroke-linecap="round" stroke-linejoin="round" stroke-width="2"/>
        <line id="Línea_332" data-name="Línea 332" y2="52.041" transform="translate(78.343 54.76)" fill="none" stroke="#000" stroke-linecap="round" stroke-linejoin="round" stroke-width="2"/>
        <line id="Línea_333" data-name="Línea 333" y2="62.295" transform="translate(87.101 44.506)" fill="none" stroke="#000" stroke-linecap="round" stroke-linejoin="round" stroke-width="2"/>
        <line id="Línea_334" data-name="Línea 334" y2="69.779" transform="translate(96.275 37.023)" fill="none" stroke="#000" stroke-linecap="round" stroke-linejoin="round" stroke-width="2"/>
        <g id="Grupo_54483" data-name="Grupo 54483" transform="translate(25.798 37.023)">
          <line id="Línea_335" data-name="Línea 335" y2="52.041" transform="translate(17.932 17.738)" fill="none" stroke="#000" stroke-linecap="round" stroke-linejoin="round" stroke-width="2"/>
          <line id="Línea_336" data-name="Línea 336" y2="62.295" transform="translate(9.175 7.483)" fill="none" stroke="#000" stroke-linecap="round" stroke-linejoin="round" stroke-width="2"/>
          <line id="Línea_337" data-name="Línea 337" y2="69.779" fill="none" stroke="#000" stroke-linecap="round" stroke-linejoin="round" stroke-width="2"/>
        </g>
        <line id="Línea_338" data-name="Línea 338" x2="42.537" transform="translate(38.784 12.047)" fill="none" stroke="#000" stroke-linecap="round" stroke-linejoin="round" stroke-width="2"/>
        <circle id="Elipse_4211" data-name="Elipse 4211" cx="2.85" cy="2.85" r="2.85" transform="translate(57.619 92.51)"/>
        <circle id="Elipse_4212" data-name="Elipse 4212" cx="2.85" cy="2.85" r="2.85" transform="translate(57.619 69.852)"/>
        <circle id="Elipse_4213" data-name="Elipse 4213" cx="2.85" cy="2.85" r="2.85" transform="translate(57.619 48.12)"/>
      </g>
      <g id="Grupo_54485" data-name="Grupo 54485" transform="translate(43.465 34.188)">
        <path id="Trazado_104506" data-name="Trazado 104506" d="M601.036,5453.906v20.635l16.39-10.317Z" transform="translate(-601.036 -5453.906)" fill="#fff" stroke="#000" stroke-linecap="round" stroke-linejoin="round" stroke-width="2"/>
        <path id="Trazado_104507" data-name="Trazado 104507" d="M633.175,5453.906v20.635l-16.39-10.317Z" transform="translate(-600.001 -5453.906)" fill="#fff" stroke="#000" stroke-linecap="round" stroke-linejoin="round" stroke-width="2"/>
      </g>
      <line id="Línea_339" data-name="Línea 339" y1="12.814" x2="29.444" transform="translate(0.637 26.873)" fill="none" stroke="#000" stroke-linecap="round" stroke-linejoin="round" stroke-width="2"/>
      <line id="Línea_340" data-name="Línea 340" x1="29.444" y1="12.814" transform="translate(91.224 26.873)" fill="none" stroke="#000" stroke-linecap="round" stroke-linejoin="round" stroke-width="2"/>
    </g>
    <g id="Grupo_54487" data-name="Grupo 54487" transform="translate(808.169 5436.205)">
      <path id="Trazado_104508" data-name="Trazado 104508" d="M885.192,5529.652H769.852a2.66,2.66,0,0,1-2.66-2.659v-72.924a3.121,3.121,0,0,1,1.8-2.825l58.256-27.331,56.385,26.453a6.374,6.374,0,0,1,3.667,5.771v71.413A2.1,2.1,0,0,1,885.192,5529.652Z" transform="translate(-767.192 -5421.689)" fill="#fff" stroke="#000" stroke-miterlimit="10" stroke-width="3"/>
      <path id="Trazado_104509" data-name="Trazado 104509" d="M857.134,5434.986a30.248,30.248,0,0,0-11.993-11.9,12.3,12.3,0,0,0-5.569-1.264H811.7a10.573,10.573,0,0,0-4.556,1.028c-8.314,3.971-12.47,12.131-12.47,12.131-.869,1.066-7.08,7.692-7.08,7.692s17.956,21.847,25.278,25.369c0,0,4.748,3.3,13.032,3.291a28.425,28.425,0,0,0,13.426-3.291c12.558-9.175,23.546-26.093,23.546-26.093S858.223,5437.246,857.134,5434.986Z" transform="translate(-765.851 -5421.827)" fill="#fff" stroke="#000" stroke-linecap="round" stroke-linejoin="round" stroke-width="2"/>
      <line id="Línea_341" data-name="Línea 341" y2="58.056" transform="translate(51.063 48.746)" fill="none" stroke="#000" stroke-linecap="round" stroke-linejoin="round" stroke-width="2"/>
      <line id="Línea_342" data-name="Línea 342" y2="58.056" transform="translate(69.041 48.746)" fill="none" stroke="#000" stroke-linecap="round" stroke-linejoin="round" stroke-width="2"/>
      <line id="Línea_343" data-name="Línea 343" x2="42.537" transform="translate(38.784 12.047)" fill="none" stroke="#000" stroke-linecap="round" stroke-linejoin="round" stroke-width="2"/>
      <circle id="Elipse_4214" data-name="Elipse 4214" cx="2.85" cy="2.85" r="2.85" transform="translate(57.619 96.194)"/>
      <circle id="Elipse_4215" data-name="Elipse 4215" cx="2.85" cy="2.85" r="2.85" transform="translate(57.619 75.829)"/>
      <circle id="Elipse_4216" data-name="Elipse 4216" cx="2.85" cy="2.85" r="2.85" transform="translate(57.619 56.739)"/>
      <path id="Trazado_104510" data-name="Trazado 104510" d="M826.112,5470.094v-5.661s-.843-4.448,3.965-8.248a244.958,244.958,0,0,0,24.9-21.292" transform="translate(-763.323 -5420.967)" fill="none" stroke="#000" stroke-linecap="round" stroke-linejoin="round" stroke-width="2"/>
      <path id="Trazado_104511" data-name="Trazado 104511" d="M822.844,5470.094v-5.661s.824-4.448-3.876-8.248a241.015,241.015,0,0,1-24.336-21.292" transform="translate(-765.388 -5420.967)" fill="none" stroke="#000" stroke-linecap="round" stroke-linejoin="round" stroke-width="2"/>
    </g>
    <g id="Grupo_54488" data-name="Grupo 54488" transform="translate(1029.637 5437.317)">
      <path id="Trazado_104512" data-name="Trazado 104512" d="M1089.637,5530.7H981.025a6.024,6.024,0,0,1-6.024-6.024V5457.25a6.485,6.485,0,0,1,3.731-5.871l56.321-26.421L1089.5,5450.5a9.74,9.74,0,0,1,5.6,8.817v65.911A5.468,5.468,0,0,1,1089.637,5530.7Z" transform="translate(-975.001 -5422.732)" fill="#fff" stroke="#000" stroke-miterlimit="10" stroke-width="3"/>
      <path id="Trazado_104513" data-name="Trazado 104513" d="M1064.674,5436.028a30.81,30.81,0,0,0-10.175-10.872,15.729,15.729,0,0,0-8.317-2.286h-26.128a13.623,13.623,0,0,0-6.58,1.65,30.5,30.5,0,0,0-11.262,11.509c-9,18.289,6.456,34.235,14.013,40.584a3.624,3.624,0,0,0,5.421-.921,14.468,14.468,0,0,1,7.923-6.241c.7-.235,3.469-1.122,3.469-1.122a3.4,3.4,0,0,1,.81,0s2.781.849,3.47,1.122c9.308,3.695,15.343,27.048,15.343,27.048C1058.936,5479.54,1076.351,5459.753,1064.674,5436.028Z" transform="translate(-973.392 -5422.87)" fill="#fff" stroke="#000" stroke-linecap="round" stroke-linejoin="round" stroke-width="2"/>
      <path id="Trazado_104514" data-name="Trazado 104514" d="M1033.252,5466.606s-18.071-6.543-30.859-32.011" transform="translate(-973.2 -5422.099)" fill="none" stroke="#000" stroke-linecap="round" stroke-linejoin="round" stroke-width="2"/>
      <path id="Trazado_104515" data-name="Trazado 104515" d="M1030.985,5466.606s18.071-6.543,30.859-32.011" transform="translate(-971.321 -5422.099)" fill="none" stroke="#000" stroke-linecap="round" stroke-linejoin="round" stroke-width="2"/>
      <line id="Línea_344" data-name="Línea 344" y2="46.799" transform="translate(51.063 60.122)" fill="none" stroke="#000" stroke-linecap="round" stroke-linejoin="round" stroke-width="2"/>
      <line id="Línea_345" data-name="Línea 345" y2="46.799" transform="translate(69.041 60.122)" fill="none" stroke="#000" stroke-linecap="round" stroke-linejoin="round" stroke-width="2"/>
      <line id="Línea_346" data-name="Línea 346" x2="42.537" transform="translate(38.784 12.048)" fill="none" stroke="#000" stroke-linecap="round" stroke-linejoin="round" stroke-width="2"/>
      <circle id="Elipse_4217" data-name="Elipse 4217" cx="2.85" cy="2.85" r="2.85" transform="translate(57.619 93.437)"/>
      <circle id="Elipse_4218" data-name="Elipse 4218" cx="2.85" cy="2.85" r="2.85" transform="translate(57.619 73.629)"/>
      <circle id="Elipse_4219" data-name="Elipse 4219" cx="2.85" cy="2.85" r="2.85" transform="translate(57.619 53.82)"/>
      <circle id="Elipse_4220" data-name="Elipse 4220" cx="1.444" cy="1.444" r="1.444" transform="translate(39.471 60.462)"/>
      <path id="Trazado_104516" data-name="Trazado 104516" d="M1019.53,5475.832s-.889-24.9,3.745-32.873c0,0-8.54,10.9-22.07,12.756,0,0,.9,5.243,7.39,12.287S1019.53,5475.832,1019.53,5475.832Z" transform="translate(-973.279 -5421.549)" fill="#fff" stroke="#000" stroke-linecap="round" stroke-linejoin="round" stroke-width="2"/>
    </g>
    <g id="Grupo_54489" data-name="Grupo 54489" transform="translate(143.811 5656.374)">
      <path id="Trazado_104517" data-name="Trazado 104517" d="M261.811,5736.242H146.47a2.659,2.659,0,0,1-2.659-2.66v-72.925a3.121,3.121,0,0,1,1.795-2.825l58.257-27.33,56.384,26.452a6.376,6.376,0,0,1,3.667,5.772v71.412A2.1,2.1,0,0,1,261.811,5736.242Z" transform="translate(-143.811 -5628.278)" fill="#fff" stroke="#000" stroke-miterlimit="10" stroke-width="3"/>
      <path id="Trazado_104518" data-name="Trazado 104518" d="M221.639,5629.679a12.313,12.313,0,0,0-5.571-1.264H188.2a10.572,10.572,0,0,0-4.555,1.028c-8.314,3.971-17.585,18.129-17.585,18.129s8.835,20.483,23.312,27.062c0,0,4.749,3.3,13.033,3.29a28.4,28.4,0,0,0,13.425-3.29c15.966-9.407,23.547-26.092,23.547-26.092S229.633,5633.728,221.639,5629.679Z" transform="translate(-142.349 -5628.416)" fill="#fff" stroke="#000" stroke-linecap="round" stroke-linejoin="round" stroke-width="2"/>
      <line id="Línea_347" data-name="Línea 347" y2="72.461" transform="translate(51.062 34.34)" fill="none" stroke="#000" stroke-linecap="round" stroke-linejoin="round" stroke-width="2"/>
      <line id="Línea_348" data-name="Línea 348" y2="58.056" transform="translate(69.041 48.746)" fill="none" stroke="#000" stroke-linecap="round" stroke-linejoin="round" stroke-width="2"/>
      <line id="Línea_349" data-name="Línea 349" x2="42.537" transform="translate(38.783 12.047)" fill="none" stroke="#000" stroke-linecap="round" stroke-linejoin="round" stroke-width="2"/>
      <circle id="Elipse_4221" data-name="Elipse 4221" cx="2.85" cy="2.85" r="2.85" transform="translate(57.619 96.194)"/>
      <circle id="Elipse_4222" data-name="Elipse 4222" cx="2.85" cy="2.85" r="2.85" transform="translate(57.619 75.829)"/>
      <circle id="Elipse_4223" data-name="Elipse 4223" cx="2.85" cy="2.85" r="2.85" transform="translate(57.619 56.739)"/>
      <circle id="Elipse_4224" data-name="Elipse 4224" cx="2.85" cy="2.85" r="2.85" transform="translate(57.619 39.641)"/>
      <path id="Trazado_104519" data-name="Trazado 104519" d="M170.838,5640.087s12.823,23.91,31.665,23.168,23.853-10.9,31.637-22.208" transform="translate(-142.034 -5627.648)" fill="none" stroke="#000" stroke-linecap="round" stroke-linejoin="round" stroke-width="2"/>
    </g>
    <g id="Grupo_54490" data-name="Grupo 54490" transform="translate(809.375 5658.192)">
      <path id="Trazado_104520" data-name="Trazado 104520" d="M885.691,5736.486H771.616c-1.818,0-3.292-1.826-3.292-4.076v-89.053a5.058,5.058,0,0,1,3.341-4.6l21.917-8.3a5.255,5.255,0,0,1,3.01-.213c4.722,1.055,19.544,4.156,31.784,4.438a125.313,125.313,0,0,0,31.292-3.449,5.236,5.236,0,0,1,2.814.083l21.129,6.553a5.01,5.01,0,0,1,1.769.939,9.4,9.4,0,0,1,3.047,7.158V5733.1C888.427,5734.969,887.2,5736.486,885.691,5736.486Z" transform="translate(-768.324 -5630.122)" fill="#fff" stroke="#000" stroke-miterlimit="10" stroke-width="3"/>
      <path id="Trazado_104521" data-name="Trazado 104521" d="M862.571,5631.081a3.388,3.388,0,0,0-4.371,1.77c-9.841,22.394-31.034,22.643-31.034,22.643s-21.192-.249-31.033-22.643a3.388,3.388,0,0,0-4.371-1.77l-3,1a3.209,3.209,0,0,0-1.86,4.085c3.03,8.12,12.018,29.608,39.494,29.277,27.477.331,37.491-21.462,40.521-29.583a3.209,3.209,0,0,0-1.86-4.085Z" transform="translate(-767.116 -5630.075)" fill="#fff" stroke="#000" stroke-miterlimit="10" stroke-width="2"/>
      <path id="Trazado_104522" data-name="Trazado 104522" d="M806.65,5641.239s7.251,2.924,18.65,2.919c12.657-.006,19.762-2.919,19.762-2.919" transform="translate(-765.805 -5629.392)" fill="none" stroke="#000" stroke-linecap="round" stroke-linejoin="round" stroke-width="2"/>
    </g>
    <g id="Grupo_54492" data-name="Grupo 54492" transform="translate(1029.637 5659.412)">
      <g id="Grupo_54491" data-name="Grupo 54491">
        <path id="Trazado_104523" data-name="Trazado 104523" d="M1092.368,5737.631H978.294c-1.819,0-3.293-1.825-3.293-4.075V5644.5a5.061,5.061,0,0,1,3.341-4.6l21.918-8.295a5.251,5.251,0,0,1,3.009-.214c4.723,1.056,19.546,4.158,31.784,4.438a125.409,125.409,0,0,0,31.292-3.447,5.216,5.216,0,0,1,2.813.083l21.129,6.552a5.012,5.012,0,0,1,1.769.94,9.4,9.4,0,0,1,3.048,7.158v87.126C1095.1,5736.114,1093.879,5737.631,1092.368,5737.631Z" transform="translate(-975.001 -5631.267)" fill="#fff" stroke="#000" stroke-miterlimit="10" stroke-width="3"/>
        <path id="Trazado_104524" data-name="Trazado 104524" d="M1013.327,5642.384s7.252,2.923,18.65,2.919c12.657,0,19.763-2.919,19.763-2.919" transform="translate(-972.482 -5630.536)" fill="none" stroke="#000" stroke-linecap="round" stroke-linejoin="round" stroke-width="2"/>
      </g>
      <path id="Trazado_104525" data-name="Trazado 104525" d="M1064.873,5633.392a75.727,75.727,0,0,1-30.133,44.329,1.272,1.272,0,0,1-1.459,0,75.731,75.731,0,0,1-30.134-44.329,1.24,1.24,0,0,0-1.674-.892l-6.539,2.579a1.258,1.258,0,0,0-.757,1.472c9.79,39.038,35.435,51.466,39.333,53.151a1.224,1.224,0,0,0,.99,0c3.831-1.7,29.125-14.27,38.912-53.321a1.261,1.261,0,0,0-.757-1.472l-6.108-2.408A1.241,1.241,0,0,0,1064.873,5633.392Z" transform="translate(-973.743 -5631.191)" fill="#fff" stroke="#000" stroke-miterlimit="10" stroke-width="2"/>
    </g>
    <g id="Grupo_54495" data-name="Grupo 54495" transform="translate(144.228 5879.787)">
      <g id="Grupo_54493" data-name="Grupo 54493">
        <path id="Trazado_104526" data-name="Trazado 104526" d="M261.569,5944.413H147.494c-1.818,0-3.292-1.824-3.292-4.076v-89.052a5.06,5.06,0,0,1,3.341-4.6l21.918-8.294a5.247,5.247,0,0,1,3.009-.214c4.722,1.056,19.544,4.157,31.784,4.438a125.362,125.362,0,0,0,31.292-3.449,5.226,5.226,0,0,1,2.814.084l21.129,6.552a5.01,5.01,0,0,1,1.769.94,9.4,9.4,0,0,1,3.048,7.158v87.126C264.306,5942.9,263.08,5944.413,261.569,5944.413Z" transform="translate(-144.202 -5838.048)" fill="#fff" stroke="#000" stroke-miterlimit="10" stroke-width="3"/>
        <path id="Trazado_104527" data-name="Trazado 104527" d="M182.528,5849.167s7.251,2.924,18.65,2.919c12.657-.005,19.763-2.919,19.763-2.919" transform="translate(-141.683 -5837.318)" fill="none" stroke="#000" stroke-linecap="round" stroke-linejoin="round" stroke-width="2"/>
      </g>
      <g id="Grupo_54494" data-name="Grupo 54494" transform="translate(18.828 0.94)">
        <path id="Trazado_104528" data-name="Trazado 104528" d="M203.761,5895.664l-5.839-3.961a23.578,23.578,0,0,0-6.533-11.816c-1.994-1.817-11.917-7.489-18.349-15.639-7.351-9.314-11.171-21.114-11.171-21.114l9.271-4.2a57.337,57.337,0,0,0,10.893,18.85c7.507,8.2,12.693,11.4,12.693,11.4s8.295,6.382,11.745,9.869C210.105,5882.726,203.761,5895.664,203.761,5895.664Z" transform="translate(-161.869 -5838.93)" fill="#fff" stroke="#000" stroke-miterlimit="10" stroke-width="2"/>
        <path id="Trazado_104529" data-name="Trazado 104529" d="M195.7,5914.5h12.094v-22.8s.185-7.044,5.421-11.816c1.994-1.817,11.918-7.489,18.35-15.639,7.35-9.314,11.171-21.114,11.171-21.114l-9.272-4.2a57.337,57.337,0,0,1-10.893,18.85c-7.507,8.2-12.692,11.4-12.692,11.4s-14.18,9.314-14.18,19.878Z" transform="translate(-159.645 -5838.93)" fill="#fff" stroke="#000" stroke-miterlimit="10" stroke-width="2"/>
      </g>
    </g>
    <g id="Grupo_54498" data-name="Grupo 54498" transform="translate(369.306 5879.041)">
      <g id="Grupo_54496" data-name="Grupo 54496" transform="translate(0 0.746)">
        <path id="Trazado_104530" data-name="Trazado 104530" d="M472.765,5944.413H358.69c-1.818,0-3.292-1.824-3.292-4.076v-89.052a5.06,5.06,0,0,1,3.341-4.6l21.917-8.294a5.251,5.251,0,0,1,3.01-.214c4.722,1.056,19.544,4.157,31.784,4.438a125.369,125.369,0,0,0,31.292-3.449,5.226,5.226,0,0,1,2.814.084l21.129,6.552a5.01,5.01,0,0,1,1.769.94,9.4,9.4,0,0,1,3.047,7.158v87.126C475.5,5942.9,474.276,5944.413,472.765,5944.413Z" transform="translate(-355.398 -5838.048)" fill="#fff" stroke="#000" stroke-miterlimit="10" stroke-width="3"/>
        <path id="Trazado_104531" data-name="Trazado 104531" d="M393.724,5849.167s7.251,2.924,18.65,2.919c12.657-.005,19.762-2.919,19.762-2.919" transform="translate(-352.879 -5837.318)" fill="none" stroke="#000" stroke-linecap="round" stroke-linejoin="round" stroke-width="2"/>
      </g>
      <g id="Grupo_54497" data-name="Grupo 54497" transform="translate(12.596 3.753)">
        <path id="Trazado_104532" data-name="Trazado 104532" d="M367.217,5842.864s8.366,36.8,44.121,36.937" transform="translate(-367.217 -5840.739)" fill="none" stroke="#000" stroke-miterlimit="10" stroke-width="2"/>
        <path id="Trazado_104533" data-name="Trazado 104533" d="M455.877,5840.871s-11.506,38.921-47.26,39.061" transform="translate(-364.496 -5840.871)" fill="none" stroke="#000" stroke-miterlimit="10" stroke-width="2"/>
      </g>
      <path id="Trazado_104534" data-name="Trazado 104534" d="M380.768,5837.348a71.045,71.045,0,0,0,12.05,39.162" transform="translate(-353.731 -5837.348)" fill="none" stroke="#000" stroke-miterlimit="10" stroke-width="2"/>
      <path id="Trazado_104535" data-name="Trazado 104535" d="M439.838,5839.609s1.961,18.568-15.1,36.944" transform="translate(-350.84 -5837.2)" fill="none" stroke="#000" stroke-miterlimit="10" stroke-width="2"/>
      <path id="Trazado_104536" data-name="Trazado 104536" d="M435.7,5863.46s-19.894,14.013-48.732,1.66" transform="translate(-353.323 -5835.632)" fill="none" stroke="#000" stroke-miterlimit="10" stroke-width="2"/>
    </g>
    <g id="Grupo_54500" data-name="Grupo 54500" transform="translate(585.604 5872.6)">
      <path id="Trazado_104537" data-name="Trazado 104537" d="M684.574,5954.338v-91.08a8.9,8.9,0,0,0-4.59-7.851l-35.722-19.342H598.389l-33.13,18.3a13.577,13.577,0,0,0-6.9,11.916v86.328" transform="translate(-558.355 -5830.991)" fill="#fff" stroke="#000" stroke-miterlimit="10" stroke-width="2"/>
      <path id="Trazado_104538" data-name="Trazado 104538" d="M660.55,5951.4v-71.356s2.464-23.018,7.886-28.854" transform="translate(-551.637 -5829.998)" fill="none" stroke="#000" stroke-miterlimit="10" stroke-width="2"/>
      <path id="Trazado_104539" data-name="Trazado 104539" d="M574.048,5951.368v-71.356s-1.958-22.541-7.38-28.376" transform="translate(-557.809 -5829.968)" fill="none" stroke="#000" stroke-miterlimit="10" stroke-width="2"/>
      <circle id="Elipse_4225" data-name="Elipse 4225" cx="2.068" cy="2.068" r="2.068" transform="translate(64.534 46.858)"/>
      <circle id="Elipse_4226" data-name="Elipse 4226" cx="2.068" cy="2.068" r="2.068" transform="translate(64.534 64.303)"/>
      <line id="Línea_350" data-name="Línea 350" y2="76.733" transform="translate(61.649 35.401)" fill="none" stroke="#000" stroke-linecap="round" stroke-linejoin="round" stroke-width="2"/>
      <path id="Trazado_104540" data-name="Trazado 104540" d="M610.192,5858.922l-13.345,14.271-4.819-24.744.834-6.446,5.282-2.265,12.047,13.808Z" transform="translate(-556.142 -5830.75)" fill="#fff" stroke="#000" stroke-linecap="round" stroke-linejoin="round" stroke-width="1"/>
      <path id="Trazado_104541" data-name="Trazado 104541" d="M584.427,5843.975l-4.88,12.463,11.077,8.758,5.175-5.236v-18.9l-1.1-3.007Z" transform="translate(-556.962 -5830.861)" fill="#fff" stroke="#000" stroke-linecap="round" stroke-linejoin="round" stroke-width="1"/>
      <g id="Grupo_54499" data-name="Grupo 54499" transform="translate(70.219 5.393)">
        <path id="Trazado_104542" data-name="Trazado 104542" d="M624.243,5858.922l13.345,14.271,4.819-24.744-.834-6.446-5.282-2.265-12.047,13.808Z" transform="translate(-624.243 -5836.143)" fill="#fff" stroke="#000" stroke-linecap="round" stroke-linejoin="round" stroke-width="1"/>
        <path id="Trazado_104543" data-name="Trazado 104543" d="M650.6,5842.226l4.171,14.323-11.077,8.758-5.174-5.236v-18.905l1.751-4.8Z" transform="translate(-623.305 -5836.365)" fill="#fff" stroke="#000" stroke-linecap="round" stroke-linejoin="round" stroke-width="1"/>
      </g>
      <path id="Trazado_104544" data-name="Trazado 104544" d="M595.855,5853.3l-16.308,15.951s18.169,48.574,38,74.831c2,2.643,2.526-5.17,2.526-5.17Z" transform="translate(-556.962 -5829.858)" fill="#fff" stroke="#000" stroke-linecap="round" stroke-linejoin="round" stroke-width="1"/>
      <path id="Trazado_104545" data-name="Trazado 104545" d="M617.609,5866.706l22.687-22.568a5.477,5.477,0,0,0,.146-7.617l-3.5-3.763a4.562,4.562,0,0,0-3.338-1.454H604.724a6.439,6.439,0,0,0-4.344,1.687l-3.887,3.549a5.214,5.214,0,0,0-.28,7.422Z" transform="translate(-555.96 -5831.304)" fill="#fff" stroke="#000" stroke-miterlimit="10" stroke-width="2"/>
      <rect id="Rectángulo_5409" data-name="Rectángulo 5409" width="36.559" height="3.718" transform="translate(43.787 9.395)"/>
      <path id="Trazado_104546" data-name="Trazado 104546" d="M640.085,5853.3l16.308,15.951s-22.008,58.838-44.017,82.005Z" transform="translate(-554.804 -5829.858)" fill="#fff" stroke="#000" stroke-linecap="round" stroke-linejoin="round" stroke-width="1"/>
    </g>
    <g id="Grupo_54502" data-name="Grupo 54502" transform="translate(805.77 5871.296)">
      <path id="Trazado_104547" data-name="Trazado 104547" d="M891.161,5953.115v-91.081a8.9,8.9,0,0,0-4.591-7.85l-35.721-19.341H804.975l-33.13,18.3a13.58,13.58,0,0,0-6.9,11.916v86.328" transform="translate(-764.941 -5829.769)" fill="#fff" stroke="#000" stroke-miterlimit="10" stroke-width="2"/>
      <path id="Trazado_104548" data-name="Trazado 104548" d="M867.136,5950.176v-71.359s2.465-23.018,7.886-28.854" transform="translate(-758.223 -5828.775)" fill="none" stroke="#000" stroke-miterlimit="10" stroke-width="2"/>
      <path id="Trazado_104549" data-name="Trazado 104549" d="M780.635,5950.146v-71.359s-1.959-22.54-7.38-28.376" transform="translate(-764.395 -5828.745)" fill="none" stroke="#000" stroke-miterlimit="10" stroke-width="2"/>
      <circle id="Elipse_4227" data-name="Elipse 4227" cx="2.068" cy="2.068" r="2.068" transform="translate(64.534 64.303)"/>
      <line id="Línea_351" data-name="Línea 351" y2="76.733" transform="translate(61.65 35.4)" fill="none" stroke="#000" stroke-linecap="round" stroke-linejoin="round" stroke-width="2"/>
      <path id="Trazado_104550" data-name="Trazado 104550" d="M823.312,5859.755l-12.587,13.97-12.11-19.183.834-6.447,3.74-7.454,18.581,14.88Z" transform="translate(-762.728 -5829.387)" fill="#fff" stroke="#000" stroke-linecap="round" stroke-linejoin="round" stroke-width="1"/>
      <path id="Trazado_104551" data-name="Trazado 104551" d="M791.013,5842.75l-4.88,12.464,11.077,8.758,5.175-5.236v-18.9l-1.1-3.007Z" transform="translate(-763.548 -5829.638)" fill="#fff" stroke="#000" stroke-linecap="round" stroke-linejoin="round" stroke-width="1"/>
      <path id="Trazado_104552" data-name="Trazado 104552" d="M825.991,5859.5l11.66,14.226,11.66-19.183-.834-6.447-2.976-7.454-16.4,13.067Z" transform="translate(-760.928 -5829.387)" fill="#fff" stroke="#000" stroke-linecap="round" stroke-linejoin="round" stroke-width="1"/>
      <path id="Trazado_104553" data-name="Trazado 104553" d="M857.186,5841.844l4.171,14.324-11.077,8.757-5.174-5.236v-18.905l1.751-4.8Z" transform="translate(-759.672 -5829.694)" fill="#fff" stroke="#000" stroke-linecap="round" stroke-linejoin="round" stroke-width="1"/>
      <path id="Trazado_104554" data-name="Trazado 104554" d="M824.784,5860.77a1.2,1.2,0,0,0,1.427-.009l20.672-17.848a5.478,5.478,0,0,0,.146-7.616l-3.148-3.381a5.756,5.756,0,0,0-4.213-1.834H811.775a7.632,7.632,0,0,0-5.151,2l-3.544,3.237a5.213,5.213,0,0,0-.38,7.313,1.451,1.451,0,0,0,.216.194Z" transform="translate(-762.546 -5830.081)" fill="#fff" stroke="#000" stroke-miterlimit="10" stroke-width="2"/>
      <rect id="Rectángulo_5410" data-name="Rectángulo 5410" width="36.559" height="3.718" transform="translate(43.787 9.394)"/>
      <g id="Grupo_54501" data-name="Grupo 54501" transform="translate(50.006 30.92)">
        <path id="Trazado_104555" data-name="Trazado 104555" d="M827.432,5870.4l7.136,40.035,1.761,5.424-11.756,21.437-12.709-21.714,1.2-3.664,8.341-41.517Z" transform="translate(-811.863 -5858.351)" fill="#fff" stroke="#000" stroke-miterlimit="10" stroke-width="2"/>
        <path id="Trazado_104556" data-name="Trazado 104556" d="M821.719,5859.094h4.726l6.3,7.784-4.541,6.3h-7.6l-5-6.116Z" transform="translate(-811.617 -5859.094)" fill="#fff" stroke="#000" stroke-miterlimit="10" stroke-width="2"/>
      </g>
      <path id="Trazado_104557" data-name="Trazado 104557" d="M802.441,5852.078l-16.307,15.952s18.169,48.573,38,74.831c1.995,2.642,2.527-5.17,2.527-5.17Z" transform="translate(-763.548 -5828.635)" fill="#fff" stroke="#000" stroke-linecap="round" stroke-linejoin="round" stroke-width="1"/>
      <path id="Trazado_104558" data-name="Trazado 104558" d="M846.671,5852.078l16.308,15.952s-22.008,58.838-44.017,82.006Z" transform="translate(-761.39 -5828.635)" fill="#fff" stroke="#000" stroke-linecap="round" stroke-linejoin="round" stroke-width="1"/>
    </g>
    <g id="Grupo_54505" data-name="Grupo 54505" transform="translate(1026.58 5869.349)">
      <path id="Trazado_104559" data-name="Trazado 104559" d="M1098.351,5951.29v-91.082a8.9,8.9,0,0,0-4.591-7.85l-35.721-19.341h-45.872l-33.13,18.3a13.58,13.58,0,0,0-6.9,11.916v86.328" transform="translate(-972.132 -5827.942)" fill="#fff" stroke="#000" stroke-miterlimit="10" stroke-width="2"/>
      <path id="Trazado_104560" data-name="Trazado 104560" d="M1074.327,5948.349v-71.358s2.464-23.018,7.886-28.854" transform="translate(-965.414 -5826.949)" fill="none" stroke="#000" stroke-miterlimit="10" stroke-width="2"/>
      <path id="Trazado_104561" data-name="Trazado 104561" d="M987.825,5948.319v-71.357s-1.958-22.541-7.38-28.377" transform="translate(-971.586 -5826.918)" fill="none" stroke="#000" stroke-miterlimit="10" stroke-width="2"/>
      <g id="Grupo_54503" data-name="Grupo 54503" transform="translate(62.344 51.226)">
        <circle id="Elipse_4228" data-name="Elipse 4228" cx="1.527" cy="1.527" r="1.527" transform="translate(0 11.842)"/>
        <circle id="Elipse_4229" data-name="Elipse 4229" cx="1.527" cy="1.527" r="1.527"/>
        <circle id="Elipse_4230" data-name="Elipse 4230" cx="1.527" cy="1.527" r="1.527" transform="translate(0 23.684)"/>
        <circle id="Elipse_4231" data-name="Elipse 4231" cx="1.527" cy="1.527" r="1.527" transform="translate(0 34.712)"/>
      </g>
      <line id="Línea_352" data-name="Línea 352" y2="60.555" transform="translate(59.572 51.579)" fill="none" stroke="#000" stroke-linecap="round" stroke-linejoin="round" stroke-width="2"/>
      <path id="Trazado_104562" data-name="Trazado 104562" d="M1030.5,5857.929l-12.587,13.97-12.11-19.183.834-6.446,3.74-7.455,18.581,14.88Z" transform="translate(-969.919 -5827.561)" fill="#fff" stroke="#000" stroke-linecap="round" stroke-linejoin="round" stroke-width="1"/>
      <path id="Trazado_104563" data-name="Trazado 104563" d="M998.2,5840.924l-4.88,12.464,11.077,8.758,5.175-5.236v-18.9l-1.1-3.007Z" transform="translate(-970.739 -5827.812)" fill="#fff" stroke="#000" stroke-linecap="round" stroke-linejoin="round" stroke-width="1"/>
      <path id="Trazado_104564" data-name="Trazado 104564" d="M1033.182,5857.673l11.66,14.226,11.66-19.183-.834-6.446-2.976-7.455-16.4,13.067Z" transform="translate(-968.119 -5827.561)" fill="#fff" stroke="#000" stroke-linecap="round" stroke-linejoin="round" stroke-width="1"/>
      <path id="Trazado_104565" data-name="Trazado 104565" d="M1064.376,5840.018l4.171,14.324-11.077,8.757-5.174-5.236v-18.9l1.751-4.8Z" transform="translate(-966.863 -5827.867)" fill="#fff" stroke="#000" stroke-linecap="round" stroke-linejoin="round" stroke-width="1"/>
      <path id="Trazado_104566" data-name="Trazado 104566" d="M1031.975,5858.944a1.2,1.2,0,0,0,1.426-.009l20.672-17.848a5.477,5.477,0,0,0,.146-7.617l-3.147-3.38a5.756,5.756,0,0,0-4.214-1.835h-27.893a7.634,7.634,0,0,0-5.151,2l-3.544,3.237a5.214,5.214,0,0,0-.38,7.314,1.449,1.449,0,0,0,.216.194Z" transform="translate(-969.737 -5828.255)" fill="#fff" stroke="#000" stroke-miterlimit="10" stroke-width="2"/>
      <rect id="Rectángulo_5411" data-name="Rectángulo 5411" width="36.559" height="3.718" transform="translate(43.787 9.394)"/>
      <path id="Trazado_104567" data-name="Trazado 104567" d="M1009.632,5850.252,993.324,5866.2s18.169,48.573,38,74.83c1.994,2.643,2.526-5.17,2.526-5.17Z" transform="translate(-970.739 -5826.809)" fill="#fff" stroke="#000" stroke-linecap="round" stroke-linejoin="round" stroke-width="1"/>
      <path id="Trazado_104568" data-name="Trazado 104568" d="M1053.862,5850.252l16.307,15.952s-22.007,58.837-44.016,82.005Z" transform="translate(-968.581 -5826.809)" fill="#fff" stroke="#000" stroke-linecap="round" stroke-linejoin="round" stroke-width="1"/>
      <g id="Grupo_54504" data-name="Grupo 54504" transform="translate(46.427 26.298)">
        <path id="Trazado_104569" data-name="Trazado 104569" d="M1017.2,5856.666v9l1.946,1.355,7.062-2.71,2.83.07,2.526.485,3.492-1.668,2.068.974,4.263,1.946,3.232.626,1.772-3.122-.417-9.286-2.364.313-6.487,2.433-2.945.378-2.615-1.213s-3.174,1.242-3.452,1.213-2.642,0-2.642,0l-4.309-2.046-2.614-.7Z" transform="translate(-1015.597 -5852.839)" fill="#fff"/>
        <path id="Trazado_104570" data-name="Trazado 104570" d="M1047.24,5854.657a3.276,3.276,0,0,0-4.1-1.491l-.208.083-2.719,1.088-4.811,1.924a5.815,5.815,0,0,0-7.339.038l-4.78-1.911-2.718-1.088-.279-.112a3.307,3.307,0,0,0-4.242,1.629c-.029.063-.057.129-.083.2l-.225,10.381c0,.157-.022.839-.038,1.6a1.966,1.966,0,0,0,2.364,1.967,19.522,19.522,0,0,0,2.168-.524l7.833-3.133a5.866,5.866,0,0,0,1.083.7l.752.381a4.119,4.119,0,0,0,3.714,0l.752-.381a5.887,5.887,0,0,0,1.037-.667l7.737,3.1a6.74,6.74,0,0,0,2.438-.155,2.277,2.277,0,0,0,1.809-1.69,8.539,8.539,0,0,0,.246-1.2Zm-20.933,8.21-7.161,2.865a.364.364,0,0,1-.473-.2.375.375,0,0,1-.027-.136v-9.186a.364.364,0,0,1,.365-.364.349.349,0,0,1,.135.026l7.161,2.864A5.825,5.825,0,0,0,1026.306,5862.868Zm5.447.846a2.913,2.913,0,1,1,2.913-2.913A2.911,2.911,0,0,1,1031.753,5863.714Zm12.965,1.681a.427.427,0,0,1,0,.055l-.2.272a.346.346,0,0,1-.3.011l-7.038-2.815a5.821,5.821,0,0,0,0-4.231l7.038-2.815a.348.348,0,0,1,.339.037.352.352,0,0,1,.161.3Z" transform="translate(-1015.696 -5852.931)"/>
      </g>
    </g>
    <text id="STRAIGHT" transform="translate(162.122 5370.87)" font-size="17" font-family="Roboto-Bold, Roboto" font-weight="700"><tspan x="0" y="0">STRAIGHT</tspan></text>
    <text id="SPREAD" transform="translate(170.151 5591.431)" font-size="17" font-family="Roboto-Bold, Roboto" font-weight="700"><tspan x="0" y="0">SPREAD</tspan></text>
    <text id="BAND" transform="translate(180.994 5812.593)" font-size="17" font-family="Roboto-Bold, Roboto" font-weight="700"><tspan x="0" y="0">BAND</tspan></text>
    <text id="KIWI_COLLAR" data-name="KIWI COLLAR" transform="translate(150.691 6033.524)" font-size="17" font-family="Roboto-Bold, Roboto" font-weight="700"><tspan x="0" y="0">KIWI COLLAR</tspan></text>
    <text id="INSERT_COLLAR" data-name="INSERT COLLAR" transform="translate(359.528 6033.524)" font-size="17" font-family="Roboto-Bold, Roboto" font-weight="700"><tspan x="0" y="0">INSERT COLLAR</tspan></text>
    <text id="NOTCH_LAPEL" data-name="NOTCH LAPEL" transform="translate(587.502 6033.524)" font-size="17" font-family="Roboto-Bold, Roboto" font-weight="700"><tspan x="0" y="0">NOTCH LAPEL</tspan></text>
    <text id="PEAK_LAPEL" data-name="PEAK LAPEL" transform="translate(814.63 6033.524)" font-size="17" font-family="Roboto-Bold, Roboto" font-weight="700"><tspan x="0" y="0">PEAK LAPEL</tspan></text>
    <text id="SHAWL_LAPEL" data-name="SHAWL LAPEL" transform="translate(1026.579 6033.524)" font-size="17" font-family="Roboto-Bold, Roboto" font-weight="700"><tspan x="0" y="0">SHAWL LAPEL</tspan></text>
    <text id="LONGPOINT" transform="translate(373.824 5812.593)" font-size="17" font-family="Roboto-Bold, Roboto" font-weight="700"><tspan x="0" y="0">LONGPOINT</tspan></text>
    <text id="POLO" transform="translate(624.441 5812.593)" font-size="17" font-family="Roboto-Bold, Roboto" font-weight="700"><tspan x="0" y="0">POLO</tspan></text>
    <text id="CREW_NECK" data-name="CREW NECK" transform="translate(818.32 5812.593)" font-size="17" font-family="Roboto-Bold, Roboto" font-weight="700"><tspan x="0" y="0">CREW NECK</tspan></text>
    <text id="V_NECK" data-name="V NECK" transform="translate(1057.291 5812.593)" font-size="17" font-family="Roboto-Bold, Roboto" font-weight="700"><tspan x="0" y="0">V NECK</tspan></text>
    <text id="PINNED" transform="translate(395.231 5591.429)" font-size="17" font-family="Roboto-Bold, Roboto" font-weight="700"><tspan x="0" y="0">PINNED</tspan></text>
    <text id="TUXEDO" transform="translate(614.49 5591.429)" font-size="17" font-family="Roboto-Bold, Roboto" font-weight="700"><tspan x="0" y="0">TUXEDO</tspan></text>
    <text id="MANDARIN" transform="translate(819.063 5591.429)" font-size="17" font-family="Roboto-Bold, Roboto" font-weight="700"><tspan x="0" y="0">MANDARIN</tspan></text>
    <text id="HIDDEN_BUTTON" data-name="HIDDEN BUTTON" transform="translate(1016.178 5591.429)" font-size="17" font-family="Roboto-Bold, Roboto" font-weight="700"><tspan x="0" y="0">HIDDEN BUTTON</tspan></text>
    <text id="CLUB" transform="translate(404.822 5370.87)" font-size="17" font-family="Roboto-Bold, Roboto" font-weight="700"><tspan x="0" y="0">CLUB</tspan></text>
    <text id="BUTTON_DOWN" data-name="BUTTON DOWN" transform="translate(582.293 5370.869)" font-size="17" font-family="Roboto-Bold, Roboto" font-weight="700"><tspan x="0" y="0">BUTTON DOWN</tspan></text>
    <text id="CUTAWAY" transform="translate(827.504 5370.869)" font-size="17" font-family="Roboto-Bold, Roboto" font-weight="700"><tspan x="0" y="0">CUTAWAY</tspan></text>
    <text id="TAB" transform="translate(1074.26 5370.869)" font-size="17" font-family="Roboto-Bold, Roboto" font-weight="700"><tspan x="0" y="0">TAB</tspan></text>
  </g>
</svg>
