<svg xmlns="http://www.w3.org/2000/svg" xmlns:xlink="http://www.w3.org/1999/xlink" width="396.115" height="400.115" viewBox="0 0 396.115 400.115">
  <defs>
    <linearGradient id="linear-gradient" y1="0.5" x2="1" y2="0.5" gradientUnits="objectBoundingBox">
      <stop offset="0" stop-color="#f08e73"/>
      <stop offset="1" stop-color="#f9b99d"/>
    </linearGradient>
    <linearGradient id="linear-gradient-3" y1="0.5" x2="1" y2="0.5" gradientUnits="objectBoundingBox">
      <stop offset="0" stop-color="#5f3759"/>
      <stop offset="1" stop-color="#3c3257"/>
    </linearGradient>
    <linearGradient id="linear-gradient-5" y1="0.5" x2="1" y2="0.5" gradientUnits="objectBoundingBox">
      <stop offset="0" stop-color="#fac383"/>
      <stop offset="1" stop-color="#f19b6c"/>
    </linearGradient>
  </defs>
  <g id="Grupo_54527" data-name="Grupo 54527" transform="translate(-43.811 -6066.88)">
    <rect id="Rect치ngulo_5412" data-name="Rect치ngulo 5412" width="396.115" height="400.115" transform="translate(43.811 6066.88)" fill="#0ac4bf"/>
    <path id="Trazado_104571" data-name="Trazado 104571" d="M156.847,6327.173c-2.4-2.564-5.534-5.989-8.125-9.275-2.725-3.316-5.244-6.808-7.679-10.343-2.493-3.472-4.569-7.264-6.854-10.815l-5.874-11.224a133.768,133.768,0,0,1-12.9-46.737c-1.161-15.671-.336-31.039,4.251-45.824,1.371-7.4,5.12-14.591,7.644-21.691A27.926,27.926,0,0,1,129.8,6166l2.811-5.19,5.46-10.277,1.311-2.467a38.906,38.906,0,0,0-68.718-36.5,40.847,40.847,0,0,0-3.216,8.164l-4.294,16-2.066,7.946a51.736,51.736,0,0,0-1.676,8.094c-1.451,11.136-3.753,21.806-3.485,33.156-1.261,22.192,2.622,44.779,9.371,65.458a179.376,179.376,0,0,0,30.489,56c3.333,4.006,6.748,7.909,10.15,11.764,3.685,3.63,7.128,7.407,10.976,10.8,3.78,3.445,7.63,6.783,11.689,9.9a158.148,158.148,0,0,0,12.954,9.166,12.9,12.9,0,0,0,16.38-19.685Z" transform="translate(1.098 2.222)" fill="#08938f"/>
    <g id="Grupo_54508" data-name="Grupo 54508" transform="translate(58.571 6102.575)">
      <path id="Trazado_104572" data-name="Trazado 104572" d="M146.824,6337.09a.286.286,0,0,1-.166-.05c-.3-.2-30.078-20.606-49.181-59.893A160.175,160.175,0,0,1,81.434,6202.9c.716-32.729,10.808-67.443,30-103.189a.294.294,0,0,1,.4-.119.3.3,0,0,1,.12.4C68.613,6180.722,80.444,6240.729,98,6276.86c19.028,39.155,48.692,59.484,48.99,59.685a.3.3,0,0,1-.166.545Z" transform="translate(-55.096 -6099.553)" fill="#fff"/>
      <path id="Trazado_104573" data-name="Trazado 104573" d="M82.513,6185.2a.3.3,0,0,1-.286-.379c7.87-27.806,49.27-41.318,49.687-41.45a.287.287,0,0,1,.373.193.3.3,0,0,1-.191.372c-.414.131-41.515,13.547-49.3,41.046A.3.3,0,0,1,82.513,6185.2Z" transform="translate(-55.02 -6095.503)" fill="#fff"/>
      <path id="Trazado_104574" data-name="Trazado 104574" d="M89.891,6152.8a.3.3,0,0,1-.265-.167c-.122-.24-12.178-24.618-9.891-50.074a.283.283,0,0,1,.322-.269.3.3,0,0,1,.27.323c-2.271,25.281,9.709,49.513,9.829,49.756a.3.3,0,0,1-.131.4A.329.329,0,0,1,89.891,6152.8Z" transform="translate(-55.276 -6099.3)" fill="#fff"/>
      <path id="Trazado_104575" data-name="Trazado 104575" d="M86.977,6229.856a.309.309,0,0,1-.13-.031c-.222-.107-22.464-11.079-29.513-34.884a.3.3,0,1,1,.569-.17c6.972,23.55,28.981,34.412,29.2,34.52a.3.3,0,0,1,.137.4A.292.292,0,0,1,86.977,6229.856Z" transform="translate(-57.322 -6090.768)" fill="#fff"/>
      <path id="Trazado_104576" data-name="Trazado 104576" d="M91.5,6253.353a.3.3,0,0,1-.283-.206.3.3,0,0,1,.189-.375c.172-.058,17.123-5.942,16.752-26.413a.3.3,0,0,1,.293-.3h.005a.3.3,0,0,1,.3.293c.377,20.916-16.986,26.928-17.162,26.985A.261.261,0,0,1,91.5,6253.353Z" transform="translate(-54.189 -6087.855)" fill="#fff"/>
    </g>
    <path id="Trazado_104577" data-name="Trazado 104577" d="M284.549,6289.289c-6.5-26.2,3.026-136.132,7.329-181.266a7.5,7.5,0,0,1,13.525-3.711c27.114,37.11,92.833,128.867,99.355,155.143a61.928,61.928,0,1,1-120.209,29.834Z" transform="translate(22.057 3.176)" fill="#08938f"/>
    <path id="Trazado_104578" data-name="Trazado 104578" d="M355.771,6335.33a.5.5,0,0,1-.48-.376L297.327,6101.4a.493.493,0,0,1,.359-.6.474.474,0,0,1,.6.361l57.965,233.553a.492.492,0,0,1-.361.6A.4.4,0,0,1,355.771,6335.33Z" transform="translate(23.441 3.135)" fill="#fff"/>
    <path id="Trazado_104579" data-name="Trazado 104579" d="M338.136,6269.827a.459.459,0,0,1-.244-.066.493.493,0,0,1-.188-.673l37.164-65.7a.483.483,0,0,1,.674-.186.493.493,0,0,1,.188.673l-37.163,65.7A.491.491,0,0,1,338.136,6269.827Z" transform="translate(27.17 12.601)" fill="#fff"/>
    <path id="Trazado_104580" data-name="Trazado 104580" d="M335.123,6257.642a.491.491,0,0,1-.221-.05.5.5,0,0,1-.223-.667l32.376-65.094a.495.495,0,1,1,.886.44l-32.376,65.1A.493.493,0,0,1,335.123,6257.642Z" transform="translate(26.892 11.529)" fill="#fff"/>
    <path id="Trazado_104581" data-name="Trazado 104581" d="M335.6,6239.607a.484.484,0,0,1-.292-.1l-51.787-37.975a.494.494,0,1,1,.584-.8l51.786,37.976a.494.494,0,0,1-.292.894Z" transform="translate(22.147 12.369)" fill="#fff"/>
    <path id="Trazado_104582" data-name="Trazado 104582" d="M316.475,6179.726a.495.495,0,0,1-.426-.75l19.351-32.27a.493.493,0,0,1,.682-.17.5.5,0,0,1,.169.681l-19.351,32.27A.493.493,0,0,1,316.475,6179.726Z" transform="translate(25.167 7.36)" fill="#fff"/>
    <path id="Trazado_104583" data-name="Trazado 104583" d="M311.187,6149.049a.46.46,0,0,1-.244-.065l-22.634-12.843a.5.5,0,0,1-.188-.673.48.48,0,0,1,.675-.186l22.634,12.843a.494.494,0,0,1-.244.924Z" transform="translate(22.585 6.319)" fill="#fff"/>
    <path id="Trazado_104584" data-name="Trazado 104584" d="M312.7,6154.141a.525.525,0,0,1-.182-.035l-24.831-9.829a.5.5,0,1,1,.364-.921l24.831,9.829a.5.5,0,0,1-.181.956Z" transform="translate(22.522 7.069)" fill="#fff"/>
    <path id="Trazado_104585" data-name="Trazado 104585" d="M352.054,6300.1a.515.515,0,0,1-.247-.066L282.48,6259.9a.5.5,0,0,1,.5-.859l69.326,40.133a.5.5,0,0,1-.248.925Z" transform="translate(22.047 17.764)" fill="#fff"/>
    <path id="Trazado_104586" data-name="Trazado 104586" d="M393.23,6391.668H86.558a21.364,21.364,0,0,1-17.8-33.173l153.336-231.151a21.364,21.364,0,0,1,35.606,0L411.034,6358.5A21.364,21.364,0,0,1,393.23,6391.668Z" transform="translate(1.974 4.708)" fill="#fff" opacity="0.54"/>
    <g id="Grupo_54511" data-name="Grupo 54511" transform="translate(352.614 6083.102)">
      <g id="Grupo_54509" data-name="Grupo 54509" transform="translate(6.843)">
        <path id="Trazado_104587" data-name="Trazado 104587" d="M342.262,6093.864l-8.949-3.078a.846.846,0,0,1-.318-1.4l7.553-7.411a.846.846,0,0,1,1.431.492l1.4,10.489A.846.846,0,0,1,342.262,6093.864Z" transform="translate(-332.741 -6081.728)" fill="#08938f"/>
        <path id="Trazado_104588" data-name="Trazado 104588" d="M360.414,6100.107l-8.951-3.078a.846.846,0,0,1-.317-1.4l7.553-7.411a.846.846,0,0,1,1.431.493l1.4,10.489A.846.846,0,0,1,360.414,6100.107Z" transform="translate(-331.062 -6081.15)" fill="#08938f"/>
        <path id="Trazado_104589" data-name="Trazado 104589" d="M378.565,6106.351l-8.95-3.079a.846.846,0,0,1-.318-1.4l7.553-7.411a.846.846,0,0,1,1.431.493l1.4,10.488A.847.847,0,0,1,378.565,6106.351Z" transform="translate(-329.384 -6080.573)" fill="#08938f"/>
        <path id="Trazado_104590" data-name="Trazado 104590" d="M380.544,6109.254a1.322,1.322,0,0,1-.439-.073l-8.949-3.078a1.341,1.341,0,0,1-.5-2.227l7.552-7.411a1.324,1.324,0,0,1,1.374-.311,1.343,1.343,0,0,1,.895,1.092l1.4,10.489a1.342,1.342,0,0,1-1.326,1.519Zm-1.406-12.183a.334.334,0,0,0-.24.1l-7.552,7.412a.349.349,0,0,0,.131.582l8.95,3.077h0a.348.348,0,0,0,.462-.377l-1.4-10.489a.346.346,0,0,0-.234-.287A.381.381,0,0,0,379.138,6097.072Z" transform="translate(-329.272 -6080.4)" fill="#fff"/>
        <path id="Trazado_104591" data-name="Trazado 104591" d="M396.717,6112.594l-8.951-3.078a.846.846,0,0,1-.317-1.4L395,6100.7a.847.847,0,0,1,1.432.493l1.4,10.489A.846.846,0,0,1,396.717,6112.594Z" transform="translate(-327.705 -6079.997)" fill="#08938f"/>
      </g>
      <g id="Grupo_54510" data-name="Grupo 54510" transform="translate(0 19.899)">
        <path id="Trazado_104592" data-name="Trazado 104592" d="M336,6112.078l-8.95-3.077a.846.846,0,0,1-.317-1.4l7.552-7.411a.847.847,0,0,1,1.432.493l1.4,10.487A.846.846,0,0,1,336,6112.078Z" transform="translate(-326.477 -6099.943)" fill="#08938f"/>
        <path id="Trazado_104593" data-name="Trazado 104593" d="M354.149,6118.321l-8.949-3.077a.847.847,0,0,1-.318-1.405l7.553-7.41a.846.846,0,0,1,1.431.491l1.4,10.489A.846.846,0,0,1,354.149,6118.321Z" transform="translate(-324.798 -6099.365)" fill="#08938f"/>
        <path id="Trazado_104594" data-name="Trazado 104594" d="M352.325,6119.573a1.323,1.323,0,0,1-.439-.074l-8.952-3.08a1.341,1.341,0,0,1-.5-2.226l7.553-7.41a1.34,1.34,0,0,1,2.268.784l1.4,10.486a1.345,1.345,0,0,1-1.326,1.519Zm-1.406-12.184a.344.344,0,0,0-.243.1l-7.552,7.409a.347.347,0,0,0-.1.329.339.339,0,0,0,.226.254l8.952,3.08h0a.355.355,0,0,0,.334-.06.345.345,0,0,0,.126-.317l-1.4-10.49a.342.342,0,0,0-.232-.286A.364.364,0,0,0,350.919,6107.389Z" transform="translate(-325.038 -6099.346)" fill="#fff"/>
        <path id="Trazado_104595" data-name="Trazado 104595" d="M372.3,6124.564l-8.949-3.078a.847.847,0,0,1-.318-1.4l7.554-7.41a.845.845,0,0,1,1.43.492l1.4,10.49A.846.846,0,0,1,372.3,6124.564Z" transform="translate(-323.12 -6098.788)" fill="#08938f"/>
        <path id="Trazado_104596" data-name="Trazado 104596" d="M390.452,6130.807l-8.949-3.078a.846.846,0,0,1-.318-1.4l7.553-7.41a.846.846,0,0,1,1.431.492l1.4,10.489A.847.847,0,0,1,390.452,6130.807Z" transform="translate(-321.441 -6098.211)" fill="#08938f"/>
      </g>
    </g>
    <g id="Grupo_54512" data-name="Grupo 54512" transform="translate(153.826 6089.601)">
      <path id="Trazado_104597" data-name="Trazado 104597" d="M181.632,6107.634l-20.584,15.779a2.529,2.529,0,0,1-4.021-1.528l-5.486-28.475a2.528,2.528,0,0,1,3.59-2.751l26.072,12.7A2.528,2.528,0,0,1,181.632,6107.634Z" transform="translate(-143.869 -6087.426)" fill="#ecb89f"/>
      <path id="Trazado_104598" data-name="Trazado 104598" d="M153.03,6122.205a3.045,3.045,0,0,1-1.077-.2,3,3,0,0,1-1.9-2.256l-5.487-28.474a3.022,3.022,0,0,1,4.291-3.291l26.073,12.7a3.023,3.023,0,0,1,.517,5.117l-20.585,15.778A3.009,3.009,0,0,1,153.03,6122.205Zm-5.5-33.54a2.046,2.046,0,0,0-1.989,2.425l5.486,28.475a2.034,2.034,0,0,0,3.235,1.229l20.585-15.78a2.033,2.033,0,0,0-.347-3.442l-26.072-12.7A2.036,2.036,0,0,0,147.53,6088.665Zm27.619,16.742h0Z" transform="translate(-144.514 -6087.678)" fill="#fff"/>
    </g>
    <g id="Grupo_54526" data-name="Grupo 54526" transform="translate(144.196 6084.258)">
      <g id="Grupo_54525" data-name="Grupo 54525">
        <g id="Grupo_54522" data-name="Grupo 54522">
          <path id="Trazado_104599" data-name="Trazado 104599" d="M143.148,6265.718l-.82,6.936.82,5.472H147.8s3.01-4.651,3.01-4.925.547-5.38.547-5.745a25.906,25.906,0,0,0-2.006-3.284Z" transform="translate(-135.087 -6066.014)" fill="#feb396"/>
          <path id="Trazado_104600" data-name="Trazado 104600" d="M139.286,6209.858l-1.075,5.638,4.581,56.208,9.112-.629,3.82-61.217Z" transform="translate(-135.467 -6071.036)" fill="#271f37"/>
          <path id="Trazado_104601" data-name="Trazado 104601" d="M138.362,6148.319l.911,67.229h16.438l3.97-65.413Z" transform="translate(-135.453 -6076.726)" fill="#271f37"/>
          <path id="Trazado_104602" data-name="Trazado 104602" d="M225.218,6405.574l-7.43.436-1.2.071-.11-.372-2.367-7.929-.18-.606,8.475-2.006.674,2.5.738,2.738Z" transform="translate(-128.465 -6053.9)" fill="#f28a81"/>
          <path id="Trazado_104603" data-name="Trazado 104603" d="M173.709,6344.478q-.116,3.7-.329,7.438c-1.074,19.359-3.693,39.424-2.738,59.9h-13.86l-11.232-89.479-1.361-3.686a7.54,7.54,0,0,1-.294-4.188l.536-2.493c0-.023,0-.048,0-.071-1.539-29.469-.862-42.784-.727-66.578.013-2.187.023-4.46.023-6.843q0-3.552.126-6.5c.084-2.151.2-4.064.345-5.75.1-1.165.206-2.222.316-3.173a38.591,38.591,0,0,1,1.171-6.5c.19-.564,1.383-.7,2.8-.658h0a39.267,39.267,0,0,1,5.227.658l9.632-1.413.168.471,7.835,22.132s1.135,10.69,1.868,26.394q.082,1.758.154,3.6c.259,6.383.439,13.461.449,20.894.007,5.665-.087,11.539-.317,17.472q-.082,2.161-.193,4.331v.007c-.149,2.96-.335,5.931-.562,8.887l0,.026A158,158,0,0,1,173.709,6344.478Z" transform="translate(-134.984 -6070.547)" fill="#51242c"/>
          <path id="Trazado_104604" data-name="Trazado 104604" d="M231.316,6416.44l-2.5-.035-8.99-.136-1.587-.022s-23.731-65.745-37.774-121.7c-1.052-3-2.022-5.872-2.929-8.643-2.1-6.427-3.86-12.3-5.437-17.876v0q-.513-1.818-1-3.593c-2.87-10.418-5.218-19.993-8.2-30.58h-2.376l-2.9-14.528-.494-2.476,11.29-2.078,11.626-2.137,3.941-.725s10.151,10.122,11.777,13.914a118.622,118.622,0,0,1,4.428,12.1c5.289,17.22,6.308,33.75,10.706,55.914C216.581,6322.516,220.948,6349.146,231.316,6416.44Z" transform="translate(-133.718 -6070.846)" fill="#5d343a"/>
          <path id="Trazado_104605" data-name="Trazado 104605" d="M160.755,6126.088l3.1-.568s.193,1.547.18,1.8a4.692,4.692,0,0,1-.241,1.208c-.163.464-.151.721-.692.831a2.72,2.72,0,0,1-1.129-.06,1.44,1.44,0,0,1-.215-.654A21.389,21.389,0,0,0,160.755,6126.088Z" transform="translate(-133.383 -6078.834)" fill="#b9c5ef"/>
          <path id="Trazado_104606" data-name="Trazado 104606" d="M142.461,6153.626c.893-3.577-.244-8.967,1.472-10.047,6.151-3.875,8.149-8.01,11.724-10.1,1.5-.872,2.787-1.609,3.887-2.226.46-.259.885-.5,1.279-.712.921-.506,1.667-.906,2.256-1.215q.585-.308.966-.5c.238-.122.42-.21.548-.272a48.089,48.089,0,0,0-.511,6.213s.175-1.962,2.325-6.244l14.517.769,1.6,1.264L202.773,6147l-11.492,44.978,4.284,26.351,1.173,7.218-51.862-2.747-1.073-33.182Z" transform="translate(-135.074 -6078.556)" fill="#ebfffe"/>
          <path id="Trazado_104607" data-name="Trazado 104607" d="M179.092,6130.662l-14.517-.768c-2.148,4.285-2.323,6.245-2.323,6.245a48.286,48.286,0,0,1,.509-6.212l.452-4.148c6.531-.019,12.064-7.118,13.369-9.238a2.683,2.683,0,0,0,.4-1.277l.082-1.546.407.115.936,9.705v0l.441,4.548.026.292Z" transform="translate(-133.244 -6079.925)" fill="url(#linear-gradient)"/>
          <path id="Trazado_104608" data-name="Trazado 104608" d="M187.543,6098.6c-.522,3.814-4.5,9.608-4.5,9.608l-.9,1.732a18.947,18.947,0,0,1-4.1,2.271,19.413,19.413,0,0,1-1.643-2.863s-3.813-2.353-.428-7.111l-8.245-1.033c-.555-.065-1.149-.613-.908-1.078.866-1.663-.283-1.9-.781-1.767-7.521,2.054-9.8-1.458-9.985-1.78-.005-.009-.009-.015-.012-.021l0,0,0,0a65.6,65.6,0,0,0-1.539,8.758,24.691,24.691,0,0,1-1.76-9.213c.354-6.675,5.971-6.216,5.971-6.216s1.04-5.2,5.241-6.45c12.212-3.644,16.277,9.429,16.277,9.429S188.38,6092.482,187.543,6098.6Z" transform="translate(-134.126 -6082.786)" fill="#773634"/>
          <path id="Trazado_104609" data-name="Trazado 104609" d="M179.553,6112.862c-.037.115-.073.23-.115.345a3.122,3.122,0,0,1-1.493.2l-.188,3.554a2.646,2.646,0,0,1-.4,1.279,26,26,0,0,1-5.266,5.861,13.358,13.358,0,0,1-8.105,3.375c-.162,0-.329,0-.5-.015-4.254-.224-9.072-5.292-9.583-15.125a39.434,39.434,0,0,1,.486-8.194c.229-2.15.553-4.082.84-5.574.042-.235.089-.459.13-.667.319-1.571.569-2.517.569-2.517l.005.006a.077.077,0,0,0,.01.021c.193.323,2.469,3.835,9.984,1.785.5-.137,1.65.1.783,1.765-.24.462.355,1.011.908,1.074l8.246,1.038c-3.381,4.755.428,7.109.428,7.109s.13.292.359.729a19.007,19.007,0,0,0,1.285,2.13A9.338,9.338,0,0,0,179.553,6112.862Z" transform="translate(-134.02 -6081.621)" fill="url(#linear-gradient)"/>
          <path id="Trazado_104610" data-name="Trazado 104610" d="M180.842,6110.983a6.345,6.345,0,0,1-3.329,3.5,3.154,3.154,0,0,1-.449.13,2.692,2.692,0,0,1-.631.088,3.812,3.812,0,0,1-.413-.021.489.489,0,0,1-.073-.016,2.525,2.525,0,0,1-.611-.173,2.816,2.816,0,0,1-1.378-1.361,4.709,4.709,0,0,1-.454-1.791,6.838,6.838,0,0,1,.079-1.44c.026-.15.058-.308.094-.464a7.56,7.56,0,0,1,.334-1.091c.01-.03.026-.057.036-.089.026-.057.048-.115.073-.172.11-.25.229-.495.361-.729.062-.115.13-.229.2-.34a5.863,5.863,0,0,1,.355-.521,6.7,6.7,0,0,1,.579-.674c1.221-1.242,2.751-1.779,4-1.242a2.879,2.879,0,0,1,1.5,1.64A6.4,6.4,0,0,1,180.842,6110.983Z" transform="translate(-132.205 -6080.791)" fill="#feb396"/>
          <path id="Trazado_104611" data-name="Trazado 104611" d="M179.945,6107.728a2.138,2.138,0,0,0-1.523-.795,4.616,4.616,0,0,0-2.667.9,7.388,7.388,0,0,1,2.785-2.348.162.162,0,0,0,.082-.213.164.164,0,0,0-.214-.082,6.825,6.825,0,0,0-3.464,3.573,4.861,4.861,0,0,0,.61,4.022.163.163,0,0,0,.221.059.163.163,0,0,0,.059-.221,4.546,4.546,0,0,1-.582-3.759c.04-.124.087-.243.138-.358a5.132,5.132,0,0,1,2.963-1.259l.047,0a1.835,1.835,0,0,1,1.3.683.161.161,0,1,0,.246-.209Z" transform="translate(-132.09 -6080.715)" fill="#f28a81"/>
          <path id="Trazado_104612" data-name="Trazado 104612" d="M180.693,6130.882l-.051.986-7.512,2.208-4.26.4-2.064.194-3.222.3-1.333.126a16.234,16.234,0,0,1,1.449-4.388c.025-.058.05-.116.078-.172q.342-.773.8-1.684.362-.718.8-1.522c5.2-.081,10.631.076,13.43-.715,1.167-.33,1.977-.784,2.161-1.393a.769.769,0,0,0,.035-.187Z" transform="translate(-133.244 -6078.88)" fill="#b9c5ef"/>
          <path id="Trazado_104613" data-name="Trazado 104613" d="M164.836,6172.378c.057,4.777.282,9.565.625,14.268q.113,1.6.244,3.177c.175,2.187.387,4.347.612,6.477.007.019.007.03.012.049.032.306.062.632.1.938v.012c.007.062.012.131.019.2.961,8.773,1.966,16.784,2.86,23.415.069.494.131.981.2,1.461.087.619.162,1.217.249,1.805,0,.019.007.031.007.049.012.112.032.225.044.337.125.9.256,1.823.381,2.754.755,5.357,1.585,10.945,2.111,14.46.33,2.217.548,3.615.548,3.615.3-.038.6-.069.894-.106.512-.055,1.005-.105,1.486-.149l.244-.019c12.394-1.117,15.822,1.792,24.421,1.892.793.013,1.642-.006,2.541-.05-.968-4.87-1.86-8.91-2.679-12.4-2.554-10.826-4.4-16.223-5.769-24.133-.388-2.229-.731-4.671-1.043-7.486-.137-1.23-.268-2.529-.393-3.922-.005-.075-.005-.112-.005-.112l2.4-15.036.387-2.447.568-3.535v-.006l2.061-12.869c0-.007-.949-25.245-.949-25.245a71.232,71.232,0,0,1-12.994-7.742l-3.49-3.035-.631-.549a22.173,22.173,0,0,0-4.583,4.621C170.786,6138.9,164.573,6150.843,164.836,6172.378Z" transform="translate(-133.006 -6078.563)" fill="url(#linear-gradient-3)"/>
          <path id="Trazado_104614" data-name="Trazado 104614" d="M179.638,6125.167l-.039.268c-.184.608-.994,1.063-2.161,1.393l-.4-4.117v0S179.638,6123.206,179.638,6125.167Z" transform="translate(-131.877 -6079.094)" fill="#b9c5ef"/>
          <path id="Trazado_104615" data-name="Trazado 104615" d="M162.9,6128.788a48.3,48.3,0,0,0-.511,6.212l-.676-.5a19.608,19.608,0,0,0-.157-3.435c-.045-.516-.1-1.022-.169-1.5-.265-1.964-.634-3.52-.634-3.52a12.859,12.859,0,0,0,2.484.788C163.106,6127.493,162.995,6128.152,162.9,6128.788Z" transform="translate(-133.383 -6078.787)" fill="#b9c5ef"/>
          <path id="Trazado_104616" data-name="Trazado 104616" d="M163.415,6126.828l-.885,2.232-.322.807-.474,1.2-.07.176v0l-.2.515v0l-.4,1.008-.121.309-1.628-2.3-.47-.666,1.379-2.682.713-1.387A12.86,12.86,0,0,0,163.415,6126.828Z" transform="translate(-133.56 -6078.787)" fill="#ebfffe"/>
          <path id="Trazado_104617" data-name="Trazado 104617" d="M180.5,6129.3l-.633-.549a22.028,22.028,0,0,0-4.579,4.62l-2.425.685-6.1,1.725-.221-1.133-.813-4.167-.621-3.171c5.042-.079,10.291.066,13.162-.646.091-.021.182-.045.271-.07,1.168-.329,1.976-.783,2.16-1.393Z" transform="translate(-132.98 -6078.864)" fill="#ebfffe"/>
          <g id="Grupo_54513" data-name="Grupo 54513" transform="translate(33.42 118.733)">
            <path id="Trazado_104618" data-name="Trazado 104618" d="M166.291,6191.469c.005.069.014.137.022.2h0C166.305,6191.606,166.3,6191.538,166.291,6191.469Z" transform="translate(-166.291 -6191.469)" fill="#fff"/>
          </g>
          <path id="Trazado_104619" data-name="Trazado 104619" d="M159.46,6220.5c-4.827-28.958,2.91-85.718,2.989-86.287l.414.057c-.079.569-7.807,57.265-2.991,86.161Z" transform="translate(-133.649 -6078.03)" fill="#b9c5ef" opacity="0.5"/>
          <path id="Trazado_104620" data-name="Trazado 104620" d="M175.674,6142.179l4.723,4.3S168.3,6166.4,166.374,6186.75q-.174,1.769-.231,3.529a48.327,48.327,0,0,0,.173,6.21c-.224-2.125-.428-4.285-.611-6.467q-.087-1.033-.167-2.066l-.079-1.112c-.344-4.707-.568-9.493-.626-14.263-.261-21.545,5.955-33.491,10.486-39.309,2.556-3.294,5.371-6.916,5.371-6.916s4.18,3.987,4.336,6.9Z" transform="translate(-133.006 -6078.757)" fill="#271f37" opacity="0.75"/>
          <path id="Trazado_104621" data-name="Trazado 104621" d="M158.908,6129.992l.47.666c-.394.217-.819.453-1.279.712.134-.537.21-.813.21-.813a12.358,12.358,0,0,1,1.978-3.246Z" transform="translate(-133.628 -6078.668)" fill="#0e0e56"/>
          <path id="Trazado_104622" data-name="Trazado 104622" d="M164.981,6133.3l-.64,1.055-.1.167-.533.877-2.388-.871-.049-1.777-.034-1.289v-.022a.652.652,0,0,1,.205-.5v0l1.153-1.1.491-.467a.522.522,0,0,1,.8.1l.42.672.657,1.046A2.008,2.008,0,0,1,164.981,6133.3Z" transform="translate(-133.338 -6078.491)" fill="#e04c3d"/>
          <path id="Trazado_104623" data-name="Trazado 104623" d="M164.727,6133.23a2.008,2.008,0,0,0-.016-2.108l-.657-1.046c.2,0,.457,0,.755-.006s.646-.018,1.025-.035l.813,4.167-2.658.25.1-.167Z" transform="translate(-133.084 -6078.417)" fill="#932519"/>
          <path id="Trazado_104624" data-name="Trazado 104624" d="M162.578,6129.817l-1.153,1.1.07-.179.474-1.2A5.247,5.247,0,0,0,162.578,6129.817Z" transform="translate(-133.321 -6078.462)" fill="#932519"/>
          <path id="Trazado_104625" data-name="Trazado 104625" d="M161.306,6132.567a3.1,3.1,0,0,1-.436-.281l.4-1.008Z" transform="translate(-133.372 -6078.303)" fill="#932519"/>
          <path id="Trazado_104626" data-name="Trazado 104626" d="M162.008,6202.165l-1.789,3.308-2.412-2.367c-7.38-28.041,4.062-69.022,4.062-69.022l2.388.871q-.08.47-.161.935c-4.952,28.935-4.89,46.532-3.947,56.25C160.84,6199.283,162.008,6202.165,162.008,6202.165Z" transform="translate(-133.885 -6078.042)" fill="#e04c3d"/>
          <path id="Trazado_104627" data-name="Trazado 104627" d="M161.66,6192.072l-.925.924-.868-.833-.084-.175c-.943-9.719-1.005-27.315,3.947-56.25C161.055,6152.094,159.783,6185.372,161.66,6192.072Z" transform="translate(-133.519 -6077.89)" fill="#932519"/>
          <path id="Trazado_104628" data-name="Trazado 104628" d="M148.037,6216.823h23.322l-.056-.387-.381-2.685-22.76-1.548-.106,3.958Z" transform="translate(-134.559 -6070.819)" fill="#250f19"/>
          <path id="Trazado_104629" data-name="Trazado 104629" d="M171.919,6193.7l-3.1.227a.387.387,0,0,1-.414-.357h0a.387.387,0,0,1,.357-.414l3.1-.228a.388.388,0,0,1,.414.357h0A.386.386,0,0,1,171.919,6193.7Z" transform="translate(-132.676 -6072.602)" fill="#271f37" opacity="0.75"/>
          <path id="Trazado_104630" data-name="Trazado 104630" d="M173.137,6206.755l-3.087.39a.384.384,0,0,1-.432-.333h0a.385.385,0,0,1,.334-.432l3.087-.392a.386.386,0,0,1,.432.334h0A.386.386,0,0,1,173.137,6206.755Z" transform="translate(-132.563 -6071.394)" fill="#271f37" opacity="0.75"/>
          <path id="Trazado_104631" data-name="Trazado 104631" d="M175.815,6222.186l-3.087.391a.386.386,0,0,1-.432-.335h0a.387.387,0,0,1,.334-.433l3.087-.39a.385.385,0,0,1,.432.334h0A.386.386,0,0,1,175.815,6222.186Z" transform="translate(-132.316 -6069.967)" fill="#271f37" opacity="0.75"/>
          <path id="Trazado_104632" data-name="Trazado 104632" d="M166.527,6395.167v5.789s-2.364-.029-3.45.875c-.8.665-2.947.788-4.025.808h-.875l-.51-7.472Z" transform="translate(-133.668 -6053.9)" fill="#f28a81"/>
          <path id="Trazado_104633" data-name="Trazado 104633" d="M171.641,6412l-.062.347-.238,1.357h-8.2l-.356-.4-.4-.448-26.558.8-.129-1.529a.113.113,0,0,1,.111-.124Z" transform="translate(-135.699 -6052.344)" fill="#c08a9b"/>
          <path id="Trazado_104634" data-name="Trazado 104634" d="M171.385,6412.254c-.013.279-.033.561-.056.84H135.818a4.133,4.133,0,0,1,3.134-3.391c1.218-.29,2.5-.647,3.8-1.05,2.967-.917,6.05-2.055,8.764-3.13a48.169,48.169,0,0,0,7.324-3.521h1.906c1.179-.021,3.53-.157,4.4-.885,1.186-.988,4.317-.954,4.317-.954l.56,3.6A23,23,0,0,1,171.385,6412.254Z" transform="translate(-135.689 -6053.439)" fill="#6d2847"/>
          <path id="Trazado_104635" data-name="Trazado 104635" d="M146.674,6406.973a28.477,28.477,0,0,0,11.056-6.684c.024.01.047.02.07.031a2.137,2.137,0,0,1,.208,3.777,21.478,21.478,0,0,1-10.746,3.123A.646.646,0,0,1,146.674,6406.973Z" transform="translate(-134.685 -6053.427)" fill="#963c58"/>
          <path id="Trazado_104636" data-name="Trazado 104636" d="M171.385,6411.536c-.013.279-.033.561-.056.84H135.818a4.132,4.132,0,0,1,3.134-3.391c1.218-.29,2.5-.648,3.8-1.05,1.292,1.136,4.526,3.462,10.338,3.487C159.613,6411.448,168.728,6411.516,171.385,6411.536Z" transform="translate(-135.689 -6052.72)" fill="#963c58"/>
          <g id="Grupo_54514" data-name="Grupo 54514" transform="translate(86.526 349.514)">
            <path id="Trazado_104637" data-name="Trazado 104637" d="M236.661,6414.134H214.9l.145-2.047.348-.17-.342-7.369a1.01,1.01,0,0,1,.858-1.049l.039.036a5.385,5.385,0,0,0,1.505.874,5.306,5.306,0,0,0,1.928.364,6.517,6.517,0,0,0,4.105-1.623,1.96,1.96,0,0,1,2.6.127C229.262,6406.385,236.661,6414.134,236.661,6414.134Z" transform="translate(-214.902 -6402.716)" fill="#6d2847"/>
            <path id="Trazado_104638" data-name="Trazado 104638" d="M237.22,6412.728H215.826a8.922,8.922,0,0,1,.4-.986,13.26,13.26,0,0,1,4.067-5.135,10.112,10.112,0,0,1,3.734-1.715,9.82,9.82,0,0,1,1.413-.236c.128-.013.258-.025.39-.032.251-.017.509-.026.77-.026C232.262,6404.6,237.22,6412.728,237.22,6412.728Z" transform="translate(-214.817 -6402.542)" fill="#963c58"/>
            <rect id="Rect치ngulo_5413" data-name="Rect치ngulo 5413" width="21.393" height="1.462" transform="translate(1.009 10.185)" fill="#c08a9b"/>
          </g>
          <path id="Trazado_104639" data-name="Trazado 104639" d="M225.321,6405.019a10.275,10.275,0,0,0-5.147,1.951,9.371,9.371,0,0,1-2.886-4.115,6.928,6.928,0,0,1-.22-.879,5.365,5.365,0,0,1,.887-.519,8.1,8.1,0,0,1,5.378-.549A29.634,29.634,0,0,0,225.321,6405.019Z" transform="translate(-128.175 -6053.391)" fill="#963c58"/>
          <path id="Trazado_104640" data-name="Trazado 104640" d="M216.307,6411.138a9.4,9.4,0,0,0-.4.984v1.232H214.9l.145-2.048.347-.168Z" transform="translate(-128.376 -6052.423)" fill="#963c58"/>
          <path id="Trazado_104641" data-name="Trazado 104641" d="M151.958,6407.068a.322.322,0,0,1-.1-.016l-3.049-1.007a.323.323,0,0,1,.2-.613l2.529.835-.338-1.795a.323.323,0,0,1,.387-.375l3.524.786-.942-2.259a.323.323,0,0,1,.6-.249l1.181,2.834a.322.322,0,0,1-.368.438l-3.653-.813.348,1.852a.323.323,0,0,1-.317.382Z" transform="translate(-134.508 -6053.252)" fill="#fff"/>
          <path id="Trazado_104642" data-name="Trazado 104642" d="M176.18,6108.182a7.375,7.375,0,0,0-.362.731c-.037.088-.074.173-.108.262-2.985-.962-3.793-5.086-1.385-7.491-10.547.476-8.845-.988-9.116-2.587-6.116,1.762-9.029.3-10.092-.528.042-.234.085-.458.129-.668.319-1.569.569-2.516.569-2.516l0,0,0,0c0,.006.007.013.012.021.19.322,2.465,3.834,9.985,1.78.5-.135,1.647.1.781,1.767-.241.465.353,1.013.908,1.078l8.245,1.033C172.367,6105.829,176.18,6108.182,176.18,6108.182Z" transform="translate(-133.904 -6081.621)" fill="#f28a81"/>
          <path id="Trazado_104643" data-name="Trazado 104643" d="M178.725,6127.649c-.088.025-.18.049-.271.07l-1.378-9.906a17.281,17.281,0,0,1-6.608,6.429c-4.539,2.459-7.335,1.529-7.335,1.529,6.531-.018,12.064-7.117,13.369-9.237a2.687,2.687,0,0,0,.4-1.277l.076-1.453a2.756,2.756,0,0,0,.413.022l.936,9.705v0Z" transform="translate(-133.163 -6079.917)" fill="#db6951" opacity="0.5"/>
          <path id="Trazado_104644" data-name="Trazado 104644" d="M172.72,6319.283l0-.026c.226-2.956.413-5.926.562-8.887v-.007q.111-2.167.193-4.331c.229-5.934.323-11.807.317-17.472-.01-7.433-.19-14.511-.449-20.894v0q-.439-1.557-.861-3.083c-2.834-10.253-5.147-19.665-8.033-29.988a1.51,1.51,0,0,0-1.451-1.1h0a1.506,1.506,0,0,1-1.477-1.21l-.606-3.038c-1.04-5.206,5.994-9.833,11.294-9.539,0,0-.257-2.218-.45-3.218H148.44l.02-.658h0l-.284,10.335-.089,3.241h0l-.051,1.933-.117,4.689a19.745,19.745,0,0,0-2.838.686,10.727,10.727,0,0,0-1.365.489c0,2.134-.017,6.077-.031,8.055h0a9.732,9.732,0,0,1,12.9,3.658,68.928,68.928,0,0,0,7.384,10.679,48.663,48.663,0,0,1,3.344,4.478h0l2.008,26.541c1.061,14-9.078,32-9.61,49.4s8.521,42.495,8.982,71.737h1.935c-.955-20.474,1.664-40.539,2.738-59.9q.208-3.733.329-7.438A157.994,157.994,0,0,0,172.72,6319.283Z" transform="translate(-134.961 -6070.484)" fill="#3d1b21" opacity="0.5"/>
          <path id="Trazado_104645" data-name="Trazado 104645" d="M161.207,6212.172l-7.489-.515a.981.981,0,0,0-.745.264.993.993,0,0,0-.316.726v4.3a.994.994,0,0,0,.993.993h7.489a.993.993,0,0,0,.992-.993v-3.779A1,1,0,0,0,161.207,6212.172Zm.268,4.77a.337.337,0,0,1-.335.337H153.65a.337.337,0,0,1-.336-.337v-2.38h3.352a.349.349,0,1,0,0-.7h-3.352v-1.217a.334.334,0,0,1,.107-.246.329.329,0,0,1,.228-.091h.024l7.489.516a.336.336,0,0,1,.312.336Z" transform="translate(-134.131 -6070.87)" fill="#afa9cb"/>
          <path id="Trazado_104646" data-name="Trazado 104646" d="M225.86,6404.562l-.218.122c-.132.006-.262.019-.39.032a9.82,9.82,0,0,0-1.413.236l.39-.22-6.056.526a.315.315,0,0,1-.349-.293.32.32,0,0,1,.293-.349l7.555-.658a.323.323,0,0,1,.187.6Z" transform="translate(-128.105 -6053.087)" fill="#fff"/>
          <path id="Trazado_104647" data-name="Trazado 104647" d="M191.971,6215.406,175.2,6212.69v1.358l16.773,2.659Z" transform="translate(-132.047 -6070.774)" fill="#271f37" opacity="0.75"/>
          <path id="Trazado_104648" data-name="Trazado 104648" d="M187.037,6098.6c-.522,3.814-4.5,9.608-4.5,9.608v0a2.887,2.887,0,0,0-1.505-1.643c-1.458-.626-3.292.207-4.581,1.918a7.512,7.512,0,0,0-.558.861s-3.813-2.353-.428-7.111c.209-3.814-4.079-2.913-4.291-2.866.258-.167,5.5-3.6.554-10.639-5.062-7.215-13.527,1.146-13.527,1.146s1.04-5.2,5.241-6.45c12.212-3.644,16.277,9.429,16.277,9.429S187.873,6092.482,187.037,6098.6Z" transform="translate(-133.619 -6082.786)" fill="#63212d"/>
          <path id="Trazado_104649" data-name="Trazado 104649" d="M159.936,6131.1a238.347,238.347,0,0,0-5.8,64.779l-1.774,47.822a19.728,19.728,0,0,0-8.147,1.415,18.506,18.506,0,0,0-4.145,2.223c4.515-42.466,1.806-58.326,1.389-62.919-.611-6.65-1.487-12.532-1.853-16.053-.626-6.117-2.808-16.618.011-24.029a11.193,11.193,0,0,1,1.284-2.584c1.8-2.452,4.514-1.925,14.958-9.027a29.616,29.616,0,0,1,4.285-2.438S160.071,6130.559,159.936,6131.1Z" transform="translate(-135.467 -6078.394)" fill="url(#linear-gradient-3)"/>
          <path id="Trazado_104650" data-name="Trazado 104650" d="M161.193,6127.31a12.359,12.359,0,0,0-1.978,3.246s-.075.276-.21.813a238.266,238.266,0,0,0-5.8,64.781c-6.209-17.656-4.775-52.746-4.775-52.746l4.53-1.229-.1-.725a12.484,12.484,0,0,1,5.19-11.937Z" transform="translate(-134.535 -6078.668)" fill="#271f37" opacity="0.75"/>
          <g id="Grupo_54515" data-name="Grupo 54515" transform="translate(13.369 120.992)">
            <path id="Trazado_104651" data-name="Trazado 104651" d="M150.5,6195.487c-.108,1-.764,1.746-1.467,1.672a.871.871,0,0,1-.264-.069,1.786,1.786,0,0,1-.815-1.877c.1-1,.761-1.746,1.465-1.672a1.058,1.058,0,0,1,.758.492A2.146,2.146,0,0,1,150.5,6195.487Z" transform="translate(-147.937 -6193.537)" fill="#271f37" opacity="0.75"/>
            <path id="Trazado_104652" data-name="Trazado 104652" d="M150.92,6195.866c-.108,1-.765,1.745-1.467,1.672a1.063,1.063,0,0,1-.756-.489.886.886,0,0,0,.264.069c.7.073,1.359-.675,1.467-1.673a2.146,2.146,0,0,0-.323-1.454A1.793,1.793,0,0,1,150.92,6195.866Z" transform="translate(-147.867 -6193.495)" fill="#1d1729" opacity="0.75"/>
          </g>
          <g id="Grupo_54516" data-name="Grupo 54516" transform="translate(12.038 150.956)">
            <path id="Trazado_104653" data-name="Trazado 104653" d="M149.28,6222.85c-.051,1-.668,1.787-1.373,1.749a.964.964,0,0,1-.274-.06,1.785,1.785,0,0,1-.91-1.828c.056-1,.671-1.783,1.378-1.744a1.056,1.056,0,0,1,.783.448A2.159,2.159,0,0,1,149.28,6222.85Z" transform="translate(-146.718 -6220.965)" fill="#271f37" opacity="0.75"/>
            <path id="Trazado_104654" data-name="Trazado 104654" d="M149.715,6223.2c-.051,1-.67,1.787-1.376,1.748a1.06,1.06,0,0,1-.783-.451.963.963,0,0,0,.274.059c.706.039,1.322-.746,1.373-1.749a2.162,2.162,0,0,0-.4-1.435A1.784,1.784,0,0,1,149.715,6223.2Z" transform="translate(-146.641 -6220.927)" fill="#1d1729" opacity="0.75"/>
          </g>
          <g id="Grupo_54517" data-name="Grupo 54517" transform="translate(12.495 134.071)">
            <path id="Trazado_104655" data-name="Trazado 104655" d="M149.7,6207.394c-.055,1-.671,1.786-1.377,1.748a.931.931,0,0,1-.268-.054,1.786,1.786,0,0,1-.912-1.832c.051-1,.667-1.783,1.377-1.745a1.065,1.065,0,0,1,.783.451A2.154,2.154,0,0,1,149.7,6207.394Z" transform="translate(-147.137 -6205.509)" fill="#271f37" opacity="0.75"/>
            <path id="Trazado_104656" data-name="Trazado 104656" d="M150.134,6207.749c-.056,1-.671,1.786-1.378,1.748a1.071,1.071,0,0,1-.78-.448.965.965,0,0,0,.268.054c.706.038,1.322-.745,1.377-1.748a2.155,2.155,0,0,0-.4-1.432A1.79,1.79,0,0,1,150.134,6207.749Z" transform="translate(-147.06 -6205.471)" fill="#1d1729" opacity="0.75"/>
          </g>
          <path id="Trazado_104657" data-name="Trazado 104657" d="M144.059,6235.392l-.032,2.865a15.385,15.385,0,0,1-4.113-.643A18.507,18.507,0,0,1,144.059,6235.392Z" transform="translate(-135.31 -6068.675)" fill="#2b204f"/>
          <path id="Trazado_104658" data-name="Trazado 104658" d="M166.384,6216.431l3.278,21.437,4.995.486,22.261,3.591,3.04,45.063a220.3,220.3,0,0,0,11.689,57.458l3.684,10.6a144.414,144.414,0,0,1,6.069,23.883l5.408,32.75-9.423,4.134,13.076.193c-10.372-67.3-14.736-93.924-20.425-122.6-4.277-21.566-5.364-37.808-10.29-54.542-8.6-.1-12.027-3.009-24.421-1.892l-.244.019c-.481.044-.973.094-1.486.149v.007c-.294.031-.587.062-.894.1,0,0-.219-1.4-.548-3.615-.525-3.515-1.356-9.1-2.111-14.46-.126-.931-.257-1.856-.381-2.754Z" transform="translate(-132.862 -6070.428)" fill="#51242c" opacity="0.5"/>
          <g id="Grupo_54520" data-name="Grupo 54520" transform="translate(19.687 21.383)">
            <g id="Grupo_54518" data-name="Grupo 54518" transform="translate(10.272)">
              <path id="Trazado_104659" data-name="Trazado 104659" d="M168.056,6105.823a.16.16,0,0,1-.056-.01,7.554,7.554,0,0,0-4-.28.164.164,0,0,1-.081-.318,7.763,7.763,0,0,1,4.194.291.164.164,0,0,1-.057.317Z" transform="translate(-163.061 -6102.11)" fill="#5e2023"/>
              <path id="Trazado_104660" data-name="Trazado 104660" d="M163.327,6102.644a8.589,8.589,0,0,1,1.875-.276,8.785,8.785,0,0,1,1.9.125,8.449,8.449,0,0,1,.938.219c.153.048.3.105.457.16a3.338,3.338,0,0,1,.45.184,7.749,7.749,0,0,1,1.667,1.025.573.573,0,0,1-.694.913l-.032-.026-.033-.029a6.637,6.637,0,0,0-1.351-.989,2.731,2.731,0,0,0-.377-.192c-.129-.058-.257-.119-.389-.174a8.169,8.169,0,0,0-4.267-.4l-.02,0a.276.276,0,0,1-.121-.538Z" transform="translate(-163.123 -6102.359)" fill="#4f1019"/>
            </g>
            <g id="Grupo_54519" data-name="Grupo 54519">
              <path id="Trazado_104661" data-name="Trazado 104661" d="M156.224,6105.823a.16.16,0,0,0,.056-.01,7.558,7.558,0,0,1,4-.28.162.162,0,0,0,.2-.12.164.164,0,0,0-.118-.2,7.76,7.76,0,0,0-4.193.291.164.164,0,0,0,.056.317Z" transform="translate(-153.504 -6102.11)" fill="#5e2023"/>
              <path id="Trazado_104662" data-name="Trazado 104662" d="M161.231,6102.644a8.589,8.589,0,0,0-1.875-.276,8.79,8.79,0,0,0-1.9.125,8.374,8.374,0,0,0-.937.219c-.154.048-.3.105-.458.16a3.338,3.338,0,0,0-.45.184,7.749,7.749,0,0,0-1.667,1.025.573.573,0,0,0,.694.913l.032-.026.033-.029a6.637,6.637,0,0,1,1.351-.989,2.731,2.731,0,0,1,.377-.192c.129-.058.258-.119.389-.174a8.172,8.172,0,0,1,4.268-.4l.019,0a.276.276,0,0,0,.121-.538Z" transform="translate(-153.721 -6102.359)" fill="#4f1019"/>
            </g>
            <path id="Trazado_104663" data-name="Trazado 104663" d="M161.658,6108.371c0,1.148-.038,2.29-.069,3.428-.018.57-.025,1.139-.026,1.7a15.121,15.121,0,0,0,.071,1.686l-.116-.138a9.334,9.334,0,0,0,1.243.372,6.415,6.415,0,0,0,1.3.17,4.856,4.856,0,0,1-1.334.048,7.223,7.223,0,0,1-1.32-.261l-.1-.028-.021-.109a10.492,10.492,0,0,1-.139-1.736c-.01-.577.013-1.153.05-1.725A24.9,24.9,0,0,1,161.658,6108.371Z" transform="translate(-153.034 -6101.803)" fill="#f28a81"/>
            <path id="Trazado_104664" data-name="Trazado 104664" d="M162.078,6118.928c.445.034.885.048,1.322.054a9.02,9.02,0,0,0,1.3-.067,3.25,3.25,0,0,0,2.256-1.087,2.1,2.1,0,0,1-.911.989,3.453,3.453,0,0,1-1.306.406A5.923,5.923,0,0,1,162.078,6118.928Z" transform="translate(-152.948 -6100.929)" fill="#f28a81"/>
          </g>
          <g id="Grupo_54521" data-name="Grupo 54521" transform="translate(59.283 189.949)">
            <path id="Trazado_104665" data-name="Trazado 104665" d="M190.118,6275.192l1.937,5.634a.314.314,0,0,0,.3.211h1.095a.313.313,0,0,0,.312-.314v-.958l.889-.035a.971.971,0,0,0,.908-.755l.459-2.016Z" transform="translate(-189.95 -6254.944)" fill="#f28a81"/>
            <path id="Trazado_104666" data-name="Trazado 104666" d="M199.246,6268.915s1.549,5.781,1.193,7.7a3.375,3.375,0,0,1-.805,1.643c-2.211,2.554-8.036,2.3-9.429-1.149-1.18-2.921,2.373-8.191,2.373-8.191l-.007-2.655v-3.408l-.012-6.194,8.3.35-.444,3.271Z" transform="translate(-189.964 -6256.658)" fill="#feb396"/>
          </g>
          <path id="Trazado_104667" data-name="Trazado 104667" d="M210.332,6218.125l-4.158,36.035-2.529,21.922-2.391-.092-1.112-.044-5.407-.225-1.793-.081h-.012l-1.143-.045-.718-.03-.494-.019-.543-59.769a29.152,29.152,0,0,1,2.316-11.67l-2.422-13.55-.007-.025-3.347-18.719a39.949,39.949,0,0,1,5.651-28.548l2.835-4.446,1.3.336a19.11,19.11,0,0,1,4.751,1.943c.437.249.862.524,1.274.812a18.81,18.81,0,0,1,4.078,3.815,18.532,18.532,0,0,1,3.99,10.2c.855,11.964-1.942,16.542-3.147,44.471C209.539,6206.3,211.357,6213.585,210.332,6218.125Z" transform="translate(-131.053 -6077.604)" fill="#583d66"/>
          <path id="Trazado_104668" data-name="Trazado 104668" d="M186.573,6171.813l3.347,18.721.005.024,2.423,13.55a29.138,29.138,0,0,0-2.316,11.671l.543,59.768.494.02.718.03c1.037-12.214,5.164-62.428,3.99-72.375a8.118,8.118,0,0,0-.175-1c-.188-.725-.368-1.449-.55-2.16-10.522-42.648,1.306-60.906,1.306-60.906l-1.3-.337-2.835,4.447A39.947,39.947,0,0,0,186.573,6171.813Z" transform="translate(-131.053 -6077.604)" fill="#271f37" opacity="0.5"/>
          <path id="Trazado_104669" data-name="Trazado 104669" d="M203.6,6190.378a50.991,50.991,0,0,1,.312,5.133c.044,1.536.074,3.327.1,5.307.175,16.135-.225,44.971.869,53.081l4.158-36.034c1.024-4.541-.793-11.827-3.028-17.728,1.2-27.93,4-32.507,3.147-44.47a18.532,18.532,0,0,0-3.99-10.2,18.834,18.834,0,0,0-4.078-3.815C201.023,6141.917,197.24,6157.822,203.6,6190.378Z" transform="translate(-129.762 -6077.343)" fill="#271f37" opacity="0.25"/>
        </g>
        <path id="Trazado_104670" data-name="Trazado 104670" d="M201.376,6144.768l.222,1.685a.665.665,0,0,0,.73.575h0a1.011,1.011,0,0,0,.879-.784l.876-3.887Z" transform="translate(-129.626 -6077.278)" fill="#f2726b"/>
        <path id="Trazado_104671" data-name="Trazado 104671" d="M203.52,6144.33l2.393-.763s5.285.426,6.194,3.523c2.114-1.521.946-4.562.909-4.655s-.019-1.057-1.391-1.149-4.469-.668-4.655-.706a1.491,1.491,0,0,0-1.465-.091c-.983.351-2,.37-2.1.8s-.334.519-.3.816S203.52,6144.33,203.52,6144.33Z" transform="translate(-129.466 -6077.464)" fill="#f2726b"/>
        <path id="Trazado_104672" data-name="Trazado 104672" d="M215.764,6206.064l-1.311,1.58-.326.394c-9.927-8.21-7.023-26.63-4.457-42.872l.306-1.936c.8-5.114.456-8.3-.275-10.278a6.97,6.97,0,0,0-.605-1.28,5.134,5.134,0,0,0-.65-.868,3.925,3.925,0,0,0-3.022-1.292l-.287-2.541a6.466,6.466,0,0,1,5.114,2.023,7.393,7.393,0,0,1,.9,1.136,8.9,8.9,0,0,1,.918,1.849c.069.187.138.375.2.574.082.25.15.511.219.78.057.207.1.418.144.637.056.275.106.556.143.849.032.163.05.331.069.506.013.087.025.174.032.268.025.213.044.431.062.656.007.163.019.319.025.487s.019.331.019.5a34.753,34.753,0,0,1-.475,6.389l-.306,1.935C209.737,6181.133,206.953,6198.784,215.764,6206.064Z" transform="translate(-129.279 -6076.852)" fill="url(#linear-gradient-5)"/>
        <path id="Trazado_104673" data-name="Trazado 104673" d="M248.09,6096.907a4.64,4.64,0,0,0-1.322-4.322c.966.482,2.441,1.831,2.491,3.228.966-1.144-.127-4.449-1.525-5.669,1.2.178,5.084,4.093,3.839,6.889s-3.3,2.034-3.356,1.8S248.09,6096.907,248.09,6096.907Z" transform="translate(-125.429 -6082.105)" fill="#63212d"/>
        <path id="Trazado_104674" data-name="Trazado 104674" d="M209.126,6138.987l-2.756-.823a2.606,2.606,0,0,0-2.979,1.155l-2.921,4.863,3.531-3.128a22.441,22.441,0,0,1,3.193-1.009C207.739,6140.045,209.126,6138.987,209.126,6138.987Z" transform="translate(-129.71 -6077.675)" fill="#f2726b"/>
        <path id="Trazado_104675" data-name="Trazado 104675" d="M260.912,6178.86a9.931,9.931,0,0,1-1.21-.244,17.62,17.62,0,0,1-5.221-2.646c-.037-.025-.074-.05-.113-.082-.217-.144-.437-.305-.667-.468-.787-.562-1.617-1.186-2.51-1.874-6.481-5.014-16.547-12.194-34.673-22.647a6.183,6.183,0,0,1-3.947,1.824,1.011,1.011,0,0,1-.143-.007,6.735,6.735,0,0,1-2.929-.736,27.391,27.391,0,0,0-7.38-2.03.807.807,0,0,1-.556-.856,1.25,1.25,0,0,1,.05-.343.7.7,0,0,1,.674-.5l1.536.012,3.815.037a6.646,6.646,0,0,0,1.986-.287,6.554,6.554,0,0,0,1.923-.886,2.752,2.752,0,0,0,1.2-2.441,1.854,1.854,0,0,0-1.4-1.649l-5.888-1.449-4.339,3.872a1.218,1.218,0,0,1-1.212.224.34.34,0,0,1-.156-.511l4.14-5.651a1.486,1.486,0,0,1,1.205-.619h3.065a14.142,14.142,0,0,1,8.836,3.11,26.6,26.6,0,0,0,8.03,4.558c13.887,4.74,20.8,6.838,27.349,9.285.194.076.388.145.581.219.493.188.986.375,1.486.568,2.492.975,5.033,2.042,7.992,3.373,1.692.761,3.516,1.6,5.551,2.572C271.5,6164.256,268.617,6179.89,260.912,6178.86Z" transform="translate(-129.782 -6077.596)" fill="url(#linear-gradient)"/>
        <path id="Trazado_104676" data-name="Trazado 104676" d="M258.539,6168.641c-.062.343-2.173,5.676-3.3,8.517-.418,1.042-.7,1.754-.7,1.754s-5.07-.25-6.556-2.916a10.586,10.586,0,0,0,1.255-2.03,13.024,13.024,0,0,0,.918-2.591c1.83-7.305-1.536-16.428-1.661-16.753v-.006l8.018.836a9.024,9.024,0,0,1,1.367,2.736c.025.118.063.243.094.368a9.221,9.221,0,0,1,.568,3.1C258.377,6162.6,258.614,6168.166,258.539,6168.641Z" transform="translate(-125.317 -6076.144)" fill="#d4cdf7"/>
        <path id="Trazado_104677" data-name="Trazado 104677" d="M276.592,6408.336c-.038,1.313-.1,2.292-.147,3.021-.06.811-.123,1.311-.175,1.616a.541.541,0,0,1-.539.45H242.587a.55.55,0,0,1-.544-.477,5.547,5.547,0,0,1-.054-.609,5.453,5.453,0,0,1,4.549-5.516c5.993-1,13.3-2.213,17.36-8.645a.546.546,0,0,1,.458-.255h7.9a.545.545,0,0,1,.427.2C273.465,6399.108,276.738,6403.524,276.592,6408.336Z" transform="translate(-125.871 -6053.645)" fill="#2f1a1d"/>
        <path id="Trazado_104678" data-name="Trazado 104678" d="M286.767,6300.592h0l18.174-95.378H267.62s-7.412,38.279-4.69,95.378h0l-.7,5.555,2.033,4.106s-2.081,78.882-4.9,105.093a.535.535,0,0,0,.327.555c2.059.879,12.11,4.853,15.265.12a15.013,15.013,0,0,0,2.341-11.355l-.78-4.974a.538.538,0,0,1,.015-.239c.822-2.716,15.81-46.5,16.395-70.275C293.114,6321.892,286.767,6300.592,286.767,6300.592Z" transform="translate(-124.264 -6071.465)" fill="#0b151e"/>
        <path id="Trazado_104679" data-name="Trazado 104679" d="M275.48,6128.6l-15.593,10.775-.813-2.547-3.346-10.519,6.092-4.856,4.345-3.474.4-.32c.013.064.032.134.045.2a13.618,13.618,0,0,0,2.636,4.813,26.43,26.43,0,0,0,1.875,2.112c.128.134.256.262.378.383.889.883,1.752,1.645,2.444,2.22.819.685,1.4,1.113,1.523,1.2Z" transform="translate(-124.601 -6079.561)" fill="url(#linear-gradient)"/>
        <g id="Grupo_54523" data-name="Grupo 54523" transform="translate(167.207 349.23)">
          <path id="Trazado_104680" data-name="Trazado 104680" d="M311.983,6411.442c-.025.324-.069.655-.118.992l-.113.7a.545.545,0,0,1-.537.468H289.58a.53.53,0,0,1-.5-.332,4.357,4.357,0,0,1-.205-.749,7.636,7.636,0,0,1,.83-5.032,3.789,3.789,0,0,1,2.479-1.88h.032a14.918,14.918,0,0,0,1.617-.193,10.531,10.531,0,0,0,5.932-2.8.531.531,0,0,1,.387-.162l9.51.011a.565.565,0,0,1,.494.294A14.781,14.781,0,0,1,311.983,6411.442Z" transform="translate(-288.754 -6402.457)" fill="#2f1a1d"/>
          <path id="Trazado_104681" data-name="Trazado 104681" d="M302.343,6413.353H289.582a.53.53,0,0,1-.5-.329,7.438,7.438,0,0,1,.623-5.781,3.806,3.806,0,0,1,2.483-1.881h.025a1.9,1.9,0,0,1,.288-.051c.083-.013.159-.02.242-.032a.248.248,0,0,0,.045-.007c.038-.007.078-.013.128-.02.179-.019.5-.051.915-.083,1.919-.121,5.874-.1,7.845,2.029a5.577,5.577,0,0,1,1.181,5.8A.542.542,0,0,1,302.343,6413.353Z" transform="translate(-288.754 -6402.209)" fill="#2f1a1d"/>
        </g>
        <path id="Trazado_104682" data-name="Trazado 104682" d="M312.523,6420.7a.559.559,0,0,1-.631.3c-.768-.187-3.121-.5-9.515-.019a.561.561,0,0,1-.35-.094,16.738,16.738,0,0,1-3.791-8.048,6.262,6.262,0,0,1-.062-.893c-.118-38.551-11.226-76.853-16.478-92.22-1.38-4.021-2.442-8.043-2.485-8.235l-.007-.007v-7.068c-8.635-54.3-14.068-58.851-13.449-74.18.05-1.317.15-2.715.293-4.233.045-.524.1-1.062.163-1.617a25.7,25.7,0,0,1-.456-4.752,89.557,89.557,0,0,1,1.28-14.417h37.321s6.356,10.964,7.793,21.111c-1.63,16.946-.775,33.019-3.334,76.241,0,0,8.653,17.652,9.959,34.817C320.2,6356.106,315.163,6414.957,312.523,6420.7Z" transform="translate(-123.678 -6071.465)" fill="#16293c"/>
        <path id="Trazado_104683" data-name="Trazado 104683" d="M264.621,6140.809c-7.169,2.154-14.062,13.044-13.032,24.833,0,.013.007.025.007.038-.044-.138-.087-.287-.144-.431a13.891,13.891,0,0,1-.536-2.291c0-.006-.007-.014-.007-.02-1.461-10.021,7.443-21.573,9.154-23.677.175-.225.281-.337.281-.337l-.175-.543-.1-.324-.531-1.68s6.868-2.822,10.453-8.548a15.085,15.085,0,0,0,.9-1.662,13.934,13.934,0,0,0,.693-1.835,13.6,13.6,0,0,0,.394-1.768l3.951,5.564.013.019.007.007C277.926,6131.225,276.148,6137.356,264.621,6140.809Z" transform="translate(-125.061 -6079.107)" fill="#e8e3f9"/>
        <path id="Trazado_104684" data-name="Trazado 104684" d="M305.676,6212.38v.006a18.009,18.009,0,0,1-19.319,8.011,44.76,44.76,0,0,1-16.2,10.24c-.981.356-1.867.644-2.629.862a27.352,27.352,0,0,1-3.041.731,46.124,46.124,0,0,1-2.7-12.308v-.006c-.087-1.374-.1-2.673-.081-4a80.2,80.2,0,0,0-1.005-16.291v-.007c-.1-.594-.206-1.212-.319-1.848l-.019-.612-.219-.687c-1.111-3.447-6.107-19.244-8.6-31.264,0-.013-.007-.025-.007-.038-1.03-11.79,5.863-22.679,13.032-24.833,11.527-3.452,13.305-9.583,11.327-12.656a.346.346,0,0,1,.069.043c.168.106.605.4,1.249.861.111.088.237.175.362.268a53.957,53.957,0,0,1,7.393,6.719q.328.357.655.731c.7.786,1.4,1.63,2.092,2.522.144.181.287.369.425.556s.274.355.405.543c.244.324.481.654.719,1s.474.686.706,1.035a45.955,45.955,0,0,1,3.821,7.006c.15.35.3.706.442,1.069.437,1.079.831,2.222,1.2,3.415a92.119,92.119,0,0,1,3.521,14.012c2.46,13.968,2.211,27.143,3.753,33.581.531,2.229,2.423,4.009,3.279,6.231.069.181.131.362.188.55A6.148,6.148,0,0,1,305.676,6212.38Z" transform="translate(-124.999 -6078.635)" fill="#1b4166"/>
        <path id="Trazado_104685" data-name="Trazado 104685" d="M286.834,6165.542c-1.785,10.122-6.956,14.619-10.334,16.522a14.055,14.055,0,0,1-2.8,1.223c-.194.056-.294.076-.294.076v-.007q.88-1.638,1.736-3.3c5.17-10,9.648-20.194,10.409-26.631a8.682,8.682,0,0,0-.338-2.934c-.044-.194-.093-.381-.138-.563-.642-2.353-1.81-3.8-3.546-5.9.175.086,2.916,1.772,4.615,6.394.007.007.007.019.012.026C287.371,6153.785,288.052,6158.648,286.834,6165.542Z" transform="translate(-122.966 -6077.123)" fill="#d4cdf7"/>
        <path id="Trazado_104686" data-name="Trazado 104686" d="M247.167,6223.954c-8.83-1.721-16.886-10.059-16.886-10.059a.049.049,0,0,1-.007.02c-1.375,1.9-2.744,3.858-4.075,5.835l.071.886.261.727.013.031c.806,2.509,3.474,7.077,12.233,7.89,6.936.748,10.136-1.44,11.722-5.024A15.8,15.8,0,0,1,247.167,6223.954Z" transform="translate(-127.331 -6070.663)" fill="#e8e3f9"/>
        <path id="Trazado_104687" data-name="Trazado 104687" d="M289.567,6154.262c-.662,5.588-4.127,14.011-8.417,22.684-.642,1.313-1.311,2.628-1.992,3.94-.568,1.111-1.155,2.21-1.736,3.3v.007c-.481.9-1.486,2.916-2.691,5.357-.85,1.723-1.8,3.659-2.736,5.576-2.035,4.183-4.008,8.248-4.746,9.766a.03.03,0,0,0-.005.019c-.131.218-1.443,2.5-3.522,5.72-.643.986-1.355,2.067-2.129,3.2a.006.006,0,0,1-.007.006c-.35.518-.718,1.049-1.092,1.586-1.118,1.58-2.348,3.252-3.684,4.938a70.98,70.98,0,0,1-9.991,10.4,20.647,20.647,0,0,1-3.359-.961c-7.411-2.768-13.525-9.1-13.525-9.1,2.273-3.147,4.558-6.144,6.707-8.879l.005-.005c4.964-6.295,9.2-11.146,10.89-13.039-.331-.555-.674-1.056-.5-1.548a1.265,1.265,0,0,1,1.324-.855s-.986-.774-.506-1.511a1.308,1.308,0,0,1,1.529-.556c.406-2.435,1.024-6,1.78-10.084.437-2.385.924-4.939,1.449-7.554v-.006c2.173-10.772,4.939-22.511,7.462-26.788a23.068,23.068,0,0,1,2.791-3.428c.587-.63,1.23-1.3,1.917-1.986a14.7,14.7,0,0,1,16.684-2.922.022.022,0,0,1,.019.006,14.138,14.138,0,0,1,4.208,2.991h.007a13.892,13.892,0,0,1,3.628,6.731A8.726,8.726,0,0,1,289.567,6154.262Z" transform="translate(-126.985 -6077.481)" fill="#e8e3f9"/>
        <path id="Trazado_104688" data-name="Trazado 104688" d="M286.5,6155.739c-.743,6.263-5.008,16.091-10,25.826a12.4,12.4,0,0,1-3.1,1.3v-.007q.88-1.638,1.736-3.3c5.17-10,9.648-20.194,10.409-26.631a8.685,8.685,0,0,0-.338-2.935c-.044-.193-.093-.381-.138-.562a14.074,14.074,0,0,1,1.193,3.329A8.8,8.8,0,0,1,286.5,6155.739Z" transform="translate(-122.966 -6076.623)" fill="#847caa" opacity="0.15"/>
        <path id="Trazado_104689" data-name="Trazado 104689" d="M260.537,6137.936a22.071,22.071,0,0,0,3.722-1.661,25.178,25.178,0,0,0,3.4-2.225,25.6,25.6,0,0,0,3.039-2.7,32.631,32.631,0,0,0,2.654-3.1c-.388.56-.746,1.145-1.161,1.689s-.842,1.082-1.318,1.576a23.268,23.268,0,0,1-3.025,2.783,22.806,22.806,0,0,1-3.481,2.188A17.2,17.2,0,0,1,260.537,6137.936Z" transform="translate(-124.156 -6078.582)" fill="#847caa" opacity="0.5"/>
        <path id="Trazado_104690" data-name="Trazado 104690" d="M249.34,6172.488a10.643,10.643,0,0,1-1.253,2.028,6.551,6.551,0,0,1-1.255-3.9C247.722,6171.3,248.554,6171.924,249.34,6172.488Z" transform="translate(-125.423 -6074.665)" fill="#847caa"/>
        <path id="Trazado_104691" data-name="Trazado 104691" d="M276.389,6410.835c-.044.462-.086.781-.123,1a.542.542,0,0,1-.539.45H242.583a.55.55,0,0,1-.544-.478l0-.011a.546.546,0,0,1,.53-.615l33.262-.946A.55.55,0,0,1,276.389,6410.835Z" transform="translate(-125.867 -6052.507)" fill="#231416"/>
        <path id="Trazado_104692" data-name="Trazado 104692" d="M266.917,6118.925c.724,5.563.312,9.916-1.03,13.137a11.076,11.076,0,0,1-7.737,6.794,19.289,19.289,0,0,1-8.972-2.854,24.028,24.028,0,0,1-3.216-2.366c-3.359-2.922-5.557-6.264-7.075-7.812-.1-.106-.2-.2-.293-.287-.294-.268-.581-.549-.855-.849.393-.037.8-.094,1.212-.162,12.638-1.992,13.006-10.277,13.006-10.277,5.7-1.312,10.19,3.32,10.19,3.32l2.254-1.492,2.311-1.537.931-.63a26.315,26.315,0,0,1-.637,4.652A3.586,3.586,0,0,1,266.917,6118.925Z" transform="translate(-126.264 -6079.907)" fill="url(#linear-gradient)"/>
        <path id="Trazado_104693" data-name="Trazado 104693" d="M270.369,6122.6a13.169,13.169,0,0,1-.39,1.767,26.442,26.442,0,0,1-1.875-2.112A3.4,3.4,0,0,1,270.369,6122.6Z" transform="translate(-123.456 -6079.142)" fill="#938cac"/>
        <path id="Trazado_104694" data-name="Trazado 104694" d="M269.015,6115.661l-.05.032-.931.63-4.564,3.028s-4.5-4.633-10.191-3.32c0,0-.368,8.285-13.006,10.277-.413.068-.818.125-1.212.162-14.6,1.617-15.635-11.353-15.635-11.353a.075.075,0,0,1,.013.026c.224.281,5.931,4.2,8.947,2.647a.067.067,0,0,1-.013-.019c-2.641-4.5,2.173-20.255,13.681-21.761a15.27,15.27,0,0,1,6.139.505,6.073,6.073,0,0,1,2.442-1.435,10.211,10.211,0,0,1,10.508,2.909,14.4,14.4,0,0,1,2.941,4.8C271.786,6112.421,269.015,6115.661,269.015,6115.661Z" transform="translate(-127.587 -6081.691)" fill="#773634"/>
        <path id="Trazado_104695" data-name="Trazado 104695" d="M266.781,6120.043a3.376,3.376,0,0,1-1.674,1.292,2.271,2.271,0,0,1-.543.138c-1.817.255-3.591-1.237-4.44-3.522a8.509,8.509,0,0,1-.444-1.748,6.937,6.937,0,0,1,1.012-4.933,3.311,3.311,0,0,1,2.248-1.474c2.254-.312,4.433,2.048,4.882,5.271A6.923,6.923,0,0,1,266.781,6120.043Z" transform="translate(-124.242 -6080.291)" fill="#f8b296"/>
        <path id="Trazado_104696" data-name="Trazado 104696" d="M266.1,6118.843a2.208,2.208,0,0,1-1.15.734,2.369,2.369,0,0,1-1.392-.1,4.114,4.114,0,0,1-2.011-1.889,6.053,6.053,0,0,1-.708-2.668,4.456,4.456,0,0,1,.7-2.623,5.033,5.033,0,0,0-.465,2.612,6.148,6.148,0,0,0,.742,2.529,4.005,4.005,0,0,0,1.827,1.817A2.22,2.22,0,0,0,266.1,6118.843Z" transform="translate(-124.128 -6080.057)" fill="#db6951" opacity="0.5"/>
        <path id="Trazado_104697" data-name="Trazado 104697" d="M243.984,6127.373c1.156,1.326,2.228,2.709,3.374,4.018.572.655,1.16,1.294,1.788,1.886a8.875,8.875,0,0,0,2.051,1.525l-.13.008c.282-.147.557-.3.831-.463a4.065,4.065,0,0,0,.764-.572,3.118,3.118,0,0,1-.662.712,6.867,6.867,0,0,1-.787.576l-.057.037-.072-.028a7.542,7.542,0,0,1-2.242-1.464,18.91,18.91,0,0,1-1.829-1.923A37.752,37.752,0,0,1,243.984,6127.373Z" transform="translate(-125.686 -6078.663)" fill="#db6951" opacity="0.5"/>
        <path id="Trazado_104698" data-name="Trazado 104698" d="M245.954,6126.544c.084-.706.205-1.4.329-2.1l.008-.037.033-.029a11.013,11.013,0,0,1,2.619-1.677,9.422,9.422,0,0,1,1.462-.535,7.609,7.609,0,0,1,1.526-.272,14.035,14.035,0,0,0-2.861,1.073,16.368,16.368,0,0,0-2.587,1.6l.039-.065C246.347,6125.18,246.168,6125.866,245.954,6126.544Z" transform="translate(-125.504 -6079.17)" fill="#db6951" opacity="0.5"/>
        <path id="Trazado_104699" data-name="Trazado 104699" d="M243.786,6127.724a5.463,5.463,0,0,1-1.6-.192l.109-.018a4.829,4.829,0,0,1-.944.4,4.99,4.99,0,0,1,.787-.66l.045-.03.066.012A5.487,5.487,0,0,1,243.786,6127.724Z" transform="translate(-125.93 -6078.677)" fill="#db6951" opacity="0.5"/>
        <path id="Trazado_104700" data-name="Trazado 104700" d="M255.517,6132.894a.157.157,0,0,1-.082-.29,4.607,4.607,0,0,0,1.742-2.479.156.156,0,1,1,.3.086,4.829,4.829,0,0,1-1.879,2.659A.154.154,0,0,1,255.517,6132.894Z" transform="translate(-124.634 -6078.419)" fill="#db6951" opacity="0.5"/>
        <path id="Trazado_104701" data-name="Trazado 104701" d="M301.449,6201.288a7.452,7.452,0,0,1-3.847,1.018,1.031,1.031,0,0,1-.962-.743l-.837-3.078a.532.532,0,0,1,.413-.662,7.109,7.109,0,0,0,2.81-1.167,1.676,1.676,0,0,1,2.472.518,5.913,5.913,0,0,1,.331.725,7.851,7.851,0,0,1,.405,1.786A1.629,1.629,0,0,1,301.449,6201.288Z" transform="translate(-120.896 -6072.288)" fill="#1d69b3"/>
        <path id="Trazado_104702" data-name="Trazado 104702" d="M301.974,6201.086a1.456,1.456,0,0,1-.394.33,7.454,7.454,0,0,1-3.845,1.012,1,1,0,0,1-.962-.744l-.044-.168a1.011,1.011,0,0,0,.788.4,7.446,7.446,0,0,0,3.847-1.018,1.708,1.708,0,0,0,.424-.362C301.855,6200.717,301.917,6200.9,301.974,6201.086Z" transform="translate(-120.809 -6071.898)" fill="#16293c" opacity="0.25"/>
        <path id="Trazado_104703" data-name="Trazado 104703" d="M300.5,6198.639c.258.854.114,1.651-.32,1.782s-.994-.456-1.251-1.308-.114-1.65.32-1.782S300.245,6197.787,300.5,6198.639Z" transform="translate(-120.617 -6072.196)" fill="#14314d"/>
        <path id="Trazado_104704" data-name="Trazado 104704" d="M263.028,6116.273a8.35,8.35,0,0,0,.441,1.753s-4.5-4.633-10.193-3.328c0,0-.365,8.287-13,10.283-15.753,2.489-16.848-11.192-16.848-11.192a.083.083,0,0,1,.013.027c.3.773,6.788,17.886,22.445,5.481,3.709-2.937,1.841-8.946,1.841-8.946s8.429-3.625,16.313.988A6.932,6.932,0,0,0,263.028,6116.273Z" transform="translate(-127.587 -6080.363)" fill="#63212d"/>
        <path id="Trazado_104705" data-name="Trazado 104705" d="M262.234,6117.193a3.23,3.23,0,0,1-.3-1.333,2.832,2.832,0,0,1,.312-1.362,2.618,2.618,0,0,1,.948-1.027,3.736,3.736,0,0,1,.614-.317c.218-.072.44-.129.659-.18a6.157,6.157,0,0,0-1.132.691,2.937,2.937,0,0,0-.812.976A4.068,4.068,0,0,0,262.234,6117.193Z" transform="translate(-124.026 -6079.994)" fill="#db6951" opacity="0.5"/>
        <path id="Trazado_104706" data-name="Trazado 104706" d="M270.4,6124.643a13.489,13.489,0,0,1-.692,1.836,14.85,14.85,0,0,1-.9,1.663c-.665-1.4-1.612-3.371-2.5-5.111a26.749,26.749,0,0,1-2.79,8.522,23.948,23.948,0,0,0,1.228-11.083,3.422,3.422,0,0,0,1.67-1.292,16.1,16.1,0,0,0,2.112,3.352A26.366,26.366,0,0,0,270.4,6124.643Z" transform="translate(-123.88 -6079.421)" fill="#db6951" opacity="0.5"/>
        <path id="Trazado_104707" data-name="Trazado 104707" d="M260.1,6137.952c-1.709,2.1-10.616,13.654-9.15,23.674-3.666-14.4,9.156-24.883,9.156-24.883l.1.325.173.544S260.281,6137.728,260.1,6137.952Z" transform="translate(-125.103 -6077.797)" fill="#16293c"/>
        <path id="Trazado_104708" data-name="Trazado 104708" d="M268.335,6186.325a11.394,11.394,0,0,1-1.212,5.189c-.368-.062-.736-.138-1.1-.212a11.22,11.22,0,0,0,1.674-6v-.1c.188.037.375.074.568.105A7.664,7.664,0,0,1,268.335,6186.325Z" transform="translate(-123.648 -6073.315)" fill="#e8e3f9" opacity="0.5"/>
        <path id="Trazado_104709" data-name="Trazado 104709" d="M203.636,6150.787a3.277,3.277,0,0,1,3.3-3.084l.709.006a6.722,6.722,0,0,0,1.989-.282,4.614,4.614,0,0,0-5.314-1.938,5.1,5.1,0,0,0-3.679,4.643c-1.012,16.409-4.792,99.939,12.758,139.862l2.343-1.029C198.836,6250.5,202.643,6167.828,203.636,6150.787Z" transform="translate(-129.791 -6077.007)" fill="url(#linear-gradient-5)"/>
        <g id="Grupo_54524" data-name="Grupo 54524" transform="translate(73.616 149.087)">
          <path id="Trazado_104710" data-name="Trazado 104710" d="M205.648,6247.339l-2.193,3.521c-1.462,1.957,1.868,2.456,1.868,2.456.51,1.844,2.561,1.324,2.561,1.324a8.867,8.867,0,0,0,1.43.96,2.578,2.578,0,0,0,1.936-.026s1.036.857,1.791.542c2.271-.95,3.422-4.117,4.514-7.24C215.91,6246.628,205.648,6247.339,205.648,6247.339Z" transform="translate(-203.084 -6216.667)" fill="#ef7b60"/>
          <path id="Trazado_104711" data-name="Trazado 104711" d="M240.778,6228.79a281.516,281.516,0,0,0-21.811,19.8c-.005.006-.005.012-.012.012-.287.287-.581.587-.881.887-1.317,4.521-3.1,7.049-7.368,6.837a10.2,10.2,0,0,1-4.359-1.249c-.911-.493-1.76-1.093-1.76-1.61a7.262,7.262,0,0,1,3.14-5.982l2.236-1.542c8.03-10.8,11.745-17.09,16.335-23.915.612-.912,1.242-1.83,1.9-2.772a7.2,7.2,0,0,0,.331,1.611l.012.03C229.351,6223.407,232.018,6227.978,240.778,6228.79Z" transform="translate(-202.945 -6219.255)" fill="url(#linear-gradient)"/>
        </g>
        <path id="Trazado_104712" data-name="Trazado 104712" d="M267.129,6120.945c-1.4.968-3.915.949-4.845-.25s-4.4-4.54-7.774-4.353a19.862,19.862,0,0,1-15.623,9.472c-.1-.106-.2-.2-.293-.287-.294-.268-.581-.549-.855-.849.393-.037.8-.094,1.212-.162,12.638-1.992,13.006-10.277,13.006-10.277,5.7-1.312,10.19,3.321,10.19,3.321.849,2.286,2.623,3.778,4.44,3.522A2.247,2.247,0,0,0,267.129,6120.945Z" transform="translate(-126.264 -6079.899)" fill="#db6951" opacity="0.5"/>
        <path id="Trazado_104713" data-name="Trazado 104713" d="M200.218,6275.929a3.371,3.371,0,0,1-.805,1.642c.749-4.739-2.074-9.947-2.074-9.947l-4.989-2.048v-1.516l1.793.08,5.407.225-.524,3.865S200.574,6274.012,200.218,6275.929Z" transform="translate(-130.461 -6066.024)" fill="#f28a81"/>
        <path id="Trazado_104714" data-name="Trazado 104714" d="M217.75,6248.59c2.467-3.1,13.519-13.483,16.01-17.96-6.591-3.338-8.667-6.08-8.679-8.6.612-.912,1.242-1.83,1.9-2.772a7.2,7.2,0,0,0,.331,1.611l.012.03c.812,2.511,3.478,7.082,12.239,7.893A281.519,281.519,0,0,0,217.75,6248.59Z" transform="translate(-128.112 -6070.167)" fill="#f28a81"/>
        <path id="Trazado_104715" data-name="Trazado 104715" d="M246.82,6224.7c-8.829-1.717-16.884-10.06-16.884-10.06,2.273-3.147,4.558-6.144,6.707-8.879a.052.052,0,0,1,.019-.005l-4.758,8.211A35.266,35.266,0,0,0,246.82,6224.7Z" transform="translate(-126.985 -6071.415)" fill="#847caa" opacity="0.15"/>
        <path id="Trazado_104716" data-name="Trazado 104716" d="M239.525,6127.1a2.452,2.452,0,0,1,.773-.989,3.346,3.346,0,0,1,1.1-.594,3.215,3.215,0,0,1,1.242-.164,2.492,2.492,0,0,1,1.2.36c-.405.173-.768.267-1.12.385l-1.028.332C241.007,6126.643,240.352,6126.888,239.525,6127.1Z" transform="translate(-126.099 -6078.85)" fill="#4a1922"/>
        <path id="Trazado_104717" data-name="Trazado 104717" d="M244.754,6124.145a3.534,3.534,0,0,1,.421-2.4,5.758,5.758,0,0,1,1.629-1.855,7.5,7.5,0,0,1,2.145-1.119c.386-.111.776-.2,1.165-.276a8.54,8.54,0,0,1,1.2-.067,9.683,9.683,0,0,1-.981.658c-.323.2-.637.417-.959.6-.616.413-1.237.785-1.794,1.225a11.025,11.025,0,0,0-1.576,1.4A7.38,7.38,0,0,0,244.754,6124.145Z" transform="translate(-125.622 -6079.49)" fill="#4a1922"/>
        <path id="Trazado_104718" data-name="Trazado 104718" d="M311.973,6410.682c-.025.324-.069.655-.118.992l-.113.7a.545.545,0,0,1-.538.468H289.57a.53.53,0,0,1-.5-.332,4.366,4.366,0,0,1-.205-.75Z" transform="translate(-121.536 -6052.466)" fill="#231416"/>
        <path id="Trazado_104719" data-name="Trazado 104719" d="M312.494,6420.695s-2.7-72.508-6.525-90.641c.125-7.686,0-24.239,0-24.239s-6.032-18.92-6.4-36.191c2.391-14.118,6.4-53.274,6.4-53.274s-5.87,2.44-18.164,1.118c-10.134,6.493-18.282,8.123-21.786,8.528.045-.524.1-1.062.163-1.617a.156.156,0,0,1-.005-.05,44.864,44.864,0,0,0,18.832-11.1,18.009,18.009,0,0,0,19.319-8.011s6.356,10.958,7.793,21.1c-1.63,16.946-.775,33.019-3.334,76.241,0,0,8.653,17.652,9.959,34.817C320.167,6356.106,315.134,6414.956,312.494,6420.695Z" transform="translate(-123.649 -6071.465)" fill="#0b151e" opacity="0.25"/>
        <path id="Trazado_104720" data-name="Trazado 104720" d="M288.423,6154.262c-.761,6.432-5.24,16.627-10.409,26.625-.568,1.111-1.155,2.21-1.736,3.3v.007c-.481.9-1.486,2.916-2.691,5.357-.85,1.723-1.8,3.659-2.736,5.576-2.035,4.183-4.008,8.248-4.746,9.766a.03.03,0,0,0-.005.019c-.175.287-2.354,4.09-5.651,8.923a.006.006,0,0,1-.007.006c-.35.518-.718,1.049-1.092,1.586-1.118,1.58-2.348,3.252-3.684,4.938a70.978,70.978,0,0,1-9.991,10.4,20.647,20.647,0,0,1-3.359-.961l13.762-14.624s8.311-29.691,11.14-36.385c11.208-5.987,13.693-27.761,9.5-31.22-3.653-3.023-12.725-1.555-15-1.124.587-.63,1.23-1.3,1.917-1.986a14.7,14.7,0,0,1,16.684-2.922.022.022,0,0,1,.019.006,14.138,14.138,0,0,1,4.208,2.991h.007a13.892,13.892,0,0,1,3.628,6.731A8.727,8.727,0,0,1,288.423,6154.262Z" transform="translate(-125.841 -6077.481)" fill="#d4cdf7" opacity="0.5"/>
        <path id="Trazado_104721" data-name="Trazado 104721" d="M215.533,6205.713l-1.311,1.58c-9.76-11.419-6.07-27.7-5.1-32.893,4.421-17.509,2.43-21.05,2.43-21.05l-2.08-.749a6.949,6.949,0,0,0-.605-1.279l-.392-.567a8.071,8.071,0,0,0,3.221.867,1.011,1.011,0,0,0,.143.007c.069.187.138.375.2.575.082.249.15.511.219.78.057.206.1.418.144.637.056.275.106.556.143.849.032.163.05.331.069.506.013.087.025.174.032.269.025.213.044.43.062.655.007.163.019.319.025.487s.019.331.019.5a34.752,34.752,0,0,1-.475,6.389l-.306,1.935C209.507,6180.781,206.722,6198.433,215.533,6205.713Z" transform="translate(-129.048 -6076.501)" fill="#f19b6c"/>
        <path id="Trazado_104722" data-name="Trazado 104722" d="M204.407,6249.184l-1.212,1.844a1.983,1.983,0,0,0,.556,2.737l1.2.8.134.27a1.421,1.421,0,0,0,1.948.612l1.266-.687-.551-.891s-1.7-1.079-1.78-1.159-1.22-1.321-1.22-1.321l-.4-.27Z" transform="translate(-129.488 -6067.399)" fill="#ef7b60"/>
        <path id="Trazado_104723" data-name="Trazado 104723" d="M253.194,6171.813a13.015,13.015,0,0,1-.918,2.591c-.787-.562-1.617-1.186-2.51-1.874-6.48-5.013-16.547-12.194-34.673-22.647l35.928,19.844s1.954-8.13-.069-14.886c.194.076.388.145.581.219C251.658,6155.385,255.024,6164.508,253.194,6171.813Z" transform="translate(-128.358 -6076.582)" fill="#db6951" opacity="0.5"/>
        <path id="Trazado_104724" data-name="Trazado 104724" d="M279.993,6188.465s16.2-18.726,7.324-38.557c1.218,3.333,1.9,8.2.681,15.091-1.785,10.122-6.956,14.619-10.334,16.522a14.054,14.054,0,0,1-2.8,1.223c-.1.182-.2.363-.294.543v.007c-.481.905-1.486,2.916-2.691,5.357-.85,1.723-1.8,3.659-2.736,5.576-2.035,4.183-4.008,8.248-4.746,9.766a.03.03,0,0,0-.005.019c-.131.218-1.443,2.5-3.522,5.72,0,2.21-.069,4.112-.037,6.056,0,.024,0,.049,0,.073.012.658.036,1.32.08,2v.006a46.124,46.124,0,0,0,2.7,12.308,27.264,27.264,0,0,0,3.041-.731c.761-.218,1.647-.505,2.629-.862-2.838-7.082-3.119-14.729-3-19Z" transform="translate(-124.129 -6076.58)" fill="#16293c" opacity="0.5"/>
        <path id="Trazado_104725" data-name="Trazado 104725" d="M262.3,6145.923s-4.652,34.136-10.2,47.523c-5.457,13.182-15.7,17.709-16.022,17.847,4.964-6.295,9.2-11.146,10.89-13.039-.331-.556-.674-1.056-.5-1.548a1.265,1.265,0,0,1,1.324-.855s-.987-.774-.506-1.511a1.308,1.308,0,0,1,1.529-.556c.406-2.436,1.024-6,1.78-10.085.437-2.385.924-4.938,1.449-7.554v-.006c2.173-10.772,4.939-22.51,7.462-26.788A23.068,23.068,0,0,1,262.3,6145.923Z" transform="translate(-126.417 -6076.948)" fill="#fff" opacity="0.25"/>
        <path id="Trazado_104726" data-name="Trazado 104726" d="M279.2,6302.293c-8.635-54.3-14.068-58.85-13.449-74.18C265.754,6228.113,290.2,6254.477,279.2,6302.293Z" transform="translate(-123.678 -6069.348)" fill="#1b4166" opacity="0.5"/>
        <path id="Trazado_104727" data-name="Trazado 104727" d="M297.092,6403.839a6.266,6.266,0,0,1-.062-.893c-.118-38.551-11.226-76.853-16.478-92.22-1.38-4.021-2.442-8.043-2.485-8.235.356.293,11.646,9.865,16.454,31.482C298.7,6352.781,297.517,6392.756,297.092,6403.839Z" transform="translate(-122.535 -6062.47)" fill="#1b4166" opacity="0.5"/>
        <path id="Trazado_104728" data-name="Trazado 104728" d="M250.293,6098.176a11.555,11.555,0,0,1,5.494-1.761,5.472,5.472,0,0,1,2.851.669,8.129,8.129,0,0,1,2.188,1.962,8.267,8.267,0,0,1,1.669,5.518,15.4,15.4,0,0,1-1.478,5.6,20.427,20.427,0,0,0,.855-2.76,12.6,12.6,0,0,0,.383-2.844,9.344,9.344,0,0,0-.367-2.817,7.6,7.6,0,0,0-1.309-2.5,7.861,7.861,0,0,0-2.084-1.908,5.481,5.481,0,0,0-2.708-.678,9.746,9.746,0,0,0-2.821.442A13.72,13.72,0,0,0,250.293,6098.176Z" transform="translate(-125.103 -6081.526)" fill="#63212d"/>
        <path id="Trazado_104729" data-name="Trazado 104729" d="M250.293,6098.374a10.752,10.752,0,0,1,5.28.061,5.1,5.1,0,0,1,2.313,1.361,5.6,5.6,0,0,1,1.285,2.365,6.053,6.053,0,0,1,.141,2.688,4.368,4.368,0,0,1-1.279,2.358,5.3,5.3,0,0,1-2.349,1.262,7.526,7.526,0,0,1-2.646.139,6.263,6.263,0,0,0,4.827-1.573,4.28,4.28,0,0,0,1.168-2.239,5.783,5.783,0,0,0-.162-2.551,5.275,5.275,0,0,0-1.19-2.252,5.081,5.081,0,0,0-2.181-1.331,9.276,9.276,0,0,0-2.574-.436A12.658,12.658,0,0,0,250.293,6098.374Z" transform="translate(-125.103 -6081.373)" fill="#63212d"/>
        <path id="Trazado_104730" data-name="Trazado 104730" d="M264.445,6097.991c-5.8-5.326-12.644-.955-12.644-.955s-6.051,1.436-6.275,6c-1.543,14.374-13.837,14.754-13.837,14.754a.067.067,0,0,1-.013-.019c-2.641-4.5,2.173-20.255,13.681-21.761a15.27,15.27,0,0,1,6.139.505,6.073,6.073,0,0,1,2.442-1.435A10.211,10.211,0,0,1,264.445,6097.991Z" transform="translate(-126.89 -6081.691)" fill="#992c2c" opacity="0.5"/>
        <path id="Trazado_104731" data-name="Trazado 104731" d="M255.575,6125.315c1.059,1.343.485,3.563-1.283,4.956s-4.059,1.436-5.118.093-.485-3.561,1.283-4.957S254.515,6123.972,255.575,6125.315Z" transform="translate(-125.256 -6078.943)" fill="#db6951" opacity="0.15"/>
        <path id="Trazado_104732" data-name="Trazado 104732" d="M248.481,6134.338a23.987,23.987,0,0,1-3.216-2.366,2.64,2.64,0,0,1,2.011.3A2.724,2.724,0,0,1,248.481,6134.338Z" transform="translate(-125.568 -6078.245)" fill="#db6951" opacity="0.15"/>
      </g>
    </g>
  </g>
</svg>
