<svg xmlns="http://www.w3.org/2000/svg" width="400.573" height="217.734" viewBox="0 0 400.573 217.734">
  <g id="Grupo_54416" data-name="Grupo 54416" transform="translate(-258.842 -6204.667)">
    <g id="Grupo_54381" data-name="Grupo 54381" transform="translate(458.581 6246.166)">
      <g id="Grupo_54379" data-name="Grupo 54379" transform="translate(25.263 71.436)">
        <path id="Trazado_103752" data-name="Trazado 103752" d="M449.86,6266.14,450,6275.4l1.334,90.729h2.193l1.566-92.429.133-7.809Z" transform="translate(-438.916 -6265.896)" fill="#875b4b"/>
        <path id="Trazado_103753" data-name="Trazado 103753" d="M449.86,6266.14,450,6275.4l5.093-1.7.133-7.809Z" transform="translate(-438.916 -6265.896)" fill="#875b4b" opacity="0.5" style="mix-blend-mode: multiply;isolation: isolate"/>
        <path id="Trazado_103754" data-name="Trazado 103754" d="M454.089,6351.673l13.409,3.11H440.359Z" transform="translate(-440.359 -6252.876)" fill="#875b4b"/>
      </g>
      <g id="Grupo_54380" data-name="Grupo 54380" transform="translate(0 0)">
        <path id="Trazado_103755" data-name="Trazado 103755" d="M469.129,6238.185c-2.145,15.4-5.8,38.61-5.8,38.61s-.261.047-.737.119c-3.245.52-1.79,4.294-11.2,2.728-1.828-.3-5.093-10.8-6.526-11.406-.176-5.9-16.79-25.476-16.79-25.476s-.2-.331-.545-.884c-1.515-2.44-5.9-9.248-9.007-11.795,1.2-2.96,3.759-5.964,6.66-8.66,5.943-5.514,10.7-6.5,10.7-6.5l1.432-10.875,10.766-.176,3.742,8.961s11.335,5.15,16.157,9.219c1.494,1.256,2.514,2.287,2.639,2.819C470.795,6225.583,470.125,6231.049,469.129,6238.185Z" transform="translate(-418.408 -6203.872)" fill="#f1dec1"/>
        <path id="Trazado_103756" data-name="Trazado 103756" d="M418.548,6226.927c-1.3,5,7.974,15.414,11.808,13.024C434.171,6237.572,420.838,6218.1,418.548,6226.927Z" transform="translate(-418.425 -6200.719)" fill="#dbb49b"/>
        <path id="Trazado_103757" data-name="Trazado 103757" d="M467.11,6222.052c-3.4,3.068-9.345,7.366-16.58,8.122-9.147.958-21.556-5.917-26.217-8.753,5.943-5.514,10.7-6.5,10.7-6.5l1.432-10.875,10.766-.176,3.742,8.961S462.288,6217.984,467.11,6222.052Z" transform="translate(-417.531 -6203.872)" fill="#f1dec1" opacity="0.3" style="mix-blend-mode: screen;isolation: isolate"/>
        <path id="Trazado_103758" data-name="Trazado 103758" d="M464.081,6222.1s3.815,5.623-1.5,13.314C459.842,6232.46,464.081,6222.1,464.081,6222.1Z" transform="translate(-411.863 -6201.104)" fill="#f1dec1"/>
      </g>
    </g>
    <g id="Grupo_54385" data-name="Grupo 54385" transform="translate(258.842 6204.667)">
      <g id="Grupo_54382" data-name="Grupo 54382">
        <path id="Trazado_103759" data-name="Trazado 103759" d="M271.747,6394.8h4.24l-1.232-193.676-.04-6.207v-.21l-1.7-.424-.005.479-.04,6.44Z" transform="translate(-254.663 -6191.373)" fill="#434752"/>
        <path id="Trazado_103760" data-name="Trazado 103760" d="M296.7,6352.06l1.212-6.307H258.842l1.514,6.307,1.817-3.883h32.713Z" transform="translate(-258.842 -6142.323)" fill="#434752"/>
        <path id="Trazado_103761" data-name="Trazado 103761" d="M271.149,6195a2.91,2.91,0,1,1,3.773,2.779l.027,4.062-1.781.079.025-4.141A2.914,2.914,0,0,1,271.149,6195Z" transform="translate(-254.856 -6192.085)" fill="#cde2e7"/>
      </g>
      <g id="Grupo_54383" data-name="Grupo 54383" transform="translate(19.122 10.872)">
        <path id="Trazado_103762" data-name="Trazado 103762" d="M348.04,6201.982l2.833-.218-2.4,172.15-22.445,2.617,1.307-172.151Z" transform="translate(-256.207 -6199.823)" fill="#08938f"/>
        <path id="Trazado_103763" data-name="Trazado 103763" d="M324.342,6201.982l2.833-.218-2.4,172.15-22.445,2.617,1.307-172.151Z" transform="translate(-263.881 -6199.823)" fill="#339ce9"/>
        <path id="Trazado_103764" data-name="Trazado 103764" d="M369.639,6202.118l-96.023,2.692-.33,2.154,96.353-2.154Z" transform="translate(-273.287 -6199.709)" fill="#fff5cd"/>
        <path id="Trazado_103765" data-name="Trazado 103765" d="M326.955,6201.916l.08,27.925.185,66.3,2.165.133,5.018.314,5.742.359-1.487-88.17.015-6.74-8.121-.085-2.928-.035Z" transform="translate(-255.907 -6199.773)" fill="#6cdcd9"/>
        <path id="Trazado_103766" data-name="Trazado 103766" d="M327.016,6229.839l.185,66.3,2.165.135,1.167-94.321-2.928-.036Z" transform="translate(-255.888 -6199.772)" fill="#0ac4bf" opacity="0.5" style="mix-blend-mode: multiply;isolation: isolate"/>
        <path id="Trazado_103767" data-name="Trazado 103767" d="M332.581,6296.525l5.742.359-1.487-88.17-.13-6.595Z" transform="translate(-254.085 -6199.708)" fill="#0ac4bf" opacity="0.5" style="mix-blend-mode: multiply;isolation: isolate"/>
        <path id="Trazado_103768" data-name="Trazado 103768" d="M345.857,6201.1c.269.809-1.078,99.614-1.078,99.614l-9.692-.27.808-99.073Z" transform="translate(-253.274 -6200.038)" fill="#6cdcd9"/>
        <path id="Trazado_103769" data-name="Trazado 103769" d="M330.739,6200.3l-1.933,101.647-5.711-1.375v-99Z" transform="translate(-257.157 -6200.297)" fill="#6cdcd9"/>
        <path id="Trazado_103770" data-name="Trazado 103770" d="M300.49,6201.982l2.833-.218-2.4,172.15-22.445,2.617,1.307-172.151Z" transform="translate(-271.605 -6199.823)" fill="#8f2b58"/>
        <path id="Trazado_103771" data-name="Trazado 103771" d="M279.4,6201.916l.08,27.925.185,66.3,2.165.133,5.018.314,5.742.359-1.487-88.17.015-6.74-8.121-.085-2.928-.035Z" transform="translate(-271.305 -6199.773)" fill="#cc6191"/>
        <path id="Trazado_103772" data-name="Trazado 103772" d="M279.465,6229.839l.185,66.3,2.165.135,1.167-94.321-2.928-.036Z" transform="translate(-271.286 -6199.772)" fill="#bc809b" opacity="0.5" style="mix-blend-mode: multiply;isolation: isolate"/>
        <path id="Trazado_103773" data-name="Trazado 103773" d="M285.031,6296.525l5.742.359-1.487-88.17-.13-6.595Z" transform="translate(-269.483 -6199.708)" fill="#bc809b" opacity="0.5" style="mix-blend-mode: multiply;isolation: isolate"/>
        <path id="Trazado_103774" data-name="Trazado 103774" d="M298.307,6201.1c.269.809-1.078,99.614-1.078,99.614l-9.692-.27.808-99.073Z" transform="translate(-268.672 -6200.038)" fill="#cc6191"/>
        <path id="Trazado_103775" data-name="Trazado 103775" d="M283.189,6200.3l-1.932,101.647-5.711-1.375v-99Z" transform="translate(-272.555 -6200.297)" fill="#cc6191"/>
        <path id="Trazado_103776" data-name="Trazado 103776" d="M303.257,6201.916l.08,27.925.185,66.3,2.165.133,5.018.314,5.742.359-1.487-88.17.015-6.74-8.121-.085-2.928-.035Z" transform="translate(-263.581 -6199.773)" fill="#85c4f2"/>
        <path id="Trazado_103777" data-name="Trazado 103777" d="M303.318,6229.839l.185,66.3,2.165.135,1.167-94.321-2.928-.036Z" transform="translate(-263.562 -6199.772)" fill="#5cb0ed"/>
        <path id="Trazado_103778" data-name="Trazado 103778" d="M308.883,6296.525l5.742.359-1.487-88.17-.13-6.595Z" transform="translate(-261.759 -6199.708)" fill="#5cb0ed"/>
        <path id="Trazado_103779" data-name="Trazado 103779" d="M322.159,6201.1c.269.809-1.076,99.614-1.076,99.614l-9.693-.27.808-99.073Z" transform="translate(-260.948 -6200.038)" fill="#85c4f2"/>
        <path id="Trazado_103780" data-name="Trazado 103780" d="M307.041,6200.3l-1.932,101.647-5.711-1.375v-99Z" transform="translate(-264.831 -6200.297)" fill="#85c4f2"/>
      </g>
      <g id="Grupo_54384" data-name="Grupo 54384" transform="translate(96.038)">
        <path id="Trazado_103781" data-name="Trazado 103781" d="M344.293,6394.8h4.24L347.3,6201.125l-.04-6.207v-.21l-1.7-.424-.005.479-.04,6.44Z" transform="translate(-327.209 -6191.373)" fill="#434752"/>
        <path id="Trazado_103782" data-name="Trazado 103782" d="M369.25,6352.06l1.212-6.307H331.388l1.515,6.307,1.817-3.883h32.713Z" transform="translate(-331.388 -6142.323)" fill="#434752"/>
        <path id="Trazado_103783" data-name="Trazado 103783" d="M343.7,6195a2.91,2.91,0,1,1,3.772,2.779l.026,4.062-1.781.079.025-4.141A2.913,2.913,0,0,1,343.7,6195Z" transform="translate(-327.402 -6192.085)" fill="#cde2e7"/>
      </g>
    </g>
    <g id="Grupo_54390" data-name="Grupo 54390" transform="translate(531.645 6322.359)">
      <path id="Trazado_103784" data-name="Trazado 103784" d="M560,6284.158,550.131,6380h-2.177l7.017-95.845Z" transform="translate(-438.023 -6279.962)" fill="#875b4b"/>
      <g id="Grupo_54389" data-name="Grupo 54389">
        <g id="Grupo_54386" data-name="Grupo 54386" transform="translate(4.746 4.196)">
          <path id="Trazado_103785" data-name="Trazado 103785" d="M480.616,6284.158,490.482,6380h2.177l-7.017-95.845Z" transform="translate(-464.574 -6284.158)" fill="#69463a"/>
          <path id="Trazado_103786" data-name="Trazado 103786" d="M468.5,6284.158,478.364,6380h2.177l-7.017-95.845Z" transform="translate(-468.498 -6284.158)" fill="#875b4b"/>
        </g>
        <g id="Grupo_54387" data-name="Grupo 54387" transform="translate(93.89 4.196)">
          <path id="Trazado_103787" data-name="Trazado 103787" d="M547.879,6284.158,538.014,6380h-2.177l7.017-95.845Z" transform="translate(-535.837 -6284.158)" fill="#69463a"/>
        </g>
        <path id="Trazado_103788" data-name="Trazado 103788" d="M592.684,6280.99l-.462,4.195H467.013l-2.1-4.195Z" transform="translate(-464.913 -6280.989)" fill="#3a231b"/>
        <path id="Trazado_103789" data-name="Trazado 103789" d="M583.1,6320.694l-105.5,1.1v-40.8H579.916l1.533,19.147Z" transform="translate(-460.807 -6280.989)" fill="#85c4f2"/>
        <g id="Grupo_54388" data-name="Grupo 54388" transform="translate(29.062 0.427)">
          <rect id="Rectángulo_5363" data-name="Rectángulo 5363" width="0.714" height="2.385" transform="matrix(0.99, -0.141, 0.141, 0.99, 2.682, 18.988)" fill="#fff"/>
          <rect id="Rectángulo_5364" data-name="Rectángulo 5364" width="0.714" height="2.385" transform="matrix(0.99, -0.141, 0.141, 0.99, 2.011, 14.266)" fill="#fff"/>
          <rect id="Rectángulo_5365" data-name="Rectángulo 5365" width="0.714" height="2.385" transform="translate(3.353 23.71) rotate(-8.081)" fill="#fff"/>
          <rect id="Rectángulo_5366" data-name="Rectángulo 5366" width="0.714" height="2.385" transform="translate(4.023 28.432) rotate(-8.093)" fill="#fff"/>
          <rect id="Rectángulo_5367" data-name="Rectángulo 5367" width="0.714" height="2.385" transform="matrix(0.99, -0.141, 0.141, 0.99, 0, 0.1)" fill="#fff"/>
          <rect id="Rectángulo_5368" data-name="Rectángulo 5368" width="0.714" height="2.385" transform="translate(0.671 4.822) rotate(-8.082)" fill="#fff"/>
          <rect id="Rectángulo_5369" data-name="Rectángulo 5369" width="0.714" height="2.385" transform="translate(1.341 9.544) rotate(-8.093)" fill="#fff"/>
          <path id="Trazado_103790" data-name="Trazado 103790" d="M491.238,6307.123l-.12-.844-.707.1.215,1.514,1.523-.133-.062-.711Z" transform="translate(-485.719 -6273.225)" fill="#fff"/>
          <rect id="Rectángulo_5370" data-name="Rectángulo 5370" width="2.754" height="0.714" transform="matrix(0.996, -0.087, 0.087, 0.996, 9.112, 33.586)" fill="#fff"/>
          <rect id="Rectángulo_5371" data-name="Rectángulo 5371" width="2.753" height="0.714" transform="matrix(0.996, -0.087, 0.087, 0.996, 14.599, 33.109)" fill="#fff"/>
          <path id="Trazado_103791" data-name="Trazado 103791" d="M502.929,6306.119l-.891.077.062.712,1.482-.128.145-1.48-.71-.07Z" transform="translate(-481.953 -6273.566)" fill="#fff"/>
          <rect id="Rectángulo_5372" data-name="Rectángulo 5372" width="2.556" height="0.714" transform="translate(22.319 18.944) rotate(-84.36)" fill="#fff"/>
          <rect id="Rectángulo_5373" data-name="Rectángulo 5373" width="2.556" height="0.714" transform="translate(23.825 3.681) rotate(-84.36)" fill="#fff"/>
          <rect id="Rectángulo_5374" data-name="Rectángulo 5374" width="2.556" height="0.714" transform="translate(21.314 29.12) rotate(-84.36)" fill="#fff"/>
          <rect id="Rectángulo_5375" data-name="Rectángulo 5375" width="2.556" height="0.714" transform="translate(22.82 13.857) rotate(-84.36)" fill="#fff"/>
          <rect id="Rectángulo_5376" data-name="Rectángulo 5376" width="2.556" height="0.714" transform="translate(21.817 24.032) rotate(-84.36)" fill="#fff"/>
          <rect id="Rectángulo_5377" data-name="Rectángulo 5377" width="2.556" height="0.714" transform="translate(23.323 8.769) rotate(-84.36)" fill="#fff"/>
          <rect id="Rectángulo_5378" data-name="Rectángulo 5378" width="0.714" height="2.4" transform="matrix(0.999, -0.049, 0.049, 0.999, 12.26, 24.92)" fill="#fff"/>
          <rect id="Rectángulo_5379" data-name="Rectángulo 5379" width="0.714" height="2.4" transform="matrix(0.999, -0.049, 0.049, 0.999, 11.794, 15.33)" fill="#fff"/>
          <rect id="Rectángulo_5380" data-name="Rectángulo 5380" width="0.714" height="2.4" transform="translate(12.026 20.125) rotate(-2.805)" fill="#fff"/>
          <rect id="Rectángulo_5381" data-name="Rectángulo 5381" width="0.714" height="2.4" transform="matrix(0.999, -0.049, 0.049, 0.999, 11.56, 10.535)" fill="#fff"/>
          <rect id="Rectángulo_5382" data-name="Rectángulo 5382" width="0.714" height="2.4" transform="translate(11.327 5.741) rotate(-2.805)" fill="#fff"/>
          <rect id="Rectángulo_5383" data-name="Rectángulo 5383" width="0.714" height="2.4" transform="matrix(0.999, -0.049, 0.049, 0.999, 12.493, 29.715)" fill="#fff"/>
          <rect id="Rectángulo_5384" data-name="Rectángulo 5384" width="0.714" height="2.4" transform="translate(11.094 0.945) rotate(-2.806)" fill="#fff"/>
          <path id="Trazado_103792" data-name="Trazado 103792" d="M531.649,6281.753l-.69-.185a11.853,11.853,0,0,1-.8,2.159l.641.314A12.48,12.48,0,0,0,531.649,6281.753Z" transform="translate(-472.848 -6281.229)" fill="#fff"/>
          <path id="Trazado_103793" data-name="Trazado 103793" d="M523.995,6288.79l-.164-.695c-.733.174-1.51.316-2.309.424l.1.708C522.44,6289.115,523.239,6288.968,523.995,6288.79Z" transform="translate(-475.644 -6279.114)" fill="#fff"/>
          <path id="Trazado_103794" data-name="Trazado 103794" d="M527.42,6287.494l-.343-.625a15.6,15.6,0,0,1-2.119.957l.246.67A16.282,16.282,0,0,0,527.42,6287.494Z" transform="translate(-474.531 -6279.512)" fill="#fff"/>
          <path id="Trazado_103795" data-name="Trazado 103795" d="M520.369,6289.292l-.037-.713c-.781.041-1.618.052-2.357.038l-.015.714c.217,0,.441.007.674.007C519.216,6289.338,519.8,6289.322,520.369,6289.292Z" transform="translate(-476.797 -6278.957)" fill="#fff"/>
          <path id="Trazado_103796" data-name="Trazado 103796" d="M529.626,6284.662a10.989,10.989,0,0,1-1.619,1.633l.453.553a11.748,11.748,0,0,0,1.724-1.739Z" transform="translate(-473.544 -6280.225)" fill="#fff"/>
          <rect id="Rectángulo_5385" data-name="Rectángulo 5385" width="0.714" height="2.38" transform="translate(37.598 3.377) rotate(-1.189)" fill="#fff"/>
          <path id="Trazado_103797" data-name="Trazado 103797" d="M516.405,6289.563l.07-.711-.391-.042-.028-1.363-.715.015.042,1.973.3.045S515.943,6289.516,516.405,6289.563Z" transform="translate(-477.645 -6279.325)" fill="#fff"/>
          <path id="Trazado_103798" data-name="Trazado 103798" d="M515.949,6282.259l-.714.014-.019-.862h.714Z" transform="translate(-477.686 -6281.278)" fill="#fff"/>
          <path id="Trazado_103799" data-name="Trazado 103799" d="M515.545,6293.167v1.592h.714v-.795c.2.021.469.044.8.07l.058-.71c-.74-.061-1.169-.11-1.172-.11Z" transform="translate(-477.58 -6277.472)" fill="#fff"/>
          <rect id="Rectángulo_5386" data-name="Rectángulo 5386" width="0.714" height="1.693" transform="translate(37.965 18.98)" fill="#fff"/>
          <path id="Trazado_103800" data-name="Trazado 103800" d="M516.259,6299v-.794h-.714v1.6l.405-.055s.434-.059,1.15-.084l-.025-.713C516.738,6298.965,516.462,6298.984,516.259,6299Z" transform="translate(-477.58 -6275.841)" fill="#fff"/>
          <path id="Trazado_103801" data-name="Trazado 103801" d="M524.453,6301.357a13.615,13.615,0,0,1,1.7,1.267l.469-.539a14.522,14.522,0,0,0-1.792-1.333Z" transform="translate(-474.695 -6275.014)" fill="#fff"/>
          <path id="Trazado_103802" data-name="Trazado 103802" d="M518.338,6299.512a20.424,20.424,0,0,1,2.129.259l.123-.7a21.325,21.325,0,0,0-2.2-.268Z" transform="translate(-476.675 -6275.648)" fill="#fff"/>
          <path id="Trazado_103803" data-name="Trazado 103803" d="M521.52,6300.069a16.925,16.925,0,0,1,2,.733l.29-.652a17.453,17.453,0,0,0-2.09-.766Z" transform="translate(-475.645 -6275.459)" fill="#fff"/>
          <path id="Trazado_103804" data-name="Trazado 103804" d="M528.038,6303.782c-.2-.278-.409-.551-.625-.81l-.551.457c.245.3.482.6.7.924l.113.16.2-.008c.331-.015.733-.039,1.2-.071l-.05-.712C528.652,6303.747,528.322,6303.767,528.038,6303.782Z" transform="translate(-473.915 -6274.296)" fill="#fff"/>
          <rect id="Rectángulo_5387" data-name="Rectángulo 5387" width="2.471" height="0.714" transform="matrix(0.994, -0.109, 0.109, 0.994, 72.298, 27.708)" fill="#fff"/>
          <rect id="Rectángulo_5388" data-name="Rectángulo 5388" width="2.472" height="0.714" transform="matrix(0.994, -0.112, 0.112, 0.994, 77.209, 27.16)" fill="#fff"/>
          <path id="Trazado_103805" data-name="Trazado 103805" d="M534.059,6303.094l.071.709,2.46-.251-.074-.71C535.681,6302.929,534.857,6303.014,534.059,6303.094Z" transform="translate(-471.584 -6274.34)" fill="#fff"/>
          <path id="Trazado_103806" data-name="Trazado 103806" d="M530.346,6303.444l.062.712c.76-.067,1.586-.144,2.464-.23l-.069-.71C531.928,6303.3,531.1,6303.377,530.346,6303.444Z" transform="translate(-472.787 -6274.218)" fill="#fff"/>
          <path id="Trazado_103807" data-name="Trazado 103807" d="M537.77,6302.711l.076.708c.819-.087,1.642-.176,2.457-.265l-.077-.709Z" transform="translate(-470.383 -6274.468)" fill="#fff"/>
          <path id="Trazado_103808" data-name="Trazado 103808" d="M549.751,6301.545l-.867.1.082.709,1.494-.173.013-1.505-.714-.006Z" transform="translate(-466.783 -6275.042)" fill="#fff"/>
          <rect id="Rectángulo_5389" data-name="Rectángulo 5389" width="2.348" height="0.714" transform="translate(83.149 4.493) rotate(-89.522)" fill="#fff"/>
          <rect id="Rectángulo_5390" data-name="Rectángulo 5390" width="2.348" height="0.714" transform="translate(83.11 9.19) rotate(-89.511)" fill="#fff"/>
          <rect id="Rectángulo_5391" data-name="Rectángulo 5391" width="2.348" height="0.714" transform="translate(82.995 23.28) rotate(-89.522)" fill="#fff"/>
          <rect id="Rectángulo_5392" data-name="Rectángulo 5392" width="2.348" height="0.714" transform="matrix(0.008, -1, 1, 0.008, 83.073, 13.886)" fill="#fff"/>
          <rect id="Rectángulo_5393" data-name="Rectángulo 5393" width="2.348" height="0.714" transform="translate(83.033 18.583) rotate(-89.522)" fill="#fff"/>
          <path id="Trazado_103809" data-name="Trazado 103809" d="M518.575,6294.11c.838.033,1.677.052,2.493.055l0-.716c-.808,0-1.638-.02-2.468-.053Z" transform="translate(-476.598 -6277.397)" fill="#fff"/>
          <path id="Trazado_103810" data-name="Trazado 103810" d="M535.65,6285.4l-.706-.112a15.828,15.828,0,0,1-.556,2.357l.679.219A16.388,16.388,0,0,0,535.65,6285.4Z" transform="translate(-471.478 -6280.023)" fill="#fff"/>
          <path id="Trazado_103811" data-name="Trazado 103811" d="M535.7,6284.092c.009-.281.015-.556.015-.828,0-.548-.02-1.116-.058-1.688l-.712.047c.037.557.056,1.11.056,1.641,0,.263,0,.53-.015.8Z" transform="translate(-471.296 -6281.225)" fill="#fff"/>
          <path id="Trazado_103812" data-name="Trazado 103812" d="M534.01,6288.739a10.1,10.1,0,0,1-1.4,1.939l.526.485a10.928,10.928,0,0,0,1.5-2.075Z" transform="translate(-472.053 -6278.904)" fill="#fff"/>
          <path id="Trazado_103813" data-name="Trazado 103813" d="M522.323,6293.442l.029.714c.854-.035,1.693-.089,2.494-.162l-.065-.712C523.992,6293.354,523.166,6293.408,522.323,6293.442Z" transform="translate(-475.385 -6277.435)" fill="#fff"/>
          <path id="Trazado_103814" data-name="Trazado 103814" d="M528.425,6292.693c-.745.185-1.553.347-2.4.48l.111.705c.868-.136,1.7-.3,2.462-.492Z" transform="translate(-474.186 -6277.625)" fill="#fff"/>
          <path id="Trazado_103815" data-name="Trazado 103815" d="M531.76,6291.35a12.732,12.732,0,0,1-2.164,1.057l.255.668a13.473,13.473,0,0,0,2.286-1.119Z" transform="translate(-473.03 -6278.06)" fill="#fff"/>
        </g>
        <path id="Trazado_103816" data-name="Trazado 103816" d="M583.1,6318.419l-105.5,1.095v-31.5c10.479,22.7,69.972,26.234,103.854,9.847Z" transform="translate(-460.807 -6278.714)" fill="#5cb0ed" opacity="0.2" style="mix-blend-mode: multiply;isolation: isolate"/>
        <path id="Trazado_103817" data-name="Trazado 103817" d="M484.07,6286.924c17.091,14.788,58.569,18.82,82.956,1.345C542.639,6298.255,508.651,6299.215,484.07,6286.924Z" transform="translate(-458.71 -6279.066)" fill="#5cb0ed" opacity="0.2" style="mix-blend-mode: multiply;isolation: isolate"/>
      </g>
    </g>
    <g id="Grupo_54413" data-name="Grupo 54413" transform="translate(381.456 6218.233)">
      <path id="Trazado_103818" data-name="Trazado 103818" d="M411.6,6220.4s1.783-1.817,2.166-2.211a21.967,21.967,0,0,0,1.337-2.873c.306-.59.789.767.666,1.337a9.4,9.4,0,0,1-1.209,2s3.415-1.17,3.858-1.016-.843,1.965-.843,1.965-.821,3.523-1.75,3.679-4.518-1.455-4.518-1.455Z" transform="translate(-342.381 -6174.224)" fill="#eba87f"/>
      <path id="Trazado_103819" data-name="Trazado 103819" d="M378.3,6216.908c1.554,1.726,18.988,19.852,18.988,19.852l-1.208,9.666-16.743-16.053Z" transform="translate(-347.39 -6173.96)" fill="#728cb1"/>
      <g id="Grupo_54396" data-name="Grupo 54396" transform="translate(0 0)">
        <path id="Trazado_103820" data-name="Trazado 103820" d="M365.173,6198.262l.518,15.786,5.188,1.726,2.017-.74-1.534-9.126-3.782-7.276Z" transform="translate(-349.382 -6176.791)" fill="#eba87f"/>
        <g id="Grupo_54394" data-name="Grupo 54394" transform="translate(0 34.469)">
          <path id="Trazado_103821" data-name="Trazado 103821" d="M390.029,6274.879c0,2.69-4.093,21.141-8.178,42.672-3.115,16.4-6.228,34.586-7.526,48.96a9.086,9.086,0,0,1-2.691-.317s-2.648-32.747,4.175-45.444c1.9-15.734,1.9-39.617,1.9-39.617l0-.026,2.574-19.981,4.813-2.738,3.876,7.56A41.168,41.168,0,0,1,390.029,6274.879Z" transform="translate(-348.478 -6202.135)" fill="#8f7581"/>
          <path id="Trazado_103822" data-name="Trazado 103822" d="M381.852,6314.779c-3.115,16.4-6.228,34.586-7.526,48.96a9.086,9.086,0,0,1-2.691-.317s-2.648-32.746,4.175-45.444c1.9-15.734,1.9-39.617,1.9-39.617l0-.027,1.133-1.68c-1,10.243-1.662,30.265,0,36.773C379.509,6316.038,380.724,6316.033,381.852,6314.779Z" transform="translate(-348.478 -6199.362)" fill="#8f7581" opacity="0.3" style="mix-blend-mode: multiply;isolation: isolate"/>
          <path id="Trazado_103823" data-name="Trazado 103823" d="M385.5,6260.757s-1.389,11.952-2.639,17.057c-.117.486-.235.906-.353,1.253-.72,2.158-2.052,5.7-3.692,10.342-1.389,3.925-3,8.621-4.649,13.92-.781,2.5-2.135,6.865-3.775,12.161-5.959,19.188-15.716,50.663-15.716,50.663l-2.7-.317s2.474-26.111,5.125-35.966,7.2-12.7,7.2-12.7.287-4.114.673-9.731c.751-10.915,1.884-27.516,2.066-30.646.273-4.74,2.843-12.474,2.843-12.474Z" transform="translate(-351.384 -6201.775)" fill="#8f7581"/>
          <path id="Trazado_103824" data-name="Trazado 103824" d="M370.393,6309.339c-5.959,19.188-15.716,50.662-15.716,50.662l-2.7-.317s2.474-26.11,5.125-35.965,7.2-12.7,7.2-12.7.287-4.113.673-9.729C365.653,6310.106,367.863,6312.186,370.393,6309.339Z" transform="translate(-351.384 -6195.624)" fill="#8f7581" opacity="0.3" style="mix-blend-mode: multiply;isolation: isolate"/>
          <path id="Trazado_103825" data-name="Trazado 103825" d="M358.123,6217.086c0,.057,0,.118,0,.174.017.3.047.642.091,1.024v.012c.03.236.065.487.1.751,0,.035.009.069.017.1.018.122.039.251.061.382.039.235.078.474.122.721.025.134.047.272.074.412.086.469.182.963.29,1.483.017.087.039.18.056.27.031.147.061.3.091.452.078.369.161.746.243,1.132.053.23.1.465.161.7a.479.479,0,0,0,.017.087c.056.24.113.482.169.729.069.3.138.612.208.929.064.282.134.568.2.859s.138.587.208.882c.074.312.152.624.229.945.048.208.1.417.149.625.021.082.043.164.06.247.031.13.066.261.1.39.044.166.083.33.122.495.1.4.2.812.307,1.225q.216.846.43,1.714l.117.456c.017.066.035.13.047.2.178.7.356,1.4.539,2.1.047.184.1.365.138.547a1.034,1.034,0,0,1,.034.13c.066.261.135.521.2.777.061.239.126.478.187.716.078.313.16.62.238.934.074.273.143.546.213.815l.339,1.3,0,.011c.036.139.074.282.109.42l.221.846c.135.534.273,1.068.412,1.6.069.269.138.538.208.8l.025.108c.139.535.278,1.06.412,1.581l.066.248c.121.469.243.933.361,1.392.077.3.155.609.229.908l.13.516c.408,1.592.786,3.091,1.12,4.45.439,1.792.8,3.346,1.047,4.569.177.863.3,1.558.356,2.057.03.278.06.547.086.816.126,1.2.217,2.318.287,3.337,0,.079.008.152.013.23.069.968.113,1.84.143,2.6.078,2.2.044,3.49.044,3.49l.552.122c.325.074.794.174,1.367.287.19.039.39.077.6.121.839.165,1.845.356,2.96.551,1.568.265,3.351.534,5.165.737l.339.039c.734.078,1.472.147,2.206.2.091.008.182.017.273.021l.039-.064,1.5-2.521.118-.2.243.338v0l.074.1.685.959,1.055,1.479a18.756,18.756,0,0,0,2.374-.195,9.751,9.751,0,0,0,1.675-.391,5.388,5.388,0,0,0,.765-.321c-.157-1.529-.334-3.156-.53-4.862-.13-1.137-.269-2.308-.417-3.5-.256-2.083-.529-4.245-.825-6.441l-.155-1.159c-.109-.825-.226-1.657-.339-2.491-.2-1.48-.417-2.964-.63-4.444-.138-.959-.277-1.918-.416-2.869-.282-1.9-.564-3.772-.851-5.594-.009-.07-.022-.14-.03-.208q-.216-1.4-.43-2.735c-.4-2.466-.782-4.809-1.151-6.958q-.24-1.373-.469-2.634c-.326-1.819-.638-3.446-.925-4.835-.169-.838-.334-1.584-.481-2.231a18.693,18.693,0,0,0-.677-2.4c-.03-.065-.052-.121-.078-.169a12.849,12.849,0,0,0-2.269-2.952c-.088-.086-.169-.173-.257-.26-.572-.572-1.167-1.115-1.723-1.593-.056-.047-.108-.1-.165-.143-.612-.524-1.163-.972-1.576-1.293-.447-.348-.724-.551-.724-.551l-1.566-.382-1.767-.434-1.606-.391-.088.013-4.083.621-1.155.174-.2.03-.013,0a25.831,25.831,0,0,0-2.987.989,12.82,12.82,0,0,0-3.2,1.758,4.071,4.071,0,0,0-.906.959.4.4,0,0,0-.044.087.876.876,0,0,0-.061.221c0,.018,0,.035-.008.052A3.554,3.554,0,0,0,358.123,6217.086Z" transform="translate(-350.453 -6209.245)" fill="#604f69"/>
          <g id="Grupo_54391" data-name="Grupo 54391" transform="translate(7.666 5.482)" opacity="0.3" style="mix-blend-mode: multiply;isolation: isolate">
            <path id="Trazado_103826" data-name="Trazado 103826" d="M367.372,6258.7c.07.967.113,1.839.144,2.6l1.748-.009h.2l2.908-.013,5.381-.026,2.127-.013.98,0,1.632-.009h.677l3.159-.017.738,0,1.953-.009c-.131-1.137-.27-2.308-.417-3.5l-2.761.131-.056,0-3.007.144h-.044l-.434.022-1.471.068-1.436.07-2.084.1-5.351.256-1.823.087-1.09.052Z" transform="translate(-356.714 -6207.721)" fill="#604f69"/>
            <path id="Trazado_103827" data-name="Trazado 103827" d="M387.717,6251.419l-20.546,5.039c-.025-.268-.055-.538-.086-.815-.056-.5-.177-1.193-.356-2.057l20.65-4.658C387.491,6249.761,387.608,6250.6,387.717,6251.419Z" transform="translate(-356.812 -6209.052)" fill="#604f69"/>
            <path id="Trazado_103828" data-name="Trazado 103828" d="M387.052,6245.448l-21.067,4.53c-.369-1.505-.795-3.18-1.25-4.964l21.9-2.435C386.774,6243.529,386.912,6244.488,387.052,6245.448Z" transform="translate(-357.114 -6210.015)" fill="#604f69"/>
            <path id="Trazado_103829" data-name="Trazado 103829" d="M386.023,6237.9l-22.113,4c-.278-1.063-.56-2.153-.842-3.246-.035-.14-.074-.283-.108-.421l22.633-3.069Q385.808,6236.507,386.023,6237.9Z" transform="translate(-357.384 -6211.139)" fill="#604f69"/>
            <path id="Trazado_103830" data-name="Trazado 103830" d="M384.828,6229.474l-23.423,2.5c-.188-.729-.37-1.455-.547-2.171-.144-.582-.287-1.153-.43-1.718l23.931-1.241Q384.586,6228.1,384.828,6229.474Z" transform="translate(-357.768 -6212.405)" fill="#604f69"/>
            <path id="Trazado_103831" data-name="Trazado 103831" d="M383.676,6222.935l-24.162,1.2c-.256-1.1-.486-2.144-.681-3.1l24.361-.324C383.342,6221.351,383.507,6222.1,383.676,6222.935Z" transform="translate(-358.01 -6213.335)" fill="#604f69"/>
            <path id="Trazado_103832" data-name="Trazado 103832" d="M358.148,6216.021l20.156-1.715c.555.482,1.149,1.021,1.718,1.593l-21.805,1.966A7.93,7.93,0,0,1,358.148,6216.021Z" transform="translate(-358.119 -6214.306)" fill="#604f69"/>
          </g>
          <g id="Grupo_54392" data-name="Grupo 54392" transform="translate(11.919 2.288)" opacity="0.3" style="mix-blend-mode: screen;isolation: isolate">
            <path id="Trazado_103833" data-name="Trazado 103833" d="M377.64,6216.179c2.292,15.182,6.723,46.474,8.234,57.189a18.594,18.594,0,0,1-2.375.195l-1.054-1.48-6.949-57.9C376.182,6214.768,376.938,6215.455,377.64,6216.179Z" transform="translate(-359.734 -6211.132)" fill="#604f69"/>
            <path id="Trazado_103834" data-name="Trazado 103834" d="M369.222,6211.534l1.607.39,9.652,61.924c-.734-.053-1.471-.123-2.2-.2l-9.141-62.1Z" transform="translate(-360.699 -6211.534)" fill="#604f69"/>
            <path id="Trazado_103835" data-name="Trazado 103835" d="M364.8,6212.268l.013,0,.2-.03,8.875,60.532c-1.116-.2-2.123-.388-2.96-.551l-9.114-58.956A25.867,25.867,0,0,1,364.8,6212.268Z" transform="translate(-361.811 -6211.427)" fill="#604f69"/>
          </g>
          <g id="Grupo_54393" data-name="Grupo 54393" transform="translate(27.265 23.129)">
            <path id="Trazado_103836" data-name="Trazado 103836" d="M375.135,6229.823c1.58,3.195,6.21,24.413,6.245,38.714l.118-.2.317.443c.017-14.362-4.691-35.914-6.289-39.153Z" transform="translate(-375.135 -6229.627)" fill="#604f69" opacity="0.3" style="mix-blend-mode: multiply;isolation: isolate"/>
          </g>
          <path id="Trazado_103837" data-name="Trazado 103837" d="M364.4,6212.375c3.377,10.269,13.394,22.811,13.394,22.811s-.925-16.749-2.192-21.895c-.447-.349-.724-.553-.724-.553l-4.94-1.205-5.525.836Z" transform="translate(-349.499 -6209.246)" fill="#728cb1"/>
          <path id="Trazado_103838" data-name="Trazado 103838" d="M363.8,6241.771c1.493,1.06,3.19,1.784,3.9.313,1.311-2.739-2.057-23.806-8.532-27.434a4.068,4.068,0,0,0-.908.959C357.389,6216.945,360.722,6229.918,363.8,6241.771Z" transform="translate(-350.453 -6208.773)" fill="#728cb1"/>
          <path id="Trazado_103839" data-name="Trazado 103839" d="M352.062,6351.987l-.6,2.647h9.018l-5.728-2.331Z" transform="translate(-351.463 -6187.929)" fill="#604f69"/>
          <path id="Trazado_103840" data-name="Trazado 103840" d="M371.648,6351.987l-.6,2.647h9.018l-5.728-2.331Z" transform="translate(-348.49 -6187.929)" fill="#604f69"/>
          <path id="Trazado_103841" data-name="Trazado 103841" d="M372.617,6210.174l-1.861,2.115,1.861,3.331,1.3-2.677Z" transform="translate(-348.535 -6209.451)" fill="#89a4c9"/>
          <path id="Trazado_103842" data-name="Trazado 103842" d="M371.72,6212.384l-1.858,4.292-5.458-4,.843-3.13Z" transform="translate(-349.499 -6209.547)" fill="#89a4c9"/>
        </g>
        <g id="Grupo_54395" data-name="Grupo 54395" transform="translate(11.295)">
          <path id="Trazado_103843" data-name="Trazado 103843" d="M362.842,6189.12s-4.282-.846,3.325-4.911c9.985-5.336,18.664-5.889,18.885-2.335s-5.531,5.354-5.531,5.354Z" transform="translate(-361.213 -6179.62)" fill="#64413f"/>
          <path id="Trazado_103844" data-name="Trazado 103844" d="M380.608,6190.251c.01.072.022.168.032.288.145,1.632.259,7.649.16,11.156,0,.253-.015.5-.024.721-.017.4-.038.749-.063,1.039-.243,2.838-3.148,10.924-3.588,10.909s-10.018-2.419-10.732-4.144-1.8-11.7-1.8-11.7l-1.914-10.287a50.962,50.962,0,0,1,6.642-2.027c7.508-1.693,10.04.136,10.04.136A30.26,30.26,0,0,1,380.608,6190.251Z" transform="translate(-361.055 -6178.73)" fill="#ffc393"/>
          <path id="Trazado_103845" data-name="Trazado 103845" d="M378.771,6189.886c.145,1.632.259,7.65.16,11.155,0,.254-.015.5-.024.721-1.115.274-3.492.777-3.761.122-.35-.864.02-11.727.02-11.727C375.9,6189.675,377.629,6189.764,378.771,6189.886Z" transform="translate(-359.186 -6178.076)" fill="#eba87f"/>
          <path id="Trazado_103846" data-name="Trazado 103846" d="M380.8,6201.6c-.017.707-.047,1.311-.088,1.76-.243,2.839-3.148,10.924-3.588,10.91s-10.018-2.419-10.732-4.144-1.8-11.705-1.8-11.705l-.4-2.159-1.513-8.128a50.962,50.962,0,0,1,6.642-2.027c-1.988,2.53-2.393,6.545-2.331,9.8a34.8,34.8,0,0,0,.5,5.286s8.232,1.655,9.937,1.381A20.412,20.412,0,0,0,380.8,6201.6Z" transform="translate(-361.055 -6178.635)" fill="#64413f"/>
          <path id="Trazado_103847" data-name="Trazado 103847" d="M371.765,6201.053c2.031,1.651,4.3,2.174,4.813,1.747s-.336-12.086-.722-12.73S371.765,6201.053,371.765,6201.053Z" transform="translate(-359.677 -6178.037)" fill="#ffc393"/>
          <path id="Trazado_103848" data-name="Trazado 103848" d="M369.325,6186.106c-1.988,2.53-2.393,6.545-2.331,9.8-.751.125-1.951.263-2.8.354l-1.513-8.128A50.962,50.962,0,0,1,369.325,6186.106Z" transform="translate(-361.055 -6178.635)" fill="#ad886d"/>
          <path id="Trazado_103849" data-name="Trazado 103849" d="M371.792,6193.97c-.236,1.151-.794,2.008-1.247,1.916s-.628-1.1-.392-2.252.794-2.007,1.246-1.916S372.028,6192.82,371.792,6193.97Z" transform="translate(-359.937 -6177.785)" fill="#233545"/>
          <path id="Trazado_103850" data-name="Trazado 103850" d="M377.459,6194.124c-.235,1.151-.752,2.017-1.153,1.934s-.536-1.081-.3-2.232.752-2.017,1.153-1.933S377.695,6192.973,377.459,6194.124Z" transform="translate(-359.051 -6177.758)" fill="#233545"/>
          <path id="Trazado_103851" data-name="Trazado 103851" d="M368.489,6191.268a10.575,10.575,0,0,1,5.88-.825l.086-1.507s-4.242-.025-4.991.588A3.42,3.42,0,0,0,368.489,6191.268Z" transform="translate(-360.174 -6178.208)" fill="#64413f"/>
          <path id="Trazado_103852" data-name="Trazado 103852" d="M375.337,6188.747l.1,1.511s3.163-.461,3.777.144c-.021-.3-.043-.95-.506-1.154A11.39,11.39,0,0,0,375.337,6188.747Z" transform="translate(-359.135 -6178.235)" fill="#64413f"/>
          <path id="Trazado_103853" data-name="Trazado 103853" d="M369.757,6200.779a8.262,8.262,0,0,0,6.468,2.032l-2.154,2.978A8.8,8.8,0,0,1,369.757,6200.779Z" transform="translate(-359.982 -6176.408)" fill="#fff"/>
          <path id="Trazado_103854" data-name="Trazado 103854" d="M365.649,6194.409s.648,4.677.6,5.047-2.445,1.277-4.036-.857-.966-5.505.319-5.456A7.888,7.888,0,0,1,365.649,6194.409Z" transform="translate(-361.27 -6177.568)" fill="#ffc393"/>
        </g>
      </g>
      <path id="Trazado_103855" data-name="Trazado 103855" d="M361.277,6221.981l1.6,16.943.339,1.3,0,.009c.036.14.074.283.109.421l.221.846q.2.8.412,1.6c.069.269.138.538.209.8l.025.107c.139.535.278,1.061.412,1.582l.066.247c.121.469.243.933.361,1.391.077.306.155.609.229.908l.13.517c.408,1.593.785,3.09,1.12,4.449.439,1.793.8,3.347,1.047,4.57.177.863.3,1.557.356,2.057.03.277.06.547.086.815.125,1.2.217,2.318.287,3.337C371.046,6243.469,361.277,6221.981,361.277,6221.981Z" transform="translate(-349.973 -6173.191)" fill="#604f69" opacity="0.3" style="mix-blend-mode: multiply;isolation: isolate"/>
      <path id="Trazado_103856" data-name="Trazado 103856" d="M395.24,6236.861c.091,2.113.243,7.17.334,10.329,10.147-12.856,19.179-25.5,19.179-25.5l-.268-2.463Z" transform="translate(-344.819 -6173.608)" fill="#eba87f"/>
      <path id="Trazado_103857" data-name="Trazado 103857" d="M396.235,6232.563l-1.54.822-1.95,12.213h4.106Z" transform="translate(-345.197 -6171.584)" fill="#89a4c9"/>
      <path id="Trazado_103858" data-name="Trazado 103858" d="M416.8,6217.52c-2.222.888-2.8,1.513-.671,1.267-2.282.963-3.773,3.953-.825,4.194s3.55-5.6,2.749-5.661A2.394,2.394,0,0,0,416.8,6217.52Z" transform="translate(-342.022 -6173.899)" fill="#ffc393"/>
      <path id="Trazado_103859" data-name="Trazado 103859" d="M357.938,6215.776c.494,4.9,29.222,28.647,29.5,28.38s-.06-11.147-.5-11.609-19.852-13.969-21.372-15S357.938,6215.776,357.938,6215.776Z" transform="translate(-350.48 -6174.133)" fill="#728cb1"/>
      <g id="Grupo_54410" data-name="Grupo 54410" transform="translate(60.607 31.482)">
        <path id="Trazado_103860" data-name="Trazado 103860" d="M460.734,6217.017s18.229,30.678,18.526,36.755-14.24,25.024-14.24,25.024a20.022,20.022,0,0,1-1.525-4.494c-1.442-11.409-5.745-53.015-5.873-54.174C457.473,6218.795,460.734,6217.017,460.734,6217.017Z" transform="translate(-395.959 -6205.426)" fill="#293f54"/>
        <path id="Trazado_103861" data-name="Trazado 103861" d="M462.577,6227.062c1.874,4.037,5.478,22.777,5.478,22.777l-4.24,28.5S460.7,6223.025,462.577,6227.062Z" transform="translate(-395.297 -6203.934)" fill="#52411e" opacity="0.3" style="mix-blend-mode: multiply;isolation: isolate"/>
        <path id="Trazado_103862" data-name="Trazado 103862" d="M471.383,6248.432a11.037,11.037,0,0,0-8.106,1.445s4.253-3.932,6.5-4.655c-2.086,1.2-2.247,2.168-2.247,2.168S470.42,6247.309,471.383,6248.432Z" transform="translate(-395.1 -6201.145)" fill="#52411e" opacity="0.3" style="mix-blend-mode: multiply;isolation: isolate"/>
        <path id="Trazado_103863" data-name="Trazado 103863" d="M429.325,6244.593l0,.013c.265.49,8.75,16.3,10.82,21.188,2.105,4.96,1.5,14.431,1.5,14.431a62.622,62.622,0,0,0,16.215,2.639c.425.007.855,0,1.281,0a24.029,24.029,0,0,0,9.418-1.884c2.639-10.017,2.681-29.655,1.905-42.354a65.592,65.592,0,0,0-1.306-11.167c-1.654-5.412-1.91-8.549-2.765-9.314a47.26,47.26,0,0,0-6.605-3.459c-2.148-1-3.979-1.809-3.979-1.809l-8.5-3.269-12.851,3.7s-1.475,1.015-3.507,2.487c-3.437,2.5-8.48,6.293-10.655,8.658C424.465,6226.968,431.322,6235.679,429.325,6244.593Z" transform="translate(-401.622 -6206.552)" fill="#b8d3de"/>
        <path id="Trazado_103864" data-name="Trazado 103864" d="M457.856,6245.5c-1.527-11.577-8.219-24.766-10.242-28.55l1.371-1.97-4.86-5.375-2.807,6.428,3.162,1.446c10.236,24.563,8.413,48.087,8.021,59.321l3.85,3.128,2.76-2.247C459.206,6271.536,459.267,6256.211,457.856,6245.5Z" transform="translate(-398.433 -6206.552)" fill="#4e2d52"/>
        <path id="Trazado_103865" data-name="Trazado 103865" d="M467.375,6277.151c-10.073,4.662-26.913-.751-26.913-.751s.6-9.47-1.5-14.43c-2.07-4.882-10.555-20.7-10.82-21.187l0-.013s25.446,6.444,34.986-.036a21.779,21.779,0,0,0,6.159-5.937C470.056,6247.5,470.013,6267.134,467.375,6277.151Z" transform="translate(-400.434 -6202.728)" fill="#2e86a3" opacity="0.2" style="mix-blend-mode: multiply;isolation: isolate"/>
        <path id="Trazado_103866" data-name="Trazado 103866" d="M445.448,6210l-12.09-3.05-.762,6.753,10.347,5.446Z" transform="translate(-399.756 -6206.952)" fill="#c7e4f0"/>
        <path id="Trazado_103867" data-name="Trazado 103867" d="M443.755,6209.86l5.446,7.841,3.05-4.575-5.01-5.228Z" transform="translate(-398.063 -6206.81)" fill="#c7e4f0"/>
        <path id="Trazado_103868" data-name="Trazado 103868" d="M435.6,6231.352l1.052,2.405,7.98-2.258-.6-1.956Z" transform="translate(-399.301 -6203.524)" fill="#3b99b8"/>
        <path id="Trazado_103869" data-name="Trazado 103869" d="M438.171,6269.895c-.115.346-.46,2.763-.46,2.763s11.051,2.3,17.729,2.3a29.015,29.015,0,0,0,10.9-1.889s.461-2.648.115-2.648a33.673,33.673,0,0,1-10.559,1.543C449.224,6271.966,438.171,6269.895,438.171,6269.895Z" transform="translate(-398.98 -6197.4)" fill="#3d2717"/>
        <path id="Trazado_103870" data-name="Trazado 103870" d="M422.763,6222.492c-3.458,3.759-19.552,31.018-18.643,35.331s37.223,23.977,37.223,23.977l1.353-3.758-21.287-22.625,10.374-12.779C435.786,6233.149,426.143,6222.455,422.763,6222.492Z" transform="translate(-404.084 -6204.594)" fill="#293f54"/>
        <path id="Trazado_103871" data-name="Trazado 103871" d="M443.613,6274.822l.924-4.275,1.1.058-1.1,4.621Z" transform="translate(-398.084 -6197.302)" fill="#66542f"/>
        <path id="Trazado_103872" data-name="Trazado 103872" d="M458.56,6271.028l.116,3.987.924-.059.058-4.159Z" transform="translate(-395.816 -6197.265)" fill="#66542f"/>
        <path id="Trazado_103873" data-name="Trazado 103873" d="M452.776,6271.4l-.635,3.928,3.813-.231v-3.64Z" transform="translate(-396.79 -6197.172)" fill="#998d74"/>
        <path id="Trazado_103874" data-name="Trazado 103874" d="M429.325,6243.924l0,.013c.265.49,8.159,16.536,10.23,21.417,2.1,4.96.521,16.974.521,16.974l17.234,3.033s.8-1.917,1.29-3.046a8.443,8.443,0,0,1,.364-.8c0,.022.035.233.1.548.165.918.508,2.695.591,2.95a24.517,24.517,0,0,0,9.439-2.426c2.639-10.017,2.452-30.342,1.971-43.054-.42-11.162-3.81-21.3-4.666-22.065a47.218,47.218,0,0,0-6.605-3.459,159.019,159.019,0,0,1-.008,25.967c-.075.955-.135,1.523-.149,1.6a.979.979,0,0,0-.151-.235c-1.663-2.291-17.109-20.324-28.528-26.222-3.437,2.495-8.48,6.293-10.655,8.658C424.465,6226.3,431.322,6235.009,429.325,6243.924Z" transform="translate(-401.622 -6205.881)" fill="#293f54"/>
        <g id="Grupo_54397" data-name="Grupo 54397" transform="translate(56.982 34.096)" opacity="0.4">
          <path id="Trazado_103875" data-name="Trazado 103875" d="M453.557,6278.894a8.382,8.382,0,0,1,.364-.8c0,.022.035.233.1.548.486-5.023,2.378-26.575.721-42.087-.075.955-.135,1.523-.149,1.6a.964.964,0,0,0-.151-.234C455.882,6253.6,453.977,6274.624,453.557,6278.894Z" transform="translate(-453.557 -6236.556)" fill="#293f54" opacity="0.4" style="mix-blend-mode: multiply;isolation: isolate"/>
        </g>
        <path id="Trazado_103876" data-name="Trazado 103876" d="M434.34,6225.081c1.758-.442,3.857-1.076,3.857-1.076l-1.5,3.316c4.02,2.448,19.457,11.9,21.926,14.3-6.814-11.506-28.5-27.851-28.5-27.851l-3.173,2.6Z" transform="translate(-400.613 -6205.918)" fill="#3e5973"/>
        <path id="Trazado_103877" data-name="Trazado 103877" d="M431.332,6223.911c0,.057.108.074.29.062C431.44,6223.873,431.332,6223.842,431.332,6223.911Z" transform="translate(-399.948 -6204.385)" fill="#52411e"/>
        <path id="Trazado_103878" data-name="Trazado 103878" d="M454.5,6241.806c1.632-2.356,3.932-10.941,4.606-15.5l-2.548-2.547,2.669-.479a73.341,73.341,0,0,0-2.236-9.035l-2.885-1.732S455.265,6235.292,454.5,6241.806Z" transform="translate(-396.491 -6206.108)" fill="#3e5973"/>
        <path id="Trazado_103879" data-name="Trazado 103879" d="M445.094,6263.848v2.119l-6.658-.606.1-1.311Z" transform="translate(-398.87 -6198.318)" fill="#3e5973"/>
        <path id="Trazado_103880" data-name="Trazado 103880" d="M465.244,6263.235l-4.035.707.1,2.017,3.733-.4Z" transform="translate(-395.414 -6198.412)" fill="#3e5973"/>
        <path id="Trazado_103881" data-name="Trazado 103881" d="M456.3,6248.828a1.008,1.008,0,1,0,1.008-1.009A1.008,1.008,0,0,0,456.3,6248.828Z" transform="translate(-396.158 -6200.751)" fill="#293f54" opacity="0.4" style="mix-blend-mode: multiply;isolation: isolate"/>
        <path id="Trazado_103882" data-name="Trazado 103882" d="M456.3,6261.877a1.008,1.008,0,1,0,1.008-1.007A1.009,1.009,0,0,0,456.3,6261.877Z" transform="translate(-396.158 -6198.77)" fill="#293f54" opacity="0.4" style="mix-blend-mode: multiply;isolation: isolate"/>
        <g id="Grupo_54409" data-name="Grupo 54409" transform="translate(3.278 5.413)">
          <g id="Grupo_54398" data-name="Grupo 54398" transform="translate(0 3.598)">
            <path id="Trazado_103883" data-name="Trazado 103883" d="M441.8,6235.06l-.608.231q-.193-.505-.395-1l.6-.245Q441.605,6234.546,441.8,6235.06Z" transform="translate(-401.79 -6211.853)" fill="#e0d6bf"/>
            <path id="Trazado_103884" data-name="Trazado 103884" d="M446.889,6262.117l-.65.042q-.073-1.1-.164-2.242l.65-.052Q446.817,6261.008,446.889,6262.117Z" transform="translate(-400.989 -6207.933)" fill="#e0d6bf"/>
            <path id="Trazado_103885" data-name="Trazado 103885" d="M443.111,6238.931l-.623.188c-.22-.726-.452-1.443-.686-2.134l.616-.209C442.656,6237.473,442.888,6238.2,443.111,6238.931Z" transform="translate(-401.638 -6211.439)" fill="#e0d6bf"/>
            <path id="Trazado_103886" data-name="Trazado 103886" d="M446.5,6271.61l.652.011c-.013.8-.034,1.563-.064,2.259l-.65-.028C446.469,6273.161,446.491,6272.407,446.5,6271.61Z" transform="translate(-400.934 -6206.151)" fill="#e0d6bf"/>
            <path id="Trazado_103887" data-name="Trazado 103887" d="M446.477,6267.71l.652-.014c.016.783.027,1.538.03,2.257l-.651,0C446.5,6269.241,446.494,6268.49,446.477,6267.71Z" transform="translate(-400.928 -6206.745)" fill="#e0d6bf"/>
            <path id="Trazado_103888" data-name="Trazado 103888" d="M444.957,6246.558l-.639.125q-.216-1.1-.457-2.2l.636-.138Q444.739,6245.448,444.957,6246.558Z" transform="translate(-401.325 -6210.29)" fill="#e0d6bf"/>
            <path id="Trazado_103889" data-name="Trazado 103889" d="M445.631,6250.423l-.644.1q-.174-1.109-.371-2.218l.642-.113C445.389,6248.938,445.512,6249.682,445.631,6250.423Z" transform="translate(-401.21 -6209.706)" fill="#e0d6bf"/>
            <path id="Trazado_103890" data-name="Trazado 103890" d="M446.168,6254.31l-.645.081q-.14-1.11-.3-2.229l.645-.09Q446.029,6253.193,446.168,6254.31Z" transform="translate(-401.118 -6209.117)" fill="#e0d6bf"/>
            <path id="Trazado_103891" data-name="Trazado 103891" d="M446.585,6258.21l-.648.06q-.1-1.106-.227-2.236l.646-.07Q446.48,6257.1,446.585,6258.21Z" transform="translate(-401.044 -6208.528)" fill="#e0d6bf"/>
            <path id="Trazado_103892" data-name="Trazado 103892" d="M446.333,6263.812l.65-.034q.06,1.156.1,2.255l-.65.024C446.406,6265.328,446.372,6264.578,446.333,6263.812Z" transform="translate(-400.95 -6207.339)" fill="#e0d6bf"/>
            <path id="Trazado_103893" data-name="Trazado 103893" d="M444.127,6242.723l-.632.155c-.18-.738-.369-1.47-.56-2.173l.628-.172C443.756,6241.245,443.946,6241.981,444.127,6242.723Z" transform="translate(-401.466 -6210.867)" fill="#e0d6bf"/>
            <path id="Trazado_103894" data-name="Trazado 103894" d="M459.7,6215.7l-.555.339q-.28-.456-.578-.9l.54-.363C459.314,6215.083,459.512,6215.39,459.7,6215.7Z" transform="translate(-399.093 -6214.777)" fill="#e0d6bf"/>
            <path id="Trazado_103895" data-name="Trazado 103895" d="M460.056,6217.688l.582-.293c.349.691.684,1.42,1,2.166l-.6.253C460.729,6219.08,460.4,6218.365,460.056,6217.688Z" transform="translate(-398.867 -6214.378)" fill="#e0d6bf"/>
            <path id="Trazado_103896" data-name="Trazado 103896" d="M463.926,6227.494l-.639.124c-.15-.77-.318-1.543-.5-2.295l.632-.153C463.6,6225.931,463.774,6226.713,463.926,6227.494Z" transform="translate(-398.453 -6213.2)" fill="#e0d6bf"/>
            <path id="Trazado_103897" data-name="Trazado 103897" d="M462.252,6221.207c.256.729.5,1.49.729,2.265l-.624.185c-.225-.765-.466-1.516-.719-2.233Z" transform="translate(-398.627 -6213.802)" fill="#e0d6bf"/>
            <path id="Trazado_103898" data-name="Trazado 103898" d="M464.338,6230.315l-.648.061s-.037-.389-.131-1.06l.645-.091C464.3,6229.918,464.338,6230.315,464.338,6230.315Z" transform="translate(-398.336 -6212.585)" fill="#e0d6bf"/>
            <path id="Trazado_103899" data-name="Trazado 103899" d="M428.733,6230.808l.636-.14a14.956,14.956,0,0,1,.309,2.116l-.65.047A14.315,14.315,0,0,0,428.733,6230.808Z" transform="translate(-403.621 -6212.365)" fill="#e0d6bf"/>
            <path id="Trazado_103900" data-name="Trazado 103900" d="M429.363,6236.485l-.635-.143a14.075,14.075,0,0,0,.3-2.022l.65.048A14.591,14.591,0,0,1,429.363,6236.485Z" transform="translate(-403.622 -6211.811)" fill="#e0d6bf"/>
            <path id="Trazado_103901" data-name="Trazado 103901" d="M422.567,6222.537l.323-.565a15.864,15.864,0,0,1,1.778,1.183l-.4.518A15.224,15.224,0,0,0,422.567,6222.537Z" transform="translate(-404.557 -6213.684)" fill="#e0d6bf"/>
            <path id="Trazado_103902" data-name="Trazado 103902" d="M428.952,6229.145l-.609.229a14.7,14.7,0,0,0-.851-1.86l.571-.312A15.23,15.23,0,0,1,428.952,6229.145Z" transform="translate(-403.809 -6212.892)" fill="#e0d6bf"/>
            <path id="Trazado_103903" data-name="Trazado 103903" d="M427.233,6225.85l-.523.389a14.813,14.813,0,0,0-1.331-1.556l.463-.457A15.656,15.656,0,0,1,427.233,6225.85Z" transform="translate(-404.13 -6213.342)" fill="#e0d6bf"/>
            <path id="Trazado_103904" data-name="Trazado 103904" d="M428.87,6238.017c-.135.347-.283.688-.441,1.018l-.587-.282c.152-.314.294-.642.423-.972Z" transform="translate(-403.756 -6211.286)" fill="#e0d6bf"/>
            <rect id="Rectángulo_5394" data-name="Rectángulo 5394" width="1.083" height="0.651" transform="matrix(0.518, -0.855, 0.855, 0.518, 17.715, 10.893)" fill="#e0d6bf"/>
            <path id="Trazado_103905" data-name="Trazado 103905" d="M412.16,6255.984l-.4.511c-.614-.488-1.187-.955-1.7-1.386l.418-.5C410.981,6255.039,411.55,6255.5,412.16,6255.984Z" transform="translate(-406.456 -6208.73)" fill="#e0d6bf"/>
            <path id="Trazado_103906" data-name="Trazado 103906" d="M410.65,6244.032q.536-.918,1.1-1.887l.561.329q-.567.967-1.1,1.886Z" transform="translate(-406.365 -6210.625)" fill="#e0d6bf"/>
            <rect id="Rectángulo_5395" data-name="Rectángulo 5395" width="2.183" height="0.651" transform="matrix(0.512, -0.859, 0.859, 0.512, 8.722, 25.876)" fill="#e0d6bf"/>
            <path id="Trazado_103907" data-name="Trazado 103907" d="M414.242,6239.208l-1.111,1.879-.561-.331,1.112-1.88Z" transform="translate(-406.074 -6211.12)" fill="#e0d6bf"/>
            <path id="Trazado_103908" data-name="Trazado 103908" d="M415.17,6258.281l-.389.522q-.9-.672-1.748-1.319l.4-.518Q414.27,6257.611,415.17,6258.281Z" transform="translate(-406.004 -6208.374)" fill="#e0d6bf"/>
            <rect id="Rectángulo_5396" data-name="Rectángulo 5396" width="2.185" height="0.651" transform="translate(10.96 22.124) rotate(-59.097)" fill="#e0d6bf"/>
            <path id="Trazado_103909" data-name="Trazado 103909" d="M409.26,6253.572l-.441.478a17.312,17.312,0,0,1-1.555-1.6l.5-.415A16.384,16.384,0,0,0,409.26,6253.572Z" transform="translate(-406.879 -6209.122)" fill="#e0d6bf"/>
            <path id="Trazado_103910" data-name="Trazado 103910" d="M409.842,6245.425l.563.325c-.385.668-.749,1.3-1.084,1.894l-.567-.322C409.091,6246.73,409.456,6246.094,409.842,6245.425Z" transform="translate(-406.653 -6210.125)" fill="#e0d6bf"/>
            <path id="Trazado_103911" data-name="Trazado 103911" d="M418.23,6260.511l-.379.529q-.9-.645-1.773-1.283l.383-.524Q417.332,6259.867,418.23,6260.511Z" transform="translate(-405.541 -6208.031)" fill="#e0d6bf"/>
            <path id="Trazado_103912" data-name="Trazado 103912" d="M406.93,6250.677c.227-.461.574-1.117,1.031-1.946l.571.314c-.453.82-.795,1.467-1.018,1.919Z" transform="translate(-406.93 -6209.624)" fill="#e0d6bf"/>
            <path id="Trazado_103913" data-name="Trazado 103913" d="M433.892,6271.2l-.358.544c-.543-.356-1.154-.761-1.826-1.205l.359-.543C432.738,6270.438,433.35,6270.843,433.892,6271.2Z" transform="translate(-403.169 -6206.396)" fill="#e0d6bf"/>
            <path id="Trazado_103914" data-name="Trazado 103914" d="M424.441,6264.859l-.369.537q-.893-.615-1.8-1.242l.371-.535Q423.547,6264.246,424.441,6264.859Z" transform="translate(-404.601 -6207.365)" fill="#e0d6bf"/>
            <path id="Trazado_103915" data-name="Trazado 103915" d="M421.324,6262.7l-.373.533q-.9-.628-1.788-1.259l.377-.531Q420.428,6262.073,421.324,6262.7Z" transform="translate(-405.073 -6207.695)" fill="#e0d6bf"/>
            <rect id="Rectángulo_5397" data-name="Rectángulo 5397" width="2.185" height="0.651" transform="matrix(0.517, -0.856, 0.856, 0.517, 15.458, 14.631)" fill="#e0d6bf"/>
            <rect id="Rectángulo_5398" data-name="Rectángulo 5398" width="2.185" height="0.651" transform="matrix(0.515, -0.857, 0.857, 0.515, 13.205, 18.376)" fill="#e0d6bf"/>
            <path id="Trazado_103916" data-name="Trazado 103916" d="M427.577,6266.991l-.365.54q-.886-.6-1.809-1.228l.366-.537C426.382,6266.183,426.986,6266.593,427.577,6266.991Z" transform="translate(-404.126 -6207.039)" fill="#e0d6bf"/>
            <path id="Trazado_103917" data-name="Trazado 103917" d="M430.726,6269.1l-.36.542q-.871-.581-1.818-1.217l.363-.54C429.54,6268.313,430.148,6268.719,430.726,6269.1Z" transform="translate(-403.649 -6206.716)" fill="#e0d6bf"/>
            <path id="Trazado_103918" data-name="Trazado 103918" d="M436.048,6272.606l-.354.547s-.325-.21-.91-.592l.356-.544Z" transform="translate(-402.703 -6206.09)" fill="#e0d6bf"/>
            <path id="Trazado_103919" data-name="Trazado 103919" d="M461.005,6235.367l.65-.036c.02.347.037.712.052,1.089l-.651.025Q461.035,6235.884,461.005,6235.367Z" transform="translate(-398.723 -6211.658)" fill="#e0d6bf"/>
            <path id="Trazado_103920" data-name="Trazado 103920" d="M459.473,6271.7l.648.051c-.061.791-.119,1.51-.171,2.147l-.648-.053C459.354,6273.213,459.411,6272.494,459.473,6271.7Z" transform="translate(-398.981 -6206.136)" fill="#e0d6bf"/>
            <path id="Trazado_103921" data-name="Trazado 103921" d="M459.755,6267.979l.65.048c-.055.748-.109,1.465-.161,2.146l-.65-.049C459.646,6269.443,459.7,6268.726,459.755,6267.979Z" transform="translate(-398.937 -6206.702)" fill="#e0d6bf"/>
            <path id="Trazado_103922" data-name="Trazado 103922" d="M460.876,6249.343l.65.027c-.03.712-.063,1.431-.1,2.15l-.65-.03Q460.83,6250.411,460.876,6249.343Z" transform="translate(-398.758 -6209.533)" fill="#e0d6bf"/>
            <rect id="Rectángulo_5399" data-name="Rectángulo 5399" width="2.151" height="0.651" transform="translate(61.548 50.547) rotate(-86.644)" fill="#e0d6bf"/>
            <path id="Trazado_103923" data-name="Trazado 103923" d="M461.013,6245.612l.651.02c-.022.708-.047,1.427-.075,2.152l-.65-.023C460.965,6247.036,460.991,6246.318,461.013,6245.612Z" transform="translate(-398.733 -6210.097)" fill="#e0d6bf"/>
            <path id="Trazado_103924" data-name="Trazado 103924" d="M460.268,6260.525l.65.043c-.047.725-.094,1.442-.142,2.146l-.648-.042Q460.2,6261.613,460.268,6260.525Z" transform="translate(-398.856 -6207.833)" fill="#e0d6bf"/>
            <path id="Trazado_103925" data-name="Trazado 103925" d="M460.7,6253.069l.651.034q-.055,1.075-.115,2.15l-.651-.036C460.625,6254.5,460.663,6253.785,460.7,6253.069Z" transform="translate(-398.787 -6208.964)" fill="#e0d6bf"/>
            <path id="Trazado_103926" data-name="Trazado 103926" d="M460.021,6264.253l.648.046q-.076,1.1-.151,2.146l-.65-.046C459.92,6265.7,459.97,6264.986,460.021,6264.253Z" transform="translate(-398.896 -6207.268)" fill="#e0d6bf"/>
            <path id="Trazado_103927" data-name="Trazado 103927" d="M461.11,6239.946q0-.927-.013-1.789l.651-.009c.008.576.013,1.178.013,1.8v.356l-.651,0Z" transform="translate(-398.709 -6211.231)" fill="#e0d6bf"/>
            <path id="Trazado_103928" data-name="Trazado 103928" d="M461.1,6241.882l.651.01c-.01.7-.024,1.42-.041,2.153l-.651-.015C461.072,6243.3,461.086,6242.58,461.1,6241.882Z" transform="translate(-398.715 -6210.663)" fill="#e0d6bf"/>
          </g>
          <g id="Grupo_54399" data-name="Grupo 54399" transform="translate(26.409 27.339)">
            <path id="Trazado_103929" data-name="Trazado 103929" d="M434.838,6236.511l-4.979-.091.034-.476,4.986.192Z" transform="translate(-429.859 -6235.304)" fill="#c1cdd6"/>
            <path id="Trazado_103930" data-name="Trazado 103930" d="M434.907,6235.392a1.023,1.023,0,1,0,1.092.949A1.024,1.024,0,0,0,434.907,6235.392Z" transform="translate(-429.238 -6235.39)" fill="#f84a5c"/>
          </g>
          <g id="Grupo_54400" data-name="Grupo 54400" transform="translate(43.274 31.447)">
            <path id="Trazado_103931" data-name="Trazado 103931" d="M449.2,6240.322l-4.52,2.091-.177-.442,4.57-2Z" transform="translate(-444.501 -6238.803)" fill="#c1cdd6"/>
            <path id="Trazado_103932" data-name="Trazado 103932" d="M448.729,6239.092a1.024,1.024,0,1,0,1.4.378A1.023,1.023,0,0,0,448.729,6239.092Z" transform="translate(-443.938 -6238.956)" fill="#f84a5c"/>
          </g>
          <g id="Grupo_54401" data-name="Grupo 54401" transform="translate(62.709 50.678)">
            <path id="Trazado_103933" data-name="Trazado 103933" d="M466.073,6257.02l-4.52,2.091-.177-.443,4.57-2Z" transform="translate(-461.376 -6255.5)" fill="#c1cdd6"/>
            <path id="Trazado_103934" data-name="Trazado 103934" d="M465.6,6255.789a1.023,1.023,0,1,0,1.4.378A1.025,1.025,0,0,0,465.6,6255.789Z" transform="translate(-460.812 -6255.653)" fill="#f84a5c"/>
          </g>
          <g id="Grupo_54402" data-name="Grupo 54402" transform="translate(38.046 52.744)">
            <path id="Trazado_103935" data-name="Trazado 103935" d="M441.536,6258.512l4.331,2.458-.258.4-4.289-2.551Z" transform="translate(-439.757 -6257.286)" fill="#c1cdd6"/>
            <path id="Trazado_103936" data-name="Trazado 103936" d="M440.562,6259.4a1.024,1.024,0,1,0-.507-1.355A1.023,1.023,0,0,0,440.562,6259.4Z" transform="translate(-439.963 -6257.449)" fill="#f84a5c"/>
          </g>
          <g id="Grupo_54403" data-name="Grupo 54403" transform="translate(62.925 9.397)">
            <path id="Trazado_103937" data-name="Trazado 103937" d="M466.542,6220.934l-4.979-.092.034-.476,4.986.192Z" transform="translate(-461.563 -6219.727)" fill="#c1cdd6"/>
            <path id="Trazado_103938" data-name="Trazado 103938" d="M466.61,6219.813a1.024,1.024,0,1,0,1.092.95A1.025,1.025,0,0,0,466.61,6219.813Z" transform="translate(-460.942 -6219.811)" fill="#f84a5c"/>
          </g>
          <g id="Grupo_54404" data-name="Grupo 54404" transform="translate(18.608 4.855)">
            <path id="Trazado_103939" data-name="Trazado 103939" d="M424.214,6217.411l.137,4.979-.477-.014-.036-4.989Z" transform="translate(-422.972 -6215.637)" fill="#c1cdd6"/>
            <path id="Trazado_103940" data-name="Trazado 103940" d="M423.093,6217.009a1.024,1.024,0,1,0,.9-1.134A1.025,1.025,0,0,0,423.093,6217.009Z" transform="translate(-423.086 -6215.868)" fill="#f84a5c"/>
          </g>
          <g id="Grupo_54405" data-name="Grupo 54405" transform="translate(58.923)">
            <path id="Trazado_103941" data-name="Trazado 103941" d="M459.216,6213.2l.137,4.978-.477-.013-.037-4.989Z" transform="translate(-457.975 -6211.422)" fill="#c1cdd6"/>
            <path id="Trazado_103942" data-name="Trazado 103942" d="M458.1,6212.795a1.023,1.023,0,1,0,.9-1.134A1.023,1.023,0,0,0,458.1,6212.795Z" transform="translate(-458.089 -6211.654)" fill="#f84a5c"/>
          </g>
          <g id="Grupo_54406" data-name="Grupo 54406" transform="translate(25.719 16.23)">
            <path id="Trazado_103943" data-name="Trazado 103943" d="M431.4,6227.192l-1.894,2.037-.25-.407,1.959-1.96Z" transform="translate(-429.26 -6225.575)" fill="#c1cdd6"/>
            <path id="Trazado_103944" data-name="Trazado 103944" d="M431.047,6225.98a1.023,1.023,0,1,0,1.441.135A1.023,1.023,0,0,0,431.047,6225.98Z" transform="translate(-429.045 -6225.743)" fill="#f84a5c"/>
          </g>
          <g id="Grupo_54407" data-name="Grupo 54407" transform="translate(64.488 34.438)">
            <path id="Trazado_103945" data-name="Trazado 103945" d="M465.064,6243l-1.894,2.039-.249-.408,1.959-1.96Z" transform="translate(-462.92 -6241.383)" fill="#c1cdd6"/>
            <path id="Trazado_103946" data-name="Trazado 103946" d="M464.708,6241.787a1.024,1.024,0,1,0,1.441.137A1.024,1.024,0,0,0,464.708,6241.787Z" transform="translate(-462.705 -6241.553)" fill="#f84a5c"/>
          </g>
          <g id="Grupo_54408" data-name="Grupo 54408" transform="translate(65.904 16.192)">
            <path id="Trazado_103947" data-name="Trazado 103947" d="M466.785,6226.923l-2.584,1.032-.052-.474,2.609-.934Z" transform="translate(-464.15 -6225.584)" fill="#c1cdd6"/>
            <path id="Trazado_103948" data-name="Trazado 103948" d="M466.942,6225.742a1.023,1.023,0,1,0,1.244.739A1.024,1.024,0,0,0,466.942,6225.742Z" transform="translate(-463.843 -6225.71)" fill="#f84a5c"/>
          </g>
        </g>
      </g>
      <g id="Grupo_54411" data-name="Grupo 54411" transform="translate(60.62 31.291)">
        <path id="Trazado_103949" data-name="Trazado 103949" d="M404.1,6209.621c1.378.208,2.49,1.443,3.306,3.67,3.046,8.307,6.8,9.341,13.574,8.441a41.9,41.9,0,0,1,10.986-.234c13.809,1,12.979-4.879,22.616-7.7,3.341-.979,4.978-2.1,5-3.469s-1.536-2.469-5.061-3.542l-.333,1.255c4.108,1.251,4.212,2.181,4.21,2.283a.052.052,0,0,1,0,.014c-.028.363-.913,1.269-4.1,2.2-9.448,2.764-7.62,8.847-21.347,7.853-6.831-.5-9.913-.246-12.091.045-6.419.854-9.553-.022-12.349-7.651-.984-2.682-2.4-4.181-4.227-4.457Z" transform="translate(-404.095 -6206.787)" fill="#f1dec1"/>
      </g>
      <g id="Grupo_54412" data-name="Grupo 54412" transform="translate(37.743 38.963)">
        <path id="Trazado_103950" data-name="Trazado 103950" d="M384.292,6232.77l24.394-15.3.694,1.645s-21.241,20.981-23.436,22.028S384.292,6232.77,384.292,6232.77Z" transform="translate(-384.232 -6212.84)" fill="#ffc393"/>
        <path id="Trazado_103951" data-name="Trazado 103951" d="M405.481,6218.075l-.128-2.085s5.785-2.959,6.033-2.492-2.65,2.148-2.65,2.148a14.007,14.007,0,0,1,3.076-.352c.2.209-.425.812-.425.812s.563-.04.556.369-3.2,1.269-3.2,1.269a11.779,11.779,0,0,1,2.3.094c.151.157-2.111.727-2.78.97s-1.718,1.554-2.271,1.082S405.481,6218.075,405.481,6218.075Z" transform="translate(-381.027 -6213.448)" fill="#ffc393"/>
      </g>
      <path id="Trazado_103952" data-name="Trazado 103952" d="M383.092,6230c.175.365-.262,12.739-.262,12.739l4.464-1.274-2.032-12.273Z" transform="translate(-346.702 -6172.096)" fill="#89a4c9"/>
    </g>
  </g>
</svg>
