<svg xmlns="http://www.w3.org/2000/svg" width="416" height="302.997" viewBox="0 0 416 302.997">
  <g id="Grupo_53789" data-name="Grupo 53789" transform="translate(-410.125 -4246.822)">
    <g id="Grupo_53781" data-name="Grupo 53781" transform="translate(410.125 4246.822)" opacity="0.47">
      <path id="Trazado_100915" data-name="Trazado 100915" d="M649.2,4262.314c-52.812,19.89-110.51,57.814-152,61.274s-94.037,21.5-86.306,64.5,159.734,107.494,230.58,123.623,133.971-26.875,126.24-105.348-65.7-163.931-118.511-144.047Zm0,0" transform="translate(-410.125 -4236.775)" fill="#2675af" fill-rule="evenodd"/>
      <path id="Trazado_100916" data-name="Trazado 100916" d="M443.029,4292.852c-5.148,25.747,12.883,66.709,10.307,107.675s-54.1,73.146-7.731,104.164,146.21-16.971,263.431-22.825,115.293-172.046,72.782-188.433-90.173,18.144-132.678,20.486c-55.151,3.034-190.484-99.156-206.112-21.067Zm0,0" transform="translate(-397.183 -4233.589)" fill="#5cb0ed" fill-rule="evenodd"/>
      <path id="Trazado_100917" data-name="Trazado 100917" d="M451.754,4264.514c0,6.88-4.972,12.459-11.1,12.459s-11.1-5.579-11.1-12.459,4.972-12.458,11.1-12.458,11.1,5.577,11.1,12.458Zm0,0" transform="translate(-394.613 -4242.642)" fill="#85c4f2" fill-rule="evenodd"/>
      <path id="Trazado_100918" data-name="Trazado 100918" d="M596.6,4403.676a12.623,12.623,0,1,1-12.611-13.143,12.887,12.887,0,0,1,12.611,13.143Zm0,0" transform="translate(-281.325 -4132.027)" fill="#85c4f2" fill-rule="evenodd"/>
      <path id="Trazado_100919" data-name="Trazado 100919" d="M608.137,4404.484a6.209,6.209,0,1,1-6.2-5.934,6.073,6.073,0,0,1,6.2,5.934Zm0,0" transform="translate(-261.867 -4125.623)" fill="#85c4f2" fill-rule="evenodd"/>
      <path id="Trazado_100920" data-name="Trazado 100920" d="M526.672,4397.155s-18.144,2.9-24.5,13.274,2.326,14.961,5.429,8.446,5.118-14,19.076-21.721Zm0,0" transform="translate(-338.418 -4126.739)" fill="#85c4f2" fill-rule="evenodd"/>
      <path id="Trazado_100921" data-name="Trazado 100921" d="M525.671,4398.607s-9.843,13.178-10.841,23.265,5.272,7.264,5.38,1.5-.671-11.416,5.461-24.762Zm0,0" transform="translate(-326.576 -4125.579)" fill="#85c4f2" fill-rule="evenodd"/>
      <path id="Trazado_100922" data-name="Trazado 100922" d="M600.857,4299.219s21.683-26.689,19.821-43.055-18.272-8.068-15.9,1,7.2,17.4-3.925,42.05Zm0,0" transform="translate(-257.773 -4246.822)" fill="#85c4f2" fill-rule="evenodd"/>
      <path id="Trazado_100923" data-name="Trazado 100923" d="M602.749,4293.282s.025-20.2-7.683-27.964-12.633,1.466-7.675,5.36,10.85,6.664,15.358,22.6Zm0,0" transform="translate(-270.123 -4234.457)" fill="#85c4f2" fill-rule="evenodd"/>
      <path id="Trazado_100924" data-name="Trazado 100924" d="M609.28,4429.628a1.626,1.626,0,0,1-1.97-.8,1.291,1.291,0,0,1,.932-1.694c15.543-4.795,29.338-17.943,39.514-33.724,11.555-17.929,18.394-39.2,17.817-55.519a1.436,1.436,0,0,1,1.5-1.36,1.461,1.461,0,0,1,1.583,1.288c.588,16.769-6.393,38.555-18.2,56.876-10.5,16.292-24.857,29.9-41.171,34.932Zm0,0" transform="translate(-252.689 -4175.162)" fill="#85c4f2"/>
      <path id="Trazado_100925" data-name="Trazado 100925" d="M499.454,4295.261a1.712,1.712,0,0,1-2.146-.329,1.211,1.211,0,0,1,.383-1.84c31.694-19.088,55.379-31.191,73.872-37.54,18.8-6.455,32.348-7,43.516-2.888a1.263,1.263,0,0,1,.813,1.737,1.645,1.645,0,0,1-2.024.7c-10.4-3.831-23.21-3.26-41.169,2.9-18.263,6.271-41.748,18.282-73.247,37.251Zm0,0" transform="translate(-340.705 -4244.25)" fill="#85c4f2"/>
      <path id="Trazado_100926" data-name="Trazado 100926" d="M437.663,4426.345a1.249,1.249,0,0,1,.714,1.773,1.668,1.668,0,0,1-2.067.613q-.9-.378-1.779-.808l-.094-.05c-11.158-5.518-16.16-15.878-16.561-28.007-.392-11.937,3.693-25.627,10.748-38.021q1.624-2.854,3.414-5.563a1.678,1.678,0,0,1,2.1-.495,1.23,1.23,0,0,1,.583,1.8q-1.778,2.681-3.335,5.417c-6.844,12.029-10.807,25.275-10.429,36.781.367,11.246,4.914,20.8,15.034,25.794l.074.033c.509.253,1.043.493,1.6.729Zm0,0" transform="translate(-403.955 -4159.922)" fill="#85c4f2"/>
    </g>
    <g id="Grupo_53786" data-name="Grupo 53786" transform="translate(501.033 4270.144)">
      <g id="Grupo_53782" data-name="Grupo 53782" transform="translate(2.164 182.063)">
        <path id="Trazado_100927" data-name="Trazado 100927" d="M462.112,4391.252c3.218-19.434,26.795-28.812,48.925-30.055,12.969-.726,26.147.667,38.987,2.488,26.708,3.786,52.425,5.127,79.44,5.935,18.866.563,42.518-.371,55.985,12.793,9.492,9.279,12.338,25.242,1.369,34.023-11.96,9.574-33.871,8.753-49.681,8.934-20.11.23-40.3-.807-60.342.5-27.027,1.766-59.444,6.116-85.629-2.5C475.4,4418.186,459.712,4405.749,462.112,4391.252Z" transform="translate(-461.867 -4361.001)" fill="#2675af"/>
      </g>
      <g id="Grupo_53785" data-name="Grupo 53785">
        <g id="Grupo_53783" data-name="Grupo 53783" transform="translate(0 8.201)">
          <path id="Trazado_100928" data-name="Trazado 100928" d="M510.046,4371.271c1.635-3.055,3.6-3.49,3.6-3.49s-1.317-.979-7.836-1.307c3.182-1.636,8.591-1.31,8.591-1.31l-3.49-2.18a14.268,14.268,0,0,1,7.012,2.429c1.106-2.66,2.277-5.353,3.51-8.049l0,0a15.7,15.7,0,0,1-4.186-7.635c-8.625,3.833-19.884,10-20.485,16.282-.5,5.187,6.731,12.665,13.993,18.79,1.45-4.5,3.189-9.392,5.186-14.479A11.185,11.185,0,0,0,510.046,4371.271Z" transform="translate(-431.846 -4196.141)" fill="#c969b2"/>
          <path id="Trazado_100929" data-name="Trazado 100929" d="M510.377,4359.28s-5.409-.326-8.591,1.31c6.519.328,7.836,1.307,7.836,1.307s-1.97.435-3.6,3.489a11.176,11.176,0,0,1,5.9-.947q.953-2.43,1.984-4.911a14.268,14.268,0,0,0-7.012-2.429Z" transform="translate(-427.817 -4190.257)" fill="#b758a5"/>
          <path id="Trazado_100930" data-name="Trazado 100930" d="M512.544,4360.985l0,0q1.346-2.95,2.788-5.9c-3.035-2.79-5.623-6.015-6.4-9.885a10.824,10.824,0,0,0-.8.816,18.483,18.483,0,0,0,.221,7.332A15.694,15.694,0,0,0,512.544,4360.985Z" transform="translate(-422.954 -4199.76)" fill="#4c3e60"/>
          <path id="Trazado_100931" data-name="Trazado 100931" d="M514.862,4356.675q.858-1.748,1.748-3.485-.793-.55-1.551-1.191l2.364-4.812s.162.078.466.206a14.649,14.649,0,0,1-.982-4.179,16.071,16.071,0,0,0-8.444,3.579C509.239,4350.66,511.828,4353.886,514.862,4356.675Z" transform="translate(-422.482 -4201.349)" fill="#594972"/>
          <path id="Trazado_100932" data-name="Trazado 100932" d="M517.536,4333.759h0a9.121,9.121,0,0,1-5.1-3.112c-1.07,1.048-2.1,2.07-3.078,3.038.977,1.111,2.326,1.984,3.088,3.13a9.122,9.122,0,0,1,1.162,7.357c-.495,1.935-1.076,3.835-1.653,5.728,1.48-.845,2.988-1.808,4.484-2.85A85.788,85.788,0,0,0,517.536,4333.759Z" transform="translate(-421.768 -4211.386)" fill="#b26b5e"/>
          <path id="Trazado_100933" data-name="Trazado 100933" d="M522.728,4336.95c-.763-1.145-2.112-2.02-3.088-3.13-1.8,1.8-3.407,3.415-4.682,4.714l-11.845-7.393c-1.113.079-2.191.114-3.218.1a3.718,3.718,0,0,1-1.117-.762c-.736,4.169-1.578,7.758-2.241,10.33l-.047.173c7,6.137,15.491,12.506,22.058,10.952l.056-.073h.043a39.038,39.038,0,0,0,3.59-1.825c.577-1.894,1.158-3.794,1.653-5.728A9.123,9.123,0,0,0,522.728,4336.95Z" transform="translate(-432.048 -4211.522)" fill="#c17d76"/>
          <path id="Trazado_100934" data-name="Trazado 100934" d="M529.387,4366.513c-.211.371-.43.742-.662,1.112-1.034,1.639-2.07,3.223-3.094,4.744l0,0c9.809-2.223,13.847-6.849,14.892-12.158a41.885,41.885,0,0,1-4.033,2.942A29.766,29.766,0,0,1,529.387,4366.513Z" transform="translate(-408.77 -4187.772)" fill="#b758a5"/>
          <path id="Trazado_100935" data-name="Trazado 100935" d="M531.313,4349.951a17.082,17.082,0,0,1,4.61,11.8l-4.663,2.8s-.027-.24-.083-.653a27.439,27.439,0,0,1-3.459,11.606,29.768,29.768,0,0,0,7.105-3.364,41.857,41.857,0,0,0,4.033-2.941c1.347-6.838-2.275-14.81-4.92-20.231h0C533.907,4348.977,532.939,4349.4,531.313,4349.951Z" transform="translate(-407.102 -4196.757)" fill="#c969b2"/>
          <path id="Trazado_100936" data-name="Trazado 100936" d="M531.267,4349.15h0c-.068-.142-.139-.284-.205-.423C531.19,4349.154,531.254,4349.154,531.267,4349.15Z" transform="translate(-404.431 -4196.945)" fill="#c969b2"/>
          <path id="Trazado_100937" data-name="Trazado 100937" d="M510.484,4328.881c0-.1,0-.194,0-.295l-.014,0C510.475,4328.689,510.478,4328.785,510.484,4328.881Z" transform="translate(-420.878 -4213.033)" fill="#fff"/>
          <path id="Trazado_100938" data-name="Trazado 100938" d="M513.9,4332.376Z" transform="translate(-418.136 -4210.004)" fill="#fff"/>
          <path id="Trazado_100939" data-name="Trazado 100939" d="M532.951,4319.542a42.833,42.833,0,0,1-.52-5.743l-1.221.312v-4.569s-.709,2.932-1.182,4.872l-4.5,1.15.4-2.379a11.073,11.073,0,0,1-4.051,2.459,34.356,34.356,0,0,1,.277,5.065A38.629,38.629,0,0,1,532.951,4319.542Z" transform="translate(-411.764 -4228.245)" fill="#c17d76"/>
          <path id="Trazado_100940" data-name="Trazado 100940" d="M518.782,4310.323c-.047.017-.1.037-.164.062.394-.047.73-.082.916-.1C519.37,4310.3,519.1,4310.315,518.782,4310.323Z" transform="translate(-414.371 -4227.651)" fill="#d08d83"/>
          <path id="Trazado_100941" data-name="Trazado 100941" d="M531,4319.984l1-5.931a6.294,6.294,0,0,0,.687-.27c.216-.1.421-.2.619-.309,3.733-2.022,4.193-5.522,2.641-6.428-1.1-.646-3.159,1.117-4.375,2.325-.227.225-.423.432-.579.6h0c-2.306.221-5.206-5.405-5.206-8.941a8.26,8.26,0,0,1-7.443,2.9l.027-.593-.077.011c.014,1.454.257,3.248.757,3.872a2.152,2.152,0,0,1,.144,1.315c-.334,1.968-3.416,4.25-3.632,5.04s3.106,1.129,3.106,1.129a7.308,7.308,0,0,1-.275,1.341h.007c.669-.073,3.768,1.612,3.768,1.612l-.023,0-3.051,2.046a.258.258,0,0,1-.045-.006,1.018,1.018,0,0,1,.288.378,7.13,7.13,0,0,1,.491,2.537,1.071,1.071,0,0,0,1.126.984,21.027,21.027,0,0,0,6-1.162A11.088,11.088,0,0,0,531,4319.984Zm-8.33-9.58a3.9,3.9,0,0,0-.552-.676,1.216,1.216,0,0,0-.527-.276c-.036-.016-.122-.032-.2-.052s-.151-.041-.225-.067l-.04-.015a1.378,1.378,0,0,1,.047.549c-.052.5-.32.88-.6.851s-.462-.457-.41-.956a1.164,1.164,0,0,1,.329-.747,2.13,2.13,0,0,1-.543-.476,4.141,4.141,0,0,1,.959-.074,4.442,4.442,0,0,1,.446.034c.074.006.146.021.219.028a2.117,2.117,0,0,1,.246.051,1.4,1.4,0,0,1,.549.282,1.333,1.333,0,0,1,.349.492A1.229,1.229,0,0,1,522.665,4310.4Zm.289-3.955c-1.164-.513-3.087.037-3.481-.039s-.495-.957.459-1.035c3.229-.111,4.567,1.492,4.918,2.545A5.368,5.368,0,0,0,522.955,4306.449Zm11.093,1.806a2.317,2.317,0,0,1,1.621.045,7.32,7.32,0,0,0-1.25.72,11.9,11.9,0,0,0-1.025.867c-.336.307-.662.638-1.007.971s-.705.673-1.13,1.009a3.754,3.754,0,0,1,.448-1.51,4.663,4.663,0,0,1,.952-1.258A3.77,3.77,0,0,1,534.048,4308.254Z" transform="translate(-416.825 -4235.044)" fill="#d08d83"/>
          <path id="Trazado_100942" data-name="Trazado 100942" d="M524.948,4300.209a15.528,15.528,0,0,1-7.823,3.788l-.027.593a8.259,8.259,0,0,0,7.443-2.9c0,3.537,2.9,9.162,5.206,8.941h0C526.173,4307.99,525.207,4302.766,524.948,4300.209Z" transform="translate(-415.586 -4235.698)" fill="#c17d76"/>
          <path id="Trazado_100943" data-name="Trazado 100943" d="M525.355,4303.934c.259,2.556,1.225,7.781,4.8,10.416.156-.167.353-.375.579-.6-2.274-2.11-3.026-6.889-3.026-6.889s3.538,5.039,5.233,4.163,3.49-.383,3.876,1.9-2.326,3.974-2.326,3.974-.29,3.532-1.973,4.368a11.718,11.718,0,0,0-.051-3.408c-.2.106-.4.212-.619.309a6.722,6.722,0,0,1-.687.27l-1,5.93-.4,2.378,4.5-1.149c.473-1.94,1.182-4.872,1.182-4.872v4.57l1.221-.312,4.9-1.255c.406-1.455,1.077-3.874,1.077-3.874l.243,3.538,1.146-.294.21-2.372.666,2.148,3-.767s2.106-14.712-5.335-21.294a8.256,8.256,0,0,0-2.153-1.512h0a2.522,2.522,0,0,0-.46-.3c-1.842-1.123-4.781-1.978-9.471-1.8a4.084,4.084,0,0,1,1.392-.628,6.907,6.907,0,0,1,1.968-.105,3.06,3.06,0,0,0-2.038-.907,3.5,3.5,0,0,0-2.256.718,4.157,4.157,0,0,0-.687.652,4.042,4.042,0,0,0-1.986-.781,6.257,6.257,0,0,0-2.123.108,4.8,4.8,0,0,0-1.919.874c.714.072,1.365.092,2.007.138.293.017.585.039.874.062-6.569.8-9.46,5.2-9.093,10.509.284-.025.561-.059.835-.1l.077-.012A15.512,15.512,0,0,0,525.355,4303.934Z" transform="translate(-415.992 -4239.422)" fill="#584263"/>
          <path id="Trazado_100944" data-name="Trazado 100944" d="M518.315,4303.448c-.953.078-.853.96-.459,1.035s2.317-.475,3.481.038a5.381,5.381,0,0,1,1.9,1.472C522.882,4304.94,521.544,4303.337,518.315,4303.448Z" transform="translate(-415.207 -4233.116)" fill="#584263"/>
          <path id="Trazado_100945" data-name="Trazado 100945" d="M521.028,4311l.023,0s-3.1-1.685-3.768-1.613l-.007,0c-.658.077-.3.979.63,1.408a5.83,5.83,0,0,0,2.218.258c.318-.009.588-.026.752-.039-.185.019-.522.054-.916.1a12.764,12.764,0,0,0-2.115.376.81.81,0,0,0,.088,1.551c.016,0,.03,0,.045,0Z" transform="translate(-415.713 -4228.376)" fill="#b26b5e"/>
          <path id="Trazado_100946" data-name="Trazado 100946" d="M518.445,4305.469a1.167,1.167,0,0,0-.329.747c-.052.5.131.924.41.956s.547-.351.6-.851a1.383,1.383,0,0,0-.047-.55,3.231,3.231,0,0,1-.4-.167C518.6,4305.562,518.522,4305.517,518.445,4305.469Z" transform="translate(-414.78 -4231.498)" fill="#584263"/>
          <path id="Trazado_100947" data-name="Trazado 100947" d="M520.413,4305.56a1.4,1.4,0,0,0-.549-.281,2.512,2.512,0,0,0-.247-.052c-.074-.008-.146-.022-.219-.029-.146-.016-.295-.029-.446-.032a4.013,4.013,0,0,0-.959.075,2.12,2.12,0,0,0,.543.474c.077.049.157.094.236.134a2.976,2.976,0,0,0,.4.168l.04.016c.074.026.149.045.225.068s.162.036.2.05a1.194,1.194,0,0,1,.527.277,3.808,3.808,0,0,1,.552.675,1.23,1.23,0,0,0,.05-1.051A1.347,1.347,0,0,0,520.413,4305.56Z" transform="translate(-414.871 -4231.743)" fill="#4b3e53"/>
          <path id="Trazado_100948" data-name="Trazado 100948" d="M537.176,4321.112a7.346,7.346,0,0,0,4.418-5.026,21.743,21.743,0,0,0-5.531-.967,38.628,38.628,0,0,0-10.791,1.168,75.165,75.165,0,0,0-7.283,2.162C523.2,4322.637,531.033,4323.282,537.176,4321.112Z" transform="translate(-414.875 -4223.822)" fill="#e7dcea"/>
          <path id="Trazado_100949" data-name="Trazado 100949" d="M521.576,4323.028a6.268,6.268,0,0,1,.317,4.082h0l0,0a9.3,9.3,0,0,1-.536,1.583c-1.243,3.875-4.164,14.3-3.56,25,.761,13.489.934,17.675.935,17.692a44.294,44.294,0,0,0,5.929.99,39.944,39.944,0,0,0,5.493.158,2.018,2.018,0,0,1,1.459-1.2l2.142-.431a2.016,2.016,0,0,1,2.124.947,33.228,33.228,0,0,0,6.781-2.143,151.059,151.059,0,0,1,3.65-32.185c3.679-12.4,1.32-16.643-.9-21.3-.509-.219-1.027-.411-1.554-.58a7.348,7.348,0,0,1-4.418,5.026c-6.143,2.169-13.973,1.524-19.188-2.664-1.946.675-3.5,1.269-4.477,1.569-.214.064-.417.132-.617.2A5.8,5.8,0,0,1,521.576,4323.028Z" transform="translate(-417.137 -4223.375)" fill="#fff"/>
          <path id="Trazado_100950" data-name="Trazado 100950" d="M519.879,4347.506l-6.175-1.97A40.149,40.149,0,0,0,519.879,4347.506Z" transform="translate(-418.297 -4199.493)" fill="#fff"/>
          <path id="Trazado_100951" data-name="Trazado 100951" d="M526.044,4347.042a.871.871,0,0,0-.148.014l-.592.119c.286-.035.574-.076.862-.122A1.069,1.069,0,0,0,526.044,4347.042Z" transform="translate(-409.03 -4198.291)" fill="#fff"/>
          <path id="Trazado_100952" data-name="Trazado 100952" d="M555.284,4385.805a7.649,7.649,0,0,0-5.67-5.344s.164-.121.457-.3c-2.277.454-4.909,1-7.107,1.248a133.606,133.606,0,0,0-19.357-4c-4.959,3.718-7.368,9.466-7.987,15.647l30.673-3.285a20.331,20.331,0,0,1,8.28,6.176h0C556.666,4393.682,556.479,4389.329,555.284,4385.805Z" transform="translate(-416.765 -4174.035)" fill="#d08d83"/>
          <path id="Trazado_100953" data-name="Trazado 100953" d="M545.116,4387.9c-1.266-4.023-2.247-7.291-3.914-10a11.354,11.354,0,0,0-6.226,1.868c-.293.184-.457.3-.457.3a7.651,7.651,0,0,1,5.67,5.344c1.194,3.524,1.381,7.877-.711,10.143h0c2.436,9.182,6.994,8.165,6.994,8.165C548.713,4401.82,546.382,4391.927,545.116,4387.9Z" transform="translate(-401.67 -4173.648)" fill="#4c3e60"/>
          <path id="Trazado_100954" data-name="Trazado 100954" d="M528.89,4377.574c-.243-.029-.484-.054-.727-.082-1.078-.12-2.155-.218-3.225-.291h0s-14.8,4.65-15.746,16.48a2.92,2.92,0,0,1-.183.812l11.9-1.272C521.522,4387.04,523.931,4381.292,528.89,4377.574Z" transform="translate(-422.048 -4174.2)" fill="#c17d76"/>
          <path id="Trazado_100955" data-name="Trazado 100955" d="M478.635,4298.915a9.365,9.365,0,0,0-.738-1.46c-1.484,1.065-3.189,2.282-4.936,3.507.162.676.342,1.348.534,2.012.6,2.08,1.326,4.258.826,6.364-.428,1.8-1.7,3.295-2.277,5.058-1.227,3.775.943,7.663,1.682,11.6.764,1.4,1.437,2.655,1.955,3.671a4.111,4.111,0,0,1,1.22-2.061,18.355,18.355,0,0,0,2.281-4.359.561.561,0,0,1,1.038.008,4.436,4.436,0,0,1-.072,3.645,3.849,3.849,0,0,0-.378,2.487l.1-.053C483.068,4319.531,482.33,4308.613,478.635,4298.915Z" transform="translate(-451.868 -4237.899)" fill="#c48a70"/>
          <path id="Trazado_100956" data-name="Trazado 100956" d="M474,4319.832l0,0-.005,0c-.059-.036-.11-.068-.153-.1q-.54-.333-1.115-.731a9.223,9.223,0,0,0,.763,3.13c.513-.578,1-1.182,1.461-1.8A9.013,9.013,0,0,1,474,4319.832Z" transform="translate(-451.029 -4220.691)" fill="#c48a70"/>
          <path id="Trazado_100957" data-name="Trazado 100957" d="M484.082,4277.888l-.05-.082-.1.014c.022.118.049.279.079.475Z" transform="translate(-442.075 -4253.595)" fill="#c48a70"/>
          <path id="Trazado_100958" data-name="Trazado 100958" d="M490.229,4280.841a19.744,19.744,0,0,0-.847,3.168c-.083.443-.153.888-.207,1.32.745-.018,1.536-.014,2.329.019a32.842,32.842,0,0,1,.426-4.461C491.314,4280.9,490.749,4280.879,490.229,4280.841Z" transform="translate(-437.89 -4251.171)" fill="#c48a70"/>
          <path id="Trazado_100959" data-name="Trazado 100959" d="M476.764,4301.819s.09,0,.254,0c1.846-.426,1.9-2.52,2.9-4.243a19.87,19.87,0,0,0,2.051-6.54c.684-3.858.66-7.814,1.349-11.667.746-4.181,4.121-11.709,9.911-8.672-2.43.363-4.72,1.656-6.339,10.27,1.347.3,3.092,1.818,3.941,2.624h0c4.279-1.812,4.037-7.526,3.687-10.113.085.032.173.067.263.1,3.216,1.24,8.713,3.064,12.717,2.855a9.433,9.433,0,0,0,1.166-.129c1.293-6.555-4.677-13.455-14.111-11.678a13.442,13.442,0,0,0-3.617,1.179h0a4.094,4.094,0,0,0-1.511-.195c-10.3-.627-12.194,14.39-12.662,20.571-.2,2.674.183,5.358.1,8.038a25.443,25.443,0,0,1-2.195,9.542,8.3,8.3,0,0,1,3.792-1.417A12.463,12.463,0,0,1,476.764,4301.819Z" transform="translate(-449.476 -4264.347)" fill="#c48a70"/>
          <path id="Trazado_100960" data-name="Trazado 100960" d="M481.333,4308.727c-.077-.384-.156-.759-.236-1.124l-.027-.014C481.162,4307.968,481.25,4308.35,481.333,4308.727Z" transform="translate(-444.364 -4229.805)" fill="#af755f"/>
          <path id="Trazado_100961" data-name="Trazado 100961" d="M485.777,4316.492l-.077-.037-.083-.488c-.2-.075-.4-.153-.6-.236l-.914-2.725s.282.085.8.216a84.056,84.056,0,0,0-3.254-8.683h-.462l-2.164-5.316.1-.043c-.479-.885-.955-1.788-1.426-2.752h0c-.727.528-1.6,1.155-2.561,1.85a9.371,9.371,0,0,1,.738,1.459c3.695,9.7,4.432,20.617,1.23,30.424l1.238-.708c4.968-7.946,8.116-9.668,8.138-9.682l0-.014C486.212,4318.615,485.982,4317.531,485.777,4316.492Z" transform="translate(-449.105 -4238.721)" fill="#af755f"/>
          <path id="Trazado_100962" data-name="Trazado 100962" d="M475.463,4320.069a8.684,8.684,0,0,1-.853-.335c-.462.624-.948,1.228-1.461,1.8a6.177,6.177,0,0,0,.941,1.473,6.4,6.4,0,0,0,1.29,1.114c-.049-.562-.085-1.11-.1-1.641A12.065,12.065,0,0,1,475.463,4320.069Z" transform="translate(-450.691 -4220.103)" fill="#af755f"/>
          <path id="Trazado_100963" data-name="Trazado 100963" d="M501.372,4297.764l-.027-.025Z" transform="translate(-428.169 -4237.674)" fill="#fad4c8"/>
          <path id="Trazado_100964" data-name="Trazado 100964" d="M506.37,4305.208c1.272,1.211,2.6,2.468,3.815,3.629h0c2.891-1.838,6.762.405,6.762.405s-.811-3.208-8.179-10.578a58.934,58.934,0,0,0-13.68-10.248c.013.071.025.143.04.213.1.174.209.346.311.523.946,1.617,1.838,3.266,2.695,4.933a9.852,9.852,0,0,1,3.509,6.626c1.158,1.1,2.876,2.737,4.7,4.471Z" transform="translate(-433.167 -4245.119)" fill="#f4c0b5"/>
          <path id="Trazado_100965" data-name="Trazado 100965" d="M488.485,4351.077a13.523,13.523,0,0,0-4.889-8.016l-.434,9.257s-4.177,4.592-5.314,16.826c-.9,9.687,2.364,33.175,3.761,42.54-.306,2.455-1.288,9.943-2.108,11.571-.984,1.954,1.468,4.242,3.652,4.921s25,.817,25.66.262a3.055,3.055,0,0,0-2.425-4.979c-4.035-.465-13.788-4.187-16.649-10.12l3.578-27.048a47.376,47.376,0,0,1-2.869-5.773C486.783,4371.229,490.318,4361.152,488.485,4351.077Zm-4.213,66.119a2.876,2.876,0,0,1-1.175-1.424,2.549,2.549,0,0,1-.164-.946,2.461,2.461,0,0,1,.2-.918,2.651,2.651,0,0,1,1.117-1.354,4.834,4.834,0,0,0-.572,1.522,2.52,2.52,0,0,0,.1,1.441,3.255,3.255,0,0,0,.835,1.227,6.813,6.813,0,0,0,1.344.935A3.1,3.1,0,0,1,484.272,4417.2Z" transform="translate(-447.061 -4201.47)" fill="#f4c0b5"/>
          <path id="Trazado_100966" data-name="Trazado 100966" d="M491.478,4356.42s-3.756-6.948-7.076-13.75c-.426-.872-.844-1.743-1.247-2.6-.725-.046-1.369-.094-1.918-.137l-.263,5.618a13.517,13.517,0,0,1,4.889,8.015c1.833,10.075-1.7,20.152,1.963,29.442a47.442,47.442,0,0,0,2.869,5.773l1.162-8.78a53.977,53.977,0,0,1-1.389-5.971C488.56,4361.9,491.478,4356.42,491.478,4356.42Z" transform="translate(-444.44 -4203.966)" fill="#eab0a7"/>
          <path id="Trazado_100967" data-name="Trazado 100967" d="M504.847,4395.568a5.037,5.037,0,0,1-.482.631A3.408,3.408,0,0,0,504.847,4395.568Z" transform="translate(-425.757 -4159.529)" fill="#fad4c8"/>
          <path id="Trazado_100968" data-name="Trazado 100968" d="M501.956,4396.583c.3.023.59.045.874.063a2.735,2.735,0,0,1-.572-.375A2.892,2.892,0,0,1,501.956,4396.583Z" transform="translate(-427.681 -4158.969)" fill="#fad4c8"/>
          <path id="Trazado_100969" data-name="Trazado 100969" d="M498.826,4395.154Z" transform="translate(-430.181 -4159.86)" fill="#ffd4ca"/>
          <path id="Trazado_100970" data-name="Trazado 100970" d="M497.093,4395.576a1.409,1.409,0,0,0,.3.506,1.476,1.476,0,0,0,.207.185,1.537,1.537,0,0,0,.25.135,1.477,1.477,0,0,0,.421.107c0-.052-.005-.1,0-.154a2.3,2.3,0,0,1,.43-1.267l-1.8-.906h0A4.473,4.473,0,0,0,497.093,4395.576Z" transform="translate(-431.722 -4160.635)" fill="#ffd4ca"/>
          <path id="Trazado_100971" data-name="Trazado 100971" d="M498.823,4395.177l.016-.023h0l-.029.013Z" transform="translate(-430.194 -4159.86)" fill="#e2a998"/>
          <path id="Trazado_100972" data-name="Trazado 100972" d="M498,4395.99a1.413,1.413,0,0,0,.227.543,1.573,1.573,0,0,0,.178.212,1.512,1.512,0,0,0,.23.167,1.785,1.785,0,0,0,1.166.218c.029,0,.059-.009.088-.013a1.5,1.5,0,0,1-.036-.426,2.3,2.3,0,0,1,.153-.718l-.491-.339-.013-.011.029-.013-.18-.091-1.347-.936h0A4.5,4.5,0,0,0,498,4395.99Z" transform="translate(-430.885 -4160.316)" fill="#ffd4ca"/>
          <path id="Trazado_100973" data-name="Trazado 100973" d="M499.344,4396.357a1.4,1.4,0,0,0,.218.547,1.415,1.415,0,0,0,.176.216,1.634,1.634,0,0,0,.228.171,1.767,1.767,0,0,0,1.162.231c.068,0,.137-.015.205-.023a1.635,1.635,0,0,1-.254-.476,2.305,2.305,0,0,1-.108-.923l-1.606-1.147h0A4.456,4.456,0,0,0,499.344,4396.357Z" transform="translate(-429.805 -4160.02)" fill="#ffd4ca"/>
          <path id="Trazado_100974" data-name="Trazado 100974" d="M500.307,4395.237Z" transform="translate(-428.998 -4159.793)" fill="#ffd4ca"/>
          <path id="Trazado_100975" data-name="Trazado 100975" d="M500.793,4396.556a1.4,1.4,0,0,0,.4.433,1.155,1.155,0,0,0,.514.215,1.8,1.8,0,0,0,1.171-.2,4.055,4.055,0,0,0,.387-.218,3.23,3.23,0,0,1-.252-.322,4.352,4.352,0,0,1-.349-.616l-2.356-.611A4.5,4.5,0,0,0,500.793,4396.556Z" transform="translate(-428.998 -4159.793)" fill="#ffd4ca"/>
          <path id="Trazado_100976" data-name="Trazado 100976" d="M505.086,4396.168a1.486,1.486,0,0,1-2.25-.973l-1.4-.292h0a9.608,9.608,0,0,0,1.124,1.468,2.822,2.822,0,0,0,1.4.844,2.15,2.15,0,0,0,.793.012,4.02,4.02,0,0,0,.817-.243,13.072,13.072,0,0,0,1.632-.886h0l-1.475-.306A3.178,3.178,0,0,1,505.086,4396.168Z" transform="translate(-428.1 -4160.06)" fill="#ffd4ca"/>
          <path id="Trazado_100977" data-name="Trazado 100977" d="M509.35,4397.56a4.083,4.083,0,0,1-.817.243,2.14,2.14,0,0,1-.793-.013,2.826,2.826,0,0,1-1.4-.842,9.7,9.7,0,0,1-1.124-1.468h0a3.961,3.961,0,0,0,.335,1.21,4.488,4.488,0,0,0,.349.617,3.307,3.307,0,0,0,.252.323c-.13.081-.257.154-.387.218a1.8,1.8,0,0,1-1.171.2,1.547,1.547,0,0,1-.273-.077,1.576,1.576,0,0,1-.241-.138,1.412,1.412,0,0,1-.4-.433,4.5,4.5,0,0,1-.486-1.318h0a2.287,2.287,0,0,0-.142.636,2.312,2.312,0,0,0,.108.924,1.627,1.627,0,0,0,.254.474c-.068.009-.137.02-.2.024a1.776,1.776,0,0,1-1.162-.231,1.7,1.7,0,0,1-.228-.17,1.443,1.443,0,0,1-.176-.216,1.4,1.4,0,0,1-.218-.547,4.458,4.458,0,0,1,.022-1.4h0a2.266,2.266,0,0,0-.441.725,2.293,2.293,0,0,0-.153.718,1.493,1.493,0,0,0,.036.426c-.029,0-.059.011-.088.013a1.785,1.785,0,0,1-1.166-.218,1.549,1.549,0,0,1-.23-.167,1.645,1.645,0,0,1-.178-.212,1.408,1.408,0,0,1-.227-.543,4.493,4.493,0,0,1,0-1.407h0a1.849,1.849,0,0,0-.144.185,2.3,2.3,0,0,0-.43,1.267c0,.051,0,.1,0,.154a1.476,1.476,0,0,1-.421-.107,1.535,1.535,0,0,1-.25-.135,1.476,1.476,0,0,1-.207-.185,1.409,1.409,0,0,1-.3-.506,4.473,4.473,0,0,1-.2-1.394h0a2.372,2.372,0,0,0-.212.417,2.3,2.3,0,0,0-.151,1.1,1.693,1.693,0,0,0,1.023,1.371,1.834,1.834,0,0,0,.872.149l.043-.006a1.6,1.6,0,0,0,.615.64,1.78,1.78,0,0,0,.844.27,2.132,2.132,0,0,0,.833-.113c.056-.021.108-.046.162-.069a1.566,1.566,0,0,0,.565.582,1.828,1.828,0,0,0,.84.28,2.125,2.125,0,0,0,.833-.1,2.608,2.608,0,0,0,.475-.209,1.534,1.534,0,0,0,.648.27,1.778,1.778,0,0,0,.885-.038,2.123,2.123,0,0,0,.741-.4c.031-.023.056-.053.085-.078a2.815,2.815,0,0,0,.3-.313,2.7,2.7,0,0,0,.572.376,2.307,2.307,0,0,0,.552.191,2.424,2.424,0,0,0,1.083-.024,3.139,3.139,0,0,0,.943-.415,4.1,4.1,0,0,0,.881-.759,5.151,5.151,0,0,0,.482-.631h0A13.127,13.127,0,0,1,509.35,4397.56Z" transform="translate(-431.889 -4160.635)" fill="#e2a998"/>
          <path id="Trazado_100978" data-name="Trazado 100978" d="M504.552,4397.245a3.226,3.226,0,0,0,.631-.376,2.832,2.832,0,0,0,1.076-1.948,1.2,1.2,0,0,0-1.6-1.292l-1.766.639a1.2,1.2,0,0,0-.766,1.382,4.126,4.126,0,0,0,.176.622A1.487,1.487,0,0,0,504.552,4397.245Z" transform="translate(-427.566 -4161.136)" fill="#eab3a2"/>
          <path id="Trazado_100979" data-name="Trazado 100979" d="M488.138,4342.935a21.177,21.177,0,0,1-5.258-1.478c3.321,6.8,7.076,13.75,7.076,13.75s-2.918,5.479-1.009,17.615a54.023,54.023,0,0,0,1.389,5.97c3.209,11.367,10.345,28.676,13.14,35.3-.038.094-.076.192-.115.3a3.318,3.318,0,0,0,1.448,3.749c.5,3.713,1.966,14.144,3.072,18.567a2.388,2.388,0,0,1,.212-.417h0l1.8.906a1.907,1.907,0,0,1,.144-.185h0l1.347.935.18.091h0l-.016.025.491.339a2.262,2.262,0,0,1,.441-.725h0l1.606,1.147a2.3,2.3,0,0,1,.142-.637h0l2.357.61a3.941,3.941,0,0,1-.335-1.211h0l1.4.292a4.113,4.113,0,0,1-.176-.621,1.2,1.2,0,0,1,.766-1.382l1.766-.639a1.2,1.2,0,0,1,1.6,1.292,2.828,2.828,0,0,1-1.076,1.947l1.475.306a3.431,3.431,0,0,0,.43-1.191l.189-1.156a5.944,5.944,0,0,0-.747-3.98l-9.292-15.728a4.894,4.894,0,0,0-1.4-5.4l0,0-.047-.392c-.459-3.613-4.247-31.439-14.351-52.435,5.278,3.647,8.224.4,8.224.4l.029.244-.029-.244c.727-2.142,1.982-7.33-.939-11.791l-.16-4.071A47.218,47.218,0,0,1,488.138,4342.935Z" transform="translate(-442.918 -4202.751)" fill="#fad4c8"/>
          <path id="Trazado_100980" data-name="Trazado 100980" d="M482.187,4340.74c.4.853.82,1.724,1.246,2.6a21.161,21.161,0,0,0,5.258,1.479,47.243,47.243,0,0,0,15.779.11l-.23-5.818C497.2,4341.271,487.526,4341.073,482.187,4340.74Z" transform="translate(-443.472 -4204.63)" fill="#f4c0b5"/>
          <path id="Trazado_100981" data-name="Trazado 100981" d="M482.291,4385.883a3.242,3.242,0,0,1-.835-1.227,2.518,2.518,0,0,1-.1-1.44,4.836,4.836,0,0,1,.572-1.522,2.652,2.652,0,0,0-1.117,1.354,2.459,2.459,0,0,0-.2.917,2.547,2.547,0,0,0,.164.946,2.881,2.881,0,0,0,1.175,1.425,3.1,3.1,0,0,0,1.689.482A6.792,6.792,0,0,1,482.291,4385.883Z" transform="translate(-444.734 -4170.61)" fill="#e2a998"/>
          <path id="Trazado_100982" data-name="Trazado 100982" d="M499.336,4286.012a4.6,4.6,0,0,0-1.777.755,5.11,5.11,0,0,0-1.335,1.4l-.066.1a1.545,1.545,0,0,1-.094.134,1.517,1.517,0,0,1-.223.241,2.26,2.26,0,0,1-.516.346,3.35,3.35,0,0,1-.545.214,3,3,0,0,1-.594.11,2.618,2.618,0,0,1-1.193-.2,3.486,3.486,0,0,1-.98-.637,4.256,4.256,0,0,0-1.646-.938,4.372,4.372,0,0,0-.941-.181,7.908,7.908,0,0,0-.991,0c-1.389.052-2.776.119-4.164.154-2.065.067-4.13.119-6.2.134l.126.207.4.729a30.419,30.419,0,0,1,1.329,3.028c.4,1.024.748,2.069,1.087,3.115s.631,2.1.923,3.16q.332,1.253.631,2.516c9.787-1.074,15.16,5.425,17.459,9.3l.482-.072c.444-1.514.5-3.972-.349-7.939a20.178,20.178,0,0,0,2.937,6.236c.194-3.718,1.574-8.934,7.247-11.812q-1.12-1.868-2.218-3.743l-3.031-5.207c-.248-.437-.52-.857-.77-1.294-.158-.281-.327-.556-.5-.829Q501.586,4285.547,499.336,4286.012Z" transform="translate(-446.758 -4247.812)" fill="#fad4c8"/>
          <path id="Trazado_100983" data-name="Trazado 100983" d="M498.593,4285.967c.054-.433.124-.877.207-1.32a15.064,15.064,0,0,1-9.251-4.606c.049,3.235-.568,7.388-3.75,8.946h0a5.949,5.949,0,0,1-3.3,1.069,14.942,14.942,0,0,1-5.114-.021,6.563,6.563,0,0,1,.926,1.11c.065.1.126.195.185.291,2.1-.206,4.195-.377,6.294-.532,1.385-.109,2.772-.191,4.157-.286a6.929,6.929,0,0,1,1.09-.018,5.135,5.135,0,0,1,3.056,1.292,2.161,2.161,0,0,0,1.592.653,2.225,2.225,0,0,0,.43-.077,2.664,2.664,0,0,0,.424-.161,1.469,1.469,0,0,0,.351-.229,1.193,1.193,0,0,0,.133-.137c.02-.026.034-.048.056-.078l.079-.117a5.856,5.856,0,0,1,1.563-1.555,5.091,5.091,0,0,1,.986-.513,5.353,5.353,0,0,1,1.069-.276q2.2-.36,4.4-.69l-.081-.128c-.131-.215-.255-.436-.394-.642s-.279-.414-.414-.626a6.6,6.6,0,0,0-.428-.619l-.45-.61h0c-.491-.05-.989-.083-1.488-.1C500.13,4285.954,499.338,4285.951,498.593,4285.967Z" transform="translate(-447.309 -4251.809)" fill="#fad4c8"/>
          <path id="Trazado_100984" data-name="Trazado 100984" d="M488.7,4309.826a17.924,17.924,0,0,0-.4,1.9l.952.043a28.155,28.155,0,0,0,6.265-.825C494.368,4310.771,491,4310.242,488.7,4309.826Z" transform="translate(-438.59 -4228.017)" fill="#fad4c8"/>
          <path id="Trazado_100985" data-name="Trazado 100985" d="M490.977,4309.858a29.532,29.532,0,0,1-9.892-2.262q.119.547.236,1.124c.155.715.291,1.425.4,2.127l0-.014,0,.014h0a29.854,29.854,0,0,0,8.969,2.481,21.361,21.361,0,0,1,.651-3.029C491.228,4310.164,491.1,4310.014,490.977,4309.858Z" transform="translate(-444.352 -4229.799)" fill="#fad4c8"/>
          <path id="Trazado_100986" data-name="Trazado 100986" d="M477.986,4299.179l.016-.007c-.863-1.714-1.439-2.74-1.443-2.746C477.03,4297.391,477.507,4298.294,477.986,4299.179Z" transform="translate(-447.968 -4238.721)" fill="#fad4c8"/>
          <path id="Trazado_100987" data-name="Trazado 100987" d="M486.5,4311.643c.66.084,1.356.163,2.083.228-.225-.338-.36-.544-.36-.544s1.193-1.074,2.943.7l.416.012.5-.031c-.464-1.12-.8-1.981-.8-1.981s1.59-.913,3.02,1.745l.048.093.149-.009c-.588-1.4-1.043-2.576-1.043-2.576s1.41-.808,2.767,1.314a.464.464,0,0,1,.345-.019l2.4.429a9.028,9.028,0,0,0,2.793-.326,4.435,4.435,0,0,1,1.716-.128,25.36,25.36,0,0,0,5.9-2.676c-.061-2.631-.162-5.379-.306-8.136a9.9,9.9,0,0,1-7.436.762l-2.45.659-1.38,1.284-.149-.144a12.773,12.773,0,0,1-15.221-.4h-2.18a63.443,63.443,0,0,0,.862,8.757A49.618,49.618,0,0,0,486.5,4311.643Z" transform="translate(-445.019 -4236.077)" fill="#fad4c8"/>
          <path id="Trazado_100988" data-name="Trazado 100988" d="M492.4,4284.5c.347.374.685.754,1,1.152.092.111.18.226.27.339q1.616-.235,3.24-.442c-1.007.25-2.015.484-3.024.714.461.6.9,1.208,1.333,1.825,1.042,1.494,2.007,3.035,2.936,4.6-.014-.071-.027-.143-.04-.213a58.943,58.943,0,0,1,13.68,10.247c7.368,7.37,8.179,10.579,8.179,10.579s-3.871-2.243-6.762-.405h0c-4.661,4.543-10.568,11.83-12.6,14.179,0-.653,0-1.322-.005-2-.043.02-.322.124-1.943.671.254.236.466.456.631.636a5.238,5.238,0,0,1,1.193,2.676l.056-.033a37.992,37.992,0,0,1,3.405,11.236l1.581,5.163c.617-1.828,1.336-4.042,1.6-5.165.394-1.7-.469-7.724-.82-10.007,4.38-2.659,18.806-11.619,19.4-14.707,1.315-6.269-5.871-11.213-14.284-21.652-8.935-11.09-16.748-10.748-20.13-10.432A11.487,11.487,0,0,1,492.4,4284.5Z" transform="translate(-436.195 -4249.171)" fill="#fad4c8"/>
          <path id="Trazado_100989" data-name="Trazado 100989" d="M484.291,4336.31c-2.711-1.356-5.769-2.812-7.742-5.139,2.858,8.413,6.206,15.579,6.206,15.579s.746.086,2.018.191c.549.043,1.193.091,1.917.137,5.339.333,15.014.531,22.053-1.635a22.445,22.445,0,0,0,2.527-.939s.48-1.513,1.146-4.076l.047-.173A46.936,46.936,0,0,1,484.291,4336.31Z" transform="translate(-447.976 -4210.968)" fill="#c969b2"/>
          <path id="Trazado_100990" data-name="Trazado 100990" d="M486.061,4353.7a46.94,46.94,0,0,0,28.173,3.945c.664-2.572,1.506-6.162,2.241-10.332l-.059-.061c-6.47-5.315-7.206-20.369-7.931-29.964,0,0,.049-5.3-1.412-5.938l-.4-.062a28.125,28.125,0,0,1-6.265.824h.014s1.914,10.142-.412,14.116-8.541,6.611-6.465,16.865l.372,1.057.46,1.306-3.139,1.909-.133.083-1.383-1.993.486-.3a17.969,17.969,0,0,1-1.432-4.976,13.508,13.508,0,0,1,.462-5.823,13.908,13.908,0,0,1,2.93-4.918c1.882-2.287,3.826-4.65,3.646-12.415a31.145,31.145,0,0,1,.273-5.136,29.855,29.855,0,0,1-8.969-2.481h0c-.022.013-3.169,1.737-8.138,9.681l1.6-.912c.153-.078,4.227-1.875,4.4-1.9l3.238-.4,0-.008,2.4-.293,0,.01a.449.449,0,0,1,.433.673A3.209,3.209,0,0,1,490,4317.3c.39-.049.782-.1,1.176-.134.736-.068,1.475-.129,2.218-.125l.209-.024-.005.029c.13,0,.261,0,.39.011l-.009,0a.445.445,0,0,1,.331.668,3.406,3.406,0,0,1-1.59,1.335l.327-.016.032,0a1.349,1.349,0,0,1,.462-.057.679.679,0,0,1,.074.018.437.437,0,0,1,.252.063,1.617,1.617,0,0,1-.326,3.066c-1.736.44-3.642,1.621-10.669,6.15-6.432,4.149-7.983.7-8.2.091-.054-.017-.106-.036-.158-.055a12.06,12.06,0,0,0-.182,2.416c.014.53.05,1.079.1,1.64a73.627,73.627,0,0,0,3.884,16.18C480.293,4350.886,483.351,4352.341,486.061,4353.7Z" transform="translate(-449.746 -4228.355)" fill="#d67fbe"/>
          <path id="Trazado_100991" data-name="Trazado 100991" d="M484.707,4328.147c.034.089.07.176.1.26l.446-.275A3.142,3.142,0,0,1,484.707,4328.147Z" transform="translate(-441.459 -4213.396)" fill="#d67fbe"/>
          <path id="Trazado_100992" data-name="Trazado 100992" d="M480.432,4314.858c-.09.043-.176.085-.261.132Z" transform="translate(-445.082 -4223.999)" fill="#d67fbe"/>
          <path id="Trazado_100993" data-name="Trazado 100993" d="M496.551,4309.35l.045-.067,3.274,10.688a37.988,37.988,0,0,0-3.405-11.237l-.056.033C496.458,4308.956,496.5,4309.15,496.551,4309.35Z" transform="translate(-432.112 -4228.89)" fill="#d67fbe"/>
          <path id="Trazado_100994" data-name="Trazado 100994" d="M476.559,4296.847c0,.006.579,1.031,1.443,2.746l3.891-1.682h0c-.013-.311-.011-.628.005-.948a4.1,4.1,0,0,0-5.339-.117Z" transform="translate(-447.968 -4239.141)" fill="#f4c0b5"/>
          <path id="Trazado_100995" data-name="Trazado 100995" d="M482.3,4309.692a63.432,63.432,0,0,1-.862-8.756h-2.686a84.071,84.071,0,0,1,3.254,8.683C482.1,4309.642,482.2,4309.667,482.3,4309.692Z" transform="translate(-446.212 -4235.119)" fill="#f4c0b5"/>
          <path id="Trazado_100996" data-name="Trazado 100996" d="M463.243,4302.759c5.053,7.362,18.619,22.089,19.173,22.688l0-.008c-.27-.5-4.1-7.466-7.479-13.512-2.277-4.069-4.353-7.717-5.011-8.687C469.927,4303.239,468.179,4304.844,463.243,4302.759Z" transform="translate(-458.604 -4233.665)" fill="#f4c0b5"/>
          <path id="Trazado_100997" data-name="Trazado 100997" d="M491.453,4300.526l-.04.012h0a14.945,14.945,0,0,1-1.489,1.128l.149.144Z" transform="translate(-437.292 -4235.445)" fill="#f4c0b5"/>
          <path id="Trazado_100998" data-name="Trazado 100998" d="M490.7,4302.238l2.565-.388c-.005-.41,0-.852.023-1.315a20.172,20.172,0,0,1-2.937-6.235C491.2,4298.266,491.145,4300.724,490.7,4302.238Z" transform="translate(-436.95 -4240.42)" fill="#f4c0b5"/>
          <path id="Trazado_100999" data-name="Trazado 100999" d="M495.857,4284.569q-1.624.206-3.24.442c.072.091.144.18.216.272C493.842,4285.052,494.849,4284.819,495.857,4284.569Z" transform="translate(-435.141 -4248.192)" fill="#f4c0b5"/>
          <path id="Trazado_101000" data-name="Trazado 101000" d="M484.328,4287.66c1.389-.036,2.776-.1,4.164-.154a7.638,7.638,0,0,1,.991,0,4.343,4.343,0,0,1,.941.181,4.255,4.255,0,0,1,1.646.938,3.476,3.476,0,0,0,.98.637,2.611,2.611,0,0,0,1.193.2,2.923,2.923,0,0,0,.594-.11,3.3,3.3,0,0,0,.545-.214,2.225,2.225,0,0,0,.516-.346,1.768,1.768,0,0,0,.317-.375l.066-.1a5.12,5.12,0,0,1,1.335-1.4,4.618,4.618,0,0,1,1.777-.755q2.25-.463,4.491-.967l-.2-.325q-2.2.326-4.4.689a5.385,5.385,0,0,0-1.068.276,5.171,5.171,0,0,0-.986.513,5.866,5.866,0,0,0-1.563,1.556l-.079.117c-.022.029-.036.051-.056.077a1.213,1.213,0,0,1-.133.138,1.483,1.483,0,0,1-.351.228,2.663,2.663,0,0,1-.424.161,2.3,2.3,0,0,1-.43.077,2.16,2.16,0,0,1-1.592-.653,5.148,5.148,0,0,0-3.056-1.293,7.112,7.112,0,0,0-1.09.018c-1.385.094-2.772.177-4.157.286-2.1.155-4.2.326-6.294.532.043.071.086.139.128.21C480.2,4287.78,482.263,4287.728,484.328,4287.66Z" transform="translate(-446.815 -4247.957)" fill="#f4c0b5"/>
          <path id="Trazado_101001" data-name="Trazado 101001" d="M476.884,4286.573q.869,0,1.738,0c-.025-.059-.052-.115-.079-.173C477.99,4286.454,477.436,4286.509,476.884,4286.573Z" transform="translate(-447.708 -4246.731)" fill="#f4c0b5"/>
          <path id="Trazado_101002" data-name="Trazado 101002" d="M502.93,4284.014a6.582,6.582,0,0,1,.428.618c.135.213.275.417.414.626s.263.428.394.643l.081.129.2.326c.171.273.34.546.5.829.25.435.522.856.77,1.293l3.031,5.207q1.1,1.877,2.218,3.743c-5.673,2.877-7.053,8.093-7.247,11.811-.023.464-.029.9-.023,1.315l-2.565.387-.482.072c-2.3-3.874-7.672-10.372-17.459-9.3q-.3-1.262-.631-2.515c-.291-1.057-.594-2.111-.923-3.16s-.682-2.09-1.087-3.115a30.422,30.422,0,0,0-1.329-3.029l-.4-.729-.126-.207c-.041-.071-.085-.139-.128-.209-.059-.1-.121-.2-.185-.292a6.544,6.544,0,0,0-.926-1.11l-.063-.011a8.334,8.334,0,0,1,.822,1.45c.027.058.054.113.079.173.164.375.311.756.455,1.142.385,1.013.707,2.051,1.029,3.087s.628,2.079.908,3.131c.3,1.045.59,2.093.863,3.147.286,1.02.552,2.047.824,3.072a12.894,12.894,0,0,0-1.063,4.4c-.016.32-.018.637-.005.948h0l-3.891,1.682-.016.007-.1.042,2.164,5.315h5.328a12.77,12.77,0,0,0,15.221.4,15.021,15.021,0,0,0,1.489-1.128h0l.039-.012,2.45-.659a9.9,9.9,0,0,0,7.436-.762,8.54,8.54,0,0,0,4.429-8.068,9.847,9.847,0,0,0-3.509-6.624c-.856-1.668-1.748-3.316-2.695-4.934-.1-.176-.209-.35-.311-.523-.928-1.561-1.894-3.1-2.936-4.6-.432-.617-.872-1.228-1.333-1.824q-.108-.138-.216-.271c-.09-.114-.178-.229-.27-.34-.315-.4-.653-.779-1-1.152a11.437,11.437,0,0,0-1.1-1.047Z" transform="translate(-447.378 -4249.124)" fill="#64496d"/>
          <path id="Trazado_101003" data-name="Trazado 101003" d="M484.28,4281.789a15.057,15.057,0,0,0,9.251,4.606,19.719,19.719,0,0,1,.847-3.168,17.187,17.187,0,0,1-6.092-1.745,8.873,8.873,0,0,1-4.24-3.63l-.067.406A25.926,25.926,0,0,1,484.28,4281.789Z" transform="translate(-442.04 -4253.558)" fill="#f4c0b5"/>
          <path id="Trazado_101004" data-name="Trazado 101004" d="M490.118,4269.525l-.263-.1c.349,2.587.592,8.3-3.687,10.114h0c-.849-.806-2.594-2.325-3.941-2.623a1.234,1.234,0,0,0-1.468.531c-.545.922-.153,2.479.752,3.9a8.227,8.227,0,0,0,2.155,2.292,4.27,4.27,0,0,0,3.008.877c.031,0,.063-.008.1-.014l.05.084a8.868,8.868,0,0,0,4.24,3.629,17.186,17.186,0,0,0,6.092,1.746c.52.038,1.085.054,1.7.046a30.658,30.658,0,0,0,3.353-.262,69.315,69.315,0,0,0,1.009-12c-.061.01-.122.019-.183.024s-.11.007-.164.008a.676.676,0,0,1,.059.269.648.648,0,1,1-1.3,0,.684.684,0,0,1,.014-.137,2.631,2.631,0,0,0-.788.379,1.276,1.276,0,0,1,.577-.939,1.928,1.928,0,0,1,1.088-.339c.088,0,.2,0,.27.007l.23.017c.059.006.119.007.178.011-.013-.505-.034-1.007-.065-1.508-.1,0-.2-.007-.288-.014a1.821,1.821,0,0,1-.516-.125,1.931,1.931,0,0,1-.453-.284,4.372,4.372,0,0,1-.543-.551,1.159,1.159,0,0,1,.73-.458,1.371,1.371,0,0,1,.77.084,1.243,1.243,0,0,1,.2.107c-.022-.227-.045-.454-.07-.676C496.527,4274.722,491.274,4270.535,490.118,4269.525Zm2.579,5.051a3.646,3.646,0,0,1,1.628-.668,4.117,4.117,0,0,1,1.7.085,3.256,3.256,0,0,1,1.515.852,8.964,8.964,0,0,1-1.56.494c-.48.11-.937.192-1.385.263s-.885.131-1.333.2a8.774,8.774,0,0,0-1.491.329,1.441,1.441,0,0,1,.083-.461c.023-.075.058-.146.088-.221s.077-.133.119-.2A2.691,2.691,0,0,1,492.7,4274.577Zm3.432,3.75a.718.718,0,1,1-1.435,0,.7.7,0,0,1,.027-.186l-.047,0-.27.041c-.108.01-.21.033-.32.036a2.787,2.787,0,0,1-.655-.024,1.977,1.977,0,0,1-.648-.2.9.9,0,0,1-.466-.492,1.33,1.33,0,0,0,.576.05,5.138,5.138,0,0,0,.536-.083c.176-.035.353-.078.531-.119l.268-.065c.083-.017.214-.039.318-.056a2.312,2.312,0,0,1,1.354.2,1.535,1.535,0,0,1,.862,1,3.241,3.241,0,0,0-.646-.233A.662.662,0,0,1,496.129,4278.327Zm-14.2.468a3.044,3.044,0,0,1,3,.669,3.466,3.466,0,0,1,.926,1.311,3.146,3.146,0,0,1,.219,1.545c-.306-.431-.563-.83-.847-1.192a7.163,7.163,0,0,0-.9-.977,6,6,0,0,0-1.077-.76A10.809,10.809,0,0,0,481.93,4278.794Zm19.45,6.7s.473.313.214.735-1.421.767-2.785.523a6.158,6.158,0,0,1-2.65-1.5,17.481,17.481,0,0,0,1.93-.463c.752-.249,1.838-1.1,2.52-.554.649-.412,1.1.381,1.1.381a.179.179,0,0,1,.023.041.6.6,0,0,1-.378.84Zm-.281-5.293a8.755,8.755,0,0,0,.5,1c.045.083.1.16.148.24l.076.121a.717.717,0,0,1,.131.328.62.62,0,0,1-.094.391,1.454,1.454,0,0,1-.126.161,2.118,2.118,0,0,1-1.538.711,3.843,3.843,0,0,1-1.236-.184,8.5,8.5,0,0,0,1.157-.259,1.975,1.975,0,0,0,.867-.551,1.43,1.43,0,0,0,.126-.166l-.049-.066c-.065-.084-.133-.167-.193-.256a6.211,6.211,0,0,1-.613-1.117,6.719,6.719,0,0,1-.529-2.455,5.868,5.868,0,0,1,.435-2.429,17.4,17.4,0,0,0,.279,2.351A11.022,11.022,0,0,0,501.1,4280.206Z" transform="translate(-444.812 -4260.289)" fill="#fad4c8"/>
          <path id="Trazado_101005" data-name="Trazado 101005" d="M492,4276.358c0-.006-.005.005-.013.028Z" transform="translate(-435.64 -4254.753)" fill="#fad4c8"/>
          <path id="Trazado_101006" data-name="Trazado 101006" d="M489.21,4278.225a6.162,6.162,0,0,0,2.65,1.5c1.363.244,2.527-.1,2.784-.523s-.214-.734-.214-.734h-.023l-.034.011A18.068,18.068,0,0,1,489.21,4278.225Z" transform="translate(-437.862 -4253.26)" fill="#894d66"/>
          <path id="Trazado_101007" data-name="Trazado 101007" d="M494.784,4278.163a.168.168,0,0,0-.023-.042s-.452-.793-1.1-.381c-.682-.548-1.768.306-2.52.556a17.8,17.8,0,0,1-1.93.463,18.074,18.074,0,0,0,5.163.255l.034-.012A.6.6,0,0,0,494.784,4278.163Z" transform="translate(-437.862 -4253.793)" fill="#995971"/>
          <path id="Trazado_101008" data-name="Trazado 101008" d="M487.061,4273.28c-.041.068-.083.133-.119.2s-.065.146-.088.222a1.437,1.437,0,0,0-.083.46,8.856,8.856,0,0,1,1.491-.328c.448-.068.887-.123,1.333-.2s.9-.155,1.385-.264a9.049,9.049,0,0,0,1.56-.494,3.27,3.27,0,0,0-1.515-.853,4.125,4.125,0,0,0-1.7-.085,3.658,3.658,0,0,0-1.628.669A2.682,2.682,0,0,0,487.061,4273.28Z" transform="translate(-439.81 -4258.321)" fill="#c48a70"/>
          <path id="Trazado_101009" data-name="Trazado 101009" d="M492.817,4272.033a1.159,1.159,0,0,0-.73.458,4.272,4.272,0,0,0,.543.551,1.893,1.893,0,0,0,.453.283,1.787,1.787,0,0,0,.516.125c.088.007.183.013.288.014a4.577,4.577,0,0,0,.488-.015,1.148,1.148,0,0,0-.185-.843,1.339,1.339,0,0,0-.4-.383,1.241,1.241,0,0,0-.2-.106A1.371,1.371,0,0,0,492.817,4272.033Z" transform="translate(-435.564 -4258.223)" fill="#c48a70"/>
          <path id="Trazado_101010" data-name="Trazado 101010" d="M491.97,4272.9a5.872,5.872,0,0,0-.435,2.429,6.718,6.718,0,0,0,.529,2.455,6.188,6.188,0,0,0,.613,1.117c.059.09.128.171.193.256l.049.065a1.481,1.481,0,0,1-.126.166,1.979,1.979,0,0,1-.867.551,8.5,8.5,0,0,1-1.157.259,3.842,3.842,0,0,0,1.236.183,2.1,2.1,0,0,0,1.538-.71,1.486,1.486,0,0,0,.126-.161.62.62,0,0,0,.094-.392.714.714,0,0,0-.131-.327l-.076-.122c-.049-.08-.1-.156-.148-.24a8.812,8.812,0,0,1-.5-1,11.023,11.023,0,0,1-.657-2.175A17.392,17.392,0,0,1,491.97,4272.9Zm1.013,6.215-.013.027C492.977,4279.123,492.984,4279.111,492.982,4279.117Z" transform="translate(-436.618 -4257.512)" fill="#efb9a8"/>
          <path id="Trazado_101011" data-name="Trazado 101011" d="M475.975,4292.473c1.819.011,12.775-.491,11.313-14.129a8.238,8.238,0,0,1-2.155-2.292C483.7,4285.374,482.551,4290.953,475.975,4292.473Z" transform="translate(-448.434 -4254.996)" fill="#c48a70"/>
          <path id="Trazado_101012" data-name="Trazado 101012" d="M483.526,4285.015a12.455,12.455,0,0,1-3.3,1.068A5.937,5.937,0,0,0,483.526,4285.015Z" transform="translate(-445.038 -4247.836)" fill="#c48a70"/>
          <path id="Trazado_101013" data-name="Trazado 101013" d="M485.851,4269.481c1.157,1.009,6.409,5.2,12.85,4.089h0c-.052-.488-.1-.895-.133-1.234C494.564,4272.545,489.067,4270.721,485.851,4269.481Z" transform="translate(-440.545 -4260.245)" fill="#f4c0b5"/>
          <path id="Trazado_101014" data-name="Trazado 101014" d="M483.736,4300.084a12.475,12.475,0,0,0,3.3-1.069h0c3.182-1.559,3.8-5.71,3.75-8.946a25.957,25.957,0,0,0-.3-3.531c-.031-.2-.058-.356-.079-.475a4.27,4.27,0,0,1-3.008-.877c1.462,13.639-9.494,14.14-11.312,14.129,6.576-1.521,7.722-7.1,9.158-16.421-.9-1.421-1.3-2.976-.752-3.9a1.233,1.233,0,0,1,1.468-.531c1.619-8.614,3.909-9.907,6.339-10.271-5.79-3.036-9.165,4.493-9.911,8.673-.689,3.852-.666,7.808-1.349,11.667a19.871,19.871,0,0,1-2.051,6.54c-1.006,1.723-1.056,3.817-2.9,4.244l-.254,0a12.51,12.51,0,0,0,1.7.528c.309.076.653.149,1.027.215l.063.011A14.943,14.943,0,0,0,483.736,4300.084Z" transform="translate(-448.547 -4261.837)" fill="#af755f"/>
          <path id="Trazado_101015" data-name="Trazado 101015" d="M490.614,4350.934c10.1,20.994,13.892,48.823,14.351,52.434.032.258.048.4.048.4l-6.146-52.182-.029-.244S495.892,4354.581,490.614,4350.934Z" transform="translate(-436.741 -4195.182)" fill="#f4c0b5"/>
          <path id="Trazado_101016" data-name="Trazado 101016" d="M484.6,4277.036c.284.362.541.762.847,1.191a3.149,3.149,0,0,0-.219-1.545,3.47,3.47,0,0,0-.926-1.31,3.044,3.044,0,0,0-3-.669,10.965,10.965,0,0,1,1.317.6,6.054,6.054,0,0,1,1.077.76A7.106,7.106,0,0,1,484.6,4277.036Z" transform="translate(-444.181 -4256.199)" fill="#efb9a8"/>
          <path id="Trazado_101017" data-name="Trazado 101017" d="M485.056,4314.751a.179.179,0,0,1,.032,0c-.025-.006-.047-.015-.074-.02l0,.022Z" transform="translate(-441.216 -4224.098)" fill="#c969b2"/>
          <path id="Trazado_101018" data-name="Trazado 101018" d="M484.756,4314.792l.462-.058A1.343,1.343,0,0,0,484.756,4314.792Z" transform="translate(-441.42 -4224.101)" fill="#c969b2"/>
          <path id="Trazado_101019" data-name="Trazado 101019" d="M493.875,4315.386a4.488,4.488,0,0,1-1.846,1.689s-4.468,1.023-5.621,2.235a40.594,40.594,0,0,1-4.742,3.567,7.614,7.614,0,0,1-7.143,1.208c.216.611,1.766,4.058,8.2-.09,7.026-4.529,8.933-5.709,10.669-6.149a1.618,1.618,0,0,0,.326-3.067A.444.444,0,0,1,493.875,4315.386Z" transform="translate(-449.593 -4224.063)" fill="#c969b2"/>
          <path id="Trazado_101020" data-name="Trazado 101020" d="M485.614,4315.042c-.439.06-.867.137-1.3.214s-.86.18-1.288.3-.84.272-1.248.429a6.243,6.243,0,0,0-1.2.57,13,13,0,0,0-1.068.771c.4-.172.793-.376,1.187-.544a8.347,8.347,0,0,1,1.212-.41,23.468,23.468,0,0,1,2.508-.6c.853-.173,1.694-.313,2.556-.455l.142-.024a.987.987,0,0,0,1.162.551,1.366,1.366,0,0,0,1.124-1.042l.133-.036-.126,0,0-.017,0-.022-.462.059-.032,0-.327.016c-.556.027-1.112.056-1.669.1C486.484,4314.94,486.051,4314.989,485.614,4315.042Z" transform="translate(-445.613 -4224.098)" fill="#e0a696"/>
          <path id="Trazado_101021" data-name="Trazado 101021" d="M481.7,4314.846a8.229,8.229,0,0,0-1.313.551,7.593,7.593,0,0,0-1.122.87c.416-.22.817-.47,1.236-.641a11.877,11.877,0,0,1,1.32-.394c.23-.063.446-.117.669-.167s.45-.1.676-.138c.455-.084.912-.171,1.371-.247l2.75-.49.063-.013a.987.987,0,0,0,1.169.568,1.371,1.371,0,0,0,1.113-.991l.4-.075.009,0c-.13-.007-.261-.007-.39-.011l.005-.029-.209.025c-.743,0-1.482.056-2.218.125-.394.036-.786.084-1.176.134q-.807.107-1.608.246A16.31,16.31,0,0,0,481.7,4314.846Z" transform="translate(-445.803 -4224.974)" fill="#e0a696"/>
          <path id="Trazado_101022" data-name="Trazado 101022" d="M483.629,4346.606l.005,0h0a8.963,8.963,0,0,0,.946.494,8.821,8.821,0,0,0,.853.333c.052.02.1.039.158.055a7.614,7.614,0,0,0,7.143-1.208,40.542,40.542,0,0,0,4.742-3.567c1.153-1.212,5.621-2.235,5.621-2.235a4.481,4.481,0,0,0,1.846-1.688.444.444,0,0,0-.158-.609.433.433,0,0,0-.252-.062.12.12,0,0,0-.032,0l-.045,0,0,.016.126-.006c-.043.013-.088.024-.133.036a1.365,1.365,0,0,1-1.124,1.042.987.987,0,0,1-1.162-.551l-.142.024c-.862.141-1.7.281-2.556.455a23.01,23.01,0,0,0-2.508.6,8.466,8.466,0,0,0-1.212.409c-.394.169-.784.373-1.187.545a13.007,13.007,0,0,1,1.069-.771,6.185,6.185,0,0,1,1.2-.571c.408-.157.82-.3,1.248-.428s.858-.213,1.288-.3.86-.154,1.3-.214.871-.1,1.306-.131c.558-.045,1.113-.074,1.669-.1a3.407,3.407,0,0,0,1.59-1.334.445.445,0,0,0-.331-.669l-.4.074a1.371,1.371,0,0,1-1.113.992.988.988,0,0,1-1.169-.568l-.063.013-2.75.491c-.459.075-.916.162-1.371.246-.227.042-.453.087-.676.138s-.439.1-.669.167a11.78,11.78,0,0,0-1.32.394c-.419.171-.82.421-1.236.641a7.423,7.423,0,0,1,1.122-.869,8.282,8.282,0,0,1,1.313-.553,16.354,16.354,0,0,1,2.747-.678q.8-.138,1.608-.247a3.213,3.213,0,0,0,1.038-1.04.449.449,0,0,0-.433-.673,1.365,1.365,0,0,1-1.137,1.1,1.043,1.043,0,0,1-1.259-.808l-3.238.4c-.169.021-4.243,1.819-4.4,1.9l-1.6.912-1.238.709-.1.053a3.848,3.848,0,0,1,.378-2.487,4.434,4.434,0,0,0,.072-3.645.561.561,0,0,0-1.038-.009,18.346,18.346,0,0,1-2.281,4.359,4.12,4.12,0,0,0-1.22,2.062c-.518-1.015-1.191-2.273-1.955-3.671-1.628-2.98-3.671-6.594-5.524-9.838,3.384,6.046,7.209,13.016,7.479,13.512l0,.008c-.554-.6-14.12-15.325-19.173-22.688,4.936,2.085,6.684.48,6.684.48h0c2.362-1.389,6.154-3.972,9.771-6.512,1.747-1.227,3.452-2.443,4.936-3.507.964-.694,1.835-1.322,2.561-1.85h0a4.1,4.1,0,0,1,5.339.118,12.886,12.886,0,0,1,1.063-4.4c-.272-1.026-.538-2.054-.824-3.074-.273-1.053-.567-2.1-.863-3.146-.281-1.052-.6-2.09-.908-3.131s-.644-2.075-1.029-3.088c-.144-.384-.291-.768-.455-1.141-.579,0-1.158,0-1.738,0,.552-.063,1.106-.118,1.659-.175a8.268,8.268,0,0,0-.822-1.449c-.374-.066-.718-.141-1.027-.216a8.3,8.3,0,0,0-3.792,1.417c-8.247,5.067-20.652,22.2-24.264,27.7-.144.2-.282.412-.419.646-3.524,6.1,12.016,24.2,21.186,30.54.383.267.755.509,1.115.732Zm12.124-8.143c.084-.047.171-.089.261-.132Z" transform="translate(-460.664 -4247.472)" fill="#fad4c8"/>
          <path id="Trazado_101023" data-name="Trazado 101023" d="M483.308,4313.948a1.366,1.366,0,0,0,1.137-1.1l0-.011-2.4.293,0,.009A1.044,1.044,0,0,0,483.308,4313.948Z" transform="translate(-443.584 -4225.613)" fill="#e0a696"/>
          <path id="Trazado_101024" data-name="Trazado 101024" d="M493.757,4273.675c-.07,0-.182-.005-.27-.007a1.926,1.926,0,0,0-1.088.34,1.274,1.274,0,0,0-.577.939,2.609,2.609,0,0,1,.788-.379.679.679,0,0,0-.014.136.648.648,0,1,0,1.3,0,.666.666,0,0,0-.059-.268c.054,0,.11,0,.164-.009s.122-.015.183-.024a2.1,2.1,0,0,0,.354-.081,1.683,1.683,0,0,0,.505-.254.755.755,0,0,0,.318-.467,1.064,1.064,0,0,1-.466.117,4.357,4.357,0,0,1-.452,0c-.092,0-.183-.01-.275-.018-.059,0-.119-.006-.178-.012Z" transform="translate(-435.776 -4256.954)" fill="#4b3c4f"/>
          <path id="Trazado_101025" data-name="Trazado 101025" d="M490.656,4273.97a2.312,2.312,0,0,0-1.354-.2c-.1.018-.236.04-.318.058l-.268.064c-.178.042-.354.084-.531.119a5.013,5.013,0,0,1-.536.083,1.338,1.338,0,0,1-.576-.05.9.9,0,0,0,.466.493,2,2,0,0,0,.648.2,2.84,2.84,0,0,0,.655.024c.11,0,.212-.025.32-.036l.27-.04.047-.005a.717.717,0,1,0,1.408.188.682.682,0,0,0-.014-.135,3.191,3.191,0,0,1,.646.235A1.535,1.535,0,0,0,490.656,4273.97Z" transform="translate(-439.569 -4256.837)" fill="#4b3c4f"/>
          <path id="Trazado_101026" data-name="Trazado 101026" d="M497.652,4307l0-1.054h0c-.4.2-1.328.624-2.646,1.136.257.2.489.4.7.594,1.621-.547,1.9-.651,1.943-.671C497.658,4307,497.652,4307,497.652,4307Z" transform="translate(-433.231 -4231.114)" fill="#f4c0b5"/>
          <path id="Trazado_101027" data-name="Trazado 101027" d="M487.048,4306.558l-.5.03c.173.006.344.011.518.015Z" transform="translate(-439.988 -4230.628)" fill="#f4c0b5"/>
          <path id="Trazado_101028" data-name="Trazado 101028" d="M486.1,4308.666a25.952,25.952,0,0,1-5.136-1.376l.083.49.077.036c.205,1.04.435,2.123.7,3.265l0,.014c-.113-.7-.25-1.414-.4-2.128q-.124-.566-.263-1.137l.027.014a29.537,29.537,0,0,0,9.892,2.262c-.263-.324-.54-.687-.822-1.063A30.366,30.366,0,0,1,486.1,4308.666Z" transform="translate(-444.45 -4230.044)" fill="#f4c0b5"/>
          <path id="Trazado_101029" data-name="Trazado 101029" d="M488.146,4306.585h.142l-.049-.111-.149.008Z" transform="translate(-438.757 -4230.696)" fill="#f4c0b5"/>
          <path id="Trazado_101030" data-name="Trazado 101030" d="M484.681,4306.322s.135.206.36.544c.824.072,1.689.124,2.583.157C485.874,4305.25,484.681,4306.322,484.681,4306.322Z" transform="translate(-441.48 -4231.074)" fill="#d08d83"/>
          <path id="Trazado_101031" data-name="Trazado 101031" d="M486.127,4308.266c.282.377.559.741.822,1.065.128.156.252.305.369.441.162-.542.34-1.045.531-1.514Q487,4308.283,486.127,4308.266Z" transform="translate(-440.325 -4229.271)" fill="#d08d83"/>
          <path id="Trazado_101032" data-name="Trazado 101032" d="M489.4,4307.269c-1.43-2.657-3.02-1.745-3.02-1.745s.331.86.8,1.981l.018.045q1.066.016,2.177-.024l.049-.062h.086l-.056-.1Z" transform="translate(-440.119 -4231.575)" fill="#d08d83"/>
          <path id="Trazado_101033" data-name="Trazado 101033" d="M491.32,4315.76c.209,9.013-2.245,12-4.409,14.626a10.862,10.862,0,0,0-2.32,3.795,11.671,11.671,0,0,0,.421,7.4c.043.118.086.234.131.345a3.1,3.1,0,0,0,.55-.015c-2.076-10.253,4.141-12.889,6.465-16.865s.412-14.115.412-14.115h-.014l-.952-.043A27.4,27.4,0,0,0,491.32,4315.76Z" transform="translate(-441.895 -4227.172)" fill="#c969b2"/>
          <path id="Trazado_101034" data-name="Trazado 101034" d="M489.6,4308.386a10.05,10.05,0,0,0-.775,1.514l.029.005c2.642.389,6.411.921,7.483-.337a.718.718,0,0,0,.162-.333,8.163,8.163,0,0,0-3.083-1.542C492.218,4307.966,490.939,4308.205,489.6,4308.386Z" transform="translate(-438.168 -4229.723)" fill="#c17d76"/>
          <path id="Trazado_101035" data-name="Trazado 101035" d="M486.768,4309.98a6.155,6.155,0,0,1-.169-3.055,49.743,49.743,0,0,1-5.386-.992l-.293-.074c-.516-.131-.8-.217-.8-.217l.914,2.726c.2.083.4.161.6.236A25.983,25.983,0,0,0,486.768,4309.98Z" transform="translate(-445.121 -4231.358)" fill="#fff"/>
          <path id="Trazado_101036" data-name="Trazado 101036" d="M489.376,4306.765c-.174,0-.345-.01-.518-.015l-.416-.01c-.894-.033-1.759-.084-2.583-.158-.727-.064-1.423-.141-2.083-.226a6.153,6.153,0,0,0,.169,3.055,30.058,30.058,0,0,0,4.155.374q.869.019,1.721-.008a12.544,12.544,0,0,1,1.73-3.036C490.813,4306.767,490.086,4306.776,489.376,4306.765Z" transform="translate(-442.298 -4230.79)" fill="#e7dcea"/>
          <path id="Trazado_101037" data-name="Trazado 101037" d="M488.988,4306.528c-.079,0-.158.01-.239.013h.234Z" transform="translate(-438.23 -4230.652)" fill="#e7dcea"/>
          <path id="Trazado_101038" data-name="Trazado 101038" d="M499.129,4307.3c.153-.074.234-.117.234-.117l-.3-2.922h0a25.316,25.316,0,0,1-5.9,2.675,6.842,6.842,0,0,1,3.321,1.5C497.8,4307.922,498.724,4307.5,499.129,4307.3Z" transform="translate(-434.705 -4232.464)" fill="#fff"/>
          <path id="Trazado_101039" data-name="Trazado 101039" d="M506.912,4322.987l-3.274-10.687-.045.067c-.047-.2-.094-.4-.142-.583a5.238,5.238,0,0,0-1.193-2.676c-.166-.181-.378-.4-.631-.636-.207-.192-.439-.394-.7-.593a6.846,6.846,0,0,0-3.321-1.5,4.445,4.445,0,0,0-1.716.129,9.027,9.027,0,0,1-2.793.326h0s.473.338-.351,1.648c-2.543-.4-2.045-2.076-2.045-2.076a.461.461,0,0,0-.345.018c-1.356-2.123-2.767-1.315-2.767-1.315s.455,1.177,1.043,2.576l.049.112h.987c.081,0,.16-.008.239-.014.11-.007.221-.017.331-.025.281.738,1.013,1.521,2.788,1.813a12.516,12.516,0,0,1,1.372.306,8.161,8.161,0,0,1,3.083,1.542.715.715,0,0,1-.162.333c-1.072,1.259-4.84.726-7.483.337l-.029-.005a13.5,13.5,0,0,0-.549,1.632c2.3.416,5.668.944,6.816,1.123l.4.063c1.461.634,1.412,5.938,1.412,5.938.725,9.594,1.461,24.648,7.931,29.963l.059.062a3.7,3.7,0,0,0,1.117.763c1.027.016,2.1-.021,3.218-.1a77.653,77.653,0,0,0,18.531-4.061l.014,0c4.644-1.6,8.5-3.4,10.377-4.907a14.7,14.7,0,0,0,4.231-5.326,9.285,9.285,0,0,0,.536-1.583h0a6.267,6.267,0,0,0-.317-4.082,5.8,5.8,0,0,0-6.42-3.256c-.175.034-.349.076-.522.125-8.571,2.511-19.051,6.671-25.242,9.233h0c-2.058,1.422-3.8,5.122-3.8,8.027-5.128-10.174-2.662-29.118-2.662-29.118l3.849,12.57-.3-.994Z" transform="translate(-439.154 -4231.908)" fill="#d08d83"/>
          <path id="Trazado_101040" data-name="Trazado 101040" d="M486.58,4329.441c-.045-.111-.088-.227-.131-.345a6.8,6.8,0,0,1-4.087-2.585,17.973,17.973,0,0,0,1.432,4.976l2.891-1.785C486.65,4329.618,486.614,4329.53,486.58,4329.441Z" transform="translate(-443.332 -4214.689)" fill="#e7dcea"/>
          <path id="Trazado_101041" data-name="Trazado 101041" d="M486.5,4345.071a11.671,11.671,0,0,1-.421-7.4,10.867,10.867,0,0,1,2.32-3.8c2.164-2.63,4.617-5.614,4.409-14.625a27.411,27.411,0,0,1,.284-4.875,17.9,17.9,0,0,1,.4-1.9,13.512,13.512,0,0,1,.549-1.632,10.088,10.088,0,0,1,.775-1.514c1.337-.181,2.615-.419,3.815-.693a12.4,12.4,0,0,0-1.372-.306c-1.775-.292-2.508-1.075-2.788-1.813-.11.008-.221.019-.331.025l-.005.014h-1.45l-.049.063a12.509,12.509,0,0,0-1.73,3.036q-.286.7-.531,1.513a21.454,21.454,0,0,0-.651,3.028,31.155,31.155,0,0,0-.273,5.136c.18,7.766-1.765,10.129-3.646,12.415a13.926,13.926,0,0,0-2.93,4.918,13.515,13.515,0,0,0-.462,5.824A6.8,6.8,0,0,0,486.5,4345.071Z" transform="translate(-443.388 -4230.665)" fill="#fff"/>
          <path id="Trazado_101042" data-name="Trazado 101042" d="M530.751,4399.92h0c1.07.072,2.148.17,3.225.291a3.142,3.142,0,0,0-.741-3.241h0c-17.414-2.223-20.6,16.938-20.526,16.4,2.615-19.95,12.538-17.987,20.526-16.4,2.59-3.159,6.9-8.648,11.485-15.453,1.023-1.52,2.06-3.1,3.094-4.744.232-.37.452-.742.662-1.112a27.442,27.442,0,0,0,3.459-11.6c-.313-2.271-1.544-9.822-4.328-12.138a2.135,2.135,0,0,1-.13.231,2,2,0,0,1-1.275.859h0l-2.143.43a1.946,1.946,0,0,1-.4.042,1.992,1.992,0,0,1-1.11-.337,2.025,2.025,0,0,1-.611-.643c-1.16.153-2.36.266-3.587.321a29.762,29.762,0,0,1-11.419-1.525,121.294,121.294,0,0,1-4.657,14.751q-.739,1.95-1.531,3.884t-1.61,3.851c-1.112,2.558-2.31,5.07-3.506,7.576s-2.4,5-3.522,7.525c-.563,1.262-1.1,2.533-1.6,3.818-.255.64-.489,1.288-.734,1.934l-.727,1.955c-.482,1.3-.932,2.6-1.281,3.917a15.58,15.58,0,0,0-.561,4.032,9.687,9.687,0,0,0,.824,3.961,10.438,10.438,0,0,0,1.031,1.777,13.03,13.03,0,0,0,1.363,1.564,13.133,13.133,0,0,1-1.495-1.46,10.3,10.3,0,0,1-1.176-1.747,9.825,9.825,0,0,1-1.094-4.08,15.756,15.756,0,0,1,.392-4.219,37.227,37.227,0,0,1,1.166-4.039l.664-1.973c.223-.663.444-1.328.692-1.98.48-1.314,1-2.608,1.543-3.892,1.085-2.573,2.288-5.084,3.475-7.6s2.414-4.995,3.538-7.522c1.144-2.522,2.225-5.075,3.3-7.627,1.973-4.746,3.8-9.551,5.409-14.446a21.21,21.21,0,0,1-4.851-2.5q-.89,1.739-1.748,3.487-1.441,2.94-2.788,5.895c-1.232,2.7-2.4,5.389-3.51,8.051q-1.031,2.475-1.984,4.91c-2,5.088-3.736,9.983-5.186,14.48-3.421,10.613-5.233,19-5.028,22.421.326,5.463,4.688,9.183,9.242,10.935a2.955,2.955,0,0,0,3.833-1.725,2.916,2.916,0,0,0,.183-.812C515.949,4404.57,530.751,4399.92,530.751,4399.92Z" transform="translate(-427.861 -4196.918)" fill="#d67fbe"/>
          <path id="Trazado_101043" data-name="Trazado 101043" d="M525.819,4348.505a2,2,0,0,1,.113-1.166,39.866,39.866,0,0,1-5.493-.158,14.7,14.7,0,0,0,2.971,6.9c1.227-.056,2.427-.168,3.587-.32a1.987,1.987,0,0,1-.246-.633Z" transform="translate(-412.917 -4198.178)" fill="#594972"/>
          <path id="Trazado_101044" data-name="Trazado 101044" d="M536.652,4363.14a17.087,17.087,0,0,0-4.61-11.8,20.918,20.918,0,0,0-5.234-4.122l.007.031.932,4.619a1.992,1.992,0,0,1-.167,1.277c2.784,2.316,4.015,9.867,4.328,12.138.056.412.083.653.083.653Z" transform="translate(-407.83 -4198.149)" fill="#594972"/>
          <path id="Trazado_101045" data-name="Trazado 101045" d="M527.731,4347.637a.741.741,0,0,0-.318-.473.794.794,0,0,0-.291-.116c-.288.046-.576.087-.862.123l-1.55.313a.751.751,0,0,0-.585.881l.932,4.618a.748.748,0,0,0,.88.583l2.142-.43h0a.751.751,0,0,0,.585-.881Z" transform="translate(-409.985 -4198.286)" fill="#594972"/>
          <path id="Trazado_101046" data-name="Trazado 101046" d="M527.162,4346.926l-2.142.432a2.01,2.01,0,0,0-1.572,2.367l.932,4.619a1.978,1.978,0,0,0,.246.634,2.016,2.016,0,0,0,1.721.98,1.98,1.98,0,0,0,.4-.042l2.142-.431h0a2,2,0,0,0,1.275-.858,2.064,2.064,0,0,0,.13-.231,1.993,1.993,0,0,0,.167-1.277l-.932-4.619-.007-.031a20.94,20.94,0,0,1,5.234,4.122c1.626-.552,2.594-.973,2.625-.988-.013,0-.077,0-.205-.422a41.467,41.467,0,0,1-.937-5.524c-.058.025-.115.047-.171.073a33.262,33.262,0,0,1-6.781,2.144A2.015,2.015,0,0,0,527.162,4346.926Zm2.061,6.441a.75.75,0,0,1-.585.88h0l-2.142.432a.75.75,0,0,1-.88-.584l-.932-4.618a.75.75,0,0,1,.585-.881l1.55-.313.592-.119a.824.824,0,0,1,.148-.014.967.967,0,0,1,.122.01.784.784,0,0,1,.291.115.739.739,0,0,1,.318.473Z" transform="translate(-410.546 -4199.398)" fill="#4c3e60"/>
          <path id="Trazado_101047" data-name="Trazado 101047" d="M491.386,4307.839c.824-1.31.351-1.648.351-1.648h0l-2.4-.428S488.842,4307.438,491.386,4307.839Z" transform="translate(-437.789 -4231.264)" fill="#b26b5e"/>
          <path id="Trazado_101048" data-name="Trazado 101048" d="M527.581,4316.237c1.684-.835,1.973-4.368,1.973-4.368s2.714-1.7,2.326-3.973-2.18-2.772-3.876-1.9-5.233-4.163-5.233-4.163.752,4.779,3.026,6.889c1.216-1.209,3.27-2.973,4.375-2.326,1.552.906,1.092,4.407-2.641,6.429A11.723,11.723,0,0,1,527.581,4316.237Z" transform="translate(-411.054 -4234.398)" fill="#714d89"/>
          <path id="Trazado_101049" data-name="Trazado 101049" d="M524.728,4307.2a3.754,3.754,0,0,0-.448,1.51c.424-.336.781-.674,1.13-1.009s.671-.664,1.007-.971a12.442,12.442,0,0,1,1.025-.867,7.555,7.555,0,0,1,1.25-.72,2.331,2.331,0,0,0-1.621-.045,3.8,3.8,0,0,0-1.392.845A4.658,4.658,0,0,0,524.728,4307.2Z" transform="translate(-409.849 -4231.89)" fill="#c17d76"/>
          <path id="Trazado_101050" data-name="Trazado 101050" d="M516.28,4363.62l6.175,1.97h.011c0-.017-.174-4.2-.935-17.692-.6-10.706,2.317-21.126,3.56-25a14.713,14.713,0,0,1-4.231,5.326c-1.876,1.5-5.733,3.306-10.377,4.908,0,.1,0,.2,0,.295a5.717,5.717,0,0,0,1.063,3.413,9.121,9.121,0,0,0,5.1,3.111h0a85.788,85.788,0,0,1-1.1,13.291h0a22.024,22.024,0,0,0-.248,6.2,14.636,14.636,0,0,0,.982,4.178Z" transform="translate(-420.873 -4217.578)" fill="#e7dcea"/>
          <path id="Trazado_101051" data-name="Trazado 101051" d="M518.9,4322.016v0Z" transform="translate(-414.146 -4218.281)" fill="#e7dcea"/>
          <path id="Trazado_101052" data-name="Trazado 101052" d="M497.5,4311.415s-2.466,18.944,2.662,29.119c0-2.907,1.741-6.606,3.8-8.028h0l-2.612-8.521Z" transform="translate(-431.71 -4226.749)" fill="#c17d76"/>
          <path id="Trazado_101053" data-name="Trazado 101053" d="M519.253,4364.6c-1.079,2.553-2.16,5.105-3.3,7.627-1.124,2.527-2.337,5.019-3.538,7.522s-2.391,5.021-3.475,7.595c-.541,1.284-1.063,2.579-1.543,3.891-.248.654-.469,1.318-.693,1.981l-.664,1.972a37.288,37.288,0,0,0-1.166,4.04,15.747,15.747,0,0,0-.392,4.219,9.823,9.823,0,0,0,1.094,4.078,10.279,10.279,0,0,0,1.176,1.747,13.147,13.147,0,0,0,1.495,1.461,13.078,13.078,0,0,1-1.363-1.565,10.433,10.433,0,0,1-1.031-1.777,9.687,9.687,0,0,1-.824-3.961,15.579,15.579,0,0,1,.561-4.031c.349-1.322.8-2.622,1.281-3.918l.727-1.955c.245-.646.479-1.294.734-1.934.5-1.285,1.041-2.556,1.6-3.818,1.122-2.525,2.311-5.026,3.522-7.525s2.394-5.019,3.506-7.576q.823-1.921,1.61-3.852c.531-1.286,1.038-2.583,1.531-3.883a121.317,121.317,0,0,0,4.657-14.752l-.1-.033C523.051,4355.044,521.227,4359.851,519.253,4364.6Z" transform="translate(-425.683 -4195.808)" fill="#b758a5"/>
          <path id="Trazado_101054" data-name="Trazado 101054" d="M507.835,4392.373c-.072.541,3.112-18.621,20.526-16.4h0C520.373,4374.385,510.451,4372.422,507.835,4392.373Z" transform="translate(-422.985 -4175.926)" fill="#c969b2"/>
          <path id="Trazado_101055" data-name="Trazado 101055" d="M527.075,4348.589a44.29,44.29,0,0,1-5.929-.99l-.011,0a39.979,39.979,0,0,1-6.175-1.97h0c-.3-.127-.466-.206-.466-.206l-2.364,4.813q.756.638,1.551,1.19a21.2,21.2,0,0,0,4.851,2.5l.1.034a29.792,29.792,0,0,0,11.419,1.525A14.7,14.7,0,0,1,527.075,4348.589Z" transform="translate(-419.553 -4199.584)" fill="#4c3e60"/>
          <path id="Trazado_101056" data-name="Trazado 101056" d="M483.731,4331.935l3.139-1.91-.461-1.306A6.22,6.22,0,0,0,483.731,4331.935Z" transform="translate(-442.239 -4212.927)" fill="#e7e2f2"/>
          <path id="Trazado_101057" data-name="Trazado 101057" d="M483.374,4330.193l-.486.3,1.383,1.993.133-.083a6.225,6.225,0,0,1,2.678-3.215l-.372-1.057-.446.275Z" transform="translate(-442.912 -4213.396)" fill="#fff"/>
        </g>
        <g id="Grupo_53784" data-name="Grupo 53784" transform="translate(158.98)">
          <path id="Trazado_101058" data-name="Trazado 101058" d="M563.147,4385.776v23.344h5.837v-84.131a19.051,19.051,0,0,0-5.837-3.514Z" transform="translate(-537.782 -4210.513)" fill="#fff"/>
          <path id="Trazado_101059" data-name="Trazado 101059" d="M564.8,4309.182l-1.651,7.8v14.314a19.036,19.036,0,0,1,5.837,3.516v-17.261l-1.356-8.169A6.727,6.727,0,0,1,564.8,4309.182Z" transform="translate(-537.782 -4220.332)" fill="#e7dcea"/>
          <path id="Trazado_101060" data-name="Trazado 101060" d="M550.524,4316.913h0q.008.4.016.8a5.787,5.787,0,0,0,4.193,5.461,36.44,36.44,0,0,0,12.581,1.193,5.787,5.787,0,0,0,5.053-3.924,32.453,32.453,0,0,1-5.312-10.76A48.333,48.333,0,0,1,550.524,4316.913Z" transform="translate(-547.866 -4219.93)" fill="#64496d"/>
          <path id="Trazado_101061" data-name="Trazado 101061" d="M556.6,4309.919a2.293,2.293,0,0,1-.531-.6.98.98,0,0,1-.135-.457.663.663,0,0,1,.2-.458.934.934,0,0,1,.407-.234.29.29,0,0,1,.279.081.428.428,0,0,1,.1.23,2.041,2.041,0,0,1-.108.827,2.632,2.632,0,0,0-.047-.794.247.247,0,0,0-.074-.132c-.029-.022-.052-.022-.1-.008a.759.759,0,0,0-.273.2.422.422,0,0,0-.1.28.71.71,0,0,0,.117.312,2.232,2.232,0,0,0,.511.551l.056.042.005.064c.052.473.1.947.133,1.422a30.066,30.066,0,0,0,4.27-.354c-.031-.173-.063-.348-.09-.52-.081-.492-.146-.982-.207-1.474a2.32,2.32,0,0,1-.531-.6,1.021,1.021,0,0,1-.135-.456.67.67,0,0,1,.2-.458.912.912,0,0,1,.406-.234.294.294,0,0,1,.279.081.433.433,0,0,1,.1.231,2.015,2.015,0,0,1-.11.828,2.573,2.573,0,0,0-.045-.794.263.263,0,0,0-.074-.134c-.029-.02-.052-.02-.1-.006a.778.778,0,0,0-.273.2.432.432,0,0,0-.1.281.724.724,0,0,0,.115.311,2.241,2.241,0,0,0,.513.551l.054.043.007.063c.056.514.108,1.027.142,1.543.012.175.02.347.029.521a53.94,53.94,0,0,0,8.568-2.153c.014-.181.027-.361.043-.542.045-.492.106-.985.171-1.476a2.29,2.29,0,0,1-.362-.717.985.985,0,0,1-.016-.476.647.647,0,0,1,.3-.393.913.913,0,0,1,.453-.125.291.291,0,0,1,.25.148.444.444,0,0,1,.038.248,2.044,2.044,0,0,1-.313.773,2.6,2.6,0,0,0,.155-.779.282.282,0,0,0-.038-.149.1.1,0,0,0-.1-.03.769.769,0,0,0-.315.126.424.424,0,0,0-.167.246.734.734,0,0,0,.034.33,2.186,2.186,0,0,0,.358.66l.041.058-.009.063c-.074.511-.153,1.022-.25,1.53-.027.147-.058.295-.088.443a100.1,100.1,0,0,0,11.559-4.786c-.042-.473-.086-.949-.133-1.435a36.718,36.718,0,0,1-.216-7.333,15.444,15.444,0,0,1,.739-3.431,22.052,22.052,0,0,1,1.241-2.805,43.48,43.48,0,0,0-15.64-7.214,8.171,8.171,0,0,0,.162,3.017,7.143,7.143,0,0,0,2.069,3.227l.164-.221,1.313,1.024-2.378,2.843-1.144-.909.212-.284a10.2,10.2,0,0,1-3.175-4.871,11.427,11.427,0,0,1-.218-4.479l-.121.011h0a22.487,22.487,0,0,1-8.607-.8s-.047-.027-.13-.083c1.074,3.818,3.182,12.052,3.06,17.562-.09,4.157-3.254,8.274-6.062,13.181a18.562,18.562,0,0,0,3.84.386C556.715,4310.8,556.656,4310.358,556.6,4309.919Z" transform="translate(-545.933 -4243.553)" fill="#64496d"/>
          <path id="Trazado_101062" data-name="Trazado 101062" d="M571.889,4286.075a16.131,16.131,0,0,0-.775,1.813,13.452,13.452,0,0,0-.674,3.962,42.923,42.923,0,0,0,.3,5.517l.027.264c3.2-1.652,5.224-2.873,5.224-2.873l.007.014a9.566,9.566,0,0,1-.239-1.862c-.016-.753.009-1.562.068-2.4A22.617,22.617,0,0,0,571.889,4286.075Z" transform="translate(-531.967 -4238.789)" fill="#64496d"/>
          <path id="Trazado_101063" data-name="Trazado 101063" d="M582.2,4302.4c-6.747,0-11.187-.266-18.687,9.39-.441.569-.91,1.114-1.4,1.637a15.476,15.476,0,0,0,3.517,2.856l-2.5,11.636a5.915,5.915,0,0,0,.171-.617l.682-3.223,1.652-7.8a6.751,6.751,0,0,0,2.829.2l1.356,8.17.4,2.4a5.792,5.792,0,0,0,5.3,4.821,38.473,38.473,0,0,0,13-1.193,5.789,5.789,0,0,0,4.213-5.468c.115-6.319.419-12.175.03-17.152,0-.042,0-.086,0-.128a22.33,22.33,0,0,0-.957-5.774,18.407,18.407,0,0,0-.622-1.865C590.263,4301.457,588.3,4302.4,582.2,4302.4Z" transform="translate(-538.611 -4227.433)" fill="#64496d"/>
          <path id="Trazado_101064" data-name="Trazado 101064" d="M561.435,4270.194c-.054-.454-.1-.907-.119-1.364a9.392,9.392,0,0,1,.691-4.4l-1.077.062a21.163,21.163,0,0,0-5.7,1.055,4.431,4.431,0,0,0-1.624,1h0c-1.07.66-3.038,5.7-4.254,9.062a3.41,3.41,0,0,0,1.867,4.4,16.024,16.024,0,0,0,1.579.438h0S556.4,4273.292,561.435,4270.194Z" transform="translate(-548.977 -4256.073)" fill="#64496d"/>
          <path id="Trazado_101065" data-name="Trazado 101065" d="M554.02,4272.835l-.031-.058c-.236.855-.365,1.4-.365,1.4h0a2.677,2.677,0,0,1,1.079-.116c-.041-.218-.081-.437-.12-.656A2.324,2.324,0,0,1,554.02,4272.835Z" transform="translate(-545.389 -4249.411)" fill="#64496d"/>
          <path id="Trazado_101066" data-name="Trazado 101066" d="M585.123,4280.042a3.409,3.409,0,0,0,1.865-4.4c-1.216-3.361-3.182-8.4-4.252-9.062h0a4.448,4.448,0,0,0-1.624-1,21.184,21.184,0,0,0-5.7-1.054q-1.306-.078-2.534-.131a15.96,15.96,0,0,1,.845,7.167,22.49,22.49,0,0,1-.908,3.634,22.228,22.228,0,0,0-.754,2.844,12.218,12.218,0,0,0-.155,2.406c.014.5.054,1,.111,1.509a23.9,23.9,0,0,1,3.711-.944l.005-.032c.063-.493.142-.982.225-1.47a2.326,2.326,0,0,1-.335-.73.994.994,0,0,1,0-.477.666.666,0,0,1,.32-.381.936.936,0,0,1,.457-.107.3.3,0,0,1,.243.158.421.421,0,0,1,.029.248,2.042,2.042,0,0,1-.342.763,2.623,2.623,0,0,0,.183-.773.264.264,0,0,0-.032-.149c-.021-.029-.043-.035-.094-.035a.737.737,0,0,0-.318.113.431.431,0,0,0-.178.24.729.729,0,0,0,.023.332,2.176,2.176,0,0,0,.333.672l.039.058-.013.062c-.09.491-.185.981-.295,1.468a9.187,9.187,0,0,1,3.594-.1l.007.012A16.811,16.811,0,0,0,585.123,4280.042Z" transform="translate(-530.794 -4256.105)" fill="#64496d"/>
          <path id="Trazado_101067" data-name="Trazado 101067" d="M563.783,4266.108h0a4.283,4.283,0,0,1-3.455,1.859c-.362.007-.734.016-1.112.025a3.965,3.965,0,0,0-1.038,1.127,5.843,5.843,0,0,0-.57,3.28,15.957,15.957,0,0,0,1.889,6.8c.09.168.182.333.279.5.5.854,1.085,1.675,1.7,2.545,1.443,2.027,2.934,4.124,3.4,6.756.007.044.012.088.02.133a31.685,31.685,0,0,1,4.661,3.952l-.005,0c.117,0,.234,0,.349,0a14.743,14.743,0,0,1,2.347.369c-.119-.121-.238-.244-.353-.369a32.09,32.09,0,0,1,3.547-3.146c-.065-.153-.131-.306-.2-.458-.191-.459-.365-.921-.536-1.388a2.3,2.3,0,0,1-.655-.463.991.991,0,0,1-.235-.414.661.661,0,0,1,.086-.491.925.925,0,0,1,.344-.321.3.3,0,0,1,.29.014.435.435,0,0,1,.147.2,2.065,2.065,0,0,1,.084.831,2.618,2.618,0,0,0-.227-.761.261.261,0,0,0-.1-.114c-.032-.015-.056-.009-.1.017a.748.748,0,0,0-.219.257.434.434,0,0,0-.034.3.728.728,0,0,0,.185.274,2.179,2.179,0,0,0,.622.418l.065.029.021.062c.171.486.338.976.491,1.47.043.14.083.282.124.422a29.931,29.931,0,0,1,2.873-1.911c-.076-.3-.146-.589-.211-.888-.108-.483-.2-.971-.286-1.458a2.356,2.356,0,0,1-.563-.573,1.015,1.015,0,0,1-.16-.449.657.657,0,0,1,.173-.467.912.912,0,0,1,.394-.256.29.29,0,0,1,.282.065.454.454,0,0,1,.112.224,2.019,2.019,0,0,1-.065.834,2.576,2.576,0,0,0-.088-.792.275.275,0,0,0-.081-.128.1.1,0,0,0-.1,0,.754.754,0,0,0-.261.213.434.434,0,0,0-.086.287.757.757,0,0,0,.133.3,2.213,2.213,0,0,0,.542.522l.058.04.011.065c.083.508.162,1.02.225,1.53.036.285.067.572.092.859l.05-.03h0a18.211,18.211,0,0,1,1.847-1.193,19.588,19.588,0,0,1-.185-3.9,14.4,14.4,0,0,1,.173-1.5,24.792,24.792,0,0,1,.849-3.239,19.879,19.879,0,0,0,.8-3.143,13.1,13.1,0,0,0-.77-5.959c-.108-.312-.23-.642-.374-.959a4.309,4.309,0,0,1-2.981-2.161h0a3.486,3.486,0,0,1-.6-2.87l.058-.245h.012v-.739a2.117,2.117,0,0,0-2.112-2.112h-8.71a2.118,2.118,0,0,0-2.112,2.112v.859S564.886,4265,563.783,4266.108Z" transform="translate(-542.221 -4259.787)" fill="#64496d"/>
          <path id="Trazado_101068" data-name="Trazado 101068" d="M562.469,4279.838c.423.17.853.362,1.29.568a31.9,31.9,0,0,0-1.828-2.765c-.63-.885-1.281-1.8-1.849-2.771q-.318-.543-.6-1.108a19.048,19.048,0,0,1-1.835-6c-1.567,1.823-2.851,5.5-3.583,7.966a.612.612,0,0,1,.133-.055.288.288,0,0,1,.282.063.446.446,0,0,1,.112.226,2.01,2.01,0,0,1-.065.832,2.559,2.559,0,0,0-.088-.789.262.262,0,0,0-.081-.13c-.029-.02-.054-.02-.1,0a.734.734,0,0,0-.261.215.434.434,0,0,0-.086.284.748.748,0,0,0,.133.3,2.209,2.209,0,0,0,.541.522l.057.041.011.064c.041.257.083.515.121.771a19.709,19.709,0,0,1,3.961.56c.077-.427.164-.852.255-1.274a2.341,2.341,0,0,1-.3-.744,1.026,1.026,0,0,1,.022-.477.671.671,0,0,1,.336-.368.927.927,0,0,1,.462-.086.3.3,0,0,1,.237.167.434.434,0,0,1,.016.25,2.007,2.007,0,0,1-.374.747,2.632,2.632,0,0,0,.218-.763.266.266,0,0,0-.027-.152c-.02-.028-.041-.038-.092-.038a.746.746,0,0,0-.324.1.427.427,0,0,0-.187.231.767.767,0,0,0,.007.331,2.22,2.22,0,0,0,.3.687l.038.061-.014.063c-.1.444-.21.885-.327,1.327.38.093.773.2,1.18.327l0,0A14.958,14.958,0,0,1,562.469,4279.838Z" transform="translate(-545.161 -4253.418)" fill="#64496d"/>
          <path id="Trazado_101069" data-name="Trazado 101069" d="M574.224,4280.942c-.009.36-.027.719-.056,1.075a17.768,17.768,0,0,1-1.236,5.264c-.351.866-.768,1.682-1.173,2.475-.18.354-.353.7-.52,1.042a22.6,22.6,0,0,1,3.938,4.436h0s.808-5.929,2.972-15.067A21.863,21.863,0,0,1,574.224,4280.942Z" transform="translate(-531.318 -4243.509)" fill="#765284"/>
          <path id="Trazado_101070" data-name="Trazado 101070" d="M578.129,4287.621a14.5,14.5,0,0,0,.925-3.475c.072-.524.115-1.054.135-1.586a14.1,14.1,0,0,1-9.823-3.893,14.689,14.689,0,0,0-2.347-.37c-.115,0-.232,0-.349,0a12.509,12.509,0,0,1-5.276,3.412c-.077.467-.146.925-.193,1.375a43.472,43.472,0,0,1,15.64,7.214c.074-.148.149-.3.223-.441C577.456,4289.092,577.825,4288.368,578.129,4287.621Z" transform="translate(-539.337 -4245.001)" fill="#765284"/>
          <path id="Trazado_101071" data-name="Trazado 101071" d="M567.541,4310.45a15.464,15.464,0,0,1-3.517-2.856,29.191,29.191,0,0,1-4.31,3.761,32.472,32.472,0,0,0,5.312,10.76l0,0,.007-.033Z" transform="translate(-540.525 -4221.6)" fill="#765284"/>
          <path id="Trazado_101072" data-name="Trazado 101072" d="M555.95,4276.883a.93.93,0,0,1-.128-.393.67.67,0,0,1,.171-.468,1.264,1.264,0,0,1,.261-.2c.732-2.467,2.017-6.143,3.583-7.966-.009-.073-.02-.147-.029-.22-5.04,3.1-8.64,10.254-8.64,10.254h0a13.73,13.73,0,0,0,4.416.393h0S555.715,4277.736,555.95,4276.883Z" transform="translate(-547.35 -4253.517)" fill="#765284"/>
          <path id="Trazado_101073" data-name="Trazado 101073" d="M562.344,4373.1c.025.213-.083-.109-.045.1-2.033.619-2.191,2.584-2.106,4.577h25.251c0-2.877-2.195-4.674-5.071-4.674H562.344Z" transform="translate(-540.156 -4169.279)" fill="#fff"/>
          <path id="Trazado_101074" data-name="Trazado 101074" d="M567.418,4370.2h-.64a5.207,5.207,0,0,0-5.18,4.675h-1.578a5.207,5.207,0,0,0-5.207,5.208h9.665c-.085-1.993.074-3.958,2.106-4.578-.007-.032-.009-.065-.014-.1h17.417a5.207,5.207,0,0,0-5.207-5.21H567.418Z" transform="translate(-544.44 -4171.592)" fill="#e7dcea"/>
          <path id="Trazado_101075" data-name="Trazado 101075" d="M587.846,4293.775c.12,1.257.239,2.542.284,3.832h.211v2.033h-3.454v-2.033h.193c-.029-.779-.088-1.565-.16-2.368a100.181,100.181,0,0,1-11.559,4.785c-.072.359-.149.718-.245,1.075.005-.34.025-.677.05-1.011a54,54,0,0,1-8.568,2.154c.018.341.031.686.029,1.03-.081-.332-.146-.666-.207-1a30,30,0,0,1-4.27.354c0,.039.007.081.009.12.036.517.061,1.033.057,1.554-.122-.506-.214-1.015-.3-1.524-.009-.05-.014-.1-.023-.151a18.6,18.6,0,0,1-3.84-.386h0c-5.688,7.212-4.3,11.042-4.3,11.042s.656.9,2.853.944c-.029-.07-.059-.14-.088-.21-.187-.458-.36-.925-.527-1.391a2.342,2.342,0,0,1-.651-.47,1.012,1.012,0,0,1-.232-.416.669.669,0,0,1,.09-.489.929.929,0,0,1,.345-.318.285.285,0,0,1,.29.017.435.435,0,0,1,.148.2,2.04,2.04,0,0,1,.077.833,2.594,2.594,0,0,0-.221-.765.265.265,0,0,0-.1-.114.1.1,0,0,0-.1.015.76.76,0,0,0-.223.257.437.437,0,0,0-.036.295.719.719,0,0,0,.183.276,2.137,2.137,0,0,0,.621.422l.063.032.022.061c.167.487.331.977.48,1.474.029.1.054.194.083.292,2.461-.011,6.715-1.056,13.852-5.27-8.472,7.073-16.453,11.31-16.928,4.323,0,0-4.144,6.177-2.191,10.1a4.009,4.009,0,0,0,2.205,1.121c-.166-.414-.322-.831-.473-1.249a2.376,2.376,0,0,1-.651-.471,1.011,1.011,0,0,1-.232-.416.661.661,0,0,1,.092-.49.92.92,0,0,1,.344-.318.3.3,0,0,1,.29.016.432.432,0,0,1,.148.2,2.019,2.019,0,0,1,.077.83,2.649,2.649,0,0,0-.219-.764.312.312,0,0,0-.1-.114c-.032-.014-.056-.008-.1.017a.767.767,0,0,0-.221.255.431.431,0,0,0-.036.3.707.707,0,0,0,.182.278,2.269,2.269,0,0,0,.621.423l.063.031.022.059c.167.485.331.972.479,1.465,3.132.544,9.6-.639,21.486-11.276-8.706,9.409-23.084,20.56-23.972,10.1-1.421,4.8,2.133,8.537,2.135,8.538h0a48.331,48.331,0,0,0,16.531-7.228,29.21,29.21,0,0,0,4.31-3.76c.487-.524.957-1.069,1.4-1.638,7.5-9.655,11.94-9.39,18.688-9.39,6.105,0,8.067-.944,8.978-2.11a4,4,0,0,0,.257-.375c-.1-.292-.236-.626-.389-.987a1.73,1.73,0,0,0,1.166-1.865c-.05-1.766-2.858-2.9-3.65-3.185-2.551-4.8-5.747-10.181-5.916-10.463l-.007-.013S591.044,4292.122,587.846,4293.775Zm13.8,12.519c-2.48.993-5.3,1.389-9.1-2.221s-11.019,3.743-11.019,3.743,5.9-6.852,10.167-6.5c.056-.3.119-.606.185-.909.108-.484.23-.964.358-1.442a2.329,2.329,0,0,1-.268-.758,1.007,1.007,0,0,1,.045-.474.666.666,0,0,1,.354-.352.917.917,0,0,1,.464-.063.28.28,0,0,1,.229.177.428.428,0,0,1,.005.25,2.04,2.04,0,0,1-.408.727,2.631,2.631,0,0,0,.254-.753.265.265,0,0,0-.02-.153.1.1,0,0,0-.09-.042.783.783,0,0,0-.329.084.427.427,0,0,0-.2.223.734.734,0,0,0-.009.333,2.288,2.288,0,0,0,.27.7l.036.062-.018.06c-.139.5-.282.995-.443,1.486-.094.286-.192.572-.295.856a3.264,3.264,0,0,1,1.015.283C597.1,4303.6,597.739,4306.388,601.65,4306.294Z" transform="translate(-549.046 -4234.934)" fill="#d67fbe"/>
          <path id="Trazado_101076" data-name="Trazado 101076" d="M555.569,4297.3l-.056-.043a2.22,2.22,0,0,1-.511-.55.716.716,0,0,1-.117-.311.423.423,0,0,1,.1-.281.777.777,0,0,1,.273-.2c.047-.014.07-.014.1.008a.252.252,0,0,1,.074.132,2.629,2.629,0,0,1,.047.793,2.044,2.044,0,0,0,.108-.828.425.425,0,0,0-.1-.229.29.29,0,0,0-.279-.082.925.925,0,0,0-.407.235.658.658,0,0,0-.2.458.981.981,0,0,0,.135.457,2.289,2.289,0,0,0,.531.6c.054.44.113.883.182,1.322.009.05.014.1.023.151.083.509.174,1.018.3,1.523,0-.52-.022-1.036-.058-1.552,0-.04-.007-.081-.009-.121-.034-.475-.081-.949-.133-1.423Z" transform="translate(-544.604 -4231.097)" fill="#fff"/>
          <path id="Trazado_101077" data-name="Trazado 101077" d="M558.028,4296.795l-.007-.062-.054-.044a2.227,2.227,0,0,1-.513-.55.731.731,0,0,1-.115-.311.432.432,0,0,1,.1-.281.8.8,0,0,1,.273-.2c.049-.013.072-.013.1.006a.267.267,0,0,1,.074.135,2.573,2.573,0,0,1,.045.794,2.017,2.017,0,0,0,.11-.828.433.433,0,0,0-.1-.23.291.291,0,0,0-.279-.08.9.9,0,0,0-.407.233.672.672,0,0,0-.2.458,1.017,1.017,0,0,0,.135.456,2.314,2.314,0,0,0,.531.6c.061.492.126.983.207,1.475.027.171.059.346.09.519.061.337.126.671.207,1,0-.345-.011-.689-.029-1.031-.009-.174-.016-.346-.029-.521C558.135,4297.823,558.083,4297.311,558.028,4296.795Z" transform="translate(-542.646 -4231.552)" fill="#fff"/>
          <path id="Trazado_101078" data-name="Trazado 101078" d="M563.07,4295.628l.009-.062-.041-.057a2.193,2.193,0,0,1-.358-.661.732.732,0,0,1-.034-.329.422.422,0,0,1,.167-.246.762.762,0,0,1,.315-.126.1.1,0,0,1,.1.03.279.279,0,0,1,.038.149,2.594,2.594,0,0,1-.155.779,2.04,2.04,0,0,0,.313-.773.447.447,0,0,0-.038-.248.291.291,0,0,0-.25-.147.914.914,0,0,0-.453.125.649.649,0,0,0-.3.393.985.985,0,0,0,.016.476,2.285,2.285,0,0,0,.361.717c-.065.491-.126.983-.171,1.476-.016.181-.029.36-.043.542-.025.334-.045.67-.05,1.011.1-.357.173-.715.245-1.075.031-.148.061-.3.088-.443C562.917,4296.65,563,4296.14,563.07,4295.628Z" transform="translate(-538.418 -4232.509)" fill="#fff"/>
          <path id="Trazado_101079" data-name="Trazado 101079" d="M567.483,4300.938c-7.138,4.215-11.392,5.259-13.853,5.27.117.4.227.8.317,1.21-.2-.4-.372-.8-.539-1.212-2.2-.049-2.853-.945-2.853-.945C551.03,4312.247,559.011,4308.012,567.483,4300.938Z" transform="translate(-547.841 -4226.917)" fill="#c969b2"/>
          <path id="Trazado_101080" data-name="Trazado 101080" d="M573.309,4303.341c-11.883,10.638-18.355,11.82-21.486,11.277l0,.007c.149.5.288.993.4,1.5-.23-.467-.434-.943-.628-1.421-.018-.047-.036-.1-.054-.143a4,4,0,0,1-2.205-1.12C550.226,4323.9,564.6,4312.751,573.309,4303.341Z" transform="translate(-548.814 -4224.997)" fill="#c969b2"/>
          <path id="Trazado_101081" data-name="Trazado 101081" d="M578.41,4297a3.262,3.262,0,0,0-1.014-.282c-.074.2-.147.4-.23.606.031-.209.068-.414.106-.619-4.269-.356-10.167,6.5-10.167,6.5s7.222-7.355,11.02-3.743,6.619,3.214,9.1,2.221C583.314,4301.768,582.673,4298.977,578.41,4297Z" transform="translate(-534.621 -4230.312)" fill="#c969b2"/>
          <path id="Trazado_101082" data-name="Trazado 101082" d="M572.928,4298.487q.154-.428.295-.857c.16-.492.3-.987.443-1.486l.018-.061-.036-.061a2.284,2.284,0,0,1-.27-.7.731.731,0,0,1,.009-.332.433.433,0,0,1,.2-.224.782.782,0,0,1,.329-.084.1.1,0,0,1,.09.042.266.266,0,0,1,.02.153,2.633,2.633,0,0,1-.254.753,2.049,2.049,0,0,0,.408-.728.426.426,0,0,0-.005-.25.284.284,0,0,0-.229-.177.917.917,0,0,0-.464.064.663.663,0,0,0-.354.352,1.007,1.007,0,0,0-.045.474,2.332,2.332,0,0,0,.268.757c-.128.478-.25.958-.358,1.442-.067.3-.129.6-.185.909-.038.2-.076.409-.106.619C572.781,4298.891,572.854,4298.689,572.928,4298.487Z" transform="translate(-530.153 -4232.087)" fill="#fff"/>
          <path id="Trazado_101083" data-name="Trazado 101083" d="M553.036,4305.346c-.029-.1-.054-.2-.083-.292-.149-.5-.313-.986-.48-1.474l-.021-.061-.063-.031a2.158,2.158,0,0,1-.621-.422.726.726,0,0,1-.183-.276.44.44,0,0,1,.036-.3.768.768,0,0,1,.223-.257.1.1,0,0,1,.1-.014.257.257,0,0,1,.1.113,2.6,2.6,0,0,1,.221.765,2.046,2.046,0,0,0-.077-.833.441.441,0,0,0-.148-.2.291.291,0,0,0-.29-.016.935.935,0,0,0-.345.319.669.669,0,0,0-.09.49,1.012,1.012,0,0,0,.232.415,2.363,2.363,0,0,0,.651.471c.167.464.34.931.527,1.39.029.07.06.14.088.211.167.407.342.813.54,1.211C553.263,4306.145,553.153,4305.744,553.036,4305.346Z" transform="translate(-547.246 -4226.054)" fill="#fff"/>
          <path id="Trazado_101084" data-name="Trazado 101084" d="M551.853,4312.464c-.112-.509-.25-1.007-.4-1.5l0-.007c-.147-.492-.311-.979-.479-1.466l-.022-.059-.063-.03a2.292,2.292,0,0,1-.621-.424.721.721,0,0,1-.182-.279.428.428,0,0,1,.036-.295.764.764,0,0,1,.221-.254.1.1,0,0,1,.1-.016.292.292,0,0,1,.1.113,2.626,2.626,0,0,1,.219.764,2.023,2.023,0,0,0-.077-.831.421.421,0,0,0-.148-.2.293.293,0,0,0-.29-.017.913.913,0,0,0-.344.319.658.658,0,0,0-.092.489.991.991,0,0,0,.232.415,2.36,2.36,0,0,0,.651.472c.151.417.308.835.473,1.248l.054.143C551.42,4311.52,551.623,4312,551.853,4312.464Z" transform="translate(-548.443 -4221.333)" fill="#fff"/>
          <path id="Trazado_101085" data-name="Trazado 101085" d="M564.895,4286.286c.837-8.5-3.686-11.8-3.747-11.847-.406-.123-.8-.233-1.18-.326-.016.058-.03.117-.047.177-.135.5-.281,1-.455,1.486.05-.519.129-1.03.219-1.54.011-.06.023-.122.034-.182a19.632,19.632,0,0,0-3.961-.559c.038.253.074.506.1.761.043.347.077.7.106,1.046a2.541,2.541,0,0,1,1.847.894,5.261,5.261,0,0,0-3.6.055,2.542,2.542,0,0,1,1.658-.943c-.088-.336-.171-.673-.245-1.011-.059-.269-.113-.537-.166-.806a2.649,2.649,0,0,0-1.079.118h0c-4.342,7.308.876,11.195,1.777,11.792.083.057.13.084.13.084A22.488,22.488,0,0,0,564.895,4286.286Z" transform="translate(-546.146 -4248.839)" fill="#d67fbe"/>
          <path id="Trazado_101086" data-name="Trazado 101086" d="M562.065,4277.743a23.474,23.474,0,0,1-.534,4.489c-.077.418-.155.83-.223,1.236a12.507,12.507,0,0,0,5.276-3.413l.005,0a31.711,31.711,0,0,0-4.661-3.952A10.655,10.655,0,0,1,562.065,4277.743Z" transform="translate(-539.252 -4246.755)" fill="#d67fbe"/>
          <path id="Trazado_101087" data-name="Trazado 101087" d="M558.668,4274.474c.467.2.915.417,1.317.617l-.027-.048C559.521,4274.837,559.091,4274.645,558.668,4274.474Z" transform="translate(-541.36 -4248.055)" fill="#d67fbe"/>
          <path id="Trazado_101088" data-name="Trazado 101088" d="M571.287,4282.069c.014-.405.016-.812,0-1.22-.029-.657-.1-1.313-.191-1.974Z" transform="translate(-531.434 -4244.539)" fill="#d67fbe"/>
          <path id="Trazado_101089" data-name="Trazado 101089" d="M575.925,4273.707l-.011.053c-.115.5-.238,1.006-.39,1.5.027-.51.083-1.013.148-1.515a24.115,24.115,0,0,0-3.711.943c.157,1.378.448,2.788.75,4.238a37.751,37.751,0,0,1,.926,6.089c.018.416.02.836.011,1.254a21.836,21.836,0,0,0,3.925-.777l.04-.013s6.638-3.9,1.914-11.865l-.007-.011A9.17,9.17,0,0,0,575.925,4273.707Z" transform="translate(-530.742 -4248.84)" fill="#d67fbe"/>
          <path id="Trazado_101090" data-name="Trazado 101090" d="M575.72,4284.9v-.022c-.04-.415-.809-8.307-3.43-9.513l-.05.03c.022.229.04.459.05.689-.061-.206-.115-.412-.169-.62a29.741,29.741,0,0,0-2.873,1.911c.1.354.2.712.288,1.076-.16-.317-.3-.637-.444-.958a32.034,32.034,0,0,0-3.547,3.146c.115.127.234.249.353.369A14.1,14.1,0,0,0,575.72,4284.9Z" transform="translate(-535.868 -4247.342)" fill="#d67fbe"/>
          <path id="Trazado_101091" data-name="Trazado 101091" d="M568.688,4279.092c-.083-.364-.183-.721-.288-1.076-.041-.141-.081-.282-.124-.423-.153-.493-.32-.984-.491-1.469l-.022-.062-.065-.03a2.188,2.188,0,0,1-.622-.417.72.72,0,0,1-.185-.274.434.434,0,0,1,.034-.3.757.757,0,0,1,.22-.258c.043-.024.067-.03.1-.016a.257.257,0,0,1,.1.114,2.613,2.613,0,0,1,.227.761,2.068,2.068,0,0,0-.085-.832.44.44,0,0,0-.148-.2.3.3,0,0,0-.29-.014.92.92,0,0,0-.344.322.661.661,0,0,0-.086.491.992.992,0,0,0,.236.415,2.318,2.318,0,0,0,.655.463c.171.466.345.928.536,1.387.065.153.131.305.2.458C568.384,4278.456,568.528,4278.775,568.688,4279.092Z" transform="translate(-535.02 -4247.983)" fill="#fff"/>
          <path id="Trazado_101092" data-name="Trazado 101092" d="M557.295,4273.785l-.038-.06a2.221,2.221,0,0,1-.3-.687.761.761,0,0,1-.007-.33.43.43,0,0,1,.187-.232.746.746,0,0,1,.324-.1.094.094,0,0,1,.092.038.271.271,0,0,1,.027.153,2.633,2.633,0,0,1-.217.764,2.022,2.022,0,0,0,.374-.747.434.434,0,0,0-.016-.25.294.294,0,0,0-.237-.167.922.922,0,0,0-.462.087.672.672,0,0,0-.336.367,1.025,1.025,0,0,0-.022.477,2.328,2.328,0,0,0,.3.743c-.092.422-.178.849-.256,1.275-.011.061-.023.122-.034.183-.09.509-.169,1.021-.219,1.539.174-.491.32-.987.455-1.487.016-.059.031-.118.047-.176.117-.441.225-.882.327-1.327Z" transform="translate(-543.131 -4249.903)" fill="#fff"/>
          <path id="Trazado_101093" data-name="Trazado 101093" d="M569.861,4277.174q-.038-.431-.092-.858c-.063-.512-.142-1.023-.225-1.532l-.011-.064-.057-.039a2.222,2.222,0,0,1-.542-.523.755.755,0,0,1-.133-.3.432.432,0,0,1,.086-.286.772.772,0,0,1,.261-.215.1.1,0,0,1,.1,0,.279.279,0,0,1,.081.129,2.576,2.576,0,0,1,.088.792,2.022,2.022,0,0,0,.065-.835.451.451,0,0,0-.112-.223.287.287,0,0,0-.282-.064.9.9,0,0,0-.394.255.659.659,0,0,0-.173.468,1.018,1.018,0,0,0,.16.45,2.344,2.344,0,0,0,.563.572c.086.488.178.975.286,1.458.065.3.135.593.21.888.054.207.108.414.169.619C569.9,4277.634,569.882,4277.4,569.861,4277.174Z" transform="translate(-533.489 -4249.121)" fill="#fff"/>
          <path id="Trazado_101094" data-name="Trazado 101094" d="M554.766,4273.73l-.058-.041a2.187,2.187,0,0,1-.541-.522.748.748,0,0,1-.133-.3.438.438,0,0,1,.086-.286.742.742,0,0,1,.261-.214c.047-.019.072-.019.1,0a.259.259,0,0,1,.081.129,2.564,2.564,0,0,1,.088.789,2,2,0,0,0,.065-.832.441.441,0,0,0-.112-.226.286.286,0,0,0-.282-.063.564.564,0,0,0-.133.055,1.247,1.247,0,0,0-.261.2.669.669,0,0,0-.171.468.931.931,0,0,0,.128.392l.031.058a2.323,2.323,0,0,0,.563.571c.04.22.079.438.121.655.052.27.106.537.166.806.074.338.156.675.245,1.011a.932.932,0,0,1,.1,0c-.029-.35-.063-.7-.106-1.047-.031-.253-.067-.507-.1-.761s-.079-.515-.121-.771Z" transform="translate(-545.284 -4249.912)" fill="#fff"/>
          <path id="Trazado_101095" data-name="Trazado 101095" d="M573.942,4276.571c.153-.5.275-1,.39-1.5l.011-.053c.11-.488.205-.976.295-1.467l.013-.062-.039-.058a2.182,2.182,0,0,1-.333-.674.73.73,0,0,1-.023-.332.44.44,0,0,1,.178-.241.768.768,0,0,1,.318-.113c.05,0,.072.007.094.037a.265.265,0,0,1,.032.149,2.621,2.621,0,0,1-.183.772,2.054,2.054,0,0,0,.342-.761.424.424,0,0,0-.029-.249.293.293,0,0,0-.243-.159.916.916,0,0,0-.457.109.658.658,0,0,0-.32.38,1,1,0,0,0,0,.477,2.353,2.353,0,0,0,.335.73c-.083.487-.162.976-.225,1.47l-.005.031C574.025,4275.558,573.969,4276.062,573.942,4276.571Z" transform="translate(-529.16 -4250.147)" fill="#fff"/>
          <path id="Trazado_101096" data-name="Trazado 101096" d="M553.53,4275.446a5.252,5.252,0,0,1,3.6-.055,2.537,2.537,0,0,0-1.847-.893c-.034,0-.067,0-.1.005A2.544,2.544,0,0,0,553.53,4275.446Z" transform="translate(-545.464 -4248.036)" fill="#c969b2"/>
          <path id="Trazado_101097" data-name="Trazado 101097" d="M572.724,4285.41v-.007l-.192-3.193c-.165-1.184-.414-2.382-.674-3.624-.266-1.276-.534-2.571-.716-3.882a18.273,18.273,0,0,0-1.847,1.192h0C571.915,4277.1,572.685,4284.994,572.724,4285.41Z" transform="translate(-532.872 -4247.873)" fill="#c969b2"/>
          <path id="Trazado_101098" data-name="Trazado 101098" d="M572.063,4285.308c-.3.747-.673,1.471-1.065,2.24-.074.146-.149.293-.223.44a21.954,21.954,0,0,0-1.241,2.806,15.441,15.441,0,0,0-.739,3.43c.986.5,1.966,1.011,2.948,1.524a13.461,13.461,0,0,1,.675-3.961,16.054,16.054,0,0,1,.775-1.812c.167-.343.34-.687.52-1.042.4-.791.822-1.608,1.173-2.474a17.763,17.763,0,0,0,1.236-5.263q-1.573.272-3.134.637A14.509,14.509,0,0,1,572.063,4285.308Z" transform="translate(-533.271 -4242.688)" fill="#fff"/>
          <path id="Trazado_101099" data-name="Trazado 101099" d="M569.06,4295.772c.047.485.092.962.133,1.435.072.8.131,1.589.16,2.368H572.4c-.045-1.289-.164-2.575-.284-3.832l-.027-.266a42.927,42.927,0,0,1-.3-5.516c-.982-.513-1.962-1.024-2.948-1.523A36.706,36.706,0,0,0,569.06,4295.772Z" transform="translate(-533.32 -4236.902)" fill="#e7dcea"/>
          <path id="Trazado_101100" data-name="Trazado 101100" d="M570.232,4272.535a19.579,19.579,0,0,0,.185,3.9c.182,1.312.45,2.606.716,3.882.261,1.243.509,2.44.674,3.625.094.66.162,1.317.191,1.974.018.408.016.814,0,1.219v.029c-.02.532-.063,1.063-.135,1.586q1.56-.367,3.134-.637.043-.536.056-1.075c.009-.417.007-.837-.011-1.254a37.766,37.766,0,0,0-.926-6.088c-.3-1.45-.594-2.859-.75-4.238-.057-.506-.1-1.009-.112-1.508A30.969,30.969,0,0,1,570.232,4272.535Z" transform="translate(-532.148 -4249.604)" fill="#e7dcea"/>
          <path id="Trazado_101101" data-name="Trazado 101101" d="M568.646,4261.617a3.483,3.483,0,0,0,.6,2.869h0a2.838,2.838,0,0,1,2.049.812c.056.052.112.105.169.163a4.069,4.069,0,0,1,.763,1.186c.144.318.266.648.374.961a13.094,13.094,0,0,1,.77,5.958,19.912,19.912,0,0,1-.8,3.143,24.777,24.777,0,0,0-.849,3.24,14.379,14.379,0,0,0-.173,1.5,31.077,31.077,0,0,0,3.024,1.414,12.223,12.223,0,0,1,.155-2.406,22.249,22.249,0,0,1,.754-2.844,22.509,22.509,0,0,0,.909-3.634,15.96,15.96,0,0,0-.845-7.167c-.022-.063-.038-.126-.061-.191a8.419,8.419,0,0,0-1.851-3.3,5.8,5.8,0,0,0-.815-.684,8,8,0,0,0-4.1-1.262l-.013,0Z" transform="translate(-533.463 -4258.522)" fill="#fff"/>
          <path id="Trazado_101102" data-name="Trazado 101102" d="M568.971,4294.631v2.032h3.453v-2.032h-3.453Z" transform="translate(-533.13 -4231.955)" fill="#fff"/>
          <path id="Trazado_101103" data-name="Trazado 101103" d="M561.668,4283.343c.183-1,.361-1.959.441-2.892a8.7,8.7,0,0,0-.066-2.284,8.8,8.8,0,0,0-1.033-2.711c-.4-.2-.849-.414-1.317-.616a15.1,15.1,0,0,0-2.308-.823l0,0c.061.044,4.583,3.343,3.747,11.846h0l.121-.01C561.358,4285.007,561.513,4284.17,561.668,4283.343Z" transform="translate(-542.385 -4248.421)" fill="#c969b2"/>
          <path id="Trazado_101104" data-name="Trazado 101104" d="M560.719,4265.474s1.335-.375,2.306-.684l0,0c1.1-1.1.757-3.348.757-3.348a21.059,21.059,0,0,0-4.173,1.194c-.333.128-.7.28-1.077.459q.648,1.383,1.351,2.737C560.143,4265.709,560.42,4265.591,560.719,4265.474Z" transform="translate(-541.466 -4258.468)" fill="#e7dcea"/>
          <path id="Trazado_101105" data-name="Trazado 101105" d="M555.913,4270.49c.022.457.065.91.119,1.364.009.073.02.147.029.221a19.052,19.052,0,0,0,1.835,6c.552-.151,1.1-.317,1.642-.5.435-.164.871-.3,1.308-.428a15.954,15.954,0,0,1-1.889-6.8,5.842,5.842,0,0,1,.57-3.28,3.971,3.971,0,0,1,1.038-1.128,7.748,7.748,0,0,1,1.428-.844q-.7-1.356-1.351-2.737a8.308,8.308,0,0,0-3.741,3.161,6.179,6.179,0,0,0-.3.575A9.39,9.39,0,0,0,555.913,4270.49Z" transform="translate(-543.574 -4257.733)" fill="#fff"/>
          <path id="Trazado_101106" data-name="Trazado 101106" d="M562.777,4282.739c.068-.405.146-.817.223-1.236a23.469,23.469,0,0,0,.534-4.489q-1.549.505-3.09,1.043c-.079.931-.257,1.9-.441,2.891-.155.827-.309,1.666-.414,2.514a11.424,11.424,0,0,0,.218,4.478,10.2,10.2,0,0,0,3.175,4.871l-.212.285,1.144.908,2.378-2.842-1.313-1.025-.164.222a7.144,7.144,0,0,1-2.068-3.228,8.173,8.173,0,0,1-.162-3.017C562.631,4283.665,562.7,4283.206,562.777,4282.739Z" transform="translate(-540.72 -4246.026)" fill="#fff"/>
          <path id="Trazado_101107" data-name="Trazado 101107" d="M559.456,4275.389a31.791,31.791,0,0,1,1.828,2.765l.027.048a8.792,8.792,0,0,1,1.032,2.711,8.7,8.7,0,0,1,.067,2.284q1.543-.54,3.09-1.043a10.654,10.654,0,0,0-.137-1.643c-.007-.044-.013-.088-.02-.132-.47-2.632-1.961-4.729-3.4-6.756-.619-.871-1.2-1.692-1.7-2.545-.1-.165-.189-.331-.279-.5-.437.124-.872.265-1.308.429q-.812.278-1.643.5c.187.375.387.747.6,1.108C558.175,4273.587,558.827,4274.5,559.456,4275.389Z" transform="translate(-542.686 -4251.166)" fill="#e7dcea"/>
        </g>
      </g>
    </g>
  </g>
</svg>
