<svg xmlns="http://www.w3.org/2000/svg" width="277.88" height="446.188" viewBox="0 0 277.88 446.188">
  <g id="Grupo_54816" data-name="Grupo 54816" transform="translate(-971 -2876.706)">
    <path id="Trazado_105623" data-name="Trazado 105623" d="M-68.672-6.035h-5.391v3.4H-67.7V0H-77.49V-14.219h9.814v2.646h-6.387v3h5.391Zm7.754,3.066a.76.76,0,0,0-.439-.674,6.685,6.685,0,0,0-1.67-.527,7.615,7.615,0,0,1-2.031-.718,3.4,3.4,0,0,1-1.221-1.079,2.577,2.577,0,0,1-.42-1.455,2.92,2.92,0,0,1,1.2-2.4,4.948,4.948,0,0,1,3.145-.942,5.482,5.482,0,0,1,3.359.947,2.962,2.962,0,0,1,1.27,2.49h-3.3q0-1.27-1.338-1.27a1.326,1.326,0,0,0-.869.288.892.892,0,0,0-.352.718.819.819,0,0,0,.43.713,4.06,4.06,0,0,0,1.372.449,11.857,11.857,0,0,1,1.655.42,3.007,3.007,0,0,1,2.383,2.939A2.767,2.767,0,0,1-59.028-.713,5.632,5.632,0,0,1-62.354.2a5.747,5.747,0,0,1-2.422-.488,4.05,4.05,0,0,1-1.66-1.328,3.007,3.007,0,0,1-.6-1.768h3.076a1.272,1.272,0,0,0,.488,1.069,2.009,2.009,0,0,0,1.2.337,1.58,1.58,0,0,0,1.011-.273A.875.875,0,0,0-60.918-2.969Zm9.18.625a1.464,1.464,0,0,0,1.074-.376,1.379,1.379,0,0,0,.371-1.05h3.086A3.653,3.653,0,0,1-48.452-.918,4.631,4.631,0,0,1-51.66.2,4.689,4.689,0,0,1-55.293-1.25a5.7,5.7,0,0,1-1.328-4v-.137a6.436,6.436,0,0,1,.591-2.827,4.3,4.3,0,0,1,1.7-1.885,5.081,5.081,0,0,1,2.637-.659,4.573,4.573,0,0,1,3.271,1.143,4.053,4.053,0,0,1,1.211,3.1h-3.086a1.807,1.807,0,0,0-.4-1.26,1.382,1.382,0,0,0-1.074-.439q-1.279,0-1.494,1.631a11.507,11.507,0,0,0-.068,1.426,4.52,4.52,0,0,0,.381,2.207A1.319,1.319,0,0,0-51.738-2.344ZM-39.863,0a3.716,3.716,0,0,1-.312-.947A3.06,3.06,0,0,1-42.715.2a3.749,3.749,0,0,1-2.539-.9A2.875,2.875,0,0,1-46.3-2.979a2.955,2.955,0,0,1,1.27-2.6,6.468,6.468,0,0,1,3.691-.879h1.016v-.559q0-1.462-1.26-1.462a1.03,1.03,0,0,0-1.172,1.158h-3.291a2.95,2.95,0,0,1,1.3-2.487,5.479,5.479,0,0,1,3.325-.956,4.8,4.8,0,0,1,3.193.986,3.429,3.429,0,0,1,1.2,2.705v4.678a4.79,4.79,0,0,0,.449,2.227V0Zm-2.061-2.148A1.836,1.836,0,0,0-40.9-2.412a1.653,1.653,0,0,0,.581-.6V-4.7h-.957Q-43-4.7-43-3.154a.942.942,0,0,0,.3.728A1.1,1.1,0,0,0-41.924-2.148ZM-31.729,0h-3.3V-15h3.3Zm7.979,0a3.716,3.716,0,0,1-.312-.947A3.06,3.06,0,0,1-26.6.2a3.749,3.749,0,0,1-2.539-.9,2.875,2.875,0,0,1-1.045-2.271,2.955,2.955,0,0,1,1.27-2.6,6.468,6.468,0,0,1,3.691-.879h1.016v-.559q0-1.462-1.26-1.462a1.03,1.03,0,0,0-1.172,1.158h-3.291a2.95,2.95,0,0,1,1.3-2.487,5.479,5.479,0,0,1,3.325-.956,4.8,4.8,0,0,1,3.193.986,3.429,3.429,0,0,1,1.2,2.705v4.678a4.79,4.79,0,0,0,.449,2.227V0Zm-2.061-2.148a1.836,1.836,0,0,0,1.021-.264,1.653,1.653,0,0,0,.581-.6V-4.7h-.957q-1.719,0-1.719,1.543a.942.942,0,0,0,.3.728A1.1,1.1,0,0,0-25.811-2.148ZM-12.7-7.588l-1.084-.078a1.947,1.947,0,0,0-1.992.977V0h-3.291V-10.566h3.086l.107,1.357a2.548,2.548,0,0,1,2.314-1.553,3.209,3.209,0,0,1,.918.117ZM-.234-1.143A3.393,3.393,0,0,1-3.057.2,3.328,3.328,0,0,1-5.688-.815a4.251,4.251,0,0,1-.894-2.905v-6.846h3.291V-3.7A1.183,1.183,0,0,0-1.973-2.344,1.72,1.72,0,0,0-.361-3.154v-7.412H2.949V0H-.137Zm8.008-9.424.107,1.24A3.583,3.583,0,0,1,10.9-10.762a3.015,3.015,0,0,1,2.466.986,4.7,4.7,0,0,1,.845,2.969V0h-3.3V-6.67a1.783,1.783,0,0,0-.322-1.177,1.491,1.491,0,0,0-1.172-.376,1.569,1.569,0,0,0-1.436.762V0H4.688V-10.566ZM30.82-5.205a6.372,6.372,0,0,1-1.108,3.931A3.554,3.554,0,0,1,26.719.2,3.046,3.046,0,0,1,24.326-.869V4.063H21.035V-10.566h3.076l.1.977a3.046,3.046,0,0,1,2.49-1.172,3.582,3.582,0,0,1,3.037,1.44,6.45,6.45,0,0,1,1.084,3.96ZM27.529-5.41q0-2.812-1.641-2.812a1.549,1.549,0,0,0-1.562.84v4.16a1.6,1.6,0,0,0,1.582.879q1.572,0,1.621-2.715ZM38.223,0a3.716,3.716,0,0,1-.312-.947A3.06,3.06,0,0,1,35.371.2a3.749,3.749,0,0,1-2.539-.9,2.875,2.875,0,0,1-1.045-2.271,2.955,2.955,0,0,1,1.27-2.6,6.468,6.468,0,0,1,3.691-.879h1.016v-.559q0-1.462-1.26-1.462a1.03,1.03,0,0,0-1.172,1.158H32.041a2.95,2.95,0,0,1,1.3-2.487,5.479,5.479,0,0,1,3.325-.956,4.8,4.8,0,0,1,3.193.986,3.429,3.429,0,0,1,1.2,2.705v4.678a4.79,4.79,0,0,0,.449,2.227V0ZM36.162-2.148a1.836,1.836,0,0,0,1.021-.264,1.653,1.653,0,0,0,.581-.6V-4.7h-.957q-1.719,0-1.719,1.543a.942.942,0,0,0,.3.728A1.1,1.1,0,0,0,36.162-2.148ZM46.719-13.193v2.627h1.738v2.285H46.719v4.834a1.234,1.234,0,0,0,.215.83,1.152,1.152,0,0,0,.85.234,4.828,4.828,0,0,0,.82-.059V-.088A6.074,6.074,0,0,1,46.748.2a3.448,3.448,0,0,1-2.51-.8,3.282,3.282,0,0,1-.811-2.432V-8.281H42.08v-2.285h1.348v-2.627Zm9.424,5.605-1.084-.078a1.947,1.947,0,0,0-1.992.977V0H49.775V-10.566h3.086l.107,1.357a2.548,2.548,0,0,1,2.314-1.553,3.209,3.209,0,0,1,.918.117Zm.42,2.207A6.236,6.236,0,0,1,57.178-8.2a4.4,4.4,0,0,1,1.768-1.9,5.323,5.323,0,0,1,2.705-.664,4.858,4.858,0,0,1,3.74,1.47,5.64,5.64,0,0,1,1.367,4v.117a5.472,5.472,0,0,1-1.372,3.921A4.871,4.871,0,0,1,61.67.2a4.927,4.927,0,0,1-3.623-1.353,5.29,5.29,0,0,1-1.475-3.667Zm3.291.205a3.932,3.932,0,0,0,.459,2.148,1.529,1.529,0,0,0,1.357.684q1.758,0,1.8-2.705v-.332q0-2.842-1.816-2.842-1.65,0-1.787,2.451ZM62.1-15h3.477l-2.715,3.066-2.686,0Zm9.131,4.434.107,1.24a3.583,3.583,0,0,1,3.018-1.436,3.015,3.015,0,0,1,2.466.986,4.7,4.7,0,0,1,.845,2.969V0h-3.3V-6.67a1.783,1.783,0,0,0-.322-1.177,1.491,1.491,0,0,0-1.172-.376,1.569,1.569,0,0,0-1.436.762V0H68.145V-10.566Z" transform="translate(1115 3318.831)" fill="#12263f"/>
    <g id="Grupo_53456" data-name="Grupo 53456" transform="translate(604.059 1939.953)">
      <path id="Trazado_100170" data-name="Trazado 100170" d="M524.684,1131.546h-4.616v-3.693h4.616Zm0-8.309h-4.616v-3.693h4.616Zm0-8.309h-4.616v-3.693h4.616Zm0-8.309h-4.616v-3.693h4.616Zm0-8.309h-4.616v-3.693h4.616Zm0-8.309h-4.616v-3.693h4.616Zm0-8.309h-4.616V1078h4.616Zm0-8.309h-4.616v-3.693h4.616Zm0-8.309h-4.616v-3.693h4.616Zm0-8.309h-4.616v-3.693h4.616Zm0-8.309h-4.616v-3.693h4.616Zm0-8.309h-4.616v-3.693h4.616Zm0-8.309h-4.616v-3.693h4.616Zm0-8.309h-4.616v-3.693h4.616Zm0-8.309h-4.616v-3.693h4.616Zm0-8.309h-4.616v-3.693h4.616Zm0-8.309h-4.616v-3.693h4.616Zm0-8.309h-4.616v-3.693h4.616Zm0-8.309h-4.616V978.3h4.616Zm0-8.309h-4.616v-3.693h4.616Zm0-8.309h-4.616v-3.693h4.616Zm0-8.309h-4.616V953.37h4.616Zm0-8.309h-4.616v-3.693h4.616Zm0-8.309h-4.616v-3.693h4.616Z" transform="translate(-11.761)" fill="#ff1d25"/>
      <path id="Trazado_100171" data-name="Trazado 100171" d="M644.822,1052.551h-3.693v-4.616h3.693Zm-8.309,0H632.82v-4.616h3.693Zm-8.309,0h-3.693v-4.616H628.2Zm-8.309,0H616.2v-4.616H619.9Zm-8.309,0h-3.693v-4.616h3.693Zm-8.309,0h-3.693v-4.616h3.693Zm-8.309,0h-3.693v-4.616h3.693Zm-8.309,0h-3.693v-4.616h3.693Zm-8.309,0h-3.693v-4.616h3.693Zm-8.309,0H566.35v-4.616h3.693Zm-8.309,0h-3.693v-4.616h3.693Zm-8.309,0h-3.693v-4.616h3.693Zm-8.309,0h-3.693v-4.616h3.693Zm-8.309,0h-3.693v-4.616h3.693Zm-8.309,0h-3.693v-4.616H528.5Zm-8.309,0H516.5v-4.616h3.693Zm-8.309,0h-3.693v-4.616h3.693Zm-8.309,0h-3.693v-4.616h3.693Zm-8.309,0h-3.693v-4.616h3.693Zm-8.309,0h-3.693v-4.616h3.693Zm-8.309,0h-3.693v-4.616h3.693Zm-8.309,0h-3.693v-4.616h3.693Zm-8.309,0h-3.693v-4.616h3.693Zm-8.309,0h-3.693v-4.616h3.693Zm-8.309,0H441.72v-4.616h3.693Zm-8.309,0h-3.693v-4.616H437.1Zm-8.309,0H425.1v-4.616h3.693Zm-8.309,0h-3.693v-4.616h3.693Zm-8.309,0h-3.693v-4.616h3.693Zm-8.309,0h-3.693v-4.616h3.693Zm-8.309,0h-3.693v-4.616h3.693Zm-8.309,0h-3.693v-4.616h3.693Zm-8.309,0H375.25v-4.616h3.693Zm-8.309,0h-3.693v-4.616h3.693Z" transform="translate(0 -8.54)" fill="#ff1d25"/>
      <path id="Trazado_100172" data-name="Trazado 100172" d="M530,1102.24h0q-1.44,0-2.781-.04a.462.462,0,0,1,.012-.923h.013q1.328.036,2.758.04a.462.462,0,0,1,0,.923Zm-32.193-.005h0c-.9-.008-1.832-.028-2.783-.062a.461.461,0,1,1,.032-.922q1.415.05,2.759.061a.462.462,0,0,1,0,.923Zm3.694-.027a.462.462,0,0,1-.011-.923q1.442-.036,2.757-.1a.449.449,0,0,1,.484.438.461.461,0,0,1-.437.485c-.884.044-1.812.079-2.781.1Zm32.2-.025a.461.461,0,0,1-.015-.922q1.347-.044,2.758-.127a.461.461,0,0,1,.054.921q-1.421.083-2.782.127Zm-10.158-.146h-.028c-.992-.062-1.919-.133-2.775-.209a.462.462,0,0,1,.083-.92c.847.076,1.766.147,2.749.208a.462.462,0,0,1-.03.922Zm-32.194-.059h-.033q-1.363-.1-2.775-.234a.462.462,0,0,1-.415-.5.475.475,0,0,1,.5-.415q1.4.137,2.75.231a.462.462,0,0,1-.032.922Zm16.608-.126a.461.461,0,0,1-.039-.921c1.016-.088,1.933-.183,2.742-.277a.461.461,0,1,1,.107.917c-.816.095-1.743.191-2.77.28Zm32.2-.08a.461.461,0,0,1-.042-.92q1.35-.129,2.742-.3a.461.461,0,1,1,.112.916q-1.4.172-2.768.3A.336.336,0,0,1,540.152,1101.772Zm-23.044-.345c-.021,0-.041,0-.062,0-1.228-.162-2.094-.3-2.542-.383l-.057.01a.467.467,0,0,1-.534-.375.461.461,0,0,1,.375-.535l.215-.039.082.015c.4.071,1.281.221,2.581.391a.462.462,0,0,1-.059.92Zm-32.2-.108a.5.5,0,0,1-.064,0q-1.361-.184-2.752-.413a.462.462,0,0,1,.15-.911q1.376.227,2.727.409a.462.462,0,0,1-.061.919Zm61.653-.367a.461.461,0,0,1-.073-.917q1.345-.219,2.714-.481a.462.462,0,0,1,.175.907q-1.382.264-2.742.485A.513.513,0,0,1,546.564,1100.952Zm-68.025-.718a.458.458,0,0,1-.093-.009q-1.353-.28-2.721-.6a.462.462,0,0,1,.215-.9q1.353.324,2.691.6a.462.462,0,0,1-.092.914Zm74.368-.537a.461.461,0,0,1-.105-.91q1.329-.314,2.672-.675a.462.462,0,0,1,.24.892q-1.356.365-2.7.681A.455.455,0,0,1,552.906,1099.7Zm-80.648-1a.468.468,0,0,1-.127-.018q-1.328-.379-2.665-.809a.462.462,0,0,1,.283-.879q1.321.425,2.636.8a.462.462,0,0,1-.126.906Zm86.879-.72a.461.461,0,0,1-.139-.9q1.3-.415,2.61-.881a.462.462,0,0,1,.31.87q-1.322.471-2.641.891A.452.452,0,0,1,559.137,1097.977Zm-93.018-1.3a.463.463,0,0,1-.162-.029q-1.295-.485-2.591-1.025a.462.462,0,1,1,.355-.852q1.277.533,2.56,1.013a.462.462,0,0,1-.163.893Zm99.09-.911a.462.462,0,0,1-.175-.889q1.264-.521,2.523-1.1a.462.462,0,1,1,.384.839q-1.274.583-2.555,1.11A.477.477,0,0,1,565.209,1095.768Zm-105.038-1.612a.466.466,0,0,1-.2-.045q-1.249-.6-2.491-1.249a.461.461,0,0,1,.429-.817q1.224.645,2.46,1.233a.462.462,0,0,1-.2.878Zm110.895-1.112a.462.462,0,0,1-.214-.872q1.212-.631,2.415-1.318a.461.461,0,0,1,.458.8q-1.216.7-2.446,1.336A.455.455,0,0,1,571.066,1093.045Zm-116.591-1.934a.462.462,0,0,1-.237-.066q-1.187-.709-2.363-1.476a.462.462,0,0,1,.5-.773q1.158.756,2.333,1.457a.461.461,0,0,1-.237.858Zm122.172-1.314a.462.462,0,0,1-.251-.849q1.147-.742,2.276-1.542a.462.462,0,0,1,.534.753q-1.144.812-2.308,1.564A.459.459,0,0,1,576.647,1089.8ZM449.1,1087.54a.454.454,0,0,1-.273-.089q-1.116-.821-2.21-1.7a.462.462,0,0,1,.579-.719q1.079.868,2.178,1.676a.461.461,0,0,1-.273.833Zm132.794-1.513a.462.462,0,0,1-.288-.823q1.066-.85,2.111-1.758a.462.462,0,0,1,.606.7q-1.059.921-2.142,1.783A.456.456,0,0,1,581.889,1086.027Zm-137.8-2.567a.457.457,0,0,1-.309-.119q-1.025-.927-2.028-1.911a.462.462,0,0,1,.647-.658q.989.972,2,1.884a.462.462,0,0,1-.309.8Zm142.638-1.7a.461.461,0,0,1-.322-.792q.973-.951,1.925-1.96a.462.462,0,0,1,.673.633q-.964,1.023-1.954,1.988A.459.459,0,0,1,586.73,1081.758ZM439.523,1078.9a.462.462,0,0,1-.342-.152q-.926-1.022-1.828-2.1a.462.462,0,1,1,.709-.591q.888,1.065,1.8,2.074a.462.462,0,0,1-.342.772Zm151.6-1.872a.462.462,0,0,1-.353-.759q.875-1.042,1.725-2.139a.461.461,0,1,1,.73.564q-.86,1.113-1.749,2.169A.458.458,0,0,1,591.122,1077.029Zm-155.7-3.113a.461.461,0,0,1-.37-.187q-.824-1.105-1.618-2.267a.462.462,0,0,1,.763-.522q.784,1.146,1.6,2.238a.463.463,0,0,1-.371.738Zm159.611-2.021a.461.461,0,0,1-.379-.724q.771-1.119,1.514-2.293a.462.462,0,0,1,.781.494q-.753,1.19-1.536,2.324A.462.462,0,0,1,595.034,1071.9Zm-163.22-3.331a.46.46,0,0,1-.394-.221q-.716-1.176-1.4-2.4a.462.462,0,1,1,.806-.451q.679,1.213,1.387,2.375a.461.461,0,0,1-.394.7Zm166.638-2.144a.458.458,0,0,1-.227-.059.463.463,0,0,1-.175-.629q.669-1.184,1.306-2.421a.462.462,0,1,1,.821.424q-.647,1.252-1.323,2.45A.459.459,0,0,1,598.452,1066.421ZM428.7,1062.913a.459.459,0,0,1-.413-.256q-.615-1.232-1.2-2.515a.461.461,0,0,1,.84-.381q.576,1.267,1.181,2.484a.462.462,0,0,1-.207.62A.456.456,0,0,1,428.7,1062.913Zm172.682-2.243a.452.452,0,0,1-.192-.042.461.461,0,0,1-.227-.612q.565-1.235,1.1-2.52a.461.461,0,1,1,.851.356q-.544,1.3-1.117,2.548A.461.461,0,0,1,601.381,1060.669Zm-175.32-3.648a.461.461,0,0,1-.428-.289q-.514-1.275-1-2.6a.461.461,0,1,1,.867-.317q.478,1.307.985,2.569a.46.46,0,0,1-.256.6A.45.45,0,0,1,426.062,1057.021Zm177.779-2.318a.462.462,0,0,1-.433-.621q.471-1.277.914-2.6a.462.462,0,1,1,.875.294q-.449,1.335-.923,2.623A.462.462,0,0,1,603.841,1054.7Zm-179.965-3.756a.461.461,0,0,1-.439-.32q-.42-1.309-.811-2.661a.462.462,0,0,1,.887-.257q.386,1.339.8,2.635a.462.462,0,0,1-.3.581A.47.47,0,0,1,423.876,1050.947Zm181.985-2.377a.451.451,0,0,1-.129-.019.461.461,0,0,1-.313-.572q.381-1.307.737-2.656a.461.461,0,1,1,.892.234q-.356,1.361-.743,2.68A.462.462,0,0,1,605.861,1048.57Zm-183.75-3.832a.462.462,0,0,1-.448-.35l-.087-.345c-.023-.135-.161-1-.319-2.458a.462.462,0,0,1,.41-.509.469.469,0,0,1,.509.409c.156,1.435.29,2.278.3,2.371l.079.309a.463.463,0,0,1-.449.573Zm185.153-2.465-.053,0a.462.462,0,0,1-.407-.51c.084-.743.175-1.666.261-2.744a.479.479,0,0,1,.5-.424.461.461,0,0,1,.424.5c-.086,1.089-.179,2.022-.263,2.773A.462.462,0,0,1,607.263,1042.273ZM421.4,1038.316a.461.461,0,0,1-.461-.431c-.057-.855-.106-1.784-.144-2.78a.461.461,0,0,1,.444-.478.472.472,0,0,1,.479.444c.036.985.085,1.906.142,2.753a.462.462,0,0,1-.43.491Zm186.345-2.488h-.018a.462.462,0,0,1-.443-.479c.035-.869.062-1.79.073-2.757a.449.449,0,0,1,.467-.456.462.462,0,0,1,.456.467c-.011.976-.038,1.905-.073,2.783A.462.462,0,0,1,607.743,1035.828Zm-186.559-4.007a.433.433,0,0,1-.462-.427c0-.944.012-1.85.037-2.783a.462.462,0,0,1,.462-.449h.013a.46.46,0,0,1,.449.474c-.025.925-.037,1.822-.037,2.687A.493.493,0,0,1,421.184,1031.821Zm186.611-2.459a.462.462,0,0,1-.462-.45q-.032-1.343-.106-2.759a.461.461,0,1,1,.921-.049q.078,1.428.108,2.784a.461.461,0,0,1-.451.473Zm-186.4-3.969h-.031a.462.462,0,0,1-.43-.491q.089-1.364.225-2.778a.462.462,0,0,1,.919.089q-.137,1.4-.223,2.748A.462.462,0,0,1,421.4,1025.393Zm186.021-2.489a.462.462,0,0,1-.459-.419q-.126-1.35-.3-2.74a.46.46,0,0,1,.4-.516.473.473,0,0,1,.516.4c.119.935.219,1.86.3,2.77a.463.463,0,0,1-.416.5Zm-185.362-3.945a.525.525,0,0,1-.066,0,.462.462,0,0,1-.392-.522q.191-1.364.435-2.753a.462.462,0,1,1,.909.16q-.242,1.372-.43,2.722A.462.462,0,0,1,422.054,1018.96Zm184.515-2.468a.462.462,0,0,1-.454-.383q-.231-1.343-.518-2.705a.462.462,0,1,1,.9-.19q.289,1.375.524,2.738a.461.461,0,0,1-.456.54ZM423.216,1012.6a.445.445,0,0,1-.1-.012.462.462,0,0,1-.347-.552q.307-1.352.674-2.707a.461.461,0,1,1,.891.24q-.361,1.338-.665,2.672A.462.462,0,0,1,423.216,1012.6Zm181.981-2.425a.462.462,0,0,1-.447-.342q-.352-1.322-.763-2.644a.462.462,0,0,1,.882-.274q.417,1.339.774,2.681a.463.463,0,0,1-.327.565A.485.485,0,0,1,605.2,1010.174Zm-180.248-3.8a.475.475,0,0,1-.146-.023.462.462,0,0,1-.292-.583c.294-.885.612-1.77.943-2.627a.462.462,0,1,1,.862.332c-.328.845-.64,1.714-.93,2.586A.462.462,0,0,1,424.948,1006.373Zm178.273-2.35a.461.461,0,0,1-.431-.3c-.325-.853-.676-1.709-1.041-2.542a.462.462,0,1,1,.846-.371c.372.847.727,1.716,1.058,2.585a.462.462,0,0,1-.431.626Zm-175.889-3.654a.452.452,0,0,1-.194-.043.462.462,0,0,1-.224-.613c.39-.84.811-1.681,1.25-2.5a.461.461,0,1,1,.813.436c-.43.8-.843,1.629-1.226,2.454A.461.461,0,0,1,427.332,1000.368Zm173.235-2.235a.46.46,0,0,1-.408-.247c-.429-.813-.883-1.616-1.348-2.385a.461.461,0,1,1,.789-.478c.475.785.937,1.6,1.375,2.433a.462.462,0,0,1-.408.678Zm-170.13-3.425a.466.466,0,0,1-.249-.073.461.461,0,0,1-.139-.638c.5-.786,1.034-1.563,1.581-2.307a.461.461,0,1,1,.744.546c-.535.729-1.054,1.489-1.547,2.259A.461.461,0,0,1,430.437,994.708Zm85.273-.588a.462.462,0,0,1-.221-.867l2.429-1.331a.462.462,0,0,1,.443.81l-2.429,1.331A.456.456,0,0,1,515.71,994.12Zm-3.229-.468a.457.457,0,0,1-.224-.058l-2.419-1.349a.461.461,0,1,1,.449-.806l2.419,1.349a.461.461,0,0,1-.224.864Zm84.687-1.006a.459.459,0,0,1-.374-.191c-.534-.737-1.1-1.465-1.675-2.165a.462.462,0,0,1,.712-.588c.591.715,1.166,1.459,1.712,2.212a.461.461,0,0,1-.375.732Zm-75.79-1.631a.462.462,0,0,1-.222-.867l2.429-1.331a.462.462,0,0,1,.444.81l-2.429,1.331A.456.456,0,0,1,521.378,991.015Zm-14.541-.51a.464.464,0,0,1-.225-.059l-2.419-1.349a.461.461,0,1,1,.45-.806l2.419,1.349a.462.462,0,0,1-.224.865Zm-72.527-.959a.455.455,0,0,1-.3-.115.461.461,0,0,1-.043-.651c.612-.7,1.256-1.386,1.915-2.04a.462.462,0,0,1,.651.655c-.643.64-1.272,1.311-1.871,1.994A.459.459,0,0,1,434.31,989.546Zm92.735-1.637a.462.462,0,0,1-.222-.867l2.429-1.331a.461.461,0,1,1,.443.81l-2.428,1.331A.461.461,0,0,1,527.044,987.909ZM593,987.724a.46.46,0,0,1-.329-.137c-.643-.648-1.312-1.279-1.99-1.872a.461.461,0,1,1,.608-.694c.7.607,1.38,1.253,2.038,1.917a.461.461,0,0,1,0,.653A.455.455,0,0,1,593,987.724Zm-91.809-.367a.459.459,0,0,1-.224-.059l-2.419-1.349a.461.461,0,0,1,.449-.806l2.42,1.349a.462.462,0,0,1-.225.865Zm-62.257-2.3a.462.462,0,0,1-.294-.818c.714-.589,1.46-1.162,2.219-1.7a.461.461,0,1,1,.535.751c-.741.53-1.471,1.089-2.168,1.665A.464.464,0,0,1,438.935,985.053Zm93.777-.25a.461.461,0,0,1-.221-.866l2.429-1.331a.461.461,0,0,1,.443.81l-2.429,1.331A.455.455,0,0,1,532.712,984.8Zm-37.163-.594a.458.458,0,0,1-.224-.058l-2.419-1.35a.461.461,0,1,1,.449-.806l2.419,1.35a.461.461,0,0,1-.224.864Zm92.556-.679a.462.462,0,0,1-.271-.088c-.729-.53-1.492-1.043-2.266-1.527a.461.461,0,0,1,.488-.783c.793.495,1.573,1.021,2.321,1.562a.462.462,0,0,1-.271.836ZM538.379,981.7a.461.461,0,0,1-.222-.866l2.429-1.331a.462.462,0,0,1,.444.81l-2.429,1.33A.456.456,0,0,1,538.379,981.7Zm-94.156-.332a.462.462,0,0,1-.233-.86c.8-.464,1.623-.912,2.459-1.329a.462.462,0,0,1,.414.826c-.82.408-1.629.846-2.408,1.3A.461.461,0,0,1,444.223,981.364Zm45.682-.3a.458.458,0,0,1-.224-.059l-2.419-1.349a.461.461,0,1,1,.449-.806l2.419,1.349a.462.462,0,0,1-.224.865Zm92.7-.886a.461.461,0,0,1-.209-.051c-.8-.405-1.635-.795-2.478-1.158a.461.461,0,0,1,.364-.847c.861.369,1.713.768,2.531,1.183a.462.462,0,0,1-.209.873Zm-38.556-1.584a.461.461,0,0,1-.222-.866l2.429-1.331a.461.461,0,1,1,.443.81l-2.428,1.331A.46.46,0,0,1,544.046,978.591Zm-94.023-.045a.461.461,0,0,1-.171-.89c.848-.338,1.732-.659,2.625-.955a.462.462,0,0,1,.29.877c-.876.289-1.741.6-2.574.935A.459.459,0,0,1,450.022,978.546Zm34.239-.632a.464.464,0,0,1-.225-.059l-.522-.292c-.582-.266-1.246-.528-1.941-.764a.462.462,0,0,1,.3-.874,21.355,21.355,0,0,1,2.062.817l.555.307a.462.462,0,0,1-.224.865Zm92.392-.222a.457.457,0,0,1-.148-.024c-.852-.287-1.734-.557-2.62-.8a.461.461,0,1,1,.245-.89c.9.248,1.8.523,2.67.815a.462.462,0,0,1-.147.9Zm-28.207-1.1a.461.461,0,0,1-.118-.908c.788-.21,1.713-.407,2.749-.589a.462.462,0,1,1,.16.909c-1.009.177-1.908.369-2.673.572A.478.478,0,0,1,548.446,976.59Zm-92.285-.013a.462.462,0,0,1-.112-.909l.356-.088c.757-.184,1.557-.355,2.378-.506a.461.461,0,0,1,.167.908c-.8.149-1.586.316-2.328.5l-.35.085A.421.421,0,0,1,456.161,976.577Zm114.262-.547a.51.51,0,0,1-.092-.008c-.88-.178-1.79-.34-2.7-.479a.461.461,0,1,1,.139-.912c.928.141,1.852.3,2.746.486a.461.461,0,0,1-.09.914Zm-92.271-.149a.427.427,0,0,1-.09-.009c-.861-.172-1.77-.319-2.7-.436a.462.462,0,1,1,.115-.916c.954.12,1.885.27,2.767.447a.461.461,0,0,1-.09.914Zm76.662-.392a.462.462,0,0,1-.051-.92c.928-.105,1.864-.194,2.777-.264a.479.479,0,0,1,.495.425.461.461,0,0,1-.425.5c-.9.069-1.826.157-2.743.261Zm-92.294-.041a.462.462,0,0,1-.052-.92c.917-.1,1.852-.188,2.781-.25a.451.451,0,0,1,.491.43.461.461,0,0,1-.43.491c-.914.061-1.834.144-2.737.247Zm9.219-.319h-.021c-.842-.039-1.689-.058-2.534-.058h-.213a.462.462,0,0,1,0-.923h.216c.86,0,1.722.019,2.577.059a.462.462,0,0,1-.021.923Zm92.3-.029-.038,0c-.715-.057-1.651-.077-2.723-.056h-.008a.462.462,0,0,1-.009-.923c1.109-.021,2.069,0,2.814.059a.462.462,0,0,1-.036.922Z" transform="translate(-4.131 -2.869)" fill="#4d4d4d"/>
      <path id="Trazado_100173" data-name="Trazado 100173" d="M512.089,984.627a2.477,2.477,0,0,1-.5-.054.462.462,0,0,1,.189-.9,1.745,1.745,0,0,0,1.826-.981.462.462,0,1,1,.772.507A2.757,2.757,0,0,1,512.089,984.627Zm17.969-.444a.461.461,0,0,1-.115-.908,3.331,3.331,0,0,0,1.666-1.493l.153-.18a.462.462,0,0,1,.651.655l-.029.028a4.112,4.112,0,0,1-2.213,1.884A.449.449,0,0,1,530.057,984.183Zm12.313-.154a.464.464,0,0,1-.39-.215,13.689,13.689,0,0,0-1.688-2.071.462.462,0,0,1,.654-.652,14.467,14.467,0,0,1,1.815,2.229.462.462,0,0,1-.144.636A.455.455,0,0,1,542.37,984.028Zm-33.721-1.488a.461.461,0,0,1-.325-.135,15.9,15.9,0,0,1-1.828-2.191.462.462,0,0,1,.76-.525,14.951,14.951,0,0,0,1.719,2.061.462.462,0,0,1-.326.789Zm18.329-.03a.458.458,0,0,1-.334-.144c-.58-.608-1.2-1.321-1.844-2.12a.462.462,0,0,1,.719-.58c.628.779,1.231,1.473,1.793,2.063a.462.462,0,0,1-.334.78Zm-25.191-1.174a.462.462,0,0,1-.383-.719c.186-.278.385-.589.593-.935a2.711,2.711,0,0,1,1.479-1.228.461.461,0,1,1,.292.875,1.792,1.792,0,0,0-.979.828c-.218.361-.424.684-.619.974A.459.459,0,0,1,501.787,981.335Zm14.2-1a.462.462,0,0,1-.367-.741l1.674-2.2a.462.462,0,0,1,.736.558l-1.676,2.2A.458.458,0,0,1,515.991,980.331Zm18.875-.339a.461.461,0,0,1-.189-.882,4.182,4.182,0,0,1,3.027-.156.462.462,0,0,1-.274.883,3.25,3.25,0,0,0-2.374.115A.471.471,0,0,1,534.865,979.992Zm-11.915-2.542a.462.462,0,0,1-.358-.169,2.776,2.776,0,0,0-1.966-1.147.466.466,0,0,1-.467-.462.456.456,0,0,1,.456-.462,3.592,3.592,0,0,1,2.692,1.485.462.462,0,0,1-.357.753Z" transform="translate(-10.322 -2.954)" fill="#4d4d4d"/>
      <path id="Trazado_100174" data-name="Trazado 100174" d="M529.306,1096.707c-.684,0-1.349-.008-2-.021a.462.462,0,0,1,.01-.923h.01c.658.014,1.345.013,2.036.021l.719,0h0a.462.462,0,0,1,0,.923l-.727,0Zm-27.729,0a.462.462,0,0,1,0-.923c.956,0,1.878-.023,2.757-.052h.015a.462.462,0,0,1,.016.923q-1.332.046-2.783.053Zm-3.7-.052h-.015q-1.358-.044-2.783-.133a.461.461,0,1,1,.058-.921q1.41.089,2.756.132a.462.462,0,0,1-.016.923Zm35.9-.047a.462.462,0,0,1-.02-.923q1.346-.061,2.754-.165a.461.461,0,1,1,.068.92q-1.419.107-2.781.167Zm-10.155-.069H523.6c-1-.06-1.928-.131-2.777-.207a.463.463,0,0,1-.418-.5.456.456,0,0,1,.5-.418c.84.075,1.76.145,2.749.2a.462.462,0,0,1-.028.922Zm-15.595-.078a.462.462,0,0,1-.033-.922c1-.073,1.923-.155,2.745-.24a.467.467,0,0,1,.507.412.462.462,0,0,1-.411.507c-.831.086-1.759.169-2.773.243Zm-16.6-.241-.049,0q-1.363-.14-2.767-.327a.462.462,0,0,1,.123-.915q1.389.186,2.74.323a.462.462,0,0,1-.047.921Zm48.8-.13a.462.462,0,0,1-.053-.92q1.349-.156,2.734-.36a.461.461,0,0,1,.135.913q-1.4.208-2.762.364A.343.343,0,0,1,540.23,1096.088Zm-23.035-.168a.507.507,0,0,1-.064,0c-.9-.125-1.547-.231-1.893-.292-.167.03-.405.069-.707.117a.461.461,0,1,1-.145-.911c.346-.055.606-.1.768-.129l.082-.015.082.015c.316.056.979.168,1.94.3a.462.462,0,0,1-.063.92Zm-32.169-.6a.48.48,0,0,1-.082-.007q-1.357-.242-2.735-.533a.462.462,0,1,1,.193-.9q1.361.289,2.7.527a.462.462,0,0,1-.08.917Zm61.593-.218a.462.462,0,0,1-.086-.915q1.339-.257,2.7-.567a.455.455,0,0,1,.552.347.461.461,0,0,1-.347.553q-1.372.313-2.726.573A.477.477,0,0,1,546.619,1095.107Zm-67.909-1.165a.435.435,0,0,1-.117-.016q-1.335-.35-2.682-.755a.462.462,0,0,1,.267-.885q1.329.4,2.65.748a.461.461,0,0,1-.117.907Zm74.2-.311a.462.462,0,0,1-.125-.907q1.314-.367,2.638-.788a.461.461,0,1,1,.281.879q-1.338.428-2.669.8A.452.452,0,0,1,552.914,1093.631Zm-80.377-1.6a.467.467,0,0,1-.156-.027q-1.3-.468-2.605-.993a.462.462,0,1,1,.346-.856q1.284.518,2.571.979a.462.462,0,0,1-.156.9Zm86.519-.411a.462.462,0,0,1-.163-.894q1.278-.483,2.555-1.024a.462.462,0,0,1,.361.85q-1.293.548-2.589,1.038A.462.462,0,0,1,559.056,1091.623Zm-92.492-2.052a.45.45,0,0,1-.2-.044q-1.255-.59-2.5-1.241a.462.462,0,0,1,.429-.818q1.224.643,2.462,1.223a.462.462,0,0,1-.2.88Zm98.419-.516a.462.462,0,0,1-.2-.876q1.224-.6,2.438-1.269a.461.461,0,1,1,.443.81c-.8.44-1.632.873-2.473,1.287A.462.462,0,0,1,564.982,1089.055Zm-104.115-2.526a.458.458,0,0,1-.238-.067c-.8-.48-1.591-.983-2.357-1.494a.462.462,0,0,1,.512-.768c.754.5,1.535,1,2.321,1.471a.462.462,0,0,1-.238.858Zm109.753-.624a.462.462,0,0,1-.246-.852c.779-.49,1.55-1,2.289-1.516a.462.462,0,1,1,.529.757c-.753.524-1.535,1.042-2.326,1.541A.468.468,0,0,1,570.62,1085.9Zm-115.1-3a.46.46,0,0,1-.28-.094c-.74-.563-1.473-1.149-2.18-1.74a.462.462,0,1,1,.593-.708c.7.583,1.417,1.16,2.145,1.713a.462.462,0,0,1-.279.829Zm120.368-.729a.461.461,0,0,1-.287-.823c.716-.569,1.427-1.16,2.11-1.757a.462.462,0,1,1,.607.7c-.7.607-1.416,1.207-2.145,1.784A.458.458,0,0,1,575.891,1082.177Zm-125.284-3.455a.458.458,0,0,1-.318-.127c-.677-.645-1.34-1.308-1.974-1.97a.462.462,0,0,1,.668-.638c.623.652,1.278,1.3,1.942,1.94a.461.461,0,0,1-.319.8Zm130.113-.827a.462.462,0,0,1-.325-.789c.648-.643,1.288-1.307,1.9-1.978a.461.461,0,1,1,.679.623c-.624.682-1.276,1.358-1.933,2.01A.463.463,0,0,1,580.719,1077.894Zm-134.534-3.873a.46.46,0,0,1-.352-.164c-.589-.7-1.177-1.428-1.749-2.172a.462.462,0,1,1,.732-.562c.562.733,1.142,1.452,1.721,2.14a.461.461,0,0,1-.353.759Zm138.861-.915a.461.461,0,0,1-.359-.751c.574-.709,1.138-1.44,1.678-2.173a.462.462,0,1,1,.743.547c-.548.745-1.122,1.487-1.7,2.206A.458.458,0,0,1,585.046,1073.106Zm-142.752-4.234a.458.458,0,0,1-.382-.2q-.771-1.141-1.51-2.342a.461.461,0,0,1,.786-.483q.728,1.184,1.489,2.307a.462.462,0,0,1-.382.721Zm146.542-.989a.461.461,0,0,1-.387-.713q.738-1.137,1.445-2.335a.462.462,0,0,1,.8.468q-.717,1.216-1.467,2.369A.46.46,0,0,1,588.836,1067.884Zm-149.885-4.531a.462.462,0,0,1-.407-.243q-.652-1.209-1.274-2.475a.462.462,0,0,1,.83-.407q.612,1.25,1.257,2.445a.461.461,0,0,1-.187.625A.456.456,0,0,1,438.951,1063.353Zm153.127-1.048a.466.466,0,0,1-.213-.052.461.461,0,0,1-.2-.622q.624-1.2,1.216-2.465a.462.462,0,0,1,.836.392q-.6,1.277-1.232,2.5A.462.462,0,0,1,592.078,1062.305Zm-155.933-4.765a.462.462,0,0,1-.425-.28q-.539-1.263-1.049-2.578a.462.462,0,0,1,.861-.333q.5,1.3,1.037,2.547a.462.462,0,0,1-.243.607A.453.453,0,0,1,436.145,1057.541Zm158.64-1.093a.448.448,0,0,1-.174-.035.462.462,0,0,1-.253-.6q.515-1.256,1-2.564a.462.462,0,0,1,.866.32q-.49,1.324-1.01,2.593A.461.461,0,0,1,594.786,1056.447Zm-160.933-4.94a.462.462,0,0,1-.438-.315q-.438-1.3-.842-2.652a.462.462,0,0,1,.885-.264q.4,1.335.832,2.623a.461.461,0,0,1-.291.584A.453.453,0,0,1,433.853,1051.507Zm163.136-1.127a.436.436,0,0,1-.14-.022.461.461,0,0,1-.3-.58q.414-1.293.8-2.637a.461.461,0,1,1,.887.254q-.388,1.356-.8,2.663A.463.463,0,0,1,596.989,1050.38Zm-164.959-5.066a.462.462,0,0,1-.447-.347l-.2-.781c0-.019-.146-.726-.329-1.989a.462.462,0,1,1,.914-.133c.176,1.225.314,1.914.316,1.921l.189.753a.461.461,0,0,1-.333.56A.444.444,0,0,1,432.031,1045.315Zm166.7-1.154a.429.429,0,0,1-.112-.015.461.461,0,0,1-.337-.558c.11-.44.331-1.374.578-2.684a.462.462,0,1,1,.907.171c-.251,1.333-.477,2.287-.589,2.736A.463.463,0,0,1,598.735,1044.161Zm-167.653-5.236a.461.461,0,0,1-.459-.418c-.079-.85-.153-1.78-.212-2.778a.46.46,0,0,1,.432-.487.469.469,0,0,1,.489.433c.059.986.131,1.906.21,2.746a.463.463,0,0,1-.416.5A.358.358,0,0,1,431.083,1038.924ZM599.9,1037.8c-.02,0-.042,0-.061,0a.462.462,0,0,1-.4-.519c.114-.849.219-1.764.308-2.735a.462.462,0,0,1,.919.085c-.091.983-.2,1.91-.312,2.771A.463.463,0,0,1,599.9,1037.8Zm-169.168-5.331a.461.461,0,0,1-.462-.454q-.01-.618-.01-1.256,0-.752.015-1.531a.462.462,0,0,1,.462-.452h.009a.461.461,0,0,1,.452.47q-.015.768-.015,1.513c0,.421,0,.834.01,1.242a.461.461,0,0,1-.454.468Zm169.723-1.108h-.019a.462.462,0,0,1-.442-.48c.035-.867.054-1.763.054-2.681a.493.493,0,0,1,.462-.5.433.433,0,0,1,.462.427c0,1-.019,1.908-.055,2.787A.463.463,0,0,1,600.457,1031.363Zm-169.56-5.354h-.032a.461.461,0,0,1-.429-.492c.062-.911.14-1.838.241-2.779a.461.461,0,0,1,.918.1c-.1.928-.177,1.845-.237,2.744A.461.461,0,0,1,430.9,1026.009Zm169.5-1.108a.462.462,0,0,1-.461-.434c-.054-.919-.13-1.841-.225-2.741a.46.46,0,0,1,.41-.507.452.452,0,0,1,.508.41c.1.915.174,1.851.229,2.783a.46.46,0,0,1-.433.488Zm-168.777-5.316a.406.406,0,0,1-.075-.005.461.461,0,0,1-.381-.53c.151-.929.321-1.852.51-2.746a.461.461,0,0,1,.9.189c-.184.88-.353,1.789-.5,2.7A.461.461,0,0,1,431.625,1019.585Zm168.036-1.1a.461.461,0,0,1-.454-.382c-.159-.908-.343-1.813-.547-2.69a.462.462,0,0,1,.9-.21c.208.894.4,1.816.557,2.74a.465.465,0,0,1-.455.542ZM433,1013.272a.481.481,0,0,1-.124-.017.461.461,0,0,1-.32-.569c.25-.9.527-1.8.822-2.671a.462.462,0,0,1,.875.3c-.291.857-.562,1.739-.808,2.623A.462.462,0,0,1,433,1013.272Zm165.132-1.066a.461.461,0,0,1-.44-.322c-.279-.878-.584-1.748-.91-2.585a.462.462,0,1,1,.86-.334c.332.855.645,1.744.93,2.64a.461.461,0,0,1-.3.579A.44.44,0,0,1,598.136,1012.205Zm-82.9-1.407a10.1,10.1,0,0,1-2.184-.239.462.462,0,1,1,.2-.9,9.125,9.125,0,0,0,2.621.195.462.462,0,0,1,.063.922Q515.592,1010.8,515.24,1010.8Zm4.212-.977a.462.462,0,0,1-.2-.875,9.021,9.021,0,0,0,2.161-1.491,3.834,3.834,0,0,0,.577-.688.461.461,0,0,1,.768.511,4.715,4.715,0,0,1-.715.852,9.952,9.952,0,0,1-2.384,1.643A.457.457,0,0,1,519.452,1009.822Zm-9.66-.717a.459.459,0,0,1-.261-.08,10.047,10.047,0,0,1-1.092-.871,6.148,6.148,0,0,1-.991-1.186.461.461,0,1,1,.772-.506,5.23,5.23,0,0,0,.844,1.012,8.937,8.937,0,0,0,.99.789.461.461,0,0,1-.261.842Zm-74.654-1.928a.462.462,0,0,1-.425-.644c.368-.859.767-1.712,1.184-2.535a.462.462,0,1,1,.824.417c-.409.806-.8,1.641-1.159,2.482A.464.464,0,0,1,435.137,1007.177Zm160.59-.96a.459.459,0,0,1-.413-.256c-.408-.819-.846-1.628-1.3-2.4a.462.462,0,0,1,.8-.469c.469.8.918,1.624,1.334,2.461a.461.461,0,0,1-.413.667Zm-71.959-2.137a.462.462,0,0,1-.439-.6,19.227,19.227,0,0,1,1.024-2.644.462.462,0,1,1,.826.413,18.3,18.3,0,0,0-.972,2.517A.463.463,0,0,1,523.768,1004.079Zm-17.494-.245a.461.461,0,0,1-.428-.29,22.624,22.624,0,0,0-1.119-2.471.462.462,0,0,1,.81-.444,23.524,23.524,0,0,1,1.166,2.571.46.46,0,0,1-.428.633Zm-68.147-2.38a.468.468,0,0,1-.246-.07.463.463,0,0,1-.144-.637c.5-.793,1.03-1.571,1.579-2.314a.462.462,0,0,1,.743.548c-.535.725-1.054,1.484-1.541,2.258A.46.46,0,0,1,438.127,1001.455Zm154.25-.752a.458.458,0,0,1-.372-.188c-.537-.734-1.11-1.454-1.7-2.14a.462.462,0,0,1,.7-.6c.6.7,1.19,1.443,1.741,2.2a.46.46,0,0,1-.372.734ZM527.107,998.7a.462.462,0,0,1-.271-.836,15.384,15.384,0,0,1,2.478-1.414.462.462,0,0,1,.393.836,14.387,14.387,0,0,0-2.328,1.326A.458.458,0,0,1,527.107,998.7Zm-24.291-.226a.456.456,0,0,1-.293-.105,15.745,15.745,0,0,0-2.233-1.494.462.462,0,1,1,.456-.8,16.541,16.541,0,0,1,2.363,1.584.462.462,0,0,1-.294.818Zm-60.788-2.151a.462.462,0,0,1-.342-.773c.629-.689,1.292-1.36,1.969-1.994a.462.462,0,0,1,.631.674c-.661.619-1.306,1.272-1.918,1.942A.458.458,0,0,1,442.028,996.318Zm90.885-.428a.462.462,0,0,1-.174-.89c.823-.334,1.7-.7,2.514-1.092a.462.462,0,0,1,.4.831c-.841.406-1.731.777-2.568,1.117A.462.462,0,0,1,532.913,995.89Zm55.206-.03a.462.462,0,0,1-.318-.127c-.654-.622-1.343-1.231-2.048-1.807a.462.462,0,0,1,.584-.715c.723.592,1.429,1.215,2.1,1.854a.461.461,0,0,1-.318.8Zm-90.893-.6a.459.459,0,0,1-.2-.045l-.262-.126c-.735-.352-1.485-.712-2.237-1.09a.461.461,0,1,1,.415-.824c.747.376,1.492.733,2.221,1.082l.261.125a.461.461,0,0,1-.2.878Zm41.361-2.411a.462.462,0,0,1-.267-.838q1.138-.806,2.313-1.563a.462.462,0,0,1,.5.776q-1.155.745-2.279,1.54A.46.46,0,0,1,538.587,992.844Zm-47.08-.592a.453.453,0,0,1-.245-.071c-.518-.325-1.011-.659-1.466-.994q-.411-.3-.829-.585a.462.462,0,0,1,.52-.763q.431.294.855.6c.438.322.912.643,1.411.956a.462.462,0,0,1-.246.853Zm-44.713-.273a.461.461,0,0,1-.278-.83c.738-.556,1.512-1.093,2.3-1.6a.461.461,0,0,1,.5.778c-.77.491-1.524,1.014-2.243,1.556A.46.46,0,0,1,446.794,991.979Zm136.29-.147a.459.459,0,0,1-.257-.078c-.747-.5-1.528-.989-2.321-1.446a.462.462,0,0,1,.462-.8c.811.469,1.61.966,2.374,1.479a.461.461,0,0,1-.258.845Zm-39.036-2.443a.461.461,0,0,1-.224-.864c.827-.462,1.659-.9,2.472-1.3a.462.462,0,1,1,.407.829c-.8.392-1.616.822-2.431,1.275A.457.457,0,0,1,544.048,989.39Zm-57.989-.6a.469.469,0,0,1-.213-.052c-.794-.413-1.627-.8-2.473-1.155a.461.461,0,0,1,.354-.851c.871.363,1.727.763,2.544,1.186a.462.462,0,0,1-.212.872Zm91.41-.129a.461.461,0,0,1-.2-.043c-.811-.383-1.656-.751-2.511-1.095a.462.462,0,0,1,.344-.857c.872.351,1.733.727,2.559,1.116a.461.461,0,0,1-.2.879Zm-125.2-.079a.461.461,0,0,1-.208-.873c.823-.416,1.678-.81,2.542-1.171a.461.461,0,1,1,.356.85c-.843.354-1.677.739-2.482,1.144A.456.456,0,0,1,452.272,988.583Zm97.6-1.976a.462.462,0,0,1-.17-.892c.892-.351,1.779-.667,2.639-.939a.461.461,0,1,1,.279.88c-.84.266-1.708.575-2.579.919A.452.452,0,0,1,549.872,986.607Zm-69.8-.226a.469.469,0,0,1-.132-.019c-.861-.258-1.753-.491-2.649-.691a.462.462,0,1,1,.2-.9c.918.2,1.83.444,2.711.708a.462.462,0,0,1-.133.9Zm91.394-.078a.45.45,0,0,1-.142-.023c-.857-.276-1.742-.539-2.631-.779a.461.461,0,0,1,.241-.891c.9.244,1.8.511,2.674.792a.462.462,0,0,1-.141.9Zm-113.221-.151a.461.461,0,0,1-.14-.9c.869-.279,1.772-.537,2.685-.771a.462.462,0,0,1,.229.895c-.9.228-1.781.483-2.633.755A.466.466,0,0,1,458.245,986.152Zm15.513-1.114a.459.459,0,0,1-.062,0c-.9-.118-1.813-.209-2.727-.272a.463.463,0,0,1-.429-.492.456.456,0,0,1,.492-.429c.933.064,1.871.158,2.785.279a.462.462,0,0,1-.059.919Zm-9.216-.237a.461.461,0,0,1-.039-.921c.9-.078,1.841-.125,2.8-.139a.473.473,0,0,1,.469.455.461.461,0,0,1-.454.468c-.936.015-1.857.06-2.734.136Zm91.511-.046a.461.461,0,0,1-.088-.914c.941-.187,1.878-.324,2.783-.411a.461.461,0,1,1,.089.919c-.876.084-1.783.218-2.694.4A.431.431,0,0,1,556.053,984.754Zm9.171-.1a.426.426,0,0,1-.09-.009l.09-.452-.093.451a19.348,19.348,0,0,0-2.678-.363.461.461,0,0,1-.431-.491.478.478,0,0,1,.49-.43,20.12,20.12,0,0,1,2.793.378.468.468,0,0,1,.365.546A.458.458,0,0,1,565.224,984.657Z" transform="translate(-4.864 -3.58)" fill="#4d4d4d"/>
      <path id="Trazado_100175" data-name="Trazado 100175" d="M453.305,1126.273a46.143,46.143,0,0,1-20.56-4.643c-.231-.117-22.212-11.563-21.468-40.109.036-1.379,0-3.045-.032-4.81a86.843,86.843,0,0,1,.442-13.274c.841-6.126-2.415-15.694-2.447-15.79-.059-.173-5.884-17.175-10.749-25.02-4.91-7.919-6.1-19.011-6.24-26.923-.083-4.828,2.208-19.9,13.657-31.508,9.547-9.68,23.015-14.587,40.032-14.587h.3l20.872,1.621c.354.064,35.375,6.379,45.388,6.566l45.846-6.571,20.839-1.616c17.2-.061,30.73,4.85,40.334,14.588,11.448,11.608,13.737,26.679,13.654,31.507-.136,7.911-1.328,19-6.239,26.923-4.865,7.845-10.69,24.848-10.749,25.018-.033.1-3.289,9.666-2.447,15.792a86.956,86.956,0,0,1,.442,13.274c-.035,1.764-.068,3.431-.032,4.81.744,28.546-21.237,39.992-21.459,40.1-28.113,13.812-58.924-7.56-59.231-7.777a35.052,35.052,0,0,0-20.691-7.07h-.109A34.886,34.886,0,0,0,492,1113.823C491.743,1114.006,474.063,1126.273,453.305,1126.273Zm-7.418-174.82c-16.444,0-29.474,4.722-38.665,14.04-11,11.153-13.2,25.568-13.124,30.18.132,7.679,1.274,18.419,5.963,25.981,4.974,8.024,10.685,24.69,10.926,25.4.139.406,3.432,10.076,2.53,16.641a84.162,84.162,0,0,0-.425,12.985c.035,1.786.069,3.474.032,4.895-.714,27.391,20.234,38.3,20.445,38.408,27.1,13.318,57.035-7.426,57.333-7.637a36.976,36.976,0,0,1,21.773-7.408l.114,0a36.962,36.962,0,0,1,21.771,7.431c.264.186,30.2,20.929,57.307,7.607.2-.1,21.149-11.059,20.437-38.4-.037-1.421,0-3.108.032-4.895a84.166,84.166,0,0,0-.425-12.985c-.9-6.565,2.389-16.234,2.53-16.643.24-.7,5.951-17.368,10.926-25.392,4.689-7.564,5.831-18.3,5.962-25.981.08-4.611-2.121-19.023-13.122-30.178-9.188-9.317-22.214-14.039-38.72-14.039h-.26l-20.678,1.6-45.931,6.586h-.074c-9.975-.159-43.7-6.226-45.712-6.589l-20.665-1.6Z" transform="translate(-1.944 -0.987)"/>
      <path id="Trazado_100176" data-name="Trazado 100176" d="M607.607,1141.677a8.857,8.857,0,0,1-2.162-.278c-2.274-.575-4.144-1.93-4.765-3.452l-.381-.932.961-.3a33.815,33.815,0,0,0,6.027-2.624c2.731-1.592,5.384-3.562,5.411-3.581l.843-.628.514.918a11.466,11.466,0,0,1,.722,3.984c.067,2.777-2.238,4.891-2.946,5.473h0A6.578,6.578,0,0,1,607.607,1141.677Zm-4.622-3.6a6.654,6.654,0,0,0,2.912,1.531,5.356,5.356,0,0,0,4.761-.777,5.61,5.61,0,0,0,2.272-4,14.018,14.018,0,0,0-.214-2.058c-1.052.741-2.743,1.89-4.5,2.915A33.6,33.6,0,0,1,602.985,1138.077Zm8.259,1.468h0Z" transform="translate(-17.924 -14.834)"/>
      <path id="Trazado_100177" data-name="Trazado 100177" d="M435.845,1141.677a6.572,6.572,0,0,1-4.223-1.419h0c-.709-.582-3.014-2.7-2.947-5.472a11.622,11.622,0,0,1,.722-3.983l.511-.92.845.629c.028.019,2.682,1.99,5.412,3.581a33.852,33.852,0,0,0,6.026,2.624l.961.3-.38.932c-.621,1.521-2.492,2.877-4.765,3.452A8.857,8.857,0,0,1,435.845,1141.677Zm-5.109-8.9a14.018,14.018,0,0,0-.214,2.058,5.613,5.613,0,0,0,2.272,4h0a5.359,5.359,0,0,0,4.76.777,6.663,6.663,0,0,0,2.913-1.531,33.593,33.593,0,0,1-5.232-2.389C433.479,1134.663,431.79,1133.515,430.736,1132.773Z" transform="translate(-4.742 -14.834)"/>
      <g id="Grupo_53455" data-name="Grupo 53455" transform="translate(378.311 1148.748)">
        <path id="Trazado_100178" data-name="Trazado 100178" d="M526.742,1346.99h-4.616V1343.3h4.616Zm0-8.309h-4.616v-3.693h4.616Zm0-8.309h-4.616v-3.693h4.616Zm0-8.309h-4.616v-3.693h4.616Zm0-8.309h-4.616v-3.693h4.616Zm0-8.309h-4.616v-3.693h4.616Zm0-8.309h-4.616v-3.693h4.616Zm0-8.309h-4.616v-3.693h4.616Zm0-8.309h-4.616v-3.693h4.616Zm0-8.309h-4.616v-3.693h4.616Zm0-8.309h-4.616v-3.693h4.616Zm0-8.309h-4.616V1251.9h4.616Zm0-8.309h-4.616v-3.693h4.616Zm0-8.309h-4.616v-3.693h4.616Zm0-8.309h-4.616v-3.693h4.616Zm0-8.309h-4.616v-3.693h4.616Zm0-8.309h-4.616v-3.693h4.616Zm0-8.309h-4.616v-3.693h4.616Zm0-8.309h-4.616v-3.693h4.616Zm0-8.309h-4.616v-3.693h4.616Zm0-8.309h-4.616v-3.693h4.616Zm0-8.309h-4.616v-3.693h4.616Z" transform="translate(-390.231 -1166.573)" fill="#ff1d25"/>
        <path id="Trazado_100179" data-name="Trazado 100179" d="M640.52,1277.12h-3.693V1272.5h3.693Zm-8.309,0h-3.693V1272.5h3.693Zm-8.309,0H620.21V1272.5H623.9Zm-8.309,0H611.9V1272.5h3.693Zm-8.309,0h-3.693V1272.5h3.693Zm-8.309,0h-3.693V1272.5h3.693Zm-8.309,0h-3.693V1272.5h3.693Zm-8.309,0h-3.693V1272.5h3.693Zm-8.309,0h-3.693V1272.5h3.693Zm-8.309,0h-3.693V1272.5h3.693Zm-8.309,0H553.74V1272.5h3.693Zm-8.309,0h-3.693V1272.5h3.693Zm-8.309,0h-3.693V1272.5h3.693Zm-8.309,0h-3.693V1272.5h3.693Zm-8.309,0h-3.693V1272.5H524.2Zm-8.309,0H512.2V1272.5h3.693Zm-8.309,0h-3.693V1272.5h3.693Zm-8.309,0h-3.693V1272.5h3.693Zm-8.309,0H487.27V1272.5h3.693Zm-8.309,0h-3.693V1272.5h3.693Zm-8.309,0h-3.693V1272.5h3.693Zm-8.309,0h-3.693V1272.5h3.693Zm-8.309,0h-3.693V1272.5h3.693Zm-8.309,0h-3.693V1272.5h3.693Zm-8.309,0h-3.693V1272.5h3.693Zm-8.309,0h-3.693V1272.5H432.8Zm-8.309,0H420.8V1272.5h3.693Zm-8.309,0h-3.693V1272.5h3.693Zm-8.309,0h-3.693V1272.5h3.693Zm-8.309,0h-3.693V1272.5h3.693Zm-8.309,0h-3.693V1272.5h3.693Zm-8.309,0h-3.693V1272.5h3.693Z" transform="translate(-379.257 -1174.537)" fill="#ff1d25"/>
        <path id="Trazado_100180" data-name="Trazado 100180" d="M531.724,1323.421q-.645,0-1.268-.008a.462.462,0,0,1-.456-.466.444.444,0,0,1,.467-.457c.885.011,1.809.012,2.758,0h.007a.462.462,0,0,1,.007.923Q532.469,1323.421,531.724,1323.421Zm-30.694-.01h-.006c-.9-.012-1.832-.038-2.783-.078a.463.463,0,0,1-.443-.481.443.443,0,0,1,.481-.441q1.417.058,2.758.077a.462.462,0,0,1-.006.923Zm3.694-.016a.462.462,0,0,1-.01-.923q1.443-.032,2.757-.1a.462.462,0,0,1,.044.922q-1.322.067-2.781.1Zm22.047-.095h-.023c-.988-.049-1.916-.109-2.778-.176a.46.46,0,0,1-.424-.5.47.47,0,0,1,.5-.425c.854.067,1.774.127,2.752.175a.462.462,0,0,1-.023.923Zm10.157-.014a.461.461,0,0,1-.025-.922q1.35-.071,2.754-.183a.462.462,0,0,1,.074.92q-1.415.114-2.779.185Zm-42.357-.176-.038,0q-1.364-.108-2.774-.262a.462.462,0,0,1,.1-.918q1.4.152,2.747.26a.462.462,0,0,1-.036.922Zm16.605-.068a.462.462,0,0,1-.04-.922c1.031-.091,1.949-.19,2.741-.286a.462.462,0,0,1,.11.918c-.8.1-1.728.2-2.77.289Zm9.154-.279a.368.368,0,0,1-.055,0c-1.237-.149-2.175-.291-2.764-.388a.461.461,0,1,1,.15-.91c.581.1,1.506.234,2.724.381a.462.462,0,0,1-.055.92Zm23.038-.029a.462.462,0,0,1-.053-.921q1.349-.161,2.732-.369a.467.467,0,0,1,.525.387.46.46,0,0,1-.387.525q-1.4.212-2.76.375A.546.546,0,0,1,543.368,1322.735Zm-55.223-.36a.6.6,0,0,1-.069,0q-1.361-.205-2.748-.458a.462.462,0,0,1,.166-.909q1.372.252,2.719.452a.462.462,0,0,1-.067.919Zm61.612-.64a.462.462,0,0,1-.087-.915q1.338-.26,2.695-.57a.454.454,0,0,1,.553.346.461.461,0,0,1-.346.553q-1.371.316-2.725.577A.424.424,0,0,1,549.757,1321.735Zm-67.966-.557a.444.444,0,0,1-.1-.012q-1.347-.306-2.706-.666a.462.462,0,0,1,.236-.893q1.343.356,2.675.659a.461.461,0,0,1-.1.911Zm74.26-.924a.462.462,0,0,1-.124-.907q1.316-.365,2.638-.784a.462.462,0,0,1,.28.88q-1.339.424-2.671.794A.485.485,0,0,1,556.05,1320.254Zm-80.5-.767a.455.455,0,0,1-.138-.021q-1.32-.417-2.642-.888a.462.462,0,0,1,.31-.87q1.306.467,2.61.878a.461.461,0,0,1-.139.9Zm86.644-1.226a.461.461,0,0,1-.162-.893q1.281-.478,2.559-1.012a.462.462,0,0,1,.356.852q-1.295.541-2.592,1.025A.472.472,0,0,1,562.2,1318.261Zm-92.715-.988a.463.463,0,0,1-.177-.036q-1.278-.532-2.552-1.124a.462.462,0,0,1,.39-.837q1.255.584,2.518,1.109a.462.462,0,0,1-.178.888Zm98.658-1.544a.462.462,0,0,1-.2-.878q1.23-.594,2.45-1.247a.462.462,0,1,1,.437.813q-1.237.663-2.485,1.266A.458.458,0,0,1,568.139,1315.729Zm-104.494-1.221a.457.457,0,0,1-.217-.054q-1.224-.652-2.433-1.367a.462.462,0,1,1,.471-.794q1.19.7,2.4,1.347a.461.461,0,0,1-.217.869Zm110.164-1.872a.461.461,0,0,1-.241-.855q1.163-.713,2.312-1.487a.462.462,0,0,1,.516.765q-1.165.785-2.346,1.508A.456.456,0,0,1,573.809,1312.636Zm-115.7-1.455a.457.457,0,0,1-.258-.078c-.767-.517-1.534-1.058-2.278-1.609a.462.462,0,0,1,.549-.742c.732.543,1.487,1.076,2.243,1.586a.461.461,0,0,1-.258.844Zm121.022-2.2a.462.462,0,0,1-.282-.828c.727-.558,1.448-1.137,2.141-1.721a.462.462,0,1,1,.6.706c-.7.593-1.437,1.181-2.174,1.747A.458.458,0,0,1,579.132,1308.983ZM452.954,1307.3a.457.457,0,0,1-.3-.108c-.711-.6-1.416-1.216-2.1-1.842a.462.462,0,1,1,.626-.679c.668.616,1.363,1.226,2.062,1.813a.461.461,0,0,1-.3.815Zm131.084-2.509a.462.462,0,0,1-.318-.8c.656-.624,1.311-1.277,1.946-1.939a.462.462,0,0,1,.667.64c-.645.672-1.309,1.334-1.976,1.967A.461.461,0,0,1,584.038,1304.789Zm-135.8-1.9a.463.463,0,0,1-.333-.141c-.635-.66-1.27-1.352-1.886-2.054a.462.462,0,0,1,.694-.608c.607.692,1.232,1.372,1.857,2.023a.462.462,0,0,1-.013.653A.457.457,0,0,1,448.238,1302.889ZM588.47,1300.1a.462.462,0,0,1-.352-.761c.59-.694,1.172-1.412,1.73-2.132a.462.462,0,0,1,.73.565c-.567.731-1.158,1.46-1.757,2.165A.461.461,0,0,1,588.47,1300.1Zm-144.454-2.09a.459.459,0,0,1-.364-.178q-.848-1.088-1.662-2.237a.461.461,0,1,1,.751-.534q.8,1.133,1.639,2.205a.461.461,0,0,1-.365.744Zm148.372-3.037a.462.462,0,0,1-.38-.723q.77-1.12,1.507-2.3a.461.461,0,1,1,.782.489q-.748,1.2-1.528,2.33A.461.461,0,0,1,592.388,1294.97Zm-152.069-2.251a.461.461,0,0,1-.391-.216q-.733-1.166-1.432-2.389a.461.461,0,1,1,.8-.459q.691,1.208,1.413,2.358a.461.461,0,0,1-.391.706Zm155.459-3.24a.461.461,0,0,1-.4-.685q.658-1.188,1.284-2.431a.462.462,0,1,1,.824.416q-.634,1.259-1.3,2.462A.459.459,0,0,1,595.778,1289.478ZM437.149,1287.1a.462.462,0,0,1-.413-.254q-.619-1.228-1.207-2.508a.461.461,0,1,1,.838-.385q.582,1.264,1.193,2.478a.461.461,0,0,1-.2.62A.447.447,0,0,1,437.149,1287.1Zm161.5-3.4a.446.446,0,0,1-.186-.04.46.46,0,0,1-.235-.608q.55-1.242,1.07-2.534a.461.461,0,1,1,.856.343q-.525,1.309-1.082,2.565A.46.46,0,0,1,598.645,1283.7Zm-164.153-2.481a.46.46,0,0,1-.428-.29q-.512-1.274-.994-2.6a.461.461,0,1,1,.867-.316q.476,1.31.984,2.57a.462.462,0,0,1-.257.6A.468.468,0,0,1,434.493,1281.216Zm166.524-3.523a.437.437,0,0,1-.152-.026.46.46,0,0,1-.283-.588q.449-1.282.868-2.612a.462.462,0,1,1,.881.277q-.422,1.343-.878,2.64A.46.46,0,0,1,601.017,1277.693Zm-168.7-2.555a.46.46,0,0,1-.439-.323q-.414-1.31-.8-2.664a.462.462,0,0,1,.889-.252q.379,1.342.788,2.639a.461.461,0,0,1-.44.6Zm170.606-3.612a.463.463,0,0,1-.445-.583q.283-1.047.548-2.124h0s.029-.186.075-.513a.468.468,0,0,1,.52-.393.463.463,0,0,1,.394.521c-.052.371-.084.568-.084.568-.186.761-.371,1.477-.562,2.183A.462.462,0,0,1,602.924,1271.525Zm-172.288-2.619a.462.462,0,0,1-.456-.4c-.065-.455-.192-1.42-.321-2.774a.462.462,0,0,1,.416-.5.469.469,0,0,1,.5.415c.126,1.336.252,2.285.316,2.732a.461.461,0,0,1-.392.522A.388.388,0,0,1,430.636,1268.906Zm173.319-3.748-.04,0a.462.462,0,0,1-.421-.5c.068-.817.133-1.738.185-2.749a.448.448,0,0,1,.484-.438.462.462,0,0,1,.438.484c-.052,1.021-.116,1.953-.187,2.779A.46.46,0,0,1,603.955,1265.158Zm-173.906-2.688a.462.462,0,0,1-.461-.437c-.045-.865-.082-1.8-.1-2.782a.462.462,0,0,1,.451-.472.477.477,0,0,1,.472.45c.021.978.058,1.9.1,2.755a.462.462,0,0,1-.436.486Zm174.207-3.768h-.006a.461.461,0,0,1-.456-.468c0-.354.006-.716.006-1.084q0-.817-.015-1.674a.463.463,0,0,1,.452-.47h.009a.462.462,0,0,1,.462.453q.015.864.015,1.69,0,.557-.006,1.1A.462.462,0,0,1,604.256,1258.7Zm-174.32-2.694h-.008a.462.462,0,0,1-.453-.47c.016-.9.044-1.831.091-2.785a.442.442,0,0,1,.483-.44.462.462,0,0,1,.439.484q-.068,1.419-.09,2.757A.462.462,0,0,1,429.937,1256.008Zm174.167-3.772a.463.463,0,0,1-.461-.435c-.052-.9-.12-1.815-.208-2.748a.462.462,0,0,1,.417-.5.468.468,0,0,1,.5.417q.132,1.417.21,2.78a.461.461,0,0,1-.433.488Zm-173.82-2.687-.043,0a.463.463,0,0,1-.418-.5q.125-1.364.3-2.771a.462.462,0,1,1,.917.115q-.174,1.389-.3,2.74A.462.462,0,0,1,430.284,1249.549Zm173.19-3.751a.462.462,0,0,1-.456-.4q-.187-1.347-.427-2.721a.461.461,0,1,1,.908-.161q.245,1.389.433,2.755a.461.461,0,0,1-.394.521A.485.485,0,0,1,603.474,1245.8Zm-172.345-2.659a.479.479,0,0,1-.08-.007.461.461,0,0,1-.375-.535q.238-1.36.534-2.738a.462.462,0,0,1,.9.195q-.292,1.358-.528,2.7A.46.46,0,0,1,431.128,1243.14Zm171.179-3.7a.463.463,0,0,1-.45-.357q-.309-1.331-.679-2.666a.461.461,0,1,1,.889-.248q.377,1.354.689,2.705a.461.461,0,0,1-.345.554A.453.453,0,0,1,602.308,1239.439Zm-169.768-2.608a.479.479,0,0,1-.124-.016.461.461,0,0,1-.321-.568c.251-.907.523-1.806.805-2.673a.462.462,0,0,1,.878.287c-.279.854-.546,1.74-.794,2.633A.461.461,0,0,1,432.54,1236.831Zm167.986-3.6a.461.461,0,0,1-.437-.31c-.3-.866-.625-1.731-.966-2.571a.461.461,0,1,1,.855-.347c.347.854.678,1.735.983,2.615a.463.463,0,0,1-.284.588A.482.482,0,0,1,600.526,1233.227ZM434.6,1230.709a.48.48,0,0,1-.174-.033.463.463,0,0,1-.255-.6c.349-.866.725-1.728,1.118-2.563a.461.461,0,1,1,.835.391c-.385.82-.753,1.666-1.1,2.517A.463.463,0,0,1,434.6,1230.709Zm163.437-3.444a.464.464,0,0,1-.414-.256c-.409-.827-.843-1.641-1.29-2.42a.462.462,0,0,1,.8-.459c.455.795.9,1.625,1.316,2.468a.46.46,0,0,1-.414.667Zm-160.632-2.374a.457.457,0,0,1-.229-.061.463.463,0,0,1-.173-.63c.462-.81.955-1.613,1.462-2.385a.462.462,0,0,1,.772.507c-.5.757-.979,1.542-1.431,2.335A.464.464,0,0,1,437.408,1224.891Zm79.683-1.78-1.121-.624a.462.462,0,1,1,.449-.807l.675.376,1.3-.715a.462.462,0,0,1,.443.81Zm77.677-1.411a.462.462,0,0,1-.379-.2c-.523-.754-1.073-1.491-1.634-2.192a.461.461,0,1,1,.719-.578c.576.717,1.138,1.472,1.674,2.243a.462.462,0,0,1-.379.725Zm-81.8-.954a.458.458,0,0,1-.224-.059l-2.42-1.349a.461.461,0,0,1,.45-.806l2.419,1.349a.462.462,0,0,1-.224.865Zm8.888-.312a.462.462,0,0,1-.222-.867l2.429-1.331a.462.462,0,0,1,.444.81l-2.429,1.331A.455.455,0,0,1,521.859,1220.434Zm-80.836-.89a.462.462,0,0,1-.361-.749c.579-.727,1.192-1.442,1.822-2.125a.461.461,0,1,1,.678.626c-.615.667-1.212,1.365-1.778,2.074A.46.46,0,0,1,441.022,1219.544Zm66.3-1.946a.457.457,0,0,1-.224-.058l-2.419-1.349a.461.461,0,0,1,.449-.806l2.42,1.349a.461.461,0,0,1-.225.864Zm20.2-.27a.461.461,0,0,1-.221-.866l2.429-1.331a.461.461,0,1,1,.443.81l-2.428,1.331A.462.462,0,0,1,527.525,1217.327Zm63.149-.61a.464.464,0,0,1-.331-.139c-.633-.652-1.3-1.287-1.975-1.887a.462.462,0,0,1,.613-.691c.693.615,1.375,1.266,2.024,1.933a.462.462,0,0,1-.331.784Zm-145.221-1.858a.461.461,0,0,1-.306-.806c.7-.619,1.422-1.219,2.159-1.783a.462.462,0,0,1,.56.734c-.719.549-1.428,1.135-2.107,1.738A.457.457,0,0,1,445.454,1214.859Zm56.229-.408a.459.459,0,0,1-.224-.058l-2.419-1.35a.461.461,0,1,1,.449-.806l2.419,1.35a.461.461,0,0,1-.224.864Zm31.51-.229a.461.461,0,0,1-.222-.866l2.429-1.331a.461.461,0,0,1,.443.81l-2.429,1.33A.457.457,0,0,1,533.193,1214.222Zm52.6-1.719a.463.463,0,0,1-.27-.088c-.732-.528-1.5-1.039-2.271-1.516a.462.462,0,0,1,.486-.787c.793.49,1.577,1.013,2.326,1.555a.461.461,0,0,1-.271.836Zm-89.758-1.2a.457.457,0,0,1-.224-.058l-2.419-1.35a.461.461,0,1,1,.449-.806l2.419,1.35a.461.461,0,0,1-.224.864Zm42.821-.186a.461.461,0,0,1-.222-.866l2.429-1.331a.462.462,0,0,1,.444.81l-2.429,1.331A.454.454,0,0,1,538.86,1211.116Zm-88.238-.109a.462.462,0,0,1-.243-.854c.788-.487,1.605-.954,2.432-1.386a.461.461,0,1,1,.427.818c-.806.422-1.6.877-2.374,1.353A.458.458,0,0,1,450.623,1211.007Zm129.65-1.82a.475.475,0,0,1-.2-.047c-.8-.4-1.642-.774-2.493-1.122a.462.462,0,1,1,.352-.854c.869.357,1.726.743,2.549,1.147a.462.462,0,0,1-.2.876Zm-89.878-1.032a.464.464,0,0,1-.225-.059l-2.395-1.294a.462.462,0,0,1,.369-.846c.137.059.271.119.4.181l2.071,1.154a.462.462,0,0,1-.224.865Zm-34.031-.075a.461.461,0,0,1-.175-.888c.854-.352,1.735-.682,2.618-.981a.462.462,0,1,1,.3.875c-.864.293-1.726.616-2.562.96A.475.475,0,0,1,456.364,1208.081Zm88.163-.07a.462.462,0,0,1-.222-.867l2.429-1.33a11.84,11.84,0,0,1,1.925-.663.462.462,0,0,1,.236.893,11.061,11.061,0,0,0-1.746.594l-2.4,1.316A.462.462,0,0,1,544.527,1208.01Zm29.759-1.209a.461.461,0,0,1-.139-.021c-.852-.269-1.739-.519-2.635-.744a.462.462,0,1,1,.225-.9c.913.23,1.818.485,2.687.759a.462.462,0,0,1-.138.9Zm-111.8-.734a.461.461,0,0,1-.114-.908l.439-.109c.724-.176,1.5-.34,2.3-.486a.461.461,0,1,1,.165.908c-.782.143-1.538.3-2.244.476l-.43.106A.44.44,0,0,1,462.49,1206.067Zm21.965-.382a.458.458,0,0,1-.111-.014c-.842-.208-1.742-.389-2.675-.534a.462.462,0,0,1-.385-.528.467.467,0,0,1,.528-.385c.96.151,1.887.337,2.754.552a.461.461,0,0,1-.111.909Zm67.944-.35a.462.462,0,0,1-.069-.919c.876-.134,1.807-.254,2.769-.357a.462.462,0,0,1,.1.918c-.948.1-1.867.221-2.728.353A.5.5,0,0,1,552.4,1205.335Zm15.622-.053a.6.6,0,0,1-.081-.006c-.887-.157-1.8-.295-2.714-.41a.46.46,0,0,1-.4-.515.466.466,0,0,1,.515-.4c.929.117,1.857.257,2.758.416a.461.461,0,0,1-.079.916Zm-99.171-.331a.462.462,0,0,1-.049-.92c.914-.1,1.851-.176,2.784-.23a.445.445,0,0,1,.487.435.46.46,0,0,1-.435.487c-.917.053-1.838.129-2.737.227A.454.454,0,0,1,468.85,1204.951Zm9.22-.211h-.031c-.889-.059-1.812-.094-2.742-.1a.462.462,0,0,1,0-.923h0c.947.01,1.888.046,2.794.106a.462.462,0,0,1-.03.922Zm80.761-.06a.461.461,0,0,1-.025-.922c.99-.054,1.909-.081,2.732-.081a.49.49,0,0,1,.494.462.434.434,0,0,1-.428.462h-.065c-.806,0-1.708.027-2.681.079Z" transform="translate(-383.114 -1169.25)" fill="#4d4d4d"/>
        <path id="Trazado_100181" data-name="Trazado 100181" d="M514.356,1213.526a.457.457,0,0,1-.088-.008,3.12,3.12,0,0,1-.979-.38,10.085,10.085,0,0,1-1.583-1.154.462.462,0,0,1,.612-.692,9.132,9.132,0,0,0,1.435,1.048,2.226,2.226,0,0,0,.688.272.461.461,0,0,1-.085.915Zm16.712-.326a2.22,2.22,0,0,1-.75-.134.462.462,0,1,1,.312-.869,1.827,1.827,0,0,0,1.9-.793.461.461,0,1,1,.711.588A2.948,2.948,0,0,1,531.067,1213.2Zm11.924-.2a.462.462,0,0,1-.39-.215,12.761,12.761,0,0,0-1.7-2.051.462.462,0,0,1,.644-.662,13.5,13.5,0,0,1,1.834,2.22.462.462,0,0,1-.391.708Zm-39.462-.594a.462.462,0,0,1-.3-.812,8.162,8.162,0,0,0,1.012-1.177.461.461,0,1,1,.74.551,8.759,8.759,0,0,1-1.151,1.327A.459.459,0,0,1,503.53,1212.407Zm13.452-1.01a.461.461,0,0,1-.437-.61c0-.09,0-.09,1.714-2.345a.462.462,0,0,1,.736.558l-1.571,2.068,0,.016A.462.462,0,0,1,516.981,1211.4Zm10.773-.762a.463.463,0,0,1-.349-.16c-.573-.661-1.164-1.4-1.757-2.185a.461.461,0,1,1,.738-.554c.581.772,1.158,1.489,1.717,2.135a.462.462,0,0,1-.047.652A.456.456,0,0,1,527.754,1210.636Zm7.694-1.111a.462.462,0,0,1-.251-.849,3.963,3.963,0,0,1,2.182-.672,3.119,3.119,0,0,1,.8.081.462.462,0,0,1-.182.906,3.562,3.562,0,0,0-.62-.064,3.055,3.055,0,0,0-1.68.524A.458.458,0,0,1,535.448,1209.525Zm-25.831-.228a.461.461,0,0,1-.388-.21c-.032-.052-.063-.1-.089-.139a3.339,3.339,0,0,0-1.983-.4.461.461,0,0,1-.172-.907,4.484,4.484,0,0,1,2.721.558l.313.186-.045.149.03.045a.461.461,0,0,1-.388.713Zm11.351-2.958a.461.461,0,0,1-.3-.816,2.848,2.848,0,0,1,3.038-.6.462.462,0,0,1-.36.85,1.939,1.939,0,0,0-2.088.464A.461.461,0,0,1,520.968,1206.339Z" transform="translate(-388.767 -1169.329)" fill="#4d4d4d"/>
        <path id="Trazado_100182" data-name="Trazado 100182" d="M504.157,1318.249h0c-.9,0-1.829-.022-2.786-.056a.461.461,0,1,1,.032-.922q1.424.05,2.758.055a.462.462,0,0,1,0,.923Zm25.749-.006H529.9c-.97-.011-1.9-.037-2.783-.075a.461.461,0,0,1-.442-.48.429.429,0,0,1,.482-.442q1.309.055,2.754.074a.462.462,0,0,1-.005.923Zm3.7-.031a.462.462,0,0,1-.014-.923q1.342-.039,2.757-.122a.462.462,0,0,1,.054.922q-1.426.086-2.782.124Zm-25.752-.02a.461.461,0,0,1-.017-.922c.975-.035,1.894-.084,2.751-.142a.472.472,0,0,1,.492.43.463.463,0,0,1-.43.492c-.867.057-1.8.107-2.781.142Zm-10.154-.2h-.036q-1.363-.105-2.775-.259a.462.462,0,0,1-.409-.509.467.467,0,0,1,.51-.409q1.4.153,2.746.257a.461.461,0,0,1-.035.921Zm25.757-.05-.04,0c-1.051-.089-1.98-.187-2.773-.282a.46.46,0,0,1-.4-.513.469.469,0,0,1,.512-.4c.785.094,1.7.192,2.741.28a.462.462,0,0,1-.038.921Zm16.6-.148a.462.462,0,0,1-.045-.921q1.346-.137,2.734-.327a.461.461,0,1,1,.127.914q-1.4.192-2.768.331A.386.386,0,0,1,540.054,1317.788Zm-25.76-.067a.462.462,0,0,1-.051-.92c1.217-.137,2.154-.272,2.725-.363a.461.461,0,1,1,.145.911c-.582.093-1.533.231-2.767.369A.476.476,0,0,1,514.295,1317.721Zm-23.022-.476a.493.493,0,0,1-.072-.005q-1.358-.211-2.746-.476a.462.462,0,1,1,.173-.907q1.372.263,2.715.471a.462.462,0,0,1-.069.918Zm55.182-.369a.462.462,0,0,1-.083-.916q1.339-.247,2.7-.547a.462.462,0,1,1,.2.9q-1.377.3-2.733.553A.47.47,0,0,1,546.455,1316.875Zm-61.524-.887a.448.448,0,0,1-.109-.013q-1.342-.325-2.7-.71a.462.462,0,0,1,.253-.888q1.336.38,2.663.7a.462.462,0,0,1-.11.91Zm67.827-.554a.462.462,0,0,1-.123-.906q1.316-.363,2.639-.784a.462.462,0,1,1,.281.88q-1.341.428-2.674.794A.472.472,0,0,1,552.757,1315.434Zm-74.032-1.255a.467.467,0,0,1-.15-.025q-1.31-.448-2.619-.961a.462.462,0,1,1,.337-.859q1.291.5,2.581.947a.462.462,0,0,1-.15.9Zm80.174-.751a.462.462,0,0,1-.163-.893c.86-.328,1.716-.677,2.546-1.036a.462.462,0,1,1,.367.848c-.842.365-1.713.718-2.585,1.051A.445.445,0,0,1,558.9,1313.427Zm-86.17-1.649a.457.457,0,0,1-.193-.042c-.844-.389-1.687-.8-2.506-1.226a.461.461,0,1,1,.424-.82c.809.418,1.639.824,2.469,1.208a.461.461,0,0,1-.193.881Zm92.078-.96a.462.462,0,0,1-.209-.873c.823-.416,1.638-.853,2.42-1.3a.462.462,0,1,1,.456.8c-.8.452-1.623.895-2.459,1.318A.462.462,0,0,1,564.808,1310.818Zm-97.787-2.058a.466.466,0,0,1-.238-.065c-.789-.474-1.583-.979-2.357-1.5a.462.462,0,0,1,.514-.767c.761.51,1.541,1.005,2.319,1.472a.462.462,0,0,1-.238.858Zm103.377-1.173a.462.462,0,0,1-.253-.847c.761-.5,1.521-1.024,2.258-1.561a.461.461,0,1,1,.543.746c-.749.546-1.521,1.08-2.294,1.587A.459.459,0,0,1,570.4,1307.587Zm-108.71-2.466a.466.466,0,0,1-.283-.1c-.741-.573-1.47-1.165-2.166-1.761a.462.462,0,0,1,.6-.7c.684.585,1.4,1.168,2.129,1.731a.462.462,0,0,1-.282.827Zm113.893-1.382a.462.462,0,0,1-.3-.815c.7-.587,1.393-1.2,2.059-1.815a.462.462,0,0,1,.628.677c-.677.628-1.38,1.249-2.093,1.846A.463.463,0,0,1,575.581,1303.739Zm-118.761-2.856a.46.46,0,0,1-.323-.132c-.664-.652-1.317-1.327-1.941-2a.461.461,0,1,1,.678-.626c.614.666,1.257,1.328,1.911,1.97a.462.462,0,0,1-.324.791Zm123.454-1.573a.462.462,0,0,1-.336-.778c.62-.659,1.236-1.348,1.829-2.044a.461.461,0,1,1,.7.6c-.6.709-1.228,1.409-1.86,2.08A.462.462,0,0,1,580.273,1299.31ZM452.486,1296.1a.46.46,0,0,1-.359-.172c-.571-.708-1.143-1.453-1.7-2.214a.462.462,0,1,1,.747-.544c.546.749,1.107,1.482,1.669,2.179a.462.462,0,0,1-.359.751Zm131.927-1.741a.455.455,0,0,1-.275-.091.462.462,0,0,1-.1-.646c.544-.731,1.076-1.484,1.584-2.241a.462.462,0,0,1,.766.515c-.515.767-1.057,1.533-1.609,2.277A.464.464,0,0,1,584.413,1294.361Zm-135.686-3.5a.461.461,0,0,1-.39-.214c-.493-.773-.978-1.576-1.442-2.386a.461.461,0,0,1,.8-.46c.458.8.936,1.589,1.42,2.349a.461.461,0,0,1-.389.71Zm139.246-1.878a.453.453,0,0,1-.234-.064.461.461,0,0,1-.165-.631c.459-.782.908-1.59,1.336-2.4a.462.462,0,0,1,.817.431c-.435.822-.891,1.641-1.356,2.435A.462.462,0,0,1,587.973,1288.979Zm-142.419-3.741a.461.461,0,0,1-.413-.255q-.615-1.23-1.193-2.517a.462.462,0,1,1,.842-.379q.571,1.271,1.176,2.483a.462.462,0,0,1-.206.619A.475.475,0,0,1,445.554,1285.238Zm145.394-1.985a.481.481,0,0,1-.193-.042.462.462,0,0,1-.226-.612q.565-1.233,1.1-2.52a.461.461,0,1,1,.854.35q-.536,1.307-1.111,2.556A.46.46,0,0,1,590.948,1283.253Zm-148-3.919a.461.461,0,0,1-.43-.294q-.5-1.28-.957-2.615a.461.461,0,1,1,.872-.3q.456,1.318.945,2.582a.461.461,0,0,1-.264.6A.456.456,0,0,1,442.947,1279.334Zm150.421-2.063a.485.485,0,0,1-.154-.027.462.462,0,0,1-.281-.589q.453-1.278.871-2.61a.461.461,0,1,1,.88.277q-.422,1.347-.881,2.641A.463.463,0,0,1,593.369,1277.271Zm-152.5-4.048a.463.463,0,0,1-.443-.331q-.388-1.316-.742-2.681a.462.462,0,1,1,.894-.233q.35,1.352.734,2.653a.463.463,0,0,1-.442.592Zm154.4-2.12a.443.443,0,0,1-.119-.016.462.462,0,0,1-.328-.564q.208-.779.405-1.577c0-.017.109-.4.268-1.1a.462.462,0,1,1,.9.2c-.165.728-.274,1.125-.274,1.125-.131.524-.266,1.054-.406,1.579A.461.461,0,0,1,595.273,1271.1Zm-155.808-4.177a.462.462,0,0,1-.457-.4c-.1-.776-.21-1.709-.309-2.771a.462.462,0,0,1,.919-.085c.1,1.048.2,1.968.306,2.736a.46.46,0,0,1-.459.522Zm157.171-2.141a.488.488,0,0,1-.072-.006.462.462,0,0,1-.385-.528c.129-.823.257-1.736.369-2.726a.462.462,0,0,1,.918.1c-.115,1-.244,1.931-.374,2.765A.463.463,0,0,1,596.636,1264.784Zm-157.727-4.3a.462.462,0,0,1-.462-.441c-.039-.884-.066-1.815-.073-2.786a.461.461,0,0,1,.458-.465h0a.462.462,0,0,1,.462.458c.007.959.034,1.88.073,2.753a.461.461,0,0,1-.441.481Zm158.415-2.13H597.3a.46.46,0,0,1-.433-.487c.05-.882.085-1.8.1-2.748a.461.461,0,0,1,.462-.454h.006a.462.462,0,0,1,.455.468c-.014.962-.049,1.893-.1,2.788A.462.462,0,0,1,597.324,1258.358ZM438.9,1254.022h-.018a.462.462,0,0,1-.443-.48c.038-.906.093-1.837.171-2.784a.461.461,0,1,1,.919.075c-.076.934-.131,1.852-.167,2.747A.462.462,0,0,1,438.9,1254.022Zm158.47-2.126a.462.462,0,0,1-.461-.44c-.043-.927-.109-1.849-.2-2.742a.462.462,0,0,1,.92-.088c.087.907.154,1.844.2,2.786a.461.461,0,0,1-.438.483Zm-157.9-4.313a.509.509,0,0,1-.064,0,.461.461,0,0,1-.394-.521c.127-.918.278-1.844.449-2.756a.461.461,0,1,1,.907.169c-.167.9-.316,1.81-.441,2.714A.461.461,0,0,1,439.468,1247.583Zm157.217-2.113a.462.462,0,0,1-.454-.385c-.151-.9-.331-1.8-.534-2.691a.461.461,0,0,1,.9-.2c.207.9.39,1.827.545,2.742a.462.462,0,0,1-.378.533A.542.542,0,0,1,596.685,1245.47Zm-155.972-4.227a.456.456,0,0,1-.115-.015.461.461,0,0,1-.331-.563c.236-.914.5-1.818.775-2.686a.462.462,0,0,1,.88.281c-.272.852-.529,1.739-.761,2.637A.462.462,0,0,1,440.712,1241.243Zm154.458-2.05a.463.463,0,0,1-.439-.321c-.282-.878-.593-1.746-.923-2.577a.462.462,0,1,1,.859-.341c.339.851.656,1.738.944,2.637a.463.463,0,0,1-.3.581A.47.47,0,0,1,595.171,1239.192ZM517.779,1238a9.431,9.431,0,0,1-2.666-.384.462.462,0,1,1,.261-.885,8.507,8.507,0,0,0,2.4.346l.188,0a.444.444,0,0,1,.471.453.461.461,0,0,1-.451.471Zm3.768-.834a.462.462,0,0,1-.195-.88,8.418,8.418,0,0,0,2.169-1.462,3.555,3.555,0,0,0,.5-.594.461.461,0,1,1,.761.522,4.485,4.485,0,0,1-.636.747,9.343,9.343,0,0,1-2.407,1.623A.456.456,0,0,1,521.547,1237.17Zm-9.535-1.266a.459.459,0,0,1-.3-.108c-.1-.088-.208-.178-.309-.271a6.826,6.826,0,0,1-1.47-2.062.461.461,0,0,1,.826-.411,5.936,5.936,0,0,0,1.266,1.791c.091.083.185.165.281.246a.462.462,0,0,1-.3.815Zm-69.264-.791a.455.455,0,0,1-.175-.036.461.461,0,0,1-.251-.6c.359-.869.748-1.726,1.156-2.551a.462.462,0,0,1,.828.41c-.4.8-.78,1.644-1.131,2.493A.462.462,0,0,1,442.748,1235.114Zm149.96-1.888a.463.463,0,0,1-.41-.249c-.418-.812-.871-1.612-1.345-2.378a.461.461,0,1,1,.785-.486c.487.786.952,1.607,1.381,2.44a.462.462,0,0,1-.411.673Zm-66.906-1.674a.456.456,0,0,1-.143-.023.462.462,0,0,1-.3-.583,15.232,15.232,0,0,1,1.08-2.64.461.461,0,1,1,.808.445,14.513,14.513,0,0,0-1.01,2.482A.463.463,0,0,1,525.8,1231.552Zm-16.891-1.232a.462.462,0,0,1-.422-.275,11.566,11.566,0,0,0-1.307-2.314.462.462,0,0,1,.738-.556,12.549,12.549,0,0,1,1.413,2.5.462.462,0,0,1-.235.609A.456.456,0,0,1,508.911,1230.32Zm-63.222-.952a.455.455,0,0,1-.245-.07.461.461,0,0,1-.147-.636c.495-.792,1.027-1.571,1.58-2.317a.461.461,0,1,1,.74.55c-.538.725-1.055,1.484-1.538,2.257A.46.46,0,0,1,445.689,1229.369Zm143.551-1.581a.461.461,0,0,1-.365-.178c-.555-.714-1.147-1.414-1.762-2.083a.462.462,0,1,1,.68-.625c.631.688,1.241,1.408,1.811,2.141a.462.462,0,0,1-.364.745Zm-59.873-1.433a.462.462,0,0,1-.247-.851,18.5,18.5,0,0,1,2.525-1.3.462.462,0,0,1,.369.847,17.454,17.454,0,0,0-2.4,1.23A.462.462,0,0,1,529.367,1226.355Zm-24.58-.856a.452.452,0,0,1-.244-.07c-.639-.4-1.4-.814-2.389-1.309a.461.461,0,1,1,.411-.825c1.019.508,1.8.937,2.467,1.352a.461.461,0,0,1-.245.852Zm-55.182-1.255a.462.462,0,0,1-.338-.776c.635-.683,1.307-1.347,2-1.971a.461.461,0,1,1,.619.684c-.669.607-1.322,1.251-1.94,1.916A.461.461,0,0,1,449.606,1224.245Zm85.64-.564a.462.462,0,0,1-.18-.886,22.821,22.821,0,0,0,2.446-1.176.462.462,0,1,1,.459.8,23.6,23.6,0,0,1-2.543,1.225A.464.464,0,0,1,535.245,1223.681Zm49.57-.582a.459.459,0,0,1-.3-.115c-.678-.593-1.391-1.172-2.123-1.718a.462.462,0,1,1,.553-.74c.751.561,1.484,1.155,2.178,1.763a.461.461,0,0,1-.3.809Zm-85.779-.542a.462.462,0,0,1-.2-.047c-.973-.481-1.759-.9-2.474-1.307a.462.462,0,0,1,.46-.8c.7.4,1.468.807,2.423,1.28a.461.461,0,0,1-.2.875Zm41.756-2.155a.462.462,0,0,1-.258-.845c.78-.524,1.572-1.029,2.354-1.5a.462.462,0,0,1,.477.79c-.77.464-1.548.962-2.316,1.478A.453.453,0,0,1,540.792,1220.4Zm-86.349-.418a.461.461,0,0,1-.269-.836c.753-.541,1.542-1.059,2.343-1.538a.461.461,0,1,1,.474.791c-.779.467-1.546.97-2.28,1.5A.453.453,0,0,1,454.443,1219.984ZM579.6,1219.3a.458.458,0,0,1-.239-.067c-.763-.461-1.566-.908-2.387-1.33a.462.462,0,0,1,.422-.822c.84.432,1.662.89,2.444,1.362a.462.462,0,0,1-.239.857Zm-86.1-.072a.468.468,0,0,1-.26-.079c-.741-.507-1.521-.986-2.321-1.425a.462.462,0,1,1,.445-.809c.825.453,1.631.948,2.4,1.471a.461.461,0,0,1-.261.843Zm52.847-2.113a.462.462,0,0,1-.21-.873c.839-.428,1.69-.831,2.529-1.195a.462.462,0,1,1,.368.847c-.822.356-1.654.751-2.477,1.17A.461.461,0,0,1,546.353,1217.117Zm-86.341-.374a.462.462,0,0,1-.195-.881c.831-.385,1.7-.75,2.58-1.084a.461.461,0,1,1,.327.863c-.861.326-1.708.682-2.518,1.059A.468.468,0,0,1,460.012,1216.743Zm113.828-.327a.453.453,0,0,1-.175-.035c-.824-.339-1.687-.664-2.564-.966a.461.461,0,0,1,.3-.872c.894.308,1.773.64,2.614.985a.462.462,0,0,1-.175.889Zm-86.029-.212a.47.47,0,0,1-.172-.033c-.832-.335-1.7-.643-2.574-.913a.461.461,0,1,1,.272-.882c.9.277,1.79.594,2.646.938a.462.462,0,0,1-.173.89Zm64.5-1.582a.461.461,0,0,1-.143-.9c.909-.3,1.819-.551,2.7-.756a.458.458,0,0,1,.555.344.462.462,0,0,1-.345.554c-.861.2-1.745.448-2.628.736A.487.487,0,0,1,552.307,1214.621Zm-86.241-.1a.462.462,0,0,1-.125-.907q.73-.2,1.484-.388c.322-.079.751-.162,1.268-.239a.462.462,0,0,1,.138.913c-.485.073-.884.15-1.186.223q-.739.179-1.454.379A.448.448,0,0,1,466.066,1214.526Zm15.557-.154a.446.446,0,0,1-.091-.009c-.884-.178-1.794-.327-2.7-.443a.463.463,0,0,1-.4-.517.469.469,0,0,1,.517-.4c.929.12,1.859.272,2.765.455a.462.462,0,0,1-.09.914Zm86.1-.01a.45.45,0,0,1-.12-.016c-.868-.233-1.766-.452-2.669-.65a.46.46,0,0,1-.351-.549.465.465,0,0,1,.549-.353c.917.2,1.829.423,2.711.66a.462.462,0,0,1-.12.907Zm-92.513-.745h-.018c-.978-.037-1.893-.039-2.737-.012h-.015a.462.462,0,0,1-.015-.923c.866-.027,1.8-.026,2.8.013a.462.462,0,0,1-.018.923Zm83.4-.332a.462.462,0,0,1-.041-.921,22.389,22.389,0,0,1,2.825-.076.462.462,0,0,1-.018.923h-.018a21.046,21.046,0,0,0-2.706.073A.316.316,0,0,1,558.614,1213.284Z" transform="translate(-383.798 -1169.91)" fill="#4d4d4d"/>
        <g id="Grupo_53452" data-name="Grupo 53452" transform="translate(21.763 13.267)">
          <path id="Trazado_100183" data-name="Trazado 100183" d="M459.923,1345.9a43.155,43.155,0,0,1-19.232-4.343c-.216-.11-20.782-10.818-20.086-37.52.033-1.286,0-2.841-.031-4.486a81.233,81.233,0,0,1,.415-12.413c.784-5.708-2.254-14.632-2.284-14.721-.056-.161-5.494-16.037-10.034-23.359-4.595-7.41-5.711-17.782-5.838-25.179-.078-4.517,2.066-18.62,12.775-29.476,8.929-9.054,21.525-13.643,37.435-13.643h.282l19.508,1.515c.33.059,33.025,5.956,42.38,6.132l42.819-6.137,19.475-1.51h.281c15.914,0,28.508,4.59,37.438,13.645,10.708,10.858,12.85,24.958,12.772,29.474-.127,7.4-1.243,17.768-5.837,25.179-4.54,7.323-9.98,23.2-10.034,23.357-.031.092-3.069,9.016-2.284,14.724a81.227,81.227,0,0,1,.415,12.413c-.033,1.645-.064,3.2-.03,4.486.7,26.7-19.871,37.41-20.078,37.516-26.293,12.92-55.1-7.064-55.389-7.268a32.774,32.774,0,0,0-19.292-6.594h-.1a32.572,32.572,0,0,0-19.258,6.568C495.863,1334.43,479.332,1345.9,459.923,1345.9Zm-6.931-163.3c-15.341,0-27.5,4.4-36.07,13.1-10.261,10.4-12.316,23.846-12.242,28.148.123,7.165,1.189,17.185,5.56,24.238,4.651,7.5,9.987,23.075,10.212,23.734.13.379,3.211,9.424,2.365,15.571a78.734,78.734,0,0,0-.4,12.124c.034,1.668.066,3.243.031,4.572-.667,25.547,18.866,35.72,19.064,35.82,25.279,12.422,53.212-6.932,53.491-7.129a34.616,34.616,0,0,1,20.374-6.931l.113,0a34.578,34.578,0,0,1,20.367,6.953c.245.172,28.18,19.525,53.465,7.1.188-.1,19.722-10.314,19.056-35.815-.034-1.328,0-2.9.031-4.572a78.731,78.731,0,0,0-.4-12.124c-.846-6.147,2.234-15.191,2.365-15.573.223-.656,5.561-16.231,10.212-23.732,4.372-7.053,5.437-17.073,5.559-24.238.075-4.3-1.979-17.742-12.241-28.146-8.57-8.69-20.723-13.095-36.124-13.095h-.241l-19.312,1.5-42.905,6.152h-.073c-9.319-.148-40.8-5.811-42.706-6.155l-19.3-1.5Z" transform="translate(-402.831 -1180.757)"/>
          <path id="Trazado_100184" data-name="Trazado 100184" d="M604.053,1360.284a8.3,8.3,0,0,1-2.035-.261c-2.141-.542-3.9-1.822-4.492-3.26l-.38-.932.961-.3a31.513,31.513,0,0,0,5.616-2.446c2.551-1.486,5.024-3.322,5.049-3.341l.843-.628.513.917a10.731,10.731,0,0,1,.683,3.75c.064,2.621-2.107,4.612-2.774,5.161h0A6.2,6.2,0,0,1,604.053,1360.284Zm-4.2-3.4a6.094,6.094,0,0,0,2.62,1.348,4.949,4.949,0,0,0,4.393-.714c.358-.3,2.145-1.858,2.1-3.688a13.115,13.115,0,0,0-.183-1.819c-.99.694-2.529,1.738-4.129,2.67A31.24,31.24,0,0,1,599.852,1356.885Zm7.6,1.348h0Z" transform="translate(-417.756 -1193.688)"/>
          <path id="Trazado_100185" data-name="Trazado 100185" d="M443.614,1360.284a6.2,6.2,0,0,1-3.983-1.338c-.667-.548-2.838-2.539-2.774-5.161a10.748,10.748,0,0,1,.681-3.749l.513-.92.844.629c.025.019,2.5,1.857,5.049,3.341a31.544,31.544,0,0,0,5.617,2.446l.961.3-.38.932a6.52,6.52,0,0,1-4.493,3.26A8.292,8.292,0,0,1,443.614,1360.284Zm-4.728-8.272a13.138,13.138,0,0,0-.183,1.819c-.045,1.832,1.741,3.394,2.1,3.688h0a4.942,4.942,0,0,0,4.392.714,6.093,6.093,0,0,0,2.621-1.348,31.241,31.241,0,0,1-4.8-2.2C441.415,1353.75,439.875,1352.706,438.886,1352.012Z" transform="translate(-405.444 -1193.688)"/>
        </g>
        <g id="Grupo_53453" data-name="Grupo 53453" transform="translate(13.693 7.313)">
          <path id="Trazado_100186" data-name="Trazado 100186" d="M455.242,1351.251a46.213,46.213,0,0,1-20.593-4.65c-.232-.117-22.247-11.581-21.5-40.171.036-1.381,0-3.049-.032-4.816a87.022,87.022,0,0,1,.443-13.3c.843-6.136-2.419-15.72-2.451-15.816-.059-.174-5.895-17.2-10.766-25.062-4.917-7.931-6.112-19.041-6.25-26.964-.082-4.836,2.211-19.931,13.677-31.557,9.561-9.7,23.053-14.612,40.1-14.612h.3l20.906,1.623c.355.064,35.431,6.389,45.459,6.577l45.92-6.582,20.872-1.618h.3c17.047,0,30.535,4.915,40.1,14.612,11.466,11.626,13.759,26.721,13.676,31.557-.137,7.923-1.332,19.033-6.249,26.964-4.874,7.858-10.707,24.888-10.765,25.059-.034.1-3.3,9.682-2.453,15.819a87.031,87.031,0,0,1,.444,13.3c-.035,1.767-.068,3.435-.032,4.816.744,28.59-21.27,40.054-21.494,40.166-28.153,13.835-59.014-7.571-59.323-7.789a35.121,35.121,0,0,0-20.727-7.082h-.108A35.073,35.073,0,0,0,494,1338.783C493.739,1338.967,476.031,1351.251,455.242,1351.251Zm-7.429-175.1c-16.474,0-29.526,4.729-38.731,14.064-11.019,11.172-13.225,25.608-13.145,30.229.133,7.69,1.277,18.448,5.972,26.023,4.983,8.037,10.7,24.729,10.944,25.436.139.406,3.437,10.09,2.533,16.665a84.36,84.36,0,0,0-.426,13.009c.035,1.788.069,3.478.032,4.9-.714,27.39,20.269,38.364,20.481,38.471,27.141,13.338,57.126-7.438,57.424-7.65a36.878,36.878,0,0,1,21.807-7.42l.114,0a37.062,37.062,0,0,1,21.8,7.442c.264.187,30.246,20.961,57.4,7.619.2-.1,21.185-11.076,20.471-38.467-.037-1.423,0-3.112.032-4.9a84.475,84.475,0,0,0-.426-13.009c-.9-6.575,2.394-16.259,2.534-16.668.24-.7,5.959-17.4,10.944-25.433,4.694-7.575,5.839-18.333,5.971-26.023.08-4.621-2.125-19.057-13.144-30.229-9.2-9.331-22.252-14.062-38.783-14.062h-.26l-20.711,1.605-46.005,6.6h-.073c-9.99-.16-43.77-6.236-45.784-6.6l-20.7-1.6Z" transform="translate(-394.089 -1174.307)"/>
          <path id="Trazado_100187" data-name="Trazado 100187" d="M609.789,1366.68a8.819,8.819,0,0,1-2.164-.278c-2.276-.576-4.15-1.932-4.772-3.456l-.38-.932.961-.3a33.981,33.981,0,0,0,6.036-2.627c2.734-1.594,5.392-3.567,5.42-3.588l.844-.629.512.92a11.607,11.607,0,0,1,.723,3.989c.068,2.782-2.241,4.9-2.951,5.48A6.586,6.586,0,0,1,609.789,1366.68Zm-4.631-3.6a6.672,6.672,0,0,0,2.92,1.535,5.365,5.365,0,0,0,4.768-.779h0c.389-.319,2.325-2.012,2.276-4.007a13.837,13.837,0,0,0-.215-2.063c-1.054.743-2.747,1.894-4.507,2.92A33.66,33.66,0,0,1,605.159,1363.076Z" transform="translate(-410.094 -1188.176)"/>
          <path id="Trazado_100188" data-name="Trazado 100188" d="M437.754,1366.68a6.588,6.588,0,0,1-4.229-1.42h0c-.709-.583-3.018-2.7-2.951-5.48a11.634,11.634,0,0,1,.723-3.989l.513-.92.844.629c.027.02,2.685,1.993,5.42,3.588a33.954,33.954,0,0,0,6.036,2.627l.961.3-.38.932c-.622,1.523-2.5,2.88-4.772,3.456A8.862,8.862,0,0,1,437.754,1366.68Zm-5.118-8.918a13.945,13.945,0,0,0-.215,2.064c-.05,2,1.888,3.687,2.277,4.007h0a5.36,5.36,0,0,0,4.769.779,6.674,6.674,0,0,0,2.919-1.535,33.655,33.655,0,0,1-5.242-2.395C435.383,1359.656,433.69,1358.5,432.635,1357.762Z" transform="translate(-396.891 -1188.176)"/>
        </g>
        <g id="Grupo_53454" data-name="Grupo 53454" transform="translate(3.779)">
          <path id="Trazado_100189" data-name="Trazado 100189" d="M449.492,1357.827a49.939,49.939,0,0,1-22.266-5.028c-.25-.126-24.045-12.516-23.24-43.426.04-1.5,0-3.306-.035-5.22a94.23,94.23,0,0,1,.479-14.384c.916-6.664-2.623-17.057-2.658-17.161-.064-.187-6.385-18.635-11.665-27.152-5.316-8.573-6.608-20.588-6.756-29.158-.09-5.227,2.391-21.544,14.788-34.115,10.339-10.484,24.927-15.8,43.361-15.8h.326l22.624,1.756c.384.07,38.384,6.922,49.242,7.123l49.728-7.128,22.59-1.751h.325c18.437,0,33.023,5.313,43.362,15.8,12.4,12.57,14.877,28.888,14.788,34.115-.149,8.57-1.44,20.585-6.756,29.158-5.281,8.517-11.6,26.965-11.666,27.15-.036.106-3.574,10.5-2.657,17.163a94.226,94.226,0,0,1,.479,14.384c-.039,1.914-.075,3.722-.035,5.22.8,30.91-22.989,43.3-23.23,43.422a50.022,50.022,0,0,1-22.278,5.03c-22.486,0-41.628-13.281-41.88-13.459a38.15,38.15,0,0,0-22.488-7.682h-.113a38.053,38.053,0,0,0-22.453,7.657C491.131,1344.539,471.976,1357.826,449.492,1357.827Zm-8.042-189.6c-17.864,0-32.013,5.129-42,15.251-11.95,12.116-14.343,27.775-14.256,32.786.143,8.337,1.385,20,6.478,28.216,5.392,8.7,11.582,26.762,11.843,27.527.151.439,3.716,10.909,2.74,18.01a91.5,91.5,0,0,0-.462,14.1c.039,1.936.075,3.765.035,5.3-.775,29.755,21.987,41.609,22.217,41.725,29.456,14.474,61.936-8.06,62.26-8.288a40,40,0,0,1,23.568-8.02l.115,0a40.019,40.019,0,0,1,23.571,8.043c.291.2,32.793,22.729,62.234,8.259.221-.113,22.982-12.013,22.208-41.722-.04-1.54,0-3.369.035-5.3a91.5,91.5,0,0,0-.462-14.1c-.978-7.1,2.588-17.571,2.74-18.013.259-.762,6.45-18.828,11.843-27.524,5.093-8.215,6.334-19.879,6.478-28.216.086-5.011-2.306-20.67-14.256-32.786-9.979-10.119-24.126-15.248-42.048-15.248h-.285l-22.428,1.738-49.814,7.144h-.073c-10.819-.173-47.428-6.76-49.568-7.146l-22.415-1.737Z" transform="translate(-383.351 -1166.386)"/>
          <path id="Trazado_100190" data-name="Trazado 100190" d="M616.836,1374.536a9.523,9.523,0,0,1-2.325-.3c-2.442-.618-4.45-2.069-5.115-3.7l-.38-.932.961-.3a36.853,36.853,0,0,0,6.552-2.853c2.969-1.731,5.847-3.867,5.875-3.889l.843-.628.514.919a12.505,12.505,0,0,1,.774,4.285c.072,2.978-2.406,5.247-3.167,5.872h0A7.053,7.053,0,0,1,616.836,1374.536Zm-5.158-3.854a7.109,7.109,0,0,0,3.287,1.766,5.885,5.885,0,0,0,5.231-.86h0c1.232-1.011,2.534-2.7,2.493-4.4a15.369,15.369,0,0,0-.256-2.364c-1.131.8-3.014,2.085-4.973,3.228A36.488,36.488,0,0,1,611.678,1370.682Z" transform="translate(-400.683 -1181.406)"/>
          <path id="Trazado_100191" data-name="Trazado 100191" d="M430.554,1374.536a7.055,7.055,0,0,1-4.531-1.521h0c-.761-.625-3.239-2.9-3.167-5.872a12.494,12.494,0,0,1,.773-4.285l.514-.919.843.628c.029.022,2.91,2.16,5.875,3.889a36.746,36.746,0,0,0,6.551,2.853l.962.3-.38.932c-.665,1.628-2.672,3.079-5.114,3.7A9.5,9.5,0,0,1,430.554,1374.536Zm-3.359-2.948a5.889,5.889,0,0,0,5.233.859,7.092,7.092,0,0,0,3.285-1.765,36.526,36.526,0,0,1-5.781-2.63c-1.959-1.142-3.842-2.427-4.973-3.228a15.267,15.267,0,0,0-.255,2.363c-.042,1.7,1.259,3.389,2.492,4.4Z" transform="translate(-386.385 -1181.406)"/>
        </g>
      </g>
    </g>
  </g>
</svg>
