<svg xmlns="http://www.w3.org/2000/svg" width="363.701" height="283.374" viewBox="0 0 363.701 283.374">
  <g id="Grupo_54832" data-name="Grupo 54832" transform="translate(-940.298 -383.067)">
    <g id="Grupo_54653" data-name="Grupo 54653" transform="translate(241.835 -5542.477)">
      <g id="Grupo_54652" data-name="Grupo 54652" transform="translate(698.463 5948.961)">
        <g id="Grupo_54650" data-name="Grupo 54650" transform="translate(47.725)">
          <g id="Grupo_54648" data-name="Grupo 54648">
            <path id="Trazado_105296" data-name="Trazado 105296" d="M754.655,6148.459c-31.464-73.33,31.527-161.061,96.746-190.825,34.725-15.847,70.923-8.535,102.746,10.281a281.552,281.552,0,0,1,24.567,16.272c5.647,4.2,11.182,8.676,16.479,13.424C965.475,6079.349,899.226,6177.936,754.655,6148.459Z" transform="translate(-746.305 -5948.961)" fill="#0ac4bf"/>
          </g>
          <g id="Grupo_54649" data-name="Grupo 54649" transform="translate(8.349 48.65)">
            <path id="Trazado_105297" data-name="Trazado 105297" d="M1037.927,6061.477c10.254,38.249-3.234,79.055-35.234,102.687C971.3,6187.349,931.526,6197.24,894,6205.371c-51.709,11.2-114.663-2.212-138.517-54.944q-.416-.923-.812-1.848c144.571,29.477,210.821-69.11,240.537-150.848C1014.907,6015.387,1031.309,6036.792,1037.927,6061.477Z" transform="translate(-754.675 -5997.73)" fill="#08938f"/>
          </g>
        </g>
        <g id="Grupo_54651" data-name="Grupo 54651" transform="translate(0 55.274)">
          <path id="Trazado_105298" data-name="Trazado 105298" d="M772.309,6136.077a64.738,64.738,0,0,0-10.906-18.731l-1.815,4.56-2.364-9.061a54.7,54.7,0,0,0-12.212-8.975l.818,6.654-5.744-8.989a58.225,58.225,0,0,0-17.686-4.148l.165,4.679-2.364-4.817a77.279,77.279,0,0,0-13.636.611q1.821,4.046,3.795,7.653l4.4-.443-3.029,2.881a81.269,81.269,0,0,0,11.642,15.662l7-.708-3.744,3.862a55.968,55.968,0,0,0,10.178,7.348l10.756-1.747-3.853,4.933a44.462,44.462,0,0,0,27.176,1.246l-47.6-32.066S760.344,6128.816,772.309,6136.077Z" transform="translate(-698.483 -6004.597)" fill="#6cdcd9"/>
          <path id="Trazado_105299" data-name="Trazado 105299" d="M723.331,6106.5l47.6,32.066,3.212,2.164,1.878-2.39c-.119-.084-1.47-.91-3.669-2.244C760.385,6128.839,723.331,6106.5,723.331,6106.5Z" transform="translate(-698.524 -6004.62)" fill="#6cdcd9"/>
          <path id="Trazado_105300" data-name="Trazado 105300" d="M788.977,6112.472c-3.267,2.053-7.368,7.568-8.8,9.578q-.147-1-.3-2.01-.165-1.064-.337-2.126c1.836-2.008,6.6-7.609,7.892-12.891-3.22,2.825-6.61,9.443-7.984,12.306l-.006-.035q-.349-2.084-.737-4.164c1.289-1.713,7.325-10.063,8.23-17.335-3.923,4.335-7.438,14.5-8.284,17.062-.215-1.15-.435-2.3-.666-3.446-.189-.928-.387-1.854-.59-2.779,1.5-2.017,7.234-10.108,8.114-17.181-3.8,4.2-7.219,13.875-8.2,16.8q-.679-3.063-1.459-6.1c1.757-2.361,8.423-11.778,9.448-20.009-4.435,4.9-8.422,16.195-9.555,19.589q-.651-2.5-1.372-4.993c1.4-1.859,8.569-11.7,9.634-20.259-4.653,5.143-8.811,17.319-9.7,20.031q-.742-2.556-1.554-5.09c1.836-3.023,9.821-16.8,10.006-28.222-5.416,7.272-9.215,23.461-10.155,27.761q-.913-2.827-1.912-5.625c1.947-3.219,9.763-16.828,9.946-28.122-5.358,7.2-9.135,23.124-10.124,27.622q-.757-2.108-1.561-4.2-.359-.922-.729-1.842c2.171-3.6,10.653-18.41,10.852-30.715-5.851,7.857-9.978,25.233-11.068,30.187q-1.034-2.544-2.148-5.06c-.222-.5-.451-1-.679-1.494,1.781-2.91,10.844-18.318,11.051-31.043-6.1,8.185-10.32,26.7-11.189,30.741q-1.281-2.762-2.685-5.472c-.106-.207-.217-.411-.325-.618,1.874-3.78,9.8-20.668,8.768-34.1-5.645,9.066-8.378,28.542-9.014,33.632q-1.374-2.592-2.89-5.117c.9-4.054,4.456-21.9.073-34.606-3.225,9.7-1.165,28.5-.472,33.938-.038-.062-.074-.125-.112-.186-.358-.575-.7-1.158-1.07-1.725l-1.106-1.706c-.611-.893-1.215-1.789-1.846-2.67.195-1.906,2.04-21.841-4.537-34.856-2.1,10.934,3.688,32.055,4.441,34.725-.13-.181-.259-.361-.392-.54q-2.2-3.018-4.689-5.851c-.264-1.755-3.754-23.707-14.642-36.223.739,12.123,12.9,33.318,14.487,36.045a73.663,73.663,0,0,0-6.157-6.2c-.345-.306-.7-.607-1.047-.906-.733-1.895-8.9-22.414-22.29-32.613,3.276,11.421,19.3,29.4,21.965,32.339q-1.254-1.049-2.571-2.036l.081.031s-18.536-15.944-36.722-19.659c8.259,8.262,30.1,17.086,35.5,19.19.978.729,1.925,1.488,2.851,2.27-3.077-1.137-24.738-8.834-42.178-6.907,11.983,5.591,39.637,6.92,42.336,7.037.595.506,1.18,1.018,1.753,1.544A72.54,72.54,0,0,1,748.18,6044c-3.541-1.3-24.841-8.757-42.038-6.856,11.793,5.5,38.766,6.878,42.19,7.032,1.75,2.032,3.386,4.146,4.912,6.322.023.031.044.063.066.094-3.379-1.242-24.808-8.786-42.091-6.875,11.805,5.509,38.826,6.88,42.2,7.032.724,1.017,1.406,2.059,2.094,3.1l1.074,1.707c.361.568.692,1.152,1.04,1.726.2.342.4.688.6,1.031-4.052-1.473-24.935-8.656-41.848-6.787,11.584,5.406,37.813,6.827,41.985,7.021,1.047,1.824,2.05,3.67,2.988,5.546-4.129-1.5-24.948-8.64-41.817-6.775,11.546,5.387,37.642,6.818,41.942,7.02v0q1.359,2.723,2.6,5.495c-4.972-1.772-25.038-8.429-41.392-6.622,11.24,5.245,36.275,6.739,41.559,7,.206.463.41.926.609,1.393q1.179,2.755,2.258,5.546c-4.393-1.551-20.407-6.764-33.5-5.317,9.016,4.207,28.922,5.452,33.643,5.693.192.5.383,1,.571,1.5q.747,2.035,1.446,4.086c-3.466-1.239-17.841-6.031-29.548-4.737,8.022,3.744,25.9,4.807,29.634,4.992q.545,1.6,1.065,3.213.347,1.088.678,2.18c-3.488-1.223-15.358-5.031-25.086-3.956,6.7,3.126,21.388,4.08,25.184,4.279q.777,2.566,1.489,5.15c.034.117.065.236.1.355-3.548-1.224-13.824-4.407-22.3-3.476,5.869,2.749,18.514,3.655,22.406,3.876q.756,2.723,1.435,5.466c-3.444-1.194-13.843-4.453-22.4-3.513,5.912,2.771,18.705,3.67,22.493,3.882.094.376.188.753.28,1.13q.606,2.46,1.172,4.929c-3.184-1.121-13.873-4.557-22.633-3.594,6.026,2.824,19.2,3.7,22.7,3.893.195.847.391,1.694.579,2.542q.3,1.318.574,2.639c-2.188-.845-11.35-4.16-18.751-3.426,5.106,2.543,16.394,3.428,18.786,3.589q.422,2,.815,4c-2.359-.955-9.678-3.666-15.609-3.151,4.168,2.214,13.071,3.174,15.661,3.414.049.251.1.5.148.753.16.805.312,1.612.463,2.419.121.651.237,1.3.354,1.954-2.454-.987-9.663-3.623-15.517-3.114,4.12,2.189,12.869,3.152,15.57,3.4q.286,1.6.561,3.194c.44,2.626.86,5.258,1.237,7.9.4,2.637.73,5.283,1.03,7.935l.149-.014c-.186-5.355-.7-10.685-1.379-15.987-.12-.956-.251-1.909-.389-2.862C781.925,6121.038,787,6116.842,788.977,6112.472Z" transform="translate(-698.463 -6004.371)" fill="#6cdcd9"/>
        </g>
      </g>
    </g>
    <g id="Grupo_54647" data-name="Grupo 54647" transform="translate(928.926 -8804.746)">
      <g id="Grupo_54637" data-name="Grupo 54637" transform="translate(83.074 9332.128)">
        <path id="Trazado_105192" data-name="Trazado 105192" d="M294.28,9380.685l-13.592,132.044h-3l9.667-132.044Z" transform="translate(-126.239 -9374.906)" fill="#875b4b"/>
        <g id="Grupo_54636" data-name="Grupo 54636" transform="translate(0 0)">
          <g id="Grupo_54633" data-name="Grupo 54633" transform="translate(6.538 5.779)">
            <path id="Trazado_105193" data-name="Trazado 105193" d="M119.874,9380.685l13.592,132.044h3L126.8,9380.685Z" transform="translate(-97.774 -9380.685)" fill="#69463a"/>
            <path id="Trazado_105194" data-name="Trazado 105194" d="M91.475,9380.685l13.592,132.044h3L98.4,9380.685Z" transform="translate(-91.475 -9380.685)" fill="#875b4b"/>
          </g>
          <g id="Grupo_54634" data-name="Grupo 54634" transform="translate(129.35 5.779)">
            <path id="Trazado_105195" data-name="Trazado 105195" d="M265.881,9380.685l-13.592,132.044h-3l9.667-132.044Z" transform="translate(-249.29 -9380.685)" fill="#69463a"/>
          </g>
          <path id="Trazado_105196" data-name="Trazado 105196" d="M259.1,9373.259l-.636,5.778H85.967l-2.893-5.778Z" transform="translate(-83.074 -9373.259)" fill="#3a231b"/>
          <path id="Trazado_105197" data-name="Trazado 105197" d="M258.142,9427.959l-145.347,1.51v-56.21H253.76l2.112,26.376Z" transform="translate(-89.666 -9373.259)" fill="#85c4f2"/>
          <g id="Grupo_54635" data-name="Grupo 54635" transform="translate(40.038 0.587)">
            <rect id="Rectángulo_5490" data-name="Rectángulo 5490" width="0.983" height="3.285" transform="matrix(0.99, -0.141, 0.141, 0.99, 3.695, 26.159)" fill="#fff"/>
            <rect id="Rectángulo_5491" data-name="Rectángulo 5491" width="0.983" height="3.285" transform="matrix(0.99, -0.141, 0.141, 0.99, 2.771, 19.654)" fill="#fff"/>
            <rect id="Rectángulo_5492" data-name="Rectángulo 5492" width="0.984" height="3.285" transform="translate(4.619 32.664) rotate(-8.081)" fill="#fff"/>
            <rect id="Rectángulo_5493" data-name="Rectángulo 5493" width="0.983" height="3.285" transform="translate(5.542 39.17) rotate(-8.093)" fill="#fff"/>
            <rect id="Rectángulo_5494" data-name="Rectángulo 5494" width="0.984" height="3.285" transform="matrix(0.99, -0.141, 0.141, 0.99, 0, 0.138)" fill="#fff"/>
            <rect id="Rectángulo_5495" data-name="Rectángulo 5495" width="0.983" height="3.285" transform="translate(0.924 6.643) rotate(-8.082)" fill="#fff"/>
            <rect id="Rectángulo_5496" data-name="Rectángulo 5496" width="0.983" height="3.285" transform="translate(1.847 13.149) rotate(-8.093)" fill="#fff"/>
            <path id="Trazado_105198" data-name="Trazado 105198" d="M143.971,9433.691l-.165-1.163-.974.139.3,2.085,2.1-.183-.086-.98Z" transform="translate(-136.366 -9386.992)" fill="#fff"/>
            <rect id="Rectángulo_5497" data-name="Rectángulo 5497" width="3.794" height="0.984" transform="matrix(0.996, -0.087, 0.087, 0.996, 12.553, 46.27)" fill="#fff"/>
            <rect id="Rectángulo_5498" data-name="Rectángulo 5498" width="3.793" height="0.984" transform="matrix(0.996, -0.087, 0.087, 0.996, 20.112, 45.612)" fill="#fff"/>
            <path id="Trazado_105199" data-name="Trazado 105199" d="M171.307,9431.293l-1.227.107.086.98,2.041-.178.2-2.038-.979-.1Z" transform="translate(-142.41 -9386.446)" fill="#fff"/>
            <rect id="Rectángulo_5499" data-name="Rectángulo 5499" width="3.522" height="0.984" transform="translate(30.748 26.099) rotate(-84.36)" fill="#fff"/>
            <rect id="Rectángulo_5500" data-name="Rectángulo 5500" width="3.522" height="0.984" transform="translate(32.823 5.07) rotate(-84.36)" fill="#fff"/>
            <rect id="Rectángulo_5501" data-name="Rectángulo 5501" width="3.522" height="0.984" transform="translate(29.364 40.117) rotate(-84.36)" fill="#fff"/>
            <rect id="Rectángulo_5502" data-name="Rectángulo 5502" width="3.522" height="0.984" transform="translate(31.439 19.09) rotate(-84.36)" fill="#fff"/>
            <rect id="Rectángulo_5503" data-name="Rectángulo 5503" width="3.522" height="0.984" transform="translate(30.056 33.108) rotate(-84.36)" fill="#fff"/>
            <rect id="Rectángulo_5504" data-name="Rectángulo 5504" width="3.522" height="0.984" transform="translate(32.131 12.08) rotate(-84.36)" fill="#fff"/>
            <rect id="Rectángulo_5505" data-name="Rectángulo 5505" width="0.984" height="3.307" transform="matrix(0.999, -0.049, 0.049, 0.999, 16.89, 34.331)" fill="#fff"/>
            <rect id="Rectángulo_5506" data-name="Rectángulo 5506" width="0.984" height="3.307" transform="matrix(0.999, -0.049, 0.049, 0.999, 16.248, 21.119)" fill="#fff"/>
            <rect id="Rectángulo_5507" data-name="Rectángulo 5507" width="0.984" height="3.307" transform="translate(16.568 27.726) rotate(-2.805)" fill="#fff"/>
            <rect id="Rectángulo_5508" data-name="Rectángulo 5508" width="0.984" height="3.307" transform="matrix(0.999, -0.049, 0.049, 0.999, 15.926, 14.514)" fill="#fff"/>
            <rect id="Rectángulo_5509" data-name="Rectángulo 5509" width="0.984" height="3.307" transform="translate(15.604 7.908) rotate(-2.805)" fill="#fff"/>
            <rect id="Rectángulo_5510" data-name="Rectángulo 5510" width="0.984" height="3.307" transform="matrix(0.999, -0.049, 0.049, 0.999, 17.212, 40.937)" fill="#fff"/>
            <rect id="Rectángulo_5511" data-name="Rectángulo 5511" width="0.984" height="3.307" transform="translate(15.283 1.303) rotate(-2.806)" fill="#fff"/>
            <path id="Trazado_105200" data-name="Trazado 105200" d="M238.035,9374.869l-.95-.254a16.221,16.221,0,0,1-1.1,2.974l.882.435A17.144,17.144,0,0,0,238.035,9374.869Z" transform="translate(-157.026 -9374.147)" fill="#fff"/>
            <path id="Trazado_105201" data-name="Trazado 105201" d="M219.148,9390.869l-.225-.958c-1.012.239-2.082.436-3.181.585l.132.975C217.005,9391.316,218.107,9391.115,219.148,9390.869Z" transform="translate(-152.538 -9377.54)" fill="#fff"/>
            <path id="Trazado_105202" data-name="Trazado 105202" d="M227.186,9387.9l-.472-.862a21.577,21.577,0,0,1-2.92,1.318l.339.923A22.363,22.363,0,0,0,227.186,9387.9Z" transform="translate(-154.323 -9376.902)" fill="#fff"/>
            <path id="Trazado_105203" data-name="Trazado 105203" d="M210.715,9392.029l-.053-.982c-1.076.058-2.228.072-3.246.053l-.019.984c.3,0,.607.009.928.009C209.126,9392.093,209.93,9392.072,210.715,9392.029Z" transform="translate(-150.687 -9377.792)" fill="#fff"/>
            <path id="Trazado_105204" data-name="Trazado 105204" d="M233.171,9381.868a15.138,15.138,0,0,1-2.23,2.249l.623.762a16.128,16.128,0,0,0,2.376-2.4Z" transform="translate(-155.908 -9375.756)" fill="#fff"/>
            <rect id="Rectángulo_5512" data-name="Rectángulo 5512" width="0.984" height="3.28" transform="translate(51.798 4.653) rotate(-1.189)" fill="#fff"/>
            <path id="Trazado_105205" data-name="Trazado 105205" d="M202.723,9391.307l.1-.98c-.213-.02-.393-.04-.537-.057l-.039-1.878-.984.021.057,2.718.412.061S202.086,9391.244,202.723,9391.307Z" transform="translate(-149.325 -9377.203)" fill="#fff"/>
            <path id="Trazado_105206" data-name="Trazado 105206" d="M201.973,9375.416l-.984.02-.026-1.187h.984Z" transform="translate(-149.259 -9374.065)" fill="#fff"/>
            <path id="Trazado_105207" data-name="Trazado 105207" d="M201.734,9401.8v2.191h.984V9402.9c.274.027.645.061,1.1.1l.079-.98c-1.019-.082-1.609-.15-1.614-.152Z" transform="translate(-149.43 -9380.177)" fill="#fff"/>
            <rect id="Rectángulo_5513" data-name="Rectángulo 5513" width="0.984" height="2.333" transform="translate(52.304 26.147)" fill="#fff"/>
            <path id="Trazado_105208" data-name="Trazado 105208" d="M202.718,9414.705v-1.095h-.984v2.2l.558-.076c.006,0,.6-.079,1.585-.115l-.036-.984C203.378,9414.655,203,9414.682,202.718,9414.705Z" transform="translate(-149.43 -9382.796)" fill="#fff"/>
            <path id="Trazado_105209" data-name="Trazado 105209" d="M222.61,9420.411a18.76,18.76,0,0,1,2.347,1.744l.647-.74a19.771,19.771,0,0,0-2.47-1.837Z" transform="translate(-154.061 -9384.12)" fill="#fff"/>
            <path id="Trazado_105210" data-name="Trazado 105210" d="M208.28,9415.981a28.374,28.374,0,0,1,2.931.355l.17-.97a29.29,29.29,0,0,0-3.034-.367Z" transform="translate(-150.882 -9383.104)" fill="#fff"/>
            <path id="Trazado_105211" data-name="Trazado 105211" d="M215.737,9417.311a22.941,22.941,0,0,1,2.76,1.012l.4-.9a23.821,23.821,0,0,0-2.879-1.056Z" transform="translate(-152.536 -9383.407)" fill="#fff"/>
            <path id="Trazado_105212" data-name="Trazado 105212" d="M229.877,9425.9c-.275-.385-.564-.758-.861-1.116l-.757.63c.337.405.663.833.969,1.271l.156.223.27-.013c.455-.021,1.009-.054,1.646-.1l-.069-.98C230.723,9425.848,230.269,9425.876,229.877,9425.9Z" transform="translate(-155.313 -9385.273)" fill="#fff"/>
            <rect id="Rectángulo_5514" data-name="Rectángulo 5514" width="3.404" height="0.984" transform="matrix(0.994, -0.109, 0.109, 0.994, 99.603, 38.171)" fill="#fff"/>
            <rect id="Rectángulo_5515" data-name="Rectángulo 5515" width="3.405" height="0.984" transform="matrix(0.994, -0.112, 0.112, 0.994, 106.369, 37.418)" fill="#fff"/>
            <path id="Trazado_105213" data-name="Trazado 105213" d="M245.124,9424.818l.1.979c1.1-.111,2.236-.229,3.388-.348l-.1-.979C247.357,9424.59,246.224,9424.707,245.124,9424.818Z" transform="translate(-159.054 -9385.205)" fill="#fff"/>
            <path id="Trazado_105214" data-name="Trazado 105214" d="M236.421,9425.663l.087.98c1.045-.093,2.185-.2,3.394-.315l-.095-.98C238.6,9425.465,237.464,9425.57,236.421,9425.663Z" transform="translate(-157.124 -9385.399)" fill="#fff"/>
            <path id="Trazado_105215" data-name="Trazado 105215" d="M253.82,9423.907l.1.978c1.13-.12,2.263-.242,3.387-.364l-.107-.979C256.08,9423.665,254.948,9423.787,253.82,9423.907Z" transform="translate(-160.983 -9384.999)" fill="#fff"/>
            <path id="Trazado_105216" data-name="Trazado 105216" d="M281.063,9420.588l-1.195.139.113.978,2.058-.238.017-2.074-.984-.009Z" transform="translate(-166.76 -9384.076)" fill="#fff"/>
            <rect id="Rectángulo_5516" data-name="Rectángulo 5516" width="3.235" height="0.984" transform="translate(114.552 6.19) rotate(-89.522)" fill="#fff"/>
            <rect id="Rectángulo_5517" data-name="Rectángulo 5517" width="3.235" height="0.984" transform="translate(114.499 12.66) rotate(-89.511)" fill="#fff"/>
            <rect id="Rectángulo_5518" data-name="Rectángulo 5518" width="3.235" height="0.984" transform="translate(114.339 32.071) rotate(-89.522)" fill="#fff"/>
            <rect id="Rectángulo_5519" data-name="Rectángulo 5519" width="3.235" height="0.984" transform="matrix(0.008, -1, 1, 0.008, 114.446, 19.131)" fill="#fff"/>
            <rect id="Rectángulo_5520" data-name="Rectángulo 5520" width="3.235" height="0.984" transform="translate(114.392 25.601) rotate(-89.522)" fill="#fff"/>
            <path id="Trazado_105217" data-name="Trazado 105217" d="M208.835,9403.319c1.154.048,2.31.072,3.435.075l0-.984c-1.113,0-2.257-.027-3.4-.074Z" transform="translate(-151.005 -9380.296)" fill="#fff"/>
            <path id="Trazado_105218" data-name="Trazado 105218" d="M247.633,9383.492l-.973-.155a21.441,21.441,0,0,1-.766,3.249l.936.3A22.615,22.615,0,0,0,247.633,9383.492Z" transform="translate(-159.225 -9376.081)" fill="#fff"/>
            <path id="Trazado_105219" data-name="Trazado 105219" d="M248.25,9378.1c.013-.387.019-.768.019-1.141,0-.754-.026-1.536-.079-2.324l-.981.064c.051.768.076,1.527.076,2.26,0,.362-.006.73-.019,1.106Z" transform="translate(-159.517 -9374.151)" fill="#fff"/>
            <path id="Trazado_105220" data-name="Trazado 105220" d="M243.659,9391.423a14.1,14.1,0,0,1-1.924,2.673l.724.666a15.058,15.058,0,0,0,2.059-2.858Z" transform="translate(-158.302 -9377.875)" fill="#fff"/>
            <path id="Trazado_105221" data-name="Trazado 105221" d="M217.619,9402.288l.04.983c1.177-.047,2.334-.122,3.437-.223l-.09-.98C219.919,9402.168,218.78,9402.242,217.619,9402.288Z" transform="translate(-152.954 -9380.236)" fill="#fff"/>
            <path id="Trazado_105222" data-name="Trazado 105222" d="M229.6,9400.689c-1.027.254-2.141.477-3.31.66l.154.973c1.2-.189,2.337-.417,3.392-.678Z" transform="translate(-154.877 -9379.931)" fill="#fff"/>
            <path id="Trazado_105223" data-name="Trazado 105223" d="M237.645,9397.541a17.469,17.469,0,0,1-2.981,1.456l.352.919a18.687,18.687,0,0,0,3.15-1.539Z" transform="translate(-156.734 -9379.232)" fill="#fff"/>
          </g>
          <path id="Trazado_105224" data-name="Trazado 105224" d="M258.142,9431.61l-145.347,1.509v-43.4c14.437,31.276,96.4,36.144,143.077,13.565Z" transform="translate(-89.666 -9376.91)" fill="#5cb0ed" opacity="0.2" style="mix-blend-mode: multiply;isolation: isolate"/>
          <path id="Trazado_105225" data-name="Trazado 105225" d="M127.97,9387.17c23.545,20.371,80.689,25.928,114.287,1.852C208.659,9402.779,161.833,9404.1,127.97,9387.17Z" transform="translate(-93.032 -9376.344)" fill="#5cb0ed" opacity="0.2" style="mix-blend-mode: multiply;isolation: isolate"/>
        </g>
      </g>
      <g id="Grupo_54638" data-name="Grupo 54638" transform="translate(247.599 9245.829)">
        <path id="Trazado_105226" data-name="Trazado 105226" d="M335.991,9262.364c-6.191,2.679-40.25,26.935-41.468,32.63s32.05,48.924,32.05,48.924l3.651-3.81-13.543-38.734,19.38-9.854C345.986,9282.218,340.089,9264.135,335.991,9262.364Z" transform="translate(-294.49 -9262.364)" fill="#b8d3de"/>
      </g>
      <path id="Trazado_105227" data-name="Trazado 105227" d="M338.4,9379.59c-.048,12.232,4.325,39.628,9.165,66.069,5.91,32.376,12.51,63.336,12.51,63.336l4.791,1.234s-3.9-32.678-5.391-51.842c-.52-6.643-.749-15.553-.828-24.4-.158-16.673.23-33.108.23-33.7.1-.006,4.089,10.309,9.564,24.609,12.37,32.314,32.357,84.985,32.357,84.985l4.791-1.2-13.671-59.966-16.006-70.185S350.494,9382.929,338.4,9379.59Z" transform="translate(-56.631 -42.303)" fill="#4a5559"/>
      <path id="Trazado_105228" data-name="Trazado 105228" d="M390.235,9231.569,388.868,9251l-19.432,1.519,2.885-11.234Z" transform="translate(-63.514 -9.705)" fill="#eba87f"/>
      <path id="Trazado_105229" data-name="Trazado 105229" d="M337.471,9351.535c14.04,6.5,37.512-1.047,37.512-1.047s-.841-13.2,2.093-20.113c2.886-6.806,14.712-28.849,15.081-29.533l.006-.018c-2.783-12.426,6.775-24.566,12.577-28.074-4.822-5.239-19.739-15.535-19.739-15.535l-17.911-5.16-11.845,4.556s-7.924,2.1-9.388,2.728-6.914,10.054-9.219,17.6c-.69,2.25-1.36,8.032-1.82,15.564C333.733,9310.2,333.793,9337.573,337.471,9351.535Z" transform="translate(-55.7 -14.248)" fill="#b8d3de"/>
      <path id="Trazado_105230" data-name="Trazado 105230" d="M351.35,9302.082c2.13-16.135,11.456-34.518,14.275-39.792l-1.91-2.745,6.773-7.493,3.914,8.96-4.408,2.015c-14.267,34.236-11.725,67.026-11.18,82.683l-5.366,4.361-3.847-3.133C349.469,9338.378,349.384,9317.018,351.35,9302.082Z" transform="translate(-59.102 -14.248)" fill="#4e2d52"/>
      <path id="Trazado_105231" data-name="Trazado 105231" d="M337.471,9363.063c14.04,6.5,37.512-1.047,37.512-1.047s-.841-13.2,2.093-20.113c2.886-6.8,14.712-28.849,15.081-29.533l.006-.018s-35.467,8.982-48.763-.048a30.359,30.359,0,0,1-8.584-8.275C333.733,9321.729,333.793,9349.1,337.471,9363.063Z" transform="translate(-55.7 -25.776)" fill="#b8d3de" opacity="0.2" style="mix-blend-mode: multiply;isolation: isolate"/>
      <path id="Trazado_105232" data-name="Trazado 105232" d="M376.459,9250.842l16.851-4.252,1.063,9.413-14.422,7.591Z" transform="translate(-65.072 -13.036)" fill="#c7e4f0"/>
      <path id="Trazado_105233" data-name="Trazado 105233" d="M373.084,9251.274l-7.591,10.93-4.251-6.376,6.983-7.287Z" transform="translate(-61.697 -13.469)" fill="#c7e4f0"/>
      <path id="Trazado_105234" data-name="Trazado 105234" d="M389.7,9295.713l-1.467,3.353-11.123-3.147.838-2.725Z" transform="translate(-65.215 -23.373)" fill="#c7e4f0"/>
      <path id="Trazado_105235" data-name="Trazado 105235" d="M376.813,9376.432c.16.482.642,3.852.642,3.852s-15.405,3.21-24.712,3.21a40.446,40.446,0,0,1-15.2-2.633s-.642-3.691-.161-3.691a46.929,46.929,0,0,0,14.718,2.151C361.408,9379.32,376.813,9376.432,376.813,9376.432Z" transform="translate(-56.365 -41.835)" fill="#162d36"/>
      <path id="Trazado_105236" data-name="Trazado 105236" d="M418.584,9546.986l.585,3.061h17.884s-3.093-3.028-6.32-2.725-7.359-1.533-7.359-1.533Z" transform="translate(-74.415 -79.398)" fill="#1c2021"/>
      <path id="Trazado_105237" data-name="Trazado 105237" d="M366.99,9547.407l.749,3.263H347.973s1.479-2.375,3.227-2.666,8.82.129,11-1.83Z" transform="translate(-58.754 -79.483)" fill="#1c2021"/>
      <g id="Grupo_54639" data-name="Grupo 54639" transform="translate(300.082 9187.813)">
        <path id="Trazado_105238" data-name="Trazado 105238" d="M365.992,9236.855c13.327,3.035,24.265-12.022,24.372-12.349,0,0,8.021-12.888,6.177-18.739s-20.151-8.668-20.151-8.668-.382.6-1.023,1.636a145.348,145.348,0,0,0-10.506,20.252C361.473,9227.479,360.062,9235.507,365.992,9236.855Z" transform="translate(-361.931 -9189.873)" fill="#45283a"/>
        <path id="Trazado_105239" data-name="Trazado 105239" d="M365.7,9219.454c.905.337,2.276.82,3.895,1.371,6.127,2.058,15.829,4.958,17.689,3.856,2.546-1.507,7.167-10.1,7.167-10.1s.848-6.042-.377-7.835c-1.152-1.687-15.306-6.785-17.868-7.549-.8,1.293-1.99,3.271-3.339,5.659A127.985,127.985,0,0,0,365.7,9219.454Z" transform="translate(-362.767 -9190.34)" fill="#ffc393"/>
        <path id="Trazado_105240" data-name="Trazado 105240" d="M365.7,9220.936c.905.338,2.276.82,3.895,1.371,1.827-3.131,6.071-10.095,9.562-13.338.095-.09.2-.174.292-.264,0,0,.113-1.738-2.539-2.514s-4.044.152-4.044.152C370.6,9211.309,367.841,9217.256,365.7,9220.936Z" transform="translate(-362.767 -9191.821)" fill="#eba87f"/>
        <path id="Trazado_105241" data-name="Trazado 105241" d="M389.056,9218.911c-1.59,1.319-4.336,1.984-5.5,1.443-1.142-.529-.591-3.446-.591-3.446a7.012,7.012,0,0,0,1.132,2.265C384.662,9219.645,389.056,9218.911,389.056,9218.911Z" transform="translate(-366.567 -9194.267)" fill="#233545"/>
        <path id="Trazado_105242" data-name="Trazado 105242" d="M376.8,9214.564a5.8,5.8,0,0,1-3.557,1.4c-1.7-.133-.5-3.158-.532-3.258s.133,2.061.8,2.294A12.2,12.2,0,0,0,376.8,9214.564Z" transform="translate(-364.239 -9193.333)" fill="#233545"/>
        <path id="Trazado_105243" data-name="Trazado 105243" d="M392.092,9214c-2.846-2.264-8.666-3.88-8.666-3.88s.518-1.939,1.552-2.264,6.856,2.91,7.114,3.687A7.385,7.385,0,0,1,392.092,9214Z" transform="translate(-366.699 -9192.253)" fill="#45283a"/>
        <path id="Trazado_105244" data-name="Trazado 105244" d="M380.207,9206.629a11.733,11.733,0,0,0-6.984-.646,13.314,13.314,0,0,1-.195-2.522c.13-.389,6.726-.518,7.244.711A3.3,3.3,0,0,1,380.207,9206.629Z" transform="translate(-364.386 -9191.224)" fill="#45283a"/>
        <path id="Trazado_105245" data-name="Trazado 105245" d="M395.513,9219.372s7.633-10.145,10.746-15.467-3.415-11.35-17.074-15.166-20.25,5.228-11.179,7.937,14.292,2.308,17.306,5.221,2.109,7.331,2.009,8.537-3.214,8.034-3.214,8.034Z" transform="translate(-364.57 -9187.813)" fill="#45283a"/>
        <path id="Trazado_105246" data-name="Trazado 105246" d="M372.249,9228.183c2.763-2.2,5.609,1.626,6.585,2.764s4.552-.812,4.552-.812-.325,2.845-4.8,3.171S372.655,9230.378,372.249,9228.183Z" transform="translate(-364.22 -9196.619)" fill="#6c3e5b"/>
        <path id="Trazado_105247" data-name="Trazado 105247" d="M370.364,9227.1c-.976-3.334-2.846-2.032-3.9-1.22s-2.682-3.252-2.682-3.252-.244,4.8.732,5.529C367.595,9230.469,369.633,9229.131,370.364,9227.1Z" transform="translate(-362.335 -9195.535)" fill="#6c3e5b"/>
        <path id="Trazado_105248" data-name="Trazado 105248" d="M378.385,9213.513c-6.228,3.869-8.964,9.72-8.964,10.758s5,1.227,5.85.66S378.385,9213.513,378.385,9213.513Z" transform="translate(-363.593 -9193.514)" fill="#ffc393"/>
        <path id="Trazado_105249" data-name="Trazado 105249" d="M400.259,9225.706a1.756,1.756,0,0,1,1.1-.687c1.677-.312,5.772-.75,5.281,2.525-.616,4.106-9.039,6.878-9.275,2.628A34.171,34.171,0,0,1,400.259,9225.706Z" transform="translate(-369.79 -9196.019)" fill="#ffc393"/>
      </g>
      <g id="Grupo_54640" data-name="Grupo 54640" transform="translate(312.135 9258.498)">
        <path id="Trazado_105250" data-name="Trazado 105250" d="M416.922,9278.645c4.819,5.238,27.252,43.231,25.983,49.244s-51.881,33.421-51.881,33.421l-1.886-5.239,29.67-31.534-14.459-17.812C398.771,9293.5,412.212,9278.594,416.922,9278.645Z" transform="translate(-380.019 -9278.645)" fill="#b8d3de"/>
        <path id="Trazado_105251" data-name="Trazado 105251" d="M386.539,9377.583a24.3,24.3,0,0,0-3.27-1.849c-.923-.309-5.849.205-5.849.205s0,2.668.821,3.8,5.542,1.539,5.542,1.539a26.6,26.6,0,0,0,2.565,2.156c.821.512,2.078-.609,2.078-.609Z" transform="translate(-377.42 -9300.157)" fill="#ffc393"/>
      </g>
      <path id="Trazado_105252" data-name="Trazado 105252" d="M375.948,9383.734l-1.288-5.958-1.53.081,1.53,6.441Z" transform="translate(-64.334 -42.133)" fill="#4a5559"/>
      <path id="Trazado_105253" data-name="Trazado 105253" d="M345.482,9378.615l-.161,5.557-1.288-.081-.08-5.8Z" transform="translate(-57.862 -42.248)" fill="#4a5559"/>
      <path id="Trazado_105254" data-name="Trazado 105254" d="M356.762,9379.535l.886,5.476-5.314-.322v-5.073Z" transform="translate(-59.721 -42.523)" fill="#5b696e"/>
      <path id="Trazado_105255" data-name="Trazado 105255" d="M377.005,9438.118c12.37,32.314,32.357,84.986,32.357,84.986l4.791-1.2-13.671-59.966C398.455,9472.786,385.728,9453.205,377.005,9438.118Z" transform="translate(-65.193 -55.517)" fill="#66542f" opacity="0.4" style="mix-blend-mode: multiply;isolation: isolate"/>
      <path id="Trazado_105256" data-name="Trazado 105256" d="M350.179,9461.463c5.91,32.376,12.51,63.335,12.51,63.335l4.791,1.234s-3.9-32.678-5.391-51.842c-.52-6.642-.749-15.553-.828-24.4-1,8.4-2.6,16.4-5.04,19.056C354.4,9470.828,352.26,9467.265,350.179,9461.463Z" transform="translate(-59.243 -58.106)" fill="#66542f" opacity="0.4" style="mix-blend-mode: multiply;isolation: isolate"/>
      <g id="Grupo_54646" data-name="Grupo 54646" transform="translate(113.897 9259.383)">
        <path id="Trazado_105257" data-name="Trazado 105257" d="M232.609,9360.992c.717,2.135,3.826,3.021,22.7,14.771,21.679,13.494,45.525,26.408,45.525,26.408l3.995-.962-40.074-32.753-8.552-3.117-17.819-4.348S231.081,9356.4,232.609,9360.992Z" transform="translate(-147.017 -9297.341)" fill="#eba87f"/>
        <path id="Trazado_105258" data-name="Trazado 105258" d="M224.414,9355.125c.717,2.135,18.56,13.705,37.432,25.455,3.29-2.262,7.558-5.2,10.233-7.021l-5.239-4.335-28.26-17.533S222.885,9350.53,224.414,9355.125Z" transform="translate(-145.223 -9295.701)" fill="#728cb1"/>
        <path id="Trazado_105259" data-name="Trazado 105259" d="M283.916,9380.043l-11.48,10.449-4.735-4.222,13.865-8.19Z" transform="translate(-154.847 -9301.584)" fill="#89a4c9"/>
        <path id="Trazado_105260" data-name="Trazado 105260" d="M320.961,9409.9s4.358-1.109,5.3-1.354,3.647-2.5,4.651-3.111.487,1.881-.221,2.629a16.686,16.686,0,0,1-3.663,1.919s6.228,1.362,6.755,2-3.072,2.2-3.072,2.2-4.466,4.564-6.012,3.95-5.488-6.336-5.488-6.336Z" transform="translate(-166.271 -9307.63)" fill="#eba87f"/>
        <g id="Grupo_54641" data-name="Grupo 54641" transform="translate(152.327 74.594)">
          <path id="Trazado_105261" data-name="Trazado 105261" d="M325.883,9509.507c2.356-1.534,10.02-7,9.752-12.932-.128-2.822-2.009-5.216-5.591-7.112-10.191-5.4-10.967-10.312-8.886-19.983.706-3.282.917-11.577,1.184-22.077.538-21.1,1.273-50,6.427-64.01,1.74-4.734,3.119-5.951,3.626-5.941h.02c.142.014,1.417.309,2.58,6.764l1.786-.322c-1-5.537-2.295-8.081-4.207-8.248s-3.686,2.166-5.508,7.121c-5.257,14.294-6,43.365-6.538,64.59-.265,10.406-.474,18.626-1.145,21.743-2.195,10.2-1.286,16.089,9.812,21.968,2.974,1.575,4.53,3.456,4.627,5.591.178,3.946-4.5,8.44-8.93,11.329Z" transform="translate(-318.424 -9375.637)" fill="#f1dec1"/>
        </g>
        <g id="Grupo_54642" data-name="Grupo 54642" transform="translate(106.023 92.866)">
          <path id="Trazado_105262" data-name="Trazado 105262" d="M266.368,9399.115l34.846,39.9-2.577,1.254s-39.1-30.911-39.684-33.943S266.368,9399.115,266.368,9399.115Z" transform="translate(-258.923 -9399.115)" fill="#ffc393"/>
          <path id="Trazado_105263" data-name="Trazado 105263" d="M312.4,9450.293s4.085,1.881,4.969,2.282,4.409.351,5.573.509-.8,1.77-1.826,1.9a16.64,16.64,0,0,1-4.054-.814s3.982,4.979,3.988,5.809-3.77-.229-3.77-.229-6.342.736-7.158-.715-.277-8.377-.277-8.377Z" transform="translate(-270.178 -9410.466)" fill="#ffc393"/>
        </g>
        <path id="Trazado_105264" data-name="Trazado 105264" d="M215.911,9461.862l40.179-2.916-2.408,64.527,2.946.787s4.833-19.5,8.729-39.544c2.9-14.906,5.287-30.1,4.785-37.8-6.479-4.312-45.1-7.21-45.1-7.21l-9.612,1.18-1.833,21.147Z" transform="translate(-142.848 -9315.252)" fill="#8f7581"/>
        <path id="Trazado_105265" data-name="Trazado 105265" d="M256.749,9462.92l-2.408,64.527,2.946.787s4.833-19.5,8.729-39.544c-5.451,1.282-6.594-29.454-6.594-29.454l-35.364,1.973a36.581,36.581,0,0,1-4.543-3.558c-.339-.417-1.6,3.521-2.946,8.185Z" transform="translate(-143.506 -9319.226)" fill="#8f7581" opacity="0.3" style="mix-blend-mode: multiply;isolation: isolate"/>
        <path id="Trazado_105266" data-name="Trazado 105266" d="M125.9,9517.261v2.747s50.656,6.441,62.622,5.559a64.736,64.736,0,0,0,2.353-9.605c4.586-23.048,12.359-77.207,12.359-77.207l-16.872-3.333-9.921,5.782s-1.845,7.75-1.258,13.049c.3,2.729,2.015,18.359,3.605,32.9,1.5,13.726,2.9,26.477,2.9,26.477Z" transform="translate(-123.396 -9314.302)" fill="#8f7581"/>
        <path id="Trazado_105267" data-name="Trazado 105267" d="M237.028,9319.359c-.821.8-8.892,18.281-8.892,18.281l9.8,9.225,5-13.836Z" transform="translate(-146.071 -9288.56)" fill="#eba87f"/>
        <path id="Trazado_105268" data-name="Trazado 105268" d="M239.942,9353.014l.961-7.687-11.529-10.377-3.459,5.381Z" transform="translate(-145.579 -9292.018)" fill="#89a4c9"/>
        <path id="Trazado_105269" data-name="Trazado 105269" d="M190.848,9420.4a17.546,17.546,0,0,1,4.966-.187c.769.048,1.579.127,2.414.218,1.252.14,2.559.314,3.865.514,1.246.188,2.493.4,3.678.611,1.379.248,2.686.5,3.835.732,1.1.217,2.045.418,2.789.58,1.077.23,1.718.381,1.718.381l2.328-2.1,2.9-2.613.653-.587s.218-3.521.865-8.487c.133-1.01.278-2.087.447-3.206.284-1.869.623-3.859,1.028-5.892q.273-1.406.6-2.831c.109-.472.23-.955.363-1.445a64.393,64.393,0,0,1,2.4-6.794c.412-1.017.847-2.045,1.289-3.091.46-1.083.938-2.178,1.409-3.285.551-1.276,1.1-2.559,1.633-3.848a67.35,67.35,0,0,0,3.835-11.359,23.629,23.629,0,0,0,.6-5.01v-.332a24.163,24.163,0,0,0-1.034-6.377,27.689,27.689,0,0,0-1.216-3.3c-.139-.313-.278-.629-.436-.937-.2-.423-.417-.841-.64-1.245a20.85,20.85,0,0,0-5.8-6.884,10.558,10.558,0,0,0-3.968-1.84,7.432,7.432,0,0,0-3.243.024,9.611,9.611,0,0,0-3.775,2.172c-.212.181-.43.374-.647.586a20.855,20.855,0,0,0-2.009,2.227,30.663,30.663,0,0,0-3.418,5.547,44.354,44.354,0,0,0-1.984,4.81q-.681,1.941-1.27,4.2-.617,2.351-1.119,5.057c-.157.859-.321,1.736-.49,2.62-.175.968-.363,1.941-.556,2.933-.593,3.1-1.24,6.3-1.917,9.534q-.318,1.542-.647,3.085-.616,2.833-1.246,5.65-.363,1.588-.726,3.17c-.75,3.224-1.525,6.4-2.305,9.443-.356,1.408-.72,2.794-1.082,4.144-.551,2.032-1.1,3.986-1.646,5.837-.29.969-.574,1.912-.858,2.819C191.907,9417.344,191.375,9418.935,190.848,9420.4Z" transform="translate(-137.801 -9293.496)" fill="#604f69"/>
        <g id="Grupo_54643" data-name="Grupo 54643" transform="translate(54.638 50.27)" opacity="0.4" style="mix-blend-mode: multiply;isolation: isolate">
          <path id="Trazado_105270" data-name="Trazado 105270" d="M237.438,9355.782l-1.543-.653-6.63-2.807-3.95-1.677-6.231-2.637-1.433-.605a20.744,20.744,0,0,1,2.009-2.226l.163-.8.483.212,5.844,2.607,3.956,1.767,6.727,2.994.895.405.63.277c-.061.213-.127.436-.194.66a27.562,27.562,0,0,1,1.216,3.3Z" transform="translate(-198.384 -9344.379)" fill="#604f69"/>
          <path id="Trazado_105271" data-name="Trazado 105271" d="M230.545,9370.509l-6.436-1.422-4.047-.889-5.959-1.312-3.49-.774-1.536-.339q.59-2.259,1.27-4.2l1.059.205,3.6.714,6.152,1.21,4.1.811,6.684,1.318,1.7.333,4.87.962a23.629,23.629,0,0,1-.6,5.01l-5.619-1.24Z" transform="translate(-196.483 -9348.192)" fill="#604f69"/>
          <path id="Trazado_105272" data-name="Trazado 105272" d="M225.694,9388.1l-5.529-2.377L216.4,9384.1l-5.268-2.263-3.152-1.354-1.682-.721c.194-.992.381-1.966.556-2.934l1.682.636,3.237,1.221,5.444,2.058,3.835,1.445,5.759,2.178,1.815.685,4.84,1.826c-.532,1.289-1.082,2.57-1.633,3.848l-4.289-1.84Z" transform="translate(-195.865 -9351.577)" fill="#604f69"/>
          <path id="Trazado_105273" data-name="Trazado 105273" d="M222.6,9399.581l-5.5-1.022-3.908-.727-5.142-.955-3.061-.569-1.99-.368q.327-1.542.647-3.086l1.917.352,3.121.563,5.263.949,3.938.714,5.644,1.022,2.038.369,4.12.744c-.441,1.047-.877,2.074-1.289,3.091l-3.714-.689Z" transform="translate(-195.134 -9355.131)" fill="#604f69"/>
          <path id="Trazado_105274" data-name="Trazado 105274" d="M218.878,9412.6l-4.888-1.42-3.744-1.084-4.671-1.354-2.825-.823-2.286-.665q.363-1.581.726-3.17l2.171.526,2.916.7,4.851,1.174,3.812.926,5.124,1.234,2.171.525,3.2.775q-.2.735-.363,1.445-.327,1.424-.6,2.831l-3.381-.981Z" transform="translate(-194.572 -9357.62)" fill="#604f69"/>
          <path id="Trazado_105275" data-name="Trazado 105275" d="M214.887,9426.226l-4.627-.441-3.835-.368-4.4-.424-2.674-.254-3.242-.308c.363-1.351.726-2.735,1.082-4.145l2.91.393,2.728.369,4.507.611,3.83.514,4.749.642,2.444.333,4.12.557c-.17,1.119-.314,2.2-.447,3.206l-4.6-.441Z" transform="translate(-193.607 -9361.215)" fill="#604f69"/>
          <path id="Trazado_105276" data-name="Trazado 105276" d="M193.751,9433.112l3.721.816,2.486.545,4.023.883,3.672.812,4.095.895,2.644.58,5.409,1.187-2.9,2.613-3.351-.769-2.71-.623-3.931-.9-3.642-.835-3.907-.9-2.42-.556-4.04-.926C193.177,9435.023,193.461,9434.08,193.751,9433.112Z" transform="translate(-192.893 -9364.06)" fill="#604f69"/>
        </g>
        <g id="Grupo_54644" data-name="Grupo 54644" transform="translate(58.013 48.286)" opacity="0.3" style="mix-blend-mode: screen;isolation: isolate">
          <path id="Trazado_105277" data-name="Trazado 105277" d="M216.641,9419.3c.739-2.408,1.555-5.1,2.426-7.992.333-1.106.678-2.249,1.029-3.411.647-2.136,1.313-4.355,2-6.624.388-1.3.786-2.618,1.186-3.955.653-2.166,1.313-4.368,1.972-6.57.308-1.046.616-2.087.931-3.128q.726-2.413,1.433-4.8c.375-1.252.75-2.493,1.113-3.727,1.089-3.647,2.142-7.18,3.121-10.478q.726-2.432,1.4-4.676c.75-2.522,1.44-4.845,2.051-6.89q.509-1.726.938-3.17c.091-.29.17-.569.254-.841.223.4.441.822.64,1.246l.63.277c-.061.213-.127.436-.194.66-.223.774-.465,1.6-.725,2.48-.569,1.972-1.2,4.18-1.894,6.569-.429,1.512-.883,3.091-1.349,4.73-.968,3.394-2,7.029-3.055,10.774-.363,1.265-.725,2.546-1.082,3.834q-.626,2.18-1.24,4.38c-.3,1.053-.587,2.105-.883,3.146-.635,2.257-1.264,4.507-1.887,6.709-.387,1.373-.768,2.733-1.143,4.07-.6,2.179-1.2,4.29-1.767,6.316-.314,1.137-.629,2.244-.932,3.321-.865,3.1-1.651,5.921-2.323,8.329-.308,1.1-.593,2.118-.847,3.031-.26.938-.5,1.772-.7,2.486-.744-.163-1.693-.363-2.789-.581.237-.779.5-1.628.774-2.528C216.018,9421.354,216.32,9420.355,216.641,9419.3Z" transform="translate(-201.161 -9344.315)" fill="#604f69"/>
          <path id="Trazado_105278" data-name="Trazado 105278" d="M206.732,9415.11l1.731-7.1.913-3.757,1.942-7.974.882-3.61,1.5-6.158.756-3.115,1.717-7.061.817-3.356,2.232-9.165,1.095-4.5,2.257-9.243.834-3.447,1.174-4.8a10.589,10.589,0,0,1,3.968,1.84l-1.186,4.73-.84,3.357-2.105,8.378-1.149,4.572-2.444,9.722-.883,3.527-1.549,6.157-.786,3.128-1.6,6.357-.95,3.77-1.857,7.4-.907,3.611-1.893,7.538-.75,2.982-.678,2.7c-1.185-.212-2.432-.424-3.678-.611l.714-2.922Z" transform="translate(-199.02 -9341.829)" fill="#604f69"/>
          <path id="Trazado_105279" data-name="Trazado 105279" d="M197.9,9417.4l.539-2.929,1.167-6.346.75-4.06,1.682-9.17.611-3.309,1.065-5.809.575-3.1,1.682-9.165.556-3.019,1.464-7.973.793-4.332.925-5.016a30.732,30.732,0,0,1,3.418-5.547,20.838,20.838,0,0,1,2.009-2.226l-.575,2.831-2.177,10.67-.9,4.393-1.717,8.42-.641,3.152-1.712,8.373-.635,3.109-1.21,5.939-.7,3.431-1.778,8.716-.8,3.945-1.355,6.636-.6,2.939-.672,3.31c-.835-.092-1.645-.17-2.414-.218Z" transform="translate(-197.23 -9342.622)" fill="#604f69"/>
        </g>
        <path id="Trazado_105280" data-name="Trazado 105280" d="M232.382,9347.912c7.657,6.738,4.419,26.519-1.153,34.78s-10.184-12.105-8.84-22.29S227.578,9343.685,232.382,9347.912Z" transform="translate(-144.745 -9294.603)" fill="#647b9c"/>
        <path id="Trazado_105281" data-name="Trazado 105281" d="M232.516,9348.051c8.229,3.578,25.79,37.208,25.972,37.752s-6.355,13.188-6.355,13.188-25.054-36.256-25.78-41.332S228.347,9346.238,232.516,9348.051Z" transform="translate(-145.65 -9294.853)" fill="#728cb1"/>
        <path id="Trazado_105282" data-name="Trazado 105282" d="M264.891,9547.349l-.77,3.582h14.6l-10.886-2.8Z" transform="translate(-154.053 -9339.127)" fill="#604f69"/>
        <path id="Trazado_105283" data-name="Trazado 105283" d="M125.189,9543.335l.386,4.025,3.085,1.992-5.977-.356v-8.312l2.507-.1Z" transform="translate(-122.682 -9337.627)" fill="#604f69"/>
        <g id="Grupo_54645" data-name="Grupo 54645" transform="translate(84.536 0)">
          <path id="Trazado_105284" data-name="Trazado 105284" d="M232.669,9297.291c.3.288,1.619,12.04,1.619,12.04l3.846,2.118,5.566-.963-.911-13.869Z" transform="translate(-231.613 -9283.516)" fill="#ad886d"/>
          <path id="Trazado_105285" data-name="Trazado 105285" d="M258.888,9323.107c-.3,7.609-2.429,17.721-3.238,18.974-5.769-1.155-13.865-12.521-15.08-15.8s-1.012-8.187-1.012-8.187l.1-2.7,5.566-.963Z" transform="translate(-233.138 -9287.469)" fill="#64413f"/>
          <path id="Trazado_105286" data-name="Trazado 105286" d="M260.07,9329.431l-.809,3.468s-5.566-2.5-6.173-7.32C255.01,9328.274,260.07,9329.431,260.07,9329.431Z" transform="translate(-236.142 -9289.938)" fill="#fff"/>
          <path id="Trazado_105287" data-name="Trazado 105287" d="M259.569,9293.4s.809,7.993.911,8.476a30.662,30.662,0,0,1-.506,3.853s3.376,9.538,3.644,13.87c.1,1.637-16.193-3.371-17.711-5.877s-1.922-17.625-1.922-18.781S259.569,9293.4,259.569,9293.4Z" transform="translate(-234.123 -9282.802)" fill="#ffc393"/>
          <path id="Trazado_105288" data-name="Trazado 105288" d="M260.3,9289.705c-.533,1.857-27.73,5.875-28.944,4.236s22.872-13.965,26.819-14.156S260.6,9288.645,260.3,9289.705Z" transform="translate(-231.312 -9279.782)" fill="#64413f"/>
          <path id="Trazado_105289" data-name="Trazado 105289" d="M258.275,9310.783c-.16,1.455.155,2.678.7,2.729s1.12-1.085,1.279-2.539-.155-2.678-.7-2.729S258.435,9309.328,258.275,9310.783Z" transform="translate(-237.283 -9286.094)" fill="#233545"/>
          <path id="Trazado_105290" data-name="Trazado 105290" d="M262.379,9303.49c0,.385-.2,2.215-.2,2.215s-4.423-1.348-6.232-.1C256.214,9302.912,262.379,9303.49,262.379,9303.49Z" transform="translate(-236.776 -9285.028)" fill="#64413f"/>
          <path id="Trazado_105291" data-name="Trazado 105291" d="M240.086,9312.654l-.365,5.778s-2.279,1.35-3.282,1.061-3.556-6.454-2.461-8.958S239.63,9310.246,240.086,9312.654Z" transform="translate(-231.844 -9286.357)" fill="#ffc393"/>
        </g>
        <path id="Trazado_105292" data-name="Trazado 105292" d="M267.447,9394.428c0,.543-1.451,17.944-1.451,17.944l-7.069-1.994,6.707-16.313Z" transform="translate(-152.901 -9305.129)" fill="#89a4c9"/>
        <path id="Trazado_105293" data-name="Trazado 105293" d="M125.9,9532.006v2.746s50.656,6.441,62.622,5.559a64.736,64.736,0,0,0,2.353-9.605c-3.816-1.035-9.424-19.339-12.086-28.807,1.5,13.726,2.9,26.477,2.9,26.477Z" transform="translate(-123.396 -9329.046)" fill="#8f7581" opacity="0.3" style="mix-blend-mode: multiply;isolation: isolate"/>
        <path id="Trazado_105294" data-name="Trazado 105294" d="M332.716,9412.7c-4.168-.7-5.612-.28-2.174,1.3-4.328-.639-9.43,1.978-5.2,5.043s10.6-4.678,9.447-5.494A4.2,4.2,0,0,0,332.716,9412.7Z" transform="translate(-167.28 -9309.19)" fill="#ffc393"/>
      </g>
      <path id="Trazado_105295" data-name="Trazado 105295" d="M339.367,9362.165a22.982,22.982,0,0,1,3.543-.341c.918.09,4.986,2.431,4.986,2.431s-1.028,2.31-2.174,2.971-5.391-.8-5.391-.8a25.2,25.2,0,0,1-3.052.878c-.908.127-1.564-1.328-1.564-1.328Z" transform="translate(-56.035 -38.592)" fill="#ffc393"/>
    </g>
  </g>
</svg>
