<svg xmlns="http://www.w3.org/2000/svg" width="402.152" height="447.065" viewBox="0 0 402.152 447.065">
  <g id="Grupo_54820" data-name="Grupo 54820" transform="translate(-278.604 -4743)">
    <g id="Grupo_54819" data-name="Grupo 54819">
      <path id="Trazado_105626" data-name="Trazado 105626" d="M-185.747-6.035h-5.391v3.4h6.367V0h-9.795V-14.219h9.814v2.646h-6.387v3h5.391Zm7.754,3.066a.76.76,0,0,0-.439-.674,6.685,6.685,0,0,0-1.67-.527,7.615,7.615,0,0,1-2.031-.718,3.4,3.4,0,0,1-1.221-1.079,2.577,2.577,0,0,1-.42-1.455,2.92,2.92,0,0,1,1.2-2.4,4.948,4.948,0,0,1,3.145-.942,5.482,5.482,0,0,1,3.359.947,2.962,2.962,0,0,1,1.27,2.49h-3.3q0-1.27-1.338-1.27a1.326,1.326,0,0,0-.869.288.892.892,0,0,0-.352.718.819.819,0,0,0,.43.713,4.06,4.06,0,0,0,1.372.449,11.857,11.857,0,0,1,1.655.42,3.007,3.007,0,0,1,2.383,2.939A2.767,2.767,0,0,1-176.1-.713,5.632,5.632,0,0,1-179.429.2a5.747,5.747,0,0,1-2.422-.488,4.05,4.05,0,0,1-1.66-1.328,3.007,3.007,0,0,1-.6-1.768h3.076a1.272,1.272,0,0,0,.488,1.069,2.009,2.009,0,0,0,1.2.337,1.58,1.58,0,0,0,1.011-.273A.875.875,0,0,0-177.993-2.969Zm9.18.625a1.464,1.464,0,0,0,1.074-.376,1.379,1.379,0,0,0,.371-1.05h3.086a3.653,3.653,0,0,1-1.245,2.852A4.631,4.631,0,0,1-168.735.2a4.689,4.689,0,0,1-3.633-1.445,5.7,5.7,0,0,1-1.328-4v-.137a6.436,6.436,0,0,1,.591-2.827,4.3,4.3,0,0,1,1.7-1.885,5.081,5.081,0,0,1,2.637-.659,4.573,4.573,0,0,1,3.271,1.143,4.053,4.053,0,0,1,1.211,3.1h-3.086a1.807,1.807,0,0,0-.4-1.26,1.382,1.382,0,0,0-1.074-.439q-1.279,0-1.494,1.631a11.507,11.507,0,0,0-.068,1.426,4.52,4.52,0,0,0,.381,2.207A1.319,1.319,0,0,0-168.813-2.344ZM-156.938,0a3.716,3.716,0,0,1-.312-.947A3.06,3.06,0,0,1-159.79.2a3.749,3.749,0,0,1-2.539-.9,2.875,2.875,0,0,1-1.045-2.271,2.955,2.955,0,0,1,1.27-2.6,6.468,6.468,0,0,1,3.691-.879h1.016v-.559q0-1.462-1.26-1.462a1.03,1.03,0,0,0-1.172,1.158h-3.291a2.95,2.95,0,0,1,1.3-2.487,5.479,5.479,0,0,1,3.325-.956,4.8,4.8,0,0,1,3.193.986,3.429,3.429,0,0,1,1.2,2.705v4.678a4.79,4.79,0,0,0,.449,2.227V0ZM-159-2.148a1.836,1.836,0,0,0,1.021-.264,1.652,1.652,0,0,0,.581-.6V-4.7h-.957q-1.719,0-1.719,1.543a.942.942,0,0,0,.3.728A1.1,1.1,0,0,0-159-2.148ZM-148.8,0h-3.3V-15h3.3Zm7.979,0a3.716,3.716,0,0,1-.312-.947A3.06,3.06,0,0,1-143.677.2a3.749,3.749,0,0,1-2.539-.9,2.875,2.875,0,0,1-1.045-2.271,2.955,2.955,0,0,1,1.27-2.6,6.468,6.468,0,0,1,3.691-.879h1.016v-.559q0-1.462-1.26-1.462a1.03,1.03,0,0,0-1.172,1.158h-3.291a2.95,2.95,0,0,1,1.3-2.487,5.479,5.479,0,0,1,3.325-.956,4.8,4.8,0,0,1,3.193.986,3.429,3.429,0,0,1,1.2,2.705v4.678a4.79,4.79,0,0,0,.449,2.227V0Zm-2.061-2.148a1.836,1.836,0,0,0,1.021-.264,1.652,1.652,0,0,0,.581-.6V-4.7h-.957q-1.719,0-1.719,1.543a.942.942,0,0,0,.3.728A1.1,1.1,0,0,0-142.886-2.148Zm6.309-3.213a6.455,6.455,0,0,1,1.084-3.955,3.568,3.568,0,0,1,3.027-1.445,3.035,3.035,0,0,1,2.383,1.113V-15h3.3V0h-2.959l-.166-1.133A3.116,3.116,0,0,1-132.485.2a3.562,3.562,0,0,1-2.988-1.445A6.659,6.659,0,0,1-136.577-5.361Zm3.291.205q0,2.813,1.641,2.813a1.62,1.62,0,0,0,1.563-.918V-7.285a1.576,1.576,0,0,0-1.543-.937q-1.523,0-1.65,2.461Zm7.959-.225a6.236,6.236,0,0,1,.615-2.817,4.4,4.4,0,0,1,1.768-1.9,5.323,5.323,0,0,1,2.705-.664,4.858,4.858,0,0,1,3.74,1.47,5.64,5.64,0,0,1,1.367,4v.117A5.472,5.472,0,0,1-116.5-1.255,4.871,4.871,0,0,1-120.22.2a4.927,4.927,0,0,1-3.623-1.353,5.29,5.29,0,0,1-1.475-3.667Zm3.291.205a3.932,3.932,0,0,0,.459,2.148,1.529,1.529,0,0,0,1.357.684q1.758,0,1.8-2.705v-.332q0-2.842-1.816-2.842-1.65,0-1.787,2.451ZM-102.749,0a3.716,3.716,0,0,1-.312-.947A3.06,3.06,0,0,1-105.6.2a3.749,3.749,0,0,1-2.539-.9,2.875,2.875,0,0,1-1.045-2.271,2.955,2.955,0,0,1,1.27-2.6,6.468,6.468,0,0,1,3.691-.879h1.016v-.559q0-1.462-1.26-1.462a1.03,1.03,0,0,0-1.172,1.158h-3.291a2.95,2.95,0,0,1,1.3-2.487,5.479,5.479,0,0,1,3.325-.956,4.8,4.8,0,0,1,3.193.986,3.429,3.429,0,0,1,1.2,2.705v4.678a4.79,4.79,0,0,0,.449,2.227V0Zm-2.061-2.148a1.836,1.836,0,0,0,1.021-.264,1.653,1.653,0,0,0,.581-.6V-4.7h-.957q-1.719,0-1.719,1.543a.942.942,0,0,0,.3.728A1.1,1.1,0,0,0-104.81-2.148ZM-83.3-5.205A6.372,6.372,0,0,1-84.4-1.274,3.554,3.554,0,0,1-87.4.2,3.046,3.046,0,0,1-89.79-.869V4.063h-3.291V-10.566H-90l.1.977a3.046,3.046,0,0,1,2.49-1.172,3.582,3.582,0,0,1,3.037,1.44A6.45,6.45,0,0,1-83.3-5.361Zm-3.291-.205q0-2.812-1.641-2.812a1.549,1.549,0,0,0-1.562.84v4.16a1.6,1.6,0,0,0,1.582.879q1.572,0,1.621-2.715ZM-75.894,0a3.716,3.716,0,0,1-.312-.947A3.06,3.06,0,0,1-78.745.2a3.749,3.749,0,0,1-2.539-.9,2.875,2.875,0,0,1-1.045-2.271,2.955,2.955,0,0,1,1.27-2.6,6.468,6.468,0,0,1,3.691-.879h1.016v-.559q0-1.462-1.26-1.462a1.03,1.03,0,0,0-1.172,1.158h-3.291a2.95,2.95,0,0,1,1.3-2.487,5.479,5.479,0,0,1,3.325-.956,4.8,4.8,0,0,1,3.193.986,3.429,3.429,0,0,1,1.2,2.705v4.678A4.79,4.79,0,0,0-72.6-.166V0Zm-2.061-2.148a1.836,1.836,0,0,0,1.021-.264,1.653,1.653,0,0,0,.581-.6V-4.7h-.957q-1.719,0-1.719,1.543a.942.942,0,0,0,.3.728A1.1,1.1,0,0,0-77.954-2.148Zm13.115-5.439-1.084-.078a1.947,1.947,0,0,0-1.992.977V0h-3.291V-10.566h3.086l.107,1.357A2.548,2.548,0,0,1-65.7-10.762a3.209,3.209,0,0,1,.918.117Zm5.508-5.605v2.627h1.738v2.285h-1.738v4.834a1.234,1.234,0,0,0,.215.83,1.152,1.152,0,0,0,.85.234,4.828,4.828,0,0,0,.82-.059V-.088A6.074,6.074,0,0,1-59.3.2a3.448,3.448,0,0,1-2.51-.8,3.282,3.282,0,0,1-.811-2.432V-8.281H-63.97v-2.285h1.348v-2.627ZM-52.827,0h-3.3V-10.566h3.3Zm-3.5-13.3a1.482,1.482,0,0,1,.508-1.159,1.909,1.909,0,0,1,1.318-.452,1.909,1.909,0,0,1,1.318.452,1.482,1.482,0,0,1,.508,1.159,1.482,1.482,0,0,1-.508,1.159,1.909,1.909,0,0,1-1.318.452,1.909,1.909,0,0,1-1.318-.452A1.482,1.482,0,0,1-56.323-13.3Zm11.914,5.713-1.084-.078a1.947,1.947,0,0,0-1.992.977V0h-3.291V-10.566h3.086l.107,1.357a2.548,2.548,0,0,1,2.314-1.553,3.209,3.209,0,0,1,.918.117Zm5.752,2.227a6.455,6.455,0,0,1,1.084-3.955,3.568,3.568,0,0,1,3.027-1.445,3.035,3.035,0,0,1,2.383,1.113V-15h3.3V0h-2.959l-.166-1.133A3.116,3.116,0,0,1-34.565.2,3.562,3.562,0,0,1-37.554-1.25,6.659,6.659,0,0,1-38.657-5.361Zm3.291.205q0,2.813,1.641,2.813a1.62,1.62,0,0,0,1.563-.918V-7.285a1.576,1.576,0,0,0-1.543-.937q-1.523,0-1.65,2.461ZM-21.88.2a5.432,5.432,0,0,1-3.936-1.45,5.008,5.008,0,0,1-1.5-3.774V-5.3a6.489,6.489,0,0,1,.6-2.861,4.395,4.395,0,0,1,1.753-1.919,5.292,5.292,0,0,1,2.734-.679A4.574,4.574,0,0,1-18.716-9.38a5.43,5.43,0,0,1,1.289,3.853v1.279H-23.97a2.372,2.372,0,0,0,.771,1.4,2.3,2.3,0,0,0,1.543.508,2.958,2.958,0,0,0,2.441-1.094l1.5,1.777A4.2,4.2,0,0,1-19.453-.308,5.891,5.891,0,0,1-21.88.2Zm-.371-8.418q-1.445,0-1.719,1.914h3.32v-.254a1.63,1.63,0,0,0-.4-1.226A1.593,1.593,0,0,0-22.251-8.223ZM-7.651,0h-3.3V-15h3.3ZM-6.04-5.381A6.236,6.236,0,0,1-5.425-8.2a4.4,4.4,0,0,1,1.768-1.9,5.323,5.323,0,0,1,2.705-.664,4.858,4.858,0,0,1,3.74,1.47,5.64,5.64,0,0,1,1.367,4v.117A5.472,5.472,0,0,1,2.783-1.255,4.871,4.871,0,0,1-.933.2,4.927,4.927,0,0,1-4.556-1.157,5.29,5.29,0,0,1-6.03-4.824Zm3.291.205A3.932,3.932,0,0,0-2.29-3.027a1.529,1.529,0,0,0,1.357.684q1.758,0,1.8-2.705v-.332q0-2.842-1.816-2.842-1.65,0-1.787,2.451ZM11.138-2.969a.76.76,0,0,0-.439-.674,6.685,6.685,0,0,0-1.67-.527A7.615,7.615,0,0,1,7-4.888,3.4,3.4,0,0,1,5.776-5.967a2.577,2.577,0,0,1-.42-1.455,2.92,2.92,0,0,1,1.2-2.4A4.948,4.948,0,0,1,9.7-10.762a5.482,5.482,0,0,1,3.359.947,2.962,2.962,0,0,1,1.27,2.49h-3.3q0-1.27-1.338-1.27a1.326,1.326,0,0,0-.869.288.892.892,0,0,0-.352.718.819.819,0,0,0,.43.713,4.06,4.06,0,0,0,1.372.449,11.857,11.857,0,0,1,1.655.42,3.007,3.007,0,0,1,2.383,2.939A2.767,2.767,0,0,1,13.027-.713,5.632,5.632,0,0,1,9.7.2,5.747,5.747,0,0,1,7.28-.293,4.05,4.05,0,0,1,5.62-1.621a3.007,3.007,0,0,1-.6-1.768H8.1a1.272,1.272,0,0,0,.488,1.069,2.009,2.009,0,0,0,1.2.337A1.58,1.58,0,0,0,10.8-2.256.875.875,0,0,0,11.138-2.969ZM25.942.2a5.432,5.432,0,0,1-3.936-1.45,5.008,5.008,0,0,1-1.5-3.774V-5.3a6.489,6.489,0,0,1,.6-2.861,4.395,4.395,0,0,1,1.753-1.919,5.292,5.292,0,0,1,2.734-.679A4.574,4.574,0,0,1,29.106-9.38,5.43,5.43,0,0,1,30.4-5.527v1.279H23.853a2.372,2.372,0,0,0,.771,1.4,2.3,2.3,0,0,0,1.543.508,2.958,2.958,0,0,0,2.441-1.094l1.5,1.777A4.2,4.2,0,0,1,28.369-.308,5.891,5.891,0,0,1,25.942.2Zm-.371-8.418q-1.445,0-1.719,1.914h3.32v-.254a1.63,1.63,0,0,0-.4-1.226A1.593,1.593,0,0,0,25.571-8.223Zm9.688-2.344V.361a3.836,3.836,0,0,1-1.074,2.891,4.127,4.127,0,0,1-2.969,1.016A7.009,7.009,0,0,1,29.663,4.1V1.611a6.3,6.3,0,0,0,.928.088A1.2,1.2,0,0,0,31.958.342V-10.566ZM31.714-13.3a1.482,1.482,0,0,1,.508-1.159,1.909,1.909,0,0,1,1.318-.452,1.909,1.909,0,0,1,1.318.452,1.482,1.482,0,0,1,.508,1.159,1.482,1.482,0,0,1-.508,1.159,1.909,1.909,0,0,1-1.318.452,1.909,1.909,0,0,1-1.318-.452A1.482,1.482,0,0,1,31.714-13.3ZM42.231.2A5.432,5.432,0,0,1,38.3-1.255a5.008,5.008,0,0,1-1.5-3.774V-5.3a6.489,6.489,0,0,1,.6-2.861,4.395,4.395,0,0,1,1.753-1.919,5.292,5.292,0,0,1,2.734-.679A4.574,4.574,0,0,1,45.4-9.38a5.43,5.43,0,0,1,1.289,3.853v1.279H40.142a2.372,2.372,0,0,0,.771,1.4,2.3,2.3,0,0,0,1.543.508A2.958,2.958,0,0,0,44.9-3.437L46.4-1.66A4.2,4.2,0,0,1,44.658-.308,5.891,5.891,0,0,1,42.231.2ZM41.86-8.223q-1.445,0-1.719,1.914h3.32v-.254a1.63,1.63,0,0,0-.4-1.226A1.593,1.593,0,0,0,41.86-8.223ZM53.54-2.969a.76.76,0,0,0-.439-.674,6.685,6.685,0,0,0-1.67-.527A7.615,7.615,0,0,1,49.4-4.888a3.4,3.4,0,0,1-1.221-1.079,2.577,2.577,0,0,1-.42-1.455,2.92,2.92,0,0,1,1.2-2.4,4.948,4.948,0,0,1,3.145-.942,5.482,5.482,0,0,1,3.359.947,2.962,2.962,0,0,1,1.27,2.49h-3.3q0-1.27-1.338-1.27a1.326,1.326,0,0,0-.869.288.892.892,0,0,0-.352.718.819.819,0,0,0,.43.713,4.06,4.06,0,0,0,1.372.449,11.857,11.857,0,0,1,1.655.42,3.007,3.007,0,0,1,2.383,2.939A2.767,2.767,0,0,1,55.43-.713,5.632,5.632,0,0,1,52.1.2a5.747,5.747,0,0,1-2.422-.488,4.05,4.05,0,0,1-1.66-1.328,3.007,3.007,0,0,1-.6-1.768H50.5a1.272,1.272,0,0,0,.488,1.069,2.009,2.009,0,0,0,1.2.337A1.58,1.58,0,0,0,53.2-2.256.875.875,0,0,0,53.54-2.969ZM68.345.2a5.432,5.432,0,0,1-3.936-1.45,5.008,5.008,0,0,1-1.5-3.774V-5.3a6.489,6.489,0,0,1,.6-2.861,4.395,4.395,0,0,1,1.753-1.919,5.292,5.292,0,0,1,2.734-.679A4.574,4.574,0,0,1,71.509-9.38,5.43,5.43,0,0,1,72.8-5.527v1.279H66.255a2.372,2.372,0,0,0,.771,1.4,2.3,2.3,0,0,0,1.543.508,2.958,2.958,0,0,0,2.441-1.094l1.5,1.777A4.2,4.2,0,0,1,70.771-.308,5.891,5.891,0,0,1,68.345.2Zm-.371-8.418q-1.445,0-1.719,1.914h3.32v-.254a1.63,1.63,0,0,0-.4-1.226A1.593,1.593,0,0,0,67.974-8.223Zm9.17-2.344.107,1.24a3.583,3.583,0,0,1,3.018-1.436,3.015,3.015,0,0,1,2.466.986,4.7,4.7,0,0,1,.845,2.969V0h-3.3V-6.67a1.783,1.783,0,0,0-.322-1.177,1.491,1.491,0,0,0-1.172-.376,1.569,1.569,0,0,0-1.436.762V0H74.058V-10.566ZM96.675-1.143A3.393,3.393,0,0,1,93.853.2,3.328,3.328,0,0,1,91.221-.815a4.251,4.251,0,0,1-.894-2.905v-6.846h3.291V-3.7a1.183,1.183,0,0,0,1.318,1.357,1.72,1.72,0,0,0,1.611-.811v-7.412h3.311V0H96.772Zm8.008-9.424.107,1.24a3.583,3.583,0,0,1,3.018-1.436,3.015,3.015,0,0,1,2.466.986,4.7,4.7,0,0,1,.845,2.969V0h-3.3V-6.67a1.783,1.783,0,0,0-.322-1.177,1.491,1.491,0,0,0-1.172-.376,1.569,1.569,0,0,0-1.436.762V0H101.6V-10.566Zm23.047,5.361a6.372,6.372,0,0,1-1.108,3.931A3.554,3.554,0,0,1,123.628.2a3.046,3.046,0,0,1-2.393-1.064V4.063h-3.291V-10.566h3.076l.1.977a3.046,3.046,0,0,1,2.49-1.172,3.582,3.582,0,0,1,3.037,1.44,6.45,6.45,0,0,1,1.084,3.96Zm-3.291-.205q0-2.812-1.641-2.812a1.549,1.549,0,0,0-1.562.84v4.16a1.6,1.6,0,0,0,1.582.879q1.572,0,1.621-2.715ZM135.132,0a3.716,3.716,0,0,1-.312-.947A3.06,3.06,0,0,1,132.28.2a3.749,3.749,0,0,1-2.539-.9A2.875,2.875,0,0,1,128.7-2.979a2.955,2.955,0,0,1,1.27-2.6,6.468,6.468,0,0,1,3.691-.879h1.016v-.559q0-1.462-1.26-1.462a1.03,1.03,0,0,0-1.172,1.158H128.95a2.95,2.95,0,0,1,1.3-2.487,5.479,5.479,0,0,1,3.325-.956,4.8,4.8,0,0,1,3.193.986,3.429,3.429,0,0,1,1.2,2.705v4.678a4.79,4.79,0,0,0,.449,2.227V0Zm-2.061-2.148a1.836,1.836,0,0,0,1.021-.264,1.652,1.652,0,0,0,.581-.6V-4.7h-.957Q132-4.7,132-3.154a.942.942,0,0,0,.3.728A1.1,1.1,0,0,0,133.071-2.148Zm9.746-8.418.107,1.24a3.583,3.583,0,0,1,3.018-1.436,3.015,3.015,0,0,1,2.466.986,4.7,4.7,0,0,1,.845,2.969V0h-3.3V-6.67a1.783,1.783,0,0,0-.322-1.177,1.491,1.491,0,0,0-1.172-.376,1.569,1.569,0,0,0-1.436.762V0h-3.291V-10.566Zm12.09-2.627v2.627h1.738v2.285h-1.738v4.834a1.234,1.234,0,0,0,.215.83,1.152,1.152,0,0,0,.85.234,4.828,4.828,0,0,0,.82-.059V-.088A6.074,6.074,0,0,1,154.937.2a3.448,3.448,0,0,1-2.51-.8,3.282,3.282,0,0,1-.811-2.432V-8.281h-1.348v-2.285h1.348v-2.627ZM163.892,0a3.716,3.716,0,0,1-.312-.947A3.06,3.06,0,0,1,161.04.2a3.749,3.749,0,0,1-2.539-.9,2.875,2.875,0,0,1-1.045-2.271,2.955,2.955,0,0,1,1.27-2.6,6.468,6.468,0,0,1,3.691-.879h1.016v-.559q0-1.462-1.26-1.462A1.03,1.03,0,0,0,161-7.319H157.71a2.95,2.95,0,0,1,1.3-2.487,5.479,5.479,0,0,1,3.325-.956,4.8,4.8,0,0,1,3.193.986,3.429,3.429,0,0,1,1.2,2.705v4.678a4.79,4.79,0,0,0,.449,2.227V0Zm-2.061-2.148a1.836,1.836,0,0,0,1.021-.264,1.652,1.652,0,0,0,.581-.6V-4.7h-.957q-1.719,0-1.719,1.543a.942.942,0,0,0,.3.728A1.1,1.1,0,0,0,161.831-2.148ZM172.026,0h-3.3V-15h3.3Zm1.611-5.381a6.236,6.236,0,0,1,.615-2.817,4.4,4.4,0,0,1,1.768-1.9,5.323,5.323,0,0,1,2.705-.664,4.858,4.858,0,0,1,3.74,1.47,5.64,5.64,0,0,1,1.367,4v.117a5.472,5.472,0,0,1-1.372,3.921A4.871,4.871,0,0,1,178.745.2a4.927,4.927,0,0,1-3.623-1.353,5.29,5.29,0,0,1-1.475-3.667Zm3.291.205a3.932,3.932,0,0,0,.459,2.148,1.529,1.529,0,0,0,1.357.684q1.758,0,1.8-2.705v-.332q0-2.842-1.816-2.842-1.65,0-1.787,2.451ZM179.175-15h3.477l-2.715,3.066-2.686,0Zm9.131,4.434.107,1.24a3.583,3.583,0,0,1,3.018-1.436,3.015,3.015,0,0,1,2.466.986,4.7,4.7,0,0,1,.845,2.969V0h-3.3V-6.67a1.783,1.783,0,0,0-.322-1.177,1.491,1.491,0,0,0-1.172-.376,1.569,1.569,0,0,0-1.436.762V0H185.22V-10.566Z" transform="translate(481 5185.797)" fill="#12263f"/>
      <g id="Grupo_53473" data-name="Grupo 53473" transform="translate(-490.912 2732.35)">
        <path id="Trazado_100325" data-name="Trazado 100325" d="M834.406,2050.087h59.557s22.906,24.815,15.653,95.062l-7.636,89.334L897.4,2369.249l-.382,11.071H829.061V2250.9s-1.527-89.334-15.653-121.021c0,0,18.325-1.528,20.616-29.779Z" transform="translate(4.284 3.849)" fill="#fff" stroke="#000" stroke-miterlimit="10" stroke-width="1"/>
        <path id="Trazado_100326" data-name="Trazado 100326" d="M1048.252,2040.7l63.756,8.4-4.2,57.648-3.818,44.284-6.872,63.375-3.055,53.83-3.054,113h-75.591V2248.38s-4.2-89.716-18.706-116.059c0,0,30.924,10.69,42.376-59.557Z" transform="translate(22.173 2.932)" fill="#fff" stroke="#000" stroke-miterlimit="10" stroke-width="1"/>
        <line id="Línea_186" data-name="Línea 186" y2="402.152" transform="translate(1075.388 2010.65)" fill="none" stroke="red" stroke-miterlimit="10" stroke-width="0.75" stroke-dasharray="12"/>
        <line id="Línea_187" data-name="Línea 187" y2="402.152" transform="translate(865.795 2010.65)" fill="none" stroke="red" stroke-miterlimit="10" stroke-width="0.75" stroke-dasharray="12"/>
        <line id="Línea_188" data-name="Línea 188" x2="402.152" transform="translate(769.516 2133.726)" fill="none" stroke="red" stroke-miterlimit="10" stroke-width="0.75" stroke-dasharray="12"/>
        <path id="Trazado_100327" data-name="Trazado 100327" d="M1075.969,2046.19l-5.3,19.041-1.5-21.176,7.065.9Z" transform="translate(29.245 3.26)" fill="none" stroke="#000" stroke-linejoin="round" stroke-width="1"/>
        <text id="Línea_tiro_eje_horizontal_" data-name="Línea tiro (eje horizontal)" transform="translate(866.506 2123.568)" fill="red" font-size="20" font-family="MyriadPro-Regular, Myriad Pro"><tspan x="0" y="0">Línea tiro (eje horizontal)</tspan></text>
        <text id="_L._Aplome_eje_vertical_" data-name=" L. Aplome (eje vertical)" transform="translate(855.799 2380.349) rotate(-90)" fill="red" font-size="20" font-family="MyriadPro-Regular, Myriad Pro"><tspan x="0" y="0" xml:space="preserve"> L. Aplome (eje vertical)</tspan></text>
        <text id="_L._Aplome_eje_vertical_2" data-name=" L. Aplome (eje vertical)" transform="translate(1064.819 2380.349) rotate(-90)" fill="red" font-size="20" font-family="MyriadPro-Regular, Myriad Pro"><tspan x="0" y="0" xml:space="preserve"> L. Aplome (eje vertical)</tspan></text>
        <text id="Ejes_de_escalado" data-name="Ejes de escalado" transform="translate(898.008 2427.356)" font-size="16" font-family="MyriadPro-Regular, Myriad Pro"><tspan x="0" y="0">Ejes de escalado</tspan></text>
        <text id="Delantero" transform="translate(877.8 2199.35) rotate(90)" font-size="8" font-family="MyriadPro-Regular, Myriad Pro"><tspan x="0" y="0">Delantero</tspan></text>
        <text id="Trasero" transform="translate(1083.098 2202.5) rotate(90)" font-size="8" font-family="MyriadPro-Regular, Myriad Pro"><tspan x="0" y="0">Trasero</tspan></text>
      </g>
    </g>
  </g>
</svg>
