<svg xmlns="http://www.w3.org/2000/svg" width="1227" height="546" viewBox="0 0 1227 546">
  <g id="Grupo_54816" data-name="Grupo 54816" transform="translate(-162.816 -2271.271)">
    <rect id="Rectángulo_5227" data-name="Rectángulo 5227" width="1227" height="546" rx="10" transform="translate(162.816 2271.271)" fill="#cff0ef"/>
    <g id="Grupo_53876" data-name="Grupo 53876" transform="translate(383.3 2281.032)">
      <path id="Trazado_101504" data-name="Trazado 101504" d="M436.274,7044.494l9.362,81.917s-109.417,27.5-347.562,4.1l2.963-81.075S299.5,7072.8,436.274,7044.494Z" transform="translate(-94.417 -6973.402)" fill="#fff" stroke="#056260" stroke-miterlimit="10" stroke-width="3"/>
      <circle id="Elipse_3993" data-name="Elipse 3993" cx="2.633" cy="2.633" r="2.633" transform="translate(4.169 73.433)" fill="#056260"/>
      <circle id="Elipse_3994" data-name="Elipse 3994" cx="2.633" cy="2.633" r="2.633" transform="translate(0 154.618)" fill="#056260"/>
      <circle id="Elipse_3995" data-name="Elipse 3995" cx="2.633" cy="2.633" r="2.633" transform="translate(67.225 161.146)" fill="#056260"/>
      <circle id="Elipse_3996" data-name="Elipse 3996" cx="2.633" cy="2.633" r="2.633" transform="translate(349.099 150.339)" fill="#056260"/>
      <circle id="Elipse_3997" data-name="Elipse 3997" cx="2.633" cy="2.633" r="2.633" transform="translate(339.225 68.459)" fill="#056260"/>
      <path id="Trazado_101505" data-name="Trazado 101505" d="M708.108,7013.472l-17.115,79.248s98.3,41,183.436,25.636,151.231-81.625,182.557-110.149l-35.546-68.459s-80.089,81.186-152.278,95.229S708.108,7013.472,708.108,7013.472Z" transform="translate(-284.919 -6939.747)" fill="#fff" stroke="#056260" stroke-miterlimit="10" stroke-width="3"/>
      <circle id="Elipse_3998" data-name="Elipse 3998" cx="2.633" cy="2.633" r="2.633" transform="translate(403.441 150.376)" fill="#056260"/>
      <circle id="Elipse_3999" data-name="Elipse 3999" cx="2.633" cy="2.633" r="2.633" transform="translate(420.63 71.092)" fill="#056260"/>
      <circle id="Elipse_4000" data-name="Elipse 4000" cx="2.633" cy="2.633" r="2.633" transform="translate(534.509 95.009)" fill="#056260"/>
      <circle id="Elipse_4001" data-name="Elipse 4001" cx="2.633" cy="2.633" r="2.633" transform="translate(534.016 181.284)" fill="#056260"/>
      <circle id="Elipse_4002" data-name="Elipse 4002" cx="2.633" cy="2.633" r="2.633" transform="translate(661.499 151.15)" fill="#056260"/>
      <circle id="Elipse_4003" data-name="Elipse 4003" cx="2.633" cy="2.633" r="2.633" transform="translate(635.168 70.55)" fill="#056260"/>
      <circle id="Elipse_4004" data-name="Elipse 4004" cx="2.633" cy="2.633" r="2.633" transform="translate(769.434 66.454)" fill="#056260"/>
      <text id="Costado" transform="translate(390.243 173.794) rotate(-90)" fill="#056260" font-size="32" font-family="Roboto-Regular, Roboto"><tspan x="0" y="0">Costado</tspan></text>
      <text id="pret_Del." data-name="pret Del." transform="translate(166.478 154.618) rotate(-90)" fill="#056260" font-size="13" font-family="Roboto-Regular, Roboto"><tspan x="0" y="0">pret Del.</tspan></text>
      <text id="pretina_pos" data-name="pretina pos" transform="translate(572.372 104.678) rotate(90)" fill="#056260" font-size="13" font-family="Roboto-Regular, Roboto"><tspan x="0" y="0">pretina pos</tspan></text>
    </g>
    <g id="Grupo_53882" data-name="Grupo 53882" transform="translate(394.656 2508.475)">
      <g id="Grupo_53879" data-name="Grupo 53879" transform="translate(-214.147 -45.929)">
        <path id="Trazado_101506" data-name="Trazado 101506" d="M675.069,7347.311l43.951,46.34s-76.694,138.542-193.61,161.473-278.207.478-414.691-44.906l13.047-68.315s121.344,45.861,295.715,53.027c0,0,92.681,8.6,154.785-35.352S675.069,7347.311,675.069,7347.311Z" transform="translate(-105.455 -7341.982)" fill="#fff" stroke="#056260" stroke-miterlimit="10" stroke-width="3"/>
        <circle id="Elipse_4005" data-name="Elipse 4005" cx="5.328" cy="5.328" r="5.328" transform="translate(564.047)" fill="#056260"/>
        <circle id="Elipse_4006" data-name="Elipse 4006" cx="5.328" cy="5.328" r="5.328" transform="translate(608.237 46.34)" fill="#056260"/>
        <circle id="Elipse_4007" data-name="Elipse 4007" cx="3.768" cy="3.768" r="3.768" transform="translate(533.002 147.09)" fill="#056260"/>
        <circle id="Elipse_4008" data-name="Elipse 4008" cx="3.768" cy="3.768" r="3.768" transform="translate(495.381 89.762)" fill="#056260"/>
        <circle id="Elipse_4009" data-name="Elipse 4009" cx="3.768" cy="3.768" r="3.768" transform="translate(412.421 137.953)" fill="#056260"/>
        <circle id="Elipse_4010" data-name="Elipse 4010" cx="3.768" cy="3.768" r="3.768" transform="translate(429.619 205.851)" fill="#056260"/>
        <circle id="Elipse_4011" data-name="Elipse 4011" cx="3.768" cy="3.768" r="3.768" transform="translate(309.416 219.287)" fill="#056260"/>
        <circle id="Elipse_4012" data-name="Elipse 4012" cx="3.768" cy="3.768" r="3.768" transform="translate(310.286 148.343)" fill="#056260"/>
        <circle id="Elipse_4013" data-name="Elipse 4013" cx="3.768" cy="3.768" r="3.768" transform="translate(0 165.184)" fill="#056260"/>
        <circle id="Elipse_4014" data-name="Elipse 4014" cx="3.768" cy="3.768" r="3.768" transform="translate(13.974 96.749)" fill="#056260"/>
        <circle id="Elipse_4015" data-name="Elipse 4015" cx="3.768" cy="3.768" r="3.768" transform="translate(60.552 182.74)" fill="#056260"/>
        <path id="Trazado_101507" data-name="Trazado 101507" d="M453.247,7527.853l-.3,42.624,2.239-4.435" transform="translate(-142.96 -7361.768)" fill="none" stroke="#056260" stroke-miterlimit="10" stroke-width="1"/>
        <text id="pret_Anat." data-name="pret Anat." transform="matrix(0.353, 0.936, -0.936, 0.353, 452.746, 134.674)" fill="#056260" font-size="11" font-family="Roboto-Regular, Roboto"><tspan x="0" y="0">pret Anat.</tspan></text>
      </g>
      <g id="Grupo_53881" data-name="Grupo 53881" transform="translate(242.028 124.86)">
        <g id="Grupo_53880" data-name="Grupo 53880" transform="translate(52.413 -84.818)">
          <path id="Trazado_101508" data-name="Trazado 101508" d="M1083.652,7520.967l48,50.608s-83.758,151.3-211.442,176.346-303.832.522-452.886-49.043l14.249-74.607s132.52,50.087,322.952,57.912c0,0,101.217,9.391,169.042-38.608S1083.652,7520.967,1083.652,7520.967Z" transform="translate(-461.573 -7515.148)" fill="#fff" stroke="#056260" stroke-miterlimit="10" stroke-width="3"/>
          <circle id="Elipse_4016" data-name="Elipse 4016" cx="5.819" cy="5.819" r="5.819" transform="translate(615.999)" fill="#056260"/>
          <circle id="Elipse_4017" data-name="Elipse 4017" cx="5.819" cy="5.819" r="5.819" transform="translate(664.259 50.608)" fill="#056260"/>
          <circle id="Elipse_4018" data-name="Elipse 4018" cx="4.115" cy="4.115" r="4.115" transform="translate(582.095 160.637)" fill="#056260"/>
          <circle id="Elipse_4019" data-name="Elipse 4019" cx="4.115" cy="4.115" r="4.115" transform="translate(541.008 98.029)" fill="#056260"/>
          <circle id="Elipse_4020" data-name="Elipse 4020" cx="4.115" cy="4.115" r="4.115" transform="translate(450.407 150.659)" fill="#056260"/>
          <circle id="Elipse_4021" data-name="Elipse 4021" cx="4.115" cy="4.115" r="4.115" transform="translate(469.189 224.811)" fill="#056260"/>
          <circle id="Elipse_4022" data-name="Elipse 4022" cx="4.115" cy="4.115" r="4.115" transform="translate(337.914 239.484)" fill="#056260"/>
          <circle id="Elipse_4023" data-name="Elipse 4023" cx="4.115" cy="4.115" r="4.115" transform="translate(338.866 162.007)" fill="#056260"/>
          <circle id="Elipse_4024" data-name="Elipse 4024" cx="4.115" cy="4.115" r="4.115" transform="translate(0 180.398)" fill="#056260"/>
          <circle id="Elipse_4025" data-name="Elipse 4025" cx="4.115" cy="4.115" r="4.115" transform="translate(15.261 105.66)" fill="#056260"/>
          <circle id="Elipse_4026" data-name="Elipse 4026" cx="4.115" cy="4.115" r="4.115" transform="translate(66.13 199.572)" fill="#056260"/>
          <circle id="Elipse_4027" data-name="Elipse 4027" cx="4.115" cy="4.115" r="4.115" transform="translate(82.166 125.029)" fill="#056260"/>
          <circle id="Elipse_4028" data-name="Elipse 4028" cx="4.115" cy="4.115" r="4.115" transform="translate(129.709 214.441)" fill="#056260"/>
          <path id="Trazado_101509" data-name="Trazado 101509" d="M809.878,7701.509l-.332,46.549,2.446-4.842" transform="translate(-471.012 -7520.126)" fill="none" stroke="#056260" stroke-miterlimit="10" stroke-width="1"/>
          <text id="pret_Anat.-2" data-name="pret Anat." transform="matrix(0.353, 0.936, -0.936, 0.353, 494.374, 147.108)" fill="#056260" font-size="12" font-family="Roboto-Regular, Roboto"><tspan x="0" y="0">pret Anat.</tspan></text>
        </g>
        <line id="Línea_241" data-name="Línea 241" x1="10.74" y2="47.17" transform="translate(47.043 88.025)" fill="none" stroke="#056260" stroke-miterlimit="10" stroke-width="1" stroke-dasharray="5"/>
      </g>
    </g>
  </g>
</svg>
