<svg xmlns="http://www.w3.org/2000/svg" width="8.801" height="15.157" viewBox="0 0 8.801 15.157">
  <g id="Grupo_53797" data-name="Grupo 53797" transform="translate(-57.522 -5931.852)">
    <path id="Trazado_101108" data-name="Trazado 101108" d="M66.162,5935.778l-1.55-.563v-.673a.244.244,0,0,0-.154-.227l-1.106-.442-.214-.857a.244.244,0,0,0-.237-.185h-.244v-.733a.244.244,0,0,0-.244-.245h-.978a.245.245,0,0,0-.244.245v.733h-.244a.244.244,0,0,0-.237.185l-.214.857-1.106.442a.244.244,0,0,0-.154.227v.673l-1.551.563a.244.244,0,0,0-.153.292l1.193,4.535c-.245.376-.957,1.766-.957,5.182a.244.244,0,0,0,.244.245h2.934v.733a.244.244,0,0,0,.244.245h1.467a.244.244,0,0,0,.244-.245v-.733h2.934a.245.245,0,0,0,.244-.245c0-3.416-.712-4.806-.957-5.182l1.193-4.535A.244.244,0,0,0,66.162,5935.778Zm-2.039-1.071v.079a.244.244,0,1,0,0,.488v.489a.245.245,0,0,0,0,.489v.489a.244.244,0,1,0,0,.489v.489a.244.244,0,1,0,0,.489v.489a.245.245,0,0,0,0,.489v.489a.244.244,0,1,0,0,.489v.489a.245.245,0,0,0,0,.489v.488a.245.245,0,0,0,0,.489v.489h-.489v-7.579a.245.245,0,0,0-.007-.06l-.128-.514Zm-2.445-2.366h.489v.489h-.489Zm-1.956,11.246h.489v.489h-.489Zm0-8.88.625-.25-.128.514a.24.24,0,0,0-.007.06v8.068h-.489v-.978a.245.245,0,0,0,0-.489v-.488a.245.245,0,0,0,0-.489v-.489a.244.244,0,1,0,0-.489v-.489a.245.245,0,0,0,0-.489v-.489a.244.244,0,1,0,0-.489v-.489a.244.244,0,1,0,0-.489v-.489a.245.245,0,0,0,0-.489v-.489a.244.244,0,1,0,0-.488Zm2.689,11.813h-.978v-.489h.978Zm3.177-.978H58.257c.038-3.619.91-4.722.918-4.73a.245.245,0,0,0,.051-.222l-1.166-4.429,1.174-.427v8.585a.244.244,0,0,0,.244.245h.978a.245.245,0,0,0,.244-.245v-9.26l.435-1.742H62.71l.435,1.742v7.793a.245.245,0,0,0,.244.245h.978a.244.244,0,0,0,.244-.245v-2.2a.237.237,0,0,0,.057.155C64.678,5940.821,65.551,5941.924,65.588,5945.543Zm-.969-4.952a.257.257,0,0,0-.008.056v-4.912l1.174.427Z" fill="#08938f"/>
  </g>
</svg>
