<svg xmlns="http://www.w3.org/2000/svg" width="292" height="294" viewBox="0 0 292 294">
  <g id="Grupo_54840" data-name="Grupo 54840" transform="translate(-804 -1917)">
    <path id="Trazado_105630" data-name="Trazado 105630" d="M0,0H292V294H0Z" transform="translate(804 1917)" fill="#d8ecff"/>
    <g id="Grupo_54540" data-name="Grupo 54540" transform="translate(161.276 -5356.973)">
      <g id="Grupo_54538" data-name="Grupo 54538" transform="translate(855.831 7387.978)">
        <path id="Trazado_104773" data-name="Trazado 104773" d="M948.578,7615.242a.661.661,0,0,1-.638-.491c-.007-.029-.188-.709-.457-1.958a.661.661,0,1,1,1.292-.277c.262,1.213.44,1.89.442,1.9a.66.66,0,0,1-.64.831Z" transform="translate(-945.211 -7491.469)" fill="#1a4e75"/>
        <path id="Trazado_104774" data-name="Trazado 104774" d="M946.232,7550.368a.662.662,0,0,1-.651-.551c-.217-1.286-.414-2.606-.585-3.923a.66.66,0,0,1,1.31-.172c.17,1.3.365,2.6.579,3.875a.661.661,0,0,1-.542.761A.716.716,0,0,1,946.232,7550.368Zm-1.025-7.816a.659.659,0,0,1-.657-.6c-.126-1.316-.229-2.646-.306-3.952a.661.661,0,1,1,1.319-.079c.077,1.291.178,2.6.3,3.906a.661.661,0,0,1-.6.721Zm-.466-7.868a.66.66,0,0,1-.661-.646q-.029-1.217-.029-2.475,0-.74.01-1.492a.662.662,0,0,1,.661-.652h.01a.661.661,0,0,1,.651.671q-.01.743-.01,1.472c0,.828.01,1.644.029,2.445a.661.661,0,0,1-.646.676Zm.115-7.881h-.036a.661.661,0,0,1-.624-.7c.071-1.318.168-2.649.293-3.958a.649.649,0,0,1,.72-.6.66.66,0,0,1,.595.72c-.122,1.29-.219,2.6-.288,3.9A.663.663,0,0,1,944.857,7526.8Zm.749-7.843a.642.642,0,0,1-.091-.006.66.66,0,0,1-.564-.745c.184-1.318.4-2.637.64-3.92a.66.66,0,1,1,1.3.244c-.236,1.262-.448,2.56-.629,3.858A.661.661,0,0,1,945.606,7518.96Zm1.456-7.743a.661.661,0,0,1-.643-.814c.116-.482.235-.967.361-1.449l.856-2.373a.661.661,0,1,1,1.242.451l-.838,2.313c-.1.417-.224.891-.337,1.366A.66.66,0,0,1,947.062,7511.217Zm2.538-7.456a.688.688,0,0,1-.225-.04.662.662,0,0,1-.4-.847l1.343-3.707a.661.661,0,0,1,1.243.451l-1.343,3.706A.661.661,0,0,1,949.6,7503.762Zm2.685-7.413a.661.661,0,0,1-.622-.886l1.343-3.706a.661.661,0,1,1,1.242.45l-1.343,3.707A.661.661,0,0,1,952.284,7496.349Zm2.684-7.411a.677.677,0,0,1-.225-.04.66.66,0,0,1-.4-.846l.609-1.679a.649.649,0,0,1,.04-.089,18.035,18.035,0,0,0,.836-1.9.661.661,0,1,1,1.234.475,19.91,19.91,0,0,1-.883,2.005l-.592,1.635A.662.662,0,0,1,954.969,7488.938Zm2.638-7.421a.632.632,0,0,1-.153-.019.659.659,0,0,1-.49-.794,30.2,30.2,0,0,0,.647-3.8.648.648,0,0,1,.726-.588.659.659,0,0,1,.587.726,31.236,31.236,0,0,1-.676,3.967A.66.66,0,0,1,957.607,7481.517Zm.813-7.819a.661.661,0,0,1-.66-.642,28.286,28.286,0,0,0-.37-3.83.661.661,0,0,1,1.3-.217,29.655,29.655,0,0,1,.388,4.009.662.662,0,0,1-.642.68Zm-1.163-7.786a.66.66,0,0,1-.645-.521c-.26-1.205-.548-2.495-.858-3.842a.661.661,0,0,1,1.288-.3c.311,1.352.6,2.648.862,3.858a.661.661,0,0,1-.507.786A.624.624,0,0,1,957.258,7465.912Zm-1.762-7.691a.662.662,0,0,1-.642-.507c-.3-1.258-.616-2.541-.938-3.823a.661.661,0,1,1,1.282-.321c.322,1.288.638,2.573.942,3.836a.66.66,0,0,1-.489.8A.648.648,0,0,1,955.5,7458.221Zm-1.917-7.652a.661.661,0,0,1-.639-.493c-.338-1.292-.679-2.568-1.018-3.8a.661.661,0,1,1,1.275-.35c.34,1.241.682,2.521,1.021,3.819a.66.66,0,0,1-.64.828Zm-2.094-7.607a.661.661,0,0,1-.634-.476c-.409-1.4-.8-2.661-1.15-3.753a.661.661,0,0,1,1.257-.408c.358,1.1.749,2.38,1.162,3.791a.662.662,0,0,1-.634.847Z" transform="translate(-944.052 -7432.39)" fill="#1a4e75"/>
        <path id="Trazado_104775" data-name="Trazado 104775" d="M950.773,7432.675a.657.657,0,0,1-.612-.412,9.988,9.988,0,0,0-.805-1.661.661.661,0,0,1,1.1-.729,11.29,11.29,0,0,1,.926,1.892.659.659,0,0,1-.362.86A.648.648,0,0,1,950.773,7432.675Z" transform="translate(-945.814 -7429.577)" fill="#1a4e75"/>
      </g>
      <g id="Grupo_54539" data-name="Grupo 54539" transform="translate(743.117 7517.145)">
        <path id="Trazado_104776" data-name="Trazado 104776" d="M776.729,7626.427l3.186,9.216h.052l3.212-9.216h3.281v12.5h-2.508V7635.2l.24-5.522-.051-.009-3.35,9.259h-1.684l-3.333-9.224-.051.008.24,5.488v3.728h-2.508v-12.5Z" transform="translate(-773.457 -7625.533)" fill="#1a4e75"/>
        <path id="Trazado_104777" data-name="Trazado 104777" d="M801.578,7640.493a5.141,5.141,0,0,1-.237-.669,4.7,4.7,0,0,1-.141-.721,3.46,3.46,0,0,1-1.018,1.125,2.543,2.543,0,0,1-1.508.447,3.138,3.138,0,0,1-2.25-.752,2.692,2.692,0,0,1-.79-2.048,2.451,2.451,0,0,1,1.053-2.118,5.253,5.253,0,0,1,3.07-.751h1.4v-.739a1.449,1.449,0,0,0-.351-1.039,1.645,1.645,0,0,0-1.98-.073,1.047,1.047,0,0,0-.33.82l-2.422-.009-.009-.051a2.361,2.361,0,0,1,1.022-2.032,4.458,4.458,0,0,1,2.843-.854,4.155,4.155,0,0,1,2.706.846,2.932,2.932,0,0,1,1.039,2.41v3.839a7.236,7.236,0,0,0,.1,1.229,6.108,6.108,0,0,0,.313,1.142Zm-2.294-1.675a2.148,2.148,0,0,0,1.177-.326,1.69,1.69,0,0,0,.7-.755v-1.315h-1.4a1.676,1.676,0,0,0-1.211.4,1.3,1.3,0,0,0-.412.967.966.966,0,0,0,.309.748A1.2,1.2,0,0,0,799.284,7638.817Z" transform="translate(-780.981 -7627.095)" fill="#1a4e75"/>
        <path id="Trazado_104778" data-name="Trazado 104778" d="M812.946,7631.2l.111,1.331a3.4,3.4,0,0,1,1.142-1.108,2.969,2.969,0,0,1,1.521-.395,2.793,2.793,0,0,1,2.2.885,4.081,4.081,0,0,1,.79,2.774v5.806h-2.516v-5.811a1.886,1.886,0,0,0-.379-1.329,1.517,1.517,0,0,0-1.142-.392,1.936,1.936,0,0,0-.894.2,1.837,1.837,0,0,0-.661.572v6.757h-2.508V7631.2Z" transform="translate(-786.062 -7627.095)" fill="#1a4e75"/>
        <path id="Trazado_104779" data-name="Trazado 104779" d="M825.116,7635.923a6,6,0,0,1,.957-3.547,3.105,3.105,0,0,1,2.684-1.348,2.645,2.645,0,0,1,1.374.352,3.1,3.1,0,0,1,1.013,1l.2-1.185h2.164v9.25a3.449,3.449,0,0,1-1.189,2.8,5.02,5.02,0,0,1-3.311.992,6.341,6.341,0,0,1-1.495-.192,6.946,6.946,0,0,1-1.46-.529l.464-1.872a5.77,5.77,0,0,0,1.173.417,5.634,5.634,0,0,0,1.3.141,2.251,2.251,0,0,0,1.516-.428,1.7,1.7,0,0,0,.486-1.341v-.841a2.814,2.814,0,0,1-.971.8,2.875,2.875,0,0,1-1.28.275,3.161,3.161,0,0,1-2.667-1.259,5.323,5.323,0,0,1-.957-3.311Zm2.508.182a3.828,3.828,0,0,0,.412,1.932,1.432,1.432,0,0,0,1.339.7,2.053,2.053,0,0,0,.975-.211,1.609,1.609,0,0,0,.64-.618v-4.061a1.73,1.73,0,0,0-.64-.656,1.859,1.859,0,0,0-.957-.234,1.413,1.413,0,0,0-1.344.82,4.651,4.651,0,0,0-.425,2.143Z" transform="translate(-790.984 -7627.095)" fill="#1a4e75"/>
        <path id="Trazado_104780" data-name="Trazado 104780" d="M845.931,7640.493a5.24,5.24,0,0,1-.236-.669,4.6,4.6,0,0,1-.141-.721,3.447,3.447,0,0,1-1.018,1.125,2.541,2.541,0,0,1-1.507.447,3.136,3.136,0,0,1-2.25-.752,2.692,2.692,0,0,1-.791-2.048,2.453,2.453,0,0,1,1.053-2.118,5.255,5.255,0,0,1,3.071-.751h1.4v-.739a1.446,1.446,0,0,0-.352-1.039,1.645,1.645,0,0,0-1.98-.073,1.047,1.047,0,0,0-.33.82l-2.422-.009-.008-.051a2.359,2.359,0,0,1,1.022-2.032,4.456,4.456,0,0,1,2.842-.854,4.154,4.154,0,0,1,2.706.846,2.93,2.93,0,0,1,1.039,2.41v3.839a7.166,7.166,0,0,0,.1,1.229,6.115,6.115,0,0,0,.313,1.142Zm-2.293-1.675a2.149,2.149,0,0,0,1.177-.326,1.7,1.7,0,0,0,.7-.755v-1.315h-1.4a1.676,1.676,0,0,0-1.211.4,1.3,1.3,0,0,0-.412.967.967.967,0,0,0,.309.748A1.2,1.2,0,0,0,843.637,7638.817Z" transform="translate(-796.03 -7627.095)" fill="#1a4e75"/>
        <path id="Trazado_104781" data-name="Trazado 104781" d="M861.072,7633.9a6.04,6.04,0,0,1,.949-3.547,3.082,3.082,0,0,1,2.675-1.349,2.6,2.6,0,0,1,1.254.3,3.042,3.042,0,0,1,.979.858v-5.093h2.516v13.4H867.29l-.205-1.133a3.087,3.087,0,0,1-1.035.978,2.747,2.747,0,0,1-1.37.336,3.14,3.14,0,0,1-2.658-1.255,5.349,5.349,0,0,1-.949-3.314Zm2.5.182a3.829,3.829,0,0,0,.412,1.932,1.433,1.433,0,0,0,1.34.7,1.937,1.937,0,0,0,.945-.221,1.753,1.753,0,0,0,.661-.645v-3.982a1.942,1.942,0,0,0-.657-.687,1.739,1.739,0,0,0-.932-.246,1.415,1.415,0,0,0-1.345.82,4.662,4.662,0,0,0-.425,2.143Z" transform="translate(-803.184 -7625.074)" fill="#1a4e75"/>
        <path id="Trazado_104782" data-name="Trazado 104782" d="M880.644,7640.674a4.185,4.185,0,0,1-3.212-1.289,4.605,4.605,0,0,1-1.2-3.272v-.344a5.084,5.084,0,0,1,1.138-3.41,4.243,4.243,0,0,1,5.973-.2,4.362,4.362,0,0,1,1.039,3.066v1.366h-5.548l-.016.051a2.408,2.408,0,0,0,.613,1.505,1.918,1.918,0,0,0,1.482.59,4.838,4.838,0,0,0,1.383-.167,6.325,6.325,0,0,0,1.2-.529l.679,1.55a4.6,4.6,0,0,1-1.486.772A6.444,6.444,0,0,1,880.644,7640.674Zm-.223-7.713a1.307,1.307,0,0,0-1.1.532,2.781,2.781,0,0,0-.5,1.4l.026.043h3.075v-.224a2.011,2.011,0,0,0-.374-1.275A1.344,1.344,0,0,0,880.421,7632.961Z" transform="translate(-808.327 -7627.095)" fill="#1a4e75"/>
        <path id="Trazado_104783" data-name="Trazado 104783" d="M902.608,7638.747a5.147,5.147,0,0,1-.237-.67,4.61,4.61,0,0,1-.141-.721,3.455,3.455,0,0,1-1.018,1.125,2.546,2.546,0,0,1-1.507.447,3.139,3.139,0,0,1-2.25-.752,2.694,2.694,0,0,1-.79-2.048,2.451,2.451,0,0,1,1.053-2.118,5.253,5.253,0,0,1,3.07-.751h1.4v-.738a1.446,1.446,0,0,0-.352-1.04,1.645,1.645,0,0,0-1.98-.073,1.047,1.047,0,0,0-.33.82l-2.422-.008-.009-.051a2.363,2.363,0,0,1,1.022-2.032,4.462,4.462,0,0,1,2.843-.854,4.154,4.154,0,0,1,2.706.846,2.931,2.931,0,0,1,1.039,2.41v3.839a7.238,7.238,0,0,0,.1,1.229,6.109,6.109,0,0,0,.313,1.142Zm-2.294-1.675a2.148,2.148,0,0,0,1.177-.326,1.692,1.692,0,0,0,.7-.755v-1.314h-1.4a1.675,1.675,0,0,0-1.211.4,1.3,1.3,0,0,0-.412.966.969.969,0,0,0,.309.748A1.2,1.2,0,0,0,900.314,7637.071Zm.988-11.19h2.653l.018.051-2.379,2.233h-2Z" transform="translate(-815.26 -7625.349)" fill="#1a4e75"/>
        <path id="Trazado_104784" data-name="Trazado 104784" d="M913.976,7631.2l.112,1.331a3.408,3.408,0,0,1,1.142-1.108,2.969,2.969,0,0,1,1.521-.395,2.793,2.793,0,0,1,2.2.885,4.081,4.081,0,0,1,.79,2.774v5.806h-2.516v-5.811a1.889,1.889,0,0,0-.378-1.329,1.518,1.518,0,0,0-1.142-.392,1.931,1.931,0,0,0-.893.2,1.826,1.826,0,0,0-.661.572v6.757H911.64V7631.2Z" transform="translate(-820.341 -7627.095)" fill="#1a4e75"/>
        <path id="Trazado_104785" data-name="Trazado 104785" d="M926.147,7635.923a6,6,0,0,1,.958-3.547,3.1,3.1,0,0,1,2.684-1.348,2.644,2.644,0,0,1,1.374.352,3.09,3.09,0,0,1,1.013,1l.2-1.185h2.164v9.25a3.449,3.449,0,0,1-1.19,2.8,5.019,5.019,0,0,1-3.311.992,6.341,6.341,0,0,1-1.495-.192,6.961,6.961,0,0,1-1.46-.529l.464-1.872a5.765,5.765,0,0,0,1.172.417,5.639,5.639,0,0,0,1.3.141,2.254,2.254,0,0,0,1.516-.428,1.705,1.705,0,0,0,.485-1.341v-.841a2.814,2.814,0,0,1-.971.8,2.875,2.875,0,0,1-1.28.275,3.16,3.16,0,0,1-2.667-1.259,5.319,5.319,0,0,1-.958-3.311Zm2.508.182a3.829,3.829,0,0,0,.412,1.932,1.432,1.432,0,0,0,1.34.7,2.053,2.053,0,0,0,.975-.211,1.606,1.606,0,0,0,.64-.618v-4.061a1.726,1.726,0,0,0-.64-.656,1.858,1.858,0,0,0-.957-.234,1.414,1.414,0,0,0-1.344.82,4.652,4.652,0,0,0-.425,2.143Z" transform="translate(-825.263 -7627.095)" fill="#1a4e75"/>
        <path id="Trazado_104786" data-name="Trazado 104786" d="M945.719,7640.674a4.184,4.184,0,0,1-3.212-1.289,4.605,4.605,0,0,1-1.2-3.272v-.344a5.084,5.084,0,0,1,1.138-3.41,4.243,4.243,0,0,1,5.973-.2,4.362,4.362,0,0,1,1.039,3.066v1.366h-5.549l-.016.051a2.411,2.411,0,0,0,.613,1.505,1.918,1.918,0,0,0,1.483.59,4.833,4.833,0,0,0,1.382-.167,6.306,6.306,0,0,0,1.2-.529l.679,1.55a4.6,4.6,0,0,1-1.486.772A6.445,6.445,0,0,1,945.719,7640.674Zm-.223-7.713a1.307,1.307,0,0,0-1.1.532,2.781,2.781,0,0,0-.5,1.4l.026.043H947v-.224a2.01,2.01,0,0,0-.374-1.275A1.344,1.344,0,0,0,945.5,7632.961Z" transform="translate(-830.406 -7627.095)" fill="#1a4e75"/>
        <path id="Trazado_104787" data-name="Trazado 104787" d="M958.553,7638.473h-2.507v-13.4h2.507Z" transform="translate(-835.408 -7625.074)" fill="#1a4e75"/>
      </g>
      <path id="Trazado_104788" data-name="Trazado 104788" d="M707.348,7518.253a1.714,1.714,0,0,1-.735-.166c-1.261-.593-2.263-1.5-1.066-4.092a23.858,23.858,0,0,1,1.573-2.782,9.8,9.8,0,0,0,1.206-2.29,10.629,10.629,0,0,1,1.083-2.117,9.949,9.949,0,0,0,1.275-2.648c-1.093-.157-3.822,1.167-5.455,2.173l-.094.047-9.307,3.849-3.326,1.037c-1.033.556-5.528,2.871-7.479,2.027a1.59,1.59,0,0,1-.941-1.08c-.681-2.536,6.339-9.542,8.507-11.63l4.646-5.273a18.439,18.439,0,0,1,6.03-5.528c1.647-.823,3.285-1.525,4.73-2.145a32.023,32.023,0,0,0,3.352-1.561c1.353-.83,7.989-6.216,8.056-6.27l1.548-1.151,2.445-2.259c.075-.065,6.057-5.285,8.93-8.328,2.906-3.077,9.348-13.872,10.9-17.557,1.775-4.206,13.862-22.839,22.685-27.12,1.071-.723,22.86-15.447,28.509-20.349,5.768-5,15.795-15.619,15.9-15.726l15.194-14.333,15.561-13.542,12.916-7.123,11-3.969.449,1.243-10.947,3.951-12.714,7.021-15.373,13.4-15.148,14.289c-.074.08-10.146,10.741-15.963,15.79s-27.745,19.845-28.676,20.473l-.083.047c-8.545,4.1-20.345,22.346-22.084,26.464-1.627,3.855-8.114,14.724-11.16,17.95-2.917,3.091-8.947,8.352-9.008,8.4l-2.511,2.315-1.554,1.155c-.254.206-6.75,5.478-8.176,6.352a31.673,31.673,0,0,1-3.522,1.65c-1.428.612-3.047,1.305-4.66,2.112a17.461,17.461,0,0,0-5.549,5.121l-.053.068-4.711,5.344c-4.211,4.058-8.513,9.153-8.185,10.375a.281.281,0,0,0,.185.208c1.038.444,4.357-.9,6.384-2.006l.12-.05,3.332-1.035,9.2-3.808c.841-.515,4.533-2.691,6.381-2.317a1.23,1.23,0,0,1,.924.7c.422.946-.434,2.391-1.341,3.919a10.851,10.851,0,0,0-.947,1.8,10.574,10.574,0,0,1-1.362,2.638,22.8,22.8,0,0,0-1.49,2.63c-.812,1.76-.371,1.967.429,2.343.7.343,2.8-1.737,4.054-2.974,2.289-2.26,5.654-8.433,6.924-12.7a26.643,26.643,0,0,1,4.7-8.367l4.275-6.354c.139-.109,13.988-11.012,25.261-18.185,8.637-5.5,15.215-11.4,21.575-17.1,1.935-1.735,3.935-3.529,5.925-5.247l2.3-1.978c6.112-5.252,6.229-5.352,10.936-11.594,5.315-7.049,18.716-14.037,19.283-14.331l.608,1.174c-.137.07-13.7,7.144-18.836,13.953-4.793,6.356-5.031,6.561-11.13,11.8l-2.295,1.976c-1.981,1.709-3.888,3.419-5.907,5.23-6.4,5.741-13.019,11.679-21.748,17.234-10.765,6.849-23.907,17.129-25.071,18.042l-4.143,6.207a25.846,25.846,0,0,0-4.465,7.918c-1.343,4.517-4.805,10.84-7.263,13.267C710.08,7516.908,708.61,7518.253,707.348,7518.253Z" transform="translate(0 -14.039)" fill="#1a4e75"/>
      <path id="Trazado_104789" data-name="Trazado 104789" d="M833.533,7418.88l-1.2-.545,1.613-3.558c3.06-6.231,9.729-12.707,20.778-23.436l2.459-2.389c12.452-12.108,33.468-23,33.678-23.1l.605,1.175c-.209.107-21.053,10.907-33.362,22.876l-2.46,2.391c-10.947,10.629-17.554,17.045-20.5,23.05Z" transform="translate(-50.314 -19.976)" fill="#1a4e75"/>
      <path id="Trazado_104790" data-name="Trazado 104790" d="M867.456,7436.375a57.306,57.306,0,0,1-17.86-2.66l.457-1.24a59.214,59.214,0,0,0,33.031.479c17.784-4.957,25.394-17.089,25.468-17.211l.062-.1.093-.074c.065-.052,6.875-5.811,10.16-31.45a284.293,284.293,0,0,0,1.855-34.821l1.321-.03a286.1,286.1,0,0,1-1.865,35.016c-3.2,24.983-9.65,31.445-10.558,32.243-.791,1.25-8.5,12.773-26.183,17.7A59.522,59.522,0,0,1,867.456,7436.375Z" transform="translate(-56.173 -14.35)" fill="#1a4e75"/>
      <path id="Trazado_104791" data-name="Trazado 104791" d="M857.3,7440.5l-.283-1.292c.117-.027,11.8-2.958,18.818-28.869a121.3,121.3,0,0,1,23.762-45l.978.889a119.89,119.89,0,0,0-23.464,44.457C869.849,7437.479,857.809,7440.389,857.3,7440.5Z" transform="translate(-58.69 -19.804)" fill="#1a4e75"/>
      <path id="Trazado_104792" data-name="Trazado 104792" d="M869.109,7449.566a.661.661,0,0,1-.19-1.294c12.137-3.648,19.3-13.663,21.291-29.769,1.907-15.435,19.33-29.165,20.071-29.742a.661.661,0,0,1,.811,1.043c-.176.138-17.731,13.973-19.572,28.86-2.06,16.674-9.536,27.06-22.221,30.874A.661.661,0,0,1,869.109,7449.566Z" transform="translate(-62.569 -27.703)" fill="#1a4e75"/>
      <path id="Trazado_104793" data-name="Trazado 104793" d="M873.862,7454.079a.661.661,0,0,1-.151-1.3c.186-.044,18.612-4.562,22.261-19.323,3.8-15.365,21.25-30.719,21.99-31.364a.661.661,0,0,1,.869,1c-.178.155-17.879,15.727-21.577,30.685-3.844,15.552-23.047,20.246-23.24,20.293A.743.743,0,0,1,873.862,7454.079Z" transform="translate(-64.183 -32.217)" fill="#1a4e75"/>
      <path id="Trazado_104794" data-name="Trazado 104794" d="M891.346,7455.28a.661.661,0,0,1-.31-1.245c.246-.129,24.549-13.111,26.542-25.563a41.456,41.456,0,0,1,9.481-20.863.661.661,0,0,1,.957.913,40.911,40.911,0,0,0-9.134,20.159c-2.1,13.1-26.2,25.981-27.228,26.523A.654.654,0,0,1,891.346,7455.28Z" transform="translate(-70.114 -34.077)" fill="#1a4e75"/>
      <path id="Trazado_104795" data-name="Trazado 104795" d="M954.807,7336.332a.661.661,0,0,1-.175-1.3c.069-.019,7.012-1.96,19.669-7.837,12.215-5.671,9.192-18.853,9.058-19.411a.661.661,0,0,1,1.284-.312c.035.147,3.422,14.789-9.786,20.921-12.771,5.93-19.8,7.894-19.874,7.913A.686.686,0,0,1,954.807,7336.332Z" transform="translate(-91.646 0)" fill="#1a4e75"/>
    </g>
  </g>
</svg>
