<svg xmlns="http://www.w3.org/2000/svg" width="292" height="294" viewBox="0 0 292 294">
  <g id="Grupo_54844" data-name="Grupo 54844" transform="translate(-804 -2225)">
    <path id="Trazado_105631" data-name="Trazado 105631" d="M0,0H292V294H0Z" transform="translate(804 2225)" fill="#f3f9ff"/>
    <g id="Grupo_54550" data-name="Grupo 54550" transform="translate(170.29 -5432.484)">
      <path id="Trazado_104875" data-name="Trazado 104875" d="M922.976,7927.8a.687.687,0,0,1-.66-.508c-.063-.239-6.274-24.194,0-48.341a.838.838,0,0,1,.033-.1l9.962-23.3a.658.658,0,0,1,.051-.1c.037-.059,3.744-6.112,1.69-16.382-2.245-11.23-13.894-51.668-16.126-55.043a.684.684,0,0,1,1.14-.754c2.448,3.7,14.3,45.38,16.327,55.528,2.093,10.459-1.443,16.67-1.845,17.333l-9.921,23.209c-6.16,23.775-.051,47.361.012,47.6a.686.686,0,0,1-.485.837A.783.783,0,0,1,922.976,7927.8Z" transform="translate(-80.295 -29.285)" fill="#1a4e75"/>
      <g id="Grupo_54549" data-name="Grupo 54549" transform="translate(738.83 7899.936)">
        <path id="Trazado_104876" data-name="Trazado 104876" d="M776.843,7998.252l3.3,9.534h.054l3.324-9.534h3.395v12.938h-2.6v-3.856l.248-5.714-.053-.01-3.466,9.58H779.3l-3.448-9.543-.053.007.248,5.681v3.856h-2.6v-12.938Z" transform="translate(-773.457 -7997.327)" fill="#1a4e75"/>
        <path id="Trazado_104877" data-name="Trazado 104877" d="M801.784,8012.647a5.428,5.428,0,0,1-.245-.693,4.895,4.895,0,0,1-.146-.745,3.6,3.6,0,0,1-1.053,1.162,2.632,2.632,0,0,1-1.56.463,3.24,3.24,0,0,1-2.328-.779,2.782,2.782,0,0,1-.818-2.119,2.536,2.536,0,0,1,1.089-2.19,5.434,5.434,0,0,1,3.177-.777h1.448v-.764a1.5,1.5,0,0,0-.364-1.076,1.7,1.7,0,0,0-2.049-.075,1.082,1.082,0,0,0-.342.848l-2.506-.01-.009-.051a2.444,2.444,0,0,1,1.058-2.1,4.614,4.614,0,0,1,2.942-.885,4.3,4.3,0,0,1,2.8.877,3.033,3.033,0,0,1,1.075,2.493v3.973a7.478,7.478,0,0,0,.1,1.27,6.345,6.345,0,0,0,.324,1.182Zm-2.374-1.733a2.221,2.221,0,0,0,1.218-.338,1.741,1.741,0,0,0,.72-.781v-1.36H799.9a1.74,1.74,0,0,0-1.253.413,1.342,1.342,0,0,0-.427,1,1,1,0,0,0,.32.774A1.24,1.24,0,0,0,799.41,8010.914Z" transform="translate(-780.473 -7998.782)" fill="#1a4e75"/>
        <path id="Trazado_104878" data-name="Trazado 104878" d="M813.027,8003.031l.115,1.377a3.535,3.535,0,0,1,1.182-1.146,3.076,3.076,0,0,1,1.574-.41,2.9,2.9,0,0,1,2.275.917,4.222,4.222,0,0,1,.818,2.87v6.008h-2.6v-6.012a1.949,1.949,0,0,0-.392-1.376,1.567,1.567,0,0,0-1.181-.407,1.984,1.984,0,0,0-.925.211,1.9,1.9,0,0,0-.684.591v6.992h-2.6v-9.616Z" transform="translate(-785.21 -7998.782)" fill="#1a4e75"/>
        <path id="Trazado_104879" data-name="Trazado 104879" d="M825.116,8007.919a6.211,6.211,0,0,1,.991-3.67,3.213,3.213,0,0,1,2.777-1.4,2.723,2.723,0,0,1,1.422.366,3.194,3.194,0,0,1,1.048,1.04l.205-1.228H833.8v9.571a3.569,3.569,0,0,1-1.23,2.9,5.2,5.2,0,0,1-3.426,1.026,6.538,6.538,0,0,1-1.546-.2,7.177,7.177,0,0,1-1.511-.547l.48-1.938a5.982,5.982,0,0,0,1.214.432,5.817,5.817,0,0,0,1.346.147,2.324,2.324,0,0,0,1.568-.445,1.759,1.759,0,0,0,.5-1.387v-.869a2.922,2.922,0,0,1-1,.827,2.994,2.994,0,0,1-1.324.284,3.269,3.269,0,0,1-2.76-1.3,5.506,5.506,0,0,1-.991-3.425Zm2.6.188a3.965,3.965,0,0,0,.427,2,1.481,1.481,0,0,0,1.386.726,2.137,2.137,0,0,0,1.009-.217,1.674,1.674,0,0,0,.662-.64v-4.2a1.787,1.787,0,0,0-.662-.678,1.92,1.92,0,0,0-.991-.243,1.463,1.463,0,0,0-1.391.85,4.816,4.816,0,0,0-.44,2.218Z" transform="translate(-789.8 -7998.782)" fill="#1a4e75"/>
        <path id="Trazado_104880" data-name="Trazado 104880" d="M846.137,8012.647a5.531,5.531,0,0,1-.245-.693,4.794,4.794,0,0,1-.146-.745,3.581,3.581,0,0,1-1.053,1.162,2.63,2.63,0,0,1-1.559.463,3.238,3.238,0,0,1-2.328-.779,2.782,2.782,0,0,1-.818-2.119,2.538,2.538,0,0,1,1.089-2.19,5.436,5.436,0,0,1,3.178-.777H845.7v-.764a1.5,1.5,0,0,0-.365-1.076,1.7,1.7,0,0,0-2.049-.075,1.083,1.083,0,0,0-.342.848l-2.506-.01-.008-.051a2.443,2.443,0,0,1,1.057-2.1,4.613,4.613,0,0,1,2.941-.885,4.3,4.3,0,0,1,2.8.877,3.031,3.031,0,0,1,1.075,2.493v3.973a7.414,7.414,0,0,0,.1,1.27,6.347,6.347,0,0,0,.323,1.182Zm-2.373-1.733a2.223,2.223,0,0,0,1.218-.338,1.75,1.75,0,0,0,.72-.781v-1.36h-1.448a1.74,1.74,0,0,0-1.253.413,1.342,1.342,0,0,0-.427,1,1,1,0,0,0,.319.774A1.243,1.243,0,0,0,843.764,8010.914Z" transform="translate(-794.504 -7998.782)" fill="#1a4e75"/>
        <path id="Trazado_104881" data-name="Trazado 104881" d="M865.486,8010.833a1.536,1.536,0,0,0,1.111-.4,1.424,1.424,0,0,0,.418-1.074h2.354l.027.054a2.994,2.994,0,0,1-1.1,2.438,4.626,4.626,0,0,1-6.127-.378,5.178,5.178,0,0,1-1.164-3.493v-.266a5.212,5.212,0,0,1,1.159-3.493,4.1,4.1,0,0,1,3.311-1.37,4.039,4.039,0,0,1,2.866,1.015,3.363,3.363,0,0,1,1.053,2.666l-.017.054h-2.364a1.875,1.875,0,0,0-.409-1.241,1.383,1.383,0,0,0-1.128-.494,1.509,1.509,0,0,0-1.453.8,4.4,4.4,0,0,0-.422,2.06v.266a4.385,4.385,0,0,0,.422,2.072A1.52,1.52,0,0,0,865.486,8010.833Z" transform="translate(-801.154 -7998.782)" fill="#1a4e75"/>
        <path id="Trazado_104882" data-name="Trazado 104882" d="M880.845,8012.647a5.522,5.522,0,0,1-.245-.693,4.8,4.8,0,0,1-.146-.745,3.581,3.581,0,0,1-1.054,1.162,2.629,2.629,0,0,1-1.559.463,3.238,3.238,0,0,1-2.328-.779,2.783,2.783,0,0,1-.818-2.119,2.537,2.537,0,0,1,1.089-2.19,5.435,5.435,0,0,1,3.177-.777h1.448v-.764a1.5,1.5,0,0,0-.365-1.076,1.7,1.7,0,0,0-2.049-.075,1.083,1.083,0,0,0-.342.848l-2.506-.01-.008-.051a2.443,2.443,0,0,1,1.058-2.1,4.612,4.612,0,0,1,2.941-.885,4.3,4.3,0,0,1,2.8.877,3.03,3.03,0,0,1,1.075,2.493v3.973a7.414,7.414,0,0,0,.1,1.27,6.357,6.357,0,0,0,.323,1.182Zm-2.373-1.733a2.222,2.222,0,0,0,1.218-.338,1.749,1.749,0,0,0,.72-.781v-1.36h-1.448a1.74,1.74,0,0,0-1.253.413,1.342,1.342,0,0,0-.427,1,1,1,0,0,0,.319.774A1.243,1.243,0,0,0,878.472,8010.914Z" transform="translate(-805.485 -7998.782)" fill="#1a4e75"/>
        <path id="Trazado_104883" data-name="Trazado 104883" d="M894.737,8010a.908.908,0,0,0-.414-.739,4.243,4.243,0,0,0-1.533-.549,6.168,6.168,0,0,1-2.573-1.027,2.229,2.229,0,0,1-.866-1.853,2.651,2.651,0,0,1,1.044-2.11,4.241,4.241,0,0,1,2.8-.868,4.593,4.593,0,0,1,2.928.863,2.546,2.546,0,0,1,1.044,2.176l-.018.054h-2.506a1.265,1.265,0,0,0-.369-.942,1.769,1.769,0,0,0-2.07-.058.968.968,0,0,0-.36.769.872.872,0,0,0,.378.729,4.088,4.088,0,0,0,1.532.507,6.214,6.214,0,0,1,2.64,1.044,2.3,2.3,0,0,1,.862,1.9,2.528,2.528,0,0,1-1.111,2.121,4.822,4.822,0,0,1-2.933.822,4.459,4.459,0,0,1-3.035-.973,2.723,2.723,0,0,1-1.062-2.218l.018-.054H891.5a1.346,1.346,0,0,0,.507,1.12,2.1,2.1,0,0,0,1.253.346,1.789,1.789,0,0,0,1.1-.285A.913.913,0,0,0,894.737,8010Z" transform="translate(-810.045 -7998.782)" fill="#1a4e75"/>
        <path id="Trazado_104884" data-name="Trazado 104884" d="M902.879,8007.919a6.249,6.249,0,0,1,.982-3.67,3.19,3.19,0,0,1,2.768-1.4,2.74,2.74,0,0,1,1.4.353,3.127,3.127,0,0,1,1.04,1.01l.24-1.184h2.2v13.313h-2.594v-4.593a2.871,2.871,0,0,1-1,.808,2.984,2.984,0,0,1-1.311.276,3.25,3.25,0,0,1-2.751-1.3,5.539,5.539,0,0,1-.982-3.431Zm2.586.182a3.982,3.982,0,0,0,.427,2,1.476,1.476,0,0,0,1.386.735,2.082,2.082,0,0,0,.978-.211,1.711,1.711,0,0,0,.667-.622v-4.259a1.831,1.831,0,0,0-.662-.655,1.91,1.91,0,0,0-.964-.232,1.462,1.462,0,0,0-1.391.853,4.815,4.815,0,0,0-.44,2.21Z" transform="translate(-814.401 -7998.782)" fill="#1a4e75"/>
        <path id="Trazado_104885" data-name="Trazado 104885" d="M924.336,8011.343a3.237,3.237,0,0,1-1.129,1.165,3.327,3.327,0,0,1-3.951-.565,4.494,4.494,0,0,1-.857-3.026v-5.8h2.586v5.835a2.49,2.49,0,0,0,.355,1.509,1.242,1.242,0,0,0,1.048.459,2.549,2.549,0,0,0,1.067-.2,1.8,1.8,0,0,0,.728-.591v-7.012h2.6v9.617h-2.212Z" transform="translate(-819.311 -7998.865)" fill="#1a4e75"/>
        <path id="Trazado_104886" data-name="Trazado 104886" d="M936.307,7998.847h-2.594V7996.9h2.594Zm0,11.918h-2.594v-9.618h2.594Z" transform="translate(-824.156 -7996.899)" fill="#1a4e75"/>
        <path id="Trazado_104887" data-name="Trazado 104887" d="M943.417,8010.765h-2.594V7996.9h2.594Z" transform="translate(-826.405 -7996.899)" fill="#1a4e75"/>
        <path id="Trazado_104888" data-name="Trazado 104888" d="M950.529,8010.765h-2.594V7996.9h2.594Z" transform="translate(-828.655 -7996.899)" fill="#1a4e75"/>
        <path id="Trazado_104889" data-name="Trazado 104889" d="M954.265,8007.749a5.161,5.161,0,0,1,1.2-3.522,4.184,4.184,0,0,1,3.323-1.374,4.227,4.227,0,0,1,3.342,1.37,5.13,5.13,0,0,1,1.209,3.526v.189a5.137,5.137,0,0,1-1.2,3.531,4.75,4.75,0,0,1-6.665,0,5.137,5.137,0,0,1-1.2-3.531Zm2.586.184a4.165,4.165,0,0,0,.463,2.108,1.6,1.6,0,0,0,1.492.792,1.576,1.576,0,0,0,1.471-.8,4.135,4.135,0,0,0,.466-2.1v-.187a4.1,4.1,0,0,0-.471-2.085,1.594,1.594,0,0,0-1.484-.808,1.574,1.574,0,0,0-1.47.813,4.124,4.124,0,0,0-.467,2.08Z" transform="translate(-830.658 -7998.782)" fill="#1a4e75"/>
      </g>
      <path id="Trazado_104890" data-name="Trazado 104890" d="M688.343,7907.454a1.757,1.757,0,0,1-.675-.136c-1.334-.544-2.418-1.426-1.321-4.17a24.579,24.579,0,0,1,1.476-2.961,10.1,10.1,0,0,0,1.123-2.43,11,11,0,0,1,1.006-2.248,10.034,10.034,0,0,0,1.175-2.8c-1.194-.1-4,1.489-5.52,2.539l-.094.055-9.411,4.478-3.382,1.248c-1.036.63-5.563,3.26-7.618,2.5a1.644,1.644,0,0,1-1.03-1.066c-.839-2.583,6.037-10.2,8.165-12.474l4.518-5.7a19.054,19.054,0,0,1,5.934-6.036c1.658-.94,3.312-1.754,4.771-2.471a33.258,33.258,0,0,0,3.381-1.795c1.352-.93,7.921-6.851,7.986-6.911l1.538-1.272,2.405-2.466c.073-.071,5.974-5.785,8.781-9.085,2.836-3.334,8.912-14.835,10.322-18.729,1.609-4.439,13.1-24.344,21.983-29.241,1.067-.8,22.79-17.192,28.364-22.56,5.731-5.52,64.938-56.05,65.534-56.56l.888,1.04c-.6.51-59.773,51.015-65.474,56.507-5.747,5.532-27.6,22-28.529,22.694l-.083.056c-8.61,4.7-19.821,24.183-21.4,28.53-1.475,4.073-7.592,15.653-10.566,19.147-2.849,3.351-8.8,9.111-8.857,9.169l-2.47,2.527-1.544,1.277c-.25.227-6.68,6.022-8.105,7a33.264,33.264,0,0,1-3.552,1.895c-1.442.709-3.078,1.512-4.7,2.433a18.06,18.06,0,0,0-5.46,5.59l-.051.072-4.581,5.775c-4.133,4.419-8.3,9.917-7.9,11.162a.288.288,0,0,0,.2.2c1.094.4,4.453-1.17,6.488-2.417l.121-.058,3.388-1.247,9.3-4.432c.842-.576,4.546-3.011,6.469-2.736a1.277,1.277,0,0,1,.993.671c.487.956-.321,2.495-1.175,4.123a11.231,11.231,0,0,0-.882,1.91,10.9,10.9,0,0,1-1.264,2.8,23.52,23.52,0,0,0-1.4,2.8c-.745,1.862-.278,2.053.568,2.4.747.306,2.8-1.946,4.03-3.292,2.244-2.459,5.389-9.017,6.471-13.5a27.537,27.537,0,0,1,4.408-8.9l4.074-6.795c.137-.121,13.862-12.13,25.124-20.148,8.628-6.143,15.106-12.592,21.372-18.829,1.907-1.9,3.878-3.861,5.844-5.745l2.268-2.167c6.033-5.753,6.149-5.865,10.676-12.566,5.1-7.545,65.4-49.965,67.968-51.767l.786,1.12c-.626.44-62.664,44.075-67.621,51.414-4.61,6.824-4.846,7.048-10.865,12.791l-2.267,2.165c-1.956,1.875-3.835,3.746-5.825,5.725-6.3,6.276-12.824,12.767-21.543,18.975-10.756,7.657-23.782,18.985-24.936,19.992l-3.947,6.637a26.724,26.724,0,0,0-4.189,8.42c-1.144,4.742-4.381,11.461-6.791,14.1C691.139,7905.968,689.674,7907.454,688.343,7907.454Z" transform="translate(0 -11.63)" fill="#1a4e75"/>
      <path id="Trazado_104891" data-name="Trazado 104891" d="M915.767,7718.473l-.935-1,5-4.693.184-.041c4.31-.955,21.242-2.374,22.8-2.5,14.943-5.4,14.911-19.229,14.9-19.816l1.367-.023a23.2,23.2,0,0,1-15.893,21.157l-.174.038c-.18.015-17.889,1.482-22.525,2.443Z" transform="translate(-79.353 0)" fill="#1a4e75"/>
      <path id="Trazado_104892" data-name="Trazado 104892" d="M924.092,7779.386l-1.3-.426a75.2,75.2,0,0,0,1.523-32.729c-.02-.116-2.044-11.686-5.516-18.135l1.2-.647c3.577,6.647,5.576,18.067,5.659,18.55A76.627,76.627,0,0,1,924.092,7779.386Z" transform="translate(-80.608 -11.721)" fill="#1a4e75"/>
      <path id="Trazado_104893" data-name="Trazado 104893" d="M926.06,7785.49a26.763,26.763,0,0,1-4.372-7.709l1.3-.433a25.872,25.872,0,0,0,4.13,7.271Z" transform="translate(-81.522 -27.507)" fill="#1a4e75"/>
      <path id="Trazado_104894" data-name="Trazado 104894" d="M990.366,7715.6c-5.117,0-15.16-.578-19.482-4.853a.684.684,0,0,1,.961-.973c5.369,5.311,21.375,4.4,21.532,4.383a.683.683,0,0,1,.084,1.364C993.287,7715.531,992.114,7715.6,990.366,7715.6Z" transform="translate(-97.021 -6.065)" fill="#1a4e75"/>
      <circle id="Elipse_4232" data-name="Elipse 4232" cx="1.367" cy="1.367" r="1.367" transform="translate(892.355 7712.041)" fill="#1a4e75"/>
      <circle id="Elipse_4233" data-name="Elipse 4233" cx="1.367" cy="1.367" r="1.367" transform="translate(892.355 7716.857)" fill="#1a4e75"/>
    </g>
  </g>
</svg>
