<svg xmlns="http://www.w3.org/2000/svg" width="292" height="294" viewBox="0 0 292 294">
  <g id="Grupo_54845" data-name="Grupo 54845" transform="translate(-1116 -2225)">
    <path id="Trazado_105632" data-name="Trazado 105632" d="M0,0H292V294H0Z" transform="translate(1116 2225)" fill="#d8ecff"/>
    <g id="Grupo_54552" data-name="Grupo 54552" transform="translate(119.358 -5485.014)">
      <g id="Grupo_54551" data-name="Grupo 54551" transform="translate(1071.646 7931.282)">
        <path id="Trazado_104895" data-name="Trazado 104895" d="M1094.348,7998.252l3.576,10.343h.058l3.606-10.343h3.682v14.035h-2.814V8008.1l.269-6.2-.057-.011-3.76,10.393h-1.889l-3.74-10.353-.058.009.27,6.16v4.184h-2.815v-14.035Z" transform="translate(-1089.451 -7997.249)" fill="#1a4e75"/>
        <path id="Trazado_104896" data-name="Trazado 104896" d="M1119.523,8013.477a5.887,5.887,0,0,1-.266-.752,5.286,5.286,0,0,1-.159-.81,3.868,3.868,0,0,1-1.143,1.262,2.852,2.852,0,0,1-1.691.5,3.522,3.522,0,0,1-2.525-.844,3.019,3.019,0,0,1-.887-2.3,2.751,2.751,0,0,1,1.18-2.376,5.9,5.9,0,0,1,3.447-.844h1.571v-.829a1.623,1.623,0,0,0-.395-1.165,1.844,1.844,0,0,0-2.222-.083,1.176,1.176,0,0,0-.371.921l-2.719-.01-.01-.057a2.649,2.649,0,0,1,1.147-2.281,5,5,0,0,1,3.191-.958,4.66,4.66,0,0,1,3.036.949,3.289,3.289,0,0,1,1.166,2.7v4.309a8.049,8.049,0,0,0,.111,1.379,6.912,6.912,0,0,0,.352,1.282Zm-2.575-1.881a2.4,2.4,0,0,0,1.321-.366,1.9,1.9,0,0,0,.781-.848v-1.476h-1.571a1.882,1.882,0,0,0-1.359.449,1.456,1.456,0,0,0-.463,1.084,1.08,1.08,0,0,0,.347.839A1.339,1.339,0,0,0,1116.948,8011.6Z" transform="translate(-1095.182 -7998.438)" fill="#1a4e75"/>
        <path id="Trazado_104897" data-name="Trazado 104897" d="M1130.449,8003.045l.125,1.494a3.827,3.827,0,0,1,1.282-1.244,3.335,3.335,0,0,1,1.707-.443,3.139,3.139,0,0,1,2.467.993,4.582,4.582,0,0,1,.887,3.114v6.517h-2.824v-6.522a2.118,2.118,0,0,0-.424-1.493,1.7,1.7,0,0,0-1.281-.44,2.175,2.175,0,0,0-1,.228,2.065,2.065,0,0,0-.742.643v7.584h-2.815v-10.431Z" transform="translate(-1099.053 -7998.438)" fill="#1a4e75"/>
        <path id="Trazado_104898" data-name="Trazado 104898" d="M1142.334,8008.348a6.731,6.731,0,0,1,1.074-3.981,3.486,3.486,0,0,1,3.013-1.513,2.963,2.963,0,0,1,1.542.4,3.472,3.472,0,0,1,1.137,1.128l.223-1.331h2.429v10.381a3.87,3.87,0,0,1-1.335,3.148,5.634,5.634,0,0,1-3.715,1.113,7.068,7.068,0,0,1-1.677-.216,7.76,7.76,0,0,1-1.639-.594l.521-2.1a6.521,6.521,0,0,0,1.316.468,6.3,6.3,0,0,0,1.459.159,2.529,2.529,0,0,0,1.7-.481,1.912,1.912,0,0,0,.545-1.5v-.944a3.163,3.163,0,0,1-1.089.9,3.221,3.221,0,0,1-1.437.309,3.549,3.549,0,0,1-2.993-1.412,5.974,5.974,0,0,1-1.074-3.716Zm2.815.2a4.3,4.3,0,0,0,.463,2.167,1.608,1.608,0,0,0,1.5.79,2.32,2.32,0,0,0,1.094-.236,1.81,1.81,0,0,0,.719-.694v-4.557a1.955,1.955,0,0,0-.719-.737,2.092,2.092,0,0,0-1.074-.263,1.589,1.589,0,0,0-1.509.921,5.239,5.239,0,0,0-.477,2.406Z" transform="translate(-1102.802 -7998.438)" fill="#1a4e75"/>
        <path id="Trazado_104899" data-name="Trazado 104899" d="M1163.876,8013.477a5.885,5.885,0,0,1-.266-.752,5.2,5.2,0,0,1-.159-.81,3.874,3.874,0,0,1-1.143,1.262,2.855,2.855,0,0,1-1.691.5,3.524,3.524,0,0,1-2.526-.844,3.022,3.022,0,0,1-.887-2.3,2.749,2.749,0,0,1,1.181-2.376,5.893,5.893,0,0,1,3.446-.844h1.57v-.829a1.62,1.62,0,0,0-.394-1.165,1.844,1.844,0,0,0-2.222-.083,1.176,1.176,0,0,0-.371.921l-2.719-.01-.01-.057a2.652,2.652,0,0,1,1.147-2.281,5,5,0,0,1,3.191-.958,4.661,4.661,0,0,1,3.037.949,3.288,3.288,0,0,1,1.166,2.7v4.309a8.136,8.136,0,0,0,.111,1.379,6.931,6.931,0,0,0,.352,1.282Zm-2.574-1.881a2.409,2.409,0,0,0,1.321-.366,1.9,1.9,0,0,0,.78-.848v-1.476h-1.57a1.883,1.883,0,0,0-1.359.449,1.456,1.456,0,0,0-.463,1.084,1.083,1.083,0,0,0,.347.839A1.342,1.342,0,0,0,1161.3,8011.6Z" transform="translate(-1106.646 -7998.438)" fill="#1a4e75"/>
        <path id="Trazado_104900" data-name="Trazado 104900" d="M1178.29,8006.81a6.78,6.78,0,0,1,1.066-3.982,3.459,3.459,0,0,1,3-1.513,2.925,2.925,0,0,1,1.408.337,3.411,3.411,0,0,1,1.1.964V7996.9h2.825v15.04h-2.42l-.231-1.273a3.47,3.47,0,0,1-1.162,1.1,3.085,3.085,0,0,1-1.537.377,3.524,3.524,0,0,1-2.983-1.407,6.006,6.006,0,0,1-1.066-3.721Zm2.8.2a4.3,4.3,0,0,0,.463,2.168,1.608,1.608,0,0,0,1.5.789,2.164,2.164,0,0,0,1.06-.247,1.953,1.953,0,0,0,.742-.722v-4.471a2.171,2.171,0,0,0-.737-.771,1.948,1.948,0,0,0-1.046-.276,1.588,1.588,0,0,0-1.509.921,5.234,5.234,0,0,0-.478,2.405Z" transform="translate(-1112.095 -7996.898)" fill="#1a4e75"/>
        <path id="Trazado_104901" data-name="Trazado 104901" d="M1198.4,8013.678a4.692,4.692,0,0,1-3.6-1.446,5.168,5.168,0,0,1-1.35-3.673v-.386a5.706,5.706,0,0,1,1.278-3.827,4.763,4.763,0,0,1,6.7-.222,4.9,4.9,0,0,1,1.166,3.442v1.533h-6.227l-.019.057a2.711,2.711,0,0,0,.689,1.69,2.155,2.155,0,0,0,1.663.662,5.45,5.45,0,0,0,1.552-.187,7.136,7.136,0,0,0,1.349-.592l.762,1.739a5.178,5.178,0,0,1-1.668.867A7.235,7.235,0,0,1,1198.4,8013.678Zm-.25-8.657a1.467,1.467,0,0,0-1.234.6,3.124,3.124,0,0,0-.559,1.572l.029.048h3.45v-.25a2.257,2.257,0,0,0-.419-1.432A1.509,1.509,0,0,0,1198.151,8005.021Z" transform="translate(-1116.012 -7998.438)" fill="#1a4e75"/>
        <path id="Trazado_104902" data-name="Trazado 104902" d="M1218.209,8007.57h-.771v4.368h-2.815V7996.9h2.815v8.532h.694l2.419-3.924h3.259l-3.336,4.724,3.846,5.708h-3.229Z" transform="translate(-1121.485 -7996.898)" fill="#1a4e75"/>
        <path id="Trazado_104903" data-name="Trazado 104903" d="M1231.893,7999.011h-2.814V7996.9h2.814Zm0,12.928h-2.814v-10.432h2.814Z" transform="translate(-1125.222 -7996.898)" fill="#1a4e75"/>
        <path id="Trazado_104904" data-name="Trazado 104904" d="M1238.607,8003.045l.116,1.379a3.5,3.5,0,0,1,1.258-1.163,3.633,3.633,0,0,1,1.75-.409,3.19,3.19,0,0,1,1.715.443,2.735,2.735,0,0,1,1.08,1.341,3.617,3.617,0,0,1,1.253-1.312,3.4,3.4,0,0,1,1.812-.472,3,3,0,0,1,2.434,1.065,4.971,4.971,0,0,1,.892,3.243v6.315H1248.1v-6.338a2.656,2.656,0,0,0-.386-1.653,1.41,1.41,0,0,0-1.147-.463,1.955,1.955,0,0,0-1.037.267,1.928,1.928,0,0,0-.7.739c0,.122,0,.226.01.313s.009.176.009.266v6.87h-2.805v-6.338a2.657,2.657,0,0,0-.385-1.638,1.4,1.4,0,0,0-1.157-.479,2.185,2.185,0,0,0-1,.217,1.937,1.937,0,0,0-.709.613v7.625h-2.8v-10.431Z" transform="translate(-1127.009 -7998.438)" fill="#1a4e75"/>
        <path id="Trazado_104905" data-name="Trazado 104905" d="M1258.444,8008.164a5.6,5.6,0,0,1,1.3-3.822,5.137,5.137,0,0,1,7.229,0,5.566,5.566,0,0,1,1.312,3.827v.2a5.579,5.579,0,0,1-1.307,3.832,5.155,5.155,0,0,1-7.229,0,5.576,5.576,0,0,1-1.307-3.832Zm2.805.2a4.526,4.526,0,0,0,.5,2.287,1.73,1.73,0,0,0,1.62.861,1.712,1.712,0,0,0,1.6-.866,4.49,4.49,0,0,0,.506-2.281v-.2a4.44,4.44,0,0,0-.512-2.261,1.728,1.728,0,0,0-1.609-.877,1.708,1.708,0,0,0-1.6.881,4.49,4.49,0,0,0-.506,2.257Z" transform="translate(-1132.811 -7998.438)" fill="#1a4e75"/>
        <path id="Trazado_104906" data-name="Trazado 104906" d="M1276.613,8003.045l.125,1.494a3.823,3.823,0,0,1,1.282-1.244,3.334,3.334,0,0,1,1.707-.443,3.139,3.139,0,0,1,2.467.993,4.582,4.582,0,0,1,.887,3.114v6.517h-2.824v-6.522a2.118,2.118,0,0,0-.424-1.493,1.7,1.7,0,0,0-1.281-.44,2.177,2.177,0,0,0-1,.228,2.066,2.066,0,0,0-.742.643v7.584h-2.815v-10.431Z" transform="translate(-1136.829 -7998.438)" fill="#1a4e75"/>
        <path id="Trazado_104907" data-name="Trazado 104907" d="M1288.5,8008.164a5.6,5.6,0,0,1,1.3-3.822,4.536,4.536,0,0,1,3.6-1.489,4.584,4.584,0,0,1,3.625,1.484,5.566,5.566,0,0,1,1.312,3.827v.2a5.58,5.58,0,0,1-1.306,3.832,5.156,5.156,0,0,1-7.229,0,5.576,5.576,0,0,1-1.307-3.832Zm2.8.2a4.523,4.523,0,0,0,.5,2.287,1.729,1.729,0,0,0,1.619.861,1.711,1.711,0,0,0,1.595-.866,4.488,4.488,0,0,0,.507-2.281v-.2a4.441,4.441,0,0,0-.511-2.261,1.729,1.729,0,0,0-1.61-.877,1.708,1.708,0,0,0-1.595.881,4.491,4.491,0,0,0-.507,2.257Z" transform="translate(-1140.579 -7998.438)" fill="#1a4e75"/>
        <path id="Trazado_104908" data-name="Trazado 104908" d="M1093.362,8031.616v2.554h1.755v1.977h-1.755v5.313a1.221,1.221,0,0,0,.251.866.892.892,0,0,0,.675.261,2.66,2.66,0,0,0,.381-.024,3.181,3.181,0,0,0,.371-.082l.241,2.035a5.7,5.7,0,0,1-.829.216,5.034,5.034,0,0,1-.877.072,3,3,0,0,1-2.241-.8,3.506,3.506,0,0,1-.786-2.535v-5.321h-1.523v-1.977h1.523v-2.554Z" transform="translate(-1089.024 -8005.872)" fill="#1a4e75"/>
        <path id="Trazado_104909" data-name="Trazado 104909" d="M1105.143,8037.413l-1.032-.029a1.873,1.873,0,0,0-1.032.261,1.662,1.662,0,0,0-.617.732v7.046h-2.8v-10.43h2.613l.125,1.543a3.288,3.288,0,0,1,.949-1.277,2.119,2.119,0,0,1,1.344-.458,2.027,2.027,0,0,1,.391.034c.119.022.239.049.362.081Z" transform="translate(-1091.772 -8006.695)" fill="#1a4e75"/>
        <path id="Trazado_104910" data-name="Trazado 104910" d="M1114.908,8045.423a5.824,5.824,0,0,1-.266-.752,5.174,5.174,0,0,1-.159-.809,3.881,3.881,0,0,1-1.143,1.263,2.857,2.857,0,0,1-1.692.5,3.526,3.526,0,0,1-2.525-.842,3.023,3.023,0,0,1-.888-2.3,2.751,2.751,0,0,1,1.181-2.375,5.9,5.9,0,0,1,3.447-.844h1.571v-.83a1.622,1.622,0,0,0-.4-1.165,1.841,1.841,0,0,0-2.222-.082,1.172,1.172,0,0,0-.371.92l-2.719-.011-.009-.057a2.647,2.647,0,0,1,1.147-2.28,5,5,0,0,1,3.19-.958,4.662,4.662,0,0,1,3.036.949,3.289,3.289,0,0,1,1.166,2.7v4.309a8.062,8.062,0,0,0,.112,1.378,6.829,6.829,0,0,0,.351,1.281Zm-2.574-1.879a2.414,2.414,0,0,0,1.321-.366,1.91,1.91,0,0,0,.781-.849v-1.475h-1.571a1.88,1.88,0,0,0-1.359.448,1.457,1.457,0,0,0-.463,1.085,1.084,1.084,0,0,0,.346.838A1.344,1.344,0,0,0,1112.334,8043.543Z" transform="translate(-1093.99 -8006.695)" fill="#1a4e75"/>
        <path id="Trazado_104911" data-name="Trazado 104911" d="M1122.692,8038.756a6.775,6.775,0,0,1,1.066-3.981,3.458,3.458,0,0,1,3-1.513,2.913,2.913,0,0,1,1.407.337,3.386,3.386,0,0,1,1.1.964v-5.716h2.824v15.038h-2.419l-.231-1.272a3.455,3.455,0,0,1-1.161,1.1,3.092,3.092,0,0,1-1.538.376,3.527,3.527,0,0,1-2.983-1.407,6.01,6.01,0,0,1-1.066-3.721Zm2.805.2a4.288,4.288,0,0,0,.463,2.167,1.607,1.607,0,0,0,1.5.791,2.184,2.184,0,0,0,1.06-.247,1.967,1.967,0,0,0,.742-.723v-4.47a2.167,2.167,0,0,0-.738-.771,1.94,1.94,0,0,0-1.045-.277,1.589,1.589,0,0,0-1.509.921,5.228,5.228,0,0,0-.477,2.4Z" transform="translate(-1097.726 -8005.156)" fill="#1a4e75"/>
        <path id="Trazado_104912" data-name="Trazado 104912" d="M1141.314,8030.958H1138.5v-2.111h2.814Zm0,12.927H1138.5v-10.43h2.814Z" transform="translate(-1101.811 -8005.156)" fill="#1a4e75"/>
        <path id="Trazado_104913" data-name="Trazado 104913" d="M1149.623,8043.457a1.67,1.67,0,0,0,1.205-.435,1.545,1.545,0,0,0,.454-1.166h2.554l.029.059a3.249,3.249,0,0,1-1.19,2.646,5.022,5.022,0,0,1-6.646-.41,5.618,5.618,0,0,1-1.263-3.788v-.29a5.657,5.657,0,0,1,1.258-3.788,4.446,4.446,0,0,1,3.591-1.484,4.382,4.382,0,0,1,3.109,1.1,3.646,3.646,0,0,1,1.142,2.892l-.019.058h-2.564a2.038,2.038,0,0,0-.444-1.345,1.5,1.5,0,0,0-1.224-.535,1.635,1.635,0,0,0-1.577.866,4.776,4.776,0,0,0-.458,2.233v.289a4.748,4.748,0,0,0,.458,2.247A1.648,1.648,0,0,0,1149.623,8043.457Z" transform="translate(-1103.43 -8006.695)" fill="#1a4e75"/>
        <path id="Trazado_104914" data-name="Trazado 104914" d="M1162.2,8030.958h-2.814v-2.111h2.814Zm0,12.927h-2.814v-10.43h2.814Z" transform="translate(-1107.21 -8005.156)" fill="#1a4e75"/>
        <path id="Trazado_104915" data-name="Trazado 104915" d="M1165.72,8040.111a5.6,5.6,0,0,1,1.3-3.822,5.138,5.138,0,0,1,7.229,0,5.567,5.567,0,0,1,1.311,3.826v.2a5.58,5.58,0,0,1-1.307,3.832,5.157,5.157,0,0,1-7.229,0,5.58,5.58,0,0,1-1.306-3.832Zm2.8.2a4.516,4.516,0,0,0,.5,2.286,1.927,1.927,0,0,0,3.215,0,4.5,4.5,0,0,0,.506-2.282v-.2a4.439,4.439,0,0,0-.511-2.262,1.728,1.728,0,0,0-1.61-.876,1.708,1.708,0,0,0-1.6.88,4.5,4.5,0,0,0-.507,2.258Z" transform="translate(-1108.846 -8006.695)" fill="#1a4e75"/>
        <path id="Trazado_104916" data-name="Trazado 104916" d="M1183.889,8034.993l.125,1.494a3.841,3.841,0,0,1,1.281-1.244,3.341,3.341,0,0,1,1.707-.442,3.135,3.135,0,0,1,2.467.994,4.578,4.578,0,0,1,.887,3.112v6.516h-2.824V8038.9a2.128,2.128,0,0,0-.424-1.494,1.707,1.707,0,0,0-1.282-.439,2.177,2.177,0,0,0-1,.228,2.053,2.053,0,0,0-.741.642v7.584h-2.815v-10.43Z" transform="translate(-1112.865 -8006.695)" fill="#1a4e75"/>
        <path id="Trazado_104917" data-name="Trazado 104917" d="M1202.289,8045.423a5.7,5.7,0,0,1-.265-.752,5.146,5.146,0,0,1-.159-.809,3.888,3.888,0,0,1-1.143,1.263,2.856,2.856,0,0,1-1.692.5,3.529,3.529,0,0,1-2.526-.842,3.026,3.026,0,0,1-.887-2.3,2.749,2.749,0,0,1,1.181-2.375,5.893,5.893,0,0,1,3.446-.844h1.571v-.83a1.622,1.622,0,0,0-.4-1.165,1.841,1.841,0,0,0-2.222-.082,1.173,1.173,0,0,0-.371.92l-2.719-.011-.009-.057a2.648,2.648,0,0,1,1.146-2.28,5,5,0,0,1,3.191-.958,4.662,4.662,0,0,1,3.036.949,3.289,3.289,0,0,1,1.166,2.7v4.309a8.049,8.049,0,0,0,.112,1.378,6.792,6.792,0,0,0,.351,1.281Zm-2.574-1.879a2.414,2.414,0,0,0,1.321-.366,1.91,1.91,0,0,0,.781-.849v-1.475h-1.571a1.881,1.881,0,0,0-1.359.448,1.456,1.456,0,0,0-.463,1.085,1.084,1.084,0,0,0,.347.838A1.342,1.342,0,0,0,1199.715,8043.543Z" transform="translate(-1116.574 -8006.695)" fill="#1a4e75"/>
        <path id="Trazado_104918" data-name="Trazado 104918" d="M1213.668,8043.885h-2.813v-15.038h2.813Z" transform="translate(-1120.512 -8005.156)" fill="#1a4e75"/>
      </g>
      <path id="Trazado_104919" data-name="Trazado 104919" d="M1208.572,7861.822H1075.9v-91.581l.692-.047c.076,0,7.968-.523,37.563-1.163,29.546-.636,78.373-5.875,78.863-5.928.253-.036,27.646-3.885,36.54-5.917a6.57,6.57,0,0,0,4.354-3.034c2.489-4.12.786-10.689.769-10.755l1.434-.381c.078.294,1.877,7.251-.933,11.9a8,8,0,0,1-5.293,3.713c-8.954,2.048-36.411,5.906-36.688,5.944-.513.056-49.4,5.3-79.013,5.939-24.817.535-34.346.986-36.8,1.119v88.705h131.191Z" transform="translate(-13.985)" fill="#1a4e75"/>
      <rect id="Rectángulo_5422" data-name="Rectángulo 5422" width="1.483" height="171.979" transform="translate(1194.587 7761.451)" fill="#1a4e75"/>
      <path id="Trazado_104920" data-name="Trazado 104920" d="M1312.126,7873.191l-30.033-112.9.77-.157a6.757,6.757,0,0,0,4.7-3.711l.835-1.972.564,2.064,23.167,84.978Zm-28.2-111.793,26.722,100.449V7841.7l-22.665-83.137A8.11,8.11,0,0,1,1283.922,7761.4Z" transform="translate(-67.277 -2.956)" fill="#1a4e75"/>
      <path id="Trazado_104921" data-name="Trazado 104921" d="M1308.525,7813.344h-.035a.74.74,0,0,1-.681-.546l-3.137-11.508a.737.737,0,0,1,.019-.451l12.792-34.774a.742.742,0,0,1,1.437.256v20.7a.741.741,0,0,1-.048.263l-9.655,25.584A.744.744,0,0,1,1308.525,7813.344Zm-2.36-12.217,2.473,9.073,8.8-23.318v-16.4Z" transform="translate(-73.106 -5.831)" fill="#1a4e75"/>
      <path id="Trazado_104922" data-name="Trazado 104922" d="M1033.51,7797.721a2.246,2.246,0,0,1-1.927-.649,2.626,2.626,0,0,1-.041-2.374,4.133,4.133,0,0,1,3.084-2.347l5.736-2.4a.387.387,0,0,1,.1-.026c1.072-.125,2.905-.545,3.259-1.141a.324.324,0,0,0,.045-.116,15.747,15.747,0,0,0-5.8.056,27.119,27.119,0,0,1-8.653-.3c-.7-.208-6.544-2.008-7.4-3.885a1.149,1.149,0,0,1-.02-.972c1.026-2.281,5.945-4.288,10.964-4.474,5.175-.189,15.3,0,15.4,0l7.049-.086,7.4.862a.37.37,0,0,1,.328.368v10.156a.37.37,0,0,1-.114.269.4.4,0,0,1-.273.1l-2.08-.095-10.787,2.312-7.725,1.932-5.161,2.3A14.917,14.917,0,0,1,1033.51,7797.721Zm7.09-7.062-5.756,2.4a3.47,3.47,0,0,0-2.619,1.931,1.916,1.916,0,0,0-.016,1.686c.319.5,2.55.322,4.432-.16l5.164-2.3,7.8-1.956,10.846-2.324a.383.383,0,0,1,.094-.008l1.74.08v-9.438l-7.022-.821-7.014.088c-.113,0-10.216-.193-15.37,0-5.093.188-9.524,2.278-10.315,4.037a.4.4,0,0,0,.018.36c.61,1.334,5.192,2.961,6.908,3.475a26.825,26.825,0,0,0,8.338.291,15.587,15.587,0,0,1,6.354.008.368.368,0,0,1,.248.22,1.03,1.03,0,0,1-.068.942C1043.729,7790.222,1041.1,7790.6,1040.6,7790.658Z" transform="translate(0 -9.302)" fill="#1a4e75"/>
    </g>
  </g>
</svg>
