<svg xmlns="http://www.w3.org/2000/svg" width="396" height="323" viewBox="0 0 396 323">
  <g id="Grupo_54831" data-name="Grupo 54831" transform="translate(-596 -7573)">
    <rect id="Rectángulo_5288" data-name="Rectángulo 5288" width="396" height="323" transform="translate(596 7573)" fill="#f3f9ff"/>
    <g id="Grupo_54038" data-name="Grupo 54038" transform="translate(-69.399 -2098.758)">
      <g id="Grupo_54035" data-name="Grupo 54035" transform="translate(810.823 9755.488)">
        <path id="Trazado_101904" data-name="Trazado 101904" d="M814.962,9883.63c55.488,17.248,99.864,4.717,114.8-.719l4.076-41.738,2.136-25.914,0-8.291c-.014-.408-.357-9.982-3.014-16.129-2.49-5.756-7.84-16.441-11.412-21.539-2.338-3.336-10.089-11.816-10.417-12.174l-1.271-1.391-1.858.3a11.455,11.455,0,0,0-6.63.484l-4.149,1.936c-1.82.172-12.742,2.33-24.048,2.33-14.264,0-19.644-1.643-21.585-2.619l-2.092-1.061s-12.19-7.377-12.631-6.951l-1.762,3.814-.8.869c-.816.885-20.017,21.877-23.117,39.51l-.04.229-.009.236c-.012.287-1.121,29.152.919,54.086C812.681,9856.56,813.764,9869.454,814.962,9883.63Z" transform="translate(-810.823 -9750.138)" fill="#333"/>
      </g>
      <text id="MINI" transform="translate(842.045 9920.575)" font-size="27" font-family="Roboto-Bold, Roboto" font-weight="700"><tspan x="0" y="0">MINI</tspan></text>
      <path id="Trazado_101905" data-name="Trazado 101905" d="M883.419,9751.471s-4.35,1.248-22.171-2.76c-20.045-4.508-26.927-8.3-33.361-3.639s1.752,12.734,1.752,12.734,6.935,7.619,36.5,4.66c0,0,23.194-1.477,31.152-4.318l3.45-4.705-2.085-5.334Z" transform="translate(10.851 0.001)" fill="#333"/>
      <path id="Trazado_101906" data-name="Trazado 101906" d="M883.758,9753.039s-4.348,1.246-22.171-2.76c-20.043-4.508-26.926-8.3-33.361-3.639s1.754,12.734,1.754,12.734,6.935,7.617,36.5,4.66c0,0,23.2-1.477,31.154-4.32l3.448-4.705L899,9749.676Z" transform="translate(11.104 1.162)" fill="#395f65"/>
      <g id="Grupo_54036" data-name="Grupo 54036" transform="translate(834.472 9745.67)">
        <path id="Trazado_101907" data-name="Trazado 101907" d="M864.622,9767.209c-20.561,0-33.448-6.123-33.985-6.381l-3.858-2.094a3.491,3.491,0,0,1-1.979-1.75,5.363,5.363,0,0,1-.092-3.844,32.839,32.839,0,0,1,1.89-6.84,3.235,3.235,0,0,1,3.046-1.795,9.5,9.5,0,0,1,4.3,1.426c1.135.4,7.542,2.68,11.306,4.125,3.062,1.178,10.514,1.73,14.965,2.064,1.24.092,2.32.172,3.135.25.638.059,1.447.092,2.408.092a149.3,149.3,0,0,0,17.371-1.449c8.755-1.17,12.289-2.074,13.712-2.621a4.835,4.835,0,0,1,1.749-.363,2.98,2.98,0,0,1,3,2.373,52.444,52.444,0,0,0,2.022,6.309,2.815,2.815,0,0,1-.03,2.527c-.969,1.883-4,2.615-4.909,2.793l-11.445,2.715A106.9,106.9,0,0,1,864.622,9767.209Z" transform="translate(-824.388 -9744.506)" fill="#333"/>
        <path id="Trazado_101908" data-name="Trazado 101908" d="M830.659,9758.516l-3.914-2.121c-2.15-.682-1.074-3.562-1.074-3.562a33.434,33.434,0,0,1,1.764-6.521c1-2.043,4.988.457,4.988.457s7.291,2.578,11.435,4.17,14.58,2.047,18.571,2.424,12.816-.377,20.183-1.363,11.972-1.9,14.12-2.729,2.38.756,2.38.756a56.977,56.977,0,0,0,2.148,6.672c.921,1.969-3.684,2.881-3.684,2.881l-11.51,2.727C853.22,9769.432,830.659,9758.516,830.659,9758.516Z" transform="translate(-823.634 -9743.763)" fill="#7fc6cc"/>
      </g>
      <g id="Grupo_54037" data-name="Grupo 54037" transform="translate(814.304 9762.517)">
        <path id="Trazado_101909" data-name="Trazado 101909" d="M816.746,9877.916c50.445,14.744,91.217,5.084,108.283-.6l3.851-39.432,2.122-25.77v-8.037s-.3-9.248-2.728-14.855-7.671-16.078-11.067-20.922c-2.233-3.187-10.134-11.824-10.134-11.824a29.131,29.131,0,0,0-6.238,1.8s9.4,13.814,7.125,26.244c0,0-8.339-24.9-11.219-24.5,0,0-37.315,3.756-48.208-1.744a59.638,59.638,0,0,0-15.546,25.336s3.265-22.453,8.724-26.086c0,0-3.717-3.779-6.33-3.324,0,0-19.29,20.92-22.245,37.748,0,0-1.138,28.652.908,53.666C814.637,9852.873,815.632,9864.73,816.746,9877.916Z" transform="translate(-812.82 -9754.169)" fill="#7fc6cc"/>
      </g>
    </g>
  </g>
</svg>
