<svg xmlns="http://www.w3.org/2000/svg" width="396" height="323" viewBox="0 0 396 323">
  <g id="Grupo_54820" data-name="Grupo 54820" transform="translate(-596 -6196)">
    <rect id="Rectángulo_5266" data-name="Rectángulo 5266" width="396" height="323" transform="translate(596 6196)" fill="#f3f9ff"/>
    <g id="Grupo_53997" data-name="Grupo 53997" transform="translate(387.554 -2958.747)">
      <path id="Trazado_101742" data-name="Trazado 101742" d="M422.141,9202.944s-2.663.765-13.579-1.69c-12.276-2.761-16.492-5.084-20.433-2.228s1.073,7.8,1.073,7.8,4.249,4.666,22.354,2.854c0,0,14.207-.905,19.081-2.646l2.112-2.882-1.277-3.268Z" transform="translate(4.144)" fill="#333"/>
      <path id="Trazado_101743" data-name="Trazado 101743" d="M422.482,9204.51s-2.664.764-13.58-1.691c-12.276-2.76-16.492-5.082-20.432-2.229s1.073,7.8,1.073,7.8,4.248,4.666,22.354,2.855c0,0,14.206-.906,19.08-2.646l2.112-2.883-1.276-3.266Z" transform="translate(4.167 0.106)" fill="#f3b755"/>
      <path id="Trazado_101744" data-name="Trazado 101744" d="M499.242,9398.751a4.38,4.38,0,0,1-.926,4.054,29.3,29.3,0,0,1-13.928,8.157c-4.72,1.136-10.5-4.18-16.632-2.372-6.045,1.782-12.68,8.5-19.5,9.563-7.236,1.133-11.809-6.241-19.778-5.2-7.471.978-6.593,7.338-21.727,7.326-10.458-.009-13.921-7.559-24.636-9.926-5.424-1.2-9.255,3.529-16.4,2.321-5.373-.906-8.216-8.132-13.65-10.027-7.487-2.611-28.227,7.15-26.463-1.485l49.49-170.939s5.014-16.148,12.813-20.327a19.923,19.923,0,0,1,1.358-3.991l2.057-4.457s.868-1.113,1.8-.649,13.65,6.592,31.059,3.342c0,0,9.7-1.577,11.653-2.878,0,0,2.043,4.735,1.95,6.035a3.168,3.168,0,0,1,0,1.161c-.139.231,7.294,5.515,9.8,10.529s11.451,36.074,11.451,36.074,12.29,52.223,17.178,69.685C481.372,9343.207,499.242,9398.751,499.242,9398.751Z" transform="translate(0 0.202)" fill="#333"/>
      <text id="GYPSY" transform="translate(391.745 9435.715)" font-size="16" font-family="Roboto-Bold, Roboto" font-weight="700"><tspan x="0" y="0">GYPSY</tspan></text>
      <path id="Trazado_101745" data-name="Trazado 101745" d="M493.942,9394.748a4.417,4.417,0,0,1-.872,3.973,27.461,27.461,0,0,1-13.134,8c-4.449,1.113-9.9-4.1-15.683-2.324-5.7,1.746-11.957,8.328-18.386,9.373-6.824,1.109-11.136-6.118-18.649-5.1-7.046.957-6.217,7.192-20.488,7.18-9.862-.009-13.127-7.408-23.231-9.729-5.115-1.174-8.726,3.458-15.468,2.275-5.066-.889-7.746-7.971-12.87-9.829-7.06-2.56-26.617,7.008-24.953-1.457l46.667-167.55s4.727-15.827,12.082-19.924a20.088,20.088,0,0,1,1.28-3.913l1.195-3.167s.818-1.092,1.694-.637a54.09,54.09,0,0,0,30.561,2.993s6.959-1.5,9.727-2.725a.873.873,0,0,1,1.162.456c.547,1.261,1.47,3.544,1.408,4.445,0,0-.736,2.5-.867,2.729s7.677,7.892,10.041,12.806,8.679,23.3,10.865,31.28c4.635,16.928,11.59,51.189,16.2,68.3C477.093,9340.3,493.942,9394.748,493.942,9394.748Z" transform="translate(0.313 0.278)" fill="#f3b755"/>
      <path id="Trazado_101746" data-name="Trazado 101746" d="M390.709,9211.9a31.731,31.731,0,0,0-4.629,12.294s4.758-11.513,7.115-11.792c0,0,18.512,3.064,33.206-.558a43.265,43.265,0,0,1,7.961,12.721s-2.136-12.07-3.992-13.927l3.654-1.578-.938-1.532a55.446,55.446,0,0,1-20.266,3.76c-11.327-.093-21.48-.232-27.112-3.76l-.51,1.392,1.277,1.88Z" transform="translate(4.047 0.665)" fill="#333"/>
      <path id="Trazado_101747" data-name="Trazado 101747" d="M372.981,9227.391s9.935,14.393,30.826,14.764c0,0,5.375.557,14.293-2.043s24.054-6.264,30.368-5.312l.557,2.342a85.625,85.625,0,0,0-31.476,5.479c-15.971,6.221-35.84-3.992-35.84-3.992a93.28,93.28,0,0,1-10.029-6.314Z" transform="translate(3.131 2.011)" fill="#333"/>
      <path id="Trazado_101748" data-name="Trazado 101748" d="M359.218,9277.241s17.234-2.992,24.7,1.673a38.317,38.317,0,0,0,25.255,4.92c3.5-.641,14.021-4.55,14.021-4.55s10.864-5.849,18.291-.649,18.813-.318,19.592-3.158l1.578,5.666s-15.414,6.313-22.655-.186-20.335,2.691-20.335,2.691-16,8.265-28.289,1.765-14.237-7.335-21.108-6.964a38.15,38.15,0,0,0-11.977,2.6Z" transform="translate(2.223 5.272)" fill="#333"/>
      <path id="Trazado_101749" data-name="Trazado 101749" d="M345.3,9325.652s-.836,7.614,13.834,5.013c0,0,7.057-2.32,11.235,2.879s13.371,4.922,16.9,4.086,15.97-5.479,22.47-1.393a22.829,22.829,0,0,0,22.642,1.021c7.627-3.9,13.656-5.942,23.873-1.487s17.182.187,19.781-7.52l2.321,6.221s-8.449,9.379-19.685,4.828-11.355-6.034-25.362-.371-13.4,2.895-24.127-.557-19.134,2.112-23.028,2.506c-4.73.479-15.135-.231-19.22-5.478s-14.02-.929-14.02-.929-8.821,3.342-9.656.65S345.3,9325.652,345.3,9325.652Z" transform="translate(1.194 8.673)" fill="#333"/>
      <path id="Trazado_101750" data-name="Trazado 101750" d="M359.318,9293.391s-7.5,53.629-16.215,66.482C343.1,9359.873,354.3,9306.2,359.318,9293.391Z" transform="translate(1.194 6.486)" fill="#333"/>
      <path id="Trazado_101751" data-name="Trazado 101751" d="M354.834,9397.731l11.328-55.9s10.654-47.354,13.405-80.967l-23.434,112.722s-3.619,17.084-9.888,23.213Z" transform="translate(1.407 4.282)" fill="#333"/>
      <path id="Trazado_101752" data-name="Trazado 101752" d="M385.6,9406.52s-3.715-3.9-1.672-18.386,8.172-76.059,8.172-76.059l6.314-63.033-17.27,140.021s-1.822,10.793-6.639,14.586l3.146,1.57,6.279,1.3Z" transform="translate(3.323 3.48)" fill="#333"/>
      <path id="Trazado_101753" data-name="Trazado 101753" d="M397.415,9285.391s-5.7,83.938-8.141,91.923C389.274,9377.313,393.329,9297.833,397.415,9285.391Z" transform="translate(4.324 5.943)" fill="#333"/>
      <path id="Trazado_101754" data-name="Trazado 101754" d="M429.257,9404.9s-6.62-.65-7.415-24.328c-.928-27.668-5.292-80.223-5.292-80.223s1.3,74.932,1.857,93.5c0,0,.372,9.192-1.392,12.348l5.889-1.67Z" transform="translate(6.173 6.957)" fill="#333"/>
      <path id="Trazado_101755" data-name="Trazado 101755" d="M427.58,9271.826s8.818,87.949,20.07,110.307Z" transform="translate(6.921 5.024)" fill="#333"/>
      <path id="Trazado_101756" data-name="Trazado 101756" d="M452.724,9295.13s13.741,67.6,24.512,84.31Z" transform="translate(8.625 6.604)" fill="#333"/>
      <path id="Trazado_101757" data-name="Trazado 101757" d="M427.58,9243.534l22.944,113.591s9.569,41.319,15.325,46.518h-5.571l-3.807,1.857a37.147,37.147,0,0,0-.557-13.463s-10.908-47.9-13.974-63.975C437.923,9307.009,427.58,9243.534,427.58,9243.534Z" transform="translate(6.921 3.106)" fill="#333"/>
    </g>
  </g>
</svg>
