<svg xmlns="http://www.w3.org/2000/svg" width="396" height="323" viewBox="0 0 396 323">
  <g id="Grupo_54824" data-name="Grupo 54824" transform="translate(-180 -6884)">
    <rect id="Rectángulo_5281" data-name="Rectángulo 5281" width="396" height="323" transform="translate(180 6884)" fill="#d8ecff"/>
    <g id="Grupo_54007" data-name="Grupo 54007" transform="translate(-112.687 -2504.778)">
      <path id="Trazado_101809" data-name="Trazado 101809" d="M609.969,9507.02c-.94-1.54-2.938-3.376-7.117-3.376-.446,0-.923.02-1.435.064-1.03.09-2.279.135-3.712.135-9.927,0-28.008-2.193-44.245-7.011-24.891-7.386-41.72-15.317-48.693-22.944-1.677-2.236-7.518-9.39-12.68-9.39-.742,0-.159-1.967-.836-1.722-1.842.664-3.145,2.374-2.71.57,1.1-4.555-1.644,1.331-1.648,1.342-.972-.405-1.48.639-2.551.639-.606,0-1.434.806-2.019.956-1.217.316-.933-2.653-1.649-1.647-.777-.445-2.314,1.594-3.186,1.594-.193,0-1.4,2-1.6,2.02-.626.076-1.227-.915-1.754-.6-1.121-1.627-2.178,1.362-3.367,1.3-.721-.038-1.784-.053-2.882-.053-1.571,0-3.216.028-3.931.041a8.433,8.433,0,0,0-1.256-.095,6.788,6.788,0,0,0-2.969.662,4.671,4.671,0,0,0-3.18-1.2l-.263,0-.153.013a4.238,4.238,0,0,0-1.778.484,5.689,5.689,0,0,0-3.362-1.737,4.5,4.5,0,0,0-.653-.047c-.7,0-2.113-5.545-3.944-4.027-.863-.964-1.667-1.062-3.135-1.062-.1,0-1.45-.653-2.048,1.157-.711,2.15-2.779,5.59-7.831,13.68-2.809,4.5-5.608,9.6-6.92,12.316-1.668,3.448-5.63,13.34-6.123,14.579l-27.513,57.575-12.146,20.941c-2.546,3.413-5.147,8.111-3.461,11.5a5.259,5.259,0,0,0,5,2.829h0c.248,0,.512-.011.8-.037.812-.074,1.634-.1,2.464-.136,3.5-.137,7.87-.322,12.164-3.479-.251,2.558.209,5.214,2.631,6.583a4.868,4.868,0,0,0,2.035.631c-.879,3.722-.538,7.073,2.515,8.672a7.867,7.867,0,0,0,3.691.854c3.463,0,7.014-1.933,8.015-2.52a10.293,10.293,0,0,1,3.3-.79,9.877,9.877,0,0,0,4.651-1.238c-.5,3.241-.561,7.254,1.429,9.6,1.358,1.6,3.442,4.1,4.377,5.228a7.344,7.344,0,0,0,5.977,4.512,8.562,8.562,0,0,0,1.45.125,11.054,11.054,0,0,0,7.146-3.026l5.534-3.894a17.084,17.084,0,0,0,2.189-1.888c.858,1.834,2.749,5.088,5.726,6.155a4.42,4.42,0,0,0,1.641.317h0a4.321,4.321,0,0,0,1.507-.268,7.128,7.128,0,0,0,2.827,4.86l2.35,1.959.112.08a12.1,12.1,0,0,0,3.94,1.9,5.1,5.1,0,0,0,1.678.278,7.418,7.418,0,0,0,5.444-2.824l4.755-3.407a9.346,9.346,0,0,0,4.367-4.759,10.61,10.61,0,0,0,5.894,3.188,26.563,26.563,0,0,0,8.565,1.8,12.323,12.323,0,0,0,2.072-.167c4.932-.858,8.064-6.246,8.908-7.872.986-1.45,2.723-4.416,2.844-7.307a9.111,9.111,0,0,0,3.288.724c.214,0,.728.009.728.009,3.851,0,31.167-1.6,39.111-8.571,6.737-5.916,12.556-11.025,16.488-31.889l.053-.282.01-.286a15.983,15.983,0,0,0-1.547-6.6,11.813,11.813,0,0,0,3.254.464,12.374,12.374,0,0,0,8.859-3.979,77.628,77.628,0,0,0,6.363-6.77c1.423-1.118,4.114-3.714,3.815-7.144a6.063,6.063,0,0,0-1.37-3.332A8.309,8.309,0,0,0,602,9537c.43-.979.865-1.937,1.3-2.893a88.557,88.557,0,0,0,6.593-18.64C610.555,9514,611.909,9510.2,609.969,9507.02Z" transform="translate(0 1.481)" fill="#333"/>
      <text id="CIRCLE" transform="translate(451.807 9662.213)" font-size="19" font-family="Roboto-Bold, Roboto" font-weight="700"><tspan x="0" y="0">CIRCLE</tspan></text>
      <path id="Trazado_101810" data-name="Trazado 101810" d="M470.145,9460.938s-3.049.875-15.544-1.937c-14.052-3.159-18.878-5.818-23.388-2.551s1.228,8.93,1.228,8.93,4.862,5.339,25.588,3.268c0,0,16.261-1.037,21.84-3.03l2.418-3.3-1.461-3.739Z" transform="translate(11.734)" fill="#333"/>
      <path id="Trazado_101811" data-name="Trazado 101811" d="M470.485,9462.5s-3.048.874-15.543-1.935c-14.052-3.161-18.878-5.819-23.389-2.551s1.228,8.927,1.228,8.927,4.863,5.341,25.588,3.268c0,0,16.262-1.036,21.842-3.027l2.418-3.3-1.462-3.738Z" transform="translate(11.809 0.348)" fill="#8db795"/>
      <g id="Grupo_54005" data-name="Grupo 54005" transform="translate(439.956 9456.87)">
        <path id="Trazado_101812" data-name="Trazado 101812" d="M456.658,9472.436c-14.415,0-23.45-4.289-23.828-4.474l-2.7-1.465a2.447,2.447,0,0,1-1.387-1.229,3.759,3.759,0,0,1-.065-2.694,23.052,23.052,0,0,1,1.325-4.8,2.271,2.271,0,0,1,2.135-1.256,6.7,6.7,0,0,1,3.016,1c.8.284,5.287,1.879,7.925,2.892,2.147.825,7.371,1.216,10.493,1.447.869.066,1.627.123,2.2.177.446.043,1.014.063,1.688.063a104.429,104.429,0,0,0,12.178-1.017c6.138-.819,8.616-1.451,9.613-1.838a3.448,3.448,0,0,1,1.226-.254,2.089,2.089,0,0,1,2.1,1.666,36.98,36.98,0,0,0,1.418,4.422,1.967,1.967,0,0,1-.022,1.771c-.678,1.32-2.805,1.833-3.441,1.959l-8.024,1.9A74.789,74.789,0,0,1,456.658,9472.436Z" transform="translate(-428.451 -9456.522)" fill="#333"/>
        <path id="Trazado_101813" data-name="Trazado 101813" d="M433.15,9466.643l-2.744-1.489c-1.507-.478-.754-2.5-.754-2.5a23.459,23.459,0,0,1,1.238-4.569c.7-1.436,3.5.318,3.5.318s5.111,1.807,8.017,2.923,10.222,1.435,13.019,1.7,8.985-.266,14.15-.956,8.392-1.328,9.9-1.913,1.668.531,1.668.531a40.022,40.022,0,0,0,1.506,4.677c.645,1.382-2.583,2.02-2.583,2.02l-8.069,1.913C448.967,9474.295,433.15,9466.643,433.15,9466.643Z" transform="translate(-428.226 -9456.3)" fill="#a3d8ae"/>
      </g>
      <g id="Grupo_54006" data-name="Grupo 54006" transform="translate(380.335 9470.323)">
        <path id="Trazado_101814" data-name="Trazado 101814" d="M423.039,9503.479,395.412,9561.3l-12.329,21.256s-6.908,9.14-1.063,8.609,12.222.956,18.068-9.142,19.556-48.146,19.556-48.146l15.3-45.17,7.97-17.218s1.595-2.55-.637-2.444-10.575,14.595-13.18,19.98C427.4,9492.554,423.039,9503.479,423.039,9503.479Z" transform="translate(-379.672 -9467.194)" fill="#a3d8ae"/>
        <path id="Trazado_101815" data-name="Trazado 101815" d="M447.337,9481.242l.572-7.494s.8-4.311-1.91-4.705-9.728,12.678-9.728,12.678l-6.7,17.059-21.81,64.326-10.154,25.029s-1.833,5.42,0,6.457,3.348-2.551,7.413-12.436,12.116-35.074,12.116-35.074l6.059-19.607,1.594-5.021-4.543,21.842-10.6,33-5.421,14.9s-5.217,10.045-2.171,11.639,8.309-1.674,8.309-1.674a13.952,13.952,0,0,1,4.88-1.2c2.533-.078,4.206-1.193,5.641-3.586s7.016-26.7,7.016-26.7l14.507-70.387-18.28,101.18s-1.7,7.016.106,9.143,4.889,5.844,4.889,5.844.211,2.125,3.294,2.658,5.633-2.127,5.633-2.127l5.74-4.037s3.267-2.338,3.546-4.572,5.275-102.029,5.275-102.029l1.275-32.205s0-3.984-1.913-3.826-3.268,31.486-3.268,31.486-1.992,29.686-6.456,42.3c0,0,3.034-33.137,3.749-44.137Z" transform="translate(-375.866 -9467.195)" fill="#a3d8ae"/>
        <path id="Trazado_101816" data-name="Trazado 101816" d="M445.413,9479.555l-1.276,46.021-2.762,68.553s-1.6,9.777,0,17.323c0,0,1.7,4.251,4.038,5,0,0,1.7.958,1.381-3.932s.04-74.61.04-74.61l4.1,78.617s-.818,3.963,1.335,5.319l2.391,1.993a8.589,8.589,0,0,0,2.87,1.354s1.355.877,3.587-1.755l5.339-3.825s3.509-1.594,3.031-4.941-3.667-16.42-3.667-16.42a564.624,564.624,0,0,1-9.087-71.663s10.362,72.857,15.464,81.944l1.116,4.065s2.152,4.623,6.218,5.022c0,0,5.421,2.232,9.087,1.594s6.376-6.138,6.376-6.138,2.79-3.986,2.311-6.3-3.348-7.972-3.348-7.972l-14.188-38.34-19.53-77.082s-1.859-12.646-3.879-12.753-6.908,0-6.908,0-3.083-.744-3.507,1.807A67.273,67.273,0,0,0,445.413,9479.555Z" transform="translate(-366.116 -9466.864)" fill="#a3d8ae"/>
        <path id="Trazado_101817" data-name="Trazado 101817" d="M458.911,9484.252s15.729,65.256,23.807,85.451,10.923,28.059,10.923,28.059,1.937,6.8,7.039,6.959,30.769-1.912,37.3-7.65,11.638-10.363,15.3-29.812a12.665,12.665,0,0,0-4.464-9.246c-4.624-3.986-35.71-29.334-44.32-39.377s-29.254-38.9-29.254-38.9-5.261-10.484-10.283-9.187,5.5,21.781,5.5,21.781l10.124,23.516s14.508,26.543,28.7,48.225c0,0-24.339-30.928-32.628-49.312a352.5,352.5,0,0,1-13.286-34.117s-2.232-8.93-4.889-8.609S458.911,9484.252,458.911,9484.252Z" transform="translate(-362.396 -9466.884)" fill="#a3d8ae"/>
        <path id="Trazado_101818" data-name="Trazado 101818" d="M473.8,9477.989s25.751,42.407,58.593,65.523l16.845,11.8s6.43,6.537,12.967,0,6.218-6.717,6.218-6.717,6.542-4.362,0-7.233-26.308-12.194-35.713-18.412-30.5-19.238-48.147-38.369c0,0,36.667,30.823,57.818,39.963l21.469,9.671s11.372,6.271,14.135,0,5.633-11.689,7.759-21.255c0,0,3.932-7.653-4.676-6.91s-29.972-1.274-49.315-7.015-41.427-14.071-50.484-24.125c0,0-6.378-8.608-10.2-7.228s1.275,7.652,1.275,7.652Z" transform="translate(-359.676 -9467.529)" fill="#a3d8ae"/>
      </g>
    </g>
  </g>
</svg>
