<svg xmlns="http://www.w3.org/2000/svg" width="401.07" height="292.122" viewBox="0 0 401.07 292.122">
  <g id="Grupo_53789" data-name="Grupo 53789" transform="translate(-410.125 -4246.821)">
    <g id="Grupo_53781" data-name="Grupo 53781" transform="translate(410.125 4246.822)" opacity="0.47">
      <path id="Trazado_100915" data-name="Trazado 100915" d="M640.619,4262.209c-50.917,19.176-106.544,55.739-146.549,59.075s-90.662,20.729-83.208,62.183,154,103.637,222.305,119.186,129.163-25.91,121.71-101.567-63.339-158.047-114.258-138.877Zm0,0" transform="translate(-410.126 -4237.587)" fill="#2675af" fill-rule="evenodd"/>
      <path id="Trazado_100916" data-name="Trazado 100916" d="M442.43,4291.794c-4.963,24.823,12.421,64.315,9.937,103.811s-52.16,70.521-7.454,100.426,140.963-16.362,253.977-22.005,111.155-165.872,70.17-181.67-86.937,17.493-127.916,19.75c-53.171,2.925-183.647-95.6-198.714-20.312Zm0,0" transform="translate(-398.229 -4234.659)" fill="#5cb0ed" fill-rule="evenodd"/>
      <path id="Trazado_100917" data-name="Trazado 100917" d="M450.957,4264.067c0,6.633-4.793,12.012-10.705,12.012s-10.705-5.379-10.705-12.012,4.793-12.011,10.705-12.011,10.705,5.377,10.705,12.011Zm0,0" transform="translate(-395.866 -4242.98)" fill="#85c4f2" fill-rule="evenodd"/>
      <path id="Trazado_100918" data-name="Trazado 100918" d="M595.691,4403.2a12.17,12.17,0,1,1-12.159-12.671,12.425,12.425,0,0,1,12.159,12.671Zm0,0" transform="translate(-291.734 -4141.305)" fill="#85c4f2" fill-rule="evenodd"/>
      <path id="Trazado_100919" data-name="Trazado 100919" d="M607.692,4404.271a5.986,5.986,0,1,1-5.98-5.72,5.855,5.855,0,0,1,5.98,5.72Zm0,0" transform="translate(-273.849 -4135.418)" fill="#85c4f2" fill-rule="evenodd"/>
      <path id="Trazado_100920" data-name="Trazado 100920" d="M525.711,4397.155s-17.493,2.792-23.625,12.8,2.242,14.424,5.234,8.143,4.934-13.494,18.391-20.941Zm0,0" transform="translate(-344.214 -4136.444)" fill="#85c4f2" fill-rule="evenodd"/>
      <path id="Trazado_100921" data-name="Trazado 100921" d="M525.278,4398.607s-9.49,12.705-10.452,22.43,5.083,7,5.187,1.443-.647-11.006,5.265-23.873Zm0,0" transform="translate(-333.328 -4135.378)" fill="#85c4f2" fill-rule="evenodd"/>
      <path id="Trazado_100922" data-name="Trazado 100922" d="M600.857,4297.339s20.9-25.731,19.109-41.51-17.616-7.779-15.325.969,6.942,16.779-3.784,40.541Zm0,0" transform="translate(-270.086 -4246.822)" fill="#85c4f2" fill-rule="evenodd"/>
      <path id="Trazado_100923" data-name="Trazado 100923" d="M602.126,4292.171s.024-19.475-7.407-26.96-12.179,1.413-7.4,5.167,10.461,6.425,14.807,21.793Zm0,0" transform="translate(-281.438 -4235.457)" fill="#85c4f2" fill-rule="evenodd"/>
      <path id="Trazado_100924" data-name="Trazado 100924" d="M609.206,4426.287a1.568,1.568,0,0,1-1.9-.77,1.245,1.245,0,0,1,.9-1.633c14.985-4.623,28.285-17.3,38.1-32.514,11.141-17.285,17.734-37.789,17.178-53.526a1.385,1.385,0,0,1,1.445-1.311,1.408,1.408,0,0,1,1.526,1.242c.567,16.167-6.163,37.171-17.55,54.835-10.128,15.708-23.965,28.828-39.693,33.678Zm0,0" transform="translate(-265.413 -4180.954)" fill="#85c4f2"/>
      <path id="Trazado_100925" data-name="Trazado 100925" d="M499.367,4293.639a1.651,1.651,0,0,1-2.069-.317,1.167,1.167,0,0,1,.369-1.774c30.557-18.4,53.391-30.072,71.221-36.193,18.123-6.223,31.187-6.75,41.954-2.784a1.217,1.217,0,0,1,.784,1.675,1.586,1.586,0,0,1-1.951.679c-10.031-3.693-22.377-3.143-39.691,2.8-17.608,6.046-40.25,17.625-70.618,35.914Zm0,0" transform="translate(-346.316 -4244.458)" fill="#85c4f2"/>
      <path id="Trazado_100926" data-name="Trazado 100926" d="M436.952,4423.807a1.2,1.2,0,0,1,.689,1.709,1.609,1.609,0,0,1-1.993.591q-.871-.365-1.715-.779l-.09-.048c-10.757-5.32-15.58-15.309-15.967-27-.378-11.508,3.56-24.707,10.362-36.657q1.566-2.752,3.292-5.363a1.618,1.618,0,0,1,2.026-.477,1.186,1.186,0,0,1,.562,1.738c-1.143,1.723-2.218,3.469-3.215,5.223-6.6,11.6-10.419,24.368-10.055,35.461.354,10.842,4.738,20.058,14.495,24.868l.071.032c.491.244,1.006.475,1.54.7Zm0,0" transform="translate(-404.454 -4166.945)" fill="#85c4f2"/>
    </g>
    <g id="Grupo_53786" data-name="Grupo 53786" transform="translate(497.771 4269.307)">
      <g id="Grupo_53782" data-name="Grupo 53782" transform="translate(2.086 175.529)">
        <path id="Trazado_100927" data-name="Trazado 100927" d="M462.1,4390.167c3.1-18.736,25.833-27.779,47.169-28.976,12.5-.7,25.209.644,37.588,2.4,25.75,3.65,50.544,4.943,76.589,5.722,18.188.542,40.992-.358,53.976,12.333,9.152,8.946,11.9,24.336,1.32,32.8-11.531,9.23-32.656,8.439-47.9,8.613-19.389.222-38.852-.778-58.176.483-26.057,1.7-57.311,5.9-82.556-2.409C474.912,4416.134,459.789,4404.143,462.1,4390.167Z" transform="translate(-461.867 -4361.002)" fill="#2675af"/>
      </g>
      <g id="Grupo_53785" data-name="Grupo 53785">
        <g id="Grupo_53783" data-name="Grupo 53783" transform="translate(0 7.906)">
          <path id="Trazado_100928" data-name="Trazado 100928" d="M509.569,4370.5c1.576-2.945,3.475-3.365,3.475-3.365s-1.27-.944-7.554-1.26c3.068-1.577,8.283-1.263,8.283-1.263l-3.364-2.1a13.759,13.759,0,0,1,6.76,2.342c1.067-2.565,2.2-5.161,3.384-7.76l0,0a15.131,15.131,0,0,1-4.035-7.361c-8.316,3.7-19.17,9.642-19.749,15.7-.479,5,6.489,12.21,13.491,18.115,1.4-4.336,3.075-9.055,5-13.96A10.78,10.78,0,0,0,509.569,4370.5Z" transform="translate(-434.175 -4201.653)" fill="#c969b2"/>
          <path id="Trazado_100929" data-name="Trazado 100929" d="M510.069,4359.2s-5.215-.314-8.283,1.263c6.285.316,7.554,1.26,7.554,1.26s-1.9.419-3.475,3.364a10.774,10.774,0,0,1,5.686-.913q.918-2.343,1.913-4.734a13.754,13.754,0,0,0-6.76-2.342Z" transform="translate(-430.471 -4196.245)" fill="#b758a5"/>
          <path id="Trazado_100930" data-name="Trazado 100930" d="M512.376,4360.419l0,0q1.3-2.845,2.688-5.684c-2.926-2.69-5.421-5.8-6.169-9.53a10.407,10.407,0,0,0-.77.787,17.82,17.82,0,0,0,.213,7.069A15.131,15.131,0,0,0,512.376,4360.419Z" transform="translate(-426.001 -4204.98)" fill="#4c3e60"/>
          <path id="Trazado_100931" data-name="Trazado 100931" d="M514.633,4356.192q.827-1.685,1.686-3.36-.765-.53-1.495-1.148l2.279-4.64s.156.075.449.2a14.124,14.124,0,0,1-.947-4.029,15.5,15.5,0,0,0-8.141,3.45C509.211,4350.393,511.707,4353.5,514.633,4356.192Z" transform="translate(-425.568 -4206.44)" fill="#594972"/>
          <path id="Trazado_100932" data-name="Trazado 100932" d="M517.243,4333.647h0a8.793,8.793,0,0,1-4.917-3c-1.032,1.011-2.029,2-2.967,2.929a35.136,35.136,0,0,1,2.978,3.018,8.794,8.794,0,0,1,1.12,7.093c-.477,1.865-1.037,3.7-1.594,5.522,1.427-.814,2.881-1.743,4.323-2.748A82.712,82.712,0,0,0,517.243,4333.647Z" transform="translate(-424.911 -4215.667)" fill="#b26b5e"/>
          <path id="Trazado_100933" data-name="Trazado 100933" d="M521.786,4336.718a35.14,35.14,0,0,0-2.978-3.018c-1.74,1.733-3.285,3.292-4.514,4.544l-11.42-7.127c-1.073.076-2.112.11-3.1.1a3.577,3.577,0,0,1-1.077-.734c-.709,4.02-1.521,7.479-2.161,9.959l-.045.167c6.746,5.917,14.935,12.057,21.267,10.559l.054-.07h.042a37.682,37.682,0,0,0,3.461-1.76c.557-1.826,1.117-3.658,1.594-5.522A8.8,8.8,0,0,0,521.786,4336.718Z" transform="translate(-434.361 -4215.791)" fill="#c17d76"/>
          <path id="Trazado_100934" data-name="Trazado 100934" d="M529.252,4366.287c-.2.358-.415.715-.638,1.072-1,1.58-2,3.108-2.983,4.574l0,0c9.457-2.143,13.35-6.6,14.358-11.721a40.421,40.421,0,0,1-3.888,2.836A28.7,28.7,0,0,1,529.252,4366.287Z" transform="translate(-412.964 -4193.961)" fill="#b758a5"/>
          <path id="Trazado_100935" data-name="Trazado 100935" d="M531.184,4349.915a16.47,16.47,0,0,1,4.445,11.374l-4.5,2.7s-.026-.232-.08-.629a26.455,26.455,0,0,1-3.335,11.189,28.7,28.7,0,0,0,6.85-3.243,40.315,40.315,0,0,0,3.888-2.835c1.3-6.593-2.194-14.278-4.743-19.505h0C533.685,4348.977,532.752,4349.383,531.184,4349.915Z" transform="translate(-411.431 -4202.219)" fill="#c969b2"/>
          <path id="Trazado_100936" data-name="Trazado 100936" d="M531.26,4349.135h0c-.066-.137-.134-.273-.2-.408C531.185,4349.139,531.248,4349.139,531.26,4349.135Z" transform="translate(-408.976 -4202.392)" fill="#c969b2"/>
          <path id="Trazado_100937" data-name="Trazado 100937" d="M510.483,4328.871c0-.094,0-.187,0-.285l-.014,0C510.475,4328.686,510.478,4328.778,510.483,4328.871Z" transform="translate(-424.093 -4217.18)" fill="#fff"/>
          <path id="Trazado_100938" data-name="Trazado 100938" d="M513.9,4332.376Z" transform="translate(-421.573 -4214.396)" fill="#fff"/>
          <path id="Trazado_100939" data-name="Trazado 100939" d="M532.554,4319.184a41.3,41.3,0,0,1-.5-5.537l-1.178.3v-4.405s-.683,2.827-1.139,4.7l-4.334,1.109.387-2.293a10.682,10.682,0,0,1-3.905,2.371,33.119,33.119,0,0,1,.267,4.883A37.249,37.249,0,0,1,532.554,4319.184Z" transform="translate(-415.716 -4231.162)" fill="#c17d76"/>
          <path id="Trazado_100940" data-name="Trazado 100940" d="M518.776,4310.322l-.158.06c.38-.045.7-.079.883-.1C519.343,4310.3,519.083,4310.314,518.776,4310.322Z" transform="translate(-418.113 -4230.617)" fill="#d08d83"/>
          <path id="Trazado_100941" data-name="Trazado 100941" d="M530.441,4319.3l.964-5.718a6.116,6.116,0,0,0,.663-.26c.208-.094.406-.194.6-.3,3.6-1.95,4.042-5.324,2.546-6.2-1.065-.623-3.045,1.077-4.218,2.242-.219.217-.408.417-.558.578h0c-2.223.213-5.019-5.211-5.019-8.621a7.963,7.963,0,0,1-7.176,2.8l.026-.572-.075.011a7.837,7.837,0,0,0,.73,3.733,2.074,2.074,0,0,1,.139,1.268c-.323,1.9-3.293,4.1-3.5,4.859s2.995,1.089,2.995,1.089a7.042,7.042,0,0,1-.265,1.292h.007c.645-.07,3.633,1.555,3.633,1.555l-.022,0-2.941,1.972a.29.29,0,0,1-.043-.006.982.982,0,0,1,.277.365,6.873,6.873,0,0,1,.473,2.445,1.032,1.032,0,0,0,1.086.949,20.26,20.26,0,0,0,5.78-1.12A10.685,10.685,0,0,0,530.441,4319.3Zm-8.031-9.236a3.763,3.763,0,0,0-.532-.652,1.169,1.169,0,0,0-.508-.266c-.035-.015-.118-.031-.191-.05s-.146-.04-.217-.065l-.038-.014a1.33,1.33,0,0,1,.045.53c-.05.481-.309.848-.578.82s-.446-.44-.4-.921a1.123,1.123,0,0,1,.317-.72,2.056,2.056,0,0,1-.524-.458,3.972,3.972,0,0,1,.924-.071,4.271,4.271,0,0,1,.43.033c.071.006.14.02.212.027a2.006,2.006,0,0,1,.238.049,1.349,1.349,0,0,1,.529.272,1.284,1.284,0,0,1,.336.474A1.185,1.185,0,0,1,522.41,4310.067Zm.279-3.813c-1.122-.495-2.976.035-3.356-.037s-.477-.923.442-1c3.113-.107,4.4,1.438,4.742,2.454A5.173,5.173,0,0,0,522.689,4306.254Zm10.7,1.741a2.235,2.235,0,0,1,1.562.043,7.046,7.046,0,0,0-1.205.694,11.531,11.531,0,0,0-.988.835c-.324.3-.638.615-.971.936s-.68.649-1.089.973a3.618,3.618,0,0,1,.432-1.456,4.5,4.5,0,0,1,.917-1.213A3.639,3.639,0,0,1,533.384,4308Z" transform="translate(-420.368 -4237.413)" fill="#d08d83"/>
          <path id="Trazado_100942" data-name="Trazado 100942" d="M524.666,4300.21a14.97,14.97,0,0,1-7.542,3.651l-.026.572a7.962,7.962,0,0,0,7.176-2.8c0,3.41,2.8,8.833,5.019,8.62h0C525.847,4307.711,524.916,4302.674,524.666,4300.21Z" transform="translate(-419.229 -4238.014)" fill="#c17d76"/>
          <path id="Trazado_100943" data-name="Trazado 100943" d="M525.04,4303.633c.25,2.464,1.181,7.5,4.629,10.042.151-.161.34-.361.558-.577-2.192-2.035-2.917-6.642-2.917-6.642s3.411,4.858,5.045,4.013,3.364-.369,3.737,1.827-2.242,3.831-2.242,3.831-.279,3.406-1.9,4.211a11.293,11.293,0,0,0-.049-3.285c-.191.1-.388.2-.6.3a6.439,6.439,0,0,1-.662.26l-.964,5.717-.387,2.293,4.334-1.108c.456-1.87,1.139-4.7,1.139-4.7v4.406l1.178-.3,4.721-1.21c.392-1.4,1.039-3.735,1.039-3.735l.234,3.411,1.1-.284.2-2.287.642,2.071,2.893-.739s2.031-14.184-5.144-20.529a7.949,7.949,0,0,0-2.076-1.458h0a2.417,2.417,0,0,0-.444-.289c-1.776-1.083-4.61-1.907-9.131-1.737a3.944,3.944,0,0,1,1.342-.606,6.673,6.673,0,0,1,1.9-.1,2.951,2.951,0,0,0-1.965-.875,3.37,3.37,0,0,0-2.175.692,4.02,4.02,0,0,0-.662.628,3.9,3.9,0,0,0-1.914-.753,6.023,6.023,0,0,0-2.047.1,4.631,4.631,0,0,0-1.85.842c.688.069,1.316.089,1.935.133.283.017.564.038.843.06-6.333.773-9.12,5.013-8.767,10.131.274-.024.541-.057.8-.1l.075-.012A14.954,14.954,0,0,0,525.04,4303.633Z" transform="translate(-419.603 -4241.437)" fill="#584263"/>
          <path id="Trazado_100944" data-name="Trazado 100944" d="M518.289,4303.448c-.919.075-.822.925-.442,1s2.234-.458,3.356.037a5.186,5.186,0,0,1,1.828,1.419C522.692,4304.886,521.4,4303.341,518.289,4303.448Z" transform="translate(-418.881 -4235.64)" fill="#584263"/>
          <path id="Trazado_100945" data-name="Trazado 100945" d="M520.881,4310.939l.023,0s-2.988-1.625-3.633-1.555h-.007c-.635.074-.288.944.607,1.358a5.615,5.615,0,0,0,2.138.249c.307-.008.567-.025.725-.037-.179.018-.5.052-.883.1a12.343,12.343,0,0,0-2.039.363.781.781,0,0,0,.085,1.5c.015,0,.029,0,.043,0Z" transform="translate(-419.346 -4231.284)" fill="#b26b5e"/>
          <path id="Trazado_100946" data-name="Trazado 100946" d="M518.433,4305.47a1.124,1.124,0,0,0-.317.72c-.05.481.127.891.4.921s.527-.339.577-.82a1.332,1.332,0,0,0-.045-.53,3.168,3.168,0,0,1-.383-.162C518.584,4305.559,518.508,4305.516,518.433,4305.47Z" transform="translate(-418.488 -4234.153)" fill="#584263"/>
          <path id="Trazado_100947" data-name="Trazado 100947" d="M520.326,4305.546a1.348,1.348,0,0,0-.529-.271,2.42,2.42,0,0,0-.238-.051c-.071-.008-.14-.021-.212-.028-.14-.016-.284-.028-.43-.031a3.9,3.9,0,0,0-.924.072,2.04,2.04,0,0,0,.524.457c.075.047.151.091.227.129a2.835,2.835,0,0,0,.383.162l.038.015c.071.025.144.043.217.065s.156.035.191.049a1.151,1.151,0,0,1,.508.267,3.678,3.678,0,0,1,.532.651,1.186,1.186,0,0,0,.048-1.013A1.3,1.3,0,0,0,520.326,4305.546Z" transform="translate(-418.572 -4234.378)" fill="#4b3e53"/>
          <path id="Trazado_100948" data-name="Trazado 100948" d="M536.487,4320.9a7.083,7.083,0,0,0,4.259-4.846,20.968,20.968,0,0,0-5.333-.933,37.249,37.249,0,0,0-10.4,1.126,72.436,72.436,0,0,0-7.022,2.084C523.016,4322.366,530.565,4322.988,536.487,4320.9Z" transform="translate(-418.575 -4227.097)" fill="#e7dcea"/>
          <path id="Trazado_100949" data-name="Trazado 100949" d="M521.345,4322.763a6.043,6.043,0,0,1,.305,3.935h0l0,0a8.967,8.967,0,0,1-.517,1.526c-1.2,3.735-4.015,13.783-3.432,24.1.734,13.005.9,17.041.9,17.058a42.663,42.663,0,0,0,5.716.954,38.5,38.5,0,0,0,5.3.152,1.945,1.945,0,0,1,1.406-1.159l2.065-.416a1.943,1.943,0,0,1,2.048.913,32.026,32.026,0,0,0,6.538-2.066,145.641,145.641,0,0,1,3.519-31.03c3.547-11.959,1.273-16.045-.867-20.538-.491-.211-.99-.4-1.5-.56a7.084,7.084,0,0,1-4.259,4.846c-5.922,2.091-13.471,1.47-18.5-2.568-1.876.65-3.375,1.223-4.316,1.513-.206.062-.4.127-.595.195A5.6,5.6,0,0,1,521.345,4322.763Z" transform="translate(-420.655 -4226.686)" fill="#fff"/>
          <path id="Trazado_100950" data-name="Trazado 100950" d="M519.658,4347.435l-5.954-1.9A38.655,38.655,0,0,0,519.658,4347.435Z" transform="translate(-421.721 -4204.734)" fill="#fff"/>
          <path id="Trazado_100951" data-name="Trazado 100951" d="M526.018,4347.042a.86.86,0,0,0-.142.014l-.57.115c.276-.034.553-.073.831-.118A1,1,0,0,0,526.018,4347.042Z" transform="translate(-413.203 -4203.629)" fill="#fff"/>
          <path id="Trazado_100952" data-name="Trazado 100952" d="M553.861,4385.5a7.375,7.375,0,0,0-5.466-5.152s.158-.117.441-.293c-2.2.438-4.733.964-6.852,1.2a128.766,128.766,0,0,0-18.662-3.854c-4.781,3.585-7.1,9.126-7.7,15.086l29.572-3.167a19.6,19.6,0,0,1,7.983,5.955h0C555.193,4393.1,555.012,4388.9,553.861,4385.5Z" transform="translate(-420.313 -4181.333)" fill="#d08d83"/>
          <path id="Trazado_100953" data-name="Trazado 100953" d="M544.735,4387.544c-1.221-3.879-2.166-7.029-3.774-9.641a10.946,10.946,0,0,0-6,1.8c-.283.177-.441.293-.441.293a7.376,7.376,0,0,1,5.466,5.152c1.152,3.4,1.332,7.595-.685,9.779h0c2.348,8.852,6.743,7.872,6.743,7.872C548.2,4400.961,545.956,4391.423,544.735,4387.544Z" transform="translate(-406.438 -4180.979)" fill="#4c3e60"/>
          <path id="Trazado_100954" data-name="Trazado 100954" d="M528.176,4377.561c-.234-.028-.466-.052-.7-.079-1.039-.116-2.078-.21-3.109-.28h0s-14.271,4.483-15.181,15.889a2.811,2.811,0,0,1-.177.782l11.468-1.227C521.073,4386.687,523.4,4381.145,528.176,4377.561Z" transform="translate(-425.169 -4181.485)" fill="#c17d76"/>
          <path id="Trazado_100955" data-name="Trazado 100955" d="M478.386,4298.863a9.027,9.027,0,0,0-.711-1.408c-1.431,1.027-3.075,2.2-4.759,3.381.156.652.329,1.3.515,1.94.581,2,1.278,4.105.8,6.135-.413,1.74-1.642,3.177-2.2,4.876-1.183,3.639.909,7.388,1.621,11.188.737,1.347,1.386,2.56,1.885,3.54a3.965,3.965,0,0,1,1.176-1.987,17.688,17.688,0,0,0,2.2-4.2.541.541,0,0,1,1,.008,4.276,4.276,0,0,1-.069,3.514,3.71,3.71,0,0,0-.364,2.4l.092-.051C482.659,4318.739,481.948,4308.213,478.386,4298.863Z" transform="translate(-452.579 -4240.037)" fill="#c48a70"/>
          <path id="Trazado_100956" data-name="Trazado 100956" d="M473.957,4319.8l0,0-.005,0c-.057-.035-.106-.066-.147-.093q-.52-.322-1.075-.705a8.891,8.891,0,0,0,.735,3.018c.494-.557.962-1.14,1.408-1.74A8.724,8.724,0,0,1,473.957,4319.8Z" transform="translate(-451.808 -4224.219)" fill="#c48a70"/>
          <path id="Trazado_100957" data-name="Trazado 100957" d="M484.077,4277.886l-.049-.079c-.031,0-.063.008-.092.013.021.114.047.269.076.458Z" transform="translate(-443.577 -4254.464)" fill="#c48a70"/>
          <path id="Trazado_100958" data-name="Trazado 100958" d="M490.191,4280.841a19.049,19.049,0,0,0-.817,3.055c-.08.427-.147.856-.2,1.273.718-.017,1.481-.013,2.246.018a31.663,31.663,0,0,1,.411-4.3C491.237,4280.894,490.692,4280.878,490.191,4280.841Z" transform="translate(-439.731 -4252.236)" fill="#c48a70"/>
          <path id="Trazado_100959" data-name="Trazado 100959" d="M476.689,4300.474s.087,0,.245,0c1.779-.41,1.828-2.429,2.8-4.091a19.158,19.158,0,0,0,1.977-6.305c.659-3.72.637-7.534,1.3-11.249.72-4.031,3.973-11.289,9.556-8.36-2.343.35-4.551,1.6-6.111,9.9a10.439,10.439,0,0,1,3.8,2.529h0c4.126-1.748,3.892-7.256,3.555-9.75.082.031.166.065.253.1,3.1,1.2,8.4,2.954,12.261,2.753a9.068,9.068,0,0,0,1.124-.125c1.247-6.32-4.509-12.972-13.6-11.259a12.97,12.97,0,0,0-3.488,1.136h0a3.951,3.951,0,0,0-1.457-.187c-9.932-.6-11.756,13.873-12.207,19.833-.2,2.578.177,5.166.1,7.749a24.531,24.531,0,0,1-2.116,9.2,8,8,0,0,1,3.656-1.366A12.027,12.027,0,0,1,476.689,4300.474Z" transform="translate(-450.381 -4264.346)" fill="#c48a70"/>
          <path id="Trazado_100960" data-name="Trazado 100960" d="M481.323,4308.686c-.075-.37-.151-.732-.227-1.083l-.026-.014C481.159,4307.955,481.243,4308.322,481.323,4308.686Z" transform="translate(-445.682 -4232.597)" fill="#af755f"/>
          <path id="Trazado_100961" data-name="Trazado 100961" d="M485.395,4315.771l-.075-.036-.08-.471c-.192-.072-.383-.147-.576-.228l-.881-2.627s.272.082.77.208a81.04,81.04,0,0,0-3.137-8.372h-.446l-2.086-5.125.1-.042c-.461-.854-.921-1.724-1.375-2.654h0c-.7.509-1.54,1.114-2.47,1.784a9.041,9.041,0,0,1,.711,1.407c3.562,9.351,4.273,19.877,1.186,29.333l1.193-.683c4.79-7.661,7.825-9.321,7.846-9.334l0-.014C485.814,4317.818,485.592,4316.774,485.395,4315.771Z" transform="translate(-450.039 -4240.792)" fill="#af755f"/>
          <path id="Trazado_100962" data-name="Trazado 100962" d="M475.38,4320.058a8.391,8.391,0,0,1-.822-.323c-.446.6-.914,1.184-1.408,1.74a5.952,5.952,0,0,0,.907,1.42,6.157,6.157,0,0,0,1.243,1.074c-.047-.541-.082-1.07-.1-1.582A11.629,11.629,0,0,1,475.38,4320.058Z" transform="translate(-451.497 -4223.678)" fill="#af755f"/>
          <path id="Trazado_100963" data-name="Trazado 100963" d="M501.371,4297.763l-.026-.024Z" transform="translate(-430.795 -4239.83)" fill="#fad4c8"/>
          <path id="Trazado_100964" data-name="Trazado 100964" d="M505.965,4304.606c1.226,1.167,2.5,2.379,3.678,3.5h0c2.787-1.772,6.519.391,6.519.391s-.782-3.093-7.886-10.2a56.82,56.82,0,0,0-13.189-9.88c.012.068.024.138.038.205.1.168.2.334.3.5.912,1.559,1.772,3.149,2.6,4.756a9.5,9.5,0,0,1,3.383,6.388c1.117,1.063,2.773,2.639,4.532,4.311Z" transform="translate(-435.389 -4246.673)" fill="#f4c0b5"/>
          <path id="Trazado_100965" data-name="Trazado 100965" d="M488.1,4350.789a13.037,13.037,0,0,0-4.714-7.728l-.418,8.925s-4.027,4.427-5.123,16.222c-.869,9.339,2.279,31.984,3.626,41.013-.295,2.367-1.242,9.586-2.033,11.156-.949,1.883,1.415,4.089,3.521,4.745s24.1.788,24.739.253a2.945,2.945,0,0,0-2.338-4.8c-3.89-.449-13.293-4.037-16.052-9.757l3.449-26.078a45.659,45.659,0,0,1-2.766-5.565C486.457,4370.218,489.865,4360.5,488.1,4350.789Zm-4.062,63.746a2.774,2.774,0,0,1-1.132-1.373,2.459,2.459,0,0,1-.158-.912,2.37,2.37,0,0,1,.2-.885,2.556,2.556,0,0,1,1.077-1.306,4.663,4.663,0,0,0-.551,1.467,2.428,2.428,0,0,0,.1,1.389,3.137,3.137,0,0,0,.8,1.183,6.563,6.563,0,0,0,1.3.9A2.985,2.985,0,0,1,484.036,4414.535Z" transform="translate(-448.16 -4206.551)" fill="#f4c0b5"/>
          <path id="Trazado_100966" data-name="Trazado 100966" d="M491.1,4355.829s-3.621-6.7-6.823-13.257c-.411-.841-.813-1.68-1.2-2.5-.7-.044-1.32-.09-1.849-.132l-.253,5.416a13.033,13.033,0,0,1,4.714,7.728c1.767,9.713-1.641,19.429,1.892,28.385a45.731,45.731,0,0,0,2.766,5.566l1.12-8.465a52.051,52.051,0,0,1-1.339-5.756C488.288,4361.112,491.1,4355.829,491.1,4355.829Z" transform="translate(-445.751 -4208.846)" fill="#eab0a7"/>
          <path id="Trazado_100967" data-name="Trazado 100967" d="M504.83,4395.568a4.871,4.871,0,0,1-.465.608A3.292,3.292,0,0,0,504.83,4395.568Z" transform="translate(-428.578 -4168)" fill="#fad4c8"/>
          <path id="Trazado_100968" data-name="Trazado 100968" d="M501.956,4396.572c.286.022.569.043.843.061a2.632,2.632,0,0,1-.551-.362A2.749,2.749,0,0,1,501.956,4396.572Z" transform="translate(-430.347 -4167.485)" fill="#fad4c8"/>
          <path id="Trazado_100969" data-name="Trazado 100969" d="M498.826,4395.154Z" transform="translate(-432.645 -4168.304)" fill="#ffd4ca"/>
          <path id="Trazado_100970" data-name="Trazado 100970" d="M497.086,4395.526a1.36,1.36,0,0,0,.288.488,1.393,1.393,0,0,0,.2.178,1.474,1.474,0,0,0,.241.13,1.425,1.425,0,0,0,.406.1c0-.051-.005-.1,0-.149a2.214,2.214,0,0,1,.414-1.221l-1.734-.874h0A4.311,4.311,0,0,0,497.086,4395.526Z" transform="translate(-434.061 -4169.018)" fill="#ffd4ca"/>
          <path id="Trazado_100971" data-name="Trazado 100971" d="M498.822,4395.177l.016-.022h0l-.028.013Z" transform="translate(-432.656 -4168.305)" fill="#e2a998"/>
          <path id="Trazado_100972" data-name="Trazado 100972" d="M498,4395.94a1.364,1.364,0,0,0,.219.524,1.527,1.527,0,0,0,.172.2,1.457,1.457,0,0,0,.222.161,1.723,1.723,0,0,0,1.124.21c.028,0,.057-.009.085-.013a1.443,1.443,0,0,1-.035-.411,2.212,2.212,0,0,1,.147-.692l-.473-.327-.012-.011.028-.013-.173-.088-1.3-.9h0A4.338,4.338,0,0,0,498,4395.94Z" transform="translate(-433.292 -4168.724)" fill="#ffd4ca"/>
          <path id="Trazado_100973" data-name="Trazado 100973" d="M499.342,4396.308a1.347,1.347,0,0,0,.21.527,1.393,1.393,0,0,0,.17.208,1.614,1.614,0,0,0,.22.165,1.708,1.708,0,0,0,1.12.223c.066,0,.132-.015.2-.023a1.579,1.579,0,0,1-.244-.458,2.227,2.227,0,0,1-.1-.89l-1.549-1.106h0A4.3,4.3,0,0,0,499.342,4396.308Z" transform="translate(-432.299 -4168.451)" fill="#ffd4ca"/>
          <path id="Trazado_100974" data-name="Trazado 100974" d="M500.307,4395.237Z" transform="translate(-431.557 -4168.243)" fill="#ffd4ca"/>
          <path id="Trazado_100975" data-name="Trazado 100975" d="M500.775,4396.509a1.35,1.35,0,0,0,.385.417,1.439,1.439,0,0,0,.232.133,1.479,1.479,0,0,0,.264.075,1.729,1.729,0,0,0,1.129-.192,3.878,3.878,0,0,0,.373-.21,3.1,3.1,0,0,1-.243-.31,4.2,4.2,0,0,1-.336-.594l-2.272-.589A4.336,4.336,0,0,0,500.775,4396.509Z" transform="translate(-431.557 -4168.243)" fill="#ffd4ca"/>
          <path id="Trazado_100976" data-name="Trazado 100976" d="M504.955,4396.123a1.433,1.433,0,0,1-2.17-.938l-1.354-.281h0a9.275,9.275,0,0,0,1.084,1.416,2.724,2.724,0,0,0,1.346.813,2.081,2.081,0,0,0,.765.012,3.916,3.916,0,0,0,.787-.234,12.619,12.619,0,0,0,1.573-.854h0l-1.422-.3A3.058,3.058,0,0,1,504.955,4396.123Z" transform="translate(-430.732 -4168.489)" fill="#ffd4ca"/>
          <path id="Trazado_100977" data-name="Trazado 100977" d="M508.9,4397.439a3.916,3.916,0,0,1-.787.234,2.05,2.05,0,0,1-.765-.012,2.721,2.721,0,0,1-1.346-.812,9.317,9.317,0,0,1-1.084-1.416h0a3.813,3.813,0,0,0,.323,1.167,4.3,4.3,0,0,0,.336.595,3.168,3.168,0,0,0,.243.311c-.125.078-.248.148-.373.21a1.732,1.732,0,0,1-1.129.192,1.109,1.109,0,0,1-.5-.207,1.358,1.358,0,0,1-.385-.417,4.333,4.333,0,0,1-.468-1.271h0a2.28,2.28,0,0,0-.033,1.5,1.569,1.569,0,0,0,.245.458c-.066.008-.132.019-.2.023a1.714,1.714,0,0,1-1.12-.223,1.65,1.65,0,0,1-.22-.165,1.392,1.392,0,0,1-.17-.208,1.345,1.345,0,0,1-.21-.527,4.3,4.3,0,0,1,.021-1.354h0a2.181,2.181,0,0,0-.425.7,2.212,2.212,0,0,0-.147.692,1.437,1.437,0,0,0,.035.411c-.028,0-.057.011-.085.012a1.72,1.72,0,0,1-1.124-.21,1.493,1.493,0,0,1-.222-.161,1.6,1.6,0,0,1-.172-.205,1.358,1.358,0,0,1-.219-.523,4.332,4.332,0,0,1,0-1.356h0a1.75,1.75,0,0,0-.139.178,2.213,2.213,0,0,0-.414,1.221c0,.049,0,.1,0,.149a1.424,1.424,0,0,1-.406-.1,1.474,1.474,0,0,1-.241-.13,1.393,1.393,0,0,1-.2-.178,1.36,1.36,0,0,1-.288-.488,4.311,4.311,0,0,1-.189-1.344h0a2.282,2.282,0,0,0-.2.4,2.217,2.217,0,0,0-.146,1.061,1.632,1.632,0,0,0,.987,1.322,1.765,1.765,0,0,0,.841.144l.042-.005a1.543,1.543,0,0,0,.593.617,1.718,1.718,0,0,0,.813.26,2.056,2.056,0,0,0,.8-.109c.054-.02.1-.044.156-.066a1.508,1.508,0,0,0,.545.561,1.762,1.762,0,0,0,.81.27,2.04,2.04,0,0,0,.8-.1,2.5,2.5,0,0,0,.458-.2,1.477,1.477,0,0,0,.624.26,1.715,1.715,0,0,0,.853-.037,2.043,2.043,0,0,0,.715-.381c.029-.022.054-.051.082-.075a2.756,2.756,0,0,0,.291-.3,2.612,2.612,0,0,0,.551.362,2.218,2.218,0,0,0,.532.184,2.344,2.344,0,0,0,1.044-.023,3.039,3.039,0,0,0,.909-.4,3.944,3.944,0,0,0,.85-.731,4.946,4.946,0,0,0,.465-.609h0A12.616,12.616,0,0,1,508.9,4397.439Z" transform="translate(-434.215 -4169.018)" fill="#e2a998"/>
          <path id="Trazado_100978" data-name="Trazado 100978" d="M504.464,4397.113a3.106,3.106,0,0,0,.609-.363,2.731,2.731,0,0,0,1.037-1.878,1.161,1.161,0,0,0-1.543-1.246l-1.7.616a1.16,1.16,0,0,0-.739,1.332,3.975,3.975,0,0,0,.17.6A1.433,1.433,0,0,0,504.464,4397.113Z" transform="translate(-430.241 -4169.478)" fill="#eab3a2"/>
          <path id="Trazado_100979" data-name="Trazado 100979" d="M487.949,4342.882a20.419,20.419,0,0,1-5.069-1.425c3.2,6.559,6.822,13.257,6.822,13.257s-2.813,5.282-.973,16.983a52.066,52.066,0,0,0,1.339,5.756c3.094,10.959,9.974,27.647,12.668,34.036-.036.091-.073.185-.111.292a3.2,3.2,0,0,0,1.4,3.614c.486,3.58,1.9,13.637,2.962,17.9a2.3,2.3,0,0,1,.2-.4h0l1.734.874a1.808,1.808,0,0,1,.139-.178h0l1.3.9.173.088h0l-.016.024.473.327a2.184,2.184,0,0,1,.425-.7h0l1.549,1.106a2.217,2.217,0,0,1,.137-.614h0l2.272.588a3.8,3.8,0,0,1-.323-1.168h0l1.354.281a3.971,3.971,0,0,1-.17-.6,1.161,1.161,0,0,1,.739-1.333l1.7-.616a1.161,1.161,0,0,1,1.544,1.246,2.728,2.728,0,0,1-1.037,1.877l1.422.295a3.306,3.306,0,0,0,.415-1.148l.182-1.115a5.732,5.732,0,0,0-.72-3.838l-8.959-15.164a4.718,4.718,0,0,0-1.349-5.2l0,0-.045-.377c-.442-3.483-4.095-30.311-13.836-50.553,5.088,3.516,7.929.388,7.929.388l.028.235-.028-.235c.7-2.065,1.911-7.067-.905-11.368l-.154-3.925A45.52,45.52,0,0,1,487.949,4342.882Z" transform="translate(-444.353 -4207.729)" fill="#fad4c8"/>
          <path id="Trazado_100980" data-name="Trazado 100980" d="M482.187,4340.681c.388.823.791,1.662,1.2,2.5a20.423,20.423,0,0,0,5.069,1.425,45.559,45.559,0,0,0,15.213.106l-.222-5.61C496.663,4341.193,487.334,4341,482.187,4340.681Z" transform="translate(-444.861 -4209.457)" fill="#f4c0b5"/>
          <path id="Trazado_100981" data-name="Trazado 100981" d="M482.23,4385.733a3.128,3.128,0,0,1-.8-1.183,2.428,2.428,0,0,1-.1-1.389,4.66,4.66,0,0,1,.551-1.468A2.557,2.557,0,0,0,480.8,4383a2.372,2.372,0,0,0-.2.885,2.455,2.455,0,0,0,.158.912,2.777,2.777,0,0,0,1.132,1.374,2.988,2.988,0,0,0,1.628.465A6.545,6.545,0,0,1,482.23,4385.733Z" transform="translate(-446.022 -4178.187)" fill="#e2a998"/>
          <path id="Trazado_100982" data-name="Trazado 100982" d="M498.573,4285.977a4.438,4.438,0,0,0-1.713.728,4.929,4.929,0,0,0-1.287,1.351l-.064.1a1.74,1.74,0,0,1-.305.361,2.193,2.193,0,0,1-.5.334,3.247,3.247,0,0,1-.525.206,2.891,2.891,0,0,1-.572.106,2.527,2.527,0,0,1-1.15-.193,3.358,3.358,0,0,1-.945-.614,4.11,4.11,0,0,0-1.587-.9,4.214,4.214,0,0,0-.907-.174,7.528,7.528,0,0,0-.956,0c-1.339.05-2.676.114-4.015.148-1.991.064-3.982.114-5.976.129l.121.2.385.7a29.31,29.31,0,0,1,1.282,2.919c.39.987.721,2,1.048,3s.609,2.027.89,3.046q.32,1.208.609,2.425c9.436-1.035,14.616,5.23,16.832,8.965l.465-.069c.428-1.46.48-3.829-.336-7.654a19.454,19.454,0,0,0,2.832,6.013c.187-3.585,1.517-8.613,6.987-11.388q-1.08-1.8-2.138-3.609l-2.922-5.02c-.239-.421-.5-.827-.742-1.248-.153-.271-.316-.536-.48-.8Q500.742,4285.528,498.573,4285.977Z" transform="translate(-447.882 -4249.148)" fill="#fad4c8"/>
          <path id="Trazado_100983" data-name="Trazado 100983" d="M497.832,4285.755c.052-.417.12-.846.2-1.272a14.523,14.523,0,0,1-8.919-4.441c.047,3.12-.548,7.123-3.616,8.625h0a5.734,5.734,0,0,1-3.181,1.03,14.409,14.409,0,0,1-4.93-.02,6.323,6.323,0,0,1,.893,1.07c.062.093.121.188.179.281,2.022-.2,4.044-.364,6.068-.513,1.335-.105,2.672-.185,4.008-.275a6.671,6.671,0,0,1,1.051-.017,4.948,4.948,0,0,1,2.947,1.246,2.083,2.083,0,0,0,1.535.63,2.14,2.14,0,0,0,.414-.074,2.589,2.589,0,0,0,.409-.155,1.42,1.42,0,0,0,.338-.221,1.134,1.134,0,0,0,.128-.132c.019-.025.033-.046.054-.075l.076-.112a5.646,5.646,0,0,1,1.507-1.5,4.9,4.9,0,0,1,.95-.494,5.138,5.138,0,0,1,1.03-.267q2.12-.347,4.244-.665l-.078-.124c-.127-.208-.246-.42-.38-.619s-.269-.4-.4-.6a6.4,6.4,0,0,0-.413-.6l-.434-.588h0c-.473-.048-.954-.08-1.434-.1C499.313,4285.742,498.55,4285.739,497.832,4285.755Z" transform="translate(-448.388 -4252.822)" fill="#fad4c8"/>
          <path id="Trazado_100984" data-name="Trazado 100984" d="M488.686,4309.826a17.271,17.271,0,0,0-.387,1.836l.917.042a27.141,27.141,0,0,0,6.04-.795C494.15,4310.737,490.9,4310.227,488.686,4309.826Z" transform="translate(-440.374 -4230.954)" fill="#fad4c8"/>
          <path id="Trazado_100985" data-name="Trazado 100985" d="M490.622,4309.777a28.476,28.476,0,0,1-9.537-2.181q.115.527.227,1.083c.149.689.281,1.374.39,2.051l0-.013,0,.013h0a28.792,28.792,0,0,0,8.647,2.392,20.6,20.6,0,0,1,.628-2.92C490.864,4310.072,490.745,4309.928,490.622,4309.777Z" transform="translate(-445.671 -4232.591)" fill="#fad4c8"/>
          <path id="Trazado_100986" data-name="Trazado 100986" d="M477.934,4299.081l.016-.007c-.832-1.652-1.387-2.641-1.391-2.647C477.013,4297.356,477.473,4298.227,477.934,4299.081Z" transform="translate(-448.994 -4240.792)" fill="#fad4c8"/>
          <path id="Trazado_100987" data-name="Trazado 100987" d="M486.273,4311.216c.636.081,1.308.157,2.008.219-.217-.326-.347-.525-.347-.525s1.15-1.035,2.837.675l.4.011.482-.03c-.447-1.08-.766-1.91-.766-1.91s1.533-.88,2.912,1.682l.047.089.144-.009c-.567-1.348-1.006-2.483-1.006-2.483s1.36-.778,2.667,1.268a.446.446,0,0,1,.333-.018l2.31.414a8.713,8.713,0,0,0,2.693-.314,4.279,4.279,0,0,1,1.654-.124,24.437,24.437,0,0,0,5.685-2.58c-.059-2.537-.156-5.186-.295-7.844a9.541,9.541,0,0,1-7.169.734l-2.362.635-1.33,1.238-.144-.138a12.315,12.315,0,0,1-14.675-.39h-2.1a61.17,61.17,0,0,0,.831,8.443A47.906,47.906,0,0,0,486.273,4311.216Z" transform="translate(-446.284 -4238.362)" fill="#fad4c8"/>
          <path id="Trazado_100988" data-name="Trazado 100988" d="M492.362,4284.457c.335.36.661.727.964,1.111.088.107.173.218.26.327q1.558-.226,3.123-.426c-.971.241-1.942.466-2.915.688.444.576.869,1.164,1.285,1.759,1,1.44,1.935,2.926,2.83,4.431-.014-.068-.026-.138-.038-.206a56.829,56.829,0,0,1,13.189,9.879c7.1,7.105,7.886,10.2,7.886,10.2s-3.732-2.163-6.519-.391h0c-4.493,4.38-10.189,11.4-12.145,13.67,0-.629,0-1.274-.005-1.932-.042.019-.31.12-1.873.647.245.227.449.439.609.613a5.049,5.049,0,0,1,1.15,2.58l.054-.031a36.629,36.629,0,0,1,3.283,10.833l1.524,4.977c.595-1.762,1.288-3.9,1.54-4.979.38-1.636-.453-7.447-.791-9.648,4.223-2.563,18.131-11.2,18.7-14.179,1.268-6.044-5.661-10.81-13.771-20.875-8.614-10.692-16.147-10.362-19.408-10.058A11.027,11.027,0,0,1,492.362,4284.457Z" transform="translate(-438.173 -4250.397)" fill="#fad4c8"/>
          <path id="Trazado_100989" data-name="Trazado 100989" d="M484.013,4336.126c-2.613-1.308-5.562-2.711-7.464-4.955,2.756,8.111,5.983,15.02,5.983,15.02s.72.083,1.946.184c.529.042,1.15.088,1.849.132,5.147.321,14.476.512,21.262-1.577a21.563,21.563,0,0,0,2.437-.905s.463-1.458,1.1-3.93l.045-.167A45.253,45.253,0,0,1,484.013,4336.126Z" transform="translate(-449.001 -4215.282)" fill="#c969b2"/>
          <path id="Trazado_100990" data-name="Trazado 100990" d="M485.64,4352.108a45.257,45.257,0,0,0,27.161,3.8c.64-2.48,1.452-5.94,2.161-9.96l-.057-.059c-6.238-5.125-6.947-19.638-7.646-28.889,0,0,.047-5.113-1.361-5.725l-.387-.061a27.113,27.113,0,0,1-6.04.795h.014s1.845,9.777-.4,13.609-8.234,6.374-6.233,16.26l.359,1.019.444,1.259L490.632,4346l-.128.081-1.334-1.921.468-.291a17.325,17.325,0,0,1-1.38-4.8,13.023,13.023,0,0,1,.446-5.614,13.413,13.413,0,0,1,2.825-4.742c1.814-2.2,3.689-4.483,3.515-11.969a30.035,30.035,0,0,1,.264-4.952,28.775,28.775,0,0,1-8.647-2.392h0c-.021.013-3.056,1.674-7.846,9.333l1.538-.879c.147-.075,4.075-1.808,4.238-1.828l3.122-.382,0-.008,2.313-.283,0,.01a.433.433,0,0,1,.418.649,3.091,3.091,0,0,1-1,1c.376-.047.754-.095,1.134-.129.709-.066,1.422-.124,2.138-.121l.2-.023-.005.028c.125,0,.251,0,.376.011l-.009,0a.429.429,0,0,1,.319.645,3.285,3.285,0,0,1-1.533,1.287l.316-.016.031,0a1.3,1.3,0,0,1,.446-.055.635.635,0,0,1,.071.017.423.423,0,0,1,.243.061,1.559,1.559,0,0,1-.314,2.957c-1.674.425-3.512,1.563-10.286,5.929-6.2,4-7.7.677-7.9.087-.052-.016-.1-.035-.153-.053a11.629,11.629,0,0,0-.175,2.33c.014.511.049,1.04.1,1.581a70.982,70.982,0,0,0,3.744,15.6C480.079,4349.4,483.027,4350.8,485.64,4352.108Z" transform="translate(-450.628 -4231.264)" fill="#d67fbe"/>
          <path id="Trazado_100991" data-name="Trazado 100991" d="M484.707,4328.146c.033.086.068.169.1.251l.43-.266A3.057,3.057,0,0,1,484.707,4328.146Z" transform="translate(-443.011 -4217.513)" fill="#d67fbe"/>
          <path id="Trazado_100992" data-name="Trazado 100992" d="M480.423,4314.858c-.087.042-.17.083-.252.127Z" transform="translate(-446.342 -4227.26)" fill="#d67fbe"/>
          <path id="Trazado_100993" data-name="Trazado 100993" d="M496.546,4309.328l.043-.064,3.156,10.3a36.624,36.624,0,0,0-3.283-10.834l-.054.031C496.456,4308.948,496.5,4309.135,496.546,4309.328Z" transform="translate(-434.419 -4231.756)" fill="#d67fbe"/>
          <path id="Trazado_100994" data-name="Trazado 100994" d="M476.559,4296.813c0,.005.558.994,1.391,2.647l3.751-1.622h0c-.012-.3-.01-.6.005-.914a3.955,3.955,0,0,0-5.147-.113Z" transform="translate(-448.994 -4241.178)" fill="#f4c0b5"/>
          <path id="Trazado_100995" data-name="Trazado 100995" d="M482.177,4309.378a61.159,61.159,0,0,1-.831-8.442h-2.589a81.09,81.09,0,0,1,3.137,8.372C481.981,4309.33,482.076,4309.354,482.177,4309.378Z" transform="translate(-447.38 -4237.481)" fill="#f4c0b5"/>
          <path id="Trazado_100996" data-name="Trazado 100996" d="M463.243,4302.759c4.871,7.1,17.951,21.3,18.485,21.874l0-.008c-.26-.478-3.949-7.2-7.211-13.026-2.2-3.923-4.2-7.44-4.832-8.376C469.687,4303.222,468,4304.77,463.243,4302.759Z" transform="translate(-458.771 -4236.145)" fill="#f4c0b5"/>
          <path id="Trazado_100997" data-name="Trazado 100997" d="M491.4,4300.527l-.038.011h0a14.493,14.493,0,0,1-1.436,1.088l.144.139Z" transform="translate(-439.181 -4237.781)" fill="#f4c0b5"/>
          <path id="Trazado_100998" data-name="Trazado 100998" d="M490.688,4301.954l2.473-.374c-.005-.4,0-.821.023-1.268a19.447,19.447,0,0,1-2.832-6.012C491.169,4298.124,491.117,4300.493,490.688,4301.954Z" transform="translate(-438.866 -4242.354)" fill="#f4c0b5"/>
          <path id="Trazado_100999" data-name="Trazado 100999" d="M495.74,4284.569q-1.566.2-3.123.427c.069.087.139.173.208.262C493.8,4285.035,494.769,4284.811,495.74,4284.569Z" transform="translate(-437.204 -4249.498)" fill="#f4c0b5"/>
          <path id="Trazado_101000" data-name="Trazado 101000" d="M484.1,4287.56c1.339-.034,2.676-.1,4.015-.148a7.348,7.348,0,0,1,.956,0,4.185,4.185,0,0,1,.907.174,4.109,4.109,0,0,1,1.587.9,3.349,3.349,0,0,0,.945.615,2.52,2.52,0,0,0,1.15.193,2.821,2.821,0,0,0,.572-.106,3.2,3.2,0,0,0,.525-.207,2.159,2.159,0,0,0,.5-.333,1.493,1.493,0,0,0,.215-.232,1.472,1.472,0,0,0,.09-.129l.064-.1a4.939,4.939,0,0,1,1.287-1.352,4.453,4.453,0,0,1,1.713-.728q2.169-.447,4.33-.932l-.194-.313q-2.125.314-4.244.664a5.171,5.171,0,0,0-1.03.267,4.98,4.98,0,0,0-.95.494,5.656,5.656,0,0,0-1.507,1.5l-.076.113c-.021.028-.035.049-.054.074a1.148,1.148,0,0,1-.128.133,1.433,1.433,0,0,1-.338.22,2.588,2.588,0,0,1-.409.155,2.217,2.217,0,0,1-.414.074,2.082,2.082,0,0,1-1.535-.629,4.962,4.962,0,0,0-2.947-1.247,6.852,6.852,0,0,0-1.051.017c-1.335.091-2.673.171-4.008.276-2.024.149-4.046.314-6.068.513.042.068.083.134.123.2C480.12,4287.675,482.11,4287.625,484.1,4287.56Z" transform="translate(-447.934 -4249.282)" fill="#f4c0b5"/>
          <path id="Trazado_101001" data-name="Trazado 101001" d="M476.884,4286.567q.838,0,1.675,0c-.024-.057-.05-.111-.076-.167C477.951,4286.453,477.416,4286.505,476.884,4286.567Z" transform="translate(-448.755 -4248.155)" fill="#f4c0b5"/>
          <path id="Trazado_101002" data-name="Trazado 101002" d="M502.01,4283.992a6.316,6.316,0,0,1,.413.6c.13.205.265.4.4.6s.253.412.38.619l.078.125.194.314c.165.263.328.527.48.8.241.419.5.826.742,1.247l2.922,5.02q1.056,1.81,2.138,3.608c-5.47,2.774-6.8,7.8-6.987,11.387-.023.447-.028.872-.023,1.268l-2.473.374-.465.07c-2.216-3.735-7.4-10-16.832-8.966q-.289-1.217-.609-2.424c-.281-1.019-.572-2.036-.89-3.046s-.657-2.015-1.048-3a29.313,29.313,0,0,0-1.282-2.92l-.385-.7-.121-.2c-.04-.068-.081-.134-.123-.2-.057-.093-.116-.188-.179-.281a6.322,6.322,0,0,0-.893-1.07l-.061-.011a8.023,8.023,0,0,1,.793,1.4c.026.056.052.109.076.167.158.361.3.729.439,1.1.371.977.682,1.978.992,2.977s.605,2,.876,3.019c.286,1.008.569,2.019.832,3.035.276.983.532,1.974.794,2.962a12.433,12.433,0,0,0-1.025,4.246c-.016.309-.017.614-.005.914h0l-3.751,1.622-.016.007-.1.041,2.086,5.125h5.137a12.312,12.312,0,0,0,14.675.389,14.419,14.419,0,0,0,1.436-1.087h0l.038-.011,2.362-.635a9.545,9.545,0,0,0,7.169-.734,8.234,8.234,0,0,0,4.27-7.778,9.494,9.494,0,0,0-3.383-6.387c-.826-1.608-1.686-3.2-2.6-4.757-.1-.17-.2-.337-.3-.5-.895-1.505-1.826-2.991-2.83-4.432-.416-.595-.841-1.184-1.285-1.759-.069-.088-.139-.175-.208-.262-.087-.109-.172-.221-.26-.328-.3-.384-.63-.751-.964-1.11a11.034,11.034,0,0,0-1.065-1.009Z" transform="translate(-448.452 -4250.354)" fill="#64496d"/>
          <path id="Trazado_101003" data-name="Trazado 101003" d="M484.27,4281.648a14.517,14.517,0,0,0,8.919,4.441,19.027,19.027,0,0,1,.817-3.054,16.564,16.564,0,0,1-5.874-1.683,8.553,8.553,0,0,1-4.087-3.5l-.064.392A25,25,0,0,1,484.27,4281.648Z" transform="translate(-443.545 -4254.43)" fill="#f4c0b5"/>
          <path id="Trazado_101004" data-name="Trazado 101004" d="M489.773,4269.522c-.087-.032-.172-.065-.253-.1.336,2.495.571,8-3.555,9.75h0a10.432,10.432,0,0,0-3.8-2.529,1.19,1.19,0,0,0-1.415.512c-.525.889-.147,2.39.725,3.759a7.927,7.927,0,0,0,2.078,2.209,4.118,4.118,0,0,0,2.9.846l.092-.013.049.081a8.552,8.552,0,0,0,4.087,3.5,16.573,16.573,0,0,0,5.874,1.683c.5.037,1.046.052,1.641.044a29.59,29.59,0,0,0,3.233-.253,66.824,66.824,0,0,0,.973-11.574c-.059.009-.118.018-.177.023s-.106.007-.158.008a.65.65,0,0,1,.057.259.625.625,0,1,1-1.25,0,.664.664,0,0,1,.014-.132,2.542,2.542,0,0,0-.76.366,1.229,1.229,0,0,1,.557-.905,1.854,1.854,0,0,1,1.049-.327c.085,0,.192,0,.26.006l.222.017c.057.005.115.007.172.011-.012-.487-.033-.971-.062-1.454-.1,0-.193-.007-.277-.014a1.771,1.771,0,0,1-.5-.12,1.856,1.856,0,0,1-.437-.273,4.235,4.235,0,0,1-.524-.531,1.119,1.119,0,0,1,.7-.442,1.322,1.322,0,0,1,.742.081,1.2,1.2,0,0,1,.2.1c-.021-.219-.043-.438-.068-.652C495.952,4274.532,490.888,4270.5,489.773,4269.522Zm2.487,4.87a3.518,3.518,0,0,1,1.569-.645,3.966,3.966,0,0,1,1.641.083,3.139,3.139,0,0,1,1.46.821,8.653,8.653,0,0,1-1.5.477c-.463.106-.9.185-1.335.254s-.853.126-1.285.192a8.414,8.414,0,0,0-1.438.317,1.387,1.387,0,0,1,.08-.444c.023-.072.056-.141.085-.213s.074-.128.114-.194A2.591,2.591,0,0,1,492.26,4274.392Zm3.309,3.615a.692.692,0,1,1-1.384,0,.679.679,0,0,1,.026-.179l-.045,0-.26.04c-.1.009-.2.031-.309.034a2.692,2.692,0,0,1-.631-.023,1.909,1.909,0,0,1-.624-.2.869.869,0,0,1-.449-.475,1.279,1.279,0,0,0,.555.048,4.778,4.778,0,0,0,.517-.08c.17-.033.34-.075.512-.115l.258-.063c.08-.016.206-.038.307-.054a2.228,2.228,0,0,1,1.306.188,1.479,1.479,0,0,1,.831.967,3.112,3.112,0,0,0-.623-.225A.642.642,0,0,1,495.569,4278.007Zm-13.69.451a2.934,2.934,0,0,1,2.891.645,3.342,3.342,0,0,1,.893,1.264,3.035,3.035,0,0,1,.212,1.49c-.295-.416-.543-.8-.817-1.149a6.9,6.9,0,0,0-.871-.942,5.806,5.806,0,0,0-1.039-.732A10.415,10.415,0,0,0,481.879,4278.458Zm18.752,6.464s.456.3.206.708a2.99,2.99,0,0,1-2.685.5,5.937,5.937,0,0,1-2.554-1.448,16.8,16.8,0,0,0,1.861-.447c.725-.24,1.772-1.063,2.43-.534.626-.4,1.061.367,1.061.367a.174.174,0,0,1,.022.04.577.577,0,0,1-.364.81Zm-.271-5.1a8.461,8.461,0,0,0,.484.967c.043.08.1.154.142.231l.073.117a.692.692,0,0,1,.127.316.6.6,0,0,1-.09.377,1.389,1.389,0,0,1-.121.155,2.04,2.04,0,0,1-1.483.686,3.709,3.709,0,0,1-1.191-.177,8.248,8.248,0,0,0,1.115-.25,1.908,1.908,0,0,0,.836-.531,1.362,1.362,0,0,0,.121-.16l-.047-.063c-.063-.082-.128-.161-.186-.247a6.008,6.008,0,0,1-.591-1.077,6.48,6.48,0,0,1-.51-2.367,5.657,5.657,0,0,1,.42-2.341,16.775,16.775,0,0,0,.269,2.267A10.622,10.622,0,0,0,500.36,4279.819Z" transform="translate(-446.093 -4260.617)" fill="#fad4c8"/>
          <path id="Trazado_101005" data-name="Trazado 101005" d="M492,4276.358c0-.006-.005.005-.012.027Z" transform="translate(-437.662 -4255.529)" fill="#fad4c8"/>
          <path id="Trazado_101006" data-name="Trazado 101006" d="M489.21,4278.225a5.937,5.937,0,0,0,2.555,1.448,2.988,2.988,0,0,0,2.685-.5c.25-.406-.206-.708-.206-.708h-.023l-.033.011A17.426,17.426,0,0,1,489.21,4278.225Z" transform="translate(-439.705 -4254.156)" fill="#894d66"/>
          <path id="Trazado_101007" data-name="Trazado 101007" d="M494.584,4278.141a.16.16,0,0,0-.022-.04s-.435-.765-1.061-.368c-.657-.528-1.7.295-2.43.536a17.117,17.117,0,0,1-1.861.446,17.426,17.426,0,0,0,4.977.247l.033-.012A.577.577,0,0,0,494.584,4278.141Z" transform="translate(-439.705 -4254.646)" fill="#995971"/>
          <path id="Trazado_101008" data-name="Trazado 101008" d="M487.05,4273.23c-.04.065-.08.128-.114.193s-.062.141-.085.214a1.383,1.383,0,0,0-.08.443,8.5,8.5,0,0,1,1.438-.316c.432-.066.855-.118,1.285-.192s.872-.149,1.335-.254a8.737,8.737,0,0,0,1.5-.477,3.153,3.153,0,0,0-1.46-.822,3.974,3.974,0,0,0-1.641-.082,3.525,3.525,0,0,0-1.569.645A2.581,2.581,0,0,0,487.05,4273.23Z" transform="translate(-441.496 -4258.808)" fill="#c48a70"/>
          <path id="Trazado_101009" data-name="Trazado 101009" d="M492.791,4272.033a1.119,1.119,0,0,0-.7.442,4.129,4.129,0,0,0,.524.531,1.834,1.834,0,0,0,.437.273,1.737,1.737,0,0,0,.5.121c.085.007.177.012.277.014a4.493,4.493,0,0,0,.47-.015,1.107,1.107,0,0,0-.179-.812,1.289,1.289,0,0,0-.385-.37,1.2,1.2,0,0,0-.2-.1A1.318,1.318,0,0,0,492.791,4272.033Z" transform="translate(-437.593 -4258.718)" fill="#c48a70"/>
          <path id="Trazado_101010" data-name="Trazado 101010" d="M491.926,4272.9a5.659,5.659,0,0,0-.42,2.342,6.478,6.478,0,0,0,.51,2.367,5.982,5.982,0,0,0,.591,1.077c.057.086.123.165.186.247l.047.063a1.416,1.416,0,0,1-.121.16,1.907,1.907,0,0,1-.836.531,8.172,8.172,0,0,1-1.115.25,3.709,3.709,0,0,0,1.191.176,2.032,2.032,0,0,0,1.483-.685,1.424,1.424,0,0,0,.121-.155.6.6,0,0,0,.09-.377.687.687,0,0,0-.127-.315l-.073-.117c-.047-.078-.1-.151-.142-.231a8.466,8.466,0,0,1-.484-.967,10.631,10.631,0,0,1-.633-2.1A16.781,16.781,0,0,1,491.926,4272.9Zm.976,5.992-.012.026C492.9,4278.9,492.9,4278.889,492.9,4278.895Z" transform="translate(-438.561 -4258.065)" fill="#efb9a8"/>
          <path id="Trazado_101011" data-name="Trazado 101011" d="M475.975,4291.884c1.753.011,12.316-.473,10.907-13.622a7.938,7.938,0,0,1-2.078-2.21C483.42,4285.039,482.315,4290.418,475.975,4291.884Z" transform="translate(-449.422 -4255.752)" fill="#c48a70"/>
          <path id="Trazado_101012" data-name="Trazado 101012" d="M483.408,4285.015a12.014,12.014,0,0,1-3.181,1.03A5.726,5.726,0,0,0,483.408,4285.015Z" transform="translate(-446.3 -4249.17)" fill="#c48a70"/>
          <path id="Trazado_101013" data-name="Trazado 101013" d="M485.851,4269.481c1.115.973,6.179,5.009,12.389,3.942h0c-.05-.47-.092-.862-.128-1.189C494.252,4272.435,488.952,4270.677,485.851,4269.481Z" transform="translate(-442.171 -4260.576)" fill="#f4c0b5"/>
          <path id="Trazado_101014" data-name="Trazado 101014" d="M483.452,4298.915a12.014,12.014,0,0,0,3.181-1.03h0c3.068-1.5,3.663-5.505,3.616-8.625a25.034,25.034,0,0,0-.29-3.4c-.03-.188-.056-.344-.076-.458a4.118,4.118,0,0,1-2.9-.846c1.41,13.149-9.153,13.632-10.906,13.622,6.34-1.466,7.445-6.845,8.829-15.832-.872-1.37-1.25-2.869-.725-3.759a1.188,1.188,0,0,1,1.415-.512c1.561-8.305,3.769-9.551,6.111-9.9-5.582-2.927-8.836,4.331-9.556,8.361-.664,3.714-.642,7.528-1.3,11.248a19.159,19.159,0,0,1-1.977,6.305c-.969,1.661-1.018,3.68-2.8,4.091l-.245,0a12.024,12.024,0,0,0,1.637.51c.3.073.629.144.99.208l.061.011A14.41,14.41,0,0,0,483.452,4298.915Z" transform="translate(-449.526 -4262.041)" fill="#af755f"/>
          <path id="Trazado_101015" data-name="Trazado 101015" d="M490.614,4350.935c9.741,20.241,13.393,47.07,13.836,50.552.031.249.047.381.047.381l-5.926-50.31-.028-.235S495.7,4354.451,490.614,4350.935Z" transform="translate(-438.674 -4200.772)" fill="#f4c0b5"/>
          <path id="Trazado_101016" data-name="Trazado 101016" d="M484.478,4276.947c.274.349.522.734.817,1.149a3.037,3.037,0,0,0-.212-1.49,3.347,3.347,0,0,0-.893-1.263,2.935,2.935,0,0,0-2.891-.645,10.5,10.5,0,0,1,1.269.574,5.833,5.833,0,0,1,1.039.733A6.867,6.867,0,0,1,484.478,4276.947Z" transform="translate(-445.513 -4256.857)" fill="#efb9a8"/>
          <path id="Trazado_101017" data-name="Trazado 101017" d="M485.054,4314.75a.166.166,0,0,1,.031,0c-.024-.006-.045-.015-.071-.019l0,.021Z" transform="translate(-442.788 -4227.352)" fill="#c969b2"/>
          <path id="Trazado_101018" data-name="Trazado 101018" d="M484.756,4314.79l.446-.056A1.31,1.31,0,0,0,484.756,4314.79Z" transform="translate(-442.975 -4227.354)" fill="#c969b2"/>
          <path id="Trazado_101019" data-name="Trazado 101019" d="M493.181,4315.364a4.323,4.323,0,0,1-1.779,1.628s-4.308.987-5.419,2.155a39.128,39.128,0,0,1-4.572,3.439,7.341,7.341,0,0,1-6.887,1.164c.208.589,1.7,3.913,7.9-.087,6.774-4.366,8.612-5.5,10.286-5.929a1.56,1.56,0,0,0,.314-2.958A.428.428,0,0,1,493.181,4315.364Z" transform="translate(-450.488 -4227.319)" fill="#c969b2"/>
          <path id="Trazado_101020" data-name="Trazado 101020" d="M485.395,4315.031c-.423.058-.836.132-1.252.207s-.829.173-1.242.289-.81.262-1.2.414a5.975,5.975,0,0,0-1.16.55,12.475,12.475,0,0,0-1.03.743c.388-.166.765-.362,1.145-.525a8.082,8.082,0,0,1,1.169-.4,22.639,22.639,0,0,1,2.418-.58c.822-.167,1.634-.3,2.464-.438l.137-.023a.951.951,0,0,0,1.12.531,1.317,1.317,0,0,0,1.084-1l.128-.035-.121,0,0-.016,0-.021-.446.057-.031,0-.316.015c-.536.026-1.072.054-1.609.1C486.234,4314.933,485.816,4314.98,485.395,4315.031Z" transform="translate(-446.829 -4227.352)" fill="#e0a696"/>
          <path id="Trazado_101021" data-name="Trazado 101021" d="M481.617,4314.8a7.972,7.972,0,0,0-1.266.532,7.3,7.3,0,0,0-1.082.838c.4-.212.787-.453,1.191-.618a11.418,11.418,0,0,1,1.273-.379c.222-.062.43-.113.645-.161s.434-.092.652-.133c.439-.081.879-.165,1.321-.238l2.652-.473.061-.013a.952.952,0,0,0,1.127.548,1.322,1.322,0,0,0,1.073-.956l.387-.072.009,0c-.125-.007-.251-.007-.376-.011l.005-.028-.2.024c-.716,0-1.429.054-2.138.12-.38.035-.758.081-1.134.129q-.778.1-1.55.237A15.725,15.725,0,0,0,481.617,4314.8Z" transform="translate(-447.004 -4228.156)" fill="#e0a696"/>
          <path id="Trazado_101022" data-name="Trazado 101022" d="M482.8,4344.412l.005,0h0a8.9,8.9,0,0,0,1.734.8c.05.019.1.038.153.053a7.342,7.342,0,0,0,6.887-1.164,39.131,39.131,0,0,0,4.572-3.439c1.112-1.168,5.419-2.155,5.419-2.155a4.319,4.319,0,0,0,1.779-1.628.428.428,0,0,0-.153-.587.419.419,0,0,0-.243-.06.133.133,0,0,0-.031,0l-.043,0,0,.016.121-.006c-.042.013-.085.023-.128.035a1.316,1.316,0,0,1-1.084,1,.951.951,0,0,1-1.12-.531l-.137.023c-.831.136-1.642.271-2.464.438a22.291,22.291,0,0,0-2.418.58,8.2,8.2,0,0,0-1.169.395c-.38.163-.756.36-1.145.526a12.471,12.471,0,0,1,1.03-.743,5.974,5.974,0,0,1,1.16-.55c.394-.151.791-.289,1.2-.413s.827-.205,1.242-.29.829-.148,1.252-.206.839-.1,1.259-.126c.538-.044,1.073-.072,1.609-.1a3.283,3.283,0,0,0,1.533-1.286.43.43,0,0,0-.319-.646l-.387.072a1.321,1.321,0,0,1-1.073.956.952.952,0,0,1-1.127-.548l-.061.012-2.652.474c-.442.072-.883.156-1.321.237-.219.041-.437.083-.652.133s-.423.1-.645.161a11.422,11.422,0,0,0-1.273.379c-.4.166-.791.406-1.191.618a7.166,7.166,0,0,1,1.082-.837,7.978,7.978,0,0,1,1.266-.533,15.72,15.72,0,0,1,2.648-.653q.773-.134,1.55-.238a3.1,3.1,0,0,0,1-1,.433.433,0,0,0-.418-.649,1.316,1.316,0,0,1-1.1,1.06,1.006,1.006,0,0,1-1.214-.779l-3.122.382c-.163.02-4.091,1.753-4.238,1.828l-1.538.879-1.193.684-.092.051a3.711,3.711,0,0,1,.364-2.4,4.275,4.275,0,0,0,.069-3.514.541.541,0,0,0-1-.009,17.691,17.691,0,0,1-2.2,4.2,3.971,3.971,0,0,0-1.176,1.987c-.5-.979-1.148-2.192-1.885-3.54-1.569-2.874-3.54-6.357-5.326-9.485,3.262,5.829,6.951,12.549,7.211,13.027l0,.008c-.534-.577-13.614-14.775-18.485-21.874,4.759,2.011,6.444.463,6.444.463h0c2.277-1.339,5.933-3.83,9.42-6.278,1.684-1.183,3.328-2.355,4.759-3.381.93-.669,1.769-1.275,2.469-1.784h0a3.953,3.953,0,0,1,5.147.113,12.422,12.422,0,0,1,1.025-4.245c-.262-.989-.519-1.98-.794-2.963-.264-1.015-.546-2.026-.832-3.034-.271-1.015-.579-2.015-.876-3.019s-.621-2-.992-2.977c-.139-.37-.281-.74-.439-1.1-.558,0-1.117,0-1.675,0,.532-.061,1.067-.114,1.6-.168a7.979,7.979,0,0,0-.793-1.4c-.361-.064-.692-.135-.99-.208a8,8,0,0,0-3.656,1.366c-7.952,4.886-19.911,21.407-23.393,26.709-.139.191-.272.4-.4.623-3.4,5.881,11.585,23.328,20.426,29.444.369.257.728.49,1.075.706Zm11.689-7.851c.081-.045.165-.086.251-.127Z" transform="translate(-460.664 -4248.835)" fill="#fad4c8"/>
          <path id="Trazado_101023" data-name="Trazado 101023" d="M483.263,4313.908a1.316,1.316,0,0,0,1.1-1.06l0-.011-2.313.283,0,.009A1.006,1.006,0,0,0,483.263,4313.908Z" transform="translate(-444.964 -4228.743)" fill="#e0a696"/>
          <path id="Trazado_101024" data-name="Trazado 101024" d="M493.687,4273.672c-.068,0-.175-.005-.26-.007a1.859,1.859,0,0,0-1.049.328,1.229,1.229,0,0,0-.557.905,2.53,2.53,0,0,1,.76-.366.658.658,0,0,0-.014.131.625.625,0,1,0,1.25,0,.642.642,0,0,0-.057-.258c.052,0,.106,0,.158-.008s.118-.015.177-.023a2,2,0,0,0,.342-.078,1.617,1.617,0,0,0,.487-.245.728.728,0,0,0,.307-.451,1.028,1.028,0,0,1-.449.113,4.179,4.179,0,0,1-.435,0c-.088,0-.177-.009-.265-.017-.057,0-.114-.006-.172-.011Z" transform="translate(-437.788 -4257.551)" fill="#4b3c4f"/>
          <path id="Trazado_101025" data-name="Trazado 101025" d="M490.528,4273.962a2.228,2.228,0,0,0-1.306-.189c-.1.017-.227.038-.307.056l-.258.062c-.172.04-.342.081-.512.114a4.661,4.661,0,0,1-.517.08,1.287,1.287,0,0,1-.555-.048.872.872,0,0,0,.449.476,1.931,1.931,0,0,0,.624.2,2.745,2.745,0,0,0,.631.023c.106,0,.2-.024.309-.035l.26-.038.045-.005a.691.691,0,1,0,1.358.181.662.662,0,0,0-.014-.13,3.062,3.062,0,0,1,.623.227A1.479,1.479,0,0,0,490.528,4273.962Z" transform="translate(-441.274 -4257.444)" fill="#4b3c4f"/>
          <path id="Trazado_101026" data-name="Trazado 101026" d="M497.557,4306.966l0-1.017h0c-.39.189-1.28.6-2.551,1.1.248.192.472.388.671.573,1.563-.528,1.831-.628,1.873-.647C497.563,4306.966,497.557,4306.966,497.557,4306.966Z" transform="translate(-435.448 -4233.8)" fill="#f4c0b5"/>
          <path id="Trazado_101027" data-name="Trazado 101027" d="M487.03,4306.559l-.482.029c.167.005.331.011.5.014Z" transform="translate(-441.659 -4233.354)" fill="#f4c0b5"/>
          <path id="Trazado_101028" data-name="Trazado 101028" d="M485.913,4308.616a25.042,25.042,0,0,1-4.951-1.327l.08.472.075.035c.2,1,.42,2.047.673,3.147l0,.014c-.109-.678-.241-1.363-.39-2.051q-.12-.546-.253-1.1l.026.013a28.476,28.476,0,0,0,9.537,2.181c-.253-.312-.52-.662-.792-1.025A29.251,29.251,0,0,1,485.913,4308.616Z" transform="translate(-445.761 -4232.816)" fill="#f4c0b5"/>
          <path id="Trazado_101029" data-name="Trazado 101029" d="M488.144,4306.581h.137l-.047-.107-.144.008Z" transform="translate(-440.527 -4233.416)" fill="#f4c0b5"/>
          <path id="Trazado_101030" data-name="Trazado 101030" d="M484.681,4306.311s.13.2.347.524c.794.069,1.628.12,2.49.151C485.831,4305.277,484.681,4306.311,484.681,4306.311Z" transform="translate(-443.03 -4233.764)" fill="#d08d83"/>
          <path id="Trazado_101031" data-name="Trazado 101031" d="M486.127,4308.266c.272.363.539.714.793,1.026.123.15.243.294.355.425.156-.522.328-1.008.512-1.459Q486.965,4308.283,486.127,4308.266Z" transform="translate(-441.969 -4232.105)" fill="#d08d83"/>
          <path id="Trazado_101032" data-name="Trazado 101032" d="M489.3,4307.2c-1.379-2.562-2.912-1.682-2.912-1.682s.319.83.766,1.91l.017.043q1.027.015,2.1-.023l.047-.06h.083l-.054-.1Z" transform="translate(-441.78 -4234.224)" fill="#d08d83"/>
          <path id="Trazado_101033" data-name="Trazado 101033" d="M491.063,4315.585c.2,8.689-2.164,11.565-4.251,14.1a10.469,10.469,0,0,0-2.237,3.659,11.251,11.251,0,0,0,.406,7.132c.042.114.083.226.127.333a3.011,3.011,0,0,0,.531-.015c-2-9.886,3.992-12.427,6.233-16.26s.4-13.608.4-13.608h-.014l-.917-.042A26.422,26.422,0,0,0,491.063,4315.585Z" transform="translate(-443.412 -4230.176)" fill="#c969b2"/>
          <path id="Trazado_101034" data-name="Trazado 101034" d="M489.574,4308.361a9.707,9.707,0,0,0-.747,1.459l.028.005c2.548.375,6.181.888,7.214-.326a.69.69,0,0,0,.156-.321,7.877,7.877,0,0,0-2.972-1.486C492.1,4307.957,490.863,4308.187,489.574,4308.361Z" transform="translate(-439.986 -4232.521)" fill="#c17d76"/>
          <path id="Trazado_101035" data-name="Trazado 101035" d="M486.53,4309.825a5.935,5.935,0,0,1-.163-2.946,47.909,47.909,0,0,1-5.192-.957l-.283-.071c-.5-.127-.77-.209-.77-.209l.881,2.627c.193.08.383.155.576.228A25.072,25.072,0,0,0,486.53,4309.825Z" transform="translate(-446.378 -4234.025)" fill="#fff"/>
          <path id="Trazado_101036" data-name="Trazado 101036" d="M489.171,4306.75c-.168,0-.333-.009-.5-.015l-.4-.01c-.862-.032-1.7-.082-2.49-.152-.7-.062-1.372-.136-2.008-.218a5.933,5.933,0,0,0,.163,2.945,29.019,29.019,0,0,0,4.006.36c.558.012,1.112.009,1.66-.007a12.1,12.1,0,0,1,1.668-2.927C490.556,4306.752,489.856,4306.761,489.171,4306.75Z" transform="translate(-443.783 -4233.502)" fill="#e7dcea"/>
          <path id="Trazado_101037" data-name="Trazado 101037" d="M488.98,4306.528c-.076,0-.153.01-.231.013h.226Z" transform="translate(-440.043 -4233.375)" fill="#e7dcea"/>
          <path id="Trazado_101038" data-name="Trazado 101038" d="M498.914,4307.19c.147-.071.225-.113.225-.113l-.293-2.817h0a24.394,24.394,0,0,1-5.685,2.579,6.6,6.6,0,0,1,3.2,1.447C497.635,4307.791,498.524,4307.379,498.914,4307.19Z" transform="translate(-436.803 -4235.041)" fill="#fff"/>
          <path id="Trazado_101039" data-name="Trazado 101039" d="M506.219,4322.341l-3.156-10.3-.043.065c-.045-.193-.09-.381-.137-.562a5.048,5.048,0,0,0-1.15-2.58c-.16-.174-.364-.386-.609-.613-.2-.185-.423-.38-.671-.572a6.6,6.6,0,0,0-3.2-1.446,4.288,4.288,0,0,0-1.654.125,8.7,8.7,0,0,1-2.693.314h0s.456.326-.338,1.589c-2.452-.386-1.972-2-1.972-2a.444.444,0,0,0-.333.018c-1.308-2.047-2.667-1.268-2.667-1.268s.439,1.135,1.006,2.483l.047.108h.952c.078,0,.154-.008.231-.014.106-.006.213-.016.319-.024.27.712.976,1.466,2.688,1.749a12.122,12.122,0,0,1,1.323.294,7.876,7.876,0,0,1,2.972,1.487.688.688,0,0,1-.156.321c-1.034,1.214-4.667.7-7.214.326l-.028-.005a13.013,13.013,0,0,0-.529,1.573c2.216.4,5.465.911,6.571,1.083l.387.061c1.408.611,1.361,5.725,1.361,5.725.7,9.25,1.408,23.764,7.646,28.888l.057.06a3.58,3.58,0,0,0,1.077.735c.99.015,2.029-.02,3.1-.1a74.868,74.868,0,0,0,17.866-3.915l.014,0c4.478-1.543,8.2-3.282,10-4.731a14.172,14.172,0,0,0,4.079-5.135,8.961,8.961,0,0,0,.517-1.527h0a6.042,6.042,0,0,0-.305-3.935,5.6,5.6,0,0,0-6.189-3.139c-.168.033-.337.073-.5.121-8.264,2.421-18.367,6.432-24.336,8.9h0c-1.984,1.371-3.663,4.938-3.663,7.739-4.944-9.809-2.567-28.073-2.567-28.073l3.711,12.119-.293-.958Z" transform="translate(-440.892 -4234.53)" fill="#d08d83"/>
          <path id="Trazado_101040" data-name="Trazado 101040" d="M486.429,4329.336c-.043-.107-.085-.219-.127-.333a6.554,6.554,0,0,1-3.94-2.492,17.329,17.329,0,0,0,1.38,4.8l2.787-1.721C486.5,4329.506,486.462,4329.422,486.429,4329.336Z" transform="translate(-444.733 -4218.703)" fill="#e7dcea"/>
          <path id="Trazado_101041" data-name="Trazado 101041" d="M486.353,4343.687a11.251,11.251,0,0,1-.406-7.132,10.474,10.474,0,0,1,2.237-3.66c2.086-2.536,4.452-5.412,4.25-14.1a26.427,26.427,0,0,1,.274-4.7,17.268,17.268,0,0,1,.387-1.835,13.028,13.028,0,0,1,.529-1.574,9.742,9.742,0,0,1,.747-1.459c1.289-.174,2.522-.4,3.678-.668a12,12,0,0,0-1.323-.295c-1.712-.282-2.418-1.037-2.688-1.749-.106.008-.213.018-.319.024l-.005.014h-1.4l-.047.061a12.059,12.059,0,0,0-1.668,2.927q-.276.676-.512,1.458a20.684,20.684,0,0,0-.628,2.92,30.036,30.036,0,0,0-.264,4.952c.173,7.487-1.7,9.766-3.515,11.969a13.423,13.423,0,0,0-2.825,4.742,13.03,13.03,0,0,0-.446,5.615A6.555,6.555,0,0,0,486.353,4343.687Z" transform="translate(-444.784 -4233.387)" fill="#fff"/>
          <path id="Trazado_101042" data-name="Trazado 101042" d="M529.71,4398.084h0c1.032.069,2.071.164,3.109.28a3.029,3.029,0,0,0-.714-3.125h0c-16.789-2.144-19.859,16.33-19.789,15.808,2.522-19.234,12.088-17.341,19.789-15.808,2.5-3.045,6.656-8.338,11.073-14.9.987-1.465,1.986-2.994,2.983-4.573.224-.357.435-.716.638-1.073a26.454,26.454,0,0,0,3.335-11.188c-.3-2.189-1.488-9.47-4.173-11.7a2,2,0,0,1-.125.223,1.931,1.931,0,0,1-1.229.828h0l-2.066.415a1.874,1.874,0,0,1-.385.04,1.919,1.919,0,0,1-1.07-.326,1.95,1.95,0,0,1-.589-.62c-1.119.147-2.275.256-3.458.309a28.683,28.683,0,0,1-11.009-1.47,116.936,116.936,0,0,1-4.49,14.222q-.713,1.88-1.476,3.745t-1.552,3.712c-1.072,2.466-2.227,4.889-3.38,7.3s-2.314,4.82-3.4,7.255c-.543,1.217-1.065,2.442-1.547,3.681-.246.617-.472,1.242-.708,1.865l-.7,1.885c-.465,1.25-.9,2.5-1.235,3.776a15.024,15.024,0,0,0-.541,3.887,9.343,9.343,0,0,0,.794,3.819,10.071,10.071,0,0,0,.994,1.713,12.562,12.562,0,0,0,1.315,1.508,12.659,12.659,0,0,1-1.441-1.408,9.924,9.924,0,0,1-1.134-1.684,9.474,9.474,0,0,1-1.054-3.933,15.189,15.189,0,0,1,.378-4.067,35.875,35.875,0,0,1,1.124-3.894l.64-1.9c.215-.639.428-1.28.668-1.909.463-1.267.966-2.514,1.488-3.752,1.046-2.481,2.206-4.9,3.351-7.323s2.327-4.815,3.411-7.252c1.1-2.432,2.145-4.893,3.186-7.353,1.9-4.575,3.661-9.208,5.215-13.928a20.463,20.463,0,0,1-4.677-2.413q-.858,1.676-1.686,3.362-1.389,2.834-2.688,5.683c-1.188,2.6-2.317,5.2-3.384,7.762q-.994,2.386-1.913,4.733c-1.925,4.906-3.6,9.625-5,13.96-3.3,10.232-5.045,18.315-4.847,21.616.314,5.268,4.519,8.853,8.91,10.542a2.849,2.849,0,0,0,3.7-1.663,2.807,2.807,0,0,0,.177-.782C515.439,4402.567,529.71,4398.084,529.71,4398.084Z" transform="translate(-430.512 -4202.368)" fill="#d67fbe"/>
          <path id="Trazado_101043" data-name="Trazado 101043" d="M525.626,4348.458a1.924,1.924,0,0,1,.109-1.124,38.5,38.5,0,0,1-5.3-.152,14.176,14.176,0,0,0,2.865,6.649c1.183-.054,2.339-.162,3.458-.309a1.912,1.912,0,0,1-.238-.61Z" transform="translate(-416.776 -4203.526)" fill="#594972"/>
          <path id="Trazado_101044" data-name="Trazado 101044" d="M536.3,4362.568a16.474,16.474,0,0,0-4.445-11.375,20.169,20.169,0,0,0-5.047-3.974l.007.03.9,4.453a1.921,1.921,0,0,1-.161,1.231c2.685,2.233,3.871,9.513,4.172,11.7.054.4.08.629.08.629Z" transform="translate(-412.1 -4203.499)" fill="#594972"/>
          <path id="Trazado_101045" data-name="Trazado 101045" d="M527.6,4347.616a.715.715,0,0,0-.307-.457.774.774,0,0,0-.281-.111c-.277.044-.555.084-.831.119l-1.495.3a.724.724,0,0,0-.564.85l.9,4.453a.722.722,0,0,0,.848.562l2.065-.415h0a.724.724,0,0,0,.564-.849Z" transform="translate(-414.081 -4203.625)" fill="#594972"/>
          <path id="Trazado_101046" data-name="Trazado 101046" d="M527.028,4346.881l-2.065.416a1.938,1.938,0,0,0-1.516,2.282l.9,4.453a1.908,1.908,0,0,0,.238.611,1.935,1.935,0,0,0,.59.619,1.906,1.906,0,0,0,1.455.286l2.066-.416h0a1.929,1.929,0,0,0,1.229-.828,2.018,2.018,0,0,0,.125-.223,1.922,1.922,0,0,0,.161-1.231l-.9-4.453-.007-.03a20.192,20.192,0,0,1,5.047,3.974c1.568-.532,2.5-.937,2.53-.952-.012,0-.075,0-.2-.407a39.974,39.974,0,0,1-.9-5.326c-.055.024-.111.045-.165.071a32.088,32.088,0,0,1-6.538,2.067A1.942,1.942,0,0,0,527.028,4346.881Zm1.987,6.21a.723.723,0,0,1-.564.849h0l-2.065.416a.723.723,0,0,1-.848-.563l-.9-4.453a.723.723,0,0,1,.564-.849l1.495-.3.57-.115a.766.766,0,0,1,.142-.013.9.9,0,0,1,.118.01.756.756,0,0,1,.281.111.711.711,0,0,1,.307.456Z" transform="translate(-414.596 -4204.647)" fill="#4c3e60"/>
          <path id="Trazado_101047" data-name="Trazado 101047" d="M491.311,4307.765c.794-1.263.338-1.589.338-1.589h0l-2.31-.413S488.859,4307.378,491.311,4307.765Z" transform="translate(-439.638 -4233.938)" fill="#b26b5e"/>
          <path id="Trazado_101048" data-name="Trazado 101048" d="M527.408,4315.72c1.623-.805,1.9-4.211,1.9-4.211s2.617-1.635,2.242-3.831-2.1-2.673-3.737-1.827-5.045-4.013-5.045-4.013.725,4.607,2.917,6.642c1.172-1.166,3.153-2.866,4.218-2.243,1.5.874,1.053,4.249-2.546,6.2A11.3,11.3,0,0,1,527.408,4315.72Z" transform="translate(-415.064 -4236.819)" fill="#714d89"/>
          <path id="Trazado_101049" data-name="Trazado 101049" d="M524.712,4307.124a3.617,3.617,0,0,0-.432,1.456c.409-.324.753-.65,1.089-.973s.647-.64.971-.937a12.084,12.084,0,0,1,.988-.836,7.281,7.281,0,0,1,1.205-.694,2.246,2.246,0,0,0-1.562-.043,3.669,3.669,0,0,0-1.342.814A4.49,4.49,0,0,0,524.712,4307.124Z" transform="translate(-413.956 -4234.513)" fill="#c17d76"/>
          <path id="Trazado_101050" data-name="Trazado 101050" d="M516.072,4362.158l5.954,1.9h.01c0-.017-.168-4.053-.9-17.057-.583-10.322,2.234-20.369,3.432-24.1a14.184,14.184,0,0,1-4.079,5.135c-1.809,1.449-5.527,3.188-10,4.731,0,.1,0,.19,0,.284a5.51,5.51,0,0,0,1.025,3.29,8.793,8.793,0,0,0,4.917,3h0a82.708,82.708,0,0,1-1.056,12.814h0a21.233,21.233,0,0,0-.239,5.977,14.11,14.11,0,0,0,.947,4.028Z" transform="translate(-424.089 -4221.357)" fill="#e7dcea"/>
          <path id="Trazado_101051" data-name="Trazado 101051" d="M518.9,4322.016v0Z" transform="translate(-417.906 -4222.004)" fill="#e7dcea"/>
          <path id="Trazado_101052" data-name="Trazado 101052" d="M497.483,4311.415s-2.378,18.265,2.567,28.074c0-2.8,1.679-6.369,3.663-7.74h0l-2.518-8.215Z" transform="translate(-434.05 -4229.787)" fill="#c17d76"/>
          <path id="Trazado_101053" data-name="Trazado 101053" d="M518.722,4364.078c-1.04,2.461-2.083,4.922-3.186,7.354-1.084,2.437-2.253,4.838-3.411,7.252s-2.3,4.841-3.351,7.322c-.522,1.238-1.025,2.486-1.488,3.751-.239.63-.453,1.271-.668,1.91l-.64,1.9a35.987,35.987,0,0,0-1.124,3.9,15.186,15.186,0,0,0-.378,4.068,9.474,9.474,0,0,0,1.054,3.932,9.9,9.9,0,0,0,1.134,1.684,12.671,12.671,0,0,0,1.441,1.409,12.61,12.61,0,0,1-1.315-1.509,10.054,10.054,0,0,1-.994-1.713,9.338,9.338,0,0,1-.794-3.819,15.018,15.018,0,0,1,.541-3.887c.337-1.274.77-2.527,1.235-3.777l.7-1.884c.236-.623.461-1.248.708-1.865.482-1.239,1-2.464,1.547-3.682,1.082-2.435,2.228-4.846,3.4-7.255s2.308-4.838,3.38-7.3q.793-1.852,1.552-3.713c.512-1.239,1-2.49,1.476-3.743a116.96,116.96,0,0,0,4.49-14.223l-.092-.032C522.383,4354.869,520.625,4359.5,518.722,4364.078Z" transform="translate(-428.51 -4201.347)" fill="#b758a5"/>
          <path id="Trazado_101054" data-name="Trazado 101054" d="M507.835,4391.75c-.069.521,3-17.952,19.789-15.809h0C519.923,4374.408,510.357,4372.516,507.835,4391.75Z" transform="translate(-426.03 -4183.072)" fill="#c969b2"/>
          <path id="Trazado_101055" data-name="Trazado 101055" d="M526.539,4348.475a42.658,42.658,0,0,1-5.716-.954l-.01,0a38.6,38.6,0,0,1-5.954-1.9h0c-.293-.123-.449-.2-.449-.2l-2.279,4.64q.729.615,1.495,1.147a20.452,20.452,0,0,0,4.677,2.412l.092.032a28.713,28.713,0,0,0,11.009,1.471A14.173,14.173,0,0,1,526.539,4348.475Z" transform="translate(-422.876 -4204.818)" fill="#4c3e60"/>
          <path id="Trazado_101056" data-name="Trazado 101056" d="M483.731,4331.82l3.026-1.841-.444-1.259A6,6,0,0,0,483.731,4331.82Z" transform="translate(-443.728 -4217.083)" fill="#e7e2f2"/>
          <path id="Trazado_101057" data-name="Trazado 101057" d="M483.356,4330.119l-.468.291,1.334,1.921.128-.081a6,6,0,0,1,2.582-3.1l-.359-1.019-.43.266Z" transform="translate(-444.347 -4217.513)" fill="#fff"/>
        </g>
        <g id="Grupo_53784" data-name="Grupo 53784" transform="translate(153.274)">
          <path id="Trazado_101058" data-name="Trazado 101058" d="M563.147,4383.468v22.506h5.628v-81.112a18.368,18.368,0,0,0-5.628-3.388Z" transform="translate(-538.693 -4214.496)" fill="#fff"/>
          <path id="Trazado_101059" data-name="Trazado 101059" d="M564.739,4309.183l-1.592,7.516v13.8a18.353,18.353,0,0,1,5.628,3.389v-16.641l-1.308-7.876A6.489,6.489,0,0,1,564.739,4309.183Z" transform="translate(-538.693 -4223.521)" fill="#e7dcea"/>
          <path id="Trazado_101060" data-name="Trazado 101060" d="M550.524,4316.653h0q.008.385.016.773a5.58,5.58,0,0,0,4.042,5.265,35.122,35.122,0,0,0,12.129,1.15,5.579,5.579,0,0,0,4.871-3.783,31.3,31.3,0,0,1-5.121-10.374A46.592,46.592,0,0,1,550.524,4316.653Z" transform="translate(-547.961 -4223.151)" fill="#64496d"/>
          <path id="Trazado_101061" data-name="Trazado 101061" d="M556.47,4308.849a2.2,2.2,0,0,1-.512-.582.944.944,0,0,1-.13-.44.639.639,0,0,1,.189-.442.9.9,0,0,1,.392-.226.28.28,0,0,1,.269.078.413.413,0,0,1,.1.222,1.967,1.967,0,0,1-.1.8,2.536,2.536,0,0,0-.045-.765.24.24,0,0,0-.071-.127c-.028-.021-.05-.021-.1-.007a.734.734,0,0,0-.263.193.407.407,0,0,0-.1.27.687.687,0,0,0,.113.3,2.145,2.145,0,0,0,.492.531l.054.041.005.062c.05.456.1.914.128,1.372a28.946,28.946,0,0,0,4.117-.341c-.03-.167-.061-.335-.087-.5-.078-.474-.141-.947-.2-1.421a2.236,2.236,0,0,1-.511-.581.984.984,0,0,1-.13-.44.646.646,0,0,1,.191-.442.88.88,0,0,1,.392-.226.284.284,0,0,1,.269.078.419.419,0,0,1,.1.223,1.941,1.941,0,0,1-.106.8,2.479,2.479,0,0,0-.043-.765.252.252,0,0,0-.071-.129c-.028-.02-.05-.02-.1-.006a.752.752,0,0,0-.264.192.418.418,0,0,0-.1.271.7.7,0,0,0,.111.3,2.154,2.154,0,0,0,.494.531l.052.042.007.061c.054.5.1.99.137,1.488.012.169.019.334.028.5a51.978,51.978,0,0,0,8.26-2.076c.014-.175.026-.348.042-.522.043-.475.1-.95.165-1.423a2.2,2.2,0,0,1-.349-.691.949.949,0,0,1-.016-.459.624.624,0,0,1,.293-.379.882.882,0,0,1,.437-.121.281.281,0,0,1,.241.143.429.429,0,0,1,.036.239,1.968,1.968,0,0,1-.3.746,2.5,2.5,0,0,0,.149-.751.27.27,0,0,0-.036-.144.093.093,0,0,0-.092-.029.741.741,0,0,0-.3.121.409.409,0,0,0-.161.237.708.708,0,0,0,.033.318,2.113,2.113,0,0,0,.345.636l.04.055-.009.061c-.071.493-.147.985-.241,1.475-.026.142-.056.285-.085.427a96.609,96.609,0,0,0,11.144-4.614c-.04-.457-.083-.916-.129-1.384a35.4,35.4,0,0,1-.208-7.07,14.894,14.894,0,0,1,.713-3.308,21.277,21.277,0,0,1,1.2-2.7,41.922,41.922,0,0,0-15.079-6.955,7.877,7.877,0,0,0,.156,2.909,6.887,6.887,0,0,0,1.994,3.111l.158-.213,1.266.988-2.293,2.741-1.1-.876.2-.274a9.831,9.831,0,0,1-3.061-4.7,11.015,11.015,0,0,1-.21-4.318l-.116.011h0a21.685,21.685,0,0,1-8.3-.773s-.045-.026-.125-.081c1.035,3.681,3.068,11.62,2.95,16.932-.087,4.008-3.137,7.978-5.844,12.708a17.9,17.9,0,0,0,3.7.373C556.58,4309.7,556.522,4309.272,556.47,4308.849Z" transform="translate(-546.185 -4244.865)" fill="#64496d"/>
          <path id="Trazado_101062" data-name="Trazado 101062" d="M571.837,4286.075a15.577,15.577,0,0,0-.747,1.748,12.971,12.971,0,0,0-.65,3.82,41.378,41.378,0,0,0,.29,5.318l.026.254c3.083-1.593,5.036-2.77,5.036-2.77l.007.014a9.222,9.222,0,0,1-.231-1.795c-.015-.727.009-1.505.066-2.313A21.819,21.819,0,0,0,571.837,4286.075Z" transform="translate(-533.348 -4240.486)" fill="#64496d"/>
          <path id="Trazado_101063" data-name="Trazado 101063" d="M581.474,4302.326c-6.505,0-10.785-.256-18.017,9.053-.425.548-.878,1.074-1.348,1.579a14.93,14.93,0,0,0,3.391,2.754l-2.414,11.218a5.674,5.674,0,0,0,.165-.595l.657-3.107,1.592-7.516a6.513,6.513,0,0,0,2.728.188l1.308,7.877.385,2.314a5.583,5.583,0,0,0,5.111,4.647,37.076,37.076,0,0,0,12.532-1.15,5.581,5.581,0,0,0,4.062-5.271c.111-6.093.4-11.738.029-16.537,0-.041,0-.083,0-.124a21.533,21.533,0,0,0-.923-5.567,17.727,17.727,0,0,0-.6-1.8C589.252,4301.415,587.36,4302.326,581.474,4302.326Z" transform="translate(-539.454 -4230.048)" fill="#64496d"/>
          <path id="Trazado_101064" data-name="Trazado 101064" d="M560.994,4269.988c-.052-.437-.094-.875-.115-1.315a9.054,9.054,0,0,1,.666-4.237l-1.039.06a20.4,20.4,0,0,0-5.5,1.017,4.273,4.273,0,0,0-1.566.962h0c-1.032.636-2.929,5.5-4.1,8.736a3.287,3.287,0,0,0,1.8,4.241,15.368,15.368,0,0,0,1.523.422h0S556.135,4272.975,560.994,4269.988Z" transform="translate(-548.983 -4256.374)" fill="#64496d"/>
          <path id="Trazado_101065" data-name="Trazado 101065" d="M554.006,4272.833l-.029-.056c-.227.824-.352,1.352-.352,1.352h0a2.583,2.583,0,0,1,1.04-.112c-.04-.21-.078-.421-.116-.633A2.238,2.238,0,0,1,554.006,4272.833Z" transform="translate(-545.685 -4250.25)" fill="#64496d"/>
          <path id="Trazado_101066" data-name="Trazado 101066" d="M584.648,4279.48a3.286,3.286,0,0,0,1.8-4.241c-1.172-3.24-3.068-8.1-4.1-8.737h0a4.288,4.288,0,0,0-1.566-.962,20.432,20.432,0,0,0-5.5-1.016q-1.259-.075-2.443-.126a15.386,15.386,0,0,1,.815,6.91,21.675,21.675,0,0,1-.876,3.5,21.436,21.436,0,0,0-.727,2.742,11.781,11.781,0,0,0-.149,2.32c.014.481.052.967.107,1.455a23.033,23.033,0,0,1,3.578-.91l.005-.031c.061-.476.137-.947.217-1.417a2.238,2.238,0,0,1-.323-.7.959.959,0,0,1,0-.46.642.642,0,0,1,.309-.368.9.9,0,0,1,.44-.1.284.284,0,0,1,.234.152.407.407,0,0,1,.028.239,1.971,1.971,0,0,1-.329.735,2.53,2.53,0,0,0,.177-.745.254.254,0,0,0-.031-.144c-.021-.028-.042-.034-.09-.034a.711.711,0,0,0-.307.109.415.415,0,0,0-.172.231.7.7,0,0,0,.023.32,2.1,2.1,0,0,0,.321.648l.038.056-.012.06c-.087.473-.179.946-.284,1.415a8.855,8.855,0,0,1,3.465-.1l.007.011A16.2,16.2,0,0,0,584.648,4279.48Z" transform="translate(-532.269 -4256.403)" fill="#64496d"/>
          <path id="Trazado_101067" data-name="Trazado 101067" d="M563.561,4265.881h0a4.129,4.129,0,0,1-3.331,1.792c-.349.007-.708.016-1.072.024a3.826,3.826,0,0,0-1,1.087,5.634,5.634,0,0,0-.55,3.162,15.386,15.386,0,0,0,1.821,6.555c.087.162.175.321.269.48.482.823,1.046,1.615,1.642,2.454,1.391,1.954,2.828,3.976,3.281,6.514.007.043.012.085.019.128a30.533,30.533,0,0,1,4.493,3.81l-.005,0c.113,0,.225,0,.336,0a14.17,14.17,0,0,1,2.263.356c-.114-.116-.229-.235-.34-.356a30.948,30.948,0,0,1,3.42-3.033c-.062-.147-.127-.295-.189-.442-.184-.442-.352-.888-.517-1.338a2.217,2.217,0,0,1-.631-.447.954.954,0,0,1-.227-.4.636.636,0,0,1,.083-.473.89.89,0,0,1,.331-.31.285.285,0,0,1,.279.013.42.42,0,0,1,.142.194,1.993,1.993,0,0,1,.081.8,2.529,2.529,0,0,0-.218-.733.252.252,0,0,0-.1-.109c-.031-.015-.054-.009-.1.016a.722.722,0,0,0-.212.248.419.419,0,0,0-.033.287.7.7,0,0,0,.179.264,2.092,2.092,0,0,0,.6.4l.062.028.021.06c.165.469.326.94.473,1.417.042.135.08.271.12.407a28.849,28.849,0,0,1,2.77-1.842c-.073-.285-.14-.568-.2-.855-.1-.466-.192-.937-.276-1.406a2.27,2.27,0,0,1-.543-.553.98.98,0,0,1-.154-.433.634.634,0,0,1,.166-.451.881.881,0,0,1,.38-.247.28.28,0,0,1,.272.063.438.438,0,0,1,.108.216,1.948,1.948,0,0,1-.062.8,2.484,2.484,0,0,0-.085-.763.267.267,0,0,0-.078-.124.1.1,0,0,0-.1,0,.732.732,0,0,0-.251.206.418.418,0,0,0-.083.276.73.73,0,0,0,.128.293,2.133,2.133,0,0,0,.522.5l.055.038.01.063c.08.49.156.983.217,1.476.035.275.064.552.088.828l.049-.029h0a17.572,17.572,0,0,1,1.781-1.15,18.868,18.868,0,0,1-.179-3.76,13.853,13.853,0,0,1,.167-1.45,23.9,23.9,0,0,1,.818-3.123,19.185,19.185,0,0,0,.77-3.03,12.628,12.628,0,0,0-.742-5.746c-.1-.3-.222-.619-.361-.925a4.154,4.154,0,0,1-2.874-2.083h0a3.36,3.36,0,0,1-.574-2.767l.056-.236h.012v-.712a2.041,2.041,0,0,0-2.036-2.036h-8.4a2.042,2.042,0,0,0-2.036,2.036v.829S564.624,4264.817,563.561,4265.881Z" transform="translate(-542.773 -4259.787)" fill="#64496d"/>
          <path id="Trazado_101068" data-name="Trazado 101068" d="M562.162,4279.405c.408.164.822.349,1.243.547a30.808,30.808,0,0,0-1.762-2.666c-.607-.853-1.235-1.737-1.783-2.671q-.307-.524-.577-1.069a18.362,18.362,0,0,1-1.769-5.787c-1.511,1.758-2.749,5.3-3.455,7.68a.6.6,0,0,1,.128-.053.278.278,0,0,1,.272.061.428.428,0,0,1,.108.218,1.939,1.939,0,0,1-.062.8,2.467,2.467,0,0,0-.085-.76.254.254,0,0,0-.078-.125c-.028-.019-.052-.019-.1,0a.711.711,0,0,0-.251.208.417.417,0,0,0-.083.274.721.721,0,0,0,.128.292,2.12,2.12,0,0,0,.522.5l.055.039.01.062c.04.248.08.5.116.744a18.99,18.99,0,0,1,3.819.539c.075-.411.158-.821.246-1.229a2.257,2.257,0,0,1-.291-.717.99.99,0,0,1,.021-.46.647.647,0,0,1,.324-.355.9.9,0,0,1,.446-.083.285.285,0,0,1,.229.161.419.419,0,0,1,.016.241,1.938,1.938,0,0,1-.361.72,2.538,2.538,0,0,0,.21-.736.257.257,0,0,0-.026-.147c-.019-.027-.04-.037-.088-.037a.713.713,0,0,0-.312.1.41.41,0,0,0-.18.223.737.737,0,0,0,.007.319,2.142,2.142,0,0,0,.293.662l.036.058-.014.061c-.1.428-.2.854-.316,1.279.366.09.746.2,1.138.315l0,0A14.428,14.428,0,0,1,562.162,4279.405Z" transform="translate(-545.475 -4253.934)" fill="#64496d"/>
          <path id="Trazado_101069" data-name="Trazado 101069" d="M574.117,4280.915c-.009.347-.026.693-.054,1.036a17.13,17.13,0,0,1-1.191,5.075c-.338.834-.741,1.622-1.131,2.386-.173.342-.34.674-.5,1a21.8,21.8,0,0,1,3.8,4.276h0s.779-5.716,2.865-14.526A21.083,21.083,0,0,1,574.117,4280.915Z" transform="translate(-532.751 -4244.825)" fill="#765284"/>
          <path id="Trazado_101070" data-name="Trazado 101070" d="M577.522,4287.287a13.979,13.979,0,0,0,.891-3.351c.069-.5.111-1.016.13-1.529a13.6,13.6,0,0,1-9.471-3.753,14.174,14.174,0,0,0-2.263-.356c-.111,0-.224,0-.336,0a12.058,12.058,0,0,1-5.087,3.289c-.074.45-.141.892-.186,1.325a41.913,41.913,0,0,1,15.079,6.956c.071-.143.144-.285.215-.425C576.873,4288.705,577.229,4288.007,577.522,4287.287Z" transform="translate(-540.122 -4246.196)" fill="#765284"/>
          <path id="Trazado_101071" data-name="Trazado 101071" d="M567.26,4310.348a14.917,14.917,0,0,1-3.39-2.753,28.15,28.15,0,0,1-4.155,3.626,31.306,31.306,0,0,0,5.121,10.374l0,0,.007-.031Z" transform="translate(-541.213 -4224.687)" fill="#765284"/>
          <path id="Trazado_101072" data-name="Trazado 101072" d="M555.779,4276.551a.9.9,0,0,1-.123-.378.645.645,0,0,1,.165-.451,1.207,1.207,0,0,1,.251-.192c.706-2.378,1.944-5.922,3.455-7.68-.009-.071-.019-.142-.028-.212-4.859,2.988-8.329,9.886-8.329,9.886h0a13.224,13.224,0,0,0,4.258.378h0S555.551,4277.374,555.779,4276.551Z" transform="translate(-547.487 -4254.024)" fill="#765284"/>
          <path id="Trazado_101073" data-name="Trazado 101073" d="M562.266,4373.1c.024.206-.08-.105-.043.093-1.96.6-2.112,2.492-2.031,4.413h24.345c0-2.774-2.116-4.506-4.889-4.506H562.266Z" transform="translate(-540.875 -4176.594)" fill="#fff"/>
          <path id="Trazado_101074" data-name="Trazado 101074" d="M566.965,4370.2h-.617a5.02,5.02,0,0,0-4.995,4.507h-1.521a5.02,5.02,0,0,0-5.021,5.021h9.318c-.082-1.921.071-3.816,2.031-4.414-.007-.031-.009-.062-.014-.092h16.792a5.02,5.02,0,0,0-5.021-5.023H566.965Z" transform="translate(-544.812 -4178.72)" fill="#e7dcea"/>
          <path id="Trazado_101075" data-name="Trazado 101075" d="M586.453,4293.672c.116,1.212.231,2.451.274,3.694h.2v1.96H583.6v-1.96h.186c-.028-.75-.085-1.509-.154-2.283a96.687,96.687,0,0,1-11.144,4.613c-.069.346-.144.692-.236,1.037.005-.328.024-.653.049-.975a52.033,52.033,0,0,1-8.26,2.077c.017.329.029.661.028.993-.078-.32-.14-.642-.2-.967a28.877,28.877,0,0,1-4.117.342c0,.038.007.078.009.116.035.5.059,1,.055,1.5-.118-.488-.206-.979-.286-1.47-.009-.048-.014-.1-.023-.146a17.938,17.938,0,0,1-3.7-.373h0c-5.484,6.954-4.141,10.646-4.141,10.646s.633.864,2.75.91c-.028-.067-.057-.134-.085-.2-.18-.442-.347-.892-.508-1.341a2.258,2.258,0,0,1-.628-.453.977.977,0,0,1-.224-.4.645.645,0,0,1,.087-.472.9.9,0,0,1,.333-.307.275.275,0,0,1,.279.016.419.419,0,0,1,.142.193,1.968,1.968,0,0,1,.074.8,2.5,2.5,0,0,0-.213-.738.255.255,0,0,0-.1-.109.094.094,0,0,0-.1.015.731.731,0,0,0-.215.248.421.421,0,0,0-.035.284.694.694,0,0,0,.177.267,2.061,2.061,0,0,0,.6.407l.061.03.021.059c.161.47.319.942.463,1.421.028.092.052.187.08.281,2.372-.01,6.474-1.018,13.355-5.081-8.168,6.819-15.863,10.9-16.321,4.168,0,0-4,5.955-2.112,9.739a3.866,3.866,0,0,0,2.126,1.081c-.16-.4-.31-.8-.456-1.2a2.293,2.293,0,0,1-.628-.454.972.972,0,0,1-.224-.4.637.637,0,0,1,.088-.472.884.884,0,0,1,.331-.307.285.285,0,0,1,.279.016.417.417,0,0,1,.142.2,1.945,1.945,0,0,1,.075.8,2.555,2.555,0,0,0-.211-.737.3.3,0,0,0-.1-.109c-.031-.013-.054-.008-.1.016a.74.74,0,0,0-.213.247.415.415,0,0,0-.035.285.681.681,0,0,0,.175.268,2.182,2.182,0,0,0,.6.408l.061.03.021.057c.161.467.319.937.461,1.413,3.019.524,9.259-.616,20.715-10.872-8.394,9.071-22.255,19.822-23.112,9.739-1.37,4.628,2.057,8.23,2.059,8.231h0a46.6,46.6,0,0,0,15.937-6.968,28.144,28.144,0,0,0,4.155-3.625c.47-.505.923-1.031,1.348-1.579,7.232-9.309,11.512-9.053,18.017-9.053,5.886,0,7.778-.91,8.656-2.035a3.9,3.9,0,0,0,.248-.362c-.1-.282-.227-.6-.375-.952a1.668,1.668,0,0,0,1.124-1.8c-.049-1.7-2.756-2.8-3.519-3.07-2.459-4.626-5.541-9.815-5.7-10.087l-.007-.013S589.537,4292.079,586.453,4293.672Zm13.308,12.07c-2.391.958-5.111,1.339-8.773-2.142s-10.624,3.609-10.624,3.609,5.687-6.606,9.8-6.262c.054-.294.115-.585.179-.876.1-.466.222-.929.345-1.39a2.241,2.241,0,0,1-.258-.731.971.971,0,0,1,.043-.457.642.642,0,0,1,.342-.339.885.885,0,0,1,.447-.061.27.27,0,0,1,.22.17.413.413,0,0,1,.005.242,1.971,1.971,0,0,1-.394.7,2.536,2.536,0,0,0,.244-.727.256.256,0,0,0-.019-.147.094.094,0,0,0-.087-.041.757.757,0,0,0-.317.082.412.412,0,0,0-.189.215.706.706,0,0,0-.009.32,2.2,2.2,0,0,0,.26.675l.035.059-.017.058c-.134.481-.272.959-.427,1.433-.09.275-.186.551-.284.825a3.145,3.145,0,0,1,.978.272C595.374,4303.142,595.992,4305.833,599.762,4305.742Z" transform="translate(-549.046 -4236.942)" fill="#d67fbe"/>
          <path id="Trazado_101076" data-name="Trazado 101076" d="M555.535,4297.244l-.054-.042a2.135,2.135,0,0,1-.492-.53.688.688,0,0,1-.113-.3.408.408,0,0,1,.1-.271.746.746,0,0,1,.263-.193c.045-.014.068-.014.1.008a.244.244,0,0,1,.071.127,2.535,2.535,0,0,1,.045.765,1.97,1.97,0,0,0,.1-.8.408.408,0,0,0-.1-.221.279.279,0,0,0-.269-.079.893.893,0,0,0-.392.226.635.635,0,0,0-.189.441.945.945,0,0,0,.13.44,2.2,2.2,0,0,0,.512.582c.052.424.109.851.175,1.274.009.048.014.1.023.146.08.491.168.981.286,1.469,0-.5-.021-1-.056-1.5,0-.039-.007-.078-.009-.116-.033-.458-.078-.916-.128-1.372Z" transform="translate(-544.963 -4233.416)" fill="#fff"/>
          <path id="Trazado_101077" data-name="Trazado 101077" d="M557.993,4296.736l-.007-.06-.052-.042a2.14,2.14,0,0,1-.494-.53.707.707,0,0,1-.111-.3.418.418,0,0,1,.1-.271.774.774,0,0,1,.264-.193c.047-.013.069-.013.1.006a.256.256,0,0,1,.071.13,2.478,2.478,0,0,1,.043.765,1.944,1.944,0,0,0,.106-.8.419.419,0,0,0-.1-.222.281.281,0,0,0-.269-.077.873.873,0,0,0-.392.225.647.647,0,0,0-.191.442.984.984,0,0,0,.13.44,2.228,2.228,0,0,0,.512.581c.059.474.121.948.2,1.422.026.165.057.333.087.5.059.325.121.647.2.968,0-.333-.01-.665-.028-.994-.009-.168-.016-.334-.028-.5C558.1,4297.727,558.047,4297.233,557.993,4296.736Z" transform="translate(-543.163 -4233.834)" fill="#fff"/>
          <path id="Trazado_101078" data-name="Trazado 101078" d="M563.044,4295.568l.009-.061-.04-.055a2.111,2.111,0,0,1-.345-.637.707.707,0,0,1-.033-.317.406.406,0,0,1,.161-.237.735.735,0,0,1,.3-.122.094.094,0,0,1,.092.029.27.27,0,0,1,.036.144,2.5,2.5,0,0,1-.149.751,1.967,1.967,0,0,0,.3-.746.431.431,0,0,0-.036-.239.28.28,0,0,0-.241-.142.878.878,0,0,0-.437.121.625.625,0,0,0-.293.379.95.95,0,0,0,.016.459,2.2,2.2,0,0,0,.349.691c-.062.473-.121.948-.165,1.423-.016.174-.028.347-.042.522-.024.322-.043.646-.049.975.092-.345.167-.69.236-1.036.029-.143.059-.285.085-.427C562.9,4296.553,562.973,4296.061,563.044,4295.568Z" transform="translate(-539.277 -4234.713)" fill="#fff"/>
          <path id="Trazado_101079" data-name="Trazado 101079" d="M566.876,4300.938c-6.882,4.063-10.983,5.071-13.355,5.081.113.384.219.771.305,1.167-.191-.384-.359-.776-.52-1.168-2.118-.047-2.751-.911-2.751-.911C551.013,4311.841,558.708,4307.758,566.876,4300.938Z" transform="translate(-547.938 -4229.573)" fill="#c969b2"/>
          <path id="Trazado_101080" data-name="Trazado 101080" d="M572.449,4303.341c-11.456,10.256-17.7,11.4-20.715,10.872l0,.007c.144.478.278.957.385,1.448-.222-.45-.418-.909-.605-1.37-.017-.046-.035-.093-.052-.138a3.862,3.862,0,0,1-2.126-1.08C550.194,4323.164,564.055,4312.413,572.449,4303.341Z" transform="translate(-548.832 -4227.809)" fill="#c969b2"/>
          <path id="Trazado_101081" data-name="Trazado 101081" d="M578,4296.984a3.144,3.144,0,0,0-.978-.272c-.071.194-.142.39-.222.584.03-.2.066-.4.1-.6-4.115-.343-9.8,6.263-9.8,6.263s6.963-7.091,10.624-3.608,6.382,3.1,8.773,2.141C582.732,4301.585,582.115,4298.9,578,4296.984Z" transform="translate(-535.787 -4232.694)" fill="#c969b2"/>
          <path id="Trazado_101082" data-name="Trazado 101082" d="M572.92,4298.343q.148-.412.284-.826c.154-.474.293-.952.427-1.433l.017-.058-.035-.059a2.2,2.2,0,0,1-.26-.675.705.705,0,0,1,.009-.32.415.415,0,0,1,.189-.215.748.748,0,0,1,.317-.081.093.093,0,0,1,.087.041.256.256,0,0,1,.019.147,2.538,2.538,0,0,1-.245.726,1.975,1.975,0,0,0,.394-.7.409.409,0,0,0-.005-.241.273.273,0,0,0-.22-.171.886.886,0,0,0-.447.062.639.639,0,0,0-.342.339.972.972,0,0,0-.043.457,2.251,2.251,0,0,0,.258.73c-.123.461-.241.924-.345,1.391-.064.292-.125.582-.179.876-.036.2-.073.395-.1.6C572.778,4298.732,572.849,4298.538,572.92,4298.343Z" transform="translate(-531.68 -4234.326)" fill="#fff"/>
          <path id="Trazado_101083" data-name="Trazado 101083" d="M552.974,4305.226c-.028-.095-.052-.188-.08-.281-.144-.479-.3-.951-.463-1.421l-.021-.059-.061-.03a2.082,2.082,0,0,1-.6-.407.7.7,0,0,1-.177-.267.424.424,0,0,1,.035-.285.738.738,0,0,1,.215-.248.091.091,0,0,1,.1-.014.246.246,0,0,1,.1.109,2.5,2.5,0,0,1,.213.737,1.971,1.971,0,0,0-.074-.8.426.426,0,0,0-.142-.195.28.28,0,0,0-.279-.015.9.9,0,0,0-.333.307.645.645,0,0,0-.087.472.976.976,0,0,0,.224.4,2.279,2.279,0,0,0,.628.454c.161.448.328.9.508,1.34.028.067.057.135.085.2.161.393.329.784.52,1.167C553.192,4306,553.086,4305.61,552.974,4305.226Z" transform="translate(-547.391 -4228.781)" fill="#fff"/>
          <path id="Trazado_101084" data-name="Trazado 101084" d="M551.78,4312.3c-.108-.491-.241-.971-.385-1.449l0-.007c-.142-.475-.3-.944-.461-1.413l-.021-.057-.061-.029a2.2,2.2,0,0,1-.6-.409.692.692,0,0,1-.175-.269.413.413,0,0,1,.035-.284.737.737,0,0,1,.213-.246c.042-.025.064-.029.1-.016a.283.283,0,0,1,.1.109,2.534,2.534,0,0,1,.211.736,1.95,1.95,0,0,0-.074-.8.406.406,0,0,0-.142-.2.283.283,0,0,0-.279-.017.881.881,0,0,0-.331.308.634.634,0,0,0-.088.472.954.954,0,0,0,.224.4,2.276,2.276,0,0,0,.628.455c.146.4.3.8.456,1.2l.052.138C551.362,4311.391,551.558,4311.851,551.78,4312.3Z" transform="translate(-548.492 -4224.441)" fill="#fff"/>
          <path id="Trazado_101085" data-name="Trazado 101085" d="M564.456,4285.827c.807-8.2-3.553-11.378-3.612-11.422-.392-.118-.772-.225-1.138-.314-.015.056-.029.113-.045.17-.13.482-.271.96-.439,1.433.049-.5.125-.993.212-1.484.01-.058.022-.117.033-.176a18.957,18.957,0,0,0-3.819-.539c.036.244.071.488.1.733.042.334.075.671.1,1.009a2.448,2.448,0,0,1,1.781.861,5.071,5.071,0,0,0-3.475.053,2.452,2.452,0,0,1,1.6-.909c-.085-.324-.165-.649-.236-.975-.057-.259-.109-.517-.16-.777a2.556,2.556,0,0,0-1.04.113h0c-4.186,7.046.844,10.793,1.713,11.368.08.055.125.081.125.081A21.674,21.674,0,0,0,564.456,4285.827Z" transform="translate(-546.38 -4249.725)" fill="#d67fbe"/>
          <path id="Trazado_101086" data-name="Trazado 101086" d="M562.038,4277.685a22.628,22.628,0,0,1-.515,4.328c-.075.4-.149.8-.215,1.191a12.056,12.056,0,0,0,5.087-3.29l.005,0a30.563,30.563,0,0,0-4.493-3.81A10.264,10.264,0,0,1,562.038,4277.685Z" transform="translate(-540.043 -4247.809)" fill="#d67fbe"/>
          <path id="Trazado_101087" data-name="Trazado 101087" d="M558.668,4274.475c.451.2.883.4,1.269.594l-.026-.046C559.49,4274.824,559.076,4274.639,558.668,4274.475Z" transform="translate(-541.981 -4249.004)" fill="#d67fbe"/>
          <path id="Trazado_101088" data-name="Trazado 101088" d="M571.28,4281.955c.014-.391.016-.782,0-1.176-.028-.633-.094-1.266-.184-1.9Z" transform="translate(-532.858 -4245.771)" fill="#d67fbe"/>
          <path id="Trazado_101089" data-name="Trazado 101089" d="M575.783,4273.7l-.01.051c-.111.485-.229.97-.376,1.449.026-.491.08-.976.142-1.46a23.247,23.247,0,0,0-3.578.909c.151,1.329.432,2.688.723,4.086a36.388,36.388,0,0,1,.893,5.87c.017.4.019.807.01,1.209a21.056,21.056,0,0,0,3.784-.749l.038-.013s6.4-3.758,1.845-11.439l-.007-.01A8.838,8.838,0,0,0,575.783,4273.7Z" transform="translate(-532.221 -4249.725)" fill="#d67fbe"/>
          <path id="Trazado_101090" data-name="Trazado 101090" d="M575.355,4284.559v-.021c-.038-.4-.78-8.009-3.307-9.172l-.049.029c.021.22.038.442.049.665-.059-.2-.111-.4-.163-.6a28.667,28.667,0,0,0-2.77,1.842c.1.342.2.687.277,1.037-.154-.306-.293-.614-.428-.924a30.9,30.9,0,0,0-3.42,3.033c.111.123.226.24.34.356A13.6,13.6,0,0,0,575.355,4284.559Z" transform="translate(-536.933 -4248.348)" fill="#d67fbe"/>
          <path id="Trazado_101091" data-name="Trazado 101091" d="M568.613,4278.93c-.08-.351-.177-.7-.277-1.038-.04-.136-.078-.272-.12-.408-.147-.476-.309-.948-.473-1.416l-.021-.06-.062-.029a2.109,2.109,0,0,1-.6-.4.694.694,0,0,1-.179-.265.418.418,0,0,1,.033-.287.728.728,0,0,1,.212-.249c.042-.024.064-.029.1-.015a.247.247,0,0,1,.1.109,2.523,2.523,0,0,1,.218.733,1.994,1.994,0,0,0-.081-.8.426.426,0,0,0-.142-.195.287.287,0,0,0-.279-.013.888.888,0,0,0-.331.311.637.637,0,0,0-.083.473.956.956,0,0,0,.227.4,2.236,2.236,0,0,0,.631.447c.165.45.333.9.517,1.337.062.147.127.294.189.442C568.32,4278.316,568.459,4278.625,568.613,4278.93Z" transform="translate(-536.154 -4248.938)" fill="#fff"/>
          <path id="Trazado_101092" data-name="Trazado 101092" d="M557.264,4273.727l-.036-.058a2.144,2.144,0,0,1-.293-.662.734.734,0,0,1-.007-.318.414.414,0,0,1,.18-.224.726.726,0,0,1,.312-.1.091.091,0,0,1,.089.037.26.26,0,0,1,.026.147,2.537,2.537,0,0,1-.21.737,1.949,1.949,0,0,0,.361-.72.419.419,0,0,0-.016-.241.283.283,0,0,0-.229-.161.885.885,0,0,0-.446.084.648.648,0,0,0-.324.354.989.989,0,0,0-.021.459,2.246,2.246,0,0,0,.292.717c-.089.407-.172.818-.246,1.229-.01.058-.022.117-.033.176-.087.491-.163.984-.212,1.484.168-.473.309-.951.439-1.433.016-.057.029-.114.045-.17.113-.425.217-.851.316-1.28Z" transform="translate(-543.609 -4250.703)" fill="#fff"/>
          <path id="Trazado_101093" data-name="Trazado 101093" d="M569.813,4277.03q-.036-.415-.088-.828c-.061-.494-.137-.986-.217-1.477l-.011-.062-.055-.038a2.141,2.141,0,0,1-.522-.5.728.728,0,0,1-.128-.292.416.416,0,0,1,.083-.276.741.741,0,0,1,.252-.207.1.1,0,0,1,.1,0,.267.267,0,0,1,.078.124,2.484,2.484,0,0,1,.085.763,1.951,1.951,0,0,0,.062-.805.434.434,0,0,0-.108-.214.276.276,0,0,0-.272-.062.87.87,0,0,0-.38.246.635.635,0,0,0-.167.451.98.98,0,0,0,.154.434,2.258,2.258,0,0,0,.543.552c.083.47.172.94.276,1.406.063.288.13.572.2.856.052.2.1.4.163.6C569.851,4277.473,569.834,4277.25,569.813,4277.03Z" transform="translate(-534.747 -4249.983)" fill="#fff"/>
          <path id="Trazado_101094" data-name="Trazado 101094" d="M554.729,4273.674l-.056-.039a2.116,2.116,0,0,1-.522-.5.722.722,0,0,1-.128-.292.423.423,0,0,1,.083-.275.717.717,0,0,1,.252-.207c.045-.018.069-.018.1,0a.251.251,0,0,1,.078.125,2.467,2.467,0,0,1,.085.76,1.933,1.933,0,0,0,.062-.8.425.425,0,0,0-.107-.218.276.276,0,0,0-.272-.061.552.552,0,0,0-.128.053,1.2,1.2,0,0,0-.251.192.645.645,0,0,0-.165.451.9.9,0,0,0,.123.378l.029.056a2.246,2.246,0,0,0,.543.551c.038.212.076.422.116.632.05.26.1.518.16.776.071.326.151.651.236.975a.866.866,0,0,1,.1,0c-.028-.337-.061-.675-.1-1.01-.029-.244-.064-.489-.1-.733s-.076-.5-.116-.744Z" transform="translate(-545.588 -4250.71)" fill="#fff"/>
          <path id="Trazado_101095" data-name="Trazado 101095" d="M573.942,4276.4c.147-.48.265-.964.376-1.45l.01-.051c.106-.47.2-.94.284-1.414l.012-.06-.038-.056a2.1,2.1,0,0,1-.321-.65.7.7,0,0,1-.022-.319.424.424,0,0,1,.172-.232.742.742,0,0,1,.307-.109c.049,0,.069.006.09.036a.256.256,0,0,1,.031.144,2.525,2.525,0,0,1-.177.744,1.978,1.978,0,0,0,.329-.734.408.408,0,0,0-.028-.24.283.283,0,0,0-.234-.153.886.886,0,0,0-.44.105.635.635,0,0,0-.309.367.959.959,0,0,0,0,.46,2.266,2.266,0,0,0,.323.7c-.08.47-.156.941-.217,1.417l-.005.03C574.022,4275.425,573.968,4275.911,573.942,4276.4Z" transform="translate(-530.767 -4250.927)" fill="#fff"/>
          <path id="Trazado_101096" data-name="Trazado 101096" d="M553.53,4275.412a5.065,5.065,0,0,1,3.475-.053,2.447,2.447,0,0,0-1.781-.861c-.033,0-.064,0-.1.005A2.452,2.452,0,0,0,553.53,4275.412Z" transform="translate(-545.754 -4248.986)" fill="#c969b2"/>
          <path id="Trazado_101097" data-name="Trazado 101097" d="M572.6,4285.025v-.007l-.186-3.079c-.16-1.142-.4-2.3-.65-3.494-.257-1.23-.515-2.479-.69-3.743a17.547,17.547,0,0,0-1.781,1.15h0C571.821,4277.016,572.563,4284.625,572.6,4285.025Z" transform="translate(-534.18 -4248.835)" fill="#c969b2"/>
          <path id="Trazado_101098" data-name="Trazado 101098" d="M571.946,4285.16c-.293.72-.649,1.418-1.027,2.159-.071.141-.144.283-.215.425a21.171,21.171,0,0,0-1.2,2.705,14.883,14.883,0,0,0-.713,3.307c.95.482,1.9.975,2.843,1.469a12.976,12.976,0,0,1,.65-3.819,15.511,15.511,0,0,1,.747-1.748c.161-.331.328-.663.5-1,.39-.763.793-1.551,1.131-2.385a17.128,17.128,0,0,0,1.191-5.074q-1.517.262-3.021.614A13.988,13.988,0,0,1,571.946,4285.16Z" transform="translate(-534.546 -4244.069)" fill="#fff"/>
          <path id="Trazado_101099" data-name="Trazado 101099" d="M569.048,4295.509c.045.468.089.928.128,1.384.069.774.126,1.532.154,2.283h2.941c-.043-1.243-.158-2.483-.274-3.694l-.026-.256a41.39,41.39,0,0,1-.29-5.318c-.947-.495-1.892-.988-2.843-1.469A35.385,35.385,0,0,0,569.048,4295.509Z" transform="translate(-534.591 -4238.751)" fill="#e7dcea"/>
          <path id="Trazado_101100" data-name="Trazado 101100" d="M570.231,4272.535a18.87,18.87,0,0,0,.178,3.759c.175,1.265.434,2.513.69,3.743.251,1.2.491,2.353.65,3.494.09.636.156,1.27.184,1.9.017.394.016.785,0,1.175v.028c-.019.513-.061,1.025-.13,1.53q1.5-.354,3.021-.614c.028-.345.045-.69.054-1.037.009-.4.007-.807-.01-1.209a36.417,36.417,0,0,0-.893-5.87c-.291-1.4-.572-2.756-.723-4.085-.055-.488-.094-.973-.108-1.454A29.872,29.872,0,0,1,570.231,4272.535Z" transform="translate(-533.514 -4250.428)" fill="#e7dcea"/>
          <path id="Trazado_101101" data-name="Trazado 101101" d="M568.642,4261.609a3.359,3.359,0,0,0,.574,2.766h0a2.736,2.736,0,0,1,1.975.783c.054.05.108.1.163.157a3.921,3.921,0,0,1,.735,1.143c.139.307.257.625.361.926a12.625,12.625,0,0,1,.742,5.745,19.184,19.184,0,0,1-.77,3.03,23.9,23.9,0,0,0-.819,3.124,13.845,13.845,0,0,0-.167,1.449,29.988,29.988,0,0,0,2.915,1.363,11.785,11.785,0,0,1,.149-2.32,21.426,21.426,0,0,1,.727-2.742,21.7,21.7,0,0,0,.876-3.5,15.386,15.386,0,0,0-.815-6.91c-.021-.062-.036-.122-.059-.184a8.119,8.119,0,0,0-1.785-3.186,5.6,5.6,0,0,0-.786-.659,7.712,7.712,0,0,0-3.952-1.217l-.012,0Z" transform="translate(-534.723 -4258.625)" fill="#fff"/>
          <path id="Trazado_101102" data-name="Trazado 101102" d="M568.971,4294.631v1.959H572.3v-1.959h-3.329Z" transform="translate(-534.417 -4234.205)" fill="#fff"/>
          <path id="Trazado_101103" data-name="Trazado 101103" d="M561.514,4283.008c.177-.96.348-1.889.425-2.788a8.385,8.385,0,0,0-.064-2.2,8.478,8.478,0,0,0-1-2.614c-.387-.192-.819-.4-1.269-.594a14.523,14.523,0,0,0-2.225-.793l0,0c.059.042,4.419,3.223,3.612,11.421h0l.116-.01C561.216,4284.613,561.365,4283.806,561.514,4283.008Z" transform="translate(-542.923 -4249.34)" fill="#c969b2"/>
          <path id="Trazado_101104" data-name="Trazado 101104" d="M560.641,4265.33s1.287-.362,2.223-.66l0,0c1.063-1.064.73-3.228.73-3.228a20.323,20.323,0,0,0-4.023,1.152c-.321.124-.673.27-1.039.442q.624,1.333,1.3,2.639Q560.21,4265.5,560.641,4265.33Z" transform="translate(-542.079 -4258.575)" fill="#e7dcea"/>
          <path id="Trazado_101105" data-name="Trazado 101105" d="M555.913,4270.2c.021.44.062.877.114,1.315.009.071.019.142.028.213a18.37,18.37,0,0,0,1.769,5.786c.532-.146,1.061-.306,1.584-.485.42-.158.839-.293,1.261-.413a15.384,15.384,0,0,1-1.821-6.554,5.633,5.633,0,0,1,.55-3.163,3.83,3.83,0,0,1,1-1.087,7.484,7.484,0,0,1,1.377-.813q-.676-1.307-1.3-2.639a8.014,8.014,0,0,0-3.607,3.048,5.916,5.916,0,0,0-.286.555A9.052,9.052,0,0,0,555.913,4270.2Z" transform="translate(-544.016 -4257.899)" fill="#fff"/>
          <path id="Trazado_101106" data-name="Trazado 101106" d="M562.658,4282.533c.066-.391.141-.788.215-1.191a22.633,22.633,0,0,0,.515-4.328q-1.493.487-2.979,1.006c-.076.9-.248,1.828-.425,2.787-.149.8-.3,1.606-.4,2.423a11.015,11.015,0,0,0,.21,4.317,9.831,9.831,0,0,0,3.061,4.7l-.2.274,1.1.875,2.293-2.74-1.266-.988-.158.213a6.886,6.886,0,0,1-1.994-3.111,7.88,7.88,0,0,1-.156-2.909C562.518,4283.426,562.584,4282.983,562.658,4282.533Z" transform="translate(-541.393 -4247.138)" fill="#fff"/>
          <path id="Trazado_101107" data-name="Trazado 101107" d="M559.368,4275.217a30.705,30.705,0,0,1,1.762,2.666l.026.046a8.479,8.479,0,0,1,1,2.614,8.384,8.384,0,0,1,.064,2.2q1.488-.52,2.979-1.006a10.263,10.263,0,0,0-.132-1.584c-.007-.042-.012-.085-.019-.128-.453-2.537-1.89-4.559-3.281-6.514-.6-.839-1.16-1.631-1.642-2.454-.094-.159-.182-.319-.269-.48-.421.119-.841.255-1.261.413-.522.179-1.051.339-1.584.484.18.361.373.72.578,1.069C558.134,4273.479,558.761,4274.364,559.368,4275.217Z" transform="translate(-543.2 -4251.863)" fill="#e7dcea"/>
        </g>
      </g>
    </g>
  </g>
</svg>
