<svg xmlns="http://www.w3.org/2000/svg" width="369.271" height="280.109" viewBox="0 0 369.271 280.109">
  <g id="Grupo_53820" data-name="Grupo 53820" transform="translate(-554.698 -5994.496)">
    <g id="Grupo_53818" data-name="Grupo 53818" transform="translate(554.698 5994.496)">
      <g id="Grupo_53815" data-name="Grupo 53815" transform="translate(51.424)">
        <g id="Grupo_53813" data-name="Grupo 53813">
          <path id="Trazado_101109" data-name="Trazado 101109" d="M611.536,6209.46c-33.9-79.015,33.971-173.549,104.246-205.62,37.418-17.076,76.422-9.2,110.713,11.077a303.232,303.232,0,0,1,26.47,17.534c6.085,4.522,12.048,9.348,17.756,14.465C838.7,6134.992,767.317,6241.223,611.536,6209.46Z" transform="translate(-602.539 -5994.495)" fill="#85c4f2"/>
        </g>
        <g id="Grupo_53814" data-name="Grupo 53814" transform="translate(8.997 52.421)">
          <path id="Trazado_101110" data-name="Trazado 101110" d="M916.122,6111.953c11.049,41.214-3.485,85.184-37.965,110.648-33.829,24.984-76.684,35.642-117.116,44.4-55.718,12.072-123.551-2.385-149.255-59.2q-.45-.993-.876-1.991c155.781,31.762,227.167-74.469,259.186-162.544C891.317,6062.289,908.991,6085.354,916.122,6111.953Z" transform="translate(-610.909 -6043.264)" fill="#5cb0ed"/>
        </g>
      </g>
      <g id="Grupo_53816" data-name="Grupo 53816" transform="translate(0 59.559)">
        <path id="Trazado_101111" data-name="Trazado 101111" d="M633.641,6184.627a69.773,69.773,0,0,0-11.753-20.182l-1.954,4.912-2.549-9.763a58.959,58.959,0,0,0-13.159-9.671l.881,7.17-6.188-9.686a62.744,62.744,0,0,0-19.057-4.469l.177,5.04-2.547-5.19a83.437,83.437,0,0,0-14.694.659q1.962,4.36,4.09,8.245l4.738-.477-3.263,3.1a87.556,87.556,0,0,0,12.545,16.875l7.546-.761-4.034,4.16a60.225,60.225,0,0,0,10.966,7.917l11.589-1.881-4.151,5.314a47.913,47.913,0,0,0,29.284,1.343l-51.288-34.553S620.749,6176.8,633.641,6184.627Z" transform="translate(-554.091 -6042.955)" fill="#85c4f2"/>
        <path id="Trazado_101112" data-name="Trazado 101112" d="M579.566,6152.037l51.288,34.553,3.46,2.331,2.025-2.575c-.128-.09-1.585-.979-3.953-2.417C619.493,6176.105,579.566,6152.037,579.566,6152.037Z" transform="translate(-552.836 -6042.256)" fill="#85c4f2"/>
        <path id="Trazado_101113" data-name="Trazado 101113" d="M652.228,6166.387c-3.52,2.212-7.939,8.155-9.483,10.321-.105-.722-.212-1.445-.324-2.167q-.177-1.145-.363-2.29c1.978-2.165,7.117-8.2,8.5-13.891-3.47,3.042-7.122,10.175-8.6,13.259l-.005-.038q-.376-2.246-.8-4.485c1.39-1.848,7.893-10.844,8.868-18.681-4.226,4.673-8.013,15.624-8.925,18.385q-.348-1.858-.719-3.713c-.2-1-.417-2-.635-2.994,1.619-2.174,7.8-10.893,8.743-18.514-4.1,4.527-7.779,14.952-8.833,18.106q-.73-3.3-1.573-6.574c1.894-2.545,9.076-12.692,10.18-21.562-4.778,5.281-9.074,17.452-10.3,21.109q-.7-2.7-1.478-5.38c1.513-2,9.233-12.607,10.381-21.829-5.013,5.54-9.495,18.66-10.452,21.583q-.8-2.752-1.674-5.484c1.979-3.257,10.582-18.106,10.781-30.409-5.834,7.835-9.929,25.279-10.941,29.912q-.985-3.044-2.061-6.062c2.1-3.469,10.519-18.132,10.717-30.3-5.774,7.753-9.844,24.915-10.909,29.763q-.817-2.271-1.683-4.524-.387-1-.785-1.984c2.339-3.875,11.478-19.838,11.694-33.1-6.305,8.467-10.752,27.19-11.927,32.528q-1.113-2.743-2.314-5.452-.36-.808-.732-1.61c1.92-3.134,11.686-19.739,11.909-33.45-6.568,8.819-11.12,28.77-12.057,33.124q-1.38-2.975-2.892-5.895c-.115-.224-.235-.444-.352-.667,2.02-4.072,10.56-22.271,9.448-36.742-6.083,9.771-9.028,30.755-9.713,36.242q-1.48-2.795-3.114-5.515c.975-4.367,4.8-23.6.08-37.289-3.476,10.454-1.257,30.707-.51,36.569l-.119-.2c-.386-.619-.754-1.247-1.155-1.859l-1.192-1.837c-.657-.963-1.309-1.928-1.99-2.877.211-2.054,2.2-23.534-4.887-37.559-2.268,11.781,3.974,34.542,4.784,37.417-.14-.194-.278-.389-.422-.582q-2.368-3.251-5.051-6.3c-.285-1.892-4.046-25.544-15.777-39.032.8,13.062,13.9,35.9,15.61,38.839a79.429,79.429,0,0,0-6.634-6.676q-.556-.493-1.129-.976c-.79-2.04-9.587-24.152-24.017-35.141,3.529,12.307,20.795,31.683,23.668,34.846q-1.353-1.13-2.771-2.192l.087.032s-19.972-17.18-39.568-21.182c8.9,8.9,32.434,18.411,38.252,20.676,1.053.785,2.075,1.6,3.071,2.446-3.315-1.226-26.656-9.519-45.448-7.443,12.911,6.026,42.71,7.458,45.618,7.584.64.544,1.272,1.1,1.888,1.662a78.407,78.407,0,0,1,6.066,6.27c-3.816-1.4-26.768-9.435-45.3-7.387,12.707,5.929,41.772,7.41,45.462,7.576,1.885,2.189,3.649,4.467,5.294,6.813l.071.1c-3.641-1.338-26.732-9.466-45.355-7.408,12.721,5.937,41.837,7.415,45.474,7.578.779,1.1,1.515,2.217,2.255,3.335l1.159,1.84c.389.612.746,1.24,1.12,1.86.217.369.429.739.643,1.109-4.367-1.586-26.869-9.327-45.094-7.312,12.482,5.825,40.746,7.356,45.24,7.566,1.129,1.966,2.209,3.955,3.219,5.976-4.448-1.613-26.882-9.31-45.059-7.3,12.442,5.807,40.56,7.347,45.194,7.565v0q1.464,2.934,2.8,5.921c-5.358-1.911-26.98-9.083-44.6-7.136,12.113,5.653,39.087,7.262,44.781,7.544.221.5.443,1,.658,1.5q1.269,2.969,2.431,5.977c-4.733-1.671-21.988-7.289-36.1-5.729,9.715,4.533,31.163,5.875,36.251,6.135q.311.808.615,1.62.806,2.191,1.56,4.4c-3.735-1.334-19.224-6.5-31.838-5.1,8.643,4.035,27.907,5.179,31.931,5.378q.589,1.726,1.149,3.462c.249.782.491,1.565.731,2.35-3.76-1.318-16.55-5.422-27.031-4.263,7.219,3.369,23.045,4.4,27.136,4.61q.837,2.765,1.606,5.549c.036.127.07.255.105.383-3.822-1.319-14.9-4.749-24.025-3.746,6.324,2.962,19.949,3.94,24.144,4.177q.813,2.934,1.546,5.891c-3.709-1.288-14.915-4.8-24.138-3.786,6.37,2.985,20.154,3.955,24.237,4.182.1.407.2.812.3,1.218q.653,2.651,1.262,5.311c-3.43-1.206-14.947-4.909-24.388-3.873,6.493,3.043,20.689,3.992,24.462,4.2.21.913.421,1.824.622,2.739q.319,1.419.619,2.843c-2.357-.912-12.231-4.483-20.206-3.692,5.5,2.741,17.666,3.693,20.242,3.869q.455,2.149.878,4.307c-2.541-1.029-10.429-3.949-16.818-3.395,4.49,2.385,14.083,3.419,16.874,3.677.053.271.107.541.16.812q.256,1.3.5,2.607c.13.7.256,1.4.383,2.1-2.644-1.063-10.414-3.9-16.721-3.355,4.439,2.359,13.867,3.4,16.778,3.668q.308,1.719.6,3.442c.473,2.83.927,5.665,1.333,8.509.427,2.84.786,5.692,1.108,8.55l.16-.015c-.2-5.772-.749-11.513-1.484-17.228-.13-1.028-.272-2.057-.419-3.084C644.631,6175.618,650.1,6171.1,652.228,6166.387Z" transform="translate(-554.698 -6049.905)" fill="#85c4f2"/>
      </g>
      <g id="Grupo_53817" data-name="Grupo 53817" transform="translate(214.488 20.019)">
        <path id="Trazado_101114" data-name="Trazado 101114" d="M863.675,6036.285a4.4,4.4,0,0,1-3.67,7.25,4.4,4.4,0,0,0,.3-3.88,3.08,3.08,0,0,0-.964-5.8,3.081,3.081,0,0,1-1.227,5.678,3.02,3.02,0,0,1-.816,0,3.066,3.066,0,0,0,2.01.436,3.1,3.1,0,0,0,.65-.158,4.4,4.4,0,0,1-8.066,2.213,4.4,4.4,0,0,0,7.63,2.185c.035-.04.067-.081.1-.122a4.4,4.4,0,1,0,4.055-7.8Z" transform="translate(-746.929 -6011.566)" fill="#573d60"/>
        <path id="Trazado_101115" data-name="Trazado 101115" d="M841.815,6044.179a20.8,20.8,0,0,1-6.581-1.042,1.3,1.3,0,0,1-.924-1.289,83.354,83.354,0,0,1,.932-10.01,8.547,8.547,0,1,0,6.916,15.529,25.616,25.616,0,0,0-.431-3.132Z" transform="translate(-748.52 -6011.718)" fill="#64486d"/>
        <path id="Trazado_101116" data-name="Trazado 101116" d="M878.926,6237.268a8.494,8.494,0,0,0-.962-1.925,2.891,2.891,0,0,1,.057.873c-.341,3.778-5.787,3.987-9.659,4.679a11.186,11.186,0,0,0-4.058,1.954l-.7.573a7.231,7.231,0,0,0-2.14-5.3,9.144,9.144,0,0,0,4.945-6.665c3.686.737,8.124-1.115,9.287-1.643l.033-.015c.166-.076.258-.122.258-.122l-.658-2.6c-.051.027-.1.051-.152.076A18.543,18.543,0,0,1,866.2,6229a2.02,2.02,0,0,0-1.124-1.159,8.236,8.236,0,0,1-.273.836c-.106.28-.229.568-.365.864a.337.337,0,0,1,.032.028,1.666,1.666,0,0,1,.458.841,2.546,2.546,0,0,1,.033.937,6.3,6.3,0,0,1-1.351,2.835c-1.889,2.521-3.545,3.2-4.252,3.386a2.026,2.026,0,0,1-.364.066,13.649,13.649,0,0,0-1.032,1.121c.065.018.125.039.187.059,3.3,1.036,3.515,4.843,3.515,5.774a16.125,16.125,0,0,1-8.376,2.616,4.561,4.561,0,0,1-2.549-.675,2.318,2.318,0,0,1-.9-.891l-.04.015s.2,6.231,7,5.215,8.66-5.122,13.144-5.7a17.977,17.977,0,0,1,2.921-.174C876.842,6245.13,880.23,6241.023,878.926,6237.268Z" transform="translate(-747.085 -5997.096)" fill="#64486d"/>
        <path id="Trazado_101117" data-name="Trazado 101117" d="M865.153,6229.411a18.543,18.543,0,0,0,8.976-1.852c-.37-2.021-.665-4.156-.884-5.959l-8.3.918a21.256,21.256,0,0,1-1.192,6.57,8.236,8.236,0,0,0,.273-.836A2.02,2.02,0,0,1,865.153,6229.411Z" transform="translate(-746.04 -5997.506)" fill="#ffcdbb"/>
        <path id="Trazado_101118" data-name="Trazado 101118" d="M875.146,6230.957c-2.26,2.469-6.429,1.823-8.969,1.113a8.3,8.3,0,0,1-3.9,5.7c1.538,1.771,1.091,4.887,1.091,4.887h0a11.186,11.186,0,0,1,4.058-1.954c3.872-.692,9.318-.9,9.659-4.679a2.891,2.891,0,0,0-.057-.873,3.459,3.459,0,0,0-.682-1.413,12.039,12.039,0,0,1-1.556-4.134l-.033.015C874.841,6229.907,874.964,6230.328,875.146,6230.957Z" transform="translate(-746.151 -5996.906)" fill="#ffcdbb"/>
        <path id="Trazado_101119" data-name="Trazado 101119" d="M862.942,6234.008a6.3,6.3,0,0,0,1.351-2.835l-.033-.937a1.666,1.666,0,0,0-.458-.841,26.3,26.3,0,0,1-5.112,8C859.4,6237.21,861.054,6236.529,862.942,6234.008Z" transform="translate(-746.42 -5996.922)" fill="#ffcdbb"/>
        <path id="Trazado_101120" data-name="Trazado 101120" d="M850.742,6245.711a4.561,4.561,0,0,0,2.549.675,16.125,16.125,0,0,0,8.376-2.616c0-.931-.211-4.738-3.515-5.774a22.411,22.411,0,0,1-6.295,4.551c-1.578.563-2.424,1.407-2.011,2.274A2.318,2.318,0,0,0,850.742,6245.711Z" transform="translate(-747.09 -5996.278)" fill="#ffcdbb"/>
        <path id="Trazado_101121" data-name="Trazado 101121" d="M862.4,6237.77a8.3,8.3,0,0,0,3.9-5.7c2.54.71,6.708,1.356,8.969-1.113-.183-.629-.305-1.05-.388-1.336-1.163.528-5.6,2.38-9.287,1.643a9.144,9.144,0,0,1-4.945,6.665,7.231,7.231,0,0,1,2.14,5.3l.7-.573h0S863.94,6239.541,862.4,6237.77Z" transform="translate(-746.273 -5996.905)" fill="#e0a696"/>
        <path id="Trazado_101122" data-name="Trazado 101122" d="M863.872,6230.178l.033.937A2.546,2.546,0,0,0,863.872,6230.178Z" transform="translate(-746.031 -5996.863)" fill="#e0a696"/>
        <path id="Trazado_101123" data-name="Trazado 101123" d="M856.714,6127.992c-.005.435-.01.871-.008,1.3-.005,1.5.035,2.994.154,4.472.065.737.154,1.471.275,2.188a9.547,9.547,0,0,0,.569,2.051,2.133,2.133,0,0,0,1.109,1.3,1.179,1.179,0,0,0,.368.049,1.435,1.435,0,0,0,.393-.072,1.947,1.947,0,0,0,.732-.46,5.663,5.663,0,0,0,1.148-1.672,16.189,16.189,0,0,0,.793-2.021,38.7,38.7,0,0,0,1.09-4.306q.432-2.194.754-4.424c.106-.725.21-1.452.3-2.181-2.072.286-4.369.56-6.7.755Z" transform="translate(-746.568 -6004.799)" fill="#64486d"/>
        <path id="Trazado_101124" data-name="Trazado 101124" d="M818.983,6073.087c1.312-.234,2.566-.466,3.727-.688v-.017C821.874,6072.545,820.658,6072.777,818.983,6073.087Z" transform="translate(-749.393 -6008.681)" fill="#ffcdbb"/>
        <path id="Trazado_101125" data-name="Trazado 101125" d="M829.742,6064.748l.8-11c-5.145,1.109-21.642,8.946-28.731,12.38a165.967,165.967,0,0,0-7.823-15.973c.288,2.019.539,4.043.738,6.071q.313,3.094.489,6.2c.1,1.722.166,3.447.163,5.181a17.43,17.43,0,0,1-1.175,8l.014.011a4.1,4.1,0,0,0,.459.569c2.262,2.319,15.986.391,26.16-1.424C820.277,6067.484,829.742,6064.748,829.742,6064.748Z" transform="translate(-751.266 -6010.346)" fill="#ffcdbb"/>
        <path id="Trazado_101126" data-name="Trazado 101126" d="M854.637,6053.7c-.849-.217-1.67-.425-2.448-.625.034-.745.068-1.491.1-2.231.2-4.357.405-8.526.542-11.262a3.5,3.5,0,0,1-1.02-.264,9.941,9.941,0,0,1-5.616,3.482,24.28,24.28,0,0,1-4.893.82l-.088.055a25.616,25.616,0,0,1,.431,3.132,10.9,10.9,0,0,1-.669,5.467l-.09.023a30.165,30.165,0,0,1-3.413.571l.235,16.55Z" transform="translate(-748.008 -6011.158)" fill="#eab3a2"/>
        <path id="Trazado_101127" data-name="Trazado 101127" d="M829.788,6065.711l-.328-.23-.008.009Z" transform="translate(-748.609 -6009.198)" fill="#eab3a2"/>
        <path id="Trazado_101128" data-name="Trazado 101128" d="M828.948,6065.474a32.777,32.777,0,0,0,.234-12.274l-.5.185-.01.132-.8,11s-9.465,2.736-8.909,10.008h0l.021,0c1.675-.31,2.891-.542,3.727-.705C822.639,6071.041,824.125,6068.048,828.948,6065.474Z" transform="translate(-749.396 -6010.118)" fill="#ffc1ae"/>
        <path id="Trazado_101129" data-name="Trazado 101129" d="M829.543,6065.556l.008-.009c-.826-.58-1.3-.927-1.3-.927S828.73,6065.008,829.543,6065.556Z" transform="translate(-748.699 -6009.263)" fill="#ffc1ae"/>
        <path id="Trazado_101130" data-name="Trazado 101130" d="M810.692,6225.459l.132-.928a1.67,1.67,0,0,0-.3-.908,26.325,26.325,0,0,1-6.444,6.97c.729-.056,2.479-.434,4.782-2.582A6.3,6.3,0,0,0,810.692,6225.459Z" transform="translate(-750.51 -5997.354)" fill="#ffcdbb"/>
        <path id="Trazado_101131" data-name="Trazado 101131" d="M810.524,6223.3a8.2,8.2,0,0,0,.417-.775,2.019,2.019,0,0,1,.9,1.34,18.57,18.57,0,0,0,9.162-.238c-.006-1.744.055-3.557.136-5.173l-8.281-1.424A21.262,21.262,0,0,1,810.524,6223.3Z" transform="translate(-750.027 -5997.848)" fill="#ffcdbb"/>
        <path id="Trazado_101132" data-name="Trazado 101132" d="M821.414,6227.072c-2.661,2.03-6.65.659-9.025-.488a8.291,8.291,0,0,1-4.842,4.922c1.2,2.014.211,5,.211,5h0a11.175,11.175,0,0,1,4.34-1.207c3.932,0,9.33.76,10.333-2.9a2.911,2.911,0,0,0,.1-.87,3.454,3.454,0,0,0-.421-1.511,12.01,12.01,0,0,1-.8-4.343l-.035.008C821.3,6225.984,821.345,6226.42,821.414,6227.072Z" transform="translate(-750.25 -5997.2)" fill="#ffcdbb"/>
        <path id="Trazado_101133" data-name="Trazado 101133" d="M797.155,6238.45a16.129,16.129,0,0,0,8.708-1.1c.163-.917.629-4.7-2.44-6.3a22.419,22.419,0,0,1-7,3.368c-1.653.276-2.635.958-2.381,1.882a2.3,2.3,0,0,0,.724,1.035A4.565,4.565,0,0,0,797.155,6238.45Z" transform="translate(-751.264 -5996.798)" fill="#ffcdbb"/>
        <path id="Trazado_101134" data-name="Trazado 101134" d="M792.726,6048.465a1.163,1.163,0,0,1-1.163,1.163h-2.155a1.13,1.13,0,0,1-.318-.05q-.11,1.329-.238,2.655c-.092,1.022-.209,2.041-.319,3.062,1.008,4.408,1.972,8.2,2.788,11.23a19.644,19.644,0,0,1,3.8-1.069q-.231-1.362-.427-2.729-.442-3.081-.755-6.174t-.491-6.2c-.037-.625-.067-1.251-.092-1.877q-.314-.563-.627-1.114Z" transform="translate(-751.674 -6010.555)" fill="#ffcdbb"/>
        <path id="Trazado_101135" data-name="Trazado 101135" d="M788.266,6052.221q.223-1.422.47-2.842a1.161,1.161,0,0,1-.356-.834v-2.255h-1.652c.47,2.362.945,4.613,1.413,6.738C788.183,6052.76,788.221,6052.49,788.266,6052.221Z" transform="translate(-751.809 -6010.635)" fill="#ffcdbb"/>
        <path id="Trazado_101136" data-name="Trazado 101136" d="M827.488,6187.122v-.035c-.039,1.575-.13,3.006-.243,4.222A41.869,41.869,0,0,0,827.488,6187.122Z" transform="translate(-748.775 -6000.09)" fill="#64486d"/>
        <path id="Trazado_101137" data-name="Trazado 101137" d="M870.333,6187.541c-.213-.618-.431-1.214-.654-1.8a52.455,52.455,0,0,1,2.048,7.543A38.639,38.639,0,0,0,870.333,6187.541Z" transform="translate(-745.597 -6000.191)" fill="#64486d"/>
        <path id="Trazado_101138" data-name="Trazado 101138" d="M878.123,6223.732a183.045,183.045,0,0,0-1.519-24.34c-.027-.076-5.664-16.25-20.064-21.317,0,0,5.274-.685,7.382-4.8l.073.075,8.429-32.565a51.659,51.659,0,0,0,1.452-17.414c-1.416.25-3.319.565-5.485.869-.006.762-.034,1.522-.066,2.283-.082,1.509-.211,3.019-.427,4.521a31.693,31.693,0,0,1-.932,4.48,14.85,14.85,0,0,1-.819,2.188,6.715,6.715,0,0,1-1.381,2.033,2.686,2.686,0,0,1-2.635.715,2.475,2.475,0,0,1-1.161-.849,4.26,4.26,0,0,1-.621-1.122,10.561,10.561,0,0,1-.556-2.309,19.544,19.544,0,0,1-.174-2.3,37.918,37.918,0,0,1,.183-4.549c.018-.178.04-.356.059-.535-1.452-.489-9.16-2.771-21.04-.677a16.777,16.777,0,0,1-3.481,1.249,37.743,37.743,0,0,1,.178,4.512,19.121,19.121,0,0,1-.174,2.3,10.5,10.5,0,0,1-.556,2.309,4.227,4.227,0,0,1-.621,1.122,2.464,2.464,0,0,1-1.161.849,2.686,2.686,0,0,1-2.635-.715,6.751,6.751,0,0,1-1.381-2.033,15.1,15.1,0,0,1-.819-2.187,31.857,31.857,0,0,1-.932-4.48c-.034-.243-.065-.487-.095-.73-1.269.015-2.079-.027-2.079-.027a26.956,26.956,0,0,1-3.3-.9l-12.488,31.561c-.131.285-.4.895-.675,1.706l0,0h0a15.959,15.959,0,0,0-.886,4.454,8.359,8.359,0,0,0,1.517,4.664l2.006,41.6a19.236,19.236,0,0,0,12.259,7.264l-12-1.925h0l-.762-.122,1.008,5.223,1.331.229,8.281,1.425.709.122,2.113-4.842-.679-.109a188.287,188.287,0,0,0,4.868-21.793h0c-1.493-11.627-6.346-23.07-13.231-27.167a13.6,13.6,0,0,0,8.706-2.342l.028.04c3.216-3.917,17.538-21.694,22-32.973a7.83,7.83,0,0,1,1.465.428v34.194h0a9.065,9.065,0,0,0-.723,4.613c.291,1.951,2.033,3.729,3.369,4.834l15.526,40.015-.071-.208A22.109,22.109,0,0,0,878.123,6223.732Z" transform="translate(-750.237 -6004.863)" fill="#64486d"/>
        <path id="Trazado_101139" data-name="Trazado 101139" d="M827.81,6134.77a16.189,16.189,0,0,0,.793,2.021,5.646,5.646,0,0,0,1.149,1.672,1.938,1.938,0,0,0,.732.46,1.434,1.434,0,0,0,.392.072,1.175,1.175,0,0,0,.368-.049,2.131,2.131,0,0,0,1.11-1.3,9.6,9.6,0,0,0,.569-2.051c.122-.718.211-1.451.275-2.188.114-1.431.155-2.878.153-4.327a37.023,37.023,0,0,1-6.741.788c.038.2.071.4.11.6A38.934,38.934,0,0,0,827.81,6134.77Z" transform="translate(-748.822 -6004.435)" fill="#64486d"/>
        <path id="Trazado_101140" data-name="Trazado 101140" d="M861.048,6106.924c-.551.024-1.106.037-1.661.04.486,1.481.951,2.716,1.309,3.613,3.28,3,4.982,8.127,3.858,14.833l-.034,0c0,.058,0,.116,0,.174,2.166-.3,4.07-.619,5.485-.87,1.624-.287,2.608-.488,2.608-.488l-5.7-18.731h0A17.554,17.554,0,0,1,861.048,6106.924Z" transform="translate(-746.367 -6006.202)" fill="#fff"/>
        <path id="Trazado_101141" data-name="Trazado 101141" d="M857.624,6125.131c2.333-.2,4.63-.47,6.7-.755.012-.089.023-.178.033-.269a20.564,20.564,0,0,1-5.772-1.94Z" transform="translate(-746.499 -6004.953)" fill="#fff"/>
        <path id="Trazado_101142" data-name="Trazado 101142" d="M835.889,6090.625a3.685,3.685,0,0,1,2-1.125,37.84,37.84,0,0,1,10.985-.311,22.363,22.363,0,0,0-7.748-5.662s13.477,4.667,17.5-9.159q-.018-2.094-.018-4.442c.473-9.344,4.97-12.843,8.7-14.047-2.574-1.362-11.085-3.519-11.085-3.519l-.459.425L838.836,6068.5l-.235-16.55-.005-.424a32.525,32.525,0,0,0-9.744,1.43c.025.123.046.244.069.367a32.777,32.777,0,0,1-.234,12.274s.474.347,1.3.927l.328.23-.335-.221c-.813-.547-1.292-.937-1.292-.937-4.823,2.574-6.31,5.566-6.235,8.344v.017c.143,4.941,5.215,9.2,5.215,9.2l1.348,8.572A61.229,61.229,0,0,1,835.889,6090.625Zm10.251-22.066,7.956,1.184-.317,1.971-.212,1.316-8.18-1.35.648-2.687Z" transform="translate(-749.134 -6010.243)" fill="#fff"/>
        <path id="Trazado_101143" data-name="Trazado 101143" d="M807.669,6231.507a8.291,8.291,0,0,0,4.842-4.922c2.374,1.146,6.363,2.518,9.025.488-.069-.651-.115-1.088-.146-1.384-1.238.316-5.933,1.354-9.431-.021a9.145,9.145,0,0,1-6.044,5.686,7.227,7.227,0,0,1,1.169,5.6l.793-.44h0S808.87,6233.521,807.669,6231.507Z" transform="translate(-750.372 -5997.201)" fill="#e0a696"/>
        <path id="Trazado_101144" data-name="Trazado 101144" d="M810.363,6224.468l-.132.928A2.533,2.533,0,0,0,810.363,6224.468Z" transform="translate(-750.049 -5997.291)" fill="#e0a696"/>
        <path id="Trazado_101145" data-name="Trazado 101145" d="M813.083,6223.48a2.019,2.019,0,0,0-.9-1.34,8.2,8.2,0,0,1-.417.775c-.154.256-.326.519-.512.785,0,0,.011.012.027.034a1.67,1.67,0,0,1,.3.908,2.533,2.533,0,0,1-.132.928,6.3,6.3,0,0,1-1.832,2.552c-2.3,2.148-4.053,2.526-4.782,2.582a2.007,2.007,0,0,1-.371,0,13.857,13.857,0,0,0-1.215.921c.061.028.117.061.175.09,3.069,1.6,2.6,5.388,2.44,6.3a16.129,16.129,0,0,1-8.708,1.1,4.565,4.565,0,0,1-2.388-1.116,2.3,2.3,0,0,1-.724-1.035l-.042.008s-.9,6.169,5.972,6.37,9.43-3.512,13.943-3.286a17.93,17.93,0,0,1,2.905.345c3.887.832,7.947-2.612,7.328-6.539a8.515,8.515,0,0,0-.607-2.066,2.911,2.911,0,0,1-.1.87c-1,3.66-6.4,2.9-10.333,2.9a11.175,11.175,0,0,0-4.34,1.207l-.793.44a7.227,7.227,0,0,0-1.169-5.6,9.145,9.145,0,0,0,6.044-5.686c3.5,1.375,8.193.337,9.431.021l.035-.008c.177-.045.275-.075.275-.075l-.188-2.676-.162.049A18.57,18.57,0,0,1,813.083,6223.48Z" transform="translate(-751.267 -5997.465)" fill="#64486d"/>
        <path id="Trazado_101146" data-name="Trazado 101146" d="M858.186,6093.463l.032-.019.018.067c-.229-1.806-.8-7.579-.912-20.736-4.026,13.826-17.5,9.159-17.5,9.159a22.363,22.363,0,0,1,7.748,5.662c3.5.393,6.4,1.2,7.48,2.179-.028.107-.057.209-.086.314a6.527,6.527,0,0,1,2.515,1.478c-.045.261-.089.545-.132.852A2.5,2.5,0,0,1,858.186,6093.463Z" transform="translate(-747.833 -6008.652)" fill="#e7dcea"/>
        <path id="Trazado_101147" data-name="Trazado 101147" d="M834.055,6042.574a1.3,1.3,0,0,0,.924,1.289,20.8,20.8,0,0,0,6.581,1.042,24.28,24.28,0,0,0,4.893-.82,9.941,9.941,0,0,0,5.616-3.482,3.5,3.5,0,0,0,1.02.264c3.53.376,7.652-4.293,6.8-6.713-.6-1.711-3.155-1.156-4.979-.5h0c-2.475-.955.1-9.193.1-9.193l-.052-.031c-.541,2.017-1.528,4.057-3.336,4.9l-5.576-2.984a4.75,4.75,0,0,1,2.219-3.267c-2.831.707-2.8,2.854-2.8,2.854l-7.668-3.808a33.3,33.3,0,0,0-1.441,4.115c.058,0,.117-.009.175-.009a2.484,2.484,0,0,1,.846.148,2.2,2.2,0,0,1,.8.5,2.314,2.314,0,0,1-.843.4,3.266,3.266,0,0,1-.793.1,3.574,3.574,0,0,1-.48-.034c-.433,1.7-.781,3.456-1.06,5.212A83.354,83.354,0,0,0,834.055,6042.574Zm1.291-4.623.788-.388a.7.7,0,0,1,1.025.378l.305.674.951-.251a1.742,1.742,0,0,1,1.337.142l3.247,1.829S837.178,6041.352,835.346,6037.952Zm8.457-4.675a.756.756,0,0,1-.907-.593.8.8,0,0,1,.592-.936.755.755,0,0,1,.906.593A.8.8,0,0,1,843.8,6033.277Zm-5.266,8.714a1.656,1.656,0,0,1-.6-.094,1.631,1.631,0,0,1-.523-.3,1.241,1.241,0,0,1-.362-.51,2.913,2.913,0,0,1,.59.075,4.525,4.525,0,0,1,.5.146,4.423,4.423,0,0,1,.484.2,2.842,2.842,0,0,1,.507.31A1.214,1.214,0,0,1,838.537,6041.991Zm19.508-6.475a13.969,13.969,0,0,0-1.445.316,8.526,8.526,0,0,0-1.238.46,10.527,10.527,0,0,0-1.172.639c-.394.243-.784.523-1.248.826a2.864,2.864,0,0,1,.633-1.492,3.565,3.565,0,0,1,1.306-1.021,3.428,3.428,0,0,1,1.64-.312A2.573,2.573,0,0,1,858.046,6035.516Zm-14.109-7.4a9,9,0,0,1,1.706.561,4.014,4.014,0,0,1,1.593,1.1,2.038,2.038,0,0,1,.425.949,2.5,2.5,0,0,1-.051.956c-.171-.27-.313-.534-.477-.749a2.133,2.133,0,0,0-.535-.512,8.615,8.615,0,0,0-1.413-.69c-.536-.233-1.049-.5-1.554-.768s-1.006-.556-1.542-.893A4.483,4.483,0,0,1,843.937,6028.116Zm-4.767.951a5.4,5.4,0,0,1-.431,2.91,5.624,5.624,0,0,1-.784,1.314,2.224,2.224,0,0,1-.678.566,1.906,1.906,0,0,1-.429.151.6.6,0,0,0-.2.07c-.045.023-.094.092-.1.243a.954.954,0,0,0,.1.464,2.286,2.286,0,0,0,.815.865,6.368,6.368,0,0,0,2.633.717,5.818,5.818,0,0,1-1.455.216,3.592,3.592,0,0,1-1.512-.305,2.67,2.67,0,0,1-1.237-1.078,1.752,1.752,0,0,1-.241-.912,1.348,1.348,0,0,1,.118-.523,1.072,1.072,0,0,1,.4-.459,1.486,1.486,0,0,1,.469-.178,1.061,1.061,0,0,0,.247-.077,1.446,1.446,0,0,0,.43-.331,7.507,7.507,0,0,0,.8-1.068A9.223,9.223,0,0,0,839.169,6029.067Zm-2.787.233a.755.755,0,0,1,.906.594.794.794,0,0,1-.591.934.754.754,0,0,1-.907-.592A.8.8,0,0,1,836.382,6029.3Z" transform="translate(-748.265 -6012.445)" fill="#ffcdbb"/>
        <path id="Trazado_101148" data-name="Trazado 101148" d="M836.577,6030.33a.794.794,0,0,0,.591-.934.755.755,0,0,0-.906-.594.8.8,0,0,0-.592.936A.754.754,0,0,0,836.577,6030.33Z" transform="translate(-748.145 -6011.946)" fill="#4b3c4f"/>
        <path id="Trazado_101149" data-name="Trazado 101149" d="M842.873,6031.079a.8.8,0,0,0-.592.936.756.756,0,0,0,.907.593.8.8,0,0,0,.591-.936A.755.755,0,0,0,842.873,6031.079Z" transform="translate(-747.65 -6011.776)" fill="#4b3c4f"/>
        <path id="Trazado_101150" data-name="Trazado 101150" d="M844.624,6029.326a8.615,8.615,0,0,1,1.413.69,2.133,2.133,0,0,1,.535.512c.164.215.306.479.477.749a2.5,2.5,0,0,0,.051-.956,2.038,2.038,0,0,0-.425-.949,4.014,4.014,0,0,0-1.593-1.1,9,9,0,0,0-1.706-.561,4.483,4.483,0,0,0-1.85-.042c.536.336,1.036.615,1.542.893S844.087,6029.093,844.624,6029.326Z" transform="translate(-747.705 -6012.036)" fill="#64486d"/>
        <path id="Trazado_101151" data-name="Trazado 101151" d="M837.26,6027a2.315,2.315,0,0,0,.843-.4,2.212,2.212,0,0,0-.8-.5,2.484,2.484,0,0,0-.846-.148c-.058,0-.117,0-.175.01a2.19,2.19,0,0,0-.7.168,1.284,1.284,0,0,0-.723.677c.35.083.585.172.844.222.093.02.186.031.279.044a3.574,3.574,0,0,0,.48.034A3.29,3.29,0,0,0,837.26,6027Z" transform="translate(-748.204 -6012.159)" fill="#64486d"/>
        <path id="Trazado_101152" data-name="Trazado 101152" d="M842.91,6039.268l-3.247-1.829a1.742,1.742,0,0,0-1.337-.142l-.951.251-.305-.674a.7.7,0,0,0-1.025-.378l-.788.388C837.088,6040.283,842.91,6039.268,842.91,6039.268Z" transform="translate(-748.175 -6011.375)" fill="#ea6a6a"/>
        <path id="Trazado_101153" data-name="Trazado 101153" d="M837.94,6039.984a4.525,4.525,0,0,0-.5-.146,2.913,2.913,0,0,0-.59-.075,1.241,1.241,0,0,0,.362.51,1.631,1.631,0,0,0,.523.3,1.656,1.656,0,0,0,.6.094,1.214,1.214,0,0,0,.6-.173,2.842,2.842,0,0,0-.507-.31A4.423,4.423,0,0,0,837.94,6039.984Z" transform="translate(-748.056 -6011.124)" fill="#eab3a2"/>
        <path id="Trazado_101154" data-name="Trazado 101154" d="M856.088,6069.631q0,2.351.018,4.442c.108,13.157.683,18.93.912,20.736.233.86,2.96,10.615,6.916,12.55a5.609,5.609,0,0,0,2.421-1.542,7.474,7.474,0,0,0,1.719-3.977h0l.006-.04c.012-.083.024-.166.034-.249,5.266-37.093,2.3-44.178-2.884-46.1-.146.042-.295.087-.443.136C861.058,6056.788,856.561,6060.287,856.088,6069.631Z" transform="translate(-746.614 -6009.949)" fill="#ffcdbb"/>
        <path id="Trazado_101155" data-name="Trazado 101155" d="M848.059,6023.754a4.75,4.75,0,0,0-2.219,3.267l5.576,2.984c1.808-.845,2.8-2.885,3.336-4.9l.052.031s-2.571,8.238-.1,9.193h0c1.824-.653,4.377-1.208,4.979.5.851,2.419-3.271,7.089-6.8,6.713-.136,2.735-.341,6.9-.542,11.262a6.62,6.62,0,0,0,5.434-3.048c7.248,4.878,12.617-4.3,9.485-8.582a4.395,4.395,0,0,1-6.51,4.461c-.033.041-.064.082-.1.122a4.4,4.4,0,0,1-7.63-2.185,4.4,4.4,0,0,0,8.066-2.213,3.1,3.1,0,0,1-.65.158,3.066,3.066,0,0,1-2.01-.436,3.02,3.02,0,0,0,.816,0,3.081,3.081,0,0,0,1.227-5.678,3.08,3.08,0,0,1,.964,5.8,4.4,4.4,0,0,1-.3,3.88,4.4,4.4,0,0,0,3.67-7.25,4.405,4.405,0,0,1,2.233,2.463c1.4-5.183-2.508-7.423-3.974-8.065a2.485,2.485,0,0,0-.442-.208,16.154,16.154,0,0,0,1.744-8.977c-.714-5.608-14.194-13.366-19-8.276-7.444.021-8.627,7.606-8.627,7.606l.843.419,7.668,3.808S845.228,6024.461,848.059,6023.754Zm13.806,8.131a2.49,2.49,0,0,0-1.977.877c-.437-2.918-1.713-7.581-5.4-7.7,0,0,4.2-.863,6.039,5.224.143-3.628-.391-8.887-4.5-9.919C856.031,6020.369,862.854,6020.443,861.865,6031.885Z" transform="translate(-748.063 -6013.12)" fill="#64486d"/>
        <path id="Trazado_101156" data-name="Trazado 101156" d="M863.744,6103.85h0l-.025.007c-.187.062-.383.115-.585.163a12.685,12.685,0,0,1-4.518.449c.271.976.551,1.894.827,2.732.555,0,1.109-.016,1.661-.04a17.554,17.554,0,0,0,5.87-1.434h0l-.81-3.42A5.609,5.609,0,0,1,863.744,6103.85Z" transform="translate(-746.425 -6006.44)" fill="#e7dcea"/>
        <path id="Trazado_101157" data-name="Trazado 101157" d="M809.495,6089.6l2.194.08C810.669,6089.643,809.848,6089.616,809.495,6089.6Z" transform="translate(-750.104 -6007.391)" fill="#eab3a2"/>
        <path id="Trazado_101158" data-name="Trazado 101158" d="M811.154,6090.431c.578-.009.543-.747.543-.747h-.008l-2.194-.08h0S809.741,6090.537,811.154,6090.431Z" transform="translate(-750.104 -6007.391)" fill="#ffcdbb"/>
        <path id="Trazado_101159" data-name="Trazado 101159" d="M813.3,6087.4l2.162.381C814.461,6087.6,813.651,6087.463,813.3,6087.4Z" transform="translate(-749.819 -6007.556)" fill="#eab3a2"/>
        <path id="Trazado_101160" data-name="Trazado 101160" d="M822.278,6093.542a16.628,16.628,0,0,1-1.7,2.262,15.564,15.564,0,0,0-1.47,1.927c.163,0,.312.01.453.02l4.759-7.328c-.352-.214-.689-.412-1.009-.592A6.2,6.2,0,0,1,822.278,6093.542Z" transform="translate(-749.384 -6007.375)" fill="#eab3a2"/>
        <path id="Trazado_101161" data-name="Trazado 101161" d="M814.833,6088.452c.575.071.642-.664.642-.664h0l-.009,0-2.162-.381h0S813.419,6088.36,814.833,6088.452Z" transform="translate(-749.819 -6007.556)" fill="#ffcdbb"/>
        <path id="Trazado_101162" data-name="Trazado 101162" d="M810.549,6092.27c.546-.008.546-.665.544-.739v-.007l-2.2-.08a.736.736,0,0,0,.053.128A1.5,1.5,0,0,0,810.549,6092.27Z" transform="translate(-750.149 -6007.253)" fill="#ffcdbb"/>
        <path id="Trazado_101163" data-name="Trazado 101163" d="M820.13,6094.924a15.043,15.043,0,0,0,1.54-2.035,5.516,5.516,0,0,0,.81-2.2,1.987,1.987,0,0,0-.536-1.641c-.949-.254-2.429-.562-3.89-.844l-1.937-.362c-.09-.017-.178-.033-.266-.048,0,0-.067.734-.642.664-1.413-.091-1.531-1.048-1.531-1.049l-.183-.031s-.187.992,1.8,1.95c.572.274,1.273.563,2,.853-1.547-.145-3.806-.255-5.515-.324,0,0,.035.737-.543.747-1.412.105-1.662-.827-1.662-.827l-.185,0s-.048,1.008,2.055,1.68c.393.125.841.25,1.317.372-.56,0-1.115.01-1.632.018,0,.074,0,.731-.544.739a1.5,1.5,0,0,1-1.608-.7c-.448.009-.721.018-.721.018s.01,1.009,2.148,1.561,5.827.961,7.029,1.509c.174.08.456.232.8.431-2.812.6-7,1.708-7,1.708s.24.981,2.448,1.028c1.216.026,2.879-.1,4.345-.168.049-.113.1-.227.158-.339A13.8,13.8,0,0,1,820.13,6094.924Zm-6.483,2.387c-1.332.483-1.823-.346-1.823-.346l2.143-.52S814.2,6097.145,813.647,6097.312Z" transform="translate(-750.196 -6007.559)" fill="#eab3a2"/>
        <path id="Trazado_101164" data-name="Trazado 101164" d="M811.576,6096.333s.491.83,1.823.346c.555-.167.32-.866.32-.866Z" transform="translate(-749.948 -6006.926)" fill="#ffcdbb"/>
        <path id="Trazado_101165" data-name="Trazado 101165" d="M863.406,6103.749c-.2.06-.392.112-.585.163C863.023,6103.864,863.219,6103.811,863.406,6103.749Z" transform="translate(-746.11 -6006.332)" fill="#ffcdbb"/>
        <path id="Trazado_101166" data-name="Trazado 101166" d="M783.029,6044.827h3.629q-.423-2.193-.834-4.5a6.268,6.268,0,0,1-.568,1.137l.046,1.2s-.924.277-2.25.646a2.37,2.37,0,0,1-.382.106h0C782.79,6043.9,782.91,6044.365,783.029,6044.827Z" transform="translate(-752.113 -6011.082)" fill="#ffc1ae"/>
        <path id="Trazado_101167" data-name="Trazado 101167" d="M787.526,6059.14l.466-3.462c.131-.883.258-1.767.393-2.649-.469-2.125-.944-4.376-1.413-6.738h-3.5c1.387,5.2,2.748,9.583,4.009,13.238Z" transform="translate(-752.053 -6010.635)" fill="#ffc1ae"/>
        <path id="Trazado_101168" data-name="Trazado 101168" d="M788.541,6055.156l-.415,3.47-.295,2.2c.793,2.2,1.538,4.1,2.214,5.717q.656-.3,1.327-.566c-.816-3.03-1.78-6.823-2.788-11.23C788.572,6054.88,788.555,6055.018,788.541,6055.156Z" transform="translate(-751.726 -6010.002)" fill="#ffc1ae"/>
        <path id="Trazado_101169" data-name="Trazado 101169" d="M859.293,6029.783c-1.834-6.087-6.039-5.224-6.039-5.224,3.685.117,4.961,4.779,5.4,7.7a2.49,2.49,0,0,1,1.977-.877c.989-11.441-5.835-11.516-5.835-11.516C858.9,6020.9,859.436,6026.155,859.293,6029.783Z" transform="translate(-746.827 -6012.614)" fill="#573d60"/>
        <path id="Trazado_101170" data-name="Trazado 101170" d="M855.206,6034.04a3.428,3.428,0,0,0-1.64.313,3.565,3.565,0,0,0-1.306,1.021,2.864,2.864,0,0,0-.633,1.492c.464-.3.853-.583,1.248-.826a10.527,10.527,0,0,1,1.172-.639,8.526,8.526,0,0,1,1.238-.46,13.969,13.969,0,0,1,1.445-.316A2.573,2.573,0,0,0,855.206,6034.04Z" transform="translate(-746.949 -6011.553)" fill="#f2bbaa"/>
        <path id="Trazado_101171" data-name="Trazado 101171" d="M814.616,6168.475c6.885,4.1,11.738,15.54,13.231,27.167h0c.116-.691.239-1.634.343-2.763.113-1.215.2-2.646.243-4.222.172-6.886-.652-16.492-5.083-22.483l-.028-.04A13.6,13.6,0,0,1,814.616,6168.475Z" transform="translate(-749.72 -6001.66)" fill="#573d60"/>
        <path id="Trazado_101172" data-name="Trazado 101172" d="M860.52,6169.8c-2.108,4.116-7.382,4.8-7.382,4.8,14.4,5.067,20.037,21.241,20.064,21.317v0s-.065-.524-.238-1.443a52.444,52.444,0,0,0-2.048-7.543,45.824,45.824,0,0,0-10.324-17.06Z" transform="translate(-746.835 -6001.385)" fill="#573d60"/>
        <path id="Trazado_101173" data-name="Trazado 101173" d="M823.25,6214.367a19.235,19.235,0,0,1-12.259-7.265h0l.258,5.339h0Z" transform="translate(-749.992 -5998.591)" fill="#573d60"/>
        <path id="Trazado_101174" data-name="Trazado 101174" d="M874.1,6216.98h0a22.112,22.112,0,0,1-12.69-3.454l.071.208,1.567,4.594Z" transform="translate(-746.216 -5998.11)" fill="#573d60"/>
        <path id="Trazado_101175" data-name="Trazado 101175" d="M856.906,6092.023a1.13,1.13,0,0,1,.089.379,43.067,43.067,0,0,0,1.751,12.838,12.685,12.685,0,0,0,4.518-.449c.192-.051.385-.1.585-.163l.025-.007h0c-3.956-1.935-6.683-11.689-6.916-12.55l-.018-.067Z" transform="translate(-746.553 -6007.211)" fill="#ffc1ae"/>
        <path id="Trazado_101176" data-name="Trazado 101176" d="M874.423,6221.86l.69-5.237-1.023.125-11.056,1.349-1.435.175,2.414,4.739,1.1-.121,8.3-.917Z" transform="translate(-746.202 -5997.878)" fill="#64486d"/>
        <path id="Trazado_101177" data-name="Trazado 101177" d="M755.4,6111.051s11.85,2.152,18.257,12.64C769.12,6109.169,755.4,6111.051,755.4,6111.051Z" transform="translate(-754.155 -6005.791)" fill="#ea6a6a"/>
        <path id="Trazado_101178" data-name="Trazado 101178" d="M778.367,6123.789s4.26-10.044,18.258-12.639C796.625,6111.149,779.588,6109.163,778.367,6123.789Z" transform="translate(-752.435 -6005.785)" fill="#ea6a6a"/>
        <path id="Trazado_101179" data-name="Trazado 101179" d="M772.019,6043.823h3.071c-.336-.5-.773-1.061-1.231-1.64a16.916,16.916,0,0,1-2.57-3.984c-1.647-.216-3.847-.651-5.369-.778-2.2-.185-2.542.765-2.542.765s2.057.784,4.229,1.556c-.49-.041-.953-.072-1.366-.083-2.208-.058-2.495.911-2.495.911s4.878,1.546,7.6,2.217c-.787.033-1.544.074-2.174.145-2.194.249-2.344,1.247-2.344,1.247s1.735.293,3.73.6A1.606,1.606,0,0,1,772.019,6043.823Z" transform="translate(-753.558 -6011.301)" fill="#ffcdbb"/>
        <path id="Trazado_101180" data-name="Trazado 101180" d="M770.241,6034.333c-2.1-.682-2.65.164-2.65.164s1.37.927,3,1.987a3.759,3.759,0,0,1,.53-1.84C770.809,6034.528,770.514,6034.423,770.241,6034.333Z" transform="translate(-753.242 -6011.551)" fill="#ffcdbb"/>
        <path id="Trazado_101181" data-name="Trazado 101181" d="M777.809,6036.89a6.381,6.381,0,0,1,.115.74.853.853,0,1,0,1.7-.164c-.013-.135-.037-.322-.072-.538a8.428,8.428,0,0,0-.3-1.241c-.609-.428-1.662-.562-2.615-1.151A4.54,4.54,0,0,1,777.809,6036.89Z" transform="translate(-752.565 -6011.516)" fill="#64486d"/>
        <path id="Trazado_101182" data-name="Trazado 101182" d="M793.742,6046.423a1.827,1.827,0,0,1,1.824,1.824v.187a.954.954,0,0,0,1.909,0v-.187a3.738,3.738,0,0,0-3.733-3.733h-.748c.141.636.268,1.271.387,1.909Z" transform="translate(-751.34 -6010.768)" fill="#64486d"/>
        <path id="Trazado_101183" data-name="Trazado 101183" d="M758.083,6047.337h.63v2.2a12.549,12.549,0,0,0,4.48-3.241v1.041h7.62v.191a1.608,1.608,0,0,0,1.6,1.6h.655a14.508,14.508,0,0,0,8.274-4.542,1.594,1.594,0,0,0-1.038-.386h-2.855c-.017-.038-.032-.073-.051-.11a16.547,16.547,0,0,0-1.806-2.586,21.282,21.282,0,0,1-1.986-2.835,5.97,5.97,0,0,1-.372-.814,2.5,2.5,0,0,1,.211-2.44,3.2,3.2,0,0,1,.268-.329,3.361,3.361,0,0,1,3.519-.891,2.306,2.306,0,0,1,.279.132,3.715,3.715,0,0,1-.792-.967.379.379,0,0,1,.434-.549,9.4,9.4,0,0,0,1.586.272,4.023,4.023,0,0,0-.9-.48,5.056,5.056,0,0,0-5.379,1.324,4.845,4.845,0,0,0-.634.845,3.759,3.759,0,0,0-.53,1.84,5.045,5.045,0,0,0,.386,1.964,16.916,16.916,0,0,0,2.57,3.984c.458.579.894,1.136,1.231,1.64h-3.071a1.606,1.606,0,0,0-1.463.95,1.693,1.693,0,0,0-.094.274h-7.667v-.35a1.162,1.162,0,0,0-1.162-1.162h-2.155a1.162,1.162,0,0,0-1.163,1.162v.35h-.639C758.088,6046.065,758.089,6046.7,758.083,6047.337Z" transform="translate(-753.955 -6011.682)" fill="#64486d"/>
        <path id="Trazado_101184" data-name="Trazado 101184" d="M757.5,6044.514a3.258,3.258,0,0,0-3.254,3.254v.666a.955.955,0,0,0,1.91,0v-.666a1.346,1.346,0,0,1,1.344-1.345h.45c.116-.638.24-1.273.376-1.909Z" transform="translate(-754.242 -6010.768)" fill="#64486d"/>
        <path id="Trazado_101185" data-name="Trazado 101185" d="M775.681,6033.329a3.718,3.718,0,0,0,.792.968,3.8,3.8,0,0,0,.506.373c.953.589,2.006.723,2.615,1.15.025.018.052.034.075.052a2.381,2.381,0,0,1,.712,1.075l-.484.114c.035.216.059.4.072.537a.853.853,0,1,1-1.7.164,6.4,6.4,0,0,0-.115-.74c-.7-.024-1.24-.056-1.506-.092a26.436,26.436,0,0,1-4.245-1.546,2.5,2.5,0,0,0-.211,2.439c.385.243.761.477,1.115.691-.3.056-.555.1-.743.123a21.219,21.219,0,0,0,1.986,2.835,16.547,16.547,0,0,1,1.806,2.586c.018.037.033.072.051.11h2.855a1.6,1.6,0,0,1,1.247.6c1.04-.261,2.07-.535,2.959-.78h0a2.37,2.37,0,0,0,.382-.106c1.325-.369,2.25-.646,2.25-.646l-.046-1.2a6.257,6.257,0,0,0,.568-1.138q.411,2.3.834,4.5h2.026v-.35a1.162,1.162,0,0,1,1.163-1.161h.612c-1.769-2.834-3.291-4.9-4.186-5.4-.243-.271-.642-.709-1.126-1.218l.022-.134h-.149c-1.438-1.5-3.541-3.521-4.621-3.736-.963-.192-2.293-.218-3.5-.342a9.3,9.3,0,0,1-1.586-.272A.379.379,0,0,0,775.681,6033.329Z" transform="translate(-752.914 -6011.648)" fill="#ffcdbb"/>
        <path id="Trazado_101186" data-name="Trazado 101186" d="M776.891,6080.283c-2.24,1.539-10.912,6.974-15.965,2.616h0c1.283,7.117,2.368,18.25-1.507,25.184a38.279,38.279,0,0,1-4.018,5.267s13.719-1.882,18.257,12.64c0,0,2.487,1.708,6.429.1,1.221-14.626,18.258-12.639,18.258-12.639a38.19,38.19,0,0,1-4.019-5.267c-3.232-5.785-3.013-14.493-2.106-21.352a41.634,41.634,0,0,0-.531,5.9C789.272,6088.526,784.412,6082.507,776.891,6080.283Z" transform="translate(-754.155 -6008.089)" fill="#ff8383"/>
        <path id="Trazado_101187" data-name="Trazado 101187" d="M776.628,6078.467c-6.539,3.717-13.008,3.149-17.013-.671.08.525.2,1.221.363,2.125.159.86.366,1.9.632,3.165h0c5.053,4.358,13.725-1.077,15.965-2.616,7.521,2.224,12.381,8.243,14.8,12.45a41.634,41.634,0,0,1,.531-5.9c.588-4,1.482-8.031,1.706-9.021C789.5,6081.637,783.048,6082.116,776.628,6078.467Z" transform="translate(-753.84 -6008.276)" fill="#ea6a6a"/>
        <path id="Trazado_101188" data-name="Trazado 101188" d="M759.455,6077.641h0Z" transform="translate(-753.852 -6008.288)" fill="#ea6a6a"/>
        <path id="Trazado_101189" data-name="Trazado 101189" d="M789.745,6062.505l.171-1.266.295-2.2.415-3.47c.014-.138.03-.276.044-.414.111-1.021.227-2.039.319-3.062q.127-1.327.238-2.655a1.159,1.159,0,0,1-.489-.279q-.247,1.42-.47,2.842c-.045.269-.083.539-.125.807-.135.882-.262,1.766-.393,2.649l-.466,3.462-.046.388-.365,3.05c-13.264,3.067-23.067.91-25.328.315-.139-.74-.285-1.477-.426-2.215l-.63-3.024-.68-3.014c-.243-1-.471-2-.731-3q-.244-.968-.5-1.932H760q.174,1.044.363,2.085c.176,1.016.385,2.024.578,3.035l.63,3.024.678,3.013c.206.85.405,1.7.619,2.551l-1.063,3.963c8.641,4.233,14.791,13.447,14.791,13.447s5.817-8.412,13.944-12.854c-.218-1.131-.519-2.549-.933-4.32C789.655,6063.126,789.7,6062.816,789.745,6062.505Z" transform="translate(-753.811 -6010.42)" fill="#ea6a6a"/>
        <path id="Trazado_101190" data-name="Trazado 101190" d="M796.765,6068.041c0-1.733-.063-3.458-.163-5.181q-.179-3.106-.489-6.2c-.2-2.028-.45-4.052-.738-6.071-.005-.035-.01-.07-.014-.1-.195-1.353-.412-2.7-.664-4.048-.119-.638-.246-1.274-.387-1.909-.013-.061-.025-.123-.039-.184,0,.062,0,.123,0,.184-.011.637-.009,1.274,0,1.909q.016,1.134.063,2.265c.026.625.056,1.252.092,1.877q.181,3.106.491,6.2t.755,6.174q.2,1.367.427,2.729a19.644,19.644,0,0,0-3.8,1.069q-.671.263-1.327.566-.808.374-1.588.8c-8.126,4.441-13.944,12.854-13.944,12.854,6.419,3.649,12.873,3.17,16.982-.466a12.268,12.268,0,0,0,3.164-4.47A17.43,17.43,0,0,0,796.765,6068.041Z" transform="translate(-752.654 -6010.781)" fill="#ff8383"/>
        <path id="Trazado_101191" data-name="Trazado 101191" d="M776.911,6080.972s-6.15-9.214-14.791-13.447a20.479,20.479,0,0,0-5.588-1.851q.208-1.283.386-2.572.429-3.107.729-6.226c.2-2.079.353-4.163.464-6.25.074-1.394.126-2.791.139-4.19.006-.635.005-1.272-.009-1.909,0-.061,0-.123,0-.184-.014.062-.025.123-.038.184-.136.635-.26,1.271-.376,1.909-.248,1.364-.46,2.731-.649,4.1-.285,2.071-.531,4.146-.727,6.226s-.352,4.163-.462,6.25-.18,4.181-.131,6.284l.005-.025c-.073,4.714,1.407,8.417,3.861,10.861.148.59.334,1.366.537,2.293-.168-.9-.284-1.6-.363-2.125C763.9,6084.122,770.372,6084.689,776.911,6080.972Zm-17.185-.837Z" transform="translate(-754.122 -6010.781)" fill="#ff8383"/>
        <path id="Trazado_101192" data-name="Trazado 101192" d="M759.831,6049.781h2.155a1.163,1.163,0,0,0,1.162-1.163v-3.3a12.549,12.549,0,0,1-4.48,3.241v.055A1.163,1.163,0,0,0,759.831,6049.781Z" transform="translate(-753.911 -6010.708)" fill="#765582"/>
        <path id="Trazado_101193" data-name="Trazado 101193" d="M788.621,6049.452a1.159,1.159,0,0,0,.489.279,1.13,1.13,0,0,0,.318.05h2.155a1.163,1.163,0,0,0,1.163-1.163v-3.3a12.562,12.562,0,0,1-4.481,3.241v.055A1.161,1.161,0,0,0,788.621,6049.452Z" transform="translate(-751.694 -6010.708)" fill="#765582"/>
        <path id="Trazado_101194" data-name="Trazado 101194" d="M788.869,6044.27v.35h-8.663a1.632,1.632,0,0,1,.046.378v1.531h8.616v2.2a12.562,12.562,0,0,0,4.481-3.241v1.041h.563c-.01-.635-.012-1.272,0-1.909h-.562v-.35a1.162,1.162,0,0,0-1.163-1.162h-2.155A1.163,1.163,0,0,0,788.869,6044.27Z" transform="translate(-752.297 -6010.874)" fill="#64486d"/>
        <path id="Trazado_101195" data-name="Trazado 101195" d="M780.865,6046.672v-1.722a1.632,1.632,0,0,0-.046-.378,1.606,1.606,0,0,0-.31-.623,1.633,1.633,0,0,0-.209-.216,14.508,14.508,0,0,1-8.274,4.542h7.236A1.608,1.608,0,0,0,780.865,6046.672Z" transform="translate(-752.91 -6010.827)" fill="#765582"/>
        <path id="Trazado_101196" data-name="Trazado 101196" d="M833.259,6133.414c-.064.737-.154,1.471-.275,2.188a9.6,9.6,0,0,1-.569,2.051,2.133,2.133,0,0,1-1.11,1.3,1.189,1.189,0,0,1-.368.049,1.453,1.453,0,0,1-.392-.072,1.944,1.944,0,0,1-.732-.46,5.646,5.646,0,0,1-1.149-1.672,16.219,16.219,0,0,1-.793-2.021,38.942,38.942,0,0,1-1.09-4.307c-.039-.2-.072-.4-.11-.6-.312.011-.605.017-.878.021.03.243.06.487.095.73a31.857,31.857,0,0,0,.932,4.48,15.1,15.1,0,0,0,.819,2.188,6.751,6.751,0,0,0,1.381,2.033,2.686,2.686,0,0,0,2.635.715,2.464,2.464,0,0,0,1.161-.849,4.227,4.227,0,0,0,.621-1.122,10.5,10.5,0,0,0,.556-2.309,19.121,19.121,0,0,0,.174-2.3,37.743,37.743,0,0,0-.178-4.512q-.287.07-.576.136C833.414,6130.536,833.373,6131.983,833.259,6133.414Z" transform="translate(-748.883 -6004.445)" fill="#9c77ad"/>
        <path id="Trazado_101197" data-name="Trazado 101197" d="M865.93,6124.515c-.011.09-.022.179-.033.269-.095.729-.2,1.456-.3,2.181q-.321,2.227-.754,4.424a38.7,38.7,0,0,1-1.09,4.306,16.189,16.189,0,0,1-.793,2.021,5.663,5.663,0,0,1-1.148,1.672,1.947,1.947,0,0,1-.732.46,1.435,1.435,0,0,1-.393.072,1.179,1.179,0,0,1-.368-.049,2.133,2.133,0,0,1-1.109-1.3,9.547,9.547,0,0,1-.569-2.051c-.121-.718-.211-1.451-.275-2.188-.118-1.478-.159-2.973-.154-4.472,0-.434,0-.87.008-1.3l.979-3.014.963-2.964a34.76,34.76,0,0,1-8.107-5.846,36.88,36.88,0,0,1-9.451,4.645h0c-1.622,2.614-2.768,4.446-2.768,4.446a7.308,7.308,0,0,1-3.177,2.8c11.88-2.093,19.588.188,21.04.677-.019.178-.041.357-.059.535a37.918,37.918,0,0,0-.183,4.549,19.536,19.536,0,0,0,.174,2.3,10.565,10.565,0,0,0,.556,2.309,4.275,4.275,0,0,0,.621,1.122,2.474,2.474,0,0,0,1.161.848,2.685,2.685,0,0,0,2.635-.715,6.719,6.719,0,0,0,1.381-2.033,14.877,14.877,0,0,0,.819-2.188,31.687,31.687,0,0,0,.932-4.48c.216-1.5.345-3.012.427-4.521.031-.761.059-1.522.066-2.283,0-.058,0-.116,0-.174Z" transform="translate(-748.07 -6005.36)" fill="#9c77ad"/>
        <path id="Trazado_101198" data-name="Trazado 101198" d="M850.978,6118.651a34.758,34.758,0,0,0,8.107,5.846,20.563,20.563,0,0,0,5.772,1.94l.292.048.034,0c1.124-6.706-.578-11.829-3.858-14.833-.358-.9-.823-2.132-1.309-3.613-.275-.838-.556-1.756-.827-2.732a43.067,43.067,0,0,1-1.751-12.838,1.132,1.132,0,0,0-.089-.379,2.5,2.5,0,0,0-.839-1.045c-.766,5.374-1.3,17.282-1.461,21.043a4.235,4.235,0,0,1-.046,1.163C854.636,6115.338,853.01,6117.15,850.978,6118.651Z" transform="translate(-746.997 -6007.283)" fill="#7f5e8c"/>
        <path id="Trazado_101199" data-name="Trazado 101199" d="M813.863,6101.05l.385.015Z" transform="translate(-749.777 -6006.534)" fill="#64486d"/>
        <path id="Trazado_101200" data-name="Trazado 101200" d="M816.118,6102.189l.26.009a1.083,1.083,0,0,1-2.136-.082l.143.005c-2.345-.108-4.482-.272-6.363-.458v-1.094h11.445l1.068-1.647h-.322a5.253,5.253,0,0,1,.213-.485c.075-.152.16-.3.249-.445a15.564,15.564,0,0,1,1.47-1.927,16.628,16.628,0,0,0,1.7-2.262,6.2,6.2,0,0,0,1.028-3.711,3.532,3.532,0,0,0-1.166-2.292,5.472,5.472,0,0,0-4.008-1.438,3.273,3.273,0,0,0-2.836,1.552l.01,0,1.937.362.011,0c.369-.3.486-.25.96-.274a3.784,3.784,0,0,1,2.812,1.006c.039.035.073.073.108.11a1.987,1.987,0,0,1,.536,1.641,5.516,5.516,0,0,1-.81,2.2,15.043,15.043,0,0,1-1.54,2.035,13.8,13.8,0,0,0-1.936,2.7c-.057.113-.109.227-.158.339-.067.152-.128.3-.18.451s-.093.289-.129.432H808.022v-.3a1,1,0,0,0-1-1H805.16a1,1,0,0,0-1,1v.3h-1.164a3.221,3.221,0,0,0-2.818,1.667c-.543-.1-.832-.163-.832-.163l-.451,3.384a1.045,1.045,0,0,1,.317-.048,1.083,1.083,0,1,1,0,2.166,1.071,1.071,0,0,1-.577-.167l-.506,3.794c1.221.245,2.355.515,3.415.8l-.214-.06a1.115,1.115,0,0,1-.008-.122,1.083,1.083,0,1,1,1.931.674c-.07-.021-.145-.042-.216-.064a33,33,0,0,1,7.646,3.318l7.7-11.862Q817.224,6102.225,816.118,6102.189Zm-11.96.325v-1.3c-.8-.107-1.514-.213-2.129-.31a1.556,1.556,0,0,1,.965-.335h1.164v-.9a10.829,10.829,0,0,0,3.864,2.795v.047a1,1,0,0,1-1,1H805.16A1,1,0,0,1,804.157,6102.514Zm3.578,6.957a1.083,1.083,0,1,1,1.083-1.083A1.083,1.083,0,0,1,807.736,6109.471Zm4.25-2.458a1.084,1.084,0,1,1,1.083-1.084A1.084,1.084,0,0,1,811.986,6107.014Z" transform="translate(-750.956 -6007.635)" fill="#64486d"/>
        <path id="Trazado_101201" data-name="Trazado 101201" d="M802.315,6108.971q-.284-.083-.576-.166Q802.031,6108.887,802.315,6108.971Z" transform="translate(-750.685 -6005.953)" fill="#64486d"/>
        <path id="Trazado_101202" data-name="Trazado 101202" d="M807.6,6101.586v-.047a10.829,10.829,0,0,1-3.864-2.795v2.842a1,1,0,0,0,1,1H806.6A1,1,0,0,0,807.6,6101.586Z" transform="translate(-750.535 -6006.707)" fill="#765582"/>
        <path id="Trazado_101203" data-name="Trazado 101203" d="M811.1,6103.558a1.084,1.084,0,1,0,1.083,1.083A1.084,1.084,0,0,0,811.1,6103.558Z" transform="translate(-750.065 -6006.346)" fill="#fff"/>
        <path id="Trazado_101204" data-name="Trazado 101204" d="M813.919,6101.052c-.22-.01-.441-.018-.657-.029l-.143-.005a1.083,1.083,0,0,0,2.136.082l-.26-.009-.691-.023Z" transform="translate(-749.833 -6006.537)" fill="#fff"/>
        <path id="Trazado_101205" data-name="Trazado 101205" d="M803.263,6108.592a1.083,1.083,0,1,0-2.167,0,1.122,1.122,0,0,0,.008.122l.214.06.47.129q.292.082.576.165c.15.044.3.09.447.134.071.022.146.043.216.064A1.08,1.08,0,0,0,803.263,6108.592Z" transform="translate(-750.733 -6006.051)" fill="#fff"/>
        <path id="Trazado_101206" data-name="Trazado 101206" d="M800.257,6103.633a1.084,1.084,0,0,0-1.083-1.083,1.045,1.045,0,0,0-.317.048h0l-.26,1.951h0a1.071,1.071,0,0,0,.577.167A1.084,1.084,0,0,0,800.257,6103.633Z" transform="translate(-750.92 -6006.422)" fill="#fff"/>
        <path id="Trazado_101207" data-name="Trazado 101207" d="M807.141,6105.845a1.083,1.083,0,1,0,1.083,1.084A1.084,1.084,0,0,0,807.141,6105.845Z" transform="translate(-750.361 -6006.175)" fill="#fff"/>
        <path id="Trazado_101208" data-name="Trazado 101208" d="M808.993,6113.42s5.269,11.631,10.031,15.345C819.024,6128.765,820.16,6117.357,808.993,6113.42Z" transform="translate(-750.142 -6005.608)" fill="#e7dcea"/>
        <path id="Trazado_101209" data-name="Trazado 101209" d="M840.791,6125.314s-8.149-6.512-16.932,4.963c0,0,.809.042,2.079.028.273,0,.566-.01.878-.021a37.023,37.023,0,0,0,6.741-.788q.289-.065.576-.136a16.777,16.777,0,0,0,3.481-1.249A7.308,7.308,0,0,0,840.791,6125.314Z" transform="translate(-749.028 -6004.855)" fill="#e7dcea"/>
        <path id="Trazado_101210" data-name="Trazado 101210" d="M842.186,6121.05h0Z" transform="translate(-747.656 -6005.037)" fill="#fff"/>
        <path id="Trazado_101211" data-name="Trazado 101211" d="M841.9,6127.792s1.146-1.832,2.768-4.446c0,0-5.779,4.888-17.115-2.048-13.06-7.992-2.484-30.916-2.484-30.916h0l-4.759,7.328-.592.911-1.068,1.647-1.086,1.671-7.7,11.862-.872,1.344c11.167,3.938,10.031,15.345,10.031,15.345a6.619,6.619,0,0,0,2.645,1.367,26.968,26.968,0,0,0,3.3.9C833.755,6121.281,841.9,6127.792,841.9,6127.792Z" transform="translate(-750.142 -6007.333)" fill="#fff"/>
        <path id="Trazado_101212" data-name="Trazado 101212" d="M826.718,6121.3c11.337,6.937,17.115,2.05,17.115,2.048h0c-.53.179-.842.27-.842.27-4.98.648-6.364-.158-6.364-.158-5.725-1.919-14.563-11.137-14.563-11.137l2.169-21.939S813.658,6113.306,826.718,6121.3Z" transform="translate(-749.303 -6007.333)" fill="#e7dcea"/>
        <path id="Trazado_101213" data-name="Trazado 101213" d="M851.7,6117.131c2.031-1.5,3.658-3.313,4.026-5.4,0,0-9.851-3.432-14.318,10.311,0,0,.312-.092.842-.271h0A36.858,36.858,0,0,0,851.7,6117.131Z" transform="translate(-747.714 -6005.763)" fill="#ea6a6a"/>
        <path id="Trazado_101214" data-name="Trazado 101214" d="M854.769,6110.627c-.031.738-.046,1.163-.046,1.163A4.233,4.233,0,0,0,854.769,6110.627Z" transform="translate(-746.717 -6005.817)" fill="#ea6a6a"/>
        <path id="Trazado_101215" data-name="Trazado 101215" d="M821.934,6110.793s8.838,9.217,14.563,11.137C836.5,6121.93,833.775,6110.793,821.934,6110.793Z" transform="translate(-749.172 -6005.805)" fill="#ea6a6a"/>
        <path id="Trazado_101216" data-name="Trazado 101216" d="M821.934,6112.507c11.841,0,14.563,11.137,14.563,11.137s1.384.806,6.364.158c4.466-13.742,14.318-10.31,14.318-10.31s.015-.425.046-1.163c.156-3.761.694-15.67,1.461-21.043.043-.306.087-.591.132-.852a6.527,6.527,0,0,0-2.515-1.478,34.639,34.639,0,0,1-1.729,5.04c-9.6,9.642-23.715,7.281-23.715,7.281-.139-9.486,4.691-13.16,4.691-13.16l.163.016c.07-.081.142-.158.215-.233a61.229,61.229,0,0,0-6.875,1.107,26.087,26.087,0,0,0-4.949,1.561Z" transform="translate(-749.172 -6007.519)" fill="#ff8383"/>
        <path id="Trazado_101217" data-name="Trazado 101217" d="M837.3,6099.851c-1.96.792-5.384.025-5.384.025s.235-8.358,3.173-11.757l-.163-.016s-4.829,3.674-4.691,13.16c0,0,14.112,2.361,23.715-7.281C847.319,6098.921,837.3,6099.851,837.3,6099.851Z" transform="translate(-748.551 -6007.504)" fill="#ea6a6a"/>
        <path id="Trazado_101218" data-name="Trazado 101218" d="M836.809,6099.56s10.018-.93,16.65-5.869C853.459,6093.69,842.8,6087.2,836.809,6099.56Z" transform="translate(-748.058 -6007.213)" fill="#c088e5"/>
        <path id="Trazado_101219" data-name="Trazado 101219" d="M848.17,6086.582a37.84,37.84,0,0,0-10.985.311,3.685,3.685,0,0,0-2,1.125c-.073.076-.145.153-.215.233-2.938,3.4-3.173,11.757-3.173,11.757s3.425.767,5.384-.025c5.986-12.364,16.65-5.869,16.65-5.869a34.639,34.639,0,0,0,1.729-5.04c.029-.1.058-.207.086-.314C854.568,6087.785,851.666,6086.974,848.17,6086.582Z" transform="translate(-748.433 -6007.637)" fill="#e1a9ff"/>
        <path id="Trazado_101220" data-name="Trazado 101220" d="M837.2,6032.236a1.446,1.446,0,0,1-.43.331,1.061,1.061,0,0,1-.247.077,1.486,1.486,0,0,0-.469.178,1.072,1.072,0,0,0-.4.459,1.348,1.348,0,0,0-.118.523,1.752,1.752,0,0,0,.241.912,2.67,2.67,0,0,0,1.237,1.078,3.592,3.592,0,0,0,1.512.305,5.818,5.818,0,0,0,1.455-.216,6.368,6.368,0,0,1-2.633-.717,2.286,2.286,0,0,1-.815-.865.954.954,0,0,1-.1-.464c.01-.151.058-.22.1-.243a.6.6,0,0,1,.2-.07,1.906,1.906,0,0,0,.429-.151,2.224,2.224,0,0,0,.678-.566,5.624,5.624,0,0,0,.784-1.314,5.4,5.4,0,0,0,.431-2.91,9.223,9.223,0,0,1-1.061,2.584A7.507,7.507,0,0,1,837.2,6032.236Z" transform="translate(-748.154 -6011.961)" fill="#eab3a2"/>
        <path id="Trazado_101221" data-name="Trazado 101221" d="M843.789,6070.462l8.18,1.35.212-1.316a14.206,14.206,0,0,1-7.744-2.721Z" transform="translate(-747.536 -6009.026)" fill="#e3d9e8"/>
        <path id="Trazado_101222" data-name="Trazado 101222" d="M852.136,6070.526l.317-1.971-7.956-1.184-.1.434A14.206,14.206,0,0,0,852.136,6070.526Z" transform="translate(-747.49 -6009.057)" fill="#e9ecff"/>
      </g>
    </g>
    <g id="Grupo_53819" data-name="Grupo 53819" transform="translate(567.452 6049.806)">
      <rect id="Rectngulo_5210" data-name="Rectngulo 5210" width="93.011" height="52.356" transform="translate(96.502 73.916)" fill="#b58785"/>
      <rect id="Rectngulo_5211" data-name="Rectngulo 5211" width="80.774" height="26.783" transform="translate(106.998 57.578)" fill="#c99f9b"/>
      <rect id="Rectngulo_5212" data-name="Rectngulo 5212" width="87.942" height="26.404" transform="translate(105.73 86.065)" fill="#c99f9b"/>
      <path id="Trazado_101223" data-name="Trazado 101223" d="M673.2,6165.264h66.729l-1.284,8.048-63.932.542Z" transform="translate(-558.576 -6037.017)" fill="#b58785"/>
      <path id="Trazado_101224" data-name="Trazado 101224" d="M588.7,6168.031l77.9-2.767.892,8.713-75.742.58Z" transform="translate(-564.905 -6037.017)" fill="#b58785"/>
      <path id="Trazado_101225" data-name="Trazado 101225" d="M579.328,6146.251v29.885h13.108l6.519-16.286-7.431-11.276Z" transform="translate(-565.607 -6038.44)" fill="#b58785"/>
      <path id="Trazado_101226" data-name="Trazado 101226" d="M707.865,6076.62l.827.775,17.436-.632v-2.108l-3.162-.013q-5.9-.045-11.793-.106l.327.259c-.4.5-.806,1-1.216,1.475l-1.186-1.021c.205-.238.409-.482.614-.729q-4.1-.044-8.2-.1c-7.151-.076-14.3-.214-21.452-.322l-2.424-.047-1.768,4.531,31.189-1.132C707.329,6077.181,707.6,6076.9,707.865,6076.62Z" transform="translate(-558.377 -6043.847)" fill="#c99f9b"/>
      <path id="Trazado_101227" data-name="Trazado 101227" d="M666.153,6132.176q-.034-1.039-.068-2.077-.069-2.023-.128-4.045l-.519-.01-21.447-.507q-6.019-.168-12.038-.326a195.986,195.986,0,0,0,34.574,17.857l-.029-.789C666.308,6137.8,666.168,6134.752,666.153,6132.176Z" transform="translate(-561.666 -6040.016)" fill="#c99f9b"/>
      <path id="Trazado_101228" data-name="Trazado 101228" d="M730.083,6074.644l-6-.024v2.045l16.521-.6-.055-1.411-5.1.009Z" transform="translate(-554.766 -6043.805)" fill="#c99f9b"/>
      <path id="Trazado_101229" data-name="Trazado 101229" d="M583.568,6081.88l0-.263-.209.007Z" transform="translate(-565.305 -6043.281)" fill="#c99f9b"/>
      <path id="Trazado_101230" data-name="Trazado 101230" d="M603.963,6103.859l1.163-22.973-20.111.729-.02,2.213A220.443,220.443,0,0,0,603.963,6103.859Z" transform="translate(-565.183 -6043.336)" fill="#c99f9b"/>
      <path id="Trazado_101231" data-name="Trazado 101231" d="M605.6,6072.223l-4.523-.156-10.72-.42-5.245-.207-.1,10.882,20.111-.729Z" transform="translate(-565.181 -6044.043)" fill="#c99f9b"/>
      <path id="Trazado_101232" data-name="Trazado 101232" d="M718.021,6111.348v1.193a12.924,12.924,0,0,1,6.625,2.042,9.2,9.2,0,0,1,1.318,1.1q.168.171.324.348v-39.46l-17.436.632.314.3c-.436.464-.887.924-1.34,1.365l-1.091-1.122c.161-.157.321-.318.482-.48l-31.189,1.131-2.282,5.847a49.987,49.987,0,0,1,13.589,3.512l-.07-.834c.607-.052,1.219-.122,1.818-.208l.222,1.548c-.2.029-.405.053-.609.079q1.283.573,2.6,1.255a42.215,42.215,0,0,1,18.318,18.337h5A3.424,3.424,0,0,1,718.021,6111.348ZM691.2,6087.932l-.314-1.532c.592-.121,1.191-.263,1.777-.421l.406,1.51C692.449,6087.656,691.819,6087.8,691.2,6087.932Zm3.711-1-.5-1.482c.576-.195,1.152-.408,1.713-.636l.589,1.448C696.118,6086.5,695.512,6086.729,694.906,6086.933Zm3.56-1.448-.676-1.41c.544-.261,1.091-.543,1.625-.838l.758,1.369C699.612,6084.915,699.038,6085.211,698.467,6085.484Zm3.359-1.859-.835-1.322c.512-.323,1.023-.667,1.521-1.022l.908,1.274C702.9,6082.926,702.362,6083.286,701.826,6083.625Zm3.126-2.224-.974-1.224c.472-.376.946-.772,1.407-1.18l1.035,1.173C705.938,6080.594,705.444,6081.009,704.951,6081.4Z" transform="translate(-558.536 -6043.659)" fill="#c99f9b"/>
      <path id="Trazado_101233" data-name="Trazado 101233" d="M630.164,6071.038l-.568-1.6,1.474-.524.588,1.654-1.056.376a68.947,68.947,0,0,0,7.761-2.151l.059-.133.144.065a52.353,52.353,0,0,0,12.929-6.48v-.4l-7.7-1.308-.138.3-1.168-.526-16.2-2.752-.808.288-.161-.453-14.31-2.429-.672,17.6q4.021.04,8.041.094A89.13,89.13,0,0,0,630.164,6071.038Zm11.308-9.142,1.426.643-.762,1.692-1.426-.642Zm-1.524,3.384,1.426.643-.763,1.691-1.425-.642Zm-9.467,1.982-1.474.524-.588-1.654,1.474-.523Zm-1.176-3.309-1.474.523-.588-1.655,1.474-.523Zm-1.764-4.965.588,1.656-1.474.523-.588-1.655Z" transform="translate(-563.285 -6045.276)" fill="#c99f9b"/>
      <path id="Trazado_101234" data-name="Trazado 101234" d="M675.008,6143.092a22.339,22.339,0,0,1-7.139-.633,24.82,24.82,0,0,1-2.551-.712c-.1-.034-.2-.078-.3-.12v.589q4.307,1.666,8.793,3.142A24.146,24.146,0,0,1,675.008,6143.092Z" transform="translate(-559.189 -6038.787)" fill="#c99f9b"/>
      <path id="Trazado_101235" data-name="Trazado 101235" d="M652.421,6106.9l-.957-.218c-.148-.034-15.017-3.322-25.5,3.887a21.714,21.714,0,0,0-7.1,8.217c3.7,2.829,7.635,5.653,11.792,8.416,4.783.072,9.565.157,14.348.229l21.451.418.435.011c-.1-3.664-.195-7.327-.3-10.989l-.375-16.713-.284-16.715q-.026-2.344-.058-4.688l-13.453.488Z" transform="translate(-562.646 -6043.496)" fill="#c99f9b"/>
      <path id="Trazado_101236" data-name="Trazado 101236" d="M737.969,6153.01q2.475-.24,4.98-.555l-.4-10.247a27.766,27.766,0,0,1-7.266.858C737.609,6146.989,738.229,6150.3,737.969,6153.01Z" transform="translate(-553.927 -6038.743)" fill="#c99f9b"/>
      <path id="Trazado_101237" data-name="Trazado 101237" d="M719.041,6116.028a4.584,4.584,0,0,0-3.314-1.311,6.962,6.962,0,0,0,4.822,3.5,6.6,6.6,0,0,0-1.235-1.923C719.22,6116.2,719.13,6116.112,719.041,6116.028Z" transform="translate(-555.392 -6040.802)" fill="#c99f9b"/>
      <path id="Trazado_101238" data-name="Trazado 101238" d="M663.536,6079.146q-.034-2.68-.067-5.36l-2.929-.057-10.458-.248v6.153Z" transform="translate(-560.308 -6043.891)" fill="#c99f9b"/>
      <path id="Trazado_101239" data-name="Trazado 101239" d="M634.195,6080.269l-.132-.375-24,.87-1.119,29.3c2.939,2.54,6.075,5.121,9.4,7.7a23.183,23.183,0,0,1,7.49-8.537c9.6-6.6,22.2-4.952,25.766-4.308v-25.669l-17.232.624Z" transform="translate(-563.389 -6043.458)" fill="#c99f9b"/>
      <path id="Trazado_101240" data-name="Trazado 101240" d="M664.551,6100.152l.285,16.715c.042,3.685.1,7.371.138,11.055l2.072.05a9.244,9.244,0,0,1,2.2-3.237h0a7.2,7.2,0,0,1,2.625-1.614,34.243,34.243,0,0,1,9.215-1.7c.589-.036,1.167-.067,1.741-.1a10.074,10.074,0,0,1,.478-.93,13.439,13.439,0,0,1,6.05-5.11c.612-.288,1.2-.533,1.74-.743a34.2,34.2,0,0,1,6.746-1.93v-1.39a3.424,3.424,0,0,1,2.958-3.38,43.43,43.43,0,0,0-14.181-12.732,50.5,50.5,0,0,0-14.7-5.486l-.235,1.131-1.182-1.057-1.182-1.056,1.506-.5,1.506-.5-.187.895a51.075,51.075,0,0,1,15.013,5.61,44.437,44.437,0,0,1,14.952,13.653H708.6a40.076,40.076,0,0,0-3.73-5.762,40.984,40.984,0,0,0-13.521-11.16,48.4,48.4,0,0,0-18.028-5.292l-1.088-.05,2.814-7.211-11,.4q.061,2.355.128,4.712Z" transform="translate(-559.262 -6043.527)" fill="#c99f9b"/>
      <path id="Trazado_101241" data-name="Trazado 101241" d="M631.614,6073.022l-.227.08-.031-.087q-5.353-.144-10.706-.312-5.164-.153-10.329-.326l-.341,8.9,24-.871-.832-2.342.563-.2.16-.354.369.166.382-.135.13.366.546.246-1.012,2.242,17.232-.625v-6.246l-9.427-.222Q636.855,6073.157,631.614,6073.022Zm.949,3.39-.588-1.656,1.474-.523.588,1.655Zm3.5.051-1.426-.643.763-1.692,1.425.643Z" transform="translate(-563.311 -6043.973)" fill="#c99f9b"/>
      <path id="Trazado_101242" data-name="Trazado 101242" d="M676.864,6074.042l-12.951-.25q.073,2.637.143,5.276l11-.4Z" transform="translate(-559.272 -6043.867)" fill="#c99f9b"/>
      <path id="Trazado_101243" data-name="Trazado 101243" d="M674.312,6142.99Z" transform="translate(-558.493 -6038.685)" fill="#c99f9b"/>
      <path id="Trazado_101244" data-name="Trazado 101244" d="M701.374,6074.552q10.722.316,21.443.706l3.145.123v-14.4l-5.868-.878c-.1.3-.24.7-.421,1.189l-1.466-.544c.126-.341.23-.632.315-.88l-33.027-4.947-7.408,18.982,1.841.044C687.076,6074.149,694.226,6074.321,701.374,6074.552Zm16.156-12.075,1.445.6c-.241.583-.5,1.172-.759,1.751l-1.424-.647C717.047,6063.615,717.294,6063.042,717.529,6062.477Zm-1.533,3.38,1.4.692c-.283.573-.575,1.144-.871,1.7l-1.379-.739C715.436,6066.97,715.721,6066.415,716,6065.857Zm-1.748,3.272,1.354.783c-.319.552-.649,1.1-.981,1.635l-1.326-.829C713.618,6070.2,713.938,6069.667,714.249,6069.129Zm-1.962,3.142,1.3.875c-.359.532-.728,1.058-1.1,1.562l-1.263-.922C711.582,6073.3,711.94,6072.787,712.287,6072.271Z" transform="translate(-558.211 -6045.28)" fill="#c99f9b"/>
      <path id="Trazado_101245" data-name="Trazado 101245" d="M590.359,6073.11l10.729.042q2.277.018,4.552.041l.906-17.892-1.108.006.785-1.378.785-1.377.8,1.369.8,1.368-.966.005-.907,17.907,3.927.034.742-19.425,43.546,7.394v.58a37.517,37.517,0,0,0,12.32-15.832H585.35l-.244,27.139Z" transform="translate(-565.174 -6045.952)" fill="#c99f9b"/>
      <path id="Trazado_101246" data-name="Trazado 101246" d="M583.812,6082.4l.1-11.01-3.676-.166-.077,6.693c.378.526,1.535,2.108,3.446,4.49Z" transform="translate(-565.545 -6044.059)" fill="#c99f9b"/>
      <path id="Trazado_101247" data-name="Trazado 101247" d="M664.926,6126.021q.014,1.452.023,2.905c.414-1,.833-1.978,1.246-2.881Z" transform="translate(-559.196 -6039.956)" fill="#c99f9b"/>
      <path id="Trazado_101248" data-name="Trazado 101248" d="M608.891,6080.711l-4.061.147-1.215,23.986q2.027,1.874,4.209,3.794Z" transform="translate(-563.788 -6043.349)" fill="#c99f9b"/>
      <path id="Trazado_101249" data-name="Trazado 101249" d="M609.15,6072.337l-3.934-.134-.471,9.293,4.061-.147Z" transform="translate(-563.703 -6043.986)" fill="#c99f9b"/>
      <path id="Trazado_101250" data-name="Trazado 101250" d="M744.589,6078.026l-3.6.13,2.113,54.033c1.348,2.972,2.759,6.69,3.819,9.618,1.048,2.9-.334,6.2-3.017,7.106-.048.017-.1.031-.146.047l.411,10.5c1.307-.176,2.618-.362,3.938-.569.133,2.206.255,4.2.363,6.005l.166-.016c.841,16.559.871,17.161.872,17.183l-6.3-136.107h-3.482l1.26,32.2Z" transform="translate(-553.594 -6045.952)" fill="#c99f9b"/>
      <path id="Trazado_101251" data-name="Trazado 101251" d="M694.864,6115.253c-1.571.5-3.731,1.107-3.731,1.107-.483.188-.93.38-1.348.575a12.534,12.534,0,0,0-2.307,1.364c.609-.015,1.21-.029,1.8-.04A6.922,6.922,0,0,0,694.864,6115.253Z" transform="translate(-557.507 -6040.761)" fill="#c99f9b"/>
      <path id="Trazado_101252" data-name="Trazado 101252" d="M724.082,6118.4a19.8,19.8,0,0,1,1.105,2.679c.034.1.067.205.1.307q1.983.086,4.094.213a34.242,34.242,0,0,1,9.215,1.7,7.19,7.19,0,0,1,2.624,1.614h0a5.264,5.264,0,0,1,1.36,1.686l-1.98-50.634-16.521.6Z" transform="translate(-554.766 -6043.705)" fill="#c99f9b"/>
      <path id="Trazado_101253" data-name="Trazado 101253" d="M663.94,6074.215l13.618.322,8.067-20.673,43.036,6.445v15.8l6.01.235,5.36.21,5.1.23-1.206-30.837H662.933q.5,11.6.85,23.2Q663.869,6071.684,663.94,6074.215Zm23.951-26.774,1.476-.58-.181,1.2,38.592,5.923.105-1.1,1.291.919,1.292.92-1.442.659-1.441.659.091-.963-38.651-5.934-.128.854-1.24-.989-1.239-.988Z" transform="translate(-559.346 -6045.952)" fill="#c99f9b"/>
      <path id="Trazado_101254" data-name="Trazado 101254" d="M583.906,6073.093l.244-27.141h-3.609l-.312,27.149Z" transform="translate(-565.539 -6045.952)" fill="#c99f9b"/>
      <path id="Trazado_101255" data-name="Trazado 101255" d="M748.831,6172.577Z" transform="translate(-552.912 -6036.469)" fill="#bf9290"/>
      <path id="Trazado_101256" data-name="Trazado 101256" d="M748.166,6157.024c-.109-1.806-.23-3.8-.363-6.005-1.32.208-2.631.393-3.938.569l.227,5.8Q746.121,6157.223,748.166,6157.024Z" transform="translate(-553.284 -6038.083)" fill="#bf9290"/>
      <path id="Trazado_101257" data-name="Trazado 101257" d="M624.076,6124.97q-3.765-.111-7.527-.237c-.016.1-.035.206-.05.311l-.1.672h-4.9a265.768,265.768,0,0,0,56.834,24.47q-.145-3.543-.276-7.082a195.986,195.986,0,0,1-34.574-17.857Q628.78,6125.118,624.076,6124.97Z" transform="translate(-563.197 -6040.051)" fill="#bf9290"/>
      <path id="Trazado_101258" data-name="Trazado 101258" d="M603.68,6103.164l-.936,18.488q2.152,1.363,4.478,2.769l.668-17.463Q605.708,6105.04,603.68,6103.164Z" transform="translate(-563.853 -6041.667)" fill="#bf9290"/>
      <path id="Trazado_101259" data-name="Trazado 101259" d="M665.022,6142.175q.01,3.455,0,6.912,3.57,1.044,7.253,2a16.184,16.184,0,0,1,1.537-5.773Q669.327,6143.846,665.022,6142.175Z" transform="translate(-559.189 -6038.746)" fill="#bf9290"/>
      <path id="Trazado_101260" data-name="Trazado 101260" d="M583.6,6108.795l.239-26.589-.205-.256-2,.072,2-.072c-1.911-2.382-3.068-3.964-3.446-4.49-.09-.125-.139-.194-.139-.194l-.287,28.305S581.074,6106.759,583.6,6108.795Z" transform="translate(-565.575 -6043.607)" fill="#bf9290"/>
      <path id="Trazado_101261" data-name="Trazado 101261" d="M608.342,6124.749q3.526.031,7.051.068a31.479,31.479,0,0,1,3-9.192c-3.329-2.582-6.466-5.163-9.4-7.7Z" transform="translate(-563.434 -6041.311)" fill="#bf9290"/>
      <path id="Trazado_101262" data-name="Trazado 101262" d="M735.88,6157.874q3.6-.151,7.247-.42l-.223-5.713q-2.506.314-4.98.555A11.8,11.8,0,0,1,735.88,6157.874Z" transform="translate(-553.882 -6038.029)" fill="#bf9290"/>
      <path id="Trazado_101263" data-name="Trazado 101263" d="M603.979,6103.654a220.443,220.443,0,0,1-18.969-20.031l-.233,25.933c4.006,3.152,10.17,7.722,18.251,12.886Z" transform="translate(-565.199 -6043.131)" fill="#bf9290"/>
      <path id="Trazado_101264" data-name="Trazado 101264" d="M630.843,6124.41c-4.157-2.763-8.09-5.586-11.792-8.416a29.9,29.9,0,0,0-2.682,8.235q3.686.041,7.369.086Q627.291,6124.353,630.843,6124.41Z" transform="translate(-562.833 -6040.707)" fill="#bf9290"/>
      <path id="Trazado_101265" data-name="Trazado 101265" d="M639.289,6068.8l-.762,1.691-1.426-.642.7-1.559a68.947,68.947,0,0,1-7.761,2.151l-.418.148-.02-.058a89.13,89.13,0,0,1-11.786,1.631c.758.009,1.516.016,2.273.026q5.076.056,10.151.141l-.03-.085,1.474-.523.226.636,4.029.067.4-.883,1.426.643-.12.267q1.949.031,3.9.061l9.392.184v-10.953a52.353,52.353,0,0,1-12.929,6.48Z" transform="translate(-562.724 -6044.77)" fill="#bf9290"/>
      <path id="Trazado_101266" data-name="Trazado 101266" d="M650.083,6061.784v12.124l10.494.205,2.873.068q-.026-2.5-.042-5-.1-11.612-.068-23.227H662.4A37.518,37.518,0,0,1,650.083,6061.784Z" transform="translate(-560.308 -6045.952)" fill="#bf9290"/>
      <path id="Trazado_101267" data-name="Trazado 101267" d="M666.416,6100.158l.375,16.713c.1,3.662.195,7.325.3,10.989l-.435-.011-21.451-.418c-4.782-.072-9.564-.157-14.348-.229q-3.552-.053-7.1-.094-3.684-.051-7.369-.086c-.069.379-.128.769-.186,1.159q3.763.122,7.527.237,4.7.153,9.409.276,6.019.164,12.038.326l21.447.507.519.01q.06,2.023.128,4.045.032,1.039.068,2.077c.406-1.061.833-2.14,1.265-3.189q-.01-1.452-.023-2.905l1.268.024c.266-.583.529-1.136.786-1.645l-2.072-.05c-.042-3.684-.1-7.37-.138-11.055l-.285-16.715-.377-16.713q-.068-2.355-.128-4.712l-1.555.056q.031,2.344.058,4.688Z" transform="translate(-562.846 -6043.5)" fill="#b58785"/>
      <path id="Trazado_101268" data-name="Trazado 101268" d="M663.408,6069.179q.013,2.5.042,5l-2.873-.068-10.494-.205v1.635l10.458.248,2.929.057q.032,2.679.067,5.36l1.555-.056q-.071-2.638-.143-5.276l12.951.25.62-1.589-13.618-.322q-.074-2.532-.157-5.063-.361-11.6-.85-23.2h-.555Q663.3,6057.567,663.408,6069.179Z" transform="translate(-560.308 -6045.952)" fill="#b58785"/>
      <path id="Trazado_101269" data-name="Trazado 101269" d="M583.181,6157.235l.454-50.412c-2.525-2.036-3.838-3.224-3.838-3.224h0l-.5,49.243C580.684,6154.379,581.985,6155.836,583.181,6157.235Z" transform="translate(-565.609 -6041.635)" fill="#b58785"/>
      <path id="Trazado_101270" data-name="Trazado 101270" d="M590.475,6174.779a3.783,3.783,0,0,1-.54,1.232l19.489-.567c.5-7.756,5.5-13.882,15.526-15.105q-.743-.059-1.5-.107c-1.094-.077-2.2-.105-3.425-.233a8.193,8.193,0,0,1,3.274-1.49,10.617,10.617,0,0,1,3.622-.185,6.882,6.882,0,0,1,3.387,1.332,7.2,7.2,0,0,1,1.175-1.114,5.948,5.948,0,0,1,3.846-1.22,5.209,5.209,0,0,1,3.479,1.545,11.759,11.759,0,0,0-3.359.182,7.039,7.039,0,0,0-2.383,1.067c8.009-.3,13.022,1.16,16.166,3.078a4.151,4.151,0,0,1,.786.513h0a13.954,13.954,0,0,1,3.675,2.578,23.793,23.793,0,0,1,5.64,7.706l26.774-.78,56.668-1.591c-1.08-.717,4.049-3.79,4.449-10.45-2.454-.64-73.783-8.808-76.163-9.5q.007-3.457,0-6.912v-.589a4.465,4.465,0,0,1-1-.576c.01.264.019.525.029.788q.129,3.541.276,7.082a265.743,265.743,0,0,1-56.834-24.47h-5.046l.111-2.911q-2.323-1.4-4.478-2.769l-.2,3.9,1.036.051-.858,1.333-.859,1.333-.726-1.41-.724-1.409,1.583.075.064,0-.612-.031.229-4.517c-8.081-5.164-14.244-9.734-18.251-12.886l-.459,51.029C589.031,6164.538,591.61,6169.369,590.475,6174.779Z" transform="translate(-565.231 -6041.324)" fill="#b58785"/>
      <path id="Trazado_101271" data-name="Trazado 101271" d="M654.748,6170.866q.568,1.384,1.016,2.812l26.132-.239c-.225-1.135-.461-2.254-.7-3.344Z" transform="translate(-559.959 -6036.655)" fill="#b58785"/>
      <path id="Trazado_101272" data-name="Trazado 101272" d="M745.62,6169.065l-.79.023-14.156.412q-.5,2.383-.914,4.46l20.5-.187h0c0-.022-.031-.624-.872-17.183l-.166.016q-2.046.2-4.075.363Z" transform="translate(-554.341 -6037.666)" fill="#b58785"/>
      <path id="Trazado_101273" data-name="Trazado 101273" d="M610.648,6173.272c-.466.069-.939.128-1.423.169-.03-.422-.043-.842-.047-1.256l-20.692.6q-.6.669-1.377,1.406l23.557-.215Q610.652,6173.62,610.648,6173.272Z" transform="translate(-565.024 -6036.498)" fill="#b58785"/>
      <path id="Trazado_101274" data-name="Trazado 101274" d="M732.518,6161.131l-.067.02c-.565,2.389-1.073,4.641-1.527,6.74l12.984-.378-.409-10.457q-3.649.27-7.247.42A13.186,13.186,0,0,1,732.518,6161.131Z" transform="translate(-554.254 -6037.631)" fill="#b58785"/>
      <path id="Trazado_101275" data-name="Trazado 101275" d="M608.319,6124.239h6.97c.032-.2.072-.4.106-.595q-3.526-.037-7.051-.068Z" transform="translate(-563.436 -6040.139)" fill="#b58785"/>
      <path id="Trazado_101276" data-name="Trazado 101276" d="M601.069,6072.084l4.523.156.047-.938q-2.277-.021-4.552-.041l-10.729-.042-5.253-.019,0,.258,5.245.207Z" transform="translate(-565.174 -6044.061)" fill="#b58785"/>
      <path id="Trazado_101277" data-name="Trazado 101277" d="M701.388,6074.534q4.1.056,8.2.1c.188-.229.376-.461.561-.695l.9.712q5.9.062,11.793.106l3.162.013v-.708l-3.145-.123q-10.72-.379-21.443-.706c-7.148-.231-14.3-.4-21.446-.6l-1.841-.044-.617,1.582,2.424.046C687.087,6074.32,694.236,6074.458,701.388,6074.534Z" transform="translate(-558.254 -6043.958)" fill="#b58785"/>
      <path id="Trazado_101278" data-name="Trazado 101278" d="M609.117,6072.4l.041-1.067-3.927-.034-.048.967Z" transform="translate(-563.671 -6044.054)" fill="#b58785"/>
      <path id="Trazado_101279" data-name="Trazado 101279" d="M620.627,6072.779q5.353.174,10.706.313l-.527-1.482q-5.076-.079-10.151-.141l-2.273-.026q-4.021-.05-8.041-.094l-.042,1.105Q615.462,6072.624,620.627,6072.779Z" transform="translate(-563.288 -6044.05)" fill="#b58785"/>
      <path id="Trazado_101280" data-name="Trazado 101280" d="M730.083,6074.689l5.364.02,5.1-.009v-.013l-5.095-.23-5.36-.21-6.011-.235v.653Z" transform="translate(-554.766 -6043.851)" fill="#b58785"/>
      <path id="Trazado_101281" data-name="Trazado 101281" d="M583.923,6071.2l-3.677.008h-.234l.234.01,3.676.167Z" transform="translate(-565.556 -6044.061)" fill="#b58785"/>
      <path id="Trazado_101282" data-name="Trazado 101282" d="M636.724,6071.71l-.643,1.425-1.425-.643.364-.809-4.029-.067.362,1.018-1.247.444q5.242.14,10.481.283l9.427.222v-1.628l-9.392-.184Q638.673,6071.743,636.724,6071.71Z" transform="translate(-561.804 -6044.029)" fill="#b58785"/>
      <path id="Trazado_101283" data-name="Trazado 101283" d="M743.3,6152.487l.223,5.713.41,10.457-12.984.378q-.174.8-.338,1.575l14.156-.412.79-.023-.473-12.095-.227-5.8-.411-10.5c-.521.173-1.037.324-1.548.457Z" transform="translate(-554.277 -6038.774)" fill="#7e6489"/>
      <path id="Trazado_101284" data-name="Trazado 101284" d="M684.889,6170.2q-.176-.789-.354-1.555l-79.143,2.291c.242.507.265,1.033.48,1.555Z" transform="translate(-563.655 -6036.763)" fill="#7e6489"/>
      <path id="Trazado_101285" data-name="Trazado 101285" d="M609.532,6170.728l-25.128.567a16.451,16.451,0,0,1-1.494,1.6l26.582-.6Q609.482,6171.5,609.532,6170.728Z" transform="translate(-565.339 -6036.607)" fill="#7e6489"/>
      <path id="Trazado_101286" data-name="Trazado 101286" d="M739.484,6076.8l.056,1.411,1.98,50.634a34.94,34.94,0,0,1,1.7,3.342l-2.113-54.033-1.26-32.2h-1.565l1.206,30.837Z" transform="translate(-553.703 -6045.952)" fill="#7e6489"/>
      <path id="Trazado_101287" data-name="Trazado 101287" d="M583.7,6073.278l-.1,11.01,0,.263-.239,26.589-.454,71.1a15.883,15.883,0,0,0,1.548-1.6l.459-68.263.233-25.933.02-2.213.1-10.882,0-.258.244-27.139h-1.565l-.244,27.141Z" transform="translate(-565.339 -6045.952)" fill="#7e6489"/>
      <path id="Trazado_101288" data-name="Trazado 101288" d="M608.651,6082.768l-1.066,27.928-.668,17.463-.111,2.911h9.947l.1-.672c.015-.105.034-.207.05-.311.058-.39.117-.779.186-1.159a29.9,29.9,0,0,1,2.682-8.235,21.714,21.714,0,0,1,7.1-8.217c10.478-7.209,25.347-3.921,25.5-3.887l.957.218v-48.15l-43.546-7.394-.742,19.425-.041,1.067Zm2.622-27.664,14.31,2.429.161.453.808-.288,16.2,2.752,1.168.526.138-.3,7.7,1.308v44.9c-3.567-.644-16.17-2.291-25.766,4.308a23.177,23.177,0,0,0-7.49,8.537,31.479,31.479,0,0,0-3,9.192c-.034.2-.074.393-.106.595h-6.97l.025-.663.643-16.827,1.119-29.3.341-8.9.042-1.1Z" transform="translate(-563.549 -6045.405)" fill="#7e6489"/>
      <path id="Trazado_101289" data-name="Trazado 101289" d="M671.665,6087.413l1.088.05a48.405,48.405,0,0,1,18.028,5.292,40.984,40.984,0,0,1,13.521,11.16,40.081,40.081,0,0,1,3.73,5.762h1.736a42.215,42.215,0,0,0-18.318-18.337q-1.314-.685-2.6-1.255c.2-.026.408-.05.609-.079l-.222-1.548c-.6.086-1.21.156-1.818.208l.07.834a49.987,49.987,0,0,0-13.589-3.512l2.282-5.847,1.768-4.531.617-1.582,7.408-18.982L719,6059.991c-.085.248-.189.54-.315.88l1.466.544c.182-.489.319-.886.421-1.189l5.868.878v56.673a11.025,11.025,0,0,1,1.565,2.314v-60.333l-43.036-6.445-8.067,20.673-.62,1.589-1.8,4.626Z" transform="translate(-558.692 -6045.401)" fill="#7e6489"/>
      <path id="Trazado_101290" data-name="Trazado 101290" d="M630.164,6073.123l1.247-.443-.362-1.019-.226-.636-1.474.523.031.086.526,1.481.031.087Z" transform="translate(-561.861 -6044.074)" fill="#7e6489"/>
      <rect id="Rectngulo_5213" data-name="Rectngulo 5213" width="1.564" height="1.756" transform="translate(62.783 14.235) rotate(-19.559)" fill="#7e6489"/>
      <rect id="Rectngulo_5214" data-name="Rectngulo 5214" width="1.564" height="1.756" transform="translate(68.665 30.784) rotate(-19.563)" fill="#7e6489"/>
      <rect id="Rectngulo_5215" data-name="Rectngulo 5215" width="1.564" height="1.756" transform="translate(65.136 20.855) rotate(-19.566)" fill="#7e6489"/>
      <rect id="Rectngulo_5216" data-name="Rectngulo 5216" width="1.564" height="1.756" transform="translate(63.959 17.545) rotate(-19.566)" fill="#7e6489"/>
      <path id="Trazado_101291" data-name="Trazado 101291" d="M629.261,6069.976l1.056-.375-.588-1.655-1.474.524.567,1.6.021.058Z" transform="translate(-561.943 -6044.305)" fill="#7e6489"/>
      <path id="Trazado_101292" data-name="Trazado 101292" d="M632.676,6080.04l1.011-2.243-.546-.246-.13-.366-.381.135-.369-.166-.16.354-.564.2.832,2.342.133.375Z" transform="translate(-561.697 -6043.615)" fill="#7e6489"/>
      <rect id="Rectngulo_5217" data-name="Rectngulo 5217" width="1.856" height="1.564" transform="translate(71.327 31.847) rotate(-65.735)" fill="#7e6489"/>
      <rect id="Rectngulo_5218" data-name="Rectngulo 5218" width="1.856" height="1.564" transform="translate(77.426 18.312) rotate(-65.755)" fill="#7e6489"/>
      <rect id="Rectngulo_5219" data-name="Rectngulo 5219" width="1.856" height="1.564" transform="translate(75.901 21.696) rotate(-65.737)" fill="#7e6489"/>
      <path id="Trazado_101293" data-name="Trazado 101293" d="M637.183,6070.044l.762-1.691-1.283-.578-.143-.064-.06.133-.7,1.56Z" transform="translate(-561.381 -6044.323)" fill="#7e6489"/>
      <path id="Trazado_101294" data-name="Trazado 101294" d="M634.339,6072.55l1.426.643.642-1.426.12-.266-1.426-.643-.4.882Z" transform="translate(-561.487 -6044.087)" fill="#7e6489"/>
      <path id="Trazado_101295" data-name="Trazado 101295" d="M714.817,6065.787l-1.4-.692c-.275.558-.56,1.113-.847,1.649l1.379.739C714.242,6066.931,714.534,6066.36,714.817,6065.787Z" transform="translate(-555.628 -6044.519)" fill="#7e6489"/>
      <path id="Trazado_101296" data-name="Trazado 101296" d="M716.277,6062.548l-1.445-.6c-.235.566-.483,1.139-.738,1.7l1.424.647C715.782,6063.72,716.036,6063.131,716.277,6062.548Z" transform="translate(-555.514 -6044.754)" fill="#7e6489"/>
      <path id="Trazado_101297" data-name="Trazado 101297" d="M704.917,6077.275c-.16.162-.32.323-.482.48l1.091,1.122c.454-.441.9-.9,1.34-1.365l-.314-.3-.827-.775C705.461,6076.724,705.19,6077,704.917,6077.275Z" transform="translate(-556.237 -6043.668)" fill="#7e6489"/>
      <path id="Trazado_101298" data-name="Trazado 101298" d="M713.15,6068.922l-1.354-.783c-.311.538-.631,1.073-.953,1.589l1.326.829C712.5,6070.024,712.831,6069.474,713.15,6068.922Z" transform="translate(-555.758 -6044.291)" fill="#7e6489"/>
      <path id="Trazado_101299" data-name="Trazado 101299" d="M701.871,6080.008l.974,1.224c.492-.392.987-.807,1.468-1.231l-1.035-1.173C702.817,6079.235,702.343,6079.632,701.871,6080.008Z" transform="translate(-556.429 -6043.489)" fill="#7e6489"/>
      <path id="Trazado_101300" data-name="Trazado 101300" d="M699.092,6081.975l.835,1.322c.536-.339,1.072-.7,1.594-1.07l-.908-1.274C700.115,6081.308,699.6,6081.651,699.092,6081.975Z" transform="translate(-556.638 -6043.331)" fill="#7e6489"/>
      <path id="Trazado_101301" data-name="Trazado 101301" d="M689.688,6085.745l.314,1.532c.623-.128,1.253-.276,1.869-.443l-.406-1.51C690.879,6085.482,690.28,6085.624,689.688,6085.745Z" transform="translate(-557.342 -6043.003)" fill="#7e6489"/>
      <path id="Trazado_101302" data-name="Trazado 101302" d="M692.966,6084.876l.5,1.482c.605-.2,1.211-.43,1.8-.67l-.589-1.448C694.118,6084.468,693.542,6084.681,692.966,6084.876Z" transform="translate(-557.096 -6043.084)" fill="#7e6489"/>
      <path id="Trazado_101303" data-name="Trazado 101303" d="M696.115,6083.61l.676,1.41c.572-.273,1.146-.569,1.707-.88l-.758-1.369C697.206,6083.067,696.659,6083.35,696.115,6083.61Z" transform="translate(-556.86 -6043.194)" fill="#7e6489"/>
      <path id="Trazado_101304" data-name="Trazado 101304" d="M711.275,6071.937l-1.3-.875c-.347.516-.705,1.026-1.062,1.515l1.263.922C710.548,6072.995,710.916,6072.469,711.275,6071.937Z" transform="translate(-555.902 -6044.072)" fill="#7e6489"/>
      <path id="Trazado_101305" data-name="Trazado 101305" d="M707.4,6074.535c-.2.247-.408.491-.614.73l1.186,1.02c.41-.477.819-.973,1.216-1.475l-.327-.258-.9-.712C707.773,6074.074,707.585,6074.306,707.4,6074.535Z" transform="translate(-556.062 -6043.863)" fill="#7e6489"/>
      <path id="Trazado_101306" data-name="Trazado 101306" d="M687.259,6049.934l.128-.854,38.651,5.933-.092.963,1.442-.659,1.442-.659-1.292-.919-1.292-.919-.105,1.1L687.55,6048l.18-1.2-1.476.579-1.476.58,1.24.988Z" transform="translate(-557.709 -6045.889)" fill="#7e6489"/>
      <path id="Trazado_101307" data-name="Trazado 101307" d="M701.746,6107.154a44.437,44.437,0,0,0-14.952-13.653,51.075,51.075,0,0,0-15.013-5.61l.187-.895-1.506.5-1.506.5,1.182,1.056,1.182,1.057.235-1.131a50.5,50.5,0,0,1,14.7,5.486,43.43,43.43,0,0,1,14.181,12.732,3.49,3.49,0,0,1,.455-.034Z" transform="translate(-558.894 -6042.878)" fill="#7e6489"/>
      <path id="Trazado_101308" data-name="Trazado 101308" d="M603.959,6083.042l-1.163,22.974-.951,18.786-.229,4.518.611.031-.065,0-1.584-.077.725,1.41.725,1.41.858-1.333.859-1.333-1.037-.051.2-3.9.936-18.488L605.057,6083l.471-9.293.049-.967.907-17.906.966-.006-.8-1.369-.8-1.368-.785,1.377-.785,1.378,1.108-.006-.906,17.891-.048.938Z" transform="translate(-564.015 -6045.492)" fill="#7e6489"/>
      <path id="Trazado_101309" data-name="Trazado 101309" d="M568.279,6164.073l-.139-.132Z" transform="translate(-566.445 -6037.116)" fill="#fad4c8"/>
      <path id="Trazado_101310" data-name="Trazado 101310" d="M567.222,6163.067l-.659-.626Z" transform="translate(-566.563 -6037.228)" fill="#fad4c8"/>
      <path id="Trazado_101311" data-name="Trazado 101311" d="M569.705,6165.431l-.174-.167Z" transform="translate(-566.341 -6037.017)" fill="#fad4c8"/>
      <path id="Trazado_101312" data-name="Trazado 101312" d="M662.133,6171.111l-55.229,1.609-1.767-17.435,24.343-10.8s18.683,5.7,19.3,6.427,14.232,15.024,14.293,15.305S662.133,6171.111,662.133,6171.111Z" transform="translate(-563.674 -6038.572)" fill="#b58785"/>
      <path id="Trazado_101313" data-name="Trazado 101313" d="M675.2,6168.89l64.585-1.881v1.565l-64.585,1.881Z" transform="translate(-558.427 -6036.886)" fill="#7e6489"/>
      <path id="Trazado_101314" data-name="Trazado 101314" d="M742.057,6143.1l-.805-21.09,1.589.593.933,23.855-1.66-2.418Z" transform="translate(-553.48 -6040.256)" fill="#7e6489"/>
      <path id="Trazado_101315" data-name="Trazado 101315" d="M724.62,6108.03l.42,19.641h-9.113s-5.888-18.7-10.8-23.681" transform="translate(-556.185 -6041.605)" fill="none" stroke="#7e6489" stroke-miterlimit="10" stroke-width="1.5"/>
    </g>
  </g>
</svg>
