<svg xmlns="http://www.w3.org/2000/svg" width="379.752" height="416.186" viewBox="0 0 379.752 416.186">
  <g id="Grupo_54041" data-name="Grupo 54041" transform="translate(-951.352 -9289.506)">
    <g id="Grupo_54039" data-name="Grupo 54039" transform="translate(951.852 9289.506)">
      <path id="Trazado_101910" data-name="Trazado 101910" d="M951.91,9296.3v404.516h172.464v-245.5s4.745-104.385-30.1-164.517Z" transform="translate(-951.84 -9289.244)" fill="#fff" stroke="#c69c6d" stroke-miterlimit="10" stroke-width="1"/>
      <path id="Trazado_101911" data-name="Trazado 101911" d="M951.87,9300.461v399.511h159.658V9457.506s4.391-103.095-27.864-162.481Z" transform="translate(-951.848 -9288.389)" fill="none" stroke="gray" stroke-miterlimit="10" stroke-width="1"/>
      <path id="Trazado_101912" data-name="Trazado 101912" d="M951.852,9302.3v395.122h153.783v-239.8s4.23-101.96-26.839-160.7Z" transform="translate(-951.852 -9288.005)" fill="none" stroke="#009245" stroke-miterlimit="10" stroke-width="1"/>
      <path id="Trazado_101913" data-name="Trazado 101913" d="M951.889,9298.06v402.4h165.8V9456.24s4.561-103.839-28.936-163.656Z" transform="translate(-951.845 -9288.883)" fill="none" stroke="#662d91" stroke-miterlimit="10" stroke-width="1"/>
      <circle id="Elipse_4087" data-name="Elipse 4087" cx="2.321" cy="2.321" r="2.321" transform="translate(143.578 65.474)" fill="#009245"/>
      <circle id="Elipse_4088" data-name="Elipse 4088" cx="1.514" cy="1.514" r="1.514" transform="translate(125.181 7.403)" fill="#009245"/>
      <circle id="Elipse_4089" data-name="Elipse 4089" cx="2.321" cy="2.321" r="2.321" transform="translate(149.773 65.474)" fill="#b1237f"/>
      <circle id="Elipse_4090" data-name="Elipse 4090" cx="1.602" cy="1.602" r="1.602" transform="translate(130.004 5.034)" fill="#b1237f"/>
      <circle id="Elipse_4091" data-name="Elipse 4091" cx="1.815" cy="1.815" r="1.815" transform="translate(74.275 6.351)" fill="#b1237f"/>
      <circle id="Elipse_4092" data-name="Elipse 4092" cx="1.815" cy="1.815" r="1.815" transform="translate(58.304 3.701)" fill="#ba4515"/>
      <circle id="Elipse_4093" data-name="Elipse 4093" cx="1.435" cy="1.435" r="1.435" transform="translate(68.434 3.386)" fill="#ba4515"/>
      <circle id="Elipse_4094" data-name="Elipse 4094" cx="1.722" cy="1.722" r="1.722" transform="translate(77.165 3.099)" fill="#ba4515"/>
      <circle id="Elipse_4095" data-name="Elipse 4095" cx="1.815" cy="1.815" r="1.815" transform="translate(55.037 7.658)" fill="#b1237f"/>
      <circle id="Elipse_4096" data-name="Elipse 4096" cx="2.321" cy="2.321" r="2.321" transform="translate(156.052 65.474)" fill="#662d91"/>
      <circle id="Elipse_4097" data-name="Elipse 4097" cx="1.588" cy="1.588" r="1.588" transform="translate(134.92 2.299)" fill="#662d91"/>
      <circle id="Elipse_4098" data-name="Elipse 4098" cx="2.321" cy="2.321" r="2.321" transform="translate(162.639 65.474)" fill="#c69c6d"/>
      <circle id="Elipse_4099" data-name="Elipse 4099" cx="1.555" cy="1.555" r="1.555" transform="translate(140.605)" fill="#c69c6d"/>
      <circle id="Elipse_4100" data-name="Elipse 4100" cx="2.321" cy="2.321" r="2.321" transform="translate(150.787 129.155)" fill="#009245"/>
      <circle id="Elipse_4101" data-name="Elipse 4101" cx="2.321" cy="2.321" r="2.321" transform="translate(156.982 129.155)" fill="#b1237f"/>
      <circle id="Elipse_4102" data-name="Elipse 4102" cx="2.321" cy="2.321" r="2.321" transform="translate(163.261 129.155)" fill="#662d91"/>
      <circle id="Elipse_4103" data-name="Elipse 4103" cx="2.321" cy="2.321" r="2.321" transform="translate(169.848 129.155)" fill="#c69c6d"/>
      <circle id="Elipse_4104" data-name="Elipse 4104" cx="2.321" cy="2.321" r="2.321" transform="translate(150.787 406.713)" fill="#009245"/>
      <circle id="Elipse_4105" data-name="Elipse 4105" cx="2.321" cy="2.321" r="2.321" transform="translate(157.181 407.096)" fill="#b1237f"/>
      <circle id="Elipse_4106" data-name="Elipse 4106" cx="2.321" cy="2.321" r="2.321" transform="translate(163.299 408.436)" fill="#662d91"/>
      <circle id="Elipse_4107" data-name="Elipse 4107" cx="2.321" cy="2.321" r="2.321" transform="translate(170.43 409.254)" fill="#c69c6d"/>
      <path id="Trazado_101914" data-name="Trazado 101914" d="M1001.289,9297.76l14.37,67.842,5.416-68.68" transform="translate(-941.846 -9288.005)" fill="none" stroke="#c69c6d" stroke-linecap="round" stroke-linejoin="round" stroke-width="1" stroke-dasharray="4"/>
      <path id="Trazado_101915" data-name="Trazado 101915" d="M999.87,9299.021l14.37,67.841,5.416-68.68" transform="translate(-942.133 -9287.75)" fill="none" stroke="#662d91" stroke-linecap="round" stroke-linejoin="round" stroke-width="1" stroke-dasharray="4"/>
      <path id="Trazado_101916" data-name="Trazado 101916" d="M998.523,9299.354l14.37,67.841,5.416-68.68" transform="translate(-942.406 -9287.683)" fill="none" stroke="gray" stroke-linecap="round" stroke-linejoin="round" stroke-width="1" stroke-dasharray="4"/>
      <path id="Trazado_101917" data-name="Trazado 101917" d="M997.24,9299.612l14.37,67.842,5.416-68.68" transform="translate(-942.666 -9287.63)" fill="none" stroke="#009245" stroke-linecap="round" stroke-linejoin="round" stroke-width="1" stroke-dasharray="4"/>
      <circle id="Elipse_4108" data-name="Elipse 4108" cx="5.215" cy="5.215" r="5.215" transform="translate(66.618 68.081)" fill="none" stroke="#c69c6d" stroke-miterlimit="10" stroke-width="1"/>
      <circle id="Elipse_4109" data-name="Elipse 4109" cx="5.215" cy="5.215" r="5.215" transform="translate(66.01 67.905)" fill="none" stroke="#662d91" stroke-miterlimit="10" stroke-width="1"/>
      <circle id="Elipse_4110" data-name="Elipse 4110" cx="5.215" cy="5.215" r="5.215" transform="translate(65.082 67.905)" fill="none" stroke="gray" stroke-miterlimit="10" stroke-width="1"/>
      <circle id="Elipse_4111" data-name="Elipse 4111" cx="5.215" cy="5.215" r="5.215" transform="translate(63.729 67.905)" fill="none" stroke="#009245" stroke-miterlimit="10" stroke-width="1"/>
      <text id="FALDA_BÁSICA_DELANTERA" data-name="FALDA BÁSICA DELANTERA" transform="translate(89.13 84.11) rotate(90)" font-size="21" font-family="Roboto-Bold, Roboto" font-weight="700"><tspan x="0" y="0">FALDA BÁSICA DELANTERA</tspan></text>
      <path id="Trazado_101918" data-name="Trazado 101918" d="M1015.881,9365.807V9608.9l6.06-12.86" transform="translate(-938.892 -9274.063)" fill="none" stroke="#000" stroke-linecap="round" stroke-linejoin="round" stroke-width="2"/>
    </g>
    <g id="Grupo_54040" data-name="Grupo 54040" transform="translate(1156.032 9291.796)">
      <path id="Trazado_101919" data-name="Trazado 101919" d="M1121.72,9298.207v404.518h172.464V9457.219s4.745-104.383-30.1-164.516Z" transform="translate(-1121.65 -9291.148)" fill="#fff" stroke="#c69c6d" stroke-miterlimit="10" stroke-width="1"/>
      <path id="Trazado_101920" data-name="Trazado 101920" d="M1121.68,9302.365v399.511h159.658V9459.409s4.391-103.092-27.865-162.481Z" transform="translate(-1121.658 -9290.293)" fill="none" stroke="gray" stroke-miterlimit="10" stroke-width="1"/>
      <path id="Trazado_101921" data-name="Trazado 101921" d="M1121.662,9304.2v395.123h153.783v-239.8s4.23-101.959-26.839-160.7Z" transform="translate(-1121.662 -9289.909)" fill="none" stroke="#009245" stroke-miterlimit="10" stroke-width="1"/>
      <path id="Trazado_101922" data-name="Trazado 101922" d="M1121.7,9299.963v402.4h165.8V9458.145s4.561-103.84-28.936-163.656Z" transform="translate(-1121.655 -9290.787)" fill="none" stroke="#662d91" stroke-miterlimit="10" stroke-width="1"/>
      <circle id="Elipse_4112" data-name="Elipse 4112" cx="2.321" cy="2.321" r="2.321" transform="translate(143.578 65.474)" fill="#009245"/>
      <circle id="Elipse_4113" data-name="Elipse 4113" cx="1.514" cy="1.514" r="1.514" transform="translate(125.181 7.403)" fill="#009245"/>
      <circle id="Elipse_4114" data-name="Elipse 4114" cx="2.321" cy="2.321" r="2.321" transform="translate(149.773 65.474)" fill="#b1237f"/>
      <circle id="Elipse_4115" data-name="Elipse 4115" cx="1.602" cy="1.602" r="1.602" transform="translate(130.004 5.033)" fill="#b1237f"/>
      <circle id="Elipse_4116" data-name="Elipse 4116" cx="1.815" cy="1.815" r="1.815" transform="translate(74.275 6.351)" fill="#b1237f"/>
      <circle id="Elipse_4117" data-name="Elipse 4117" cx="1.815" cy="1.815" r="1.815" transform="translate(58.304 3.701)" fill="#ba4515"/>
      <circle id="Elipse_4118" data-name="Elipse 4118" cx="1.435" cy="1.435" r="1.435" transform="translate(68.434 3.385)" fill="#ba4515"/>
      <circle id="Elipse_4119" data-name="Elipse 4119" cx="1.722" cy="1.722" r="1.722" transform="translate(77.165 3.098)" fill="#ba4515"/>
      <circle id="Elipse_4120" data-name="Elipse 4120" cx="1.815" cy="1.815" r="1.815" transform="translate(55.037 7.658)" fill="#b1237f"/>
      <circle id="Elipse_4121" data-name="Elipse 4121" cx="2.321" cy="2.321" r="2.321" transform="translate(156.052 65.474)" fill="#662d91"/>
      <circle id="Elipse_4122" data-name="Elipse 4122" cx="1.588" cy="1.588" r="1.588" transform="translate(134.92 2.299)" fill="#662d91"/>
      <circle id="Elipse_4123" data-name="Elipse 4123" cx="2.321" cy="2.321" r="2.321" transform="translate(162.639 65.474)" fill="#c69c6d"/>
      <circle id="Elipse_4124" data-name="Elipse 4124" cx="1.555" cy="1.555" r="1.555" transform="translate(140.605)" fill="#c69c6d"/>
      <circle id="Elipse_4125" data-name="Elipse 4125" cx="2.321" cy="2.321" r="2.321" transform="translate(150.787 129.155)" fill="#009245"/>
      <circle id="Elipse_4126" data-name="Elipse 4126" cx="2.321" cy="2.321" r="2.321" transform="translate(156.982 129.155)" fill="#b1237f"/>
      <circle id="Elipse_4127" data-name="Elipse 4127" cx="2.321" cy="2.321" r="2.321" transform="translate(163.261 129.155)" fill="#662d91"/>
      <circle id="Elipse_4128" data-name="Elipse 4128" cx="2.321" cy="2.321" r="2.321" transform="translate(169.848 129.155)" fill="#c69c6d"/>
      <circle id="Elipse_4129" data-name="Elipse 4129" cx="2.321" cy="2.321" r="2.321" transform="translate(150.787 406.713)" fill="#009245"/>
      <circle id="Elipse_4130" data-name="Elipse 4130" cx="2.321" cy="2.321" r="2.321" transform="translate(157.181 407.095)" fill="#b1237f"/>
      <circle id="Elipse_4131" data-name="Elipse 4131" cx="2.321" cy="2.321" r="2.321" transform="translate(163.299 408.436)" fill="#662d91"/>
      <circle id="Elipse_4132" data-name="Elipse 4132" cx="2.321" cy="2.321" r="2.321" transform="translate(170.43 409.254)" fill="#c69c6d"/>
      <path id="Trazado_101923" data-name="Trazado 101923" d="M1171.1,9299.664l14.37,67.842,5.416-68.68" transform="translate(-1111.656 -9289.909)" fill="none" stroke="#c69c6d" stroke-linecap="round" stroke-linejoin="round" stroke-width="1" stroke-dasharray="4"/>
      <path id="Trazado_101924" data-name="Trazado 101924" d="M1169.68,9300.923l14.37,67.843,5.416-68.68" transform="translate(-1111.943 -9289.654)" fill="none" stroke="#662d91" stroke-linecap="round" stroke-linejoin="round" stroke-width="1" stroke-dasharray="4"/>
      <path id="Trazado_101925" data-name="Trazado 101925" d="M1168.333,9301.257l14.37,67.842,5.416-68.68" transform="translate(-1112.216 -9289.587)" fill="none" stroke="gray" stroke-linecap="round" stroke-linejoin="round" stroke-width="1" stroke-dasharray="4"/>
      <path id="Trazado_101926" data-name="Trazado 101926" d="M1167.05,9301.518l14.37,67.842,5.416-68.68" transform="translate(-1112.475 -9289.535)" fill="none" stroke="#009245" stroke-linecap="round" stroke-linejoin="round" stroke-width="1" stroke-dasharray="4"/>
      <circle id="Elipse_4133" data-name="Elipse 4133" cx="5.215" cy="5.215" r="5.215" transform="translate(66.618 68.08)" fill="none" stroke="#c69c6d" stroke-miterlimit="10" stroke-width="1"/>
      <circle id="Elipse_4134" data-name="Elipse 4134" cx="5.215" cy="5.215" r="5.215" transform="translate(66.01 67.905)" fill="none" stroke="#662d91" stroke-miterlimit="10" stroke-width="1"/>
      <circle id="Elipse_4135" data-name="Elipse 4135" cx="5.215" cy="5.215" r="5.215" transform="translate(65.082 67.905)" fill="none" stroke="gray" stroke-miterlimit="10" stroke-width="1"/>
      <circle id="Elipse_4136" data-name="Elipse 4136" cx="5.215" cy="5.215" r="5.215" transform="translate(63.73 67.905)" fill="none" stroke="#009245" stroke-miterlimit="10" stroke-width="1"/>
      <text id="FALDA_POSTERIOR" data-name="FALDA POSTERIOR" transform="translate(66.957 326.366) rotate(-90)" font-size="26" font-family="Roboto-Bold, Roboto" font-weight="700"><tspan x="0" y="0">FALDA POSTERIOR</tspan></text>
      <path id="Trazado_101927" data-name="Trazado 101927" d="M1185.691,9367.711V9610.8l6.06-12.859" transform="translate(-1108.703 -9275.967)" fill="none" stroke="#000" stroke-linecap="round" stroke-linejoin="round" stroke-width="2"/>
    </g>
  </g>
</svg>
