<svg xmlns="http://www.w3.org/2000/svg" width="337.747" height="244.425" viewBox="0 0 337.747 244.425">
  <g id="Grupo_54119" data-name="Grupo 54119" transform="translate(-399.667 -701.25)">
    <path id="Trazado_102548" data-name="Trazado 102548" d="M550.37,945.675H422.214V771.042l.479-.02c14.432-.594,25.288-5.148,32.268-13.533,10.961-13.17,8.5-31.5,8.476-31.679l-.127-.89,53.118,23.355-.1.406c-.109.461-10.956,46.483-8.127,76.829,1.41,15.126,12.939,26.241,23.739,30.547A58.329,58.329,0,0,0,557.063,860l.6-.067Zm-127.156-1H549.452l7.117-83.632a60.222,60.222,0,0,1-25-4.057c-11.083-4.419-22.914-15.836-24.364-31.383-2.7-28.983,6.983-72.1,8.056-76.747l-50.743-22.312c.346,3.868,1.068,19.732-8.786,31.577-7.089,8.523-18.029,13.191-32.521,13.879Z" fill="blue"/>
    <path id="Trazado_102549" data-name="Trazado 102549" d="M541.972,945.675H422.214V767.5h.5c12.009-.038,21.367-3.62,27.815-10.649,11.2-12.209,9.791-30.883,9.776-31.07l-.07-.836,52.915,23.192-.074.392c-.082.429-8.171,43.328-5.341,73.686,2.8,29.966,41.358,28.651,41.742,28.634l.568-.025-.049.566Zm-118.758-1h117.84l7.9-92.816c-4.894.032-39.522-.691-42.214-29.552-2.7-28.942,4.472-69.17,5.282-73.573l-50.677-22.212c.136,3.808.059,19.951-10.073,31-6.555,7.148-15.992,10.839-28.055,10.974Z" fill="red"/>
    <path id="Trazado_102550" data-name="Trazado 102550" d="M533.081,945.675H422.214V764.733l.483-.015c10.685-.349,19.074-3.812,24.936-10.292,10.316-11.406,9.289-28.482,9.277-28.653l-.055-.821,52.015,22.673-.106.413c-.094.362-9.337,36.532-6.509,66.872.725,7.784,3.828,13.893,9.223,18.158,11.876,9.389,31.1,6.812,31.3,6.785l.629-.088Zm-109.867-1H532.173l10.114-103.759c-3.465.363-20.446,1.618-31.426-7.061-5.619-4.441-8.849-10.784-9.6-18.852-2.68-28.755,5.41-62.675,6.432-66.8l-49.754-21.687c.067,3.585-.262,18.294-9.557,28.576-5.962,6.594-14.428,10.162-25.166,10.608Z"/>
    <rect id="Rectángulo_5313" data-name="Rectángulo 5313" width="50.349" height="1" transform="translate(457.409 725.239)"/>
    <rect id="Rectángulo_5314" data-name="Rectángulo 5314" width="50.348" height="1" transform="translate(509.127 944.675)"/>
    <rect id="Rectángulo_5315" data-name="Rectángulo 5315" width="70.825" height="1" transform="translate(452.845 747.413)"/>
    <rect id="Rectángulo_5316" data-name="Rectángulo 5316" width="107.565" height="1" transform="translate(422.975 800.065)"/>
    <rect id="Rectángulo_5317" data-name="Rectángulo 5317" width="104.586" height="1" transform="translate(422.975 839.543)"/>
    <rect id="Rectángulo_5318" data-name="Rectángulo 5318" width="117.484" height="1" transform="translate(422.975 863.674)"/>
    <rect id="Rectángulo_5319" data-name="Rectángulo 5319" width="0.999" height="80.619" transform="translate(465.347 864.215) rotate(-4.702)"/>
    <rect id="Rectángulo_5320" data-name="Rectángulo 5320" width="1" height="80.348" transform="translate(464.648 864.174)"/>
    <rect id="Rectángulo_5321" data-name="Rectángulo 5321" width="80.887" height="1" transform="matrix(0.068, -0.998, 0.998, 0.068, 459.103, 944.837)"/>
    <g id="Grupo_54109" data-name="Grupo 54109">
      <path id="Trazado_102551" data-name="Trazado 102551" d="M456.926,716.352a4.515,4.515,0,0,1-.934,3.087,3.571,3.571,0,0,1-5.064,0,4.5,4.5,0,0,1-.936-3.087v-2.26a4.543,4.543,0,0,1,.932-3.087,3.554,3.554,0,0,1,5.062,0,4.514,4.514,0,0,1,.94,3.087Zm-2.049-2.473a3.371,3.371,0,0,0-.365-1.783,1.272,1.272,0,0,0-2.114,0,3.433,3.433,0,0,0-.357,1.786v2.665a3.425,3.425,0,0,0,.361,1.8,1.192,1.192,0,0,0,1.067.563,1.167,1.167,0,0,0,1.049-.563,3.448,3.448,0,0,0,.359-1.8Z"/>
      <path id="Trazado_102552" data-name="Trazado 102552" d="M460.664,720.344h-2.057v-1.8h2.057Z"/>
      <path id="Trazado_102553" data-name="Trazado 102553" d="M462.746,715.8l.592-5.709h5.717v1.647h-4.034l-.283,2.365a2.493,2.493,0,0,1,.684-.348,3.213,3.213,0,0,1,3.178.75,3.7,3.7,0,0,1,.814,2.548,3.51,3.51,0,0,1-.891,2.457,3.294,3.294,0,0,1-2.566.979,3.86,3.86,0,0,1-2.422-.775,2.446,2.446,0,0,1-.971-2.126l.014-.035,1.979-.1a1.44,1.44,0,0,0,.386,1.067,1.377,1.377,0,0,0,1.014.384,1.183,1.183,0,0,0,1.059-.51,2.347,2.347,0,0,0,.341-1.331,2.469,2.469,0,0,0-.365-1.42,1.229,1.229,0,0,0-1.084-.534,1.578,1.578,0,0,0-.9.218,1.186,1.186,0,0,0-.447.592Z"/>
    </g>
    <g id="Grupo_54110" data-name="Grupo 54110">
      <path id="Trazado_102554" data-name="Trazado 102554" d="M659.708,707.656a4.518,4.518,0,0,1-.933,3.087,3.571,3.571,0,0,1-5.064,0,4.5,4.5,0,0,1-.937-3.087V705.4a4.539,4.539,0,0,1,.933-3.087,3.554,3.554,0,0,1,5.062,0,4.514,4.514,0,0,1,.939,3.087Zm-2.048-2.473a3.37,3.37,0,0,0-.366-1.783,1.27,1.27,0,0,0-2.112,0,3.413,3.413,0,0,0-.359,1.786v2.666a3.411,3.411,0,0,0,.363,1.8,1.187,1.187,0,0,0,1.066.563,1.168,1.168,0,0,0,1.049-.563,3.457,3.457,0,0,0,.359-1.8Z"/>
      <path id="Trazado_102555" data-name="Trazado 102555" d="M663.446,711.648h-2.055v-1.8h2.055Z"/>
      <path id="Trazado_102556" data-name="Trazado 102556" d="M665.529,707.107l.592-5.709h5.716v1.647H667.8l-.283,2.366a2.494,2.494,0,0,1,.684-.349,2.88,2.88,0,0,1,.887-.144,2.847,2.847,0,0,1,2.291.894,3.7,3.7,0,0,1,.813,2.548,3.514,3.514,0,0,1-.89,2.457,3.294,3.294,0,0,1-2.566.979,3.858,3.858,0,0,1-2.422-.775,2.444,2.444,0,0,1-.971-2.126l.013-.035,1.979-.1a1.434,1.434,0,0,0,.387,1.066,1.377,1.377,0,0,0,1.014.384,1.186,1.186,0,0,0,1.059-.509,2.358,2.358,0,0,0,.342-1.332,2.458,2.458,0,0,0-.367-1.419,1.229,1.229,0,0,0-1.084-.535,1.569,1.569,0,0,0-.9.219,1.185,1.185,0,0,0-.447.591Z"/>
    </g>
    <g id="Grupo_54111" data-name="Grupo 54111">
      <path id="Trazado_102557" data-name="Trazado 102557" d="M724.926,729.743a4.514,4.514,0,0,1-.934,3.087,3.571,3.571,0,0,1-5.064,0,4.5,4.5,0,0,1-.936-3.087v-2.26a4.543,4.543,0,0,1,.932-3.087,3.554,3.554,0,0,1,5.062,0,4.514,4.514,0,0,1,.94,3.087Zm-2.049-2.473a3.371,3.371,0,0,0-.365-1.783,1.272,1.272,0,0,0-2.114,0,3.433,3.433,0,0,0-.357,1.786v2.665a3.426,3.426,0,0,0,.361,1.8,1.192,1.192,0,0,0,1.067.563,1.167,1.167,0,0,0,1.049-.563,3.448,3.448,0,0,0,.359-1.8Z"/>
      <path id="Trazado_102558" data-name="Trazado 102558" d="M728.664,733.735h-2.057v-1.8h2.057Z"/>
      <path id="Trazado_102559" data-name="Trazado 102559" d="M730.746,729.194l.592-5.709h5.717v1.647h-4.034l-.283,2.365a2.522,2.522,0,0,1,.684-.348,3.213,3.213,0,0,1,3.178.75,3.7,3.7,0,0,1,.814,2.548,3.51,3.51,0,0,1-.891,2.457,3.29,3.29,0,0,1-2.566.979,3.859,3.859,0,0,1-2.422-.775,2.446,2.446,0,0,1-.971-2.126l.014-.035,1.979-.1a1.437,1.437,0,0,0,.386,1.066,1.377,1.377,0,0,0,1.014.384,1.183,1.183,0,0,0,1.059-.51,2.344,2.344,0,0,0,.341-1.331,2.471,2.471,0,0,0-.365-1.42,1.228,1.228,0,0,0-1.084-.534,1.569,1.569,0,0,0-.9.219,1.179,1.179,0,0,0-.447.591Z"/>
    </g>
    <g id="Grupo_54112" data-name="Grupo 54112">
      <path id="Trazado_102560" data-name="Trazado 102560" d="M592.577,729.744a4.516,4.516,0,0,1-.932,3.086,3.572,3.572,0,0,1-5.065,0,4.5,4.5,0,0,1-.936-3.086v-2.26a4.535,4.535,0,0,1,.932-3.087,3.554,3.554,0,0,1,5.062,0,4.511,4.511,0,0,1,.939,3.087Zm-2.048-2.474a3.364,3.364,0,0,0-.366-1.782,1.271,1.271,0,0,0-2.112,0,3.423,3.423,0,0,0-.359,1.786v2.666a3.428,3.428,0,0,0,.363,1.8,1.186,1.186,0,0,0,1.066.562,1.167,1.167,0,0,0,1.049-.562,3.463,3.463,0,0,0,.359-1.8Z"/>
      <path id="Trazado_102561" data-name="Trazado 102561" d="M596.315,733.735H594.26v-1.8h2.055Z"/>
      <path id="Trazado_102562" data-name="Trazado 102562" d="M598.4,729.2l.592-5.71h5.716v1.648h-4.033l-.282,2.365a2.446,2.446,0,0,1,.683-.348,3.207,3.207,0,0,1,3.178.749,3.708,3.708,0,0,1,.813,2.549,3.513,3.513,0,0,1-.89,2.457,3.3,3.3,0,0,1-2.566.978,3.852,3.852,0,0,1-2.421-.774,2.445,2.445,0,0,1-.972-2.126l.014-.035,1.978-.1a1.432,1.432,0,0,0,.387,1.066,1.379,1.379,0,0,0,1.014.384,1.186,1.186,0,0,0,1.059-.509,2.35,2.35,0,0,0,.342-1.332,2.467,2.467,0,0,0-.366-1.419,1.231,1.231,0,0,0-1.084-.534,1.579,1.579,0,0,0-.9.218,1.193,1.193,0,0,0-.447.591Z"/>
    </g>
    <g id="Grupo_54113" data-name="Grupo 54113">
      <path id="Trazado_102563" data-name="Trazado 102563" d="M588.926,777.917a4.513,4.513,0,0,1-.934,3.087,3.571,3.571,0,0,1-5.064,0,4.5,4.5,0,0,1-.936-3.087v-2.259a4.54,4.54,0,0,1,.932-3.087,3.554,3.554,0,0,1,5.062,0,4.511,4.511,0,0,1,.94,3.087Zm-2.049-2.473a3.371,3.371,0,0,0-.365-1.783,1.273,1.273,0,0,0-2.114,0,3.435,3.435,0,0,0-.357,1.786v2.666a3.43,3.43,0,0,0,.361,1.8,1.191,1.191,0,0,0,1.067.562,1.166,1.166,0,0,0,1.049-.562,3.453,3.453,0,0,0,.359-1.8Z"/>
      <path id="Trazado_102564" data-name="Trazado 102564" d="M592.664,781.909h-2.057v-1.8h2.057Z"/>
      <path id="Trazado_102565" data-name="Trazado 102565" d="M594.746,777.369l.592-5.71h5.717v1.648h-4.034l-.283,2.365a2.466,2.466,0,0,1,.684-.348,3.207,3.207,0,0,1,3.178.749,3.7,3.7,0,0,1,.814,2.548,3.51,3.51,0,0,1-.891,2.457,3.29,3.29,0,0,1-2.566.979,3.859,3.859,0,0,1-2.422-.774,2.449,2.449,0,0,1-.971-2.126l.014-.036,1.979-.1a1.437,1.437,0,0,0,.386,1.066,1.377,1.377,0,0,0,1.014.384,1.185,1.185,0,0,0,1.059-.509,2.35,2.35,0,0,0,.341-1.332,2.467,2.467,0,0,0-.365-1.419,1.228,1.228,0,0,0-1.084-.534,1.57,1.57,0,0,0-.9.218,1.183,1.183,0,0,0-.447.591Z"/>
    </g>
    <g id="Grupo_54114" data-name="Grupo 54114">
      <path id="Trazado_102566" data-name="Trazado 102566" d="M535.163,743.921a4.512,4.512,0,0,1-.933,3.087,3.571,3.571,0,0,1-5.064,0,4.5,4.5,0,0,1-.936-3.087v-2.26a4.534,4.534,0,0,1,.932-3.086,3.552,3.552,0,0,1,5.062,0,4.509,4.509,0,0,1,.939,3.086Zm-2.048-2.473a3.371,3.371,0,0,0-.366-1.783,1.27,1.27,0,0,0-2.112,0,3.412,3.412,0,0,0-.359,1.786v2.666a3.411,3.411,0,0,0,.363,1.8,1.187,1.187,0,0,0,1.066.563,1.168,1.168,0,0,0,1.049-.563,3.456,3.456,0,0,0,.359-1.8Z"/>
      <path id="Trazado_102567" data-name="Trazado 102567" d="M538.9,747.913h-2.055v-1.8H538.9Z"/>
      <path id="Trazado_102568" data-name="Trazado 102568" d="M540.984,743.372l.592-5.709h5.716v1.647h-4.033l-.282,2.366a2.444,2.444,0,0,1,.683-.348,3.207,3.207,0,0,1,3.178.749,3.7,3.7,0,0,1,.813,2.548,3.509,3.509,0,0,1-.89,2.457,3.292,3.292,0,0,1-2.566.979,3.852,3.852,0,0,1-2.422-.775,2.446,2.446,0,0,1-.971-2.125l.013-.036,1.979-.1a1.434,1.434,0,0,0,.387,1.066,1.377,1.377,0,0,0,1.014.384,1.186,1.186,0,0,0,1.059-.509,2.358,2.358,0,0,0,.342-1.332,2.468,2.468,0,0,0-.366-1.419,1.231,1.231,0,0,0-1.084-.535,1.571,1.571,0,0,0-.9.219,1.189,1.189,0,0,0-.447.591Z"/>
    </g>
    <g id="Grupo_54115" data-name="Grupo 54115">
      <path id="Trazado_102569" data-name="Trazado 102569" d="M524.032,792.791a4.519,4.519,0,0,1-.932,3.087,3.572,3.572,0,0,1-5.065,0,4.5,4.5,0,0,1-.936-3.087v-2.26a4.538,4.538,0,0,1,.932-3.087,3.554,3.554,0,0,1,5.062,0,4.514,4.514,0,0,1,.939,3.087Zm-2.048-2.473a3.367,3.367,0,0,0-.366-1.783,1.27,1.27,0,0,0-2.112,0,3.421,3.421,0,0,0-.359,1.786v2.665a3.425,3.425,0,0,0,.363,1.8,1.187,1.187,0,0,0,1.066.563,1.168,1.168,0,0,0,1.049-.563,3.46,3.46,0,0,0,.359-1.8Z"/>
      <path id="Trazado_102570" data-name="Trazado 102570" d="M527.771,796.783h-2.056v-1.8h2.056Z"/>
      <path id="Trazado_102571" data-name="Trazado 102571" d="M529.854,792.242l.591-5.709h5.716v1.647h-4.033l-.282,2.365a2.474,2.474,0,0,1,.683-.348,3.213,3.213,0,0,1,3.178.75,3.7,3.7,0,0,1,.814,2.548,3.51,3.51,0,0,1-.891,2.457,3.3,3.3,0,0,1-2.566.979,3.853,3.853,0,0,1-2.421-.775,2.445,2.445,0,0,1-.972-2.126l.014-.035,1.978-.1a1.436,1.436,0,0,0,.387,1.067,1.379,1.379,0,0,0,1.014.384,1.183,1.183,0,0,0,1.059-.51,2.346,2.346,0,0,0,.342-1.331,2.469,2.469,0,0,0-.366-1.42,1.23,1.23,0,0,0-1.084-.534,1.579,1.579,0,0,0-.905.218,1.191,1.191,0,0,0-.447.592Z"/>
    </g>
    <g id="Grupo_54116" data-name="Grupo 54116">
      <path id="Trazado_102572" data-name="Trazado 102572" d="M553.516,846.348h-7V845l3.315-3.554a8.1,8.1,0,0,0,1.021-1.391,2.249,2.249,0,0,0,.3-1.052,1.587,1.587,0,0,0-.348-1.06,1.226,1.226,0,0,0-.989-.411,1.279,1.279,0,0,0-1.081.481,2.062,2.062,0,0,0-.369,1.285h-2l-.014-.042a3.1,3.1,0,0,1,.912-2.348,3.422,3.422,0,0,1,2.552-.96,3.562,3.562,0,0,1,2.489.823,2.829,2.829,0,0,1,.9,2.2,3.074,3.074,0,0,1-.511,1.713,16.844,16.844,0,0,1-1.685,2.06l-1.824,1.985.014.035h4.309Z"/>
    </g>
    <g id="Grupo_54117" data-name="Grupo 54117">
      <path id="Trazado_102573" data-name="Trazado 102573" d="M579.95,846.348h-7V845l3.316-3.554a8.088,8.088,0,0,0,1.02-1.391,2.251,2.251,0,0,0,.3-1.052,1.582,1.582,0,0,0-.349-1.06,1.223,1.223,0,0,0-.988-.411,1.278,1.278,0,0,0-1.081.481,2.062,2.062,0,0,0-.369,1.285h-2l-.014-.042a3.1,3.1,0,0,1,.911-2.348,3.426,3.426,0,0,1,2.553-.96,3.557,3.557,0,0,1,2.488.823,2.826,2.826,0,0,1,.9,2.2,3.072,3.072,0,0,1-.51,1.713,16.872,16.872,0,0,1-1.686,2.06l-1.823,1.985.014.035h4.308Z"/>
    </g>
    <g id="Grupo_54118" data-name="Grupo 54118">
      <path id="Trazado_102574" data-name="Trazado 102574" d="M406.6,765.834a4.518,4.518,0,0,1-.933,3.087,3.571,3.571,0,0,1-5.064,0,4.5,4.5,0,0,1-.937-3.087v-2.259a4.535,4.535,0,0,1,.933-3.087,3.553,3.553,0,0,1,5.061,0,4.511,4.511,0,0,1,.94,3.087Zm-2.048-2.473a3.37,3.37,0,0,0-.366-1.783,1.272,1.272,0,0,0-2.113,0,3.424,3.424,0,0,0-.358,1.786v2.666a3.429,3.429,0,0,0,.362,1.8,1.187,1.187,0,0,0,1.067.562,1.165,1.165,0,0,0,1.048-.562,3.451,3.451,0,0,0,.36-1.8Z"/>
      <path id="Trazado_102575" data-name="Trazado 102575" d="M410.339,769.826h-2.056v-1.8h2.056Z"/>
      <path id="Trazado_102576" data-name="Trazado 102576" d="M412.422,765.286l.592-5.71h5.716v1.648H414.7l-.282,2.365a2.45,2.45,0,0,1,.684-.348,3.2,3.2,0,0,1,3.177.749,3.706,3.706,0,0,1,.814,2.548,3.51,3.51,0,0,1-.891,2.457,3.29,3.29,0,0,1-2.565.979,3.855,3.855,0,0,1-2.422-.774,2.45,2.45,0,0,1-.972-2.126l.014-.036,1.978-.1a1.434,1.434,0,0,0,.387,1.066,1.381,1.381,0,0,0,1.015.384,1.184,1.184,0,0,0,1.058-.509,2.35,2.35,0,0,0,.342-1.332,2.467,2.467,0,0,0-.366-1.419,1.228,1.228,0,0,0-1.084-.534,1.568,1.568,0,0,0-.9.218,1.191,1.191,0,0,0-.448.591Z"/>
    </g>
    <path id="Trazado_102577" data-name="Trazado 102577" d="M712.648,930.891H579.121l-.056-.437-9.149-72.537.663.112c.147.025,14.643,2.322,26.717-7.8,10.867-9.116,16.472-25.152,16.657-47.663.252-30.508-7.261-66.619-7.337-66.98l-.091-.434,57.768-19.566.157.482c.058.175,6.212,17.48,47.673,15.35l.525-.026Zm-132.646-1H711.648V732.438c-38.543,1.842-46.72-12.69-47.966-15.593l-56,18.965c.854,4.209,7.506,37.963,7.269,66.759-.188,22.826-5.917,39.121-17.027,48.432-10.946,9.171-23.824,8.424-26.853,8.1Z" fill="blue"/>
    <path id="Trazado_102578" data-name="Trazado 102578" d="M712.671,930.891H584.531l-.052-.439-9.908-81.662.659.108c.152.024,15.213,2.37,27.452-7.443,9.548-7.656,14.892-20.5,15.881-38.178,1.7-30.437-7.2-66.966-7.292-67.331l-.109-.442.43-.15,56.317-19.735.217.315c.1.149,10.673,14.9,44.006,12.263l.539-.042Zm-127.253-1H711.671V729.236c-31.261,2.318-42.422-10.206-44.14-12.425l-55.182,19.338c1.01,4.267,8.821,38.415,7.212,67.183-1,17.98-6.478,31.072-16.265,38.912-11.12,8.909-24.49,8.062-27.574,7.725Z" fill="red"/>
    <path id="Trazado_102579" data-name="Trazado 102579" d="M712.671,930.891H590.525l-9.772-91.474.669.137c.179.035,17.9,3.508,29.637-5.754,6.57-5.185,10.089-13.373,10.46-24.339,1.031-30.5-4.586-71.824-4.643-72.238l-.055-.4,56.163-21.281.13.557c.023.085,2.859,9.258,39.074,10.44l.483.015Zm-121.247-1H711.671V727.527c-32.291-1.126-38.277-8.584-39.323-10.669L617.92,737.482c.574,4.326,5.578,43.028,4.6,72.013-.381,11.276-4.031,19.718-10.846,25.094-10.791,8.51-26.385,6.6-29.783,6.06Z"/>
    <rect id="Rectángulo_5322" data-name="Rectángulo 5322" width="44.478" height="1" transform="translate(628.519 715.522)"/>
    <rect id="Rectángulo_5323" data-name="Rectángulo 5323" width="115.087" height="1" transform="translate(597.583 736.424)"/>
    <rect id="Rectángulo_5324" data-name="Rectángulo 5324" width="110.119" height="1" transform="translate(602.551 781.409)"/>
    <rect id="Rectángulo_5325" data-name="Rectángulo 5325" width="115.141" height="1" transform="translate(597.529 839.543)"/>
    <rect id="Rectángulo_5326" data-name="Rectángulo 5326" width="0.999" height="90.616" transform="translate(664.824 840.082) rotate(-4.403)"/>
    <rect id="Rectángulo_5327" data-name="Rectángulo 5327" width="1" height="90.348" transform="translate(664.475 840.043)"/>
    <rect id="Rectángulo_5328" data-name="Rectángulo 5328" width="90.59" height="1.001" transform="matrix(0.073, -0.997, 0.997, 0.073, 657.856, 930.354)"/>
  </g>
</svg>
