<svg xmlns="http://www.w3.org/2000/svg" width="539.967" height="512.893" viewBox="0 0 539.967 512.893">
  <g id="Grupo_54819" data-name="Grupo 54819" transform="translate(-222.017 -5453.554)">
    <g id="Grupo_53960" data-name="Grupo 53960" transform="translate(112.644 -3734.089)">
      <g id="Grupo_53927" data-name="Grupo 53927" transform="translate(154.795 9244.009)">
        <path id="Trazado_101557" data-name="Trazado 101557" d="M148.067,9241v400.089H318.645V9398.266s4.692-103.242-29.77-162.716Z" transform="translate(-147.472 -9234.942)" fill="#fff"/>
        <path id="Trazado_101558" data-name="Trazado 101558" d="M319.336,9641.775H147.567V9240.52l141.738-5.48.18.31c34.155,58.943,29.9,162.008,29.85,163.042Zm-170.579-1.189h169.39V9398.363c.048-1.056,4.272-103.418-29.512-162.108l-139.878,5.409Z" transform="translate(-147.567 -9235.039)" fill="#c69c6d"/>
      </g>
      <path id="Trazado_101559" data-name="Trazado 101559" d="M306.629,9640.983h-159.1v-396.3l.57-.024,130.722-5.393.177.326c31.616,58.209,27.675,159.991,27.632,161.013Zm-157.911-1.189H305.439V9400.576c.044-1.042,3.952-102.12-27.312-160.094l-129.41,5.338Z" transform="translate(7.221 9.769)" fill="gray"/>
      <path id="Trazado_101560" data-name="Trazado 101560" d="M300.8,9638.482H147.509V9246.519l.57-.025,125.931-5.332.176.332c30.452,57.569,26.656,158.23,26.614,159.239Zm-152.1-1.189H299.611V9400.708c.042-1.029,3.808-100.988-26.3-158.328L148.7,9247.659Z" transform="translate(7.217 10.128)" fill="#009245"/>
      <path id="Trazado_101561" data-name="Trazado 101561" d="M312.72,9641.441H147.548V9242.277l.571-.023,135.727-5.432.178.318c32.834,58.633,28.739,161.154,28.7,162.184Zm-163.983-1.189H311.531V9399.3c.045-1.051,4.106-102.867-28.366-161.256l-134.427,5.379Z" transform="translate(7.224 9.308)" fill="#662d91"/>
      <circle id="Elipse_4045" data-name="Elipse 4045" cx="2.296" cy="2.296" r="2.296" transform="translate(297.329 9307.836)" fill="#009245"/>
      <circle id="Elipse_4046" data-name="Elipse 4046" cx="1.498" cy="1.498" r="1.498" transform="translate(279.133 9250.4)" fill="#009245"/>
      <circle id="Elipse_4047" data-name="Elipse 4047" cx="2.296" cy="2.296" r="2.296" transform="translate(303.456 9307.836)" fill="#b1237f"/>
      <circle id="Elipse_4048" data-name="Elipse 4048" cx="1.584" cy="1.584" r="1.584" transform="translate(283.903 9248.057)" fill="#b1237f"/>
      <circle id="Elipse_4049" data-name="Elipse 4049" cx="1.795" cy="1.795" r="1.795" transform="translate(228.784 9249.361)" fill="#b1237f"/>
      <circle id="Elipse_4050" data-name="Elipse 4050" cx="1.795" cy="1.795" r="1.795" transform="translate(212.988 9246.739)" fill="#ba4515"/>
      <circle id="Elipse_4051" data-name="Elipse 4051" cx="1.419" cy="1.419" r="1.419" transform="translate(223.007 9246.428)" fill="#ba4515"/>
      <circle id="Elipse_4052" data-name="Elipse 4052" cx="1.703" cy="1.703" r="1.703" transform="translate(231.642 9246.144)" fill="#ba4515"/>
      <circle id="Elipse_4053" data-name="Elipse 4053" cx="1.795" cy="1.795" r="1.795" transform="translate(209.756 9250.654)" fill="#b1237f"/>
      <circle id="Elipse_4054" data-name="Elipse 4054" cx="2.296" cy="2.296" r="2.296" transform="translate(309.666 9307.836)" fill="#662d91"/>
      <circle id="Elipse_4055" data-name="Elipse 4055" cx="1.57" cy="1.57" r="1.57" transform="translate(288.766 9245.353)" fill="#662d91"/>
      <circle id="Elipse_4056" data-name="Elipse 4056" cx="2.296" cy="2.296" r="2.296" transform="translate(316.181 9307.836)" fill="#c69c6d"/>
      <circle id="Elipse_4057" data-name="Elipse 4057" cx="1.538" cy="1.538" r="1.538" transform="translate(294.388 9243.078)" fill="#c69c6d"/>
      <circle id="Elipse_4058" data-name="Elipse 4058" cx="2.296" cy="2.296" r="2.296" transform="translate(304.459 9370.82)" fill="#009245"/>
      <circle id="Elipse_4059" data-name="Elipse 4059" cx="2.296" cy="2.296" r="2.296" transform="translate(310.586 9370.82)" fill="#b1237f"/>
      <circle id="Elipse_4060" data-name="Elipse 4060" cx="2.296" cy="2.296" r="2.296" transform="translate(316.796 9370.82)" fill="#662d91"/>
      <circle id="Elipse_4061" data-name="Elipse 4061" cx="2.296" cy="2.296" r="2.296" transform="translate(323.311 9370.82)" fill="#c69c6d"/>
      <circle id="Elipse_4062" data-name="Elipse 4062" cx="2.296" cy="2.296" r="2.296" transform="translate(304.459 9645.343)" fill="#009245"/>
      <circle id="Elipse_4063" data-name="Elipse 4063" cx="2.296" cy="2.296" r="2.296" transform="translate(310.783 9645.72)" fill="#b1237f"/>
      <circle id="Elipse_4064" data-name="Elipse 4064" cx="2.296" cy="2.296" r="2.296" transform="translate(316.834 9647.046)" fill="#662d91"/>
      <circle id="Elipse_4065" data-name="Elipse 4065" cx="2.296" cy="2.296" r="2.296" transform="translate(323.887 9647.854)" fill="#c69c6d"/>
      <g id="Grupo_53928" data-name="Grupo 53928" transform="translate(281.824 9204.541)">
        <rect id="Rectángulo_5239" data-name="Rectángulo 5239" width="2.378" height="27.228" transform="translate(8.946 11.309)" fill="red"/>
        <path id="Trazado_101562" data-name="Trazado 101562" d="M264.154,9201.852l10.393,17.295H254.382Z" transform="translate(-254.382 -9201.852)" fill="red"/>
      </g>
      <g id="Grupo_53929" data-name="Grupo 53929" transform="translate(291.019 9231.732)">
        <rect id="Rectángulo_5240" data-name="Rectángulo 5240" width="27.23" height="2.378" transform="translate(0 8.946)" fill="red"/>
        <path id="Trazado_101563" data-name="Trazado 101563" d="M297.272,9234.49l-17.3,10.393v-20.166Z" transform="translate(-258.734 -9224.717)" fill="red"/>
      </g>
      <g id="Grupo_53932" data-name="Grupo 53932" transform="translate(299.552 9637.606)">
        <g id="Grupo_53930" data-name="Grupo 53930" transform="translate(0 8.821)">
          <rect id="Rectángulo_5241" data-name="Rectángulo 5241" width="2.378" height="27.23" transform="translate(8.946)" fill="red"/>
          <path id="Trazado_101564" data-name="Trazado 101564" d="M279.062,9608.578l10.393-17.3H269.289Z" transform="translate(-269.289 -9570.041)" fill="red"/>
        </g>
        <g id="Grupo_53931" data-name="Grupo 53931" transform="translate(9.195)">
          <rect id="Rectángulo_5242" data-name="Rectángulo 5242" width="27.23" height="2.378" transform="translate(0 8.843)" fill="red"/>
          <path id="Trazado_101565" data-name="Trazado 101565" d="M312.179,9576.4,294.883,9566v20.166Z" transform="translate(-273.641 -9566.004)" fill="red"/>
        </g>
      </g>
      <g id="Grupo_53935" data-name="Grupo 53935" transform="translate(120.235 9637.606)">
        <g id="Grupo_53933" data-name="Grupo 53933" transform="translate(27.568 8.821)">
          <rect id="Rectángulo_5243" data-name="Rectángulo 5243" width="2.378" height="27.23" transform="translate(8.841)" fill="red"/>
          <path id="Trazado_101566" data-name="Trazado 101566" d="M152.08,9608.578l-10.393-17.3h20.165Z" transform="translate(-141.687 -9570.041)" fill="red"/>
        </g>
        <g id="Grupo_53934" data-name="Grupo 53934">
          <rect id="Rectángulo_5244" data-name="Rectángulo 5244" width="27.23" height="2.378" transform="translate(11.308 8.843)" fill="red"/>
          <path id="Trazado_101567" data-name="Trazado 101567" d="M118.506,9576.4,135.8,9566v20.166Z" transform="translate(-118.506 -9566.004)" fill="red"/>
        </g>
      </g>
      <g id="Grupo_53936" data-name="Grupo 53936" transform="translate(206.712 9203.797)">
        <rect id="Rectángulo_5245" data-name="Rectángulo 5245" width="2.378" height="27.228" transform="translate(8.946 11.309)" fill="red"/>
        <path id="Trazado_101568" data-name="Trazado 101568" d="M201,9201.227l10.393,17.3H191.223Z" transform="translate(-191.223 -9201.227)" fill="red"/>
      </g>
      <g id="Grupo_53937" data-name="Grupo 53937" transform="translate(215.908 9230.991)">
        <rect id="Rectángulo_5246" data-name="Rectángulo 5246" width="27.23" height="2.378" transform="translate(0 8.945)" fill="red"/>
        <path id="Trazado_101569" data-name="Trazado 101569" d="M234.113,9233.865l-17.3,10.393v-20.166Z" transform="translate(-195.574 -9224.092)" fill="red"/>
      </g>
      <g id="Grupo_53938" data-name="Grupo 53938" transform="translate(223.511 9306.104)">
        <rect id="Rectángulo_5247" data-name="Rectángulo 5247" width="27.23" height="2.378" transform="translate(0 8.945)" fill="red"/>
        <path id="Trazado_101570" data-name="Trazado 101570" d="M240.506,9297.025l-17.3,10.394v-20.165Z" transform="translate(-201.968 -9287.254)" fill="red"/>
      </g>
      <g id="Grupo_53939" data-name="Grupo 53939" transform="translate(330.593 9362.211)">
        <rect id="Rectángulo_5248" data-name="Rectángulo 5248" width="27.23" height="2.378" transform="translate(0 8.946)" fill="red"/>
        <path id="Trazado_101571" data-name="Trazado 101571" d="M330.548,9344.2l-17.3,10.394v-20.166Z" transform="translate(-292.01 -9334.432)" fill="red"/>
      </g>
      <g id="Grupo_53942" data-name="Grupo 53942" transform="translate(119.613 9219.813)">
        <g id="Grupo_53940" data-name="Grupo 53940" transform="translate(27.568)">
          <rect id="Rectángulo_5249" data-name="Rectángulo 5249" width="2.378" height="27.23" transform="translate(8.842 11.308)" fill="red"/>
          <path id="Trazado_101572" data-name="Trazado 101572" d="M151.558,9214.694l-10.393,17.295H161.33Z" transform="translate(-141.165 -9214.694)" fill="red"/>
        </g>
        <g id="Grupo_53941" data-name="Grupo 53941" transform="translate(0 27.192)">
          <rect id="Rectángulo_5250" data-name="Rectángulo 5250" width="27.23" height="2.378" transform="translate(11.309 8.945)" fill="red"/>
          <path id="Trazado_101573" data-name="Trazado 101573" d="M117.984,9247.333l17.3,10.393V9237.56Z" transform="translate(-117.984 -9237.56)" fill="red"/>
        </g>
      </g>
      <g id="Grupo_53943" data-name="Grupo 53943" transform="translate(213.52 9251.305)">
        <path id="Trazado_101574" data-name="Trazado 101574" d="M198.034,9245.386a.6.6,0,0,1-.58-.471l-.494-2.328a.6.6,0,0,1,.458-.705.607.607,0,0,1,.705.458l.494,2.328a.594.594,0,0,1-.583.718Z" transform="translate(-196.947 -9241.042)" fill="#c69c6d"/>
        <path id="Trazado_101575" data-name="Trazado 101575" d="M210,9301.894a.6.6,0,0,1-.582-.472l-1.017-4.8a.6.6,0,0,1,.459-.706.605.605,0,0,1,.7.46l1.018,4.8a.6.6,0,0,1-.459.705A.664.664,0,0,1,210,9301.894Zm-2.035-9.606a.6.6,0,0,1-.582-.472l-1.017-4.8a.6.6,0,0,1,.459-.705.6.6,0,0,1,.7.459l1.018,4.8a.6.6,0,0,1-.459.705A.664.664,0,0,1,207.969,9292.287Zm-2.035-9.608a.6.6,0,0,1-.582-.47l-1.017-4.8a.594.594,0,0,1,.459-.705.6.6,0,0,1,.7.458l1.018,4.8a.59.59,0,0,1-.583.717Zm-2.036-9.607a.593.593,0,0,1-.58-.471l-1.018-4.8a.6.6,0,0,1,.459-.705.606.606,0,0,1,.705.459l1.017,4.8a.6.6,0,0,1-.459.705A.757.757,0,0,1,203.9,9273.071Zm-2.035-9.606a.593.593,0,0,1-.58-.472l-1.018-4.8a.594.594,0,0,1,.459-.705.6.6,0,0,1,.705.459l1.017,4.8a.594.594,0,0,1-.459.705A.759.759,0,0,1,201.863,9263.465Zm-2.035-9.606a.593.593,0,0,1-.58-.472l-1.018-4.8a.6.6,0,0,1,1.164-.246l1.017,4.8a.6.6,0,0,1-.583.718Z" transform="translate(-196.706 -9239.906)" fill="#c69c6d"/>
        <path id="Trazado_101576" data-name="Trazado 101576" d="M209.571,9299.858a.594.594,0,0,1-.582-.473l-.492-2.325a.6.6,0,0,1,.459-.705.627.627,0,0,1,.431.073.652.652,0,0,1,.417-.128.591.591,0,0,1,.546.639l-.187,2.371a.594.594,0,0,1-.554.547Z" transform="translate(-194.763 -9230.741)" fill="#c69c6d"/>
        <path id="Trazado_101577" data-name="Trazado 101577" d="M209.974,9301.909a.361.361,0,0,1-.048,0,.591.591,0,0,1-.546-.639l.383-4.86a.611.611,0,0,1,.639-.546.594.594,0,0,1,.546.639l-.383,4.86A.6.6,0,0,1,209.974,9301.909Zm.766-9.721a.374.374,0,0,1-.048,0,.593.593,0,0,1-.546-.639l.383-4.86a.617.617,0,0,1,.639-.546.591.591,0,0,1,.546.639l-.383,4.86A.594.594,0,0,1,210.74,9292.188Zm.767-9.721a.361.361,0,0,1-.048,0,.593.593,0,0,1-.546-.639l.383-4.861a.606.606,0,0,1,.639-.546.594.594,0,0,1,.546.639l-.383,4.861A.6.6,0,0,1,211.507,9282.468Zm.767-9.722a.372.372,0,0,1-.048,0,.592.592,0,0,1-.546-.638l.383-4.86a.614.614,0,0,1,.64-.547.593.593,0,0,1,.545.639l-.383,4.86A.594.594,0,0,1,212.274,9272.746Zm.767-9.723h-.048a.592.592,0,0,1-.546-.64l.383-4.859a.614.614,0,0,1,.639-.546.594.594,0,0,1,.546.639l-.383,4.86A.594.594,0,0,1,213.041,9263.023Zm.766-9.719-.048,0a.593.593,0,0,1-.546-.639l.383-4.86a.621.621,0,0,1,.64-.546.593.593,0,0,1,.546.639l-.384,4.86A.6.6,0,0,1,213.807,9253.3Z" transform="translate(-194.594 -9240.022)" fill="#c69c6d"/>
        <path id="Trazado_101578" data-name="Trazado 101578" d="M213.842,9244.733c-.017,0-.033,0-.048,0a.593.593,0,0,1-.546-.639l.187-2.37a.614.614,0,0,1,.639-.546.592.592,0,0,1,.546.639l-.187,2.37A.6.6,0,0,1,213.842,9244.733Z" transform="translate(-193.862 -9241.174)" fill="#c69c6d"/>
      </g>
      <g id="Grupo_53944" data-name="Grupo 53944" transform="translate(211.832 9252.802)">
        <path id="Trazado_101579" data-name="Trazado 101579" d="M196.614,9246.646a.6.6,0,0,1-.58-.472l-.492-2.328a.6.6,0,0,1,.458-.706.609.609,0,0,1,.705.46l.492,2.328a.594.594,0,0,1-.458.7A.613.613,0,0,1,196.614,9246.646Z" transform="translate(-195.528 -9242.301)" fill="#662d91"/>
        <path id="Trazado_101580" data-name="Trazado 101580" d="M208.584,9303.153a.6.6,0,0,1-.582-.472l-1.017-4.8a.594.594,0,1,1,1.163-.246l1.018,4.8a.594.594,0,0,1-.583.718Zm-2.035-9.607a.594.594,0,0,1-.582-.471l-1.017-4.8a.6.6,0,0,1,.459-.705.606.606,0,0,1,.705.459l1.017,4.8a.6.6,0,0,1-.459.705A.757.757,0,0,1,206.549,9293.546Zm-2.035-9.606a.593.593,0,0,1-.58-.471l-1.018-4.8a.594.594,0,0,1,.459-.705.605.605,0,0,1,.705.459l1.017,4.8a.594.594,0,0,1-.583.717Zm-2.035-9.607a.593.593,0,0,1-.58-.472l-1.019-4.8a.6.6,0,0,1,.459-.705.6.6,0,0,1,.705.459l1.018,4.8a.6.6,0,0,1-.583.718Zm-2.036-9.607a.593.593,0,0,1-.58-.471l-1.018-4.8a.6.6,0,0,1,.459-.7.6.6,0,0,1,.705.458l1.017,4.8a.594.594,0,0,1-.583.718Zm-2.035-9.606a.6.6,0,0,1-.58-.473l-1.018-4.8a.6.6,0,0,1,.459-.7.6.6,0,0,1,.705.458l1.017,4.8a.6.6,0,0,1-.458.706A.688.688,0,0,1,198.408,9255.118Z" transform="translate(-195.288 -9241.166)" fill="#662d91"/>
        <path id="Trazado_101581" data-name="Trazado 101581" d="M208.151,9301.118a.594.594,0,0,1-.582-.472l-.492-2.327a.6.6,0,0,1,.459-.705.614.614,0,0,1,.432.073.662.662,0,0,1,.417-.129.594.594,0,0,1,.546.64l-.188,2.372a.594.594,0,0,1-.554.547Z" transform="translate(-193.345 -9232)" fill="#662d91"/>
        <path id="Trazado_101582" data-name="Trazado 101582" d="M208.555,9303.169a.361.361,0,0,1-.048,0,.592.592,0,0,1-.546-.64l.383-4.859a.616.616,0,0,1,.639-.546.594.594,0,0,1,.546.64l-.383,4.86A.6.6,0,0,1,208.555,9303.169Zm.766-9.721-.048,0a.594.594,0,0,1-.546-.64l.383-4.86a.622.622,0,0,1,.64-.546.594.594,0,0,1,.546.64l-.384,4.86A.594.594,0,0,1,209.321,9293.448Zm.767-9.722a.361.361,0,0,1-.048,0,.592.592,0,0,1-.546-.639l.383-4.86a.61.61,0,0,1,.639-.546.593.593,0,0,1,.546.639l-.383,4.86A.6.6,0,0,1,210.088,9283.727Zm.766-9.721a.389.389,0,0,1-.048,0,.594.594,0,0,1-.546-.639l.383-4.86a.616.616,0,0,1,.64-.546.594.594,0,0,1,.546.639l-.384,4.86A.594.594,0,0,1,210.854,9274.006Zm.767-9.721a.361.361,0,0,1-.048,0,.591.591,0,0,1-.546-.639l.383-4.86a.6.6,0,0,1,.639-.546.592.592,0,0,1,.546.638l-.383,4.861A.6.6,0,0,1,211.621,9264.285Zm.766-9.722-.048,0a.592.592,0,0,1-.546-.639l.384-4.86a.625.625,0,0,1,.639-.546.6.6,0,0,1,.546.64l-.384,4.859A.593.593,0,0,1,212.387,9254.563Z" transform="translate(-193.176 -9241.281)" fill="#662d91"/>
        <path id="Trazado_101583" data-name="Trazado 101583" d="M212.422,9245.994a.355.355,0,0,1-.048,0,.591.591,0,0,1-.546-.639l.187-2.371a.608.608,0,0,1,.639-.547.594.594,0,0,1,.546.641l-.187,2.371A.6.6,0,0,1,212.422,9245.994Z" transform="translate(-192.444 -9242.432)" fill="#662d91"/>
      </g>
      <g id="Grupo_53945" data-name="Grupo 53945" transform="translate(210.231 9253.197)">
        <path id="Trazado_101584" data-name="Trazado 101584" d="M195.267,9246.979a.6.6,0,0,1-.58-.472l-.492-2.327a.6.6,0,0,1,.459-.705.6.6,0,0,1,.705.459l.492,2.327a.6.6,0,0,1-.459.705A.667.667,0,0,1,195.267,9246.979Z" transform="translate(-194.181 -9242.632)" fill="gray"/>
        <path id="Trazado_101585" data-name="Trazado 101585" d="M207.236,9303.487a.6.6,0,0,1-.58-.472l-1.018-4.8a.6.6,0,0,1,.459-.705.6.6,0,0,1,.705.459l1.017,4.8a.6.6,0,0,1-.459.705A.665.665,0,0,1,207.236,9303.487Zm-2.035-9.608a.594.594,0,0,1-.58-.47l-1.018-4.8a.6.6,0,0,1,.459-.705.606.606,0,0,1,.705.459l1.017,4.8a.6.6,0,0,1-.458.705A.785.785,0,0,1,205.2,9293.879Zm-2.035-9.605a.6.6,0,0,1-.58-.472l-1.018-4.8a.6.6,0,0,1,.459-.705.608.608,0,0,1,.705.459l1.017,4.8a.6.6,0,0,1-.458.705A.787.787,0,0,1,203.167,9284.273Zm-2.036-9.608a.6.6,0,0,1-.58-.471l-1.018-4.8a.6.6,0,0,1,.459-.705.6.6,0,0,1,.705.459l1.017,4.8a.593.593,0,0,1-.458.7A.544.544,0,0,1,201.131,9274.665Zm-2.035-9.606a.6.6,0,0,1-.58-.472l-1.017-4.8a.593.593,0,0,1,.458-.7.6.6,0,0,1,.705.457l1.018,4.8a.6.6,0,0,1-.459.705A.677.677,0,0,1,199.1,9265.059Zm-2.035-9.606a.6.6,0,0,1-.58-.474l-1.017-4.8a.594.594,0,1,1,1.163-.245l1.018,4.8a.6.6,0,0,1-.459.706A.6.6,0,0,1,197.061,9255.452Z" transform="translate(-193.941 -9241.5)" fill="gray"/>
        <path id="Trazado_101586" data-name="Trazado 101586" d="M206.805,9301.452a.6.6,0,0,1-.583-.472l-.492-2.327a.6.6,0,0,1,.459-.705.614.614,0,0,1,.43.073.675.675,0,0,1,.419-.129.6.6,0,0,1,.546.64l-.187,2.371a.6.6,0,0,1-.554.548Z" transform="translate(-191.998 -9232.333)" fill="gray"/>
        <path id="Trazado_101587" data-name="Trazado 101587" d="M207.207,9303.5l-.048,0a.593.593,0,0,1-.546-.639L207,9298a.623.623,0,0,1,.639-.546.592.592,0,0,1,.546.639l-.383,4.86A.6.6,0,0,1,207.207,9303.5Zm.767-9.721-.049,0a.594.594,0,0,1-.546-.639l.384-4.86a.608.608,0,0,1,.639-.546.594.594,0,0,1,.546.639l-.383,4.86A.6.6,0,0,1,207.974,9293.779Zm.766-9.721-.048,0a.594.594,0,0,1-.546-.639l.383-4.861a.6.6,0,0,1,.639-.546.591.591,0,0,1,.546.639l-.383,4.861A.593.593,0,0,1,208.74,9284.059Zm.768-9.722-.048,0a.593.593,0,0,1-.546-.639l.383-4.86a.617.617,0,0,1,.639-.546.593.593,0,0,1,.546.639l-.383,4.86A.6.6,0,0,1,209.508,9274.337Zm.766-9.721-.048,0a.594.594,0,0,1-.546-.639l.383-4.86a.607.607,0,0,1,.639-.546.591.591,0,0,1,.546.638l-.383,4.861A.593.593,0,0,1,210.274,9264.616Zm.767-9.722h-.048a.593.593,0,0,1-.546-.641l.383-4.86a.612.612,0,0,1,.639-.544.593.593,0,0,1,.546.639l-.383,4.86A.594.594,0,0,1,211.041,9254.895Z" transform="translate(-191.829 -9241.614)" fill="gray"/>
        <path id="Trazado_101588" data-name="Trazado 101588" d="M211.075,9246.326l-.048,0a.594.594,0,0,1-.546-.639l.187-2.372a.611.611,0,0,1,.639-.546.594.594,0,0,1,.546.641l-.187,2.37A.6.6,0,0,1,211.075,9246.326Z" transform="translate(-191.097 -9242.766)" fill="gray"/>
      </g>
      <g id="Grupo_53946" data-name="Grupo 53946" transform="translate(208.705 9253.509)">
        <path id="Trazado_101589" data-name="Trazado 101589" d="M193.984,9247.238a.6.6,0,0,1-.58-.471l-.492-2.326a.595.595,0,0,1,1.163-.247l.492,2.326a.594.594,0,0,1-.458.705A.6.6,0,0,1,193.984,9247.238Z" transform="translate(-192.898 -9242.896)" fill="#009245"/>
        <path id="Trazado_101590" data-name="Trazado 101590" d="M205.954,9303.746a.593.593,0,0,1-.58-.471l-1.018-4.8a.594.594,0,0,1,.459-.705.605.605,0,0,1,.705.459l1.017,4.8a.594.594,0,0,1-.459.705A.883.883,0,0,1,205.954,9303.746Zm-2.035-9.605a.593.593,0,0,1-.58-.473l-1.018-4.8a.593.593,0,0,1,.459-.705.6.6,0,0,1,.705.459l1.017,4.8a.591.591,0,0,1-.459.7A.536.536,0,0,1,203.919,9294.141Zm-2.035-9.607a.593.593,0,0,1-.58-.471l-1.018-4.8a.6.6,0,0,1,.459-.705.605.605,0,0,1,.705.457l1.017,4.8a.594.594,0,0,1-.459.705A.533.533,0,0,1,201.884,9284.533Zm-2.036-9.607a.6.6,0,0,1-.58-.473l-1.018-4.8a.594.594,0,0,1,.459-.7.605.605,0,0,1,.705.459l1.017,4.8a.594.594,0,0,1-.458.705A.69.69,0,0,1,199.848,9274.926Zm-2.035-9.607a.6.6,0,0,1-.58-.473l-1.018-4.8a.595.595,0,0,1,1.164-.246l1.017,4.8a.594.594,0,0,1-.458.705A.551.551,0,0,1,197.813,9265.318Zm-2.035-9.607a.6.6,0,0,1-.58-.471l-1.018-4.8a.6.6,0,0,1,1.164-.246l1.017,4.8a.6.6,0,0,1-.458.705A.685.685,0,0,1,195.778,9255.711Z" transform="translate(-192.658 -9241.761)" fill="#009245"/>
        <path id="Trazado_101591" data-name="Trazado 101591" d="M205.522,9301.711a.6.6,0,0,1-.582-.471l-.494-2.328a.594.594,0,0,1,.459-.705.6.6,0,0,1,.43.074.629.629,0,0,1,.419-.129.594.594,0,0,1,.546.639l-.187,2.371a.591.591,0,0,1-.553.547A.264.264,0,0,1,205.522,9301.711Z" transform="translate(-190.715 -9232.593)" fill="#009245"/>
        <path id="Trazado_101592" data-name="Trazado 101592" d="M205.924,9303.762a.244.244,0,0,1-.048,0,.59.59,0,0,1-.546-.638l.383-4.86a.62.62,0,0,1,.639-.547.593.593,0,0,1,.546.639l-.383,4.86A.6.6,0,0,1,205.924,9303.762Zm.766-9.722a.388.388,0,0,1-.048,0,.593.593,0,0,1-.546-.64l.384-4.859a.624.624,0,0,1,.639-.546.594.594,0,0,1,.546.639l-.384,4.86A.593.593,0,0,1,206.69,9294.04Zm.767-9.72a.361.361,0,0,1-.048,0,.591.591,0,0,1-.546-.639l.383-4.861a.612.612,0,0,1,.639-.546.591.591,0,0,1,.546.639l-.383,4.861A.6.6,0,0,1,207.457,9284.32Zm.767-9.722-.048,0a.594.594,0,0,1-.546-.639l.384-4.86a.613.613,0,0,1,.639-.546.593.593,0,0,1,.546.639l-.384,4.86A.594.594,0,0,1,208.224,9274.6Zm.767-9.721c-.017,0-.032,0-.048,0a.593.593,0,0,1-.546-.639l.383-4.86a.62.62,0,0,1,.639-.546.592.592,0,0,1,.546.639l-.383,4.86A.6.6,0,0,1,208.991,9264.878Zm.766-9.721-.048,0a.593.593,0,0,1-.546-.639l.384-4.86a.608.608,0,0,1,.639-.546.594.594,0,0,1,.546.639l-.384,4.86A.594.594,0,0,1,209.757,9255.157Z" transform="translate(-190.546 -9241.876)" fill="#009245"/>
        <path id="Trazado_101593" data-name="Trazado 101593" d="M209.792,9246.585l-.048,0a.591.591,0,0,1-.546-.638l.187-2.371a.621.621,0,0,1,.639-.546.592.592,0,0,1,.546.639l-.187,2.37A.593.593,0,0,1,209.792,9246.585Z" transform="translate(-189.814 -9243.027)" fill="#009245"/>
      </g>
      <path id="Trazado_101594" data-name="Trazado 101594" d="M208.667,9301.882a5.752,5.752,0,1,1,5.752-5.752A5.759,5.759,0,0,1,208.667,9301.882Zm0-10.315a4.563,4.563,0,1,0,4.563,4.563A4.568,4.568,0,0,0,208.667,9291.566Z" transform="translate(17.702 19.442)" fill="#c69c6d"/>
      <path id="Trazado_101595" data-name="Trazado 101595" d="M208.161,9301.736a5.752,5.752,0,1,1,5.752-5.752A5.759,5.759,0,0,1,208.161,9301.736Zm0-10.314a4.563,4.563,0,1,0,4.563,4.563A4.569,4.569,0,0,0,208.161,9291.422Z" transform="translate(17.607 19.415)" fill="#662d91"/>
      <path id="Trazado_101596" data-name="Trazado 101596" d="M207.388,9301.736a5.752,5.752,0,1,1,5.754-5.752A5.759,5.759,0,0,1,207.388,9301.736Zm0-10.314a4.563,4.563,0,1,0,4.564,4.563A4.569,4.569,0,0,0,207.388,9291.422Z" transform="translate(17.46 19.415)" fill="gray"/>
      <path id="Trazado_101597" data-name="Trazado 101597" d="M206.263,9301.736a5.752,5.752,0,1,1,5.752-5.752A5.759,5.759,0,0,1,206.263,9301.736Zm0-10.314a4.563,4.563,0,1,0,4.563,4.563A4.569,4.569,0,0,0,206.263,9291.422Z" transform="translate(17.247 19.415)" fill="#009245"/>
      <g id="Grupo_53947" data-name="Grupo 53947" transform="translate(282.485 9188.883)">
        <path id="Trazado_101598" data-name="Trazado 101598" d="M261.8,9195.026a4.473,4.473,0,0,1-.924,3.057,3.537,3.537,0,0,1-5.014,0,4.467,4.467,0,0,1-.926-3.057v-2.235a4.489,4.489,0,0,1,.924-3.056,3.513,3.513,0,0,1,5.009,0,4.465,4.465,0,0,1,.931,3.056Zm-2.028-2.447a3.337,3.337,0,0,0-.363-1.765,1.258,1.258,0,0,0-2.091,0,3.386,3.386,0,0,0-.356,1.768v2.639a3.393,3.393,0,0,0,.359,1.782,1.176,1.176,0,0,0,1.056.556,1.156,1.156,0,0,0,1.038-.556,3.423,3.423,0,0,0,.356-1.782Z" transform="translate(-254.938 -9188.686)"/>
        <path id="Trazado_101599" data-name="Trazado 101599" d="M264.145,9197.624H262.11v-1.783h2.035Z" transform="translate(-253.581 -9187.331)"/>
        <path id="Trazado_101600" data-name="Trazado 101600" d="M272.291,9198.979h-6.926v-1.331l3.281-3.519a7.929,7.929,0,0,0,1.011-1.376,2.234,2.234,0,0,0,.3-1.043,1.568,1.568,0,0,0-.345-1.048,1.213,1.213,0,0,0-.979-.407,1.267,1.267,0,0,0-1.07.477A2.037,2.037,0,0,0,267.2,9192h-1.98l-.013-.04a3.061,3.061,0,0,1,.9-2.324,3.386,3.386,0,0,1,2.526-.952,3.522,3.522,0,0,1,2.463.816,2.8,2.8,0,0,1,.9,2.174,3.056,3.056,0,0,1-.505,1.7,16.872,16.872,0,0,1-1.668,2.038l-1.805,1.965.014.035h4.265Z" transform="translate(-252.995 -9188.686)"/>
        <path id="Trazado_101601" data-name="Trazado 101601" d="M272.469,9194.46l.585-5.651h5.658v1.632H274.72l-.279,2.341a2.413,2.413,0,0,1,.677-.345,3.18,3.18,0,0,1,3.146.742,3.666,3.666,0,0,1,.805,2.521,3.476,3.476,0,0,1-.881,2.433,3.261,3.261,0,0,1-2.54.969,3.819,3.819,0,0,1-2.4-.767,2.422,2.422,0,0,1-.961-2.1l.013-.036,1.959-.1a1.42,1.42,0,0,0,.383,1.056,1.364,1.364,0,0,0,1,.378,1.175,1.175,0,0,0,1.049-.5,2.329,2.329,0,0,0,.338-1.317,2.442,2.442,0,0,0-.363-1.405,1.216,1.216,0,0,0-1.073-.528,1.556,1.556,0,0,0-.9.216,1.173,1.173,0,0,0-.442.585Z" transform="translate(-251.655 -9188.662)"/>
      </g>
      <g id="Grupo_53948" data-name="Grupo 53948" transform="translate(205.133 9187.643)">
        <path id="Trazado_101602" data-name="Trazado 101602" d="M196.759,9193.983a4.474,4.474,0,0,1-.924,3.057,3.167,3.167,0,0,1-2.5,1.042,3.2,3.2,0,0,1-2.516-1.042,4.469,4.469,0,0,1-.926-3.057v-2.235a4.489,4.489,0,0,1,.924-3.056,3.513,3.513,0,0,1,5.009,0,4.465,4.465,0,0,1,.931,3.056Zm-2.028-2.447a3.337,3.337,0,0,0-.363-1.765,1.258,1.258,0,0,0-2.091,0,3.386,3.386,0,0,0-.356,1.768v2.639a3.394,3.394,0,0,0,.359,1.782,1.176,1.176,0,0,0,1.056.556,1.154,1.154,0,0,0,1.038-.556,3.422,3.422,0,0,0,.356-1.782Z" transform="translate(-189.895 -9187.643)"/>
        <path id="Trazado_101603" data-name="Trazado 101603" d="M199.1,9196.581h-2.035V9194.8H199.1Z" transform="translate(-188.538 -9186.287)"/>
        <path id="Trazado_101604" data-name="Trazado 101604" d="M207.248,9197.936h-6.926V9196.6l3.281-3.519a7.856,7.856,0,0,0,1.011-1.378,2.22,2.22,0,0,0,.3-1.041,1.568,1.568,0,0,0-.345-1.048,1.212,1.212,0,0,0-.979-.407,1.265,1.265,0,0,0-1.07.477,2.037,2.037,0,0,0-.365,1.271h-1.979l-.014-.04a3.062,3.062,0,0,1,.9-2.324,3.386,3.386,0,0,1,2.526-.952,3.52,3.52,0,0,1,2.463.816,2.794,2.794,0,0,1,.9,2.174,3.056,3.056,0,0,1-.505,1.7,16.868,16.868,0,0,1-1.669,2.038l-1.805,1.965.014.033h4.265Z" transform="translate(-187.952 -9187.643)"/>
        <path id="Trazado_101605" data-name="Trazado 101605" d="M207.426,9193.417l.585-5.651h5.658v1.632h-3.992l-.279,2.341a2.387,2.387,0,0,1,.677-.345,3.18,3.18,0,0,1,3.146.742,3.666,3.666,0,0,1,.805,2.521,3.476,3.476,0,0,1-.881,2.433,3.261,3.261,0,0,1-2.54.969,3.819,3.819,0,0,1-2.4-.767,2.423,2.423,0,0,1-.961-2.1l.014-.036,1.957-.1a1.422,1.422,0,0,0,.383,1.058,1.364,1.364,0,0,0,1,.378,1.175,1.175,0,0,0,1.049-.5,2.334,2.334,0,0,0,.338-1.317,2.442,2.442,0,0,0-.363-1.405,1.216,1.216,0,0,0-1.073-.529,1.556,1.556,0,0,0-.9.217,1.174,1.174,0,0,0-.442.585Z" transform="translate(-186.612 -9187.619)"/>
      </g>
      <g id="Grupo_53949" data-name="Grupo 53949" transform="translate(141.844 9202.154)">
        <path id="Trazado_101606" data-name="Trazado 101606" d="M143.541,9206.186a4.481,4.481,0,0,1-.923,3.056,3.539,3.539,0,0,1-5.014,0,4.463,4.463,0,0,1-.928-3.056v-2.237a4.493,4.493,0,0,1,.924-3.057,3.519,3.519,0,0,1,5.01,0,4.476,4.476,0,0,1,.93,3.057Zm-2.028-2.448a3.332,3.332,0,0,0-.363-1.765,1.257,1.257,0,0,0-2.091,0,3.381,3.381,0,0,0-.356,1.768v2.639a3.388,3.388,0,0,0,.359,1.781,1.175,1.175,0,0,0,1.056.558,1.154,1.154,0,0,0,1.038-.558,3.416,3.416,0,0,0,.356-1.781Z" transform="translate(-136.677 -9199.844)"/>
        <path id="Trazado_101607" data-name="Trazado 101607" d="M145.884,9208.783h-2.035V9207h2.035Z" transform="translate(-135.32 -9198.491)"/>
        <path id="Trazado_101608" data-name="Trazado 101608" d="M154.03,9210.137H147.1v-1.331l3.282-3.52a7.937,7.937,0,0,0,1.01-1.376,2.233,2.233,0,0,0,.3-1.042,1.572,1.572,0,0,0-.345-1.049,1.212,1.212,0,0,0-.979-.407,1.267,1.267,0,0,0-1.07.478,2.038,2.038,0,0,0-.365,1.271h-1.979l-.014-.042a3.072,3.072,0,0,1,.9-2.325,3.388,3.388,0,0,1,2.526-.95,3.524,3.524,0,0,1,2.463.815,2.8,2.8,0,0,1,.9,2.175,3.057,3.057,0,0,1-.505,1.7,16.8,16.8,0,0,1-1.669,2.038l-1.805,1.965.014.035h4.265Z" transform="translate(-134.734 -9199.844)"/>
        <path id="Trazado_101609" data-name="Trazado 101609" d="M154.208,9205.619l.586-5.652h5.657v1.631h-3.992l-.278,2.34a2.522,2.522,0,0,1,.675-.344,2.889,2.889,0,0,1,.878-.143,2.818,2.818,0,0,1,2.268.885,3.667,3.667,0,0,1,.805,2.523,3.471,3.471,0,0,1-.881,2.43,3.258,3.258,0,0,1-2.54.971,3.808,3.808,0,0,1-2.4-.768,2.417,2.417,0,0,1-.962-2.1l.014-.035,1.957-.1a1.429,1.429,0,0,0,.383,1.057,1.37,1.37,0,0,0,1,.379,1.173,1.173,0,0,0,1.049-.5,2.325,2.325,0,0,0,.338-1.318,2.445,2.445,0,0,0-.362-1.4,1.221,1.221,0,0,0-1.074-.529,1.556,1.556,0,0,0-.9.217,1.175,1.175,0,0,0-.442.584Z" transform="translate(-133.394 -9199.82)"/>
      </g>
      <g id="Grupo_53950" data-name="Grupo 53950" transform="translate(145.199 9687.856)">
        <path id="Trazado_101610" data-name="Trazado 101610" d="M146.361,9614.6a4.478,4.478,0,0,1-.923,3.055,3.539,3.539,0,0,1-5.014,0,4.461,4.461,0,0,1-.926-3.055v-2.238a4.488,4.488,0,0,1,.923-3.055,3.516,3.516,0,0,1,5.01,0,4.465,4.465,0,0,1,.93,3.055Zm-2.028-2.449a3.317,3.317,0,0,0-.363-1.764,1.256,1.256,0,0,0-2.09,0,3.369,3.369,0,0,0-.356,1.768v2.639a3.383,3.383,0,0,0,.359,1.781,1.177,1.177,0,0,0,1.055.559,1.157,1.157,0,0,0,1.038-.559,3.411,3.411,0,0,0,.356-1.781Z" transform="translate(-139.498 -9608.258)"/>
        <path id="Trazado_101611" data-name="Trazado 101611" d="M148.7,9617.2H146.67v-1.783H148.7Z" transform="translate(-138.141 -9606.904)"/>
        <path id="Trazado_101612" data-name="Trazado 101612" d="M156.85,9618.549h-6.926v-1.33l3.282-3.52a7.91,7.91,0,0,0,1.01-1.375,2.24,2.24,0,0,0,.3-1.043,1.563,1.563,0,0,0-.345-1.049,1.21,1.21,0,0,0-.979-.406,1.268,1.268,0,0,0-1.069.475,2.044,2.044,0,0,0-.366,1.273h-1.979l-.014-.041a3.079,3.079,0,0,1,.9-2.326,3.391,3.391,0,0,1,2.526-.949,3.524,3.524,0,0,1,2.463.814,2.8,2.8,0,0,1,.9,2.174,3.052,3.052,0,0,1-.5,1.7,16.9,16.9,0,0,1-1.67,2.039l-1.8,1.965.013.035h4.265Z" transform="translate(-137.556 -9608.258)"/>
        <path id="Trazado_101613" data-name="Trazado 101613" d="M157.029,9614.032l.585-5.651h5.658v1.631h-3.993l-.278,2.341a2.4,2.4,0,0,1,.675-.345,3.175,3.175,0,0,1,3.147.742,3.664,3.664,0,0,1,.805,2.522,3.476,3.476,0,0,1-.882,2.432,3.256,3.256,0,0,1-2.539.969,3.806,3.806,0,0,1-2.4-.768,2.42,2.42,0,0,1-.962-2.1l.014-.034,1.959-.1a1.422,1.422,0,0,0,.383,1.056,1.365,1.365,0,0,0,1,.38,1.174,1.174,0,0,0,1.048-.5,2.329,2.329,0,0,0,.339-1.319,2.445,2.445,0,0,0-.363-1.4,1.216,1.216,0,0,0-1.073-.529,1.55,1.55,0,0,0-.9.217,1.173,1.173,0,0,0-.442.585Z" transform="translate(-136.215 -9608.234)"/>
      </g>
      <g id="Grupo_53951" data-name="Grupo 53951" transform="translate(300.215 9689.098)">
        <path id="Trazado_101614" data-name="Trazado 101614" d="M276.71,9615.642a4.475,4.475,0,0,1-.924,3.056,3.538,3.538,0,0,1-5.013,0,4.463,4.463,0,0,1-.928-3.056V9613.4a4.491,4.491,0,0,1,.924-3.057,3.519,3.519,0,0,1,5.01,0,4.474,4.474,0,0,1,.93,3.057Zm-2.028-2.448a3.333,3.333,0,0,0-.363-1.765,1.257,1.257,0,0,0-2.091,0,3.378,3.378,0,0,0-.356,1.768v2.639a3.4,3.4,0,0,0,.359,1.781,1.179,1.179,0,0,0,1.056.558,1.158,1.158,0,0,0,1.038-.558,3.423,3.423,0,0,0,.356-1.781Z" transform="translate(-269.846 -9609.3)"/>
        <path id="Trazado_101615" data-name="Trazado 101615" d="M279.053,9618.238h-2.035v-1.783h2.035Z" transform="translate(-268.489 -9607.947)"/>
        <path id="Trazado_101616" data-name="Trazado 101616" d="M287.2,9619.592h-6.926v-1.33l3.282-3.52a7.935,7.935,0,0,0,1.01-1.376,2.233,2.233,0,0,0,.3-1.042,1.572,1.572,0,0,0-.345-1.049,1.212,1.212,0,0,0-.979-.407,1.269,1.269,0,0,0-1.07.476,2.044,2.044,0,0,0-.365,1.273h-1.979l-.014-.042a3.068,3.068,0,0,1,.9-2.325,3.388,3.388,0,0,1,2.526-.95,3.524,3.524,0,0,1,2.463.815,2.8,2.8,0,0,1,.9,2.175,3.053,3.053,0,0,1-.505,1.7,16.8,16.8,0,0,1-1.669,2.038l-1.805,1.965.014.035H287.2Z" transform="translate(-267.903 -9609.3)"/>
        <path id="Trazado_101617" data-name="Trazado 101617" d="M287.377,9615.075l.585-5.651h5.658v1.631h-3.992l-.278,2.341a2.44,2.44,0,0,1,.676-.345,2.888,2.888,0,0,1,.878-.144,2.823,2.823,0,0,1,2.268.886,3.661,3.661,0,0,1,.805,2.522,3.48,3.48,0,0,1-.881,2.433,3.26,3.26,0,0,1-2.54.968,3.8,3.8,0,0,1-2.4-.768,2.417,2.417,0,0,1-.962-2.1l.014-.035,1.957-.1a1.425,1.425,0,0,0,.383,1.056,1.367,1.367,0,0,0,1,.38,1.175,1.175,0,0,0,1.049-.5,2.338,2.338,0,0,0,.338-1.319,2.445,2.445,0,0,0-.362-1.4,1.221,1.221,0,0,0-1.074-.529,1.563,1.563,0,0,0-.9.217,1.178,1.178,0,0,0-.442.585Z" transform="translate(-266.563 -9609.277)"/>
      </g>
      <g id="Grupo_53952" data-name="Grupo 53952" transform="translate(261.331 9235.061)">
        <path id="Trazado_101618" data-name="Trazado 101618" d="M244.014,9233.856a4.473,4.473,0,0,1-.924,3.056,3.537,3.537,0,0,1-5.014,0,4.468,4.468,0,0,1-.926-3.056v-2.237a4.492,4.492,0,0,1,.923-3.055,3.514,3.514,0,0,1,5.01,0,4.463,4.463,0,0,1,.931,3.055Zm-2.029-2.448a3.328,3.328,0,0,0-.362-1.764,1.256,1.256,0,0,0-2.091,0,3.383,3.383,0,0,0-.356,1.768v2.639a3.387,3.387,0,0,0,.359,1.781,1.174,1.174,0,0,0,1.056.557,1.156,1.156,0,0,0,1.038-.557,3.417,3.417,0,0,0,.354-1.781Z" transform="translate(-237.15 -9227.515)"/>
        <path id="Trazado_101619" data-name="Trazado 101619" d="M246.357,9236.454h-2.035v-1.784h2.035Z" transform="translate(-235.793 -9226.16)"/>
        <path id="Trazado_101620" data-name="Trazado 101620" d="M247.8,9233.288l.585-5.649h5.658v1.63h-3.992l-.279,2.341a2.437,2.437,0,0,1,.677-.344,3.176,3.176,0,0,1,3.146.74,3.674,3.674,0,0,1,.805,2.522,3.478,3.478,0,0,1-.881,2.433,3.258,3.258,0,0,1-2.54.97,3.814,3.814,0,0,1-2.4-.767,2.422,2.422,0,0,1-.962-2.1l.014-.036,1.957-.1a1.423,1.423,0,0,0,.383,1.057,1.361,1.361,0,0,0,1,.379,1.172,1.172,0,0,0,1.049-.5,2.335,2.335,0,0,0,.338-1.318,2.437,2.437,0,0,0-.363-1.405,1.217,1.217,0,0,0-1.073-.528,1.564,1.564,0,0,0-.9.216,1.18,1.18,0,0,0-.442.586Z" transform="translate(-235.17 -9227.491)"/>
      </g>
      <g id="Grupo_53953" data-name="Grupo 53953" transform="translate(268.777 9309.535)">
        <path id="Trazado_101621" data-name="Trazado 101621" d="M250.274,9296.479a4.473,4.473,0,0,1-.923,3.056,3.537,3.537,0,0,1-5.014,0,4.468,4.468,0,0,1-.926-3.056v-2.236a4.5,4.5,0,0,1,.923-3.057,3.518,3.518,0,0,1,5.01,0,4.47,4.47,0,0,1,.93,3.057Zm-2.028-2.447a3.334,3.334,0,0,0-.362-1.765,1.257,1.257,0,0,0-2.091,0,3.376,3.376,0,0,0-.356,1.769v2.638a3.38,3.38,0,0,0,.359,1.782,1.177,1.177,0,0,0,1.055.558,1.156,1.156,0,0,0,1.038-.558,3.408,3.408,0,0,0,.356-1.782Z" transform="translate(-243.411 -9290.139)"/>
        <path id="Trazado_101622" data-name="Trazado 101622" d="M252.618,9299.076h-2.035v-1.783h2.035Z" transform="translate(-242.054 -9288.785)"/>
        <path id="Trazado_101623" data-name="Trazado 101623" d="M254.057,9295.913l.585-5.651H260.3v1.631h-3.992l-.279,2.34a2.5,2.5,0,0,1,.677-.345,2.848,2.848,0,0,1,.878-.142,2.819,2.819,0,0,1,2.268.884,3.671,3.671,0,0,1,.805,2.523,3.473,3.473,0,0,1-.881,2.431,3.263,3.263,0,0,1-2.54.97,3.819,3.819,0,0,1-2.4-.767,2.422,2.422,0,0,1-.961-2.1l.013-.034,1.959-.1a1.423,1.423,0,0,0,.383,1.057,1.365,1.365,0,0,0,1,.38,1.176,1.176,0,0,0,1.049-.5,2.334,2.334,0,0,0,.338-1.317,2.446,2.446,0,0,0-.363-1.405,1.216,1.216,0,0,0-1.073-.528,1.556,1.556,0,0,0-.9.216,1.174,1.174,0,0,0-.442.585Z" transform="translate(-241.431 -9290.115)"/>
      </g>
      <g id="Grupo_53954" data-name="Grupo 53954" transform="translate(242.424 9327.67)">
        <path id="Trazado_101624" data-name="Trazado 101624" d="M227.669,9314.688v-6.29h-6.236v-3.011h15.009v10.351h-2.319v-7.34H229.99v6.29Z" transform="translate(-221.218 -9305.388)"/>
        <path id="Trazado_101625" data-name="Trazado 101625" d="M224.67,9322.476v-5.27l-3.237-1.019v-3.04l15.009,5.163v3.083l-15.009,5.145V9323.5Zm2.361-4.526v3.783l5.9-1.854v-.062Z" transform="translate(-221.218 -9303.919)"/>
        <path id="Trazado_101626" data-name="Trazado 101626" d="M223.752,9328.6v6.68h-2.319v-9.69h15.009v3.011Z" transform="translate(-221.218 -9301.565)"/>
        <path id="Trazado_101627" data-name="Trazado 101627" d="M221.433,9335.19h15.009v5.153a6.2,6.2,0,0,1-1.758,4.537,6.059,6.059,0,0,1-4.51,1.781h-2.484a6.035,6.035,0,0,1-4.51-1.781,6.22,6.22,0,0,1-1.748-4.537Zm12.69,3.01H223.752v1.987a3.132,3.132,0,0,0,1.092,2.537,4.292,4.292,0,0,0,2.853.918h2.5a4.256,4.256,0,0,0,2.833-.918,3.132,3.132,0,0,0,1.092-2.537Z" transform="translate(-221.218 -9299.748)"/>
        <path id="Trazado_101628" data-name="Trazado 101628" d="M224.67,9354.868V9349.6l-3.237-1.02v-3.041l15.009,5.164v3.082l-15.009,5.145v-3.043Zm2.361-4.524v3.781l5.9-1.854v-.062Z" transform="translate(-221.218 -9297.789)"/>
        <path id="Trazado_101629" data-name="Trazado 101629" d="M221.433,9362.4h15.009v5.072a7.16,7.16,0,0,1-1.031,4.133,3.5,3.5,0,0,1-3.082,1.484,3.254,3.254,0,0,1-1.86-.551,3.344,3.344,0,0,1-1.232-1.6,3.187,3.187,0,0,1-1.237,2.025,3.708,3.708,0,0,1-2.2.674,3.887,3.887,0,0,1-3.263-1.422,6.433,6.433,0,0,1-1.108-4.029Zm6.638,3.012h-4.319v2.773a2.8,2.8,0,0,0,.52,1.822,1.878,1.878,0,0,0,1.538.629,2.394,2.394,0,0,0,1.682-.535,2.2,2.2,0,0,0,.58-1.691Zm2.082,0v2.164a3.015,3.015,0,0,0,.495,1.855,1.709,1.709,0,0,0,1.444.648,1.8,1.8,0,0,0,1.537-.654,3.222,3.222,0,0,0,.495-1.953v-2.061Z" transform="translate(-221.218 -9294.598)"/>
        <path id="Trazado_101630" data-name="Trazado 101630" d="M224.67,9382.042v-5.267l-3.237-1.02v-3.041l15.009,5.163v3.083l-15.009,5.144v-3.041Zm2.361-4.523v3.78l5.9-1.853v-.062Zm13.226,2.474v3.185l-.061.021-2.681-2.855v-2.4Z" transform="translate(-221.218 -9292.646)"/>
        <path id="Trazado_101631" data-name="Trazado 101631" d="M225.385,9393.33a1.737,1.737,0,0,0,1.391-.613,6.173,6.173,0,0,0,.989-2.148,12.234,12.234,0,0,1,1.835-4.051,3.479,3.479,0,0,1,2.907-1.373,3.607,3.607,0,0,1,3.017,1.572,6.561,6.561,0,0,1,1.169,4.018,6.038,6.038,0,0,1-1.313,4.029,3.932,3.932,0,0,1-3.243,1.5l-.062-.02v-2.918a2.2,2.2,0,0,0,1.685-.693,2.767,2.767,0,0,0,.645-1.955,2.886,2.886,0,0,0-.536-1.867,1.7,1.7,0,0,0-1.37-.658,1.475,1.475,0,0,0-1.253.705,9.8,9.8,0,0,0-1.036,2.439,9.461,9.461,0,0,1-1.824,3.762,3.787,3.787,0,0,1-2.979,1.277,3.571,3.571,0,0,1-3.042-1.518,6.652,6.652,0,0,1-1.112-4.018,7.325,7.325,0,0,1,1.262-4.277,3.936,3.936,0,0,1,3.542-1.771l.061.02v2.928a2.313,2.313,0,0,0-1.963.818,3.7,3.7,0,0,0-.623,2.283,3.009,3.009,0,0,0,.5,1.877A1.625,1.625,0,0,0,225.385,9393.33Z" transform="translate(-221.252 -9290.368)"/>
        <path id="Trazado_101632" data-name="Trazado 101632" d="M221.433,9399.578v-3.009h15.009v3.009Z" transform="translate(-221.218 -9288.132)"/>
        <path id="Trazado_101633" data-name="Trazado 101633" d="M226.581,9413.022l-.063.021a4.892,4.892,0,0,1-3.844-1.479,5.939,5.939,0,0,1-1.422-4.223,5.864,5.864,0,0,1,1.741-4.4,6.177,6.177,0,0,1,4.485-1.69h2.979a6.275,6.275,0,0,1,4.483,1.651,5.613,5.613,0,0,1,1.753,4.288,6.226,6.226,0,0,1-1.427,4.351,4.9,4.9,0,0,1-3.892,1.524l-.061-.02v-2.929a3.287,3.287,0,0,0,2.273-.711,2.841,2.841,0,0,0,.788-2.216,2.514,2.514,0,0,0-1.1-2.145,4.652,4.652,0,0,0-2.8-.794h-3a4.527,4.527,0,0,0-2.817.834,2.687,2.687,0,0,0-1.1,2.258,2.657,2.657,0,0,0,.758,2.088,3.29,3.29,0,0,0,2.252.676Z" transform="translate(-221.252 -9287.246)"/>
        <path id="Trazado_101634" data-name="Trazado 101634" d="M224.67,9421.224v-5.27l-3.237-1.019v-3.041l15.009,5.164v3.083l-15.009,5.145v-3.043Zm2.361-4.525v3.782l5.9-1.854v-.062Z" transform="translate(-221.218 -9285.231)"/>
        <path id="Trazado_101635" data-name="Trazado 101635" d="M221.433,9428.755h15.009v5.154a6.2,6.2,0,0,1-1.758,4.536,6.055,6.055,0,0,1-4.51,1.781h-2.484a6.031,6.031,0,0,1-4.51-1.781,6.217,6.217,0,0,1-1.748-4.536Zm12.69,3.011H223.752v1.988a3.132,3.132,0,0,0,1.092,2.536,4.3,4.3,0,0,0,2.853.917h2.5a4.266,4.266,0,0,0,2.833-.917,3.132,3.132,0,0,0,1.092-2.536Z" transform="translate(-221.218 -9282.041)"/>
        <path id="Trazado_101636" data-name="Trazado 101636" d="M228.031,9449.613V9443.4h-4.279v7.268h-2.319v-10.279h15.009v10.258h-2.319V9443.4H230.35v6.215Z" transform="translate(-221.218 -9279.839)"/>
        <path id="Trazado_101637" data-name="Trazado 101637" d="M223.752,9453.591v6.68h-2.319v-9.689h15.009v3.01Z" transform="translate(-221.218 -9277.911)"/>
        <path id="Trazado_101638" data-name="Trazado 101638" d="M224.67,9468.628v-5.267l-3.237-1.02v-3.04l15.009,5.162v3.083l-15.009,5.144v-3.041Zm2.361-4.523v3.78l5.9-1.852v-.063Z" transform="translate(-221.218 -9276.261)"/>
        <path id="Trazado_101639" data-name="Trazado 101639" d="M221.433,9483.873v-3l10.257-6.062-.011-.064H221.433v-3.009h15.009v3.009l-10.247,6.063.011.063h10.236v3Z" transform="translate(-221.218 -9273.906)"/>
        <path id="Trazado_101640" data-name="Trazado 101640" d="M234.123,9494.857v-4.248h-12.69V9487.6h12.69v-4.225h2.319v11.483Z" transform="translate(-221.218 -9271.705)"/>
        <path id="Trazado_101641" data-name="Trazado 101641" d="M228.031,9503.668v-6.216h-4.279v7.268h-2.319v-10.278h15.009V9504.7h-2.319v-7.247H230.35v6.216Z" transform="translate(-221.218 -9269.609)"/>
        <path id="Trazado_101642" data-name="Trazado 101642" d="M227.433,9507.646h-6v-3.01h15.009v5.659a6.229,6.229,0,0,1-1.17,4.018,3.961,3.961,0,0,1-3.262,1.446,3.294,3.294,0,0,1-2-.609,4.236,4.236,0,0,1-1.351-1.784,3.221,3.221,0,0,1-1.308,1.915,4.152,4.152,0,0,1-2.268.581h-1.1a5.411,5.411,0,0,0-1.314.172,1.81,1.81,0,0,0-1.016.581h-.216v-3.1a1.687,1.687,0,0,1,1.1-.535,9.109,9.109,0,0,1,1.463-.123h1.062a2.392,2.392,0,0,0,1.748-.615,2.315,2.315,0,0,0,.623-1.727Zm2.319,0v2.6a2.838,2.838,0,0,0,.538,1.892,1.975,1.975,0,0,0,1.588.625,2.181,2.181,0,0,0,1.638-.625,2.535,2.535,0,0,0,.609-1.841v-2.649Z" transform="translate(-221.218 -9267.681)"/>
        <path id="Trazado_101643" data-name="Trazado 101643" d="M224.67,9524.627v-5.267l-3.237-1.023V9515.3l15.009,5.165v3.083l-15.009,5.142v-3.04Zm2.361-4.525v3.782l5.9-1.854v-.062Z" transform="translate(-221.218 -9265.663)"/>
      </g>
      <g id="Grupo_53955" data-name="Grupo 53955" transform="translate(109.373 9251.379)">
        <path id="Trazado_101644" data-name="Trazado 101644" d="M116.236,9247.577a4.477,4.477,0,0,1-.922,3.056,3.538,3.538,0,0,1-5.015,0,4.46,4.46,0,0,1-.926-3.056v-2.238a4.486,4.486,0,0,1,.924-3.055,3.518,3.518,0,0,1,5.01,0,4.468,4.468,0,0,1,.929,3.055Zm-2.028-2.448a3.321,3.321,0,0,0-.363-1.765,1.256,1.256,0,0,0-2.09,0,3.369,3.369,0,0,0-.356,1.768v2.638a3.37,3.37,0,0,0,.36,1.781,1.171,1.171,0,0,0,1.054.559,1.153,1.153,0,0,0,1.038-.559,3.4,3.4,0,0,0,.356-1.781Z" transform="translate(-109.373 -9241.236)"/>
      </g>
      <g id="Grupo_53956" data-name="Grupo 53956" transform="translate(109.374 9640.019)">
        <path id="Trazado_101645" data-name="Trazado 101645" d="M116.237,9574.373a4.475,4.475,0,0,1-.923,3.055,3.537,3.537,0,0,1-5.014,0,4.457,4.457,0,0,1-.926-3.055v-2.236a4.488,4.488,0,0,1,.923-3.056,3.516,3.516,0,0,1,5.01,0,4.471,4.471,0,0,1,.93,3.056Zm-2.028-2.448a3.32,3.32,0,0,0-.363-1.764,1.254,1.254,0,0,0-2.09,0,3.374,3.374,0,0,0-.356,1.768v2.639a3.382,3.382,0,0,0,.359,1.782,1.177,1.177,0,0,0,1.055.558,1.156,1.156,0,0,0,1.038-.558,3.422,3.422,0,0,0,.356-1.782Z" transform="translate(-109.374 -9568.032)"/>
      </g>
      <g id="Grupo_53957" data-name="Grupo 53957" transform="translate(336.377 9235.997)">
        <path id="Trazado_101646" data-name="Trazado 101646" d="M304.351,9238.448h-2.035V9230.1h-2.062v-1.436l4.1-.362Z" transform="translate(-300.254 -9228.303)"/>
      </g>
      <g id="Grupo_53958" data-name="Grupo 53958" transform="translate(375.26 9365.265)">
        <path id="Trazado_101647" data-name="Trazado 101647" d="M337.046,9347.146h-2.035V9338.8h-2.062v-1.436l4.1-.362Z" transform="translate(-332.949 -9337)"/>
      </g>
      <g id="Grupo_53959" data-name="Grupo 53959" transform="translate(353.028 9642.301)">
        <path id="Trazado_101648" data-name="Trazado 101648" d="M318.352,9580.1h-2.035v-8.348h-2.062v-1.436l4.1-.362Z" transform="translate(-314.255 -9569.951)"/>
      </g>
      <path id="Trazado_101649" data-name="Trazado 101649" d="M212.228,9552.371a1.191,1.191,0,0,1-1.189-1.189V9310.746a1.189,1.189,0,1,1,2.378,0v235.121l3.728-7.912a1.189,1.189,0,0,1,2.151,1.014l-5.994,12.719A1.187,1.187,0,0,1,212.228,9552.371Z" transform="translate(19.24 23.073)"/>
    </g>
    <g id="Grupo_53994" data-name="Grupo 53994" transform="translate(-173.815 -3733.09)">
      <g id="Grupo_53961" data-name="Grupo 53961" transform="translate(711.237 9244.009)">
        <path id="Trazado_101650" data-name="Trazado 101650" d="M704.509,9240.994v400.089H875.087V9398.265s4.692-103.243-29.77-162.717Z" transform="translate(-703.914 -9234.941)" fill="#fff"/>
        <path id="Trazado_101651" data-name="Trazado 101651" d="M875.776,9641.774H704.009V9240.519l141.736-5.48.18.311c34.155,58.943,29.9,162.007,29.85,163.041ZM705.2,9640.585H874.587V9398.363c.048-1.056,4.273-103.419-29.511-162.109l-139.878,5.41Z" transform="translate(-704.009 -9235.038)" fill="#c69c6d"/>
      </g>
      <path id="Trazado_101652" data-name="Trazado 101652" d="M863.071,9640.982h-159.1v-396.3l.571-.023,130.723-5.393.176.326c31.616,58.209,27.675,159.991,27.632,161.013Zm-157.912-1.19H861.881V9400.575c.044-1.041,3.953-102.121-27.311-160.094l-129.412,5.337Z" transform="translate(7.221 9.77)" fill="gray"/>
      <path id="Trazado_101653" data-name="Trazado 101653" d="M857.241,9638.481H703.951V9246.518l.568-.026,125.931-5.33.176.332c30.453,57.569,26.656,158.229,26.614,159.238Zm-152.1-1.188H856.052V9400.707c.042-1.029,3.808-100.988-26.3-158.329l-124.61,5.281Z" transform="translate(7.217 10.128)" fill="#009245"/>
      <path id="Trazado_101654" data-name="Trazado 101654" d="M869.162,9641.44H703.989V9242.277l.571-.024,135.727-5.431.18.318c32.833,58.633,28.739,161.153,28.7,162.182Zm-163.984-1.189H867.972V9399.3c.045-1.051,4.106-102.869-28.367-161.257l-134.427,5.379Z" transform="translate(7.224 9.308)" fill="#662d91"/>
      <circle id="Elipse_4066" data-name="Elipse 4066" cx="2.296" cy="2.296" r="2.296" transform="translate(853.77 9307.835)" fill="#009245"/>
      <circle id="Elipse_4067" data-name="Elipse 4067" cx="1.498" cy="1.498" r="1.498" transform="translate(835.575 9250.4)" fill="#009245"/>
      <circle id="Elipse_4068" data-name="Elipse 4068" cx="2.296" cy="2.296" r="2.296" transform="translate(859.897 9307.835)" fill="#b1237f"/>
      <circle id="Elipse_4069" data-name="Elipse 4069" cx="1.584" cy="1.584" r="1.584" transform="translate(840.344 9248.057)" fill="#b1237f"/>
      <circle id="Elipse_4070" data-name="Elipse 4070" cx="1.795" cy="1.795" r="1.795" transform="translate(785.225 9249.361)" fill="#b1237f"/>
      <circle id="Elipse_4071" data-name="Elipse 4071" cx="1.795" cy="1.795" r="1.795" transform="translate(769.429 9246.739)" fill="#ba4515"/>
      <circle id="Elipse_4072" data-name="Elipse 4072" cx="1.419" cy="1.419" r="1.419" transform="translate(779.448 9246.429)" fill="#ba4515"/>
      <circle id="Elipse_4073" data-name="Elipse 4073" cx="1.703" cy="1.703" r="1.703" transform="translate(788.083 9246.144)" fill="#ba4515"/>
      <circle id="Elipse_4074" data-name="Elipse 4074" cx="1.795" cy="1.795" r="1.795" transform="translate(766.198 9250.653)" fill="#b1237f"/>
      <circle id="Elipse_4075" data-name="Elipse 4075" cx="2.296" cy="2.296" r="2.296" transform="translate(866.107 9307.835)" fill="#662d91"/>
      <circle id="Elipse_4076" data-name="Elipse 4076" cx="1.57" cy="1.57" r="1.57" transform="translate(845.207 9245.352)" fill="#662d91"/>
      <circle id="Elipse_4077" data-name="Elipse 4077" cx="2.296" cy="2.296" r="2.296" transform="translate(872.622 9307.835)" fill="#c69c6d"/>
      <circle id="Elipse_4078" data-name="Elipse 4078" cx="1.538" cy="1.538" r="1.538" transform="translate(850.83 9243.078)" fill="#c69c6d"/>
      <circle id="Elipse_4079" data-name="Elipse 4079" cx="2.296" cy="2.296" r="2.296" transform="translate(860.9 9370.819)" fill="#009245"/>
      <circle id="Elipse_4080" data-name="Elipse 4080" cx="2.296" cy="2.296" r="2.296" transform="translate(867.028 9370.819)" fill="#b1237f"/>
      <circle id="Elipse_4081" data-name="Elipse 4081" cx="2.296" cy="2.296" r="2.296" transform="translate(873.237 9370.819)" fill="#662d91"/>
      <circle id="Elipse_4082" data-name="Elipse 4082" cx="2.296" cy="2.296" r="2.296" transform="translate(879.753 9370.819)" fill="#c69c6d"/>
      <circle id="Elipse_4083" data-name="Elipse 4083" cx="2.296" cy="2.296" r="2.296" transform="translate(860.9 9645.341)" fill="#009245"/>
      <circle id="Elipse_4084" data-name="Elipse 4084" cx="2.296" cy="2.296" r="2.296" transform="translate(867.224 9645.72)" fill="#b1237f"/>
      <circle id="Elipse_4085" data-name="Elipse 4085" cx="2.296" cy="2.296" r="2.296" transform="translate(873.275 9647.046)" fill="#662d91"/>
      <circle id="Elipse_4086" data-name="Elipse 4086" cx="2.296" cy="2.296" r="2.296" transform="translate(880.328 9647.854)" fill="#c69c6d"/>
      <g id="Grupo_53962" data-name="Grupo 53962" transform="translate(838.265 9204.541)">
        <rect id="Rectángulo_5251" data-name="Rectángulo 5251" width="2.378" height="27.228" transform="translate(8.946 11.309)" fill="red"/>
        <path id="Trazado_101655" data-name="Trazado 101655" d="M820.6,9201.85l10.393,17.295H810.823Z" transform="translate(-810.823 -9201.85)" fill="red"/>
      </g>
      <g id="Grupo_53963" data-name="Grupo 53963" transform="translate(847.46 9231.733)">
        <rect id="Rectángulo_5252" data-name="Rectángulo 5252" width="27.229" height="2.378" transform="translate(0 8.946)" fill="red"/>
        <path id="Trazado_101656" data-name="Trazado 101656" d="M853.713,9234.487l-17.3,10.393v-20.166Z" transform="translate(-815.175 -9224.714)" fill="red"/>
      </g>
      <g id="Grupo_53966" data-name="Grupo 53966" transform="translate(855.993 9637.606)">
        <g id="Grupo_53964" data-name="Grupo 53964" transform="translate(0 8.821)">
          <rect id="Rectángulo_5253" data-name="Rectángulo 5253" width="2.378" height="27.229" transform="translate(8.946)" fill="red"/>
          <path id="Trazado_101657" data-name="Trazado 101657" d="M835.5,9608.578l10.393-17.3H825.73Z" transform="translate(-825.73 -9570.041)" fill="red"/>
        </g>
        <g id="Grupo_53965" data-name="Grupo 53965" transform="translate(9.195)">
          <rect id="Rectángulo_5254" data-name="Rectángulo 5254" width="27.229" height="2.378" transform="translate(0 8.843)" fill="red"/>
          <path id="Trazado_101658" data-name="Trazado 101658" d="M868.62,9576.4,851.324,9566v20.166Z" transform="translate(-830.082 -9566.003)" fill="red"/>
        </g>
      </g>
      <g id="Grupo_53969" data-name="Grupo 53969" transform="translate(676.676 9637.606)">
        <g id="Grupo_53967" data-name="Grupo 53967" transform="translate(27.568 8.821)">
          <rect id="Rectángulo_5255" data-name="Rectángulo 5255" width="2.378" height="27.229" transform="translate(8.842)" fill="red"/>
          <path id="Trazado_101659" data-name="Trazado 101659" d="M708.522,9608.578l-10.393-17.3h20.165Z" transform="translate(-698.129 -9570.041)" fill="red"/>
        </g>
        <g id="Grupo_53968" data-name="Grupo 53968">
          <rect id="Rectángulo_5256" data-name="Rectángulo 5256" width="27.229" height="2.378" transform="translate(11.308 8.843)" fill="red"/>
          <path id="Trazado_101660" data-name="Trazado 101660" d="M674.948,9576.4l17.3-10.393v20.166Z" transform="translate(-674.948 -9566.003)" fill="red"/>
        </g>
      </g>
      <g id="Grupo_53970" data-name="Grupo 53970" transform="translate(763.154 9203.798)">
        <rect id="Rectángulo_5257" data-name="Rectángulo 5257" width="2.378" height="27.228" transform="translate(8.945 11.309)" fill="red"/>
        <path id="Trazado_101661" data-name="Trazado 101661" d="M757.437,9201.226l10.393,17.3H747.664Z" transform="translate(-747.664 -9201.226)" fill="red"/>
      </g>
      <g id="Grupo_53971" data-name="Grupo 53971" transform="translate(772.349 9230.99)">
        <rect id="Rectángulo_5258" data-name="Rectángulo 5258" width="27.229" height="2.378" transform="translate(0 8.945)" fill="red"/>
        <path id="Trazado_101662" data-name="Trazado 101662" d="M790.554,9233.863l-17.3,10.393v-20.164Z" transform="translate(-752.016 -9224.092)" fill="red"/>
      </g>
      <g id="Grupo_53972" data-name="Grupo 53972" transform="translate(779.953 9306.104)">
        <rect id="Rectángulo_5259" data-name="Rectángulo 5259" width="27.228" height="2.378" transform="translate(0 8.945)" fill="red"/>
        <path id="Trazado_101663" data-name="Trazado 101663" d="M796.948,9297.025l-17.3,10.393v-20.165Z" transform="translate(-758.41 -9287.253)" fill="red"/>
      </g>
      <g id="Grupo_53973" data-name="Grupo 53973" transform="translate(887.034 9362.211)">
        <rect id="Rectángulo_5260" data-name="Rectángulo 5260" width="27.229" height="2.378" transform="translate(0 8.946)" fill="red"/>
        <path id="Trazado_101664" data-name="Trazado 101664" d="M886.99,9344.205l-17.3,10.393v-20.166Z" transform="translate(-848.451 -9334.432)" fill="red"/>
      </g>
      <g id="Grupo_53976" data-name="Grupo 53976" transform="translate(676.055 9219.813)">
        <g id="Grupo_53974" data-name="Grupo 53974" transform="translate(27.568)">
          <rect id="Rectángulo_5261" data-name="Rectángulo 5261" width="2.378" height="27.229" transform="translate(8.842 11.308)" fill="red"/>
          <path id="Trazado_101665" data-name="Trazado 101665" d="M708,9214.692l-10.393,17.3h20.165Z" transform="translate(-697.606 -9214.692)" fill="red"/>
        </g>
        <g id="Grupo_53975" data-name="Grupo 53975" transform="translate(0 27.192)">
          <rect id="Rectángulo_5262" data-name="Rectángulo 5262" width="27.229" height="2.378" transform="translate(11.309 8.945)" fill="red"/>
          <path id="Trazado_101666" data-name="Trazado 101666" d="M674.425,9247.332l17.3,10.393v-20.166Z" transform="translate(-674.425 -9237.559)" fill="red"/>
        </g>
      </g>
      <g id="Grupo_53977" data-name="Grupo 53977" transform="translate(769.96 9251.304)">
        <path id="Trazado_101667" data-name="Trazado 101667" d="M754.475,9245.386a.6.6,0,0,1-.58-.473l-.494-2.326a.594.594,0,0,1,.459-.705.6.6,0,0,1,.705.457l.494,2.329a.6.6,0,0,1-.459.7A.537.537,0,0,1,754.475,9245.386Z" transform="translate(-753.388 -9241.041)" fill="#c69c6d"/>
        <path id="Trazado_101668" data-name="Trazado 101668" d="M766.444,9301.894a.6.6,0,0,1-.58-.472l-1.018-4.8a.6.6,0,0,1,.459-.706.607.607,0,0,1,.705.461l1.017,4.8a.6.6,0,0,1-.458.706A.918.918,0,0,1,766.444,9301.894Zm-2.035-9.607a.6.6,0,0,1-.58-.471l-1.018-4.8a.6.6,0,0,1,.459-.706.605.605,0,0,1,.705.458l1.017,4.8a.591.591,0,0,1-.458.7A.55.55,0,0,1,764.409,9292.286Zm-2.035-9.607a.6.6,0,0,1-.58-.47l-1.018-4.806a.6.6,0,0,1,1.164-.246l1.017,4.8a.6.6,0,0,1-.458.705A.686.686,0,0,1,762.375,9282.679Zm-2.036-9.607a.6.6,0,0,1-.58-.471l-1.018-4.8a.6.6,0,0,1,1.164-.248l1.017,4.8a.594.594,0,0,1-.458.7A.9.9,0,0,1,760.339,9273.071Zm-2.035-9.606a.6.6,0,0,1-.58-.473l-1.017-4.8a.593.593,0,0,1,.458-.7.6.6,0,0,1,.705.458l1.018,4.8a.6.6,0,0,1-.459.706A.773.773,0,0,1,758.3,9263.465Zm-2.035-9.606a.6.6,0,0,1-.58-.473l-1.017-4.8a.6.6,0,0,1,.458-.705.6.6,0,0,1,.705.46l1.018,4.8a.594.594,0,0,1-.459.7A.537.537,0,0,1,756.269,9253.858Z" transform="translate(-753.147 -9239.906)" fill="#c69c6d"/>
        <path id="Trazado_101669" data-name="Trazado 101669" d="M766.013,9299.856a.6.6,0,0,1-.583-.473l-.492-2.325a.6.6,0,0,1,.459-.7.618.618,0,0,1,.43.072.641.641,0,0,1,.419-.127.593.593,0,0,1,.546.638l-.187,2.371a.6.6,0,0,1-.554.547Z" transform="translate(-751.204 -9230.74)" fill="#c69c6d"/>
        <path id="Trazado_101670" data-name="Trazado 101670" d="M766.416,9301.907l-.047,0a.592.592,0,0,1-.546-.639l.383-4.859a.6.6,0,0,1,.639-.546.591.591,0,0,1,.546.638l-.383,4.859A.593.593,0,0,1,766.416,9301.907Zm.766-9.72-.048,0a.594.594,0,0,1-.546-.639l.384-4.859a.617.617,0,0,1,.639-.546.591.591,0,0,1,.546.638l-.383,4.86A.6.6,0,0,1,767.182,9292.188Zm.767-9.722c-.017,0-.032,0-.048,0a.594.594,0,0,1-.546-.639l.383-4.859a.608.608,0,0,1,.639-.546.59.59,0,0,1,.546.638l-.383,4.86A.594.594,0,0,1,767.949,9282.466Zm.767-9.721a.186.186,0,0,1-.048,0,.589.589,0,0,1-.546-.637l.383-4.859a.616.616,0,0,1,.639-.548.594.594,0,0,1,.546.639l-.383,4.86A.6.6,0,0,1,768.716,9272.745Zm.766-9.722h-.048a.6.6,0,0,1-.546-.641l.383-4.858a.6.6,0,0,1,.639-.547.591.591,0,0,1,.546.639l-.383,4.86A.593.593,0,0,1,769.482,9263.023Zm.767-9.72a.362.362,0,0,1-.048,0,.593.593,0,0,1-.546-.639l.383-4.859a.623.623,0,0,1,.639-.547.592.592,0,0,1,.546.639l-.383,4.86A.6.6,0,0,1,770.249,9253.3Z" transform="translate(-751.035 -9240.022)" fill="#c69c6d"/>
        <path id="Trazado_101671" data-name="Trazado 101671" d="M770.283,9244.733l-.048,0a.6.6,0,0,1-.546-.64l.187-2.37a.6.6,0,0,1,.639-.546.591.591,0,0,1,.546.639l-.187,2.37A.6.6,0,0,1,770.283,9244.733Z" transform="translate(-750.303 -9241.174)" fill="#c69c6d"/>
      </g>
      <g id="Grupo_53978" data-name="Grupo 53978" transform="translate(768.273 9252.801)">
        <path id="Trazado_101672" data-name="Trazado 101672" d="M753.055,9246.645a.6.6,0,0,1-.58-.472l-.492-2.327a.6.6,0,0,1,.459-.707.612.612,0,0,1,.705.46l.492,2.328a.594.594,0,0,1-.584.718Z" transform="translate(-751.969 -9242.298)" fill="#662d91"/>
        <path id="Trazado_101673" data-name="Trazado 101673" d="M765.024,9303.152a.6.6,0,0,1-.58-.472l-1.018-4.8a.595.595,0,0,1,1.164-.246l1.017,4.8a.593.593,0,0,1-.458.7A.688.688,0,0,1,765.024,9303.152Zm-2.035-9.607a.594.594,0,0,1-.58-.471l-1.018-4.8a.6.6,0,0,1,.459-.706.607.607,0,0,1,.705.459l1.017,4.8a.6.6,0,0,1-.458.706A.785.785,0,0,1,762.99,9293.545Zm-2.035-9.606a.6.6,0,0,1-.58-.471l-1.018-4.8a.6.6,0,0,1,.459-.705.607.607,0,0,1,.705.459l1.017,4.8a.6.6,0,0,1-.458.705A.675.675,0,0,1,760.955,9283.938Zm-2.035-9.606a.6.6,0,0,1-.58-.473l-1.018-4.8a.593.593,0,0,1,.458-.7.6.6,0,0,1,.705.458l1.019,4.8a.593.593,0,0,1-.459.7A.547.547,0,0,1,758.92,9274.332Zm-2.036-9.608a.594.594,0,0,1-.58-.471l-1.017-4.8a.6.6,0,0,1,.458-.7.6.6,0,0,1,.705.457l1.018,4.806a.6.6,0,0,1-.459.705A.665.665,0,0,1,756.884,9264.724Zm-2.035-9.605a.6.6,0,0,1-.58-.473l-1.017-4.8a.594.594,0,0,1,.458-.7.6.6,0,0,1,.705.459l1.018,4.8a.6.6,0,0,1-.459.706A.666.666,0,0,1,754.849,9255.118Z" transform="translate(-751.729 -9241.165)" fill="#662d91"/>
        <path id="Trazado_101674" data-name="Trazado 101674" d="M764.593,9301.117a.594.594,0,0,1-.583-.471l-.492-2.328a.6.6,0,0,1,.459-.705.615.615,0,0,1,.432.074.656.656,0,0,1,.419-.129.6.6,0,0,1,.546.641l-.188,2.371a.6.6,0,0,1-.554.546Z" transform="translate(-749.786 -9232)" fill="#662d91"/>
        <path id="Trazado_101675" data-name="Trazado 101675" d="M765,9303.167l-.048,0a.593.593,0,0,1-.546-.64l.383-4.859a.6.6,0,0,1,.639-.546.593.593,0,0,1,.546.64l-.383,4.86A.592.592,0,0,1,765,9303.167Zm.767-9.721-.048,0a.591.591,0,0,1-.546-.639l.383-4.86a.623.623,0,0,1,.639-.545.592.592,0,0,1,.546.639l-.383,4.86A.594.594,0,0,1,765.763,9293.446Zm.766-9.722-.048,0a.593.593,0,0,1-.546-.639l.383-4.86a.612.612,0,0,1,.639-.546.592.592,0,0,1,.546.64l-.383,4.86A.592.592,0,0,1,766.529,9283.725ZM767.3,9274l-.048,0a.591.591,0,0,1-.546-.639l.383-4.86a.617.617,0,0,1,.639-.545.593.593,0,0,1,.546.638l-.383,4.86A.6.6,0,0,1,767.3,9274Zm.766-9.721-.047,0a.593.593,0,0,1-.546-.639l.383-4.86a.607.607,0,0,1,.64-.545.592.592,0,0,1,.546.637l-.384,4.861A.593.593,0,0,1,768.061,9264.283Zm.767-9.722-.048,0a.59.59,0,0,1-.546-.639l.383-4.86a.612.612,0,0,1,.639-.545.594.594,0,0,1,.546.639l-.383,4.859A.593.593,0,0,1,768.829,9254.562Z" transform="translate(-749.617 -9241.282)" fill="#662d91"/>
        <path id="Trazado_101676" data-name="Trazado 101676" d="M768.863,9245.991l-.047,0a.592.592,0,0,1-.546-.639l.187-2.372a.612.612,0,0,1,.64-.546.6.6,0,0,1,.546.639l-.188,2.372A.593.593,0,0,1,768.863,9245.991Z" transform="translate(-748.885 -9242.431)" fill="#662d91"/>
      </g>
      <g id="Grupo_53979" data-name="Grupo 53979" transform="translate(766.672 9253.196)">
        <path id="Trazado_101677" data-name="Trazado 101677" d="M751.709,9246.977a.591.591,0,0,1-.58-.47l-.494-2.329a.6.6,0,0,1,.459-.7.605.605,0,0,1,.705.458l.492,2.329a.6.6,0,0,1-.459.7A.663.663,0,0,1,751.709,9246.977Z" transform="translate(-750.622 -9242.631)" fill="gray"/>
        <path id="Trazado_101678" data-name="Trazado 101678" d="M763.677,9303.487a.6.6,0,0,1-.58-.473l-1.017-4.8a.593.593,0,0,1,.458-.7.6.6,0,0,1,.705.458l1.018,4.8a.6.6,0,0,1-.584.719Zm-2.035-9.609a.593.593,0,0,1-.58-.47l-1.017-4.8a.6.6,0,0,1,.458-.706.609.609,0,0,1,.705.459l1.018,4.8a.6.6,0,0,1-.459.705A.881.881,0,0,1,761.643,9293.878Zm-2.034-9.605a.6.6,0,0,1-.581-.472l-1.017-4.8a.594.594,0,0,1,.459-.705.6.6,0,0,1,.7.459l1.018,4.8a.6.6,0,0,1-.459.705A.759.759,0,0,1,759.609,9284.272Zm-2.036-9.607a.6.6,0,0,1-.582-.473l-1.017-4.8a.594.594,0,0,1,.459-.705.6.6,0,0,1,.7.458l1.018,4.8a.6.6,0,0,1-.583.718Zm-2.035-9.608a.594.594,0,0,1-.582-.471l-1.017-4.8a.593.593,0,0,1,.459-.7.6.6,0,0,1,.7.457l1.018,4.8a.6.6,0,0,1-.459.705A.663.663,0,0,1,755.538,9265.057Zm-2.035-9.605a.6.6,0,0,1-.582-.473l-1.017-4.8a.594.594,0,0,1,.459-.7.6.6,0,0,1,.705.459l1.017,4.8a.6.6,0,0,1-.459.707A.667.667,0,0,1,753.5,9255.451Z" transform="translate(-750.382 -9241.499)" fill="gray"/>
        <path id="Trazado_101679" data-name="Trazado 101679" d="M763.246,9301.45a.593.593,0,0,1-.582-.471l-.492-2.326a.6.6,0,0,1,.458-.706.618.618,0,0,1,.432.073.67.67,0,0,1,.417-.129.594.594,0,0,1,.546.641l-.187,2.371a.6.6,0,0,1-.554.546Z" transform="translate(-748.439 -9232.332)" fill="gray"/>
        <path id="Trazado_101680" data-name="Trazado 101680" d="M763.648,9303.5l-.048,0a.592.592,0,0,1-.546-.639l.384-4.86a.628.628,0,0,1,.639-.546.594.594,0,0,1,.546.64l-.384,4.86A.594.594,0,0,1,763.648,9303.5Zm.767-9.72c-.017,0-.032,0-.048,0a.591.591,0,0,1-.546-.639l.383-4.86a.612.612,0,0,1,.639-.545.591.591,0,0,1,.546.639l-.383,4.86A.594.594,0,0,1,764.415,9293.779Zm.766-9.721-.048,0a.593.593,0,0,1-.546-.639l.384-4.861a.6.6,0,0,1,.639-.545.592.592,0,0,1,.546.639l-.383,4.861A.6.6,0,0,1,765.18,9284.059Zm.768-9.723-.048,0a.592.592,0,0,1-.546-.639l.383-4.86a.622.622,0,0,1,.639-.545.591.591,0,0,1,.546.639l-.383,4.86A.592.592,0,0,1,765.949,9274.336Zm.766-9.721-.048,0a.592.592,0,0,1-.546-.639l.384-4.859a.609.609,0,0,1,.639-.546.593.593,0,0,1,.546.638l-.383,4.861A.594.594,0,0,1,766.715,9264.615Zm.767-9.722h-.048a.593.593,0,0,1-.546-.64l.383-4.86a.616.616,0,0,1,.639-.544.591.591,0,0,1,.546.639l-.383,4.861A.592.592,0,0,1,767.482,9254.894Z" transform="translate(-748.27 -9241.615)" fill="gray"/>
        <path id="Trazado_101681" data-name="Trazado 101681" d="M767.517,9246.325a.36.36,0,0,1-.048,0,.591.591,0,0,1-.546-.639l.187-2.371a.614.614,0,0,1,.639-.546.6.6,0,0,1,.546.64l-.187,2.371A.6.6,0,0,1,767.517,9246.325Z" transform="translate(-747.538 -9242.765)" fill="gray"/>
      </g>
      <g id="Grupo_53980" data-name="Grupo 53980" transform="translate(765.146 9253.51)">
        <path id="Trazado_101682" data-name="Trazado 101682" d="M750.426,9247.237a.6.6,0,0,1-.581-.472l-.492-2.326a.594.594,0,0,1,.459-.7.6.6,0,0,1,.705.459l.492,2.325a.6.6,0,0,1-.459.705A.664.664,0,0,1,750.426,9247.237Z" transform="translate(-749.339 -9242.894)" fill="#009245"/>
        <path id="Trazado_101683" data-name="Trazado 101683" d="M762.394,9303.747a.6.6,0,0,1-.58-.471l-1.018-4.8a.6.6,0,0,1,.459-.705.608.608,0,0,1,.705.459l1.017,4.8a.6.6,0,0,1-.458.706A.9.9,0,0,1,762.394,9303.747Zm-2.035-9.607a.594.594,0,0,1-.58-.472l-1.017-4.8a.593.593,0,0,1,.458-.7.6.6,0,0,1,.705.457l1.018,4.8a.594.594,0,0,1-.459.7A.544.544,0,0,1,760.359,9294.14Zm-2.035-9.606a.6.6,0,0,1-.58-.472l-1.017-4.8a.6.6,0,0,1,.458-.705.6.6,0,0,1,.705.458l1.018,4.806a.6.6,0,0,1-.459.705A.678.678,0,0,1,758.325,9284.533Zm-2.036-9.607a.6.6,0,0,1-.58-.473l-1.017-4.8a.6.6,0,0,1,.458-.705.6.6,0,0,1,.705.459l1.018,4.8a.6.6,0,0,1-.459.707A.664.664,0,0,1,756.289,9274.926Zm-2.035-9.607a.6.6,0,0,1-.58-.473l-1.017-4.8a.594.594,0,1,1,1.163-.246l1.018,4.8a.6.6,0,0,1-.584.718Zm-2.034-9.607a.6.6,0,0,1-.582-.471l-1.017-4.8a.594.594,0,1,1,1.163-.246l1.018,4.8a.6.6,0,0,1-.459.706A.662.662,0,0,1,752.22,9255.711Z" transform="translate(-749.099 -9241.762)" fill="#009245"/>
        <path id="Trazado_101684" data-name="Trazado 101684" d="M761.964,9301.71a.6.6,0,0,1-.583-.471l-.494-2.327a.6.6,0,0,1,.459-.705.6.6,0,0,1,.431.073.629.629,0,0,1,.419-.127.592.592,0,0,1,.546.638l-.186,2.37a.594.594,0,0,1-.554.548Z" transform="translate(-747.156 -9232.594)" fill="#009245"/>
        <path id="Trazado_101685" data-name="Trazado 101685" d="M762.365,9303.76a.389.389,0,0,1-.048,0,.593.593,0,0,1-.546-.638l.383-4.86a.623.623,0,0,1,.64-.547.594.594,0,0,1,.546.638l-.384,4.86A.594.594,0,0,1,762.365,9303.76Zm.767-9.722h-.048a.593.593,0,0,1-.546-.64l.383-4.859a.626.626,0,0,1,.639-.546.592.592,0,0,1,.546.638l-.383,4.861A.594.594,0,0,1,763.132,9294.038Zm.766-9.719a.391.391,0,0,1-.048,0,.594.594,0,0,1-.546-.639l.383-4.861a.619.619,0,0,1,.64-.547.594.594,0,0,1,.546.639l-.384,4.862A.6.6,0,0,1,763.9,9284.319Zm.768-9.722a.245.245,0,0,1-.048,0,.592.592,0,0,1-.546-.638l.383-4.86a.6.6,0,0,1,.639-.547.593.593,0,0,1,.546.639l-.383,4.861A.6.6,0,0,1,764.666,9274.6Zm.766-9.721-.048,0a.6.6,0,0,1-.546-.639l.384-4.86a.621.621,0,0,1,.639-.547.594.594,0,0,1,.546.639l-.384,4.861A.6.6,0,0,1,765.432,9264.877Zm.767-9.722-.048,0a.593.593,0,0,1-.546-.639l.383-4.86a.612.612,0,0,1,.639-.547.592.592,0,0,1,.546.639l-.383,4.861A.6.6,0,0,1,766.2,9255.155Z" transform="translate(-746.987 -9241.875)" fill="#009245"/>
        <path id="Trazado_101686" data-name="Trazado 101686" d="M766.233,9246.586l-.047,0a.593.593,0,0,1-.546-.639l.188-2.37a.625.625,0,0,1,.639-.547.6.6,0,0,1,.546.64l-.188,2.37A.594.594,0,0,1,766.233,9246.586Z" transform="translate(-746.255 -9243.026)" fill="#009245"/>
      </g>
      <path id="Trazado_101687" data-name="Trazado 101687" d="M765.108,9301.882a5.752,5.752,0,1,1,5.752-5.752A5.759,5.759,0,0,1,765.108,9301.882Zm0-10.316a4.563,4.563,0,1,0,4.563,4.564A4.57,4.57,0,0,0,765.108,9291.565Z" transform="translate(17.702 19.443)" fill="#c69c6d"/>
      <path id="Trazado_101688" data-name="Trazado 101688" d="M764.6,9301.736a5.752,5.752,0,1,1,5.752-5.753A5.759,5.759,0,0,1,764.6,9301.736Zm0-10.314a4.563,4.563,0,1,0,4.563,4.562A4.568,4.568,0,0,0,764.6,9291.422Z" transform="translate(17.606 19.415)" fill="#662d91"/>
      <path id="Trazado_101689" data-name="Trazado 101689" d="M763.831,9301.736a5.752,5.752,0,1,1,5.752-5.753A5.76,5.76,0,0,1,763.831,9301.736Zm0-10.314a4.563,4.563,0,1,0,4.563,4.562A4.568,4.568,0,0,0,763.831,9291.422Z" transform="translate(17.46 19.415)" fill="gray"/>
      <path id="Trazado_101690" data-name="Trazado 101690" d="M762.706,9301.736a5.752,5.752,0,1,1,5.752-5.753A5.76,5.76,0,0,1,762.706,9301.736Zm0-10.314a4.563,4.563,0,1,0,4.563,4.562A4.568,4.568,0,0,0,762.706,9291.422Z" transform="translate(17.248 19.415)" fill="#009245"/>
      <g id="Grupo_53981" data-name="Grupo 53981" transform="translate(838.927 9188.883)">
        <path id="Trazado_101691" data-name="Trazado 101691" d="M818.243,9195.025a4.478,4.478,0,0,1-.923,3.057,3.539,3.539,0,0,1-5.014,0,4.461,4.461,0,0,1-.926-3.057v-2.236a4.492,4.492,0,0,1,.923-3.056,3.516,3.516,0,0,1,5.01,0,4.475,4.475,0,0,1,.93,3.056Zm-2.028-2.447a3.335,3.335,0,0,0-.363-1.765,1.257,1.257,0,0,0-2.091,0,3.386,3.386,0,0,0-.354,1.768v2.639a3.389,3.389,0,0,0,.358,1.781,1.176,1.176,0,0,0,1.056.557,1.153,1.153,0,0,0,1.038-.557,3.415,3.415,0,0,0,.356-1.781Z" transform="translate(-811.38 -9188.685)"/>
        <path id="Trazado_101692" data-name="Trazado 101692" d="M820.586,9197.624h-2.035v-1.784h2.035Z" transform="translate(-810.023 -9187.331)"/>
        <path id="Trazado_101693" data-name="Trazado 101693" d="M828.732,9198.978h-6.926v-1.332l3.282-3.518a7.935,7.935,0,0,0,1.01-1.376,2.233,2.233,0,0,0,.3-1.043,1.564,1.564,0,0,0-.345-1.048,1.212,1.212,0,0,0-.979-.408,1.263,1.263,0,0,0-1.069.478,2.036,2.036,0,0,0-.366,1.27h-1.979l-.014-.038a3.066,3.066,0,0,1,.9-2.324,3.383,3.383,0,0,1,2.526-.953,3.525,3.525,0,0,1,2.463.816,2.8,2.8,0,0,1,.9,2.175,3.04,3.04,0,0,1-.505,1.7,16.788,16.788,0,0,1-1.669,2.039l-1.8,1.965.013.035h4.265Z" transform="translate(-809.438 -9188.685)"/>
        <path id="Trazado_101694" data-name="Trazado 101694" d="M828.911,9194.458l.585-5.651h5.658v1.633h-3.994l-.278,2.341a2.39,2.39,0,0,1,.675-.345,3.175,3.175,0,0,1,3.147.742,3.668,3.668,0,0,1,.8,2.521,3.477,3.477,0,0,1-.881,2.433,3.261,3.261,0,0,1-2.54.969,3.814,3.814,0,0,1-2.4-.767,2.424,2.424,0,0,1-.962-2.1l.014-.036,1.957-.1a1.422,1.422,0,0,0,.384,1.057,1.361,1.361,0,0,0,1,.378,1.172,1.172,0,0,0,1.049-.5,2.321,2.321,0,0,0,.338-1.317,2.442,2.442,0,0,0-.362-1.405,1.22,1.22,0,0,0-1.074-.53,1.564,1.564,0,0,0-.9.217,1.19,1.19,0,0,0-.442.586Z" transform="translate(-808.097 -9188.661)"/>
      </g>
      <g id="Grupo_53982" data-name="Grupo 53982" transform="translate(761.575 9187.643)">
        <path id="Trazado_101695" data-name="Trazado 101695" d="M753.2,9193.982a4.48,4.48,0,0,1-.923,3.057,3.539,3.539,0,0,1-5.014,0,4.462,4.462,0,0,1-.927-3.057v-2.236a4.488,4.488,0,0,1,.923-3.056,3.516,3.516,0,0,1,5.01,0,4.471,4.471,0,0,1,.93,3.056Zm-2.028-2.447a3.341,3.341,0,0,0-.363-1.766,1.257,1.257,0,0,0-2.091,0,3.383,3.383,0,0,0-.354,1.768v2.639a3.392,3.392,0,0,0,.358,1.781,1.176,1.176,0,0,0,1.056.557,1.153,1.153,0,0,0,1.038-.557,3.419,3.419,0,0,0,.356-1.781Z" transform="translate(-746.337 -9187.642)"/>
        <path id="Trazado_101696" data-name="Trazado 101696" d="M755.543,9196.581h-2.035V9194.8h2.035Z" transform="translate(-744.98 -9186.288)"/>
        <path id="Trazado_101697" data-name="Trazado 101697" d="M763.689,9197.935h-6.926V9196.6l3.282-3.519a7.86,7.86,0,0,0,1.01-1.376,2.228,2.228,0,0,0,.3-1.044,1.56,1.56,0,0,0-.345-1.046,1.21,1.21,0,0,0-.979-.408,1.265,1.265,0,0,0-1.069.477,2.041,2.041,0,0,0-.366,1.271h-1.979l-.014-.041a3.067,3.067,0,0,1,.9-2.322,3.386,3.386,0,0,1,2.526-.952,3.524,3.524,0,0,1,2.463.815,2.8,2.8,0,0,1,.9,2.175,3.044,3.044,0,0,1-.505,1.7,16.926,16.926,0,0,1-1.668,2.039l-1.8,1.964.013.035h4.265Z" transform="translate(-744.395 -9187.642)"/>
        <path id="Trazado_101698" data-name="Trazado 101698" d="M763.868,9193.415l.585-5.651h5.659v1.633h-3.994l-.278,2.34a2.41,2.41,0,0,1,.675-.344,3.174,3.174,0,0,1,3.147.742,3.664,3.664,0,0,1,.8,2.521,3.477,3.477,0,0,1-.881,2.433,3.261,3.261,0,0,1-2.54.969,3.814,3.814,0,0,1-2.4-.767,2.426,2.426,0,0,1-.962-2.1l.014-.036,1.958-.1a1.418,1.418,0,0,0,.384,1.057,1.364,1.364,0,0,0,1,.379,1.173,1.173,0,0,0,1.049-.5,2.325,2.325,0,0,0,.338-1.317,2.44,2.44,0,0,0-.362-1.405,1.216,1.216,0,0,0-1.074-.53,1.563,1.563,0,0,0-.9.217,1.192,1.192,0,0,0-.442.585Z" transform="translate(-743.054 -9187.618)"/>
      </g>
      <g id="Grupo_53983" data-name="Grupo 53983" transform="translate(698.286 9202.154)">
        <path id="Trazado_101699" data-name="Trazado 101699" d="M699.982,9206.185a4.472,4.472,0,0,1-.923,3.056,3.539,3.539,0,0,1-5.014,0,4.466,4.466,0,0,1-.926-3.056v-2.237a4.5,4.5,0,0,1,.923-3.057,3.521,3.521,0,0,1,5.01,0,4.473,4.473,0,0,1,.93,3.057Zm-2.028-2.448a3.328,3.328,0,0,0-.362-1.764,1.257,1.257,0,0,0-2.091,0,3.388,3.388,0,0,0-.356,1.769v2.638a3.378,3.378,0,0,0,.359,1.782,1.175,1.175,0,0,0,1.055.558,1.154,1.154,0,0,0,1.038-.558,3.406,3.406,0,0,0,.356-1.782Z" transform="translate(-693.119 -9199.844)"/>
        <path id="Trazado_101700" data-name="Trazado 101700" d="M702.326,9208.783h-2.035V9207h2.035Z" transform="translate(-691.762 -9198.491)"/>
        <path id="Trazado_101701" data-name="Trazado 101701" d="M710.471,9210.136h-6.926V9208.8l3.282-3.519a8,8,0,0,0,1.011-1.377,2.234,2.234,0,0,0,.3-1.042,1.562,1.562,0,0,0-.346-1.048,1.211,1.211,0,0,0-.979-.408,1.265,1.265,0,0,0-1.069.478,2.037,2.037,0,0,0-.366,1.271H703.4l-.014-.042a3.077,3.077,0,0,1,.9-2.325,3.391,3.391,0,0,1,2.526-.949,3.523,3.523,0,0,1,2.464.815,2.8,2.8,0,0,1,.894,2.173,3.055,3.055,0,0,1-.5,1.7,16.827,16.827,0,0,1-1.67,2.038l-1.8,1.965.013.036h4.265Z" transform="translate(-691.177 -9199.844)"/>
        <path id="Trazado_101702" data-name="Trazado 101702" d="M710.65,9205.619l.585-5.652h5.659v1.631H712.9l-.278,2.34a2.483,2.483,0,0,1,.675-.344,3.194,3.194,0,0,1,3.147.74,3.679,3.679,0,0,1,.805,2.525,3.463,3.463,0,0,1-.882,2.43,3.26,3.26,0,0,1-2.539.97,3.812,3.812,0,0,1-2.4-.767,2.424,2.424,0,0,1-.962-2.1l.014-.034,1.959-.1a1.42,1.42,0,0,0,.383,1.056,1.366,1.366,0,0,0,1,.38,1.172,1.172,0,0,0,1.048-.5,2.33,2.33,0,0,0,.339-1.318,2.446,2.446,0,0,0-.363-1.405,1.219,1.219,0,0,0-1.073-.53,1.555,1.555,0,0,0-.9.219,1.171,1.171,0,0,0-.442.584Z" transform="translate(-689.836 -9199.821)"/>
      </g>
      <g id="Grupo_53984" data-name="Grupo 53984" transform="translate(701.64 9687.856)">
        <path id="Trazado_101703" data-name="Trazado 101703" d="M702.8,9614.6a4.471,4.471,0,0,1-.924,3.055,3.539,3.539,0,0,1-5.014,0,4.465,4.465,0,0,1-.926-3.055v-2.238a4.488,4.488,0,0,1,.923-3.055,3.516,3.516,0,0,1,5.01,0,4.459,4.459,0,0,1,.931,3.055Zm-2.028-2.449a3.333,3.333,0,0,0-.363-1.765,1.257,1.257,0,0,0-2.091,0,3.381,3.381,0,0,0-.356,1.768v2.639a3.4,3.4,0,0,0,.359,1.781,1.177,1.177,0,0,0,1.056.558,1.159,1.159,0,0,0,1.038-.558,3.422,3.422,0,0,0,.356-1.781Z" transform="translate(-695.939 -9608.257)"/>
        <path id="Trazado_101704" data-name="Trazado 101704" d="M705.146,9617.194h-2.035v-1.783h2.035Z" transform="translate(-694.582 -9606.903)"/>
        <path id="Trazado_101705" data-name="Trazado 101705" d="M713.292,9618.549h-6.926v-1.331l3.281-3.519a7.89,7.89,0,0,0,1.011-1.377,2.231,2.231,0,0,0,.3-1.042,1.568,1.568,0,0,0-.345-1.048,1.211,1.211,0,0,0-.979-.408,1.272,1.272,0,0,0-1.07.476,2.047,2.047,0,0,0-.365,1.273h-1.98l-.013-.042a3.065,3.065,0,0,1,.9-2.324,3.389,3.389,0,0,1,2.526-.95,3.53,3.53,0,0,1,2.463.814,2.8,2.8,0,0,1,.9,2.176,3.057,3.057,0,0,1-.505,1.7,16.722,16.722,0,0,1-1.668,2.037l-1.805,1.966.014.035h4.265Z" transform="translate(-693.996 -9608.257)"/>
        <path id="Trazado_101706" data-name="Trazado 101706" d="M713.47,9614.03l.585-5.651h5.659v1.632h-3.992l-.279,2.341a2.412,2.412,0,0,1,.677-.345,2.79,2.79,0,0,1,.878-.145,2.823,2.823,0,0,1,2.268.886,3.667,3.667,0,0,1,.805,2.523,3.476,3.476,0,0,1-.881,2.432,3.261,3.261,0,0,1-2.54.969,3.814,3.814,0,0,1-2.4-.768,2.421,2.421,0,0,1-.961-2.1l.013-.034,1.959-.1a1.423,1.423,0,0,0,.383,1.057,1.365,1.365,0,0,0,1,.379,1.176,1.176,0,0,0,1.049-.5,2.336,2.336,0,0,0,.338-1.319,2.442,2.442,0,0,0-.363-1.4,1.217,1.217,0,0,0-1.073-.53,1.564,1.564,0,0,0-.9.217,1.176,1.176,0,0,0-.442.586Z" transform="translate(-692.656 -9608.233)"/>
      </g>
      <g id="Grupo_53985" data-name="Grupo 53985" transform="translate(856.656 9689.097)">
        <path id="Trazado_101707" data-name="Trazado 101707" d="M833.151,9615.642a4.477,4.477,0,0,1-.923,3.055,3.537,3.537,0,0,1-5.014,0,4.465,4.465,0,0,1-.926-3.055V9613.4a4.5,4.5,0,0,1,.923-3.057,3.518,3.518,0,0,1,5.01,0,4.471,4.471,0,0,1,.93,3.057Zm-2.028-2.449a3.314,3.314,0,0,0-.363-1.764,1.255,1.255,0,0,0-2.089,0,3.372,3.372,0,0,0-.356,1.768v2.639a3.39,3.39,0,0,0,.359,1.782,1.178,1.178,0,0,0,1.055.557,1.157,1.157,0,0,0,1.038-.557,3.417,3.417,0,0,0,.356-1.782Z" transform="translate(-826.288 -9609.3)"/>
        <path id="Trazado_101708" data-name="Trazado 101708" d="M835.495,9618.238H833.46v-1.785h2.035Z" transform="translate(-824.931 -9607.945)"/>
        <path id="Trazado_101709" data-name="Trazado 101709" d="M843.64,9619.592h-6.926v-1.331l3.282-3.518a7.989,7.989,0,0,0,1.011-1.378,2.241,2.241,0,0,0,.3-1.041,1.564,1.564,0,0,0-.345-1.049,1.214,1.214,0,0,0-.979-.408,1.267,1.267,0,0,0-1.069.478,2.039,2.039,0,0,0-.366,1.272h-1.979l-.014-.042a3.075,3.075,0,0,1,.9-2.325,3.392,3.392,0,0,1,2.526-.95,3.518,3.518,0,0,1,2.463.816,2.793,2.793,0,0,1,.9,2.174,3.054,3.054,0,0,1-.5,1.7,16.827,16.827,0,0,1-1.67,2.038l-1.8,1.965.013.035h4.265Z" transform="translate(-824.346 -9609.3)"/>
        <path id="Trazado_101710" data-name="Trazado 101710" d="M843.819,9615.073l.585-5.651h5.658v1.632h-3.993l-.278,2.341a2.457,2.457,0,0,1,.675-.345,2.89,2.89,0,0,1,.879-.145,2.823,2.823,0,0,1,2.268.886,3.668,3.668,0,0,1,.805,2.523,3.477,3.477,0,0,1-.882,2.432,3.26,3.26,0,0,1-2.539.97,3.813,3.813,0,0,1-2.4-.769,2.421,2.421,0,0,1-.962-2.1l.014-.035,1.959-.1a1.419,1.419,0,0,0,.383,1.056,1.365,1.365,0,0,0,1,.379,1.172,1.172,0,0,0,1.048-.5,2.325,2.325,0,0,0,.339-1.319,2.442,2.442,0,0,0-.363-1.4,1.219,1.219,0,0,0-1.073-.53,1.55,1.55,0,0,0-.9.218,1.173,1.173,0,0,0-.442.585Z" transform="translate(-823.005 -9609.276)"/>
      </g>
      <g id="Grupo_53986" data-name="Grupo 53986" transform="translate(817.772 9235.06)">
        <path id="Trazado_101711" data-name="Trazado 101711" d="M800.455,9233.856a4.478,4.478,0,0,1-.923,3.055,3.537,3.537,0,0,1-5.014,0,4.46,4.46,0,0,1-.928-3.055v-2.238a4.484,4.484,0,0,1,.924-3.055,3.514,3.514,0,0,1,5.01,0,4.467,4.467,0,0,1,.93,3.055Zm-2.028-2.449a3.329,3.329,0,0,0-.363-1.764,1.257,1.257,0,0,0-2.091,0,3.379,3.379,0,0,0-.354,1.767v2.64a3.4,3.4,0,0,0,.358,1.782,1.179,1.179,0,0,0,1.056.555,1.157,1.157,0,0,0,1.038-.555,3.424,3.424,0,0,0,.356-1.782Z" transform="translate(-793.591 -9227.514)"/>
        <path id="Trazado_101712" data-name="Trazado 101712" d="M802.8,9236.452h-2.035v-1.784H802.8Z" transform="translate(-792.234 -9226.159)"/>
        <path id="Trazado_101713" data-name="Trazado 101713" d="M804.238,9233.288l.585-5.65h5.658v1.63h-3.994l-.278,2.341a2.486,2.486,0,0,1,.675-.345,2.891,2.891,0,0,1,.879-.143,2.819,2.819,0,0,1,2.268.885,3.671,3.671,0,0,1,.8,2.521,3.474,3.474,0,0,1-.881,2.432,3.254,3.254,0,0,1-2.539.97,3.811,3.811,0,0,1-2.4-.767,2.422,2.422,0,0,1-.962-2.1l.014-.035,1.959-.1a1.419,1.419,0,0,0,.383,1.058,1.361,1.361,0,0,0,1,.379,1.17,1.17,0,0,0,1.048-.5,2.32,2.32,0,0,0,.339-1.317,2.444,2.444,0,0,0-.363-1.405,1.217,1.217,0,0,0-1.073-.527,1.551,1.551,0,0,0-.9.215,1.18,1.18,0,0,0-.442.586Z" transform="translate(-791.611 -9227.491)"/>
      </g>
      <g id="Grupo_53987" data-name="Grupo 53987" transform="translate(825.218 9309.534)">
        <path id="Trazado_101714" data-name="Trazado 101714" d="M806.716,9296.479a4.469,4.469,0,0,1-.924,3.055,3.535,3.535,0,0,1-5.013,0,4.458,4.458,0,0,1-.928-3.055v-2.238a4.492,4.492,0,0,1,.924-3.056,3.519,3.519,0,0,1,5.009,0,4.469,4.469,0,0,1,.931,3.056Zm-2.028-2.449a3.329,3.329,0,0,0-.363-1.764,1.257,1.257,0,0,0-2.091,0,3.379,3.379,0,0,0-.356,1.767v2.64a3.39,3.39,0,0,0,.359,1.781,1.177,1.177,0,0,0,1.056.558,1.156,1.156,0,0,0,1.038-.558,3.419,3.419,0,0,0,.356-1.781Z" transform="translate(-799.852 -9290.139)"/>
        <path id="Trazado_101715" data-name="Trazado 101715" d="M809.059,9299.075h-2.035v-1.784h2.035Z" transform="translate(-798.495 -9288.783)"/>
        <path id="Trazado_101716" data-name="Trazado 101716" d="M810.5,9295.912l.586-5.651h5.657v1.63h-3.992l-.278,2.341a2.5,2.5,0,0,1,.675-.345,2.859,2.859,0,0,1,.878-.142,2.817,2.817,0,0,1,2.268.883,3.671,3.671,0,0,1,.805,2.524,3.473,3.473,0,0,1-.881,2.431,3.261,3.261,0,0,1-2.54.97,3.814,3.814,0,0,1-2.4-.767,2.425,2.425,0,0,1-.962-2.105l.014-.033,1.958-.1a1.423,1.423,0,0,0,.384,1.058,1.362,1.362,0,0,0,1,.379,1.173,1.173,0,0,0,1.049-.5,2.324,2.324,0,0,0,.338-1.318,2.443,2.443,0,0,0-.362-1.4,1.22,1.22,0,0,0-1.074-.528,1.556,1.556,0,0,0-.9.216,1.184,1.184,0,0,0-.442.586Z" transform="translate(-797.872 -9290.115)"/>
      </g>
      <g id="Grupo_53988" data-name="Grupo 53988" transform="translate(759.523 9338.117)">
        <path id="Trazado_101717" data-name="Trazado 101717" d="M755.848,9494.607v7.891h7.826v3.777H744.84v-12.986h2.91v9.209h5.187v-7.891Z" transform="translate(-744.568 -9280.276)"/>
        <path id="Trazado_101718" data-name="Trazado 101718" d="M759.612,9485.44v6.61l4.063,1.279v3.817l-18.834-6.481V9486.8l18.834-6.455v3.817Zm-2.961,5.68v-4.748l-7.4,2.328v.076Z" transform="translate(-744.568 -9282.726)"/>
        <path id="Trazado_101719" data-name="Trazado 101719" d="M760.764,9477.019v-8.381h2.91v12.16H744.84v-3.779Z" transform="translate(-744.568 -9284.94)"/>
        <path id="Trazado_101720" data-name="Trazado 101720" d="M763.674,9469.1H744.84v-6.466a7.775,7.775,0,0,1,2.2-5.693,7.6,7.6,0,0,1,5.66-2.238h3.118a7.582,7.582,0,0,1,5.66,2.238,7.8,7.8,0,0,1,2.192,5.693Zm-15.924-3.776h13.014v-2.5a3.934,3.934,0,0,0-1.37-3.184,5.383,5.383,0,0,0-3.58-1.151h-3.141a5.341,5.341,0,0,0-3.554,1.151,3.935,3.935,0,0,0-1.37,3.184Z" transform="translate(-744.568 -9287.576)"/>
        <path id="Trazado_101721" data-name="Trazado 101721" d="M759.612,9444.789v6.612l4.063,1.279v3.816l-18.834-6.48v-3.868l18.834-6.455v3.816Zm-2.961,5.681v-4.748l-7.4,2.328v.076Z" transform="translate(-744.568 -9290.418)"/>
        <path id="Trazado_101722" data-name="Trazado 101722" d="M756.844,9431.19h6.83v3.778H744.84v-7.5a7.419,7.419,0,0,1,1.654-5.11,6.019,6.019,0,0,1,8.706,0,7.456,7.456,0,0,1,1.644,5.11Zm-2.911,0v-3.725a3.143,3.143,0,0,0-.86-2.394,3.062,3.062,0,0,0-2.193-.815,3.2,3.2,0,0,0-2.244.81,3.084,3.084,0,0,0-.886,2.4v3.725Z" transform="translate(-744.568 -9294.051)"/>
        <path id="Trazado_101723" data-name="Trazado 101723" d="M755.994,9405.413a7.906,7.906,0,0,1,5.732,2.193,7.585,7.585,0,0,1,2.263,5.7,7.485,7.485,0,0,1-2.263,5.653,7.947,7.947,0,0,1-5.732,2.173h-3.388a7.957,7.957,0,0,1-5.725-2.167,7.447,7.447,0,0,1-2.27-5.647,7.59,7.59,0,0,1,2.27-5.7,7.9,7.9,0,0,1,5.725-2.2Zm-3.4,3.778a5.731,5.731,0,0,0-3.617,1.1,3.627,3.627,0,0,0-1.414,3.026,3.526,3.526,0,0,0,1.407,2.99,5.858,5.858,0,0,0,3.624,1.062h3.422a5.874,5.874,0,0,0,3.654-1.074,3.541,3.541,0,0,0,1.414-2.989,3.6,3.6,0,0,0-1.414-3.026,5.83,5.83,0,0,0-3.654-1.087Z" transform="translate(-744.611 -9296.903)"/>
        <path id="Trazado_101724" data-name="Trazado 101724" d="M758.8,9394.988a2.182,2.182,0,0,0-1.747.77,7.785,7.785,0,0,0-1.242,2.7,15.385,15.385,0,0,1-2.3,5.084,4.362,4.362,0,0,1-3.647,1.721,4.52,4.52,0,0,1-3.784-1.973,8.213,8.213,0,0,1-1.468-5.038,7.578,7.578,0,0,1,1.649-5.061,4.942,4.942,0,0,1,4.068-1.888l.077.023v3.665a2.747,2.747,0,0,0-2.114.872,3.474,3.474,0,0,0-.809,2.451,3.634,3.634,0,0,0,.672,2.342,2.121,2.121,0,0,0,1.721.828,1.848,1.848,0,0,0,1.572-.887,12.264,12.264,0,0,0,1.3-3.06,11.9,11.9,0,0,1,2.29-4.724,4.763,4.763,0,0,1,3.738-1.6,4.475,4.475,0,0,1,3.816,1.908,8.335,8.335,0,0,1,1.4,5.038,9.2,9.2,0,0,1-1.585,5.37,4.944,4.944,0,0,1-4.443,2.222l-.078-.023v-3.674a2.893,2.893,0,0,0,2.464-1.029,4.628,4.628,0,0,0,.784-2.865,3.761,3.761,0,0,0-.635-2.354A2.032,2.032,0,0,0,758.8,9394.988Z" transform="translate(-744.611 -9299.595)"/>
        <path id="Trazado_101725" data-name="Trazado 101725" d="M747.75,9377.862v5.329h15.924v3.775H747.75v5.306h-2.91v-14.41Z" transform="translate(-744.568 -9302.12)"/>
        <path id="Trazado_101726" data-name="Trazado 101726" d="M755.395,9366.563v7.8h5.369v-9.12h2.91v12.9H744.84v-12.871h2.91v9.094h4.734v-7.8Z" transform="translate(-744.568 -9304.505)"/>
        <path id="Trazado_101727" data-name="Trazado 101727" d="M756.145,9361.909h7.529v3.778H744.84v-7.1a7.814,7.814,0,0,1,1.467-5.04,4.97,4.97,0,0,1,4.093-1.819,4.151,4.151,0,0,1,2.51.764,5.367,5.367,0,0,1,1.695,2.239,4.057,4.057,0,0,1,1.642-2.4,5.214,5.214,0,0,1,2.847-.729h1.384a6.9,6.9,0,0,0,1.649-.216,2.258,2.258,0,0,0,1.274-.729h.271v3.893a2.117,2.117,0,0,1-1.384.673,11.518,11.518,0,0,1-1.837.154H759.12a2.989,2.989,0,0,0-2.192.771,2.9,2.9,0,0,0-.784,2.167Zm-2.91,0v-3.259a3.576,3.576,0,0,0-.672-2.375,2.491,2.491,0,0,0-1.993-.781,2.751,2.751,0,0,0-2.057.781,3.2,3.2,0,0,0-.762,2.312v3.322Z" transform="translate(-744.568 -9307.268)"/>
        <path id="Trazado_101728" data-name="Trazado 101728" d="M763.674,9345.194v3.778H744.84v-3.778Z" transform="translate(-744.568 -9308.301)"/>
        <path id="Trazado_101729" data-name="Trazado 101729" d="M755.994,9329.291a7.912,7.912,0,0,1,5.732,2.191,7.591,7.591,0,0,1,2.263,5.7,7.488,7.488,0,0,1-2.263,5.653,7.948,7.948,0,0,1-5.732,2.174h-3.388a7.955,7.955,0,0,1-5.725-2.169,7.444,7.444,0,0,1-2.27-5.646,7.588,7.588,0,0,1,2.27-5.705,7.9,7.9,0,0,1,5.725-2.2Zm-3.4,3.778a5.719,5.719,0,0,0-3.617,1.1,3.627,3.627,0,0,0-1.414,3.027,3.523,3.523,0,0,0,1.407,2.987,5.852,5.852,0,0,0,3.624,1.062h3.422a5.874,5.874,0,0,0,3.654-1.073,3.542,3.542,0,0,0,1.414-2.988,3.6,3.6,0,0,0-1.414-3.027,5.824,5.824,0,0,0-3.654-1.086Z" transform="translate(-744.611 -9311.31)"/>
        <path id="Trazado_101730" data-name="Trazado 101730" d="M756.145,9325.426h7.529v3.776H744.84v-7.1a7.816,7.816,0,0,1,1.467-5.04,4.973,4.973,0,0,1,4.093-1.816,4.15,4.15,0,0,1,2.51.762,5.348,5.348,0,0,1,1.695,2.239,4.052,4.052,0,0,1,1.642-2.4,5.206,5.206,0,0,1,2.847-.732h1.384a6.889,6.889,0,0,0,1.649-.213,2.276,2.276,0,0,0,1.274-.73h.271v3.893a2.131,2.131,0,0,1-1.384.675,11.857,11.857,0,0,1-1.837.152H759.12a2.989,2.989,0,0,0-2.192.771,2.9,2.9,0,0,0-.784,2.168Zm-2.91,0v-3.262a3.563,3.563,0,0,0-.672-2.371,2.482,2.482,0,0,0-1.993-.783,2.741,2.741,0,0,0-2.057.783,3.184,3.184,0,0,0-.762,2.309v3.324Z" transform="translate(-744.568 -9314.172)"/>
      </g>
      <g id="Grupo_53989" data-name="Grupo 53989" transform="translate(665.815 9251.378)">
        <path id="Trazado_101731" data-name="Trazado 101731" d="M672.679,9247.576a4.468,4.468,0,0,1-.924,3.056,3.539,3.539,0,0,1-5.014,0,4.463,4.463,0,0,1-.926-3.056v-2.238a4.5,4.5,0,0,1,.923-3.055,3.521,3.521,0,0,1,5.01,0,4.466,4.466,0,0,1,.931,3.055Zm-2.028-2.448a3.327,3.327,0,0,0-.363-1.764,1.256,1.256,0,0,0-2.091,0,3.376,3.376,0,0,0-.356,1.767v2.638a3.382,3.382,0,0,0,.359,1.781,1.174,1.174,0,0,0,1.056.559,1.155,1.155,0,0,0,1.038-.559,3.411,3.411,0,0,0,.356-1.781Z" transform="translate(-665.815 -9241.236)"/>
      </g>
      <g id="Grupo_53990" data-name="Grupo 53990" transform="translate(665.815 9640.019)">
        <path id="Trazado_101732" data-name="Trazado 101732" d="M672.679,9574.373a4.469,4.469,0,0,1-.924,3.054,3.539,3.539,0,0,1-5.014,0,4.464,4.464,0,0,1-.926-3.054v-2.236a4.5,4.5,0,0,1,.923-3.057,3.514,3.514,0,0,1,5.01,0,4.467,4.467,0,0,1,.931,3.057Zm-2.028-2.449a3.333,3.333,0,0,0-.363-1.765,1.255,1.255,0,0,0-2.091,0,3.394,3.394,0,0,0-.356,1.769v2.638a3.4,3.4,0,0,0,.359,1.783,1.174,1.174,0,0,0,1.056.557,1.156,1.156,0,0,0,1.038-.557,3.426,3.426,0,0,0,.356-1.783Z" transform="translate(-665.815 -9568.03)"/>
      </g>
      <g id="Grupo_53991" data-name="Grupo 53991" transform="translate(892.818 9235.997)">
        <path id="Trazado_101733" data-name="Trazado 101733" d="M860.792,9238.447h-2.035V9230.1h-2.062v-1.437l4.1-.361Z" transform="translate(-856.695 -9228.302)"/>
      </g>
      <g id="Grupo_53992" data-name="Grupo 53992" transform="translate(931.7 9365.265)">
        <path id="Trazado_101734" data-name="Trazado 101734" d="M893.488,9347.145h-2.035V9338.8H889.39v-1.437l4.1-.361Z" transform="translate(-889.39 -9337)"/>
      </g>
      <g id="Grupo_53993" data-name="Grupo 53993" transform="translate(909.468 9642.301)">
        <path id="Trazado_101735" data-name="Trazado 101735" d="M874.793,9580.1h-2.035v-8.349H870.7v-1.435l4.1-.363Z" transform="translate(-870.696 -9569.949)"/>
      </g>
      <path id="Trazado_101736" data-name="Trazado 101736" d="M768.669,9552.371a1.266,1.266,0,0,1-.26-.03,1.188,1.188,0,0,1-.929-1.159V9310.746a1.189,1.189,0,1,1,2.379,0v235.122l3.73-7.913a1.188,1.188,0,1,1,2.15,1.012l-5.994,12.721A1.187,1.187,0,0,1,768.669,9552.371Z" transform="translate(19.24 23.073)"/>
    </g>
  </g>
</svg>
