<svg xmlns="http://www.w3.org/2000/svg" width="290.689" height="356.007" viewBox="0 0 290.689 356.007">
  <g id="Grupo_54100" data-name="Grupo 54100" transform="translate(-435.997 -315.792)">
    <g id="Grupo_54080" data-name="Grupo 54080">
      <path id="Trazado_102309" data-name="Trazado 102309" d="M631.707,544.723H529.74V418.9H631.707Zm-101.217-.75H630.957V419.65H530.49Z" fill="#b3b3b3"/>
      <rect id="Rect치ngulo_5305" data-name="Rect치ngulo 5305" width="0.75" height="125.073" transform="translate(592.088 419.275)" fill="#b3b3b3"/>
      <rect id="Rect치ngulo_5306" data-name="Rect치ngulo 5306" width="0.75" height="125.073" transform="translate(568.87 419.275)" fill="#b3b3b3"/>
    </g>
    <g id="Grupo_54081" data-name="Grupo 54081">
      <path id="Trazado_102310" data-name="Trazado 102310" d="M724.94,632.342c-.592-2.131-2.235-5.468-2.484-8.089-.424-4.444-2.581-11.993-3-22.079l-.652.13c-.608-5.686-1.509-14.475-2.562-25.913-1.956-21.261-7.26-44.913-7.26-44.913a57.964,57.964,0,0,1-2.522-14.608c-.261-7.827-2-24.7-2-24.7l-3.044-20.783s-1.565-3.913-2.521-14.087-1.74-15.13-7.913-22.434-24.261-3.653-24.261-3.653L676.2,483l7.174,32.348s2.739,4.826,3.913,21.978,9.2,44.579,9.2,44.579,9.266,27.351,11.246,31.595c1.726,7.291,2.424,12.457,1.189,15.665-.315.819-4.739,9.162-4.94,14.231a22.527,22.527,0,0,1-.781,5.657,23.531,23.531,0,0,1-1.464,4.311c-.972,1.991-1.432,4.137.473,4.842,5.554,2.056,6.886-5.295,7.071-8.092s.273-2.871,1.186-3.385c1.429-.8,1.991,1.882,1.989,2.752a44.932,44.932,0,0,1-.453,7.224c-.474,2.481-1.8,3.915-3.714,5.7-1.41,1.318-3.138,2.4-4.249,3.985-.688.985-1.713,4.662.513,4.736.977.033,4.67-2.435,6.691-2.687s9.561-5.017,11.01-6.681c.7-.8,2.643-10.032,3.7-17.392A30.159,30.159,0,0,0,724.94,632.342Z" fill="#a7a9ac"/>
      <path id="Trazado_102311" data-name="Trazado 102311" d="M704.574,671.631h-.035a1.722,1.722,0,0,1-1.576-.966c-.679-1.357.087-3.721.67-4.556a14.736,14.736,0,0,1,2.875-2.831c.493-.4.985-.8,1.442-1.234,1.8-1.685,3.113-3.061,3.565-5.431a42.081,42.081,0,0,0,.444-7.133c0-.64-.323-2.055-.837-2.356-.053-.031-.163-.1-.407.041-.734.414-.763.43-.932,2.983-.069,1.046-.561,6.357-3.487,8.254a4.568,4.568,0,0,1-4.257.274,2.358,2.358,0,0,1-1.451-1.344c-.4-1-.165-2.409.7-4.187a13.926,13.926,0,0,0,1.079-2.988c.106-.407.211-.81.361-1.26a21.81,21.81,0,0,0,.754-5.519c.174-4.376,3.367-11.023,4.569-13.525.212-.441.357-.743.405-.866,1.066-2.77.72-7.211-1.2-15.322-2.013-4.365-10.868-30.484-11.245-31.6-.087-.295-8.063-27.7-9.227-44.706-1.146-16.76-3.823-21.719-3.85-21.767l-.052-.137-7.174-32.348-9.57-52.283.481-.1c.75-.15,18.448-3.625,24.741,3.82,6.351,7.513,7.086,12.672,8.03,22.711.935,9.953,2.472,13.91,2.488,13.948l.03.113,3.044,20.782c.02.19,1.746,17,2.005,24.752a57.987,57.987,0,0,0,2.5,14.467c.066.286,5.348,23.976,7.284,45.026,1.034,11.232,1.923,19.91,2.5,25.36l.688-.137.024.584a110.508,110.508,0,0,0,2.078,16.345c.412,2.23.769,4.157.917,5.707a23.219,23.219,0,0,0,1.561,5.389c.358.953.7,1.854.907,2.614a30.744,30.744,0,0,1,1.025,12.233c-.914,6.393-2.917,16.62-3.813,17.649-1.43,1.643-9.037,6.563-11.325,6.849a15.839,15.839,0,0,0-3.935,1.58A8.48,8.48,0,0,1,704.574,671.631Zm6.4-25.553a1.283,1.283,0,0,1,.653.182c1.1.644,1.332,2.738,1.331,3.221a42.879,42.879,0,0,1-.462,7.318c-.509,2.663-1.985,4.218-3.863,5.975-.474.443-.983.859-1.492,1.277a13.739,13.739,0,0,0-2.689,2.63c-.46.657-1.04,2.647-.6,3.536a.737.737,0,0,0,.715.414,11.915,11.915,0,0,0,2.356-1.007,15.982,15.982,0,0,1,4.257-1.677c1.88-.235,9.267-4.873,10.7-6.514.578-.748,2.49-9.523,3.577-17.134a29.739,29.739,0,0,0-1-11.823c-.2-.718-.53-1.6-.88-2.531a23.9,23.9,0,0,1-1.621-5.645c-.144-1.506-.5-3.413-.9-5.62a113.276,113.276,0,0,1-2.069-15.9l-.616.124-.058-.545c-.58-5.41-1.495-14.3-2.564-25.92-1.931-20.984-7.2-44.613-7.251-44.849a58.943,58.943,0,0,1-2.533-14.7c-.257-7.719-1.981-24.493-2-24.661l-3.033-20.706c-.2-.538-1.631-4.574-2.534-14.168-.922-9.828-1.64-14.875-7.8-22.159-5.361-6.342-20.407-4.078-23.3-3.572l9.388,51.29,7.156,32.262c.352.676,2.831,5.94,3.938,22.12,1.156,16.9,9.1,44.2,9.182,44.473.087.253,9.273,27.353,11.219,31.523l.034.1c1.977,8.356,2.316,12.98,1.169,15.96-.052.134-.208.462-.438.94-1.178,2.451-4.3,8.963-4.47,13.131a22.436,22.436,0,0,1-.8,5.794c-.142.428-.241.812-.343,1.2a14.954,14.954,0,0,1-1.148,3.175c-.727,1.492-.959,2.659-.671,3.376a1.373,1.373,0,0,0,.87.779,3.579,3.579,0,0,0,3.365-.176c1.958-1.27,2.858-4.823,3.033-7.481.182-2.742.251-3.118,1.439-3.788A1.516,1.516,0,0,1,710.975,646.078Z" fill="#666"/>
    </g>
    <g id="Grupo_54082" data-name="Grupo 54082">
      <path id="Trazado_102312" data-name="Trazado 102312" d="M478.2,654.522V618l29.217,2.609,16.3,7.957,3.109,5.478-2.065,20.478Z" fill="#e6e7e8"/>
      <path id="Trazado_102313" data-name="Trazado 102313" d="M525.106,654.9H477.827V617.59l29.756,2.682,16.409,8.007,3.226,5.683Zm-46.529-.75h45.852l2.019-20.023-2.993-5.273-16.139-7.875-28.739-2.566Z" fill="gray"/>
    </g>
    <g id="Grupo_54083" data-name="Grupo 54083">
      <path id="Trazado_102314" data-name="Trazado 102314" d="M577.072,654.522,575.463,618l-26.848,2.609-16.3,7.957L528.376,634l2.891,20.522Z" fill="#e6e7e8"/>
      <path id="Trazado_102315" data-name="Trazado 102315" d="M577.463,654.9H530.941L527.983,633.9l4.163-5.674,16.433-7.992,27.241-2.648Zm-45.869-.75H576.68L575.1,618.411l-26.386,2.564-16.159,7.886-3.791,5.237Z" fill="gray"/>
    </g>
    <g id="Grupo_54084" data-name="Grupo 54084">
      <path id="Trazado_102316" data-name="Trazado 102316" d="M582.55,654.532l.783-30.88,25.087-.609L622.276,631l2.642,5.478-1.581,18.449Z" fill="#e6e7e8"/>
      <path id="Trazado_102317" data-name="Trazado 102317" d="M623.681,655.306l-41.516-.4.8-31.617,25.549-.62,14.048,8.066,2.738,5.676Zm-40.746-1.145,40.058.388,1.542-18-2.546-5.282-13.666-7.846-24.625.6Z" fill="gray"/>
    </g>
    <g id="Grupo_54085" data-name="Grupo 54085">
      <path id="Trazado_102318" data-name="Trazado 102318" d="M683.6,654.927l-1.352-31.275-24.208-.609L643.393,631l-3.534,5.435,2.6,18.492Z" fill="#e6e7e8"/>
      <path id="Trazado_102319" data-name="Trazado 102319" d="M683.989,655.3H642.13l-2.662-18.954,3.746-5.677,14.732-8.005,24.659.62Zm-41.207-.75h40.424l-1.32-30.534-23.758-.6-14.473,7.864-3.406,5.237Z" fill="gray"/>
    </g>
    <g id="Grupo_54086" data-name="Grupo 54086">
      <path id="Trazado_102320" data-name="Trazado 102320" d="M550.332,348.848s5.74-1.891,5.674,4.174-.326,8.869-4.76,14.608l-1.174-19.061" fill="#e6e7e8"/>
      <path id="Trazado_102321" data-name="Trazado 102321" d="M550.932,368.648,549.7,348.592l.539-.034-.021-.066c.111-.037,2.748-.883,4.564.445,1.084.792,1.623,2.168,1.6,4.089-.066,6.028-.286,8.941-4.84,14.834Zm-.447-19.455,1.072,17.4c3.818-5.176,4.014-8.007,4.075-13.578.017-1.663-.417-2.832-1.293-3.474C552.94,348.518,550.792,349.1,550.485,349.193Z" fill="gray"/>
    </g>
    <g id="Grupo_54087" data-name="Grupo 54087">
      <path id="Trazado_102322" data-name="Trazado 102322" d="M504.084,348.848s-5.739-1.891-5.674,4.174.326,8.869,4.761,14.608l1.174-19.061" fill="#e6e7e8"/>
      <path id="Trazado_102323" data-name="Trazado 102323" d="M503.484,368.649l-.61-.789c-4.553-5.893-4.773-8.806-4.839-14.834-.02-1.921.519-3.3,1.6-4.089,1.816-1.328,4.453-.482,4.564-.445l-.021.066.539.034Zm-1.29-19.7a3.559,3.559,0,0,0-2.117.6c-.875.642-1.309,1.811-1.292,3.474.061,5.571.256,8.4,4.074,13.578l1.072-17.4A6.509,6.509,0,0,0,502.194,348.945Z" fill="gray"/>
    </g>
    <g id="Grupo_54088" data-name="Grupo 54088">
      <path id="Trazado_102324" data-name="Trazado 102324" d="M490.072,425.478s-10.7-1.7-18.913,4.957-9.261,27.522-9.261,27.522l-4.566,34.173-1.565,17.087v9.131L453.419,528s-5.087,13.435-6.913,40.826l-3.13,30.783-1.957,15.652-3.13,17.087s-1.826,7.854-1.565,9.6-1.435,9.181,1.7,17.268l3.87,8.087s1.913,4.957,4.7,3.826,7.913-4,7.913-4,2-1.913.087-6.608-1.913-12.174-1.913-12.174L454.115,632a115.889,115.889,0,0,0-.348-12c-.521-5.217,1.392-13.217,1.392-13.217l11.13-33.74s6.783-21.391,8-38.086a129.539,129.539,0,0,1,5.739-29.74l5.739-15.3Z" fill="#a7a9ac"/>
      <path id="Trazado_102325" data-name="Trazado 102325" d="M446.158,671.8a2.688,2.688,0,0,1-1.074-.231c-2-.865-3.211-3.952-3.262-4.083l-3.854-8.052a34.526,34.526,0,0,1-1.8-15.307,13.759,13.759,0,0,0,.065-2.1c-.268-1.79,1.383-8.975,1.572-9.788l3.125-17.064,1.953-15.624,3.13-30.772c1.807-27.134,6.89-40.817,6.941-40.952l2.317-9.535v-9.071l1.566-17.132L461.4,457.89c.039-.82,1.147-21.128,9.442-27.844s18.861-5.133,19.3-5.061l.452.071-4.366,65.033-5.739,15.3a130.361,130.361,0,0,0-5.708,29.6c-1.208,16.563-7.954,37.987-8.022,38.2l-11.133,33.745c-.007.039-1.876,7.939-1.368,13.011a117.534,117.534,0,0,1,.35,12.063L453.57,648.38c0,.042.024,7.4,1.877,11.953,2.019,4.953-.112,7.071-.2,7.159l-.1.075c-.211.117-5.19,2.9-7.969,4.027A2.7,2.7,0,0,1,446.158,671.8Zm40.821-246.005c-3.713,0-10.179.717-15.506,5.03-7.949,6.434-9.066,26.951-9.077,27.157L457.827,492.2l-1.561,17.066,0,9.145-.015.058-2.349,9.652c-.068.193-5.1,13.758-6.9,40.741l-3.133,30.8-1.958,15.663-3.134,17.115c-.507,2.182-1.765,8.082-1.563,9.437a13.226,13.226,0,0,1-.055,2.32c-.212,3.084-.606,8.825,1.722,14.841l3.855,8.053c.027.063,1.127,2.864,2.742,3.562a1.621,1.621,0,0,0,1.314.016c2.553-1.037,7.181-3.6,7.791-3.936.243-.279,1.556-2.042-.066-6.021-1.927-4.732-1.95-12.052-1.95-12.362l1.045-16.38a116.629,116.629,0,0,0-.345-11.918c-.526-5.242,1.322-13.054,1.4-13.384l11.142-33.779c.066-.208,6.777-21.523,7.976-37.967a131.365,131.365,0,0,1,5.766-29.866l5.717-15.248,4.268-63.889A25.215,25.215,0,0,0,486.979,425.794Z" fill="#666"/>
    </g>
    <g id="Grupo_54089" data-name="Grupo 54089">
      <path id="Trazado_102326" data-name="Trazado 102326" d="M564.9,553.826c-1.566-9.913.217-20.609.217-20.609l6.087-34.956c8-55.3-3.435-72.913-3.435-72.913-11.3-6.418-40-14.345-40.913-14.6v-.012l-.022.006-.021-.006v.012c-.915.252-29.618,8.179-40.913,14.6,0,0-11.435,17.609-3.435,72.913l6.087,34.956s1.782,10.7.217,20.609S478.2,618,478.2,618v1.957s21.771,33.763,48.63,17.621c26.86,16.142,48.631-17.621,48.631-17.621V618S566.463,563.739,564.9,553.826Z" fill="#e6e7e8"/>
      <path id="Trazado_102327" data-name="Trazado 102327" d="M541.589,642.29a28.59,28.59,0,0,1-14.757-4.276,28.607,28.607,0,0,1-14.757,4.276c-19.64,0-34.011-21.856-34.188-22.13l-.06-.093V618c.1-.6,9.023-54.434,10.57-64.233,1.537-9.735-.2-20.381-.217-20.488l-6.086-34.954c-7.931-54.821,3.374-73,3.489-73.182l.129-.122c10.835-6.155,37.526-13.667,40.724-14.555v-.2l.394.093.378-.1.009.2c3.141.874,29.915,8.411,40.736,14.559l.129.122c.115.178,11.42,18.361,3.491,73.171l-6.089,34.968c-.016.1-1.754,10.75-.216,20.485,1.547,9.8,10.475,63.629,10.565,64.171l.005,2.129-.06.093C575.6,620.434,561.229,642.29,541.589,642.29Zm-14.757-5.15.193.116c25.555,15.36,46.78-15.492,48.063-17.412V618c-.085-.482-9.013-54.314-10.561-64.115-1.557-9.86.2-20.621.218-20.729l6.088-34.96c7.62-52.681-2.562-71.258-3.335-72.57-11.059-6.242-38.644-13.933-40.666-14.492-2.019.558-29.578,8.234-40.665,14.492-.773,1.312-10.955,19.89-3.333,72.581l6.085,34.946c.019.111,1.775,10.872.219,20.732-1.548,9.8-10.476,63.633-10.566,64.176l.005,1.782c1.28,1.917,22.5,32.774,48.062,17.413Z" fill="gray"/>
    </g>
    <g id="Grupo_54090" data-name="Grupo 54090">
      <path id="Trazado_102328" data-name="Trazado 102328" d="M508.463,416.087s12.065,7.7,37.63.522c0,0-2.2-3.392-2.717-12.652,0,0-.13-10.392.043-12.7L527.246,387.7l-15.45,7.416S513.2,408.957,508.463,416.087Z" fill="#b3b3b3"/>
      <path id="Trazado_102329" data-name="Trazado 102329" d="M525.854,420.017c-11.73,0-17.509-3.561-17.593-3.614l-.322-.205.211-.319c4.61-6.935,3.287-20.592,3.273-20.729l-.027-.262,15.8-7.586,16.618,3.663-.024.324c-.171,2.262-.043,12.559-.042,12.663.507,9,2.637,12.42,2.658,12.454l.274.426-.488.138A75.384,75.384,0,0,1,525.854,420.017Zm-16.861-4.061c2.079,1.111,14.033,6.616,36.543.418-.6-1.185-2.11-4.865-2.534-12.4-.006-.422-.12-9.633.023-12.419l-15.734-3.468-15.1,7.247C512.366,397.311,513.2,409.188,508.993,415.956Z" fill="gray"/>
    </g>
    <g id="Grupo_54091" data-name="Grupo 54091">
      <path id="Trazado_102330" data-name="Trazado 102330" d="M511.072,395.609s13.174-10.174,32.347-.913c0,0,5.74-8.739,8.479-26.218s-.913-34.174-6.131-42.391-11.739-9.783-18.652-9.913c0,0-22.913-1.217-24.652,31.652S511.072,395.609,511.072,395.609Z" fill="#e6e7e8"/>
      <path id="Trazado_102331" data-name="Trazado 102331" d="M510.988,396.146l-.224-.323c-.105-.151-10.4-15.4-8.675-48.017.906-17.138,7.651-24.93,13.15-28.448a21.823,21.823,0,0,1,11.9-3.559c6.589.125,13.454,1.433,18.949,10.087,4.971,7.83,9.026,24.516,6.184,42.65-2.72,17.358-8.478,26.277-8.536,26.366l-.18.274-.3-.142c-18.729-9.046-31.826.771-31.955.872Zm15.906-79.6c-2.317,0-22.448.9-24.057,31.3-1.574,29.766,6.9,44.9,8.339,47.23,2.176-1.474,14.772-9.074,32.1-.864.973-1.621,5.823-10.3,8.251-25.792,2.812-17.942-1.178-34.417-6.076-42.132-5.3-8.355-11.951-9.618-18.343-9.739C527.1,316.548,527.021,316.545,526.894,316.545Z" fill="gray"/>
    </g>
    <g id="Grupo_54092" data-name="Grupo 54092">
      <path id="Trazado_102332" data-name="Trazado 102332" d="M490.188,546.573l-.232-.973s.508-.121,1.478-.318l.2.979C490.689,546.453,490.193,546.572,490.188,546.573Z" fill="gray"/>
      <path id="Trazado_102333" data-name="Trazado 102333" d="M560.647,545.826q-1.435-.235-2.854-.445l.146-.99q1.428.213,2.871.447Zm-66.183-.1-.174-.985q1.266-.222,2.871-.472l.152.989C496.252,545.423,495.3,545.581,494.464,545.728Zm60.468-.752q-1.446-.194-2.869-.364l.12-.993q1.43.171,2.881.366Zm-54.76-.13-.135-.991q1.359-.184,2.884-.366l.117.993Q501.523,544.661,500.172,544.846Zm49.02-.56q-1.451-.153-2.877-.284l.092-1q1.433.132,2.891.286Zm-43.282-.123-.1-.995q1.392-.143,2.891-.275l.088,1Q507.3,544.02,505.91,544.163Zm37.525-.406q-1.455-.114-2.883-.206l.064-1q1.434.092,2.9.207Zm-31.766-.1-.072-1q1.41-.1,2.9-.191l.059,1Q513.072,543.555,511.669,543.658Zm26-.273c-.975-.05-1.936-.093-2.889-.128l.037-1q1.435.053,2.9.128Zm-20.227-.067-.044-1q1.42-.063,2.9-.11l.031,1Q518.855,543.254,517.439,543.318Zm14.45-.15q-1.464-.035-2.89-.048l.01-1q1.433.014,2.9.048Zm-8.67-.028-.018-1q1.43-.024,2.9-.03l0,1Q524.641,543.116,523.219,543.14Z" fill="gray"/>
      <path id="Trazado_102334" data-name="Trazado 102334" d="M564.981,546.578l-1.478-.268.176-.984,1.483.269Z" fill="gray"/>
    </g>
    <g id="Grupo_54093" data-name="Grupo 54093">
      <path id="Trazado_102335" data-name="Trazado 102335" d="M480.313,478.738l-.15-.988s.517-.079,1.488-.212l.135.992C480.827,478.661,480.315,478.738,480.313,478.738Z" fill="gray"/>
      <path id="Trazado_102336" data-name="Trazado 102336" d="M484.7,478.15l-.123-.992c.864-.108,1.846-.226,2.935-.351l.113.993C486.54,477.925,485.563,478.043,484.7,478.15Zm85.124-.164q-1.449-.231-2.909-.436l.141-.991q1.467.209,2.924.439Zm-79.271-.51-.106-.994q1.391-.148,2.938-.3l.1.995Q491.943,477.328,490.553,477.476ZM564,477.159q-1.458-.184-2.921-.348l.111-.994q1.47.165,2.935.35Zm-67.583-.262-.092-1q1.422-.129,2.943-.257l.084,1Q497.834,476.768,496.416,476.9Zm61.735-.394c-.974-.1-1.952-.186-2.928-.269l.084-1q1.473.125,2.942.27Zm-55.865-.1-.076-1q1.439-.111,2.945-.215l.069,1Q503.724,476.295,502.286,476.4Zm50-.4q-1.469-.108-2.935-.2l.062-1q1.472.09,2.947.2Zm-44.125,0-.062-1q1.449-.088,2.948-.171l.055,1Q509.607,475.909,508.163,476Zm5.883-.32-.047-1q1.456-.069,2.951-.128l.039,1Q515.5,475.61,514.046,475.678Zm32.368-.039q-1.473-.075-2.939-.133l.039-1q1.472.059,2.951.133Zm-26.482-.193-.032-1q1.461-.048,2.953-.082l.023,1Q521.39,475.4,519.932,475.446Zm20.6-.042q-1.477-.045-2.942-.074l.019-1q1.472.029,2.952.074Zm-14.715-.1-.015-1q1.465-.023,2.954-.032l.006,1Q527.281,475.284,525.82,475.307Zm8.83-.022q-1.479-.017-2.942-.019l0-1q1.467,0,2.952.019Z" fill="gray"/>
      <path id="Trazado_102337" data-name="Trazado 102337" d="M574.2,478.736q-.734-.137-1.471-.266l.173-.985q.742.131,1.48.267Z" fill="gray"/>
    </g>
    <path id="Trazado_102338" data-name="Trazado 102338" d="M527.974,637.578h-1v-2.3h1Zm0-5.3h-1v-3h1Zm0-6h-1v-3h1Zm0-6h-1v-3h1Zm0-6h-1v-3h1Zm0-6h-1v-3h1Zm0-6h-1v-3h1Zm0-6h-1v-3h1Zm0-6h-1v-3h1Zm0-6h-1v-3h1Zm0-6h-1v-3h1Zm0-6h-1v-3h1Zm0-6h-1v-3h1Zm0-6h-1v-3h1Zm0-6h-1v-3h1Zm0-6h-1v-3h1Zm0-6h-1v-3h1Zm0-6h-1v-3h1Zm0-6h-1v-3h1Zm0-6h-1v-3h1Zm0-6h-1v-3h1Zm0-6h-1v-3h1Zm0-6h-1v-3h1Zm0-6h-1v-3h1Zm0-6h-1v-3h1Zm0-6h-1v-3h1Zm0-6h-1v-3h1Zm0-6h-1v-3h1Zm0-6h-1v-3h1Zm0-6h-1v-3h1Zm0-6h-1v-3h1Zm0-6h-1v-3h1Zm0-6h-1v-3h1Zm0-6h-1v-3h1Zm0-6h-1v-3h1Zm0-6h-1v-3h1Zm0-6h-1v-3h1Z" fill="gray"/>
    <path id="Trazado_102339" data-name="Trazado 102339" d="M527.941,389.739h-1v-.913h1Zm0-3.913h-1v-3h1Zm0-6h-1v-3h1Zm0-6h-1v-3h1Zm0-6h-1v-3h1Zm0-6h-1v-3h1Zm0-6h-1v-3h1Zm0-6h-1v-3h1Zm0-6h-1v-3h1Zm0-6h-1v-3h1Zm0-6h-1v-3h1Zm0-6h-1v-3h1Zm0-6h-1v-3h1Z" fill="gray"/>
    <path id="Trazado_102340" data-name="Trazado 102340" d="M551.887,360.349c-.01,0-1.069-.313-2.885-.748l.232-.972c1.845.441,2.892.748,2.936.761Zm-48.583-.016-.377-.927q.78-.316,1.578-.6l.338.941Q504.066,360.024,503.3,360.333Zm42.782-1.382c-.9-.187-1.878-.38-2.935-.571l.178-.984c1.067.193,2.057.388,2.96.576Zm-38.417-.113-.275-.962c.945-.27,1.933-.52,2.937-.742l.217.976C509.563,358.328,508.6,358.573,507.669,358.838Zm32.534-.952q-1.421-.219-2.959-.415l.125-.993c1.033.131,2.031.273,2.986.42Zm-26.736-.339-.164-.987c.975-.162,1.983-.3,2.995-.421l.115.993C515.418,357.248,514.426,357.388,513.467,357.547Zm20.808-.411q-1.455-.144-2.976-.252l.07-1q1.535.107,3,.253Zm-14.9-.282-.072-1q1.512-.109,3.016-.156l.032,1Q520.871,356.748,519.377,356.854Zm8.941-.13q-1.473-.055-2.982-.064l0-1c1.016,0,2.023.027,3.015.065Z" fill="gray"/>
    <g id="Grupo_54094" data-name="Grupo 54094">
      <path id="Trazado_102341" data-name="Trazado 102341" d="M655.332,354.633s6.2-3.446,6.457,2.093-.13,8.862-2.935,13.108-6.326,3.016-6.326,3.016Z" fill="#e6e7e8"/>
      <path id="Trazado_102342" data-name="Trazado 102342" d="M653.721,373.38a4.472,4.472,0,0,1-1.317-.176l-.294-.1,2.879-18.706.16-.089c.139-.078,3.412-1.868,5.465-.726a3.477,3.477,0,0,1,1.55,3.128c.262,5.562-.12,8.976-3,13.333C657.3,372.861,655.095,373.38,653.721,373.38Zm-.771-.808c.87.172,3.424.339,5.592-2.944,2.762-4.183,3.127-7.488,2.872-12.885a2.791,2.791,0,0,0-1.164-2.507c-1.465-.816-3.93.316-4.576.642Z" fill="gray"/>
    </g>
    <g id="Grupo_54095" data-name="Grupo 54095">
      <path id="Trazado_102343" data-name="Trazado 102343" d="M610.444,354.633s-6.2-3.446-6.457,2.093.131,8.862,2.935,13.108,6.326,3.016,6.326,3.016Z" fill="#e6e7e8"/>
      <path id="Trazado_102344" data-name="Trazado 102344" d="M612.056,373.38c-1.374,0-3.584-.519-5.447-3.339-2.877-4.357-3.258-7.771-3-13.333a3.479,3.479,0,0,1,1.55-3.128c2.058-1.142,5.327.648,5.465.726l.16.089,2.879,18.706-.294.1A4.461,4.461,0,0,1,612.056,373.38ZM606.8,353.946a2.6,2.6,0,0,0-1.275.29,2.794,2.794,0,0,0-1.164,2.507c-.255,5.4.111,8.7,2.872,12.885,2.168,3.282,4.723,3.115,5.592,2.944L610.1,354.878A8.3,8.3,0,0,0,606.8,353.946Z" fill="gray"/>
    </g>
    <g id="Grupo_54096" data-name="Grupo 54096">
      <path id="Trazado_102345" data-name="Trazado 102345" d="M680.68,616.565l-9.13-56.087c-2.218-11.348.522-29.217.522-29.217l4.826-28.044c4.956-16.434,3-34.565,3-34.565l-1.146-4.582a20.543,20.543,0,0,0-1.227-3.6c-6.68-14.513-3.5-30.427-3.5-30.427L632.886,413.3v-.08l-.1.04-.1-.04v.08L591.55,430.043s3.183,15.914-3.5,30.427a20.538,20.538,0,0,0-1.227,3.6l-1.146,4.582s-1.956,18.131,3,34.565l4.826,28.044s2.739,17.869.522,29.217l-9.13,56.087-1.566,7.087s34.435,13.131,40.566,26.826H641.68c6.131-13.7,40.565-26.826,40.565-26.826Z" fill="#e6e7e8"/>
      <path id="Trazado_102346" data-name="Trazado 102346" d="M641.924,650.853h-18.27l-.1-.221c-6-13.4-40.015-26.5-40.358-26.629l-.3-.116,1.635-7.4,9.127-56.066c2.181-11.164-.5-28.923-.523-29.1l-4.823-28.036c-4.913-16.274-3.024-34.487-3-34.669l1.154-4.633a20.778,20.778,0,0,1,1.251-3.666c6.549-14.23,3.5-30.038,3.469-30.2l-.061-.3,41.2-16.769v-.3l.463.117.483-.2v.383l41.195,16.769-.061.3c-.032.158-3.08,15.966,3.469,30.2a20.7,20.7,0,0,1,1.251,3.666l1.146,4.582c.028.233,1.917,18.446-3.005,34.765l-4.817,28c-.025.171-2.7,17.93-.522,29.083l9.131,56.088,1.632,7.393-.3.115c-.343.13-34.359,13.231-40.357,26.629Zm-17.786-.75h17.3c6.133-13.068,36.756-25.282,40.37-26.685l-1.5-6.793-9.131-56.087c-2.2-11.269.493-29.155.52-29.334l4.828-28.05c4.888-16.215,3.016-34.281,3-34.462l-1.136-4.531a19.967,19.967,0,0,0-1.2-3.534c-6.145-13.354-3.971-28.059-3.579-30.351l-40.816-16.614-40.816,16.614c.392,2.292,2.566,17-3.578,30.351a19.881,19.881,0,0,0-1.205,3.534l-1.145,4.582c-.011.13-1.883,18.2,2.995,34.366l4.835,28.088c.029.186,2.726,18.072.521,29.353l-9.128,56.075-1.5,6.793C587.381,624.821,618.005,637.035,624.138,650.1Z" fill="gray"/>
    </g>
    <g id="Grupo_54097" data-name="Grupo 54097">
      <path id="Trazado_102347" data-name="Trazado 102347" d="M647.419,392.957l3.3,27.739s-3.044,13.043-17.3,14.174a20.463,20.463,0,0,1-18.26-14.783s3.3-9.913,2.869-27.13Z" fill="#b3b3b3"/>
      <path id="Trazado_102348" data-name="Trazado 102348" d="M633.448,435.244c-.179,0-14.185-.522-18.648-15.047l-.035-.115.038-.114c.032-.1,3.278-10.061,2.85-27l-.009-.385h30.108l3.352,28.136-.015.064C651.058,420.914,647.817,434.1,633.448,435.244Zm-17.9-15.156a20.216,20.216,0,0,0,17.878,14.407c13.28-1.055,16.662-12.866,16.914-13.824l-3.257-27.34H618.412C618.764,409.2,615.913,418.923,615.551,420.088Z" fill="gray"/>
    </g>
    <g id="Grupo_54098" data-name="Grupo 54098">
      <path id="Trazado_102349" data-name="Trazado 102349" d="M657.245,348.569c-1.907-26.338-20.94-27.67-24.209-27.7h-.3c-3.269.034-22.3,1.366-24.209,27.7,0,0-1.566,19.953,4.173,34.909,0,0,5.74,23.652,20.174,24.7h.023c14.434-1.044,20.174-24.7,20.174-24.7C658.811,368.522,657.245,348.569,657.245,348.569Z" fill="#e6e7e8"/>
      <path id="Trazado_102350" data-name="Trazado 102350" d="M632.925,408.548c-14.617-1.051-20.352-24.005-20.588-24.981-5.69-14.818-4.2-34.827-4.184-35.028,1.917-26.472,20.811-28.009,24.579-28.049h.308c3.769.04,22.662,1.577,24.579,28.052.025.315,1.489,20.25-4.2,35.071C653.2,384.543,647.465,407.5,632.925,408.548Zm-.189-87.683,0,.375c-3.652.038-21.969,1.537-23.839,27.356-.015.2-1.492,20.045,4.151,34.748.07.28,5.855,23.444,19.85,24.456,13.963-1.012,19.748-24.176,19.8-24.41,5.656-14.749,4.18-34.593,4.164-34.792v0c-1.87-25.819-20.186-27.318-23.839-27.356l-.145-.376,0,.375Z" fill="gray"/>
    </g>
    <path id="Trazado_102351" data-name="Trazado 102351" d="M633.579,407.746h-1v-2.881h1Zm0-5.881h-1v-3h1Zm0-6h-1v-3h1Zm0-6h-1v-3h1Zm0-6h-1v-3h1Zm0-6h-1v-3h1Zm0-6h-1v-3h1Zm0-6h-1v-3h1Zm0-6h-1v-3h1Zm0-6h-1v-3h1Zm0-6h-1v-3h1Zm0-6h-1v-3h1Zm0-6h-1v-3h1Zm0-6h-1v-3h1Zm0-6h-1v-3h1Z" fill="gray"/>
    <path id="Trazado_102352" data-name="Trazado 102352" d="M633.579,647.8h-1v-3h1Zm0-6h-1v-3h1Zm0-6h-1v-3h1Zm0-6h-1v-3h1Zm0-6h-1v-3h1Zm0-6h-1v-3h1Zm0-6h-1v-3h1Zm0-6h-1v-3h1Zm0-6h-1v-3h1Zm0-6h-1v-3h1Zm0-6h-1v-3h1Zm0-6h-1v-3h1Zm0-6h-1v-3h1Zm0-6h-1v-3h1Zm0-6h-1v-3h1Zm0-6h-1v-3h1Zm0-6h-1v-3h1Zm0-6h-1v-3h1Zm0-6h-1v-3h1Zm0-6h-1v-3h1Zm0-6h-1v-3h1Zm0-6h-1v-3h1Zm0-6h-1v-3h1Zm0-6h-1v-3h1Zm0-6h-1v-3h1Zm0-6h-1v-3h1Zm0-6h-1v-3h1Zm0-6h-1v-3h1Zm0-6h-1v-3h1Zm0-6h-1v-3h1Zm0-6h-1v-3h1Zm0-6h-1v-3h1Zm0-6h-1v-3h1Zm0-6h-1v-3h1Zm0-6h-1v-3h1Zm0-6h-1v-3h1Z" fill="gray"/>
    <path id="Trazado_102353" data-name="Trazado 102353" d="M632.575,367.259q-1.167,0-2.373-.022l.02-1q1.194.023,2.353.022h.635l0,1Zm3.653-.052-.03-1q1.535-.043,2.987-.12l.05,1Q637.776,367.161,636.228,367.207Zm-9.036-.064q-1.482-.063-3.007-.167l.068-1q1.512.1,2.982.166Zm15.052-.25-.076-1q1.554-.117,2.978-.259l.1.995C644.29,366.726,643.288,366.814,642.244,366.893Zm-21.063-.161q-1.484-.138-3-.321l.119-.993q1.5.18,2.97.319Zm27.057-.434-.123-.992c1.073-.134,2.063-.271,2.961-.407l.149.99C650.318,366.025,649.32,366.163,648.238,366.3Zm-33.04-.288q-1.477-.219-2.974-.483l.173-.985q1.484.263,2.948.478Zm39-.614-.178-.985c1.858-.336,2.9-.589,2.915-.591l.236.971C657.13,364.8,656.092,365.053,654.2,365.4Zm-44.937-.436-.785-.166.21-.977.778.163Z" fill="gray"/>
    <path id="Trazado_102354" data-name="Trazado 102354" d="M636.168,485.384l-1.288,0,0-1,1.284,0,1.711-.005.006,1Zm-4.292-.026q-1.48-.017-3-.048l.02-1q1.518.031,3,.048Zm9.013-.006-.014-1q1.527-.02,3-.053l.022,1Q642.418,485.332,640.889,485.352Zm-15.02-.114q-1.484-.042-3-.1l.035-1q1.515.054,2.994.1Zm21.027-.019-.031-1q1.53-.047,2.994-.107l.041,1Q648.432,485.171,646.9,485.219Zm-27.031-.2q-1.485-.064-3-.142l.051-1q1.514.078,2.993.142Zm33.036-.047-.05-1q1.536-.076,2.991-.164l.06,1Q654.443,484.9,652.9,484.976Zm-39.036-.261q-1.484-.088-3-.188l.067-1q1.509.1,2.99.188Zm45.038-.1-.07-1q1.547-.108,2.986-.226l.08,1Q660.457,484.507,658.9,484.616Zm-51.032-.3q-1.483-.109-2.994-.232l.08-1q1.508.121,2.988.232Zm57.024-.185-.094-1q1.569-.146,2.98-.294l.106.994Q666.47,483.983,664.9,484.13Zm-63.011-.3q-1.485-.132-2.991-.277l.095-.995q1.5.143,2.984.275Zm68.991-.328-.117-.993q1.628-.193,2.969-.376l.132.991Q672.513,483.3,670.875,483.5Zm-74.972-.248q-1.482-.153-2.986-.32l.109-.994q1.5.167,2.981.319Zm80.937-.559-.152-.989c1.929-.3,2.931-.5,2.938-.5l.2.981S678.8,482.389,676.84,482.693Zm-86.906-.1q-1.482-.176-2.983-.363l.125-.992q1.5.188,2.975.362Z" fill="gray"/>
    <path id="Trazado_102355" data-name="Trazado 102355" d="M628.143,554.757q-1.48,0-3.005-.02l.011-1q1.52.018,3,.02Zm3.005-.013-.009-1q1.523-.015,2.995-.045l.019,1Q632.678,554.729,631.148,554.744Zm-9.014-.058q-1.483-.033-3.006-.083l.033-1q1.516.05,2.994.082Zm15.024-.065-.031-1q1.528-.05,2.993-.112l.043,1Q638.693,554.572,637.158,554.621Zm-21.032-.131q-1.485-.063-3-.144l.053-1q1.512.081,2.992.144Zm27.041-.127-.055-1q1.533-.084,2.989-.181l.066,1Q644.706,554.278,643.167,554.363Zm-33.043-.191q-1.485-.094-3-.205l.074-1q1.508.111,2.988.2Zm39.042-.208-.078-1q1.542-.121,2.982-.254l.092,1Q650.716,553.841,649.166,553.964Zm-45.037-.232q-1.482-.123-2.993-.264l.094-1q1.5.141,2.983.264Zm51.027-.317-.1-.994q1.564-.167,2.974-.335l.12.993Q656.728,553.249,655.156,553.415Zm-57.01-.241q-1.48-.155-2.987-.324l.113-.994q1.5.169,2.978.323Zm62.982-.476-.135-.991q1.623-.219,2.962-.427l.152.988Q662.762,552.475,661.128,552.7Zm5.952-.919-.174-.985c1.9-.334,2.915-.562,2.925-.565l.221.976C670.01,551.214,669,551.44,667.08,551.779Z" fill="gray"/>
    <g id="Grupo_54099" data-name="Grupo 54099" opacity="0.46">
      <path id="Trazado_102356" data-name="Trazado 102356" d="M587.506,431.652l25.913-10.609S617.9,434.261,632.789,436V554.257s-29.8,2.091-51.717-4.692-53.5-6.087-53.5-6.087l-.294-122.435s17.1-1.739,19.533-4.869l24.174,9.111L569.767,459.3s-.869,31.131,11.479,32.348,10.26-30.956,10.26-30.956Z" fill="#f2bebe"/>
      <path id="Trazado_102357" data-name="Trazado 102357" d="M621.871,555.061h-.1v-1h.1c1.019,0,1.985-.008,2.89-.02l.013,1C623.866,555.053,622.9,555.06,621.871,555.061Zm-3.111-.023q-1.455-.021-3.009-.065l.029-1c1.03.03,2.03.051,2.993.065Zm9.022-.06-.029-1c1.191-.033,2.2-.073,2.99-.11l.047,1C629.993,554.9,628.98,554.944,627.782,554.978Zm-15.036-.114q-1.473-.065-3-.154l.059-1q1.523.089,2.989.153Zm-6.009-.357q-1.484-.113-3-.253l.092-1q1.508.141,2.983.252Zm-5.992-.56q-1.488-.168-2.988-.367l.131-.991q1.491.2,2.968.364Zm32.544-.667h-1v-3h1Zm-38.514-.13q-1.488-.233-2.97-.5l.177-.985q1.47.267,2.948.5Zm-5.93-1.078q-1.483-.311-2.944-.664l.237-.972q1.445.351,2.912.658Zm-5.864-1.424q-1.038-.289-2.057-.6c-.275-.085-.55-.169-.827-.251l.285-.959q.422.126.838.255,1.005.31,2.031.6Zm-5.759-1.658q-1.432-.375-2.9-.713l.225-.975q1.48.342,2.93.72Zm-5.823-1.349q-1.458-.3-2.933-.564l.178-.984q1.485.268,2.957.569Zm61.89-.361h-1v-3h1Zm-67.773-.707q-1.482-.237-2.962-.447l.14-.99q1.49.211,2.98.45Zm-5.929-.843q-1.5-.187-2.976-.349l.11-.994q1.484.162,2.989.351Zm-5.954-.655q-1.511-.145-2.985-.265l.082-1q1.479.121,3,.266Zm-5.973-.492q-1.53-.106-2.99-.191l.057-1c.976.056,1.979.12,3,.191Zm-5.983-.346q-1.56-.074-2.995-.123l.035-1q1.439.051,3.007.123Zm-5.991-.21c-1.093-.026-2.1-.043-3-.054l.011-1c.906.011,1.913.028,3.01.054Zm-8.614-.037,0-1.391,1,0v.373c.362,0,.91-.01,1.62-.012l0,1c-1.352,0-2.106.02-2.109.02Zm106.217-2.71h-1v-3h1ZM527.062,539.6l-.007-3,1,0,.007,3Zm106.227-4.319h-1v-3h1ZM527.048,533.6l-.008-3,1,0,.008,3Zm106.241-4.319h-1v-3h1ZM527.033,527.6l-.007-3h1l.007,3Zm106.256-4.319h-1v-3h1ZM527.019,521.6l-.007-3h1l.007,3Zm106.27-4.319h-1v-3h1ZM527.005,515.6l-.008-3,1,0,.008,3Zm106.284-4.32h-1v-3h1ZM526.99,509.6l-.007-3h1l.007,3Zm106.3-4.319h-1v-3h1ZM526.976,503.6l-.007-3h1l.007,3Zm106.313-4.319h-1v-3h1ZM526.962,497.6l-.008-3,1,0,.008,3Zm106.327-4.32h-1v-3h1Zm-51.371-1.094c-.234,0-.476-.012-.722-.036a7.774,7.774,0,0,1-1.5-.3l.295-.956a6.659,6.659,0,0,0,1.306.262,5.958,5.958,0,0,0,1.431-.026l.142.99A6.719,6.719,0,0,1,581.918,492.186Zm-54.971-.587-.007-3h1l.007,3Zm58.868-.732-.6-.8a8.216,8.216,0,0,0,1.879-2.089l.838.547A9.272,9.272,0,0,1,585.815,490.867Zm-8.891-.539a11.664,11.664,0,0,1-2.092-2.317l.82-.573a10.6,10.6,0,0,0,1.909,2.119Zm56.365-3.048h-1v-3h1Zm-43.953-1.505-.926-.376a25.453,25.453,0,0,0,.933-2.791l.965.266A26.316,26.316,0,0,1,589.336,485.775Zm-62.4-.176-.007-3h1l.007,3Zm46.373-.267a27.9,27.9,0,0,1-1.134-2.838l.947-.322a26.641,26.641,0,0,0,1.093,2.736Zm59.983-4.052h-1v-3h1Zm-42.3-1.37-.982-.189c.179-.931.339-1.918.472-2.936l.993.131C591.336,477.953,591.174,478.96,590.991,479.91Zm-64.073-.311-.007-3h1l.007,3Zm44.395-.023c-.238-.932-.459-1.928-.659-2.961l.983-.19c.195,1.014.412,1.991.644,2.9Zm61.976-4.3h-1v-3h1ZM591.8,473.909l-1-.088c.088-1.013.156-2.012.207-2.979l1,.051C591.962,471.873,591.9,472.884,591.8,473.909Zm-21.652-.281c-.147-1.016-.27-2.022-.374-3l.994-.105c.1.967.225,1.959.371,2.962ZM526.9,473.6l-.008-3,1,0,.008,3Zm106.385-4.32h-1v-3h1Zm-41.169-1.4-1-.02c.015-.723.021-1.412.02-2.056l-.005-.932,1-.01.005.941C592.141,466.448,592.135,467.144,592.12,467.875Zm-22.61-.258c-.077-1.077-.132-2.091-.171-3.018l1-.041c.037.917.092,1.921.169,2.986Zm-42.62-.018-.007-3h1l.007,3Zm106.4-4.319h-1v-3h1Zm-42.226-1.4c-.022-.573-.043-.953-.052-1.1l.012-.025-.011,0-.25-1.816.99-.137.3,2.172-.028.013c.012.211.026.493.04.846Zm-64.188-.284-.007-3h1l.007,3Zm42.385-.022c0-.359-.006-.682-.006-.963,0-.844.014-1.324.014-1.324l.026-.741,1,.036-.026.738s-.014.469-.014,1.291c0,.278,0,.6.006.952Zm64.029-4.3h-1v-3h1Zm-42.936-1.3-.41-2.972.991-.136.409,2.972Zm-63.492-.376-.007-3,1,0,.007,3Zm43.54-.013-1-.036.108-3,1,.036Zm62.888-4.307h-1v-3h1Zm-43.755-1.247-.41-2.973.99-.136.41,2.972Zm-62.687-.434-.007-3h1l.007,3Zm43.768-.008-1-.036.108-3,1,.036Zm62.674-4.311h-1v-3h1Zm-44.574-1.192-.409-2.971.99-.137.409,2.972Zm-61.883-.489-.007-3h1l.007,3Zm44,0-1-.036.108-3,1,.036Zm62.459-4.315h-1v-3h1ZM587.9,438.144l-.409-2.971.991-.137.409,2.972Zm-61.078-.544-.007-3,1,0,.007,3Zm44.227,0-1-.036.106-3,1,.035ZM630,436.032a24.345,24.345,0,0,1-2.936-.861l.342-.939a23.481,23.481,0,0,0,2.815.825Zm-5.738-2.1a23.067,23.067,0,0,1-2.615-1.6l.577-.818a21.9,21.9,0,0,0,2.5,1.527ZM587.078,432.2l-.12-.865,3.136-1.283.379.925-2.417.99.012.1Zm-15.819-.6-1-.036.107-3,1,.036Zm-44.455,0-.007-3h1l.007,3Zm92.464-1.184a24.661,24.661,0,0,1-2.12-2.21l.764-.646a23.6,23.6,0,0,0,2.033,2.12Zm-26.019-.573-.379-.926,2.776-1.137.379.926Zm5.553-2.274-.379-.926,2.776-1.136.379.926Zm16.511-1.81a25.481,25.481,0,0,1-1.537-2.651l.9-.447a24.376,24.376,0,0,0,1.476,2.545Zm-44.505-.005-2.524-.951.354-.936,2.859,1.078-.023.662-.6-.021Zm-44.019-.154-.007-3h1l.007,3Zm77.566-.3-.379-.925,2.776-1.137.379.926Zm-38.877-1.551-2.808-1.058.353-.936,2.808,1.058Zm44.429-.722-.379-.926,2.777-1.137.379.926Zm-50.044-1.394-2.807-1.058.353-.936,2.808,1.058Zm-31.079-.252-.119-.993c.767-.092,1.794-.222,2.973-.389l.14.99C530.592,421.153,529.557,421.284,528.784,421.376Zm5.98-.849-.164-.987c.961-.159,1.955-.337,2.942-.533l.2.981C536.738,420.186,535.734,420.366,534.764,420.527Zm19.484-1.015-2.807-1.059.354-.935,2.807,1.058Zm-13.553-.177-.24-.97c1.08-.267,2.037-.543,2.846-.821l.324.946C542.789,418.777,541.8,419.061,540.7,419.335Zm7.939-1.94-1.682-.634a4.1,4.1,0,0,1-.484.4l-.578-.816a2.575,2.575,0,0,0,.527-.478l.227-.289,2.343.883Z" fill="#f7931e"/>
    </g>
    <path id="Trazado_102358" data-name="Trazado 102358" d="M621.871,555.061h-.1v-1h.1c1.019,0,1.985-.008,2.89-.02l.013,1C623.866,555.053,622.9,555.06,621.871,555.061Zm-3.111-.023q-1.455-.021-3.009-.065l.029-1c1.03.03,2.03.051,2.993.065Zm9.022-.06-.029-1c1.191-.033,2.2-.073,2.99-.11l.047,1C629.993,554.9,628.98,554.944,627.782,554.978Zm-15.036-.114q-1.473-.065-3-.154l.059-1q1.523.089,2.989.153Zm-6.009-.357q-1.484-.113-3-.253l.092-1q1.508.141,2.983.252Zm-5.992-.56q-1.488-.168-2.988-.367l.131-.991q1.491.2,2.968.364Zm32.544-.667h-1v-3h1Zm-38.514-.13q-1.488-.233-2.97-.5l.177-.985q1.47.267,2.948.5Zm-5.93-1.078q-1.483-.311-2.944-.664l.237-.972q1.445.351,2.912.658Zm-5.864-1.424q-1.038-.289-2.057-.6c-.275-.085-.55-.169-.827-.251l.285-.959q.422.126.838.255,1.005.31,2.031.6Zm-5.759-1.658q-1.432-.375-2.9-.713l.225-.975q1.48.342,2.93.72Zm-5.823-1.349q-1.458-.3-2.933-.564l.178-.984q1.485.268,2.957.569Zm61.89-.361h-1v-3h1Zm-67.773-.707q-1.482-.237-2.962-.447l.14-.99q1.49.211,2.98.45Zm-5.929-.843q-1.5-.187-2.976-.349l.11-.994q1.484.162,2.989.351Zm-5.954-.655q-1.511-.145-2.985-.265l.082-1q1.479.121,3,.266Zm-5.973-.492q-1.53-.106-2.99-.191l.057-1c.976.056,1.979.12,3,.191Zm-5.983-.346q-1.56-.074-2.995-.123l.035-1q1.439.051,3.007.123Zm-5.991-.21c-1.093-.026-2.1-.043-3-.054l.011-1c.906.011,1.913.028,3.01.054Zm-8.614-.037,0-1.391,1,0v.373c.362,0,.91-.01,1.62-.012l0,1c-1.352,0-2.106.02-2.109.02Zm106.217-2.71h-1v-3h1ZM527.062,539.6l-.007-3,1,0,.007,3Zm106.227-4.319h-1v-3h1ZM527.048,533.6l-.008-3,1,0,.008,3Zm106.241-4.319h-1v-3h1ZM527.033,527.6l-.007-3h1l.007,3Zm106.256-4.319h-1v-3h1ZM527.019,521.6l-.007-3h1l.007,3Zm106.27-4.319h-1v-3h1ZM527.005,515.6l-.008-3,1,0,.008,3Zm106.284-4.32h-1v-3h1ZM526.99,509.6l-.007-3h1l.007,3Zm106.3-4.319h-1v-3h1ZM526.976,503.6l-.007-3h1l.007,3Zm106.313-4.319h-1v-3h1ZM526.962,497.6l-.008-3,1,0,.008,3Zm106.327-4.32h-1v-3h1Zm-51.371-1.094c-.234,0-.476-.012-.722-.036a7.774,7.774,0,0,1-1.5-.3l.295-.956a6.659,6.659,0,0,0,1.306.262,5.958,5.958,0,0,0,1.431-.026l.142.99A6.719,6.719,0,0,1,581.918,492.186Zm-54.971-.587-.007-3h1l.007,3Zm58.868-.732-.6-.8a8.216,8.216,0,0,0,1.879-2.089l.838.547A9.272,9.272,0,0,1,585.815,490.867Zm-8.891-.539a11.664,11.664,0,0,1-2.092-2.317l.82-.573a10.6,10.6,0,0,0,1.909,2.119Zm56.365-3.048h-1v-3h1Zm-43.953-1.505-.926-.376a25.453,25.453,0,0,0,.933-2.791l.965.266A26.316,26.316,0,0,1,589.336,485.775Zm-62.4-.176-.007-3h1l.007,3Zm46.373-.267a27.9,27.9,0,0,1-1.134-2.838l.947-.322a26.641,26.641,0,0,0,1.093,2.736Zm59.983-4.052h-1v-3h1Zm-42.3-1.37-.982-.189c.179-.931.339-1.918.472-2.936l.993.131C591.336,477.953,591.174,478.96,590.991,479.91Zm-64.073-.311-.007-3h1l.007,3Zm44.395-.023c-.238-.932-.459-1.928-.659-2.961l.983-.19c.195,1.014.412,1.991.644,2.9Zm61.976-4.3h-1v-3h1ZM591.8,473.909l-1-.088c.088-1.013.156-2.012.207-2.979l1,.051C591.962,471.873,591.9,472.884,591.8,473.909Zm-21.652-.281c-.147-1.016-.27-2.022-.374-3l.994-.105c.1.967.225,1.959.371,2.962ZM526.9,473.6l-.008-3,1,0,.008,3Zm106.385-4.32h-1v-3h1Zm-41.169-1.4-1-.02c.015-.723.021-1.412.02-2.056l-.005-.932,1-.01.005.941C592.141,466.448,592.135,467.144,592.12,467.875Zm-22.61-.258c-.077-1.077-.132-2.091-.171-3.018l1-.041c.037.917.092,1.921.169,2.986Zm-42.62-.018-.007-3h1l.007,3Zm106.4-4.319h-1v-3h1Zm-42.226-1.4c-.022-.573-.043-.953-.052-1.1l.012-.025-.011,0-.25-1.816.99-.137.3,2.172-.028.013c.012.211.026.493.04.846Zm-64.188-.284-.007-3h1l.007,3Zm42.385-.022c0-.359-.006-.682-.006-.963,0-.844.014-1.324.014-1.324l.026-.741,1,.036-.026.738s-.014.469-.014,1.291c0,.278,0,.6.006.952Zm64.029-4.3h-1v-3h1Zm-42.936-1.3-.41-2.972.991-.136.409,2.972Zm-63.492-.376-.007-3,1,0,.007,3Zm43.54-.013-1-.036.108-3,1,.036Zm62.888-4.307h-1v-3h1Zm-43.755-1.247-.41-2.973.99-.136.41,2.972Zm-62.687-.434-.007-3h1l.007,3Zm43.768-.008-1-.036.108-3,1,.036Zm62.674-4.311h-1v-3h1Zm-44.574-1.192-.409-2.971.99-.137.409,2.972Zm-61.883-.489-.007-3h1l.007,3Zm44,0-1-.036.108-3,1,.036Zm62.459-4.315h-1v-3h1ZM587.9,438.144l-.409-2.971.991-.137.409,2.972Zm-61.078-.544-.007-3,1,0,.007,3Zm44.227,0-1-.036.106-3,1,.035ZM630,436.032a24.345,24.345,0,0,1-2.936-.861l.342-.939a23.481,23.481,0,0,0,2.815.825Zm-5.738-2.1a23.067,23.067,0,0,1-2.615-1.6l.577-.818a21.9,21.9,0,0,0,2.5,1.527ZM587.078,432.2l-.12-.865,3.136-1.283.379.925-2.417.99.012.1Zm-15.819-.6-1-.036.107-3,1,.036Zm-44.455,0-.007-3h1l.007,3Zm92.464-1.184a24.661,24.661,0,0,1-2.12-2.21l.764-.646a23.6,23.6,0,0,0,2.033,2.12Zm-26.019-.573-.379-.926,2.776-1.137.379.926Zm5.553-2.274-.379-.926,2.776-1.136.379.926Zm16.511-1.81a25.481,25.481,0,0,1-1.537-2.651l.9-.447a24.376,24.376,0,0,0,1.476,2.545Zm-44.505-.005-2.524-.951.354-.936,2.859,1.078-.023.662-.6-.021Zm-44.019-.154-.007-3h1l.007,3Zm77.566-.3-.379-.925,2.776-1.137.379.926Zm-38.877-1.551-2.808-1.058.353-.936,2.808,1.058Zm44.429-.722-.379-.926,2.777-1.137.379.926Zm-50.044-1.394-2.807-1.058.353-.936,2.808,1.058Zm-31.079-.252-.119-.993c.767-.092,1.794-.222,2.973-.389l.14.99C530.592,421.153,529.557,421.284,528.784,421.376Zm5.98-.849-.164-.987c.961-.159,1.955-.337,2.942-.533l.2.981C536.738,420.186,535.734,420.366,534.764,420.527Zm19.484-1.015-2.807-1.059.354-.935,2.807,1.058Zm-13.553-.177-.24-.97c1.08-.267,2.037-.543,2.846-.821l.324.946C542.789,418.777,541.8,419.061,540.7,419.335Zm7.939-1.94-1.682-.634a4.1,4.1,0,0,1-.484.4l-.578-.816a2.575,2.575,0,0,0,.527-.478l.227-.289,2.343.883Z" fill="#f7931e"/>
  </g>
</svg>
