<svg xmlns="http://www.w3.org/2000/svg" width="253.831" height="216.759" viewBox="0 0 253.831 216.759">
  <g id="Grupo_54107" data-name="Grupo 54107" transform="translate(-771.973 -375.996)">
    <g id="Grupo_54103" data-name="Grupo 54103" transform="translate(771.973 397.156)">
      <path id="Trazado_102359" data-name="Trazado 102359" d="M917.849,421.988c-32.225,12.135-67.431,35.275-92.749,37.388s-57.378,13.118-52.661,39.353,97.465,65.591,140.693,75.432,81.745-16.4,77.029-64.279-40.087-100.026-72.312-87.894Zm0,0" transform="translate(-771.973 -406.406)" fill="#09b291" fill-rule="evenodd"/>
      <path id="Trazado_102360" data-name="Trazado 102360" d="M804.652,443.726c-3.141,15.71,7.861,40.7,6.289,65.7s-33.012,44.631-4.717,63.557,89.213-10.355,160.739-13.926,70.348-104.978,44.409-114.975-55.021,11.069-80.957,12.5c-33.651,1.852-116.228-60.5-125.763-12.854Zm0,0" transform="translate(-776.678 -407.565)" fill="#0dcea9" fill-rule="evenodd"/>
      <path id="Trazado_102361" data-name="Trazado 102361" d="M812.478,417.619c0,4.2-3.033,7.6-6.775,7.6s-6.775-3.4-6.775-7.6,3.033-7.6,6.775-7.6,6.775,3.4,6.775,7.6Zm0,0" transform="translate(-777.612 -404.274)" fill="#0dcea9" fill-rule="evenodd"/>
      <path id="Trazado_102362" data-name="Trazado 102362" d="M1011.167,610.238a7.7,7.7,0,1,1-7.7-8.02,7.862,7.862,0,0,1,7.7,8.02Zm0,0" transform="translate(-818.797 -444.486)" fill="#09b291" fill-rule="evenodd"/>
      <path id="Trazado_102363" data-name="Trazado 102363" d="M1037.154,616.966a3.788,3.788,0,1,1-3.785-3.619,3.7,3.7,0,0,1,3.785,3.619Zm0,0" transform="translate(-825.87 -446.815)" fill="#09b291" fill-rule="evenodd"/>
      <path id="Trazado_102364" data-name="Trazado 102364" d="M912.908,611.41s-11.071,1.767-14.952,8.1,1.419,9.13,3.313,5.154,3.122-8.54,11.639-13.253Zm0,0" transform="translate(-798.041 -446.409)" fill="#09b291" fill-rule="evenodd"/>
      <path id="Trazado_102365" data-name="Trazado 102365" d="M923.828,613.425s-6.005,8.041-6.615,14.2,3.217,4.432,3.283.913-.41-6.965,3.332-15.109Zm0,0" transform="translate(-802.346 -446.831)" fill="#09b291" fill-rule="evenodd"/>
      <path id="Trazado_102366" data-name="Trazado 102366" d="M1036.7,434.726s13.23-16.285,12.094-26.272-11.149-4.922-9.7.614,4.394,10.619-2.394,25.658Zm0,0" transform="translate(-827.359 -402.755)" fill="#0dcea9" fill-rule="evenodd"/>
      <path id="Trazado_102367" data-name="Trazado 102367" d="M1025.828,443.143s.015-12.327-4.687-17.063-7.709.894-4.685,3.27,6.621,4.067,9.372,13.794Zm0,0" transform="translate(-822.869 -407.249)" fill="#0dcea9" fill-rule="evenodd"/>
      <path id="Trazado_102368" data-name="Trazado 102368" d="M1046.789,584.073a.992.992,0,0,1-1.2-.488.787.787,0,0,1,.568-1.034c9.485-2.926,17.9-10.949,24.11-20.578,7.051-10.94,11.224-23.916,10.872-33.876a.876.876,0,0,1,.914-.83.89.89,0,0,1,.965.786c.359,10.233-3.9,23.524-11.106,34.7-6.409,9.943-15.167,18.246-25.121,21.316Zm0,0" transform="translate(-829.207 -428.805)" fill="#09b291"/>
      <path id="Trazado_102369" data-name="Trazado 102369" d="M894.073,434.813a1.044,1.044,0,0,1-1.31-.2A.739.739,0,0,1,893,433.49c19.339-11.646,33.792-19.032,45.075-22.906,11.469-3.938,19.737-4.273,26.552-1.763a.771.771,0,0,1,.5,1.061,1.006,1.006,0,0,1-1.235.429c-6.349-2.338-14.162-1.989-25.12,1.772-11.144,3.826-25.473,11.155-44.693,22.729Zm0,0" transform="translate(-797.21 -403.689)" fill="#09b291"/>
      <path id="Trazado_102370" data-name="Trazado 102370" d="M794.783,596.908a.763.763,0,0,1,.437,1.082,1.018,1.018,0,0,1-1.261.375q-.552-.231-1.086-.494l-.057-.03c-6.809-3.366-9.86-9.689-10.106-17.09-.238-7.284,2.254-15.636,6.559-23.2q.991-1.741,2.083-3.394a1.028,1.028,0,0,1,1.283-.3.752.752,0,0,1,.355,1.1c-.723,1.09-1.4,2.194-2.035,3.3-4.176,7.34-6.594,15.422-6.364,22.443.225,6.862,3,12.694,9.174,15.738l.044.021c.311.154.637.3.975.444Zm0,0" transform="translate(-774.216 -434.346)" fill="#09b291"/>
    </g>
    <g id="Grupo_54106" data-name="Grupo 54106" transform="translate(804.099 375.996)">
      <g id="Grupo_54104" data-name="Grupo 54104">
        <path id="Trazado_102371" data-name="Trazado 102371" d="M879.411,406.31a16.928,16.928,0,0,0-.672,2.723,14.147,14.147,0,0,0-.221,2.264c0,.03,0,.06-.006.09.67.186,1.319.376,1.943.569a10.267,10.267,0,0,0,7.85-2.591c-1.321-1.911-3.086-6.865-3.956-9.443-.114,2.233-.352,4.354-.617,6.118A21.515,21.515,0,0,1,879.411,406.31Z" transform="translate(-826.389 -381.002)" fill="#64496d"/>
        <path id="Trazado_102372" data-name="Trazado 102372" d="M852.32,606.288c-3.746-.981-6.783-1.732-9.342-3.14-.285,3,.485,3.309,5.687,3.21,16.147,6.087,18.272,2.081,18.272,2.081l-.009-.494-.042-1.121C865.238,608.963,856.065,607.27,852.32,606.288Z" transform="translate(-818.944 -423.521)" fill="#fff"/>
        <path id="Trazado_102373" data-name="Trazado 102373" d="M849.825,600.238a7.024,7.024,0,0,1-5.153-4.958h0a10.855,10.855,0,0,0-1.691,6.222c2.558,1.408,5.6,2.16,9.341,3.14s12.918,2.675,14.565.535c0,0,.728-4.224-7.8-6.045h0C857.108,601.152,853.108,601.175,849.825,600.238Z" transform="translate(-818.947 -421.875)" fill="#4c3e60"/>
        <path id="Trazado_102374" data-name="Trazado 102374" d="M840.228,542.126c-4.523,11.428,5.051,37.088,5.061,37.115-.379,1.173-.991,2.342-1.438,3.649h0A7.024,7.024,0,0,0,849,587.847c3.282.937,7.283.913,9.266-1.105h0a18.676,18.676,0,0,1-6-7.234l4.8-39.136a27.1,27.1,0,0,1-14.625-4.316C841.9,537.735,841.174,539.736,840.228,542.126Z" transform="translate(-818.125 -409.484)" fill="#ffcdbb"/>
        <path id="Trazado_102375" data-name="Trazado 102375" d="M843.352,535.212a27.1,27.1,0,0,0,14.625,4.316l.679-5.534a46.149,46.149,0,0,1-14.362-1.972C844.06,532.929,843.754,533.982,843.352,535.212Z" transform="translate(-819.033 -408.64)" fill="#eab3a2"/>
        <path id="Trazado_102376" data-name="Trazado 102376" d="M890.71,601.519c-3.8-.724-6.885-1.268-9.534-2.5-.08,3.016.709,3.268,5.891,2.816,16.524,4.975,18.371.833,18.371.833l-.043-.493-.118-1.114C903.78,603.309,894.513,602.243,890.71,601.519Z" transform="translate(-826.945 -422.657)" fill="#fff"/>
        <path id="Trazado_102377" data-name="Trazado 102377" d="M887.892,595.622a7.022,7.022,0,0,1-5.477-4.6h0a10.854,10.854,0,0,0-1.265,6.322c2.648,1.23,5.73,1.774,9.534,2.5s13.07,1.79,14.568-.456c0,0,.44-4.263-8.189-5.5h0C895.221,596.039,891.231,596.334,887.892,595.622Z" transform="translate(-826.919 -420.984)" fill="#4c3e60"/>
        <path id="Trazado_102378" data-name="Trazado 102378" d="M875.357,536.013a47.328,47.328,0,0,0,14.446-2.067l.051-4.712a51.508,51.508,0,0,1-13.537,3.454C876.047,533.692,875.729,534.8,875.357,536.013Z" transform="translate(-825.729 -408.056)" fill="#eab3a2"/>
        <path id="Trazado_102379" data-name="Trazado 102379" d="M874.5,538.922c-3.736,11.708,7.562,36.658,7.573,36.684-.3,1.2-.83,2.4-1.187,3.738h0a7.022,7.022,0,0,0,5.477,4.6c3.339.712,7.329.417,9.17-1.733h0a18.661,18.661,0,0,1-6.5-6.858l.432-40.156a47.329,47.329,0,0,1-14.446,2.067C874.856,537.793,874.684,538.346,874.5,538.922Z" transform="translate(-825.391 -409.303)" fill="#ffcdbb"/>
        <path id="Trazado_102380" data-name="Trazado 102380" d="M872.25,490.923c-10.245,3.551-14.063-.465-14.063-.465-8.206,1.306-11.562-3.388-11.562-3.388l6-19.277h0a40.124,40.124,0,0,0-.209-6.953c-.569.05-1.285.123-2.228.223a4.556,4.556,0,0,1-1.794-.42l-.026.011-.017-.027c-.149-.059-.3-.123-.452-.191-9.451,21.281-10.385,41.859-8.5,54.653a14.957,14.957,0,0,0,3.908,1.955,46.153,46.153,0,0,0,14.362,1.972,80.93,80.93,0,0,0,10.965-.723,51.512,51.512,0,0,0,13.537-3.454,13.649,13.649,0,0,0,3.947-2.486c-.131-2.625-2.211-13.269-4.393-23.968C879.765,489.663,875.88,491.745,872.25,490.923Z" transform="translate(-818.037 -393.663)" fill="#8ecbdd"/>
        <path id="Trazado_102381" data-name="Trazado 102381" d="M900.1,444.116c-5.045-6.445-7.5-6.238-11.343-14.118-3.625-7.436-9.552-11.22-12.137-11.178a33.426,33.426,0,0,0-9.43-4.235c-.624-.194-1.273-.383-1.943-.569a3.515,3.515,0,0,1-2.345,2.53c-.839.253-3.6-.24-5.673-1.121a14.211,14.211,0,0,1-.675,3.131c-5.371-1.186-10.213-1.869-12.764-6.07-6.8.071-16.71,10.335-21.6,10.971-4.955.644-7.167,3.143-7.092,7.542v.027a11.123,11.123,0,0,1,1.312.023,17.868,17.868,0,0,1,4.877.973l0,0h0a20.06,20.06,0,0,1,4.279,2.095,7.192,7.192,0,0,0-1.7-.986s2.469-3.34,8.29-3.5A16.4,16.4,0,0,0,841.8,426.1a12.672,12.672,0,0,0-.893,6.69h0c1.075,4.031,1.967,8.121,2.782,11.984.839-.328,1.739-.669,2.594-.969-.052-.244-.1-.475-.145-.69-.292-1.219-.539-2.1-.656-2.5a7.062,7.062,0,0,1-1.039-2.383,3.581,3.581,0,0,1-1.146-1.03,6.781,6.781,0,0,1-1.041-3,8.315,8.315,0,0,1,.21-3.135c.061-.256.156-.5.237-.751.1-.242.191-.489.309-.722a8.5,8.5,0,0,1,.788-1.347,11.5,11.5,0,0,1,2.1-2.254,12.053,12.053,0,0,1,2.563-1.639,15.839,15.839,0,0,0-2.31,1.918,12.759,12.759,0,0,0-1.85,2.305,8.341,8.341,0,0,0-1.28,5.531,6.2,6.2,0,0,0,.875,2.675,2.971,2.971,0,0,0,.372.452c-.366-3.125.749-7.4,4.193-12.864a10.272,10.272,0,0,1,5.6,2.784,44.271,44.271,0,0,0,12.909-.395,2.341,2.341,0,0,1-.082-.452.4.4,0,0,1,.145-.342.3.3,0,0,1,.218-.35l.912.922c.58-.115,1.166-.241,1.766-.384.153-.105.307-.207.464-.3-.365-.929-.734-1.874-.966-2.634a3.6,3.6,0,0,1-.186-1.57.4.4,0,0,1,.222-.3c-.028-.333.21-.352.21-.352l.311.486.008.009c.2.316.475.74.78,1.221l.01.016h0c.294.464.618.981.945,1.508-.126-.412-.238-.8-.323-1.155a3.988,3.988,0,0,1-.129-1.378.458.458,0,0,1,.3-.387c-.016-.349.247-.355.247-.355l.3.542a.205.205,0,0,1,.015.021c.183.326.417.741.673,1.2l.013.021h0c.153.275.313.566.478.867v0q.306.442.6.889l.012,0,.022.054q.3.452.593.91.176.274.347.552c-.057-.366-.105-.716-.137-1.03a3.514,3.514,0,0,1,.14-1.623.386.386,0,0,1,.259-.235c.055-.293.276-.27.276-.27.2.507,4.908,3.32,4.348,13.035,6.261,4.617,19.489,13.885,19.48,16.551,0,.012,0,.021,0,.032.715,1.551.869,3.1.15,4.076C902.811,455.511,906.7,452.555,900.1,444.116Z" transform="translate(-813.12 -383.63)" fill="#8ecbdd"/>
        <path id="Trazado_102382" data-name="Trazado 102382" d="M812.925,442.371c-.032-.094-.061-.187-.087-.278C812.864,442.185,812.893,442.277,812.925,442.371Z" transform="translate(-812.649 -389.825)" fill="#ffcdbb"/>
        <path id="Trazado_102383" data-name="Trazado 102383" d="M813.277,443.229q-.176-.367-.315-.747A6.707,6.707,0,0,0,813.277,443.229Z" transform="translate(-812.674 -389.906)" fill="#ffcdbb"/>
        <path id="Trazado_102384" data-name="Trazado 102384" d="M813.453,443.611c-.022-.044-.045-.085-.066-.129C813.408,443.525,813.43,443.567,813.453,443.611Z" transform="translate(-812.763 -390.115)" fill="#ffcdbb"/>
        <path id="Trazado_102385" data-name="Trazado 102385" d="M814.571,435.924V435.9a6.3,6.3,0,0,0-.581.516h0a4.2,4.2,0,0,0-1.211,4.352A4.576,4.576,0,0,1,814.571,435.924Z" transform="translate(-812.598 -388.528)" fill="#ffcdbb"/>
        <path id="Trazado_102386" data-name="Trazado 102386" d="M816.752,435.96a19.717,19.717,0,0,1,4.877.973A17.866,17.866,0,0,0,816.752,435.96Z" transform="translate(-813.467 -388.542)" fill="#ffcdbb"/>
        <path id="Trazado_102387" data-name="Trazado 102387" d="M856.553,449.844c-.115-.516-.212-.973-.295-1.378-.194-.811-.369-1.474-.5-1.945a7.122,7.122,0,0,1-.735-1.128,5.431,5.431,0,0,1-1.121.1,3.594,3.594,0,0,1-1.591-.387c-.036-.018-.069-.043-.1-.062a7.061,7.061,0,0,0,1.039,2.383c.117.4.365,1.283.656,2.5.044.214.093.445.145.69C854.989,450.285,855.872,450,856.553,449.844Z" transform="translate(-820.886 -390.442)" fill="#74b6c1"/>
        <path id="Trazado_102388" data-name="Trazado 102388" d="M852.568,440.842a3.236,3.236,0,0,0,1.3.382,5.128,5.128,0,0,0,.845-.011c-1.29-2.961-1.141-7.478,1.444-13.7-3.444,5.465-4.559,9.739-4.193,12.864A2.7,2.7,0,0,0,852.568,440.842Z" transform="translate(-820.822 -386.775)" fill="#74b6c1"/>
        <path id="Trazado_102389" data-name="Trazado 102389" d="M876.728,489.548c-10.244,3.552-14.063-.464-14.063-.464C854.459,490.39,851.1,485.7,851.1,485.7l6-19.277a37.707,37.707,0,0,0-.066-5.437,5.3,5.3,0,0,0-.9-.132,14.541,14.541,0,0,0-1.593.078,40.142,40.142,0,0,1,.209,6.953h0l-6,19.277s3.356,4.694,11.562,3.388c0,0,3.819,4.016,14.063.465,3.631.822,7.516-1.26,9.466-2.537.283-.185.528-.354.722-.494C882.465,489.094,879.521,490.18,876.728,489.548Z" transform="translate(-820.162 -393.749)" fill="#74b6c1"/>
        <path id="Trazado_102390" data-name="Trazado 102390" d="M882.594,430.544l.171.168a12.865,12.865,0,0,1,1.208-.942c-.6.142-1.186.268-1.766.384l.387.391Z" transform="translate(-827.162 -387.247)" fill="#e7dcea"/>
        <path id="Trazado_102391" data-name="Trazado 102391" d="M871.655,444.064h0s1.885-7.431,6.295-12.14c-.073-.118-.143-.234-.208-.345a4.432,4.432,0,0,1-.459-1.043,44.271,44.271,0,0,1-12.909.395C869.41,435.528,871.655,444.064,871.655,444.064Z" transform="translate(-823.431 -387.407)" fill="#e7dcea"/>
        <path id="Trazado_102392" data-name="Trazado 102392" d="M880.623,459.011c-1.93-3.218-5.777-7.8-11.625-9.409a21.69,21.69,0,0,1-5.842,3c.6.15,1.2.308,1.794.478h0c.338.059.664.118.974.174h0l.023,0c.519.094.988.181,1.356.251l.013,0,.623.116s.08.254-.261.35a.453.453,0,0,1-.264.41,3.98,3.98,0,0,1-1.346.322c-.361.032-.767.052-1.2.066.6.139,1.2.28,1.732.409h0l0,0c.56.134,1.053.256,1.421.348l.012,0,.561.138s.059.231-.266.312a.4.4,0,0,1-.216.308,3.592,3.592,0,0,1-1.547.329c-1.933.061-5.165-.295-6.3-.059-.123.026-.31.071-.539.128a3.405,3.405,0,0,1,.378.166,4.39,4.39,0,0,1,.539.31,5.2,5.2,0,0,1,.483.386l0,0c.769.374,1.543.761,2.207,1.1h0l1.661.806a.306.306,0,0,1-.262.32.4.4,0,0,1-.277.247,3.586,3.586,0,0,1-1.589-.031c-1.516-.307-3.775-1.06-5.213-1.366a37.69,37.69,0,0,1,.066,5.437l-6,19.277s3.356,4.694,11.562,3.388c0,0,3.82,4.016,14.063.464,2.793.633,5.736-.454,7.834-1.57a19.634,19.634,0,0,0,2.9-1.877s-6.879-16.522-7.467-24.733c.039-1.584.161-3.137.325-4.586A32.54,32.54,0,0,0,880.623,459.011Z" transform="translate(-820.785 -391.396)" fill="#fff"/>
        <path id="Trazado_102393" data-name="Trazado 102393" d="M870.094,447.545c-4.879,2.9-10.347,2.929-13.182-.371.07.414.175.984.33,1.739.083.4.18.862.3,1.378a5.317,5.317,0,0,1,.822-.142c1.592-.1,5.582.07,7.165.146l.021,0,.524.025s.093.2-.168.349a.386.386,0,0,1-.139.32,3.514,3.514,0,0,1-1.491.656c-.308.071-.652.138-1.017.2.211.048.422.1.633.15l.354.09a21.692,21.692,0,0,0,5.842-3c5.848,1.608,9.694,6.191,11.624,9.409a32.543,32.543,0,0,1,.326-4.581c.306-2.385.75-4.788,1.011-6.116C880.34,450.34,875.39,450.1,870.094,447.545Z" transform="translate(-821.87 -390.888)" fill="#e7dcea"/>
        <path id="Trazado_102394" data-name="Trazado 102394" d="M856.761,447.144l.1.009-.005-.006Z" transform="translate(-821.838 -390.881)" fill="#e7dcea"/>
        <path id="Trazado_102395" data-name="Trazado 102395" d="M878.935,439.965a34.385,34.385,0,0,0-.945-3.714,56.817,56.817,0,0,0-3.18-4.964c-4.409,4.709-6.295,12.14-6.295,12.14h0s-2.245-8.536-7.281-13.133a10.272,10.272,0,0,0-5.6-2.784c-2.585,6.221-2.734,10.737-1.444,13.7a5.127,5.127,0,0,1-.845.011,3.236,3.236,0,0,1-1.3-.382,2.7,2.7,0,0,1-.6-.463,2.967,2.967,0,0,1-.372-.452,6.2,6.2,0,0,1-.875-2.675,8.341,8.341,0,0,1,1.28-5.531,12.758,12.758,0,0,1,1.85-2.305,15.836,15.836,0,0,1,2.31-1.918,12.05,12.05,0,0,0-2.563,1.639,11.5,11.5,0,0,0-2.1,2.254,8.511,8.511,0,0,0-.788,1.347c-.119.233-.209.48-.309.722-.081.249-.176.5-.237.751a8.315,8.315,0,0,0-.21,3.135,6.78,6.78,0,0,0,1.041,3,3.58,3.58,0,0,0,1.146,1.03c.036.02.069.044.1.062a3.594,3.594,0,0,0,1.591.387,5.427,5.427,0,0,0,1.121-.1,7.122,7.122,0,0,0,.735,1.128c.13.47.3,1.133.5,1.945-.155-.755-.26-1.325-.33-1.739,2.835,3.3,8.3,3.268,13.182.371,5.3,2.551,10.245,2.8,12.95.261.046-.044.091-.087.135-.132l-.006-.008A6.65,6.65,0,0,1,878.935,439.965Zm-23.72,3.067.1,0,.006.006Z" transform="translate(-820.291 -386.77)" fill="#fff"/>
        <path id="Trazado_102396" data-name="Trazado 102396" d="M889.487,427.669l-.012,0,.034.051Z" transform="translate(-828.683 -386.807)" fill="#fff"/>
        <path id="Trazado_102397" data-name="Trazado 102397" d="M882.912,430.631c.49.482,1.04,1.026,1.578,1.568v0a5.191,5.191,0,0,1,.52.334,4.411,4.411,0,0,1,.467.41,3.6,3.6,0,0,1,.278.3c-.019-.234-.036-.425-.052-.55a19.115,19.115,0,0,0-1.117-3.309c-.157.1-.312.2-.464.3A12.866,12.866,0,0,0,882.912,430.631Z" transform="translate(-827.309 -387.166)" fill="#fff"/>
        <path id="Trazado_102398" data-name="Trazado 102398" d="M871.973,457.015l-.012,0c-.368-.092-.861-.214-1.421-.348Z" transform="translate(-824.721 -392.873)" fill="#ffcdbb"/>
        <path id="Trazado_102399" data-name="Trazado 102399" d="M845.017,455.792l.026-.011a4.556,4.556,0,0,0,1.794.42c.943-.1,1.659-.173,2.228-.223a14.515,14.515,0,0,1,1.593-.077,5.3,5.3,0,0,1,.9.132c1.438.305,3.7,1.059,5.213,1.366a3.585,3.585,0,0,0,1.589.031.4.4,0,0,0,.278-.247,1.984,1.984,0,0,1-1.169-.337c-.306-.164-.231-.788-.231-.789-.664-.336-1.438-.723-2.207-1.1-.193-.074-.371-.167-.557-.241s-.369-.157-.561-.214l-.282-.1-.286-.079a5.851,5.851,0,0,0-.576-.132,7,7,0,0,0-1.179-.123,7.224,7.224,0,0,0-1.2.07,3.269,3.269,0,0,1,1.194-.328,4.414,4.414,0,0,1,1.25.055,5.352,5.352,0,0,1,.807.229c.229-.057.415-.1.539-.128,1.132-.236,4.364.119,6.3.059a3.592,3.592,0,0,0,1.547-.329.4.4,0,0,0,.216-.308,2.889,2.889,0,0,1-1.374-.172c-.369-.112-.358-.633-.358-.633-.534-.129-1.128-.27-1.732-.409.43-.013.837-.033,1.2-.066a3.98,3.98,0,0,0,1.346-.322.454.454,0,0,0,.264-.41,2.8,2.8,0,0,1-1.334-.124c-.37-.1-.42-.6-.42-.6-.309-.056-.636-.115-.973-.174q-1.107-.115-2.2-.315c-.729-.126-1.453-.275-2.176-.386a8.9,8.9,0,0,0-2.17-.126,7.911,7.911,0,0,0-2.131.5,5.762,5.762,0,0,1,2.1-.759,6.353,6.353,0,0,1,1.13-.061c.376.021.75.059,1.12.115.521.084,1.036.191,1.547.309.365-.065.709-.131,1.017-.2a3.514,3.514,0,0,0,1.491-.656.385.385,0,0,0,.139-.32,2.731,2.731,0,0,1-1.472.114c-.395-.044-.462-.561-.462-.561l1.577.074-.021,0c-1.583-.076-5.573-.249-7.165-.146a5.318,5.318,0,0,0-.822.142c-.681.161-1.563.441-2.5.773-.855.3-1.755.641-2.594.969-.295.115-.58.229-.856.339-2.73-1.863-9.438-6-15.265-9.492l.013-.006-.025,0s-.242-.228-.7-.582c-.4-.29-.856-.616-1.293-.915a20.061,20.061,0,0,0-4.279-2.095c-.448,1.956-1.93,7.781,13.143,14.958,1.972.7,4.141,1.36,6.532,1.961-1.137-.253-2.542-.535-4.111-.864,1.642.375,2.917.633,3.588.764a10.262,10.262,0,0,0,2.54,1.561c.152.068.3.132.452.191Zm11.29-4.283c.73.139,1.45.314,2.168.5-.74-.062-1.477-.152-2.209-.247s-1.463-.183-2.194-.22a10.324,10.324,0,0,0-2.178.084,8,8,0,0,0-2.1.635,5.8,5.8,0,0,1,2.051-.888,8.21,8.21,0,0,1,2.245-.161A16.6,16.6,0,0,1,856.307,451.509Z" transform="translate(-814.69 -388.8)" fill="#ffcdbb"/>
        <path id="Trazado_102400" data-name="Trazado 102400" d="M871.075,454.477l-.013,0c-.368-.07-.837-.157-1.356-.251Z" transform="translate(-824.546 -392.362)" fill="#ffcdbb"/>
        <path id="Trazado_102401" data-name="Trazado 102401" d="M865.835,451.033s.067.517.462.561a2.731,2.731,0,0,0,1.472-.114c.26-.146.168-.349.168-.349l-.524-.025Z" transform="translate(-823.737 -391.695)" fill="#eab3a2"/>
        <path id="Trazado_102402" data-name="Trazado 102402" d="M870.1,454.818a2.8,2.8,0,0,0,1.334.124c.341-.1.261-.35.261-.35l-.623-.116-1.369-.256-.023,0h0S869.727,454.716,870.1,454.818Z" transform="translate(-824.54 -392.361)" fill="#eab3a2"/>
        <path id="Trazado_102403" data-name="Trazado 102403" d="M870.893,457.293a2.889,2.889,0,0,0,1.374.172c.324-.081.266-.312.266-.312l-.561-.138-1.433-.353,0,0h0S870.524,457.18,870.893,457.293Z" transform="translate(-824.72 -392.872)" fill="#eab3a2"/>
        <path id="Trazado_102404" data-name="Trazado 102404" d="M860.7,452.551a6.356,6.356,0,0,0-1.13.061,5.76,5.76,0,0,0-2.1.759,7.909,7.909,0,0,1,2.131-.5,8.9,8.9,0,0,1,2.17.126c.724.111,1.447.26,2.176.386s1.462.238,2.2.315h0c-.6-.17-1.194-.328-1.793-.478l-.354-.09c-.21-.051-.422-.1-.633-.15-.511-.118-1.026-.225-1.547-.309C861.455,452.61,861.081,452.571,860.7,452.551Z" transform="translate(-821.987 -392.012)" fill="#eab3a2"/>
        <path id="Trazado_102405" data-name="Trazado 102405" d="M859.041,455.082a5.8,5.8,0,0,0-2.051.888,8,8,0,0,1,2.1-.635,10.326,10.326,0,0,1,2.178-.084c.731.037,1.46.13,2.194.22s1.469.184,2.209.247c-.718-.189-1.439-.364-2.168-.5a16.592,16.592,0,0,0-2.217-.294A8.211,8.211,0,0,0,859.041,455.082Z" transform="translate(-821.886 -392.506)" fill="#eab3a2"/>
        <path id="Trazado_102406" data-name="Trazado 102406" d="M866.637,461.835a1.983,1.983,0,0,0,1.169.337.306.306,0,0,0,.262-.32l-1.661-.806h0S866.331,461.672,866.637,461.835Z" transform="translate(-823.854 -393.79)" fill="#eab3a2"/>
        <path id="Trazado_102407" data-name="Trazado 102407" d="M858.935,458.206a3.27,3.27,0,0,0-1.194.328,7.218,7.218,0,0,1,1.2-.07,7,7,0,0,1,1.179.123,5.856,5.856,0,0,1,.577.132l.286.079.282.1c.191.058.372.143.561.214s.365.168.557.241l0,0a5.2,5.2,0,0,0-.483-.386,4.394,4.394,0,0,0-.539-.31,3.416,3.416,0,0,0-.378-.166,5.359,5.359,0,0,0-.807-.229A4.417,4.417,0,0,0,858.935,458.206Z" transform="translate(-822.043 -393.191)" fill="#eab3a2"/>
        <path id="Trazado_102408" data-name="Trazado 102408" d="M829.971,441c.456.354.7.582.7.582l.025,0,.077,0C830.564,441.433,830.286,441.228,829.971,441Z" transform="translate(-816.233 -389.596)" fill="#8ecbdd"/>
        <path id="Trazado_102409" data-name="Trazado 102409" d="M840.444,453.846c-2.391-.6-4.56-1.261-6.532-1.961-15.073-7.177-13.591-13-13.144-14.958h0l0,0a19.719,19.719,0,0,0-4.877-.973,11.123,11.123,0,0,0-1.312-.023,4.577,4.577,0,0,0-1.792,4.841l.009.032c.026.092.055.184.087.278l0,.013.006.017q.139.381.315.747l.021.043c.021.043.044.085.066.129,3.3,6.486,15.217,9.315,23.04,10.954C837.9,453.311,839.306,453.593,840.444,453.846Z" transform="translate(-812.602 -388.533)" fill="#ffc1ae"/>
        <path id="Trazado_102410" data-name="Trazado 102410" d="M829.978,439.223c.228.169.368.275.368.275s9.727-.917,12.882-3.105h0a12.672,12.672,0,0,1,.893-6.69,16.4,16.4,0,0,1-9.647,3.532c-5.821.161-8.29,3.5-8.29,3.5a7.2,7.2,0,0,1,1.7.986c.437.3.894.625,1.293.915C829.494,438.864,829.772,439.07,829.978,439.223Z" transform="translate(-815.441 -387.232)" fill="#74b6c1"/>
        <path id="Trazado_102411" data-name="Trazado 102411" d="M876.594,409.553a16.932,16.932,0,0,1,.672-2.723,14.72,14.72,0,0,1-5.238-1.4,7.586,7.586,0,0,1-3.687-3.025c-.026.183-.054.372-.081.57.058.616.135,1.53.2,2.614A12.763,12.763,0,0,0,876.594,409.553Z" transform="translate(-824.244 -381.522)" fill="#f4c0b5"/>
        <path id="Trazado_102412" data-name="Trazado 102412" d="M876.617,410.4a12.763,12.763,0,0,1-8.138-3.96,47.16,47.16,0,0,1-.108,7.724c2.073.88,4.834,1.374,5.673,1.121a3.516,3.516,0,0,0,2.345-2.53c0-.03.006-.06.006-.09A14.153,14.153,0,0,1,876.617,410.4Z" transform="translate(-824.267 -382.364)" fill="#fad4c8"/>
        <path id="Trazado_102413" data-name="Trazado 102413" d="M869.486,386.022l-.227-.083c.342,2.206.642,7.089-2.988,8.71h0c-1.077-.982-3.8-3.227-4.66-1.7-1.032,1.822,2.176,6.4,5.152,5.951.032,0,.064-.009.1-.016.017.026.032.053.048.079a7.587,7.587,0,0,0,3.687,3.026,14.72,14.72,0,0,0,5.238,1.4,21.517,21.517,0,0,0,4.321-.27c.265-1.764.5-3.885.617-6.118.07-1.365.094-2.772.05-4.164-.051.009-.1.018-.156.025s-.094.008-.141.01a.554.554,0,1,1-1.054.249.573.573,0,0,1,.011-.117,2.212,2.212,0,0,0-.668.337,1.094,1.094,0,0,1,.478-.813,1.646,1.646,0,0,1,.926-.308c.075,0,.17,0,.23,0l.2.012.153.006q-.03-.649-.081-1.288c-.089,0-.17,0-.245-.009a1.5,1.5,0,0,1-.444-.1,1.542,1.542,0,0,1-.391-.233,3.733,3.733,0,0,1-.474-.462.983.983,0,0,1,.617-.4,1.161,1.161,0,0,1,.661.059,1.129,1.129,0,0,1,.175.088q-.033-.291-.071-.578C875.053,390.36,870.491,386.867,869.486,386.022Zm1.587,5.226a1.981,1.981,0,0,1,.072-.19c.029-.06.063-.115.1-.174a2.306,2.306,0,0,1,.531-.585,3.142,3.142,0,0,1,1.383-.6,3.512,3.512,0,0,1,1.456.046,2.786,2.786,0,0,1,1.309.7,7.7,7.7,0,0,1-1.324.448c-.409.1-.8.18-1.181.248s-.755.126-1.136.192a7.333,7.333,0,0,0-1.271.305A1.216,1.216,0,0,1,871.073,391.248Zm3.7,2.2a.614.614,0,0,1-1.228.024.638.638,0,0,1,.021-.161l-.04.006-.23.038c-.091.013-.18.032-.272.036a2.52,2.52,0,0,1-.561-.009,1.746,1.746,0,0,1-.556-.164.778.778,0,0,1-.406-.415,1.114,1.114,0,0,0,.492.034,4.426,4.426,0,0,0,.457-.079c.15-.032.3-.072.453-.11l.228-.06c.07-.017.182-.038.271-.055a1.981,1.981,0,0,1,1.162.145,1.317,1.317,0,0,1,.753.845,2.777,2.777,0,0,0-.556-.188A.6.6,0,0,1,874.771,393.451ZM864.7,395.2a5.106,5.106,0,0,0-.933-.633,8.784,8.784,0,0,0-1.136-.488,2.6,2.6,0,0,1,2.576.523,2.976,2.976,0,0,1,.814,1.106,2.681,2.681,0,0,1,.213,1.317c-.268-.363-.5-.7-.744-1.005A6.032,6.032,0,0,0,864.7,395.2Zm14.675,4.3s.41.26.2.625a2.653,2.653,0,0,1-2.374.492,5.254,5.254,0,0,1-2.291-1.241,15.1,15.1,0,0,0,1.644-.427c.64-.225,1.555-.974,2.145-.516.55-.363.95.308.95.308a.29.29,0,0,1,.02.035.513.513,0,0,1-.309.724Zm-.326-4.522a7.433,7.433,0,0,0,.445.851c.04.07.086.134.13.2l.067.1a.611.611,0,0,1,.118.278.519.519,0,0,1-.075.335,1.171,1.171,0,0,1-.1.142,1.822,1.822,0,0,1-1.3.632,3.26,3.26,0,0,1-1.06-.137,7.339,7.339,0,0,0,.985-.24,1.693,1.693,0,0,0,.732-.485,1.293,1.293,0,0,0,.1-.144l-.043-.055c-.055-.072-.116-.142-.168-.217a5.393,5.393,0,0,1-.544-.944,5.8,5.8,0,0,1-.491-2.092,5.025,5.025,0,0,1,.332-2.084,14.979,14.979,0,0,0,.277,2.007A9.42,9.42,0,0,0,879.053,394.977Z" transform="translate(-822.812 -378.076)" fill="#fad4c8"/>
        <path id="Trazado_102414" data-name="Trazado 102414" d="M883.824,399.216a.068.068,0,0,0,.011-.024C883.837,399.187,883.829,399.2,883.824,399.216Z" transform="translate(-827.5 -380.849)" fill="#fad4c8"/>
        <path id="Trazado_102415" data-name="Trazado 102415" d="M878.48,402.93a5.253,5.253,0,0,0,2.291,1.241,2.653,2.653,0,0,0,2.374-.492c.214-.365-.2-.625-.2-.625h-.02c-.01,0-.02.008-.03.01A15.417,15.417,0,0,1,878.48,402.93Z" transform="translate(-826.382 -381.631)" fill="#894d66"/>
        <path id="Trazado_102416" data-name="Trazado 102416" d="M883.239,402.042a.294.294,0,0,0-.02-.035s-.4-.671-.95-.308c-.591-.459-1.506.29-2.145.516a15.1,15.1,0,0,1-1.644.427,15.417,15.417,0,0,0,4.42.134c.01,0,.02-.007.03-.01A.513.513,0,0,0,883.239,402.042Z" transform="translate(-826.382 -381.343)" fill="#995971"/>
        <path id="Trazado_102417" data-name="Trazado 102417" d="M875.955,392.127c.382-.068.772-.146,1.181-.248a7.709,7.709,0,0,0,1.325-.448,2.786,2.786,0,0,0-1.309-.7,3.513,3.513,0,0,0-1.456-.046,3.142,3.142,0,0,0-1.383.6,2.307,2.307,0,0,0-.531.585c-.034.059-.069.114-.1.174a1.975,1.975,0,0,0-.072.19,1.214,1.214,0,0,0-.064.4,7.334,7.334,0,0,1,1.271-.305C875.2,392.253,875.575,392.2,875.955,392.127Z" transform="translate(-825.35 -379.057)" fill="#64496d"/>
        <path id="Trazado_102418" data-name="Trazado 102418" d="M884.475,390.739a.983.983,0,0,0-.617.4,3.738,3.738,0,0,0,.474.462,1.546,1.546,0,0,0,.392.233,1.5,1.5,0,0,0,.444.1c.075.006.157.009.245.009a4.138,4.138,0,0,0,.418-.022.978.978,0,0,0-.172-.718,1.2,1.2,0,0,0-.522-.408A1.161,1.161,0,0,0,884.475,390.739Z" transform="translate(-827.507 -379.076)" fill="#64496d"/>
        <path id="Trazado_102419" data-name="Trazado 102419" d="M882.042,394.576a5.8,5.8,0,0,0,.491,2.092,5.4,5.4,0,0,0,.544.944c.051.075.112.145.168.217l.043.055a1.3,1.3,0,0,1-.1.144,1.693,1.693,0,0,1-.732.485,7.333,7.333,0,0,1-.985.24,3.262,3.262,0,0,0,1.06.137,1.9,1.9,0,0,0,1.082-.414,1.928,1.928,0,0,0,.222-.217,1.179,1.179,0,0,0,.1-.142.52.52,0,0,0,.075-.335.611.611,0,0,0-.118-.278l-.067-.1c-.043-.068-.09-.132-.13-.2a7.425,7.425,0,0,1-.445-.851,9.416,9.416,0,0,1-.6-1.849,14.979,14.979,0,0,1-.277-2.007A5.025,5.025,0,0,0,882.042,394.576Zm1.289,3.239c.005-.02.013-.029.011-.024A.07.07,0,0,1,883.331,397.815Z" transform="translate(-827.007 -379.447)" fill="#dda697"/>
        <path id="Trazado_102420" data-name="Trazado 102420" d="M863.923,410.921a14.2,14.2,0,0,0,.675-3.131,47.167,47.167,0,0,0,.108-7.724c-.062-1.083-.138-2-.2-2.613-.026-.274-.048-.488-.063-.633-2.976.452-6.184-4.129-5.152-5.951.864-1.526,3.583.719,4.66,1.7h0c3.63-1.621,3.329-6.5,2.988-8.71l.227.083c2.772,1.007,7.5,2.478,10.924,2.234a8.215,8.215,0,0,0,.995-.129c1-5.629-4.219-11.432-12.259-9.758a11.526,11.526,0,0,0-3.075,1.066h0c-8.169-2.4-10.114,19.594-13.421,25.8a10.573,10.573,0,0,0,.828,1.695C853.71,409.051,858.552,409.735,863.923,410.921Z" transform="translate(-820.493 -375.996)" fill="#64496d"/>
        <path id="Trazado_102421" data-name="Trazado 102421" d="M871.622,386.044c1.005.845,5.567,4.338,11.057,3.286h0c-.053-.415-.1-.762-.134-1.053C879.125,388.522,874.394,387.051,871.622,386.044Z" transform="translate(-824.947 -378.098)" fill="#f4c0b5"/>
        <path id="Trazado_102422" data-name="Trazado 102422" d="M865.816,398.138c.248.305.476.642.744,1.005a2.681,2.681,0,0,0-.213-1.317,2.977,2.977,0,0,0-.814-1.106,2.6,2.6,0,0,0-2.576-.523,8.779,8.779,0,0,1,1.136.488,5.108,5.108,0,0,1,.933.633A6.036,6.036,0,0,1,865.816,398.138Z" transform="translate(-823.135 -380.191)" fill="#efb9a8"/>
        <path id="Trazado_102423" data-name="Trazado 102423" d="M885.052,393.855c-.06,0-.155,0-.23,0a1.645,1.645,0,0,0-.926.308,1.094,1.094,0,0,0-.478.813,2.21,2.21,0,0,1,.668-.337.569.569,0,0,0-.011.117.554.554,0,1,0,1.054-.249c.047,0,.094-.006.141-.01s.1-.016.156-.025a1.781,1.781,0,0,0,.3-.074,1.447,1.447,0,0,0,.429-.225.65.65,0,0,0,.265-.4.938.938,0,0,1-.4.108,3.526,3.526,0,0,1-.387.009c-.078,0-.157-.006-.235-.009l-.154-.006Z" transform="translate(-827.415 -379.714)" fill="#4b3c4f"/>
        <path id="Trazado_102424" data-name="Trazado 102424" d="M877.228,394.418a1.981,1.981,0,0,0-1.162-.146c-.089.017-.2.039-.271.055l-.228.06c-.152.038-.3.078-.453.11a4.415,4.415,0,0,1-.457.079,1.115,1.115,0,0,1-.492-.034.778.778,0,0,0,.406.415,1.748,1.748,0,0,0,.556.164,2.52,2.52,0,0,0,.561.009c.093,0,.181-.024.272-.036l.23-.038.04-.006a.638.638,0,0,0-.021.161.614.614,0,1,0,1.214-.138,2.784,2.784,0,0,1,.556.188A1.317,1.317,0,0,0,877.228,394.418Z" transform="translate(-825.479 -379.814)" fill="#4b3c4f"/>
        <path id="Trazado_102425" data-name="Trazado 102425" d="M891.59,426.1c.145.367.343.874.566,1.451h0c.673,1.741,1.568,4.129,1.88,5.286.324,1.2.207,4.72.072,7.23h0c3.7,1.681,15.33,9.544,17.586,11.078l.135.089c.084.056.166.113.248.172h0a9.95,9.95,0,0,1,3.132,3.806c0-.012,0-.021,0-.032.009-2.666-13.219-11.934-19.48-16.551.561-9.715-4.145-12.528-4.348-13.035l.192.488C891.582,426.087,891.587,426.092,891.59,426.1Z" transform="translate(-829.083 -386.372)" fill="#74b6c1"/>
        <path id="Trazado_102426" data-name="Trazado 102426" d="M912.952,454.8A9.95,9.95,0,0,0,909.82,451s-14.6-9-20.552-9c0,0,1.32-.217,2.582-2.344h0c.135-2.51.252-6.029-.072-7.23-.311-1.157-1.207-3.544-1.88-5.286,0,0-.512.1-.679-.257a2.731,2.731,0,0,1-.366-1.431.386.386,0,0,0-.259.235,3.515,3.515,0,0,0-.14,1.624c.032.314.08.663.137,1.03.275.445.543.9.789,1.363.172.332.33.673.47,1.022a6.421,6.421,0,0,1,.307,1.09,5.739,5.739,0,0,1-.043,2.235,7.866,7.866,0,0,0-.21-2.179,8.917,8.917,0,0,0-.818-2.014c-.338-.65-.712-1.287-1.066-1.937s-.7-1.306-1.006-1.98c-.165-.3-.326-.591-.478-.867,0,0-.489.114-.7-.2a2.754,2.754,0,0,1-.547-1.227.457.457,0,0,0-.3.387,3.987,3.987,0,0,0,.129,1.378c.086.351.2.743.324,1.155-.327-.527-.651-1.044-.945-1.508,0,0-.489.178-.714-.135a2.9,2.9,0,0,1-.6-1.246.4.4,0,0,0-.222.3,3.6,3.6,0,0,0,.186,1.57c.232.76.6,1.7.966,2.634a19.109,19.109,0,0,1,1.117,3.309c.016.126.033.316.052.55a5.462,5.462,0,0,1,.478.69,4.433,4.433,0,0,1,.454,1.165,3.3,3.3,0,0,1,.074,1.236,7.274,7.274,0,0,0-.322-1.162,6.909,6.909,0,0,0-.5-1.076c-.1-.172-.2-.342-.311-.5l-.168-.245-.182-.236c-.117-.163-.255-.306-.384-.463s-.276-.291-.408-.451c-.538-.542-1.087-1.086-1.578-1.568l-.171-.168s-.568.273-.822.036a1.985,1.985,0,0,1-.7-1,.4.4,0,0,0-.145.342,2.336,2.336,0,0,0,.082.452,4.427,4.427,0,0,0,.459,1.043c.065.111.134.227.208.345a56.8,56.8,0,0,1,3.18,4.964,34.371,34.371,0,0,1,.945,3.714,6.65,6.65,0,0,0,2.659,3.583l.006.008c2.22,2.556,13.5,15.227,20.382,16.861,2.47.586,3.911.181,4.586-.732C913.821,457.906,913.667,456.354,912.952,454.8Zm-26.091-26.119a16.605,16.605,0,0,1,.992,2,8.234,8.234,0,0,1,.571,2.177,5.82,5.82,0,0,1-.18,2.228,8.057,8.057,0,0,0-.075-2.193,10.338,10.338,0,0,0-.623-2.089c-.27-.679-.593-1.341-.913-2.006s-.649-1.331-.946-2.012C886.1,427.412,886.495,428.038,886.861,428.685Z" transform="translate(-826.824 -385.965)" fill="#ffcdbb"/>
        <path id="Trazado_102427" data-name="Trazado 102427" d="M917.2,457.993l-.135-.089.384.261C917.368,458.106,917.286,458.049,917.2,457.993Z" transform="translate(-834.455 -393.133)" fill="#ffcdbb"/>
        <path id="Trazado_102428" data-name="Trazado 102428" d="M884.518,423.863l-.008-.01.788,1.23C884.993,424.6,884.721,424.179,884.518,423.863Z" transform="translate(-827.644 -386.009)" fill="#ffcdbb"/>
        <path id="Trazado_102429" data-name="Trazado 102429" d="M887.238,423.9a.216.216,0,0,0-.015-.021l.688,1.223C887.655,424.643,887.422,424.228,887.238,423.9Z" transform="translate(-828.211 -386.014)" fill="#ffcdbb"/>
        <path id="Trazado_102430" data-name="Trazado 102430" d="M891.641,426.228c0-.007-.008-.012-.011-.019l.577,1.47C891.984,427.1,891.786,426.595,891.641,426.228Z" transform="translate(-829.133 -386.501)" fill="#ffcdbb"/>
        <path id="Trazado_102431" data-name="Trazado 102431" d="M891.4,427.293c.168.359.679.257.679.257h0l-.577-1.47-.192-.488s-.221-.022-.276.27A2.732,2.732,0,0,0,891.4,427.293Z" transform="translate(-829.006 -386.372)" fill="#eab3a2"/>
        <path id="Trazado_102432" data-name="Trazado 102432" d="M887.778,424.982h0l-.013-.021-.688-1.223-.3-.542s-.263.006-.247.355a2.755,2.755,0,0,0,.547,1.227C887.289,425.1,887.777,424.982,887.778,424.982Z" transform="translate(-828.065 -385.871)" fill="#eab3a2"/>
        <path id="Trazado_102433" data-name="Trazado 102433" d="M885.169,424.972h0l-.01-.016-.788-1.23-.311-.486s-.237.019-.21.352a2.9,2.9,0,0,0,.6,1.246C884.681,425.15,885.169,424.972,885.169,424.972Z" transform="translate(-827.505 -385.88)" fill="#eab3a2"/>
        <path id="Trazado_102434" data-name="Trazado 102434" d="M889.72,428.53c.354.65.728,1.287,1.066,1.937a8.918,8.918,0,0,1,.818,2.014,7.875,7.875,0,0,1,.21,2.179,5.738,5.738,0,0,0,.043-2.235,6.43,6.43,0,0,0-.307-1.09c-.14-.35-.3-.69-.47-1.022-.247-.467-.514-.918-.789-1.363q-.172-.277-.347-.552-.292-.458-.593-.91l-.034-.051q-.3-.446-.6-.889v0Q889.179,427.561,889.72,428.53Z" transform="translate(-828.523 -386.572)" fill="#eab3a2"/>
        <path id="Trazado_102435" data-name="Trazado 102435" d="M887.98,429.638c.32.665.644,1.327.913,2.006a10.325,10.325,0,0,1,.623,2.089,8.062,8.062,0,0,1,.075,2.193,5.821,5.821,0,0,0,.18-2.228,8.232,8.232,0,0,0-.571-2.177,16.614,16.614,0,0,0-.992-2c-.366-.647-.764-1.272-1.174-1.892C887.331,428.307,887.654,428.975,887.98,429.638Z" transform="translate(-828.172 -386.798)" fill="#eab3a2"/>
        <path id="Trazado_102436" data-name="Trazado 102436" d="M881.472,430.438c.254.236.82-.036.822-.036h0l-.387-.391-.912-.922a.3.3,0,0,0-.218.35A1.985,1.985,0,0,0,881.472,430.438Z" transform="translate(-826.862 -387.104)" fill="#eab3a2"/>
        <path id="Trazado_102437" data-name="Trazado 102437" d="M885.425,433.275a5.18,5.18,0,0,0-.52-.334v0c.132.16.278.3.408.451s.267.3.384.463l.182.236.168.245c.113.162.214.332.311.5a6.915,6.915,0,0,1,.5,1.076,7.282,7.282,0,0,1,.322,1.163,3.3,3.3,0,0,0-.074-1.236,4.435,4.435,0,0,0-.454-1.165,5.463,5.463,0,0,0-.478-.69,3.61,3.61,0,0,0-.278-.3A4.414,4.414,0,0,0,885.425,433.275Z" transform="translate(-827.727 -387.91)" fill="#eab3a2"/>
        <path id="Trazado_102438" data-name="Trazado 102438" d="M912.115,455.234l-.384-.261c-2.256-1.534-13.885-9.4-17.586-11.078h0c-1.262,2.127-2.582,2.344-2.582,2.344,5.951,0,20.55,8.994,20.552,9Z" transform="translate(-829.119 -390.202)" fill="#eab3a2"/>
      </g>
      <g id="Grupo_54105" data-name="Grupo 54105" transform="translate(70.695 22.045)">
        <path id="Trazado_102439" data-name="Trazado 102439" d="M1012.832,427.354a3.372,3.372,0,0,1-2.814,5.561,3.376,3.376,0,0,0,.229-2.977,2.362,2.362,0,0,0-.739-4.448,2.363,2.363,0,0,1-.942,4.355,2.331,2.331,0,0,1-.625,0,2.353,2.353,0,0,0,2.04.213,3.371,3.371,0,0,1-6.186,1.7,3.371,3.371,0,0,0,5.851,1.676c.027-.03.051-.062.077-.094a3.338,3.338,0,0,0,1.052.381,3.373,3.373,0,0,0,2.058-6.36Z" transform="translate(-923.295 -408.397)" fill="#573d60"/>
        <path id="Trazado_102440" data-name="Trazado 102440" d="M990.213,432.852a15.942,15.942,0,0,1-5.048-.8,1,1,0,0,1-.708-.988,63.78,63.78,0,0,1,.715-7.677,6.555,6.555,0,1,0,5.3,11.909,19.814,19.814,0,0,0-.331-2.4Z" transform="translate(-918.66 -407.957)" fill="#64486d"/>
        <path id="Trazado_102441" data-name="Trazado 102441" d="M1023.953,634.736a6.528,6.528,0,0,0-.738-1.477,2.234,2.234,0,0,1,.044.67c-.261,2.9-4.439,3.058-7.407,3.589a8.554,8.554,0,0,0-3.113,1.5l-.539.44a5.547,5.547,0,0,0-1.642-4.068,7.014,7.014,0,0,0,3.793-5.111c2.827.565,6.231-.855,7.123-1.261l.025-.011c.127-.059.2-.093.2-.093l-.5-2c-.038.021-.077.04-.115.059a14.233,14.233,0,0,1-6.885,1.42,1.553,1.553,0,0,0-.862-.89,6.511,6.511,0,0,1-.21.642c-.081.214-.176.436-.281.662l.025.021a1.28,1.28,0,0,1,.351.644,1.964,1.964,0,0,1,.025.719,4.827,4.827,0,0,1-1.037,2.174,6.359,6.359,0,0,1-3.26,2.6,1.527,1.527,0,0,1-.28.051,10.5,10.5,0,0,0-.792.86c.05.013.1.029.144.044,2.534.795,2.695,3.715,2.7,4.428a12.368,12.368,0,0,1-6.424,2.008,3.509,3.509,0,0,1-1.955-.519,1.776,1.776,0,0,1-.686-.683l-.031.012s.156,4.779,5.371,4,6.643-3.929,10.081-4.369a13.723,13.723,0,0,1,2.24-.134C1022.355,640.765,1024.953,637.616,1023.953,634.736Z" transform="translate(-922.839 -450.539)" fill="#64486d"/>
        <path id="Trazado_102442" data-name="Trazado 102442" d="M1017.235,627.2a14.232,14.232,0,0,0,6.884-1.42c-.284-1.552-.511-3.188-.678-4.571l-6.364.7a16.3,16.3,0,0,1-.914,5.04,6.469,6.469,0,0,0,.21-.642A1.553,1.553,0,0,1,1017.235,627.2Z" transform="translate(-925.883 -449.345)" fill="#ffcdbb"/>
        <path id="Trazado_102443" data-name="Trazado 102443" d="M1024.493,630.594c-1.734,1.893-4.931,1.4-6.879.854a6.361,6.361,0,0,1-2.989,4.371c1.18,1.359.837,3.749.837,3.749h0a8.554,8.554,0,0,1,3.112-1.5c2.969-.531,7.146-.69,7.407-3.589a2.231,2.231,0,0,0-.043-.67,2.66,2.66,0,0,0-.523-1.084,9.212,9.212,0,0,1-1.194-3.17l-.025.011C1024.258,629.788,1024.352,630.111,1024.493,630.594Z" transform="translate(-925.561 -451.091)" fill="#ffcdbb"/>
        <path id="Trazado_102444" data-name="Trazado 102444" d="M1014.143,632.875a4.829,4.829,0,0,0,1.037-2.174l-.025-.719a1.281,1.281,0,0,0-.351-.644,20.177,20.177,0,0,1-3.921,6.134A6.359,6.359,0,0,0,1014.143,632.875Z" transform="translate(-924.778 -451.046)" fill="#ffcdbb"/>
        <path id="Trazado_102445" data-name="Trazado 102445" d="M1002.32,644.22a3.508,3.508,0,0,0,1.955.519,12.369,12.369,0,0,0,6.424-2.008c0-.713-.162-3.634-2.7-4.428a17.179,17.179,0,0,1-4.828,3.49c-1.211.433-1.859,1.079-1.542,1.744A1.775,1.775,0,0,0,1002.32,644.22Z" transform="translate(-922.826 -452.921)" fill="#ffcdbb"/>
        <path id="Trazado_102446" data-name="Trazado 102446" d="M1014.269,635.821a6.362,6.362,0,0,0,2.989-4.371c1.948.544,5.145,1.039,6.879-.854-.141-.482-.235-.806-.3-1.026-.892.406-4.3,1.826-7.123,1.261a7.014,7.014,0,0,1-3.793,5.111,5.547,5.547,0,0,1,1.642,4.068l.539-.44h0S1015.449,637.18,1014.269,635.821Z" transform="translate(-925.205 -451.094)" fill="#e0a696"/>
        <path id="Trazado_102447" data-name="Trazado 102447" d="M1016.285,630.153l.025.719A1.966,1.966,0,0,0,1016.285,630.153Z" transform="translate(-925.908 -451.216)" fill="#e0a696"/>
        <path id="Trazado_102448" data-name="Trazado 102448" d="M1008.819,522.588c0,.334-.007.667-.006,1,0,1.149.028,2.3.118,3.429.049.566.118,1.128.211,1.679a7.35,7.35,0,0,0,.436,1.573,1.639,1.639,0,0,0,.852,1,.935.935,0,0,0,.281.037,1.131,1.131,0,0,0,.3-.055,1.5,1.5,0,0,0,.561-.353,4.349,4.349,0,0,0,.881-1.283,12.473,12.473,0,0,0,.609-1.55,30.1,30.1,0,0,0,.836-3.3q.331-1.683.577-3.392c.082-.557.161-1.114.233-1.673-1.589.22-3.351.429-5.14.58Z" transform="translate(-924.345 -428.106)" fill="#64486d"/>
        <path id="Trazado_102449" data-name="Trazado 102449" d="M969.488,466.195c1.007-.179,1.967-.358,2.859-.527v-.013C971.706,465.779,970.773,465.958,969.488,466.195Z" transform="translate(-916.118 -416.8)" fill="#ffcdbb"/>
        <path id="Trazado_102450" data-name="Trazado 102450" d="M970.851,453.674l.612-8.438c-3.947.85-16.6,6.861-22.035,9.495a127.277,127.277,0,0,0-6-12.251q.332,2.324.567,4.656.24,2.374.376,4.757c.076,1.321.126,2.644.125,3.972a13.368,13.368,0,0,1-.9,6.133l.011.008a3.032,3.032,0,0,0,.352.436c1.735,1.779,12.26.3,20.063-1.092C963.593,455.772,970.851,453.674,970.851,453.674Z" transform="translate(-910.665 -411.951)" fill="#ffcdbb"/>
        <path id="Trazado_102451" data-name="Trazado 102451" d="M1001.929,442.215c-.652-.167-1.282-.327-1.877-.48l.078-1.712c.154-3.34.311-6.538.415-8.636a2.711,2.711,0,0,1-.782-.2,7.632,7.632,0,0,1-4.308,2.67,18.581,18.581,0,0,1-3.752.629l-.068.042a19.808,19.808,0,0,1,.331,2.4,8.362,8.362,0,0,1-.512,4.193l-.07.018a22.893,22.893,0,0,1-2.617.438l.18,12.692Z" transform="translate(-920.151 -409.588)" fill="#eab3a2"/>
        <path id="Trazado_102452" data-name="Trazado 102452" d="M980.661,458.637l-.251-.176-.006.006C980.485,458.522,980.571,458.579,980.661,458.637Z" transform="translate(-918.401 -415.295)" fill="#eab3a2"/>
        <path id="Trazado_102453" data-name="Trazado 102453" d="M977.12,455.07a25.127,25.127,0,0,0,.179-9.413l-.385.142-.007.1-.612,8.438s-7.259,2.1-6.832,7.675h0l.016,0c1.285-.237,2.218-.416,2.859-.541C972.281,459.34,973.421,457.045,977.12,455.07Z" transform="translate(-916.109 -412.616)" fill="#ffc1ae"/>
        <path id="Trazado_102454" data-name="Trazado 102454" d="M980.142,458.279l.006-.006c-.633-.445-1-.712-1-.712S979.518,457.86,980.142,458.279Z" transform="translate(-918.139 -415.106)" fill="#ffc1ae"/>
        <path id="Trazado_102455" data-name="Trazado 102455" d="M959.023,624.728l.1-.713a1.279,1.279,0,0,0-.232-.7,20.167,20.167,0,0,1-4.942,5.345,6.355,6.355,0,0,0,3.668-1.98A4.837,4.837,0,0,0,959.023,624.728Z" transform="translate(-912.867 -449.786)" fill="#ffcdbb"/>
        <path id="Trazado_102456" data-name="Trazado 102456" d="M960.671,621.253a6.364,6.364,0,0,0,.319-.595,1.547,1.547,0,0,1,.691,1.028,14.236,14.236,0,0,0,7.027-.183c0-1.337.043-2.727.105-3.967l-6.351-1.093A16.327,16.327,0,0,1,960.671,621.253Z" transform="translate(-914.273 -448.348)" fill="#ffcdbb"/>
        <path id="Trazado_102457" data-name="Trazado 102457" d="M968.2,626.531c-2.041,1.557-5.1.505-6.922-.374a6.36,6.36,0,0,1-3.714,3.774c.922,1.545.162,3.838.162,3.838l0,0a8.562,8.562,0,0,1,3.328-.926c3.016,0,7.156.582,7.924-2.224a2.222,2.222,0,0,0,.076-.667,2.65,2.65,0,0,0-.323-1.159,9.236,9.236,0,0,1-.615-3.332l-.027.007C968.113,625.7,968.149,626.032,968.2,626.531Z" transform="translate(-913.623 -450.235)" fill="#ffcdbb"/>
        <path id="Trazado_102458" data-name="Trazado 102458" d="M945.864,636.737a12.36,12.36,0,0,0,6.678-.842c.126-.7.482-3.605-1.872-4.835a17.186,17.186,0,0,1-5.368,2.583c-1.268.211-2.02.734-1.826,1.443a1.774,1.774,0,0,0,.555.794A3.511,3.511,0,0,0,945.864,636.737Z" transform="translate(-910.669 -451.406)" fill="#ffcdbb"/>
        <path id="Trazado_102459" data-name="Trazado 102459" d="M940.961,440.416a.892.892,0,0,1-.892.892h-1.653a.892.892,0,0,1-.244-.038q-.084,1.019-.183,2.036c-.07.784-.16,1.566-.244,2.348.773,3.381,1.512,6.29,2.138,8.614a14.947,14.947,0,0,1,2.911-.819q-.177-1.046-.327-2.094-.339-2.363-.58-4.735c-.161-1.582-.284-3.167-.376-4.756q-.041-.72-.071-1.44-.241-.432-.48-.854Z" transform="translate(-909.476 -411.342)" fill="#ffcdbb"/>
        <path id="Trazado_102460" data-name="Trazado 102460" d="M937.043,443q.171-1.09.361-2.179a.888.888,0,0,1-.273-.641v-1.729h-1.268q.541,2.717,1.084,5.168C936.979,443.415,937.009,443.209,937.043,443Z" transform="translate(-909.082 -411.109)" fill="#ffcdbb"/>
        <path id="Trazado_102461" data-name="Trazado 102461" d="M978.288,585.259v-.026c-.03,1.208-.1,2.305-.186,3.237A32.1,32.1,0,0,0,978.288,585.259Z" transform="translate(-917.919 -441.818)" fill="#64486d"/>
        <path id="Trazado_102462" data-name="Trazado 102462" d="M1022.839,585.208c-.163-.474-.331-.932-.5-1.382a40.2,40.2,0,0,1,1.57,5.785A29.625,29.625,0,0,0,1022.839,585.208Z" transform="translate(-927.175 -441.524)" fill="#64486d"/>
        <path id="Trazado_102463" data-name="Trazado 102463" d="M1011.739,595.779a140.474,140.474,0,0,0-1.165-18.666c-.021-.058-4.344-12.464-15.389-16.349,0,0,4.046-.525,5.663-3.681l.055.056,6.465-24.975a39.584,39.584,0,0,0,1.113-13.355c-1.085.192-2.545.433-4.206.667,0,.584-.026,1.167-.05,1.751-.062,1.157-.162,2.315-.327,3.467a24.532,24.532,0,0,1-.715,3.437,11.637,11.637,0,0,1-.628,1.677,5.173,5.173,0,0,1-1.06,1.559,2.059,2.059,0,0,1-2.021.548,1.89,1.89,0,0,1-.89-.651,3.248,3.248,0,0,1-.477-.86,8.1,8.1,0,0,1-.426-1.77,14.922,14.922,0,0,1-.134-1.763,29.109,29.109,0,0,1,.14-3.488c.014-.137.031-.274.046-.411-1.114-.375-7.026-2.124-16.137-.52a12.845,12.845,0,0,1-2.67.958,28.788,28.788,0,0,1,.138,3.461,14.717,14.717,0,0,1-.134,1.763,8.057,8.057,0,0,1-.426,1.77,3.263,3.263,0,0,1-.476.86,1.893,1.893,0,0,1-.89.651,2.061,2.061,0,0,1-2.021-.548,5.172,5.172,0,0,1-1.059-1.559,11.551,11.551,0,0,1-.628-1.677,24.3,24.3,0,0,1-.715-3.437c-.027-.187-.05-.374-.073-.561-.974.012-1.594-.021-1.594-.021a20.706,20.706,0,0,1-2.534-.688l-9.577,24.2a13.848,13.848,0,0,0-.518,1.309l0,0h0a12.227,12.227,0,0,0-.679,3.416,6.411,6.411,0,0,0,1.163,3.577l1.538,31.9a14.755,14.755,0,0,0,9.4,5.572l-9.2-1.477h0l-.584-.094.773,4.005,1.021.176,6.351,1.093.544.093,1.62-3.713-.52-.083a144.526,144.526,0,0,0,3.733-16.715h0c-1.145-8.918-4.867-17.693-10.147-20.835a10.427,10.427,0,0,0,6.676-1.8l.022.031c2.466-3,13.45-16.638,16.873-25.288a6.051,6.051,0,0,1,1.124.328v26.225h0a6.947,6.947,0,0,0-.555,3.538,6.815,6.815,0,0,0,2.583,3.708l11.908,30.689-.055-.16A16.957,16.957,0,0,0,1011.739,595.779Z" transform="translate(-913.659 -427.921)" fill="#64486d"/>
        <path id="Trazado_102464" data-name="Trazado 102464" d="M978.36,529.124a12.451,12.451,0,0,0,.609,1.55,4.348,4.348,0,0,0,.881,1.283,1.5,1.5,0,0,0,.561.353,1.12,1.12,0,0,0,.3.055.938.938,0,0,0,.282-.037,1.636,1.636,0,0,0,.851-1,7.353,7.353,0,0,0,.436-1.573c.093-.551.161-1.113.21-1.679.088-1.1.119-2.206.118-3.318a28.484,28.484,0,0,1-5.169.6c.029.153.054.306.084.459A29.788,29.788,0,0,0,978.36,529.124Z" transform="translate(-917.781 -429.165)" fill="#64486d"/>
        <path id="Trazado_102465" data-name="Trazado 102465" d="M1012.882,501.268c-.423.018-.848.028-1.273.031.372,1.136.729,2.082,1,2.77,2.515,2.305,3.821,6.234,2.958,11.377l-.026,0c0,.044,0,.089,0,.134,1.661-.234,3.121-.475,4.206-.667,1.246-.22,2-.374,2-.374l-4.37-14.366h0A13.453,13.453,0,0,1,1012.882,501.268Z" transform="translate(-924.93 -424.021)" fill="#fff"/>
        <path id="Trazado_102466" data-name="Trazado 102466" d="M1009.771,519.828c1.789-.15,3.551-.36,5.14-.58.009-.069.017-.137.026-.206a15.783,15.783,0,0,1-4.428-1.488Z" transform="translate(-924.545 -427.658)" fill="#fff"/>
        <path id="Trazado_102467" data-name="Trazado 102467" d="M983.409,473.9a2.835,2.835,0,0,1,1.531-.863,29.048,29.048,0,0,1,8.425-.238,17.157,17.157,0,0,0-5.943-4.341s10.336,3.578,13.424-7.024q-.013-1.606-.013-3.407c.363-7.167,3.812-9.849,6.672-10.774-1.974-1.045-8.5-2.7-8.5-2.7l-.351.327L985.669,456.93l-.18-12.692,0-.325a24.932,24.932,0,0,0-7.473,1.1c.019.094.036.188.052.282a25.127,25.127,0,0,1-.179,9.413s.363.266,1,.712l.252.176c-.09-.059-.176-.115-.257-.17-.624-.419-.991-.718-.991-.718-3.7,1.975-4.84,4.269-4.783,6.4v.013c.11,3.789,4,7.054,4,7.054l1.034,6.575A46.957,46.957,0,0,1,983.409,473.9Zm7.862-16.923,6.1.908-.244,1.512-.163,1.01-6.273-1.035.5-2.061Z" transform="translate(-916.873 -412.249)" fill="#fff"/>
        <path id="Trazado_102468" data-name="Trazado 102468" d="M957.21,629.929a6.36,6.36,0,0,0,3.714-3.774c1.821.879,4.881,1.931,6.922.374-.053-.5-.089-.834-.112-1.061-.949.242-4.55,1.038-7.233-.017a7.009,7.009,0,0,1-4.635,4.361,5.545,5.545,0,0,1,.9,4.294l.608-.337v0S958.132,631.474,957.21,629.929Z" transform="translate(-913.267 -450.232)" fill="#e0a696"/>
        <path id="Trazado_102469" data-name="Trazado 102469" d="M960.466,624.2l-.1.712A1.963,1.963,0,0,0,960.466,624.2Z" transform="translate(-914.209 -449.971)" fill="#e0a696"/>
        <path id="Trazado_102470" data-name="Trazado 102470" d="M958.069,622.8a1.547,1.547,0,0,0-.691-1.028,6.357,6.357,0,0,1-.319.595c-.119.2-.25.4-.393.6l.021.026a1.279,1.279,0,0,1,.232.7,1.966,1.966,0,0,1-.1.713,4.836,4.836,0,0,1-1.405,1.956,6.355,6.355,0,0,1-3.668,1.98,1.494,1.494,0,0,1-.284,0,10.629,10.629,0,0,0-.932.706c.047.022.089.047.134.07,2.354,1.23,2,4.133,1.872,4.835a12.359,12.359,0,0,1-6.678.841,3.509,3.509,0,0,1-1.832-.856,1.772,1.772,0,0,1-.555-.794l-.032.006s-.69,4.731,4.58,4.885,7.232-2.693,10.695-2.52a13.733,13.733,0,0,1,2.228.264c2.981.638,6.095-2,5.619-5.014a6.52,6.52,0,0,0-.465-1.584,2.222,2.222,0,0,1-.076.667c-.769,2.807-4.908,2.226-7.924,2.224a8.562,8.562,0,0,0-3.328.926l-.608.337a5.545,5.545,0,0,0-.9-4.294,7.01,7.01,0,0,0,4.636-4.361c2.683,1.056,6.284.259,7.233.017l.027-.007c.136-.035.211-.057.211-.057l-.144-2.052-.125.037A14.238,14.238,0,0,1,958.069,622.8Z" transform="translate(-910.661 -449.463)" fill="#64486d"/>
        <path id="Trazado_102471" data-name="Trazado 102471" d="M1005.3,481.93l.025-.014.014.051a147.769,147.769,0,0,1-.7-15.9c-3.088,10.6-13.424,7.025-13.424,7.025a17.156,17.156,0,0,1,5.943,4.341c2.682.3,4.908.922,5.737,1.671-.022.083-.044.161-.066.24a5.028,5.028,0,0,1,1.929,1.134c-.035.2-.069.418-.1.653A1.914,1.914,0,0,1,1005.3,481.93Z" transform="translate(-920.662 -416.886)" fill="#e7dcea"/>
        <path id="Trazado_102472" data-name="Trazado 102472" d="M985.2,428.946a1,1,0,0,0,.708.988,15.942,15.942,0,0,0,5.048.8,18.575,18.575,0,0,0,3.751-.629,7.633,7.633,0,0,0,4.308-2.67,2.709,2.709,0,0,0,.782.2c2.707.289,5.869-3.293,5.216-5.148-.462-1.313-2.42-.887-3.819-.387h0c-1.9-.732.074-7.049.074-7.049l-.04-.025a5.5,5.5,0,0,1-2.56,3.759l-4.275-2.288a3.641,3.641,0,0,1,1.7-2.506c-2.172.543-2.151,2.189-2.151,2.189l-5.881-2.92a25.572,25.572,0,0,0-1.106,3.156c.045,0,.09-.006.134-.007a1.9,1.9,0,0,1,.649.114,1.688,1.688,0,0,1,.61.384,1.771,1.771,0,0,1-.646.309,2.494,2.494,0,0,1-.608.078,2.593,2.593,0,0,1-.369-.026c-.333,1.3-.6,2.651-.813,4A63.78,63.78,0,0,0,985.2,428.946Zm.99-3.545.6-.3a.539.539,0,0,1,.786.29l.235.517.729-.194a1.344,1.344,0,0,1,1.026.11l2.489,1.4S987.6,428.008,986.191,425.4Zm6.486-3.586a.579.579,0,0,1-.7-.454.609.609,0,0,1,.454-.717.579.579,0,0,1,.7.455A.609.609,0,0,1,992.677,421.814Zm-4.039,6.684a1.258,1.258,0,0,1-.457-.072,1.284,1.284,0,0,1-.4-.231.952.952,0,0,1-.278-.392,2.22,2.22,0,0,1,.453.058,3.535,3.535,0,0,1,.386.111,3.3,3.3,0,0,1,.371.155,2.178,2.178,0,0,1,.39.238A.933.933,0,0,1,988.638,428.5Zm14.962-4.966a10.8,10.8,0,0,0-1.108.243,6.5,6.5,0,0,0-.95.353,7.953,7.953,0,0,0-.9.49c-.3.187-.6.4-.957.633a2.2,2.2,0,0,1,.485-1.144,2.746,2.746,0,0,1,1-.783,2.645,2.645,0,0,1,1.257-.24A1.979,1.979,0,0,1,1003.6,423.532Zm-10.821-5.675a6.9,6.9,0,0,1,1.309.43,3.078,3.078,0,0,1,1.222.847,1.555,1.555,0,0,1,.325.728,1.878,1.878,0,0,1-.039.733c-.13-.206-.24-.409-.366-.575a1.651,1.651,0,0,0-.41-.392,6.666,6.666,0,0,0-1.085-.53c-.41-.178-.8-.38-1.192-.589s-.772-.426-1.183-.684A3.438,3.438,0,0,1,992.779,417.857Zm-3.656.73a4.142,4.142,0,0,1-.331,2.231,4.316,4.316,0,0,1-.6,1.007,1.684,1.684,0,0,1-.52.434,1.419,1.419,0,0,1-.33.116.477.477,0,0,0-.153.053c-.035.018-.072.071-.079.187a.712.712,0,0,0,.076.356,1.741,1.741,0,0,0,.624.664,4.892,4.892,0,0,0,2.02.55,4.41,4.41,0,0,1-1.117.165,2.76,2.76,0,0,1-1.159-.233,2.051,2.051,0,0,1-.95-.827,1.346,1.346,0,0,1-.184-.7,1.033,1.033,0,0,1,.09-.4.825.825,0,0,1,.307-.352,1.132,1.132,0,0,1,.359-.136.855.855,0,0,0,.191-.059,1.1,1.1,0,0,0,.329-.254,5.725,5.725,0,0,0,.614-.82A7.079,7.079,0,0,0,989.123,418.587Zm-2.138.179a.579.579,0,0,1,.7.455.609.609,0,0,1-.454.716.578.578,0,0,1-.7-.454A.608.608,0,0,1,986.985,418.766Z" transform="translate(-919.405 -405.838)" fill="#ffcdbb"/>
        <path id="Trazado_102473" data-name="Trazado 102473" d="M987.576,421.389a.609.609,0,0,0,.454-.716.579.579,0,0,0-.7-.455.608.608,0,0,0-.453.717A.578.578,0,0,0,987.576,421.389Z" transform="translate(-919.754 -407.29)" fill="#4b3c4f"/>
        <path id="Trazado_102474" data-name="Trazado 102474" d="M994.225,422.592a.609.609,0,0,0-.454.717.579.579,0,0,0,.7.454.609.609,0,0,0,.454-.716A.579.579,0,0,0,994.225,422.592Z" transform="translate(-921.195 -407.787)" fill="#4b3c4f"/>
        <path id="Trazado_102475" data-name="Trazado 102475" d="M995.365,420.289a6.665,6.665,0,0,1,1.085.53,1.649,1.649,0,0,1,.41.392c.127.166.236.368.366.575a1.879,1.879,0,0,0,.039-.733,1.556,1.556,0,0,0-.325-.728,3.079,3.079,0,0,0-1.222-.847,6.9,6.9,0,0,0-1.309-.43,3.438,3.438,0,0,0-1.419-.032c.411.258.795.471,1.183.684S994.954,420.111,995.365,420.289Z" transform="translate(-921.034 -407.029)" fill="#64486d"/>
        <path id="Trazado_102476" data-name="Trazado 102476" d="M987.882,418.052a1.771,1.771,0,0,0,.646-.309,1.687,1.687,0,0,0-.61-.384,1.9,1.9,0,0,0-.649-.114c-.044,0-.089,0-.134.007a1.676,1.676,0,0,0-.536.129.982.982,0,0,0-.555.519c.269.065.448.132.647.171.072.014.143.024.215.033a2.593,2.593,0,0,0,.369.026A2.494,2.494,0,0,0,987.882,418.052Z" transform="translate(-919.581 -406.672)" fill="#64486d"/>
        <path id="Trazado_102477" data-name="Trazado 102477" d="M992.323,430.343l-2.489-1.4a1.344,1.344,0,0,0-1.026-.11l-.729.194-.235-.517a.539.539,0,0,0-.786-.29l-.6.3C987.858,431.121,992.323,430.343,992.323,430.343Z" transform="translate(-919.667 -408.952)" fill="#ea6a6a"/>
        <path id="Trazado_102478" data-name="Trazado 102478" d="M988.949,431.819a3.54,3.54,0,0,0-.386-.112,2.221,2.221,0,0,0-.453-.058.952.952,0,0,0,.278.392,1.284,1.284,0,0,0,.4.231,1.258,1.258,0,0,0,.457.072.933.933,0,0,0,.463-.133,2.176,2.176,0,0,0-.39-.238A3.29,3.29,0,0,0,988.949,431.819Z" transform="translate(-920.014 -409.685)" fill="#eab3a2"/>
        <path id="Trazado_102479" data-name="Trazado 102479" d="M1008.17,458.878q0,1.8.013,3.408a147.828,147.828,0,0,0,.7,15.9c.179.66,2.27,8.141,5.3,9.625a4.3,4.3,0,0,0,1.856-1.182,5.722,5.722,0,0,0,1.318-3.049h0l0-.031c.01-.063.019-.127.027-.19,4.039-28.449,1.767-33.882-2.212-35.36-.112.032-.225.066-.339.1C1011.982,449.029,1008.533,451.711,1008.17,458.878Z" transform="translate(-924.211 -413.106)" fill="#ffcdbb"/>
        <path id="Trazado_102480" data-name="Trazado 102480" d="M996.683,412.029a3.641,3.641,0,0,0-1.7,2.506l4.275,2.288a5.5,5.5,0,0,0,2.56-3.759l.04.025s-1.972,6.318-.074,7.049h0c1.4-.5,3.357-.926,3.819.387.653,1.855-2.509,5.437-5.216,5.148-.1,2.1-.262,5.3-.415,8.636a5.077,5.077,0,0,0,4.167-2.338c5.558,3.741,9.676-3.3,7.274-6.581a3.369,3.369,0,0,1-4.992,3.42c-.026.032-.05.064-.077.094a3.371,3.371,0,0,1-5.851-1.676,3.37,3.37,0,0,0,6.185-1.7,2.352,2.352,0,0,1-2.04-.213,2.332,2.332,0,0,0,.625,0,2.363,2.363,0,0,0,.942-4.355,2.362,2.362,0,0,1,.739,4.448,3.377,3.377,0,0,1-.229,2.977,3.372,3.372,0,0,0,2.814-5.561,3.379,3.379,0,0,1,1.713,1.889,4.993,4.993,0,0,0-3.048-6.185,1.957,1.957,0,0,0-.339-.16,12.392,12.392,0,0,0,1.337-6.884c-.547-4.3-10.886-10.252-14.571-6.348-5.709.017-6.616,5.834-6.616,5.834l.647.321,5.881,2.92S994.51,412.573,996.683,412.029Zm10.588,6.236a1.914,1.914,0,0,0-1.516.672c-.336-2.237-1.314-5.813-4.14-5.9,0,0,3.225-.662,4.632,4.007.11-2.782-.3-6.816-3.45-7.607C1002.8,409.434,1008.029,409.491,1007.271,418.265Z" transform="translate(-919.991 -403.874)" fill="#64486d"/>
        <path id="Trazado_102481" data-name="Trazado 102481" d="M1014.739,498.033h0l-.019.006c-.143.047-.293.089-.448.126a9.727,9.727,0,0,1-3.465.345c.208.748.423,1.453.634,2.1.425,0,.85-.013,1.273-.031a13.453,13.453,0,0,0,4.5-1.1h0l-.622-2.623A4.3,4.3,0,0,1,1014.739,498.033Z" transform="translate(-924.762 -423.327)" fill="#e7dcea"/>
        <path id="Trazado_102482" data-name="Trazado 102482" d="M959.6,483.609l1.683.06C960.5,483.637,959.867,483.617,959.6,483.609Z" transform="translate(-914.048 -420.556)" fill="#eab3a2"/>
        <path id="Trazado_102483" data-name="Trazado 102483" d="M960.869,484.242c.444-.007.417-.573.417-.573h-.006l-1.683-.06h0S959.786,484.323,960.869,484.242Z" transform="translate(-914.048 -420.556)" fill="#ffcdbb"/>
        <path id="Trazado_102484" data-name="Trazado 102484" d="M963.568,481.314l1.657.293C964.455,481.467,963.834,481.36,963.568,481.314Z" transform="translate(-914.879 -420.076)" fill="#eab3a2"/>
        <path id="Trazado_102485" data-name="Trazado 102485" d="M972.049,486.69a12.677,12.677,0,0,1-1.306,1.736,11.958,11.958,0,0,0-1.128,1.477c.126,0,.24.008.348.015l3.649-5.62c-.269-.163-.528-.316-.773-.454A4.757,4.757,0,0,1,972.049,486.69Z" transform="translate(-916.144 -420.605)" fill="#eab3a2"/>
        <path id="Trazado_102486" data-name="Trazado 102486" d="M964.74,482.117c.44.055.492-.509.492-.509h0l-.007,0-1.657-.293h0S963.656,482.048,964.74,482.117Z" transform="translate(-914.879 -420.076)" fill="#ffcdbb"/>
        <path id="Trazado_102487" data-name="Trazado 102487" d="M960.239,486.159c.418-.006.417-.51.417-.567v-.006l-1.691-.061a.681.681,0,0,0,.041.1A1.149,1.149,0,0,0,960.239,486.159Z" transform="translate(-913.916 -420.957)" fill="#ffcdbb"/>
        <path id="Trazado_102488" data-name="Trazado 102488" d="M967.416,487.073a11.693,11.693,0,0,0,1.182-1.56,4.247,4.247,0,0,0,.621-1.69,1.525,1.525,0,0,0-.411-1.259c-.728-.194-1.863-.43-2.984-.647l-1.485-.278-.2-.037s-.051.564-.492.509c-1.084-.07-1.174-.8-1.174-.8l-.14-.024s-.144.761,1.382,1.495c.439.211.976.433,1.538.655-1.187-.112-2.92-.2-4.23-.25,0,0,.027.566-.417.573-1.083.081-1.274-.633-1.274-.633l-.142,0s-.037.773,1.576,1.289c.3.1.645.191,1.01.285-.429,0-.854.007-1.251.013,0,.057,0,.561-.417.567a1.149,1.149,0,0,1-1.234-.535l-.553.013s.006.774,1.646,1.2,4.469.738,5.391,1.158c.134.061.349.178.617.331-2.156.459-5.371,1.31-5.371,1.31s.184.752,1.877.788c.932.02,2.208-.074,3.332-.13.038-.086.078-.173.121-.261A10.615,10.615,0,0,1,967.416,487.073Zm-4.972,1.831c-1.021.371-1.4-.265-1.4-.265l1.644-.4S962.869,488.776,962.443,488.9Z" transform="translate(-913.78 -420.069)" fill="#eab3a2"/>
        <path id="Trazado_102489" data-name="Trazado 102489" d="M961.767,490.479s.377.636,1.4.265c.425-.127.246-.664.246-.664Z" transform="translate(-914.502 -421.91)" fill="#ffcdbb"/>
        <path id="Trazado_102490" data-name="Trazado 102490" d="M1015.637,498.353c-.153.047-.3.086-.448.126C1015.344,498.442,1015.494,498.4,1015.637,498.353Z" transform="translate(-925.679 -423.641)" fill="#ffcdbb"/>
        <path id="Trazado_102491" data-name="Trazado 102491" d="M931.908,435.689h2.784q-.325-1.681-.641-3.449a4.713,4.713,0,0,1-.435.872l.036.924s-.709.212-1.725.5a1.879,1.879,0,0,1-.293.081h0C931.726,434.978,931.817,435.335,931.908,435.689Z" transform="translate(-908.198 -409.809)" fill="#ffc1ae"/>
        <path id="Trazado_102492" data-name="Trazado 102492" d="M935.577,448.309l.358-2.656c.1-.677.2-1.355.3-2.032q-.54-2.446-1.084-5.168h-2.685c1.064,3.986,2.107,7.349,3.074,10.153Z" transform="translate(-908.372 -411.109)" fill="#ffc1ae"/>
        <path id="Trazado_102493" data-name="Trazado 102493" d="M937.558,447.582l-.318,2.661-.226,1.684c.609,1.688,1.18,3.145,1.7,4.385q.5-.233,1.019-.434c-.626-2.324-1.366-5.233-2.138-8.614C937.581,447.37,937.569,447.476,937.558,447.582Z" transform="translate(-909.323 -412.952)" fill="#ffc1ae"/>
        <path id="Trazado_102494" data-name="Trazado 102494" d="M1009.847,418.512c-1.406-4.669-4.632-4.007-4.632-4.007,2.826.09,3.8,3.666,4.14,5.9a1.914,1.914,0,0,1,1.516-.672c.758-8.774-4.475-8.831-4.475-8.831C1009.547,411.7,1009.957,415.73,1009.847,418.512Z" transform="translate(-923.592 -405.345)" fill="#573d60"/>
        <path id="Trazado_102495" data-name="Trazado 102495" d="M1006.264,425.681a2.645,2.645,0,0,0-1.257.24,2.745,2.745,0,0,0-1,.783,2.2,2.2,0,0,0-.485,1.144c.355-.232.654-.446.957-.633a7.954,7.954,0,0,1,.9-.49,6.5,6.5,0,0,1,.95-.353,10.791,10.791,0,0,1,1.108-.243A1.979,1.979,0,0,0,1006.264,425.681Z" transform="translate(-923.238 -408.435)" fill="#f2bbaa"/>
        <path id="Trazado_102496" data-name="Trazado 102496" d="M964.937,565.184c5.279,3.143,9,11.918,10.147,20.835h0c.089-.531.183-1.253.263-2.12.086-.931.156-2.029.186-3.237.132-5.282-.5-12.648-3.9-17.244l-.022-.031A10.426,10.426,0,0,1,964.937,565.184Z" transform="translate(-915.165 -437.248)" fill="#573d60"/>
        <path id="Trazado_102497" data-name="Trazado 102497" d="M1010.757,567.209c-1.617,3.156-5.663,3.681-5.663,3.681,11.044,3.886,15.368,16.291,15.389,16.349h0s-.049-.4-.182-1.105a40.211,40.211,0,0,0-1.57-5.785,35.14,35.14,0,0,0-7.918-13.084Z" transform="translate(-923.567 -438.047)" fill="#573d60"/>
        <path id="Trazado_102498" data-name="Trazado 102498" d="M970.559,611.67a14.755,14.755,0,0,1-9.4-5.572h0l.2,4.095h0Z" transform="translate(-914.374 -446.183)" fill="#573d60"/>
        <path id="Trazado_102499" data-name="Trazado 102499" d="M1023.454,615.443h0a16.958,16.958,0,0,1-9.733-2.648l.055.16,1.2,3.523Z" transform="translate(-925.371 -447.584)" fill="#573d60"/>
        <path id="Trazado_102500" data-name="Trazado 102500" d="M1009.023,486.124a.877.877,0,0,1,.068.291,33.059,33.059,0,0,0,1.343,9.847,9.726,9.726,0,0,0,3.465-.345c.147-.04.295-.079.448-.126l.019-.005h0c-3.033-1.484-5.125-8.965-5.3-9.625l-.014-.051Z" transform="translate(-924.389 -421.079)" fill="#ffc1ae"/>
        <path id="Trazado_102501" data-name="Trazado 102501" d="M1023.75,620.039l.529-4.016-.784.1-8.479,1.035-1.1.134,1.852,3.635.841-.093,6.364-.7Z" transform="translate(-925.412 -448.26)" fill="#64486d"/>
        <path id="Trazado_102502" data-name="Trazado 102502" d="M903.206,505.944s9.088,1.651,14,9.694A13.071,13.071,0,0,0,903.206,505.944Z" transform="translate(-902.25 -425.216)" fill="#ea6a6a"/>
        <path id="Trazado_102503" data-name="Trazado 102503" d="M927.147,515.737s3.267-7.7,14-9.694C941.149,506.043,928.083,504.52,927.147,515.737Z" transform="translate(-907.259 -425.235)" fill="#ea6a6a"/>
        <path id="Trazado_102504" data-name="Trazado 102504" d="M918.148,434.11H920.5c-.259-.387-.594-.813-.944-1.257a12.958,12.958,0,0,1-1.971-3.056c-1.263-.166-2.95-.5-4.117-.6-1.688-.142-1.949.588-1.949.588s1.577.6,3.242,1.193c-.376-.032-.731-.055-1.048-.064-1.692-.044-1.913.7-1.913.7s3.741,1.185,5.828,1.7c-.6.025-1.184.057-1.667.111-1.683.19-1.8.955-1.8.955s1.33.226,2.86.457A1.234,1.234,0,0,1,918.148,434.11Z" transform="translate(-903.99 -409.169)" fill="#ffcdbb"/>
        <path id="Trazado_102505" data-name="Trazado 102505" d="M917.945,425.916c-1.611-.523-2.032.126-2.032.126s1.051.711,2.3,1.524a2.87,2.87,0,0,1,.406-1.412C918.382,426.065,918.155,425.984,917.945,425.916Z" transform="translate(-904.909 -408.443)" fill="#ffcdbb"/>
        <path id="Trazado_102506" data-name="Trazado 102506" d="M926.241,428.006a5.158,5.158,0,0,1,.089.569.654.654,0,1,0,1.3-.127c-.01-.1-.029-.247-.055-.412a6.419,6.419,0,0,0-.233-.951c-.468-.328-1.275-.431-2.005-.882A3.485,3.485,0,0,1,926.241,428.006Z" transform="translate(-906.88 -408.545)" fill="#64486d"/>
        <path id="Trazado_102507" data-name="Trazado 102507" d="M942.969,438.067a1.4,1.4,0,0,1,1.4,1.4v.142a.732.732,0,1,0,1.464,0v-.142a2.866,2.866,0,0,0-2.863-2.863H942.4c.108.487.2.976.3,1.465Z" transform="translate(-910.449 -410.721)" fill="#64486d"/>
        <path id="Trazado_102508" data-name="Trazado 102508" d="M906,435.4h.482v1.687a9.62,9.62,0,0,0,3.437-2.485v.8h5.844v.146a1.233,1.233,0,0,0,1.229,1.23h.5a11.131,11.131,0,0,0,6.347-3.483,1.223,1.223,0,0,0-.8-.3h-2.189c-.013-.028-.025-.056-.039-.084a12.751,12.751,0,0,0-1.385-1.983,16.228,16.228,0,0,1-1.523-2.174,4.63,4.63,0,0,1-.285-.625,1.92,1.92,0,0,1,.162-1.871,2.334,2.334,0,0,1,.2-.253,2.577,2.577,0,0,1,2.7-.682,1.73,1.73,0,0,1,.215.1,2.837,2.837,0,0,1-.607-.743.29.29,0,0,1,.333-.42,7.279,7.279,0,0,0,1.216.209,3.117,3.117,0,0,0-.69-.369,3.878,3.878,0,0,0-4.125,1.016,3.737,3.737,0,0,0-.486.648,2.871,2.871,0,0,0-.406,1.412,3.862,3.862,0,0,0,.3,1.506,12.958,12.958,0,0,0,1.971,3.056c.35.444.686.871.944,1.257h-2.357a1.234,1.234,0,0,0-1.121.729,1.2,1.2,0,0,0-.071.21h-5.88v-.267a.892.892,0,0,0-.892-.892h-1.653a.892.892,0,0,0-.892.892v.267h-.489C906,434.429,906,434.917,906,435.4Z" transform="translate(-902.833 -408.06)" fill="#64486d"/>
        <path id="Trazado_102509" data-name="Trazado 102509" d="M904.493,436.6A2.5,2.5,0,0,0,902,439.1v.511a.732.732,0,1,0,1.464,0V439.1a1.032,1.032,0,0,1,1.031-1.03h.346c.089-.489.183-.977.288-1.465Z" transform="translate(-901.997 -410.721)" fill="#64486d"/>
        <path id="Trazado_102510" data-name="Trazado 102510" d="M923.328,424.787a2.839,2.839,0,0,0,.607.743,2.9,2.9,0,0,0,.388.286c.731.452,1.537.554,2.005.882.019.013.04.025.057.04a1.825,1.825,0,0,1,.546.825l-.371.087c.027.165.045.308.055.412a.654.654,0,1,1-1.3.127,5.13,5.13,0,0,0-.089-.569c-.533-.019-.951-.043-1.155-.071a20.1,20.1,0,0,1-3.256-1.185,1.92,1.92,0,0,0-.162,1.871c.3.187.584.365.855.53-.23.043-.425.076-.569.095a16.221,16.221,0,0,0,1.523,2.174,12.753,12.753,0,0,1,1.385,1.983c.014.028.025.056.039.084h2.189a1.222,1.222,0,0,1,.8.3,1.263,1.263,0,0,1,.16.165c.8-.2,1.588-.41,2.27-.6h0a1.871,1.871,0,0,0,.293-.081c1.016-.284,1.725-.5,1.725-.5l-.036-.924a4.715,4.715,0,0,0,.435-.872q.315,1.767.641,3.449h1.554v-.267a.892.892,0,0,1,.892-.892h.468c-1.356-2.173-2.523-3.759-3.21-4.141-.186-.207-.492-.543-.864-.934l.016-.1H931.1c-1.1-1.151-2.716-2.7-3.544-2.866-.739-.148-1.758-.168-2.682-.262a7.276,7.276,0,0,1-1.216-.209A.29.29,0,0,0,923.328,424.787Z" transform="translate(-905.866 -408.159)" fill="#ffcdbb"/>
        <path id="Trazado_102511" data-name="Trazado 102511" d="M919.687,473.891c-1.718,1.18-8.369,5.348-12.244,2.006h0c.984,5.458,1.816,14-1.155,19.314a29.364,29.364,0,0,1-3.082,4.039,13.071,13.071,0,0,1,14,9.694,5.374,5.374,0,0,0,4.931.08c.936-11.216,14-9.694,14-9.694a29.364,29.364,0,0,1-3.082-4.039c-2.479-4.436-2.311-11.114-1.615-16.375a32.163,32.163,0,0,0-.408,4.524C929.182,480.213,925.455,475.6,919.687,473.891Z" transform="translate(-902.25 -418.523)" fill="#ff8383"/>
        <path id="Trazado_102512" data-name="Trazado 102512" d="M920.647,471.813c-5.014,2.85-9.976,2.415-13.049-.515.062.4.15.936.279,1.63.123.659.281,1.461.485,2.427h0c3.876,3.342,10.527-.826,12.244-2.006,5.768,1.7,9.495,6.322,11.349,9.549a32.161,32.161,0,0,1,.408-4.524c.451-3.064,1.136-6.159,1.308-6.918C930.519,474.244,925.57,474.611,920.647,471.813Z" transform="translate(-903.169 -417.98)" fill="#ea6a6a"/>
        <path id="Trazado_102513" data-name="Trazado 102513" d="M907.431,471.136h0Z" transform="translate(-903.134 -417.947)" fill="#ea6a6a"/>
        <path id="Trazado_102514" data-name="Trazado 102514" d="M930.814,451.682l.13-.971.226-1.684.318-2.661c.011-.106.023-.212.035-.318.084-.782.173-1.563.244-2.348q.1-1.017.183-2.036a.892.892,0,0,1-.375-.214q-.19,1.089-.361,2.179c-.034.206-.064.413-.1.619-.1.677-.2,1.355-.3,2.032l-.358,2.656-.036.3-.28,2.339a42.189,42.189,0,0,1-19.425.242c-.107-.567-.218-1.133-.327-1.7l-.483-2.319-.522-2.311c-.186-.768-.361-1.537-.56-2.3q-.187-.743-.385-1.482H908q.134.8.279,1.6c.134.779.295,1.552.443,2.328l.483,2.319.52,2.311c.159.652.311,1.3.474,1.956l-.815,3.04c6.628,3.246,11.344,10.313,11.344,10.313s4.462-6.452,10.694-9.859c-.167-.867-.4-1.954-.716-3.313C930.744,452.159,930.778,451.92,930.814,451.682Z" transform="translate(-903.253 -411.736)" fill="#ea6a6a"/>
        <path id="Trazado_102515" data-name="Trazado 102515" d="M940.451,454.6c0-1.329-.049-2.651-.125-3.972q-.139-2.383-.376-4.757-.231-2.333-.567-4.656c0-.026-.007-.053-.01-.079-.149-1.038-.316-2.073-.509-3.1-.092-.489-.189-.977-.3-1.465-.01-.047-.019-.094-.03-.141,0,.047,0,.093,0,.141-.008.489-.006.977,0,1.465q.012.869.048,1.737c.021.48.043.96.071,1.44.093,1.589.215,3.174.376,4.756s.354,3.16.58,4.735q.151,1.049.327,2.094a14.947,14.947,0,0,0-2.911.819q-.516.2-1.019.434-.619.286-1.218.614c-6.232,3.407-10.694,9.859-10.694,9.859,4.923,2.8,9.872,2.431,13.024-.357a9.408,9.408,0,0,0,2.427-3.428A13.368,13.368,0,0,0,940.451,454.6Z" transform="translate(-906.621 -410.684)" fill="#ff8383"/>
        <path id="Trazado_102516" data-name="Trazado 102516" d="M919.824,464.516s-4.716-7.067-11.344-10.313a15.71,15.71,0,0,0-4.285-1.419q.159-.985.3-1.973.329-2.382.559-4.775t.356-4.794c.057-1.069.1-2.14.107-3.213,0-.488,0-.976-.006-1.465,0-.047,0-.094,0-.141-.01.047-.019.094-.029.141-.1.487-.2.976-.288,1.465-.191,1.045-.353,2.095-.5,3.145q-.329,2.382-.557,4.775t-.354,4.794c-.085,1.6-.138,3.206-.1,4.819l0-.019a11.19,11.19,0,0,0,2.961,8.329c.113.453.256,1.049.412,1.759-.129-.694-.217-1.227-.279-1.63C909.847,466.931,914.809,467.366,919.824,464.516Zm-13.18-.643Z" transform="translate(-902.346 -410.684)" fill="#ff8383"/>
        <path id="Trazado_102517" data-name="Trazado 102517" d="M907.5,440.863h1.653a.892.892,0,0,0,.892-.892v-2.527a9.621,9.621,0,0,1-3.437,2.485v.042A.892.892,0,0,0,907.5,440.863Z" transform="translate(-902.962 -410.897)" fill="#765582"/>
        <path id="Trazado_102518" data-name="Trazado 102518" d="M937.739,440.612a.94.94,0,0,0,.619.251h1.653a.892.892,0,0,0,.892-.892v-2.527a9.621,9.621,0,0,1-3.437,2.485v.042A.888.888,0,0,0,937.739,440.612Z" transform="translate(-909.418 -410.897)" fill="#765582"/>
        <path id="Trazado_102519" data-name="Trazado 102519" d="M935.708,436.028v.267h-6.644a1.211,1.211,0,0,1,.036.29v1.174h6.609v1.687a9.62,9.62,0,0,0,3.437-2.485v.8h.432c-.007-.488-.009-.976,0-1.465h-.431v-.267a.892.892,0,0,0-.892-.892H936.6A.892.892,0,0,0,935.708,436.028Z" transform="translate(-907.66 -410.415)" fill="#64486d"/>
        <path id="Trazado_102520" data-name="Trazado 102520" d="M927.315,438.043v-1.321a1.214,1.214,0,0,0-.036-.29,1.228,1.228,0,0,0-.237-.478,1.261,1.261,0,0,0-.16-.165,11.131,11.131,0,0,1-6.347,3.483h5.55A1.233,1.233,0,0,0,927.315,438.043Z" transform="translate(-905.876 -410.551)" fill="#765582"/>
        <path id="Trazado_102521" data-name="Trazado 102521" d="M982.313,528.048c-.049.566-.117,1.128-.21,1.679a7.342,7.342,0,0,1-.436,1.573,1.636,1.636,0,0,1-.851,1,.936.936,0,0,1-.282.037,1.122,1.122,0,0,1-.3-.055,1.5,1.5,0,0,1-.561-.353,4.349,4.349,0,0,1-.881-1.283,12.464,12.464,0,0,1-.609-1.55,29.775,29.775,0,0,1-.836-3.3c-.03-.153-.055-.306-.084-.459-.24.008-.465.013-.674.015.023.187.046.374.073.561a24.3,24.3,0,0,0,.715,3.437,11.546,11.546,0,0,0,.628,1.677,5.172,5.172,0,0,0,1.059,1.559,2.061,2.061,0,0,0,2.021.548,1.893,1.893,0,0,0,.89-.651,3.265,3.265,0,0,0,.476-.86,8.057,8.057,0,0,0,.426-1.771,14.717,14.717,0,0,0,.134-1.763,28.8,28.8,0,0,0-.138-3.46q-.219.055-.441.1C982.433,525.842,982.4,526.952,982.313,528.048Z" transform="translate(-917.603 -429.138)" fill="#9c77ad"/>
        <path id="Trazado_102522" data-name="Trazado 102522" d="M1010.364,517.856c-.009.069-.017.137-.026.206-.072.559-.151,1.117-.233,1.673q-.246,1.707-.577,3.392a30.117,30.117,0,0,1-.836,3.3,12.469,12.469,0,0,1-.609,1.55,4.348,4.348,0,0,1-.881,1.283,1.5,1.5,0,0,1-.561.353,1.127,1.127,0,0,1-.3.055.933.933,0,0,1-.281-.037,1.64,1.64,0,0,1-.852-1,7.352,7.352,0,0,1-.436-1.573c-.093-.551-.162-1.113-.211-1.679-.09-1.133-.122-2.28-.118-3.429,0-.334,0-.667.006-1l.751-2.312.739-2.273a26.655,26.655,0,0,1-6.217-4.484,28.313,28.313,0,0,1-7.247,3.563h0c-1.245,2-2.123,3.409-2.123,3.409A5.6,5.6,0,0,1,987.911,521c9.111-1.6,15.022.145,16.137.519-.015.138-.032.274-.046.411a29.109,29.109,0,0,0-.14,3.488,14.9,14.9,0,0,0,.134,1.763,8.1,8.1,0,0,0,.426,1.771,3.248,3.248,0,0,0,.477.86,1.889,1.889,0,0,0,.89.651,2.059,2.059,0,0,0,2.02-.548,5.174,5.174,0,0,0,1.06-1.559,11.637,11.637,0,0,0,.628-1.677,24.533,24.533,0,0,0,.715-3.437c.165-1.152.265-2.31.327-3.467.024-.584.045-1.167.05-1.751,0-.045,0-.089,0-.134Z" transform="translate(-919.972 -426.472)" fill="#9c77ad"/>
        <path id="Trazado_102523" data-name="Trazado 102523" d="M1002.843,506.283a26.648,26.648,0,0,0,6.217,4.484,15.782,15.782,0,0,0,4.428,1.488l.224.037.026,0c.863-5.143-.444-9.072-2.958-11.377-.275-.688-.632-1.634-1-2.77-.211-.643-.426-1.348-.634-2.1a33.059,33.059,0,0,1-1.343-9.847.875.875,0,0,0-.068-.291,1.914,1.914,0,0,0-.644-.8c-.588,4.122-1,13.254-1.121,16.139a3.2,3.2,0,0,1-.036.891A7.1,7.1,0,0,1,1002.843,506.283Z" transform="translate(-923.096 -420.871)" fill="#7f5e8c"/>
        <path id="Trazado_102524" data-name="Trazado 102524" d="M964.151,495.539l.3.012Z" transform="translate(-915.001 -423.052)" fill="#64486d"/>
        <path id="Trazado_102525" data-name="Trazado 102525" d="M961.543,492.364l.2.007a.83.83,0,0,1-1.638-.063l.109,0c-1.8-.083-3.438-.209-4.88-.352v-.838h8.778l.819-1.263h-.247a3.785,3.785,0,0,1,.163-.373c.058-.116.122-.229.191-.342a11.931,11.931,0,0,1,1.129-1.477,12.682,12.682,0,0,0,1.306-1.736,4.758,4.758,0,0,0,.788-2.846,2.712,2.712,0,0,0-.894-1.759,4.2,4.2,0,0,0-3.074-1.1,2.508,2.508,0,0,0-2.174,1.19l.007,0,1.485.278.009,0c.283-.228.372-.192.736-.21a2.9,2.9,0,0,1,2.157.772c.03.027.055.055.082.084a1.524,1.524,0,0,1,.411,1.259,4.245,4.245,0,0,1-.621,1.69,11.711,11.711,0,0,1-1.181,1.56,10.618,10.618,0,0,0-1.486,2.07c-.043.088-.083.175-.121.261-.051.116-.1.232-.137.346a3.426,3.426,0,0,0-.1.332h-8.026v-.231a.77.77,0,0,0-.77-.769H953.14a.77.77,0,0,0-.769.769v.231h-.893a2.47,2.47,0,0,0-2.161,1.278c-.417-.078-.639-.125-.639-.125l-.346,2.6a.848.848,0,0,1,.243-.036.831.831,0,1,1-.443,1.533l-.387,2.909c.936.188,1.805.4,2.619.614l-.165-.045a.922.922,0,0,1-.006-.094.831.831,0,1,1,1.48.517l-.165-.05a25.252,25.252,0,0,1,5.864,2.546l5.908-9.1Q962.392,492.391,961.543,492.364Zm-9.172.249v-1c-.615-.083-1.162-.164-1.634-.238a1.2,1.2,0,0,1,.741-.256h.893v-.689a8.3,8.3,0,0,0,2.964,2.143v.036a.769.769,0,0,1-.77.769H953.14A.769.769,0,0,1,952.371,492.613Zm2.744,5.336a.831.831,0,1,1,.831-.83A.83.83,0,0,1,955.115,497.949Zm3.26-1.885a.831.831,0,1,1,.83-.831A.831.831,0,0,1,958.375,496.064Z" transform="translate(-911.568 -419.847)" fill="#64486d"/>
        <path id="Trazado_102526" data-name="Trazado 102526" d="M951.954,503.752q-.218-.064-.442-.126C951.661,503.667,951.809,503.709,951.954,503.752Z" transform="translate(-912.357 -424.744)" fill="#64486d"/>
        <path id="Trazado_102527" data-name="Trazado 102527" d="M956.559,495.315v-.036a8.3,8.3,0,0,1-2.964-2.143v2.179a.769.769,0,0,0,.769.769h1.425A.769.769,0,0,0,956.559,495.315Z" transform="translate(-912.792 -422.549)" fill="#765582"/>
        <path id="Trazado_102528" data-name="Trazado 102528" d="M960.968,498.155a.831.831,0,1,0,.83.83A.83.83,0,0,0,960.968,498.155Z" transform="translate(-914.161 -423.6)" fill="#fff"/>
        <path id="Trazado_102529" data-name="Trazado 102529" d="M963.989,495.532l-.5-.021-.109,0a.83.83,0,0,0,1.638.063l-.2-.007c-.177-.005-.354-.011-.529-.018Z" transform="translate(-914.839 -423.045)" fill="#fff"/>
        <path id="Trazado_102530" data-name="Trazado 102530" d="M952.5,503.1a.831.831,0,1,0-1.661,0,.922.922,0,0,0,.005.094l.164.045.36.1q.224.063.442.126l.343.1.165.05A.829.829,0,0,0,952.5,503.1Z" transform="translate(-912.216 -424.461)" fill="#fff"/>
        <path id="Trazado_102531" data-name="Trazado 102531" d="M949.509,497.935a.832.832,0,0,0-.831-.831.847.847,0,0,0-.243.036h0l-.2,1.5h0a.831.831,0,0,0,1.274-.7Z" transform="translate(-911.671 -423.38)" fill="#fff"/>
        <path id="Trazado_102532" data-name="Trazado 102532" d="M956.845,500.539a.831.831,0,1,0,.831.831A.83.83,0,0,0,956.845,500.539Z" transform="translate(-913.299 -424.098)" fill="#fff"/>
        <path id="Trazado_102533" data-name="Trazado 102533" d="M959.074,508.435s4.042,8.92,7.693,11.769C966.767,520.2,967.639,511.455,959.074,508.435Z" transform="translate(-913.939 -425.75)" fill="#e7dcea"/>
        <path id="Trazado_102534" data-name="Trazado 102534" d="M987.557,520.328s-6.25-4.995-12.985,3.806c0,0,.621.033,1.594.021.209,0,.434-.007.674-.015a28.5,28.5,0,0,0,5.169-.6q.222-.05.441-.1a12.846,12.846,0,0,0,2.67-.958A5.6,5.6,0,0,0,987.557,520.328Z" transform="translate(-917.181 -427.943)" fill="#e7dcea"/>
        <path id="Trazado_102535" data-name="Trazado 102535" d="M993.677,516.39h0Z" transform="translate(-921.178 -427.415)" fill="#fff"/>
        <path id="Trazado_102536" data-name="Trazado 102536" d="M984.315,513.11s.878-1.4,2.123-3.409c0,0-4.432,3.748-13.127-1.572-10.016-6.129-1.906-23.711-1.906-23.711h0l-3.649,5.62-.455.7L966.483,492l-.832,1.281-5.908,9.1-.669,1.03c8.565,3.02,7.693,11.769,7.693,11.769a5.092,5.092,0,0,0,2.029,1.049,20.708,20.708,0,0,0,2.534.688C978.065,508.115,984.315,513.11,984.315,513.11Z" transform="translate(-913.939 -420.725)" fill="#fff"/>
        <path id="Trazado_102537" data-name="Trazado 102537" d="M975.754,508.129c8.695,5.32,13.126,1.572,13.127,1.572h0c-.407.136-.646.206-.646.206-3.819.5-4.881-.121-4.881-.121-4.391-1.472-11.169-8.541-11.169-8.541l1.663-16.827S965.738,502,975.754,508.129Z" transform="translate(-916.381 -420.725)" fill="#e7dcea"/>
        <path id="Trazado_102538" data-name="Trazado 102538" d="M1000.755,510.712a7.1,7.1,0,0,0,3.086-4.138s-7.554-2.632-10.98,7.908c0,0,.239-.07.646-.206h0A28.312,28.312,0,0,0,1000.755,510.712Z" transform="translate(-921.008 -425.3)" fill="#ea6a6a"/>
        <path id="Trazado_102539" data-name="Trazado 102539" d="M1006.782,505.524c-.023.566-.036.891-.036.891A3.2,3.2,0,0,0,1006.782,505.524Z" transform="translate(-923.913 -425.141)" fill="#ea6a6a"/>
        <path id="Trazado_102540" data-name="Trazado 102540" d="M972.565,505.7s6.778,7.069,11.169,8.541C983.734,514.238,981.646,505.7,972.565,505.7Z" transform="translate(-916.761 -425.177)" fill="#ea6a6a"/>
        <path id="Trazado_102541" data-name="Trazado 102541" d="M972.565,500.7c9.081,0,11.169,8.541,11.169,8.541s1.061.618,4.881.121c3.426-10.54,10.98-7.908,10.98-7.908s.013-.325.036-.891c.12-2.885.533-12.017,1.12-16.139.033-.235.067-.453.1-.653a5.027,5.027,0,0,0-1.929-1.134,26.567,26.567,0,0,1-1.327,3.866c-7.365,7.395-18.189,5.584-18.189,5.584-.106-7.275,3.6-10.093,3.6-10.093l.125.013c.054-.062.109-.122.165-.18a46.941,46.941,0,0,0-5.273.849,20.12,20.12,0,0,0-3.8,1.2Z" transform="translate(-916.761 -420.184)" fill="#ff8383"/>
        <path id="Trazado_102542" data-name="Trazado 102542" d="M986.638,491.052c-1.5.607-4.13.019-4.13.019s.18-6.409,2.433-9.016l-.125-.013s-3.7,2.818-3.6,10.093c0,0,10.823,1.811,18.189-5.584C994.321,490.34,986.638,491.052,986.638,491.052Z" transform="translate(-918.571 -420.228)" fill="#ea6a6a"/>
        <path id="Trazado_102543" data-name="Trazado 102543" d="M988.072,491.9s7.683-.713,12.77-4.5C1000.841,487.4,992.662,482.418,988.072,491.9Z" transform="translate(-920.005 -421.075)" fill="#c088e5"/>
        <path id="Trazado_102544" data-name="Trazado 102544" d="M995.4,480.386a29.051,29.051,0,0,0-8.425.238,2.835,2.835,0,0,0-1.531.864c-.056.058-.112.117-.165.18-2.253,2.607-2.433,9.016-2.433,9.016s2.627.588,4.13-.019c4.59-9.481,12.769-4.5,12.769-4.5a26.586,26.586,0,0,0,1.327-3.866c.021-.08.043-.157.066-.24C1000.312,481.308,998.087,480.688,995.4,480.386Z" transform="translate(-918.913 -419.841)" fill="#e1a9ff"/>
        <path id="Trazado_102545" data-name="Trazado 102545" d="M988.019,422.8a1.1,1.1,0,0,1-.329.254.852.852,0,0,1-.191.059,1.133,1.133,0,0,0-.359.136.826.826,0,0,0-.307.352,1.033,1.033,0,0,0-.09.4,1.345,1.345,0,0,0,.184.7,2.05,2.05,0,0,0,.95.827,2.76,2.76,0,0,0,1.159.233,4.413,4.413,0,0,0,1.117-.165,4.893,4.893,0,0,1-2.02-.55,1.74,1.74,0,0,1-.624-.664.713.713,0,0,1-.076-.356c.007-.115.044-.168.079-.187a.475.475,0,0,1,.153-.053,1.419,1.419,0,0,0,.33-.116,1.685,1.685,0,0,0,.52-.434,4.314,4.314,0,0,0,.6-1.007,4.142,4.142,0,0,0,.331-2.231,7.079,7.079,0,0,1-.814,1.981A5.716,5.716,0,0,1,988.019,422.8Z" transform="translate(-919.728 -407.247)" fill="#eab3a2"/>
        <path id="Trazado_102546" data-name="Trazado 102546" d="M995.348,462.913l6.273,1.035.163-1.01a10.9,10.9,0,0,1-5.939-2.086Z" transform="translate(-921.528 -415.795)" fill="#e3d9e8"/>
        <path id="Trazado_102547" data-name="Trazado 102547" d="M1001.916,462.85l.244-1.512-6.1-.908-.08.334A10.9,10.9,0,0,0,1001.916,462.85Z" transform="translate(-921.659 -415.707)" fill="#e9ecff"/>
      </g>
    </g>
  </g>
</svg>
