<svg xmlns="http://www.w3.org/2000/svg" width="249.258" height="403.999" viewBox="0 0 249.258 403.999">
  <g id="Grupo_54820" data-name="Grupo 54820" transform="translate(-934.689 -8323.521)">
    <g id="Grupo_53918" data-name="Grupo 53918" transform="translate(934.689 8323.521)">
      <g id="Grupo_53912" data-name="Grupo 53912" transform="translate(7.513 21.973)">
        <path id="Trazado_101518" data-name="Trazado 101518" d="M1177.519,8416.545c-.944-61.568-62.355-64.743-62.355-64.743-44.182-1.785-52.909,21.628-53.984,25.217-1.076-3.589-9.8-27-53.984-25.217,0,0-61.412,3.175-62.356,64.743,0,0-1.254,8.3,2.577,20.561,0,0,.069,34.8,11.665,47.636a44.689,44.689,0,0,0,38.089,23.605s25.228,10.91,51.3,12.795c3.836.276,13.939.181,13.939.181,29.583,1.381,62.782-12.976,62.782-12.976a44.689,44.689,0,0,0,38.089-23.605c11.6-12.839,11.665-47.636,11.665-47.636C1178.773,8424.845,1177.519,8416.545,1177.519,8416.545Z" transform="translate(-944.255 -8351.308)" fill="#f4c490"/>
        <path id="Trazado_101519" data-name="Trazado 101519" d="M1066.343,8521.709q-2.039,0-4.057-.094c-.079,0-10.14.092-13.948-.182-25.18-1.819-49.883-12.17-51.358-12.8a45.446,45.446,0,0,1-38.333-23.776c-11.4-12.692-11.72-45.68-11.729-47.8-3.792-12.176-2.585-20.6-2.572-20.681.485-31.942,17.525-47.952,31.734-55.749a81.037,81.037,0,0,1,30.994-9.332c18.7-.756,33.31,2.836,43.42,10.676a32,32,0,0,1,10.584,13.7,32,32,0,0,1,10.584-13.7c10.11-7.839,24.713-11.424,43.416-10.677a81.064,81.064,0,0,1,31,9.333c14.2,7.794,31.239,23.8,31.737,55.777.075.553,1.1,8.834-2.576,20.652-.009,2.117-.331,35.1-11.729,47.8a45.449,45.449,0,0,1-38.332,23.776C1123.551,8509.327,1093.963,8521.707,1066.343,8521.709Zm-4.042-.887c29.18,1.366,62.3-12.8,62.629-12.943l.14-.031a44.634,44.634,0,0,0,37.746-23.377l.066-.1c11.36-12.578,11.562-47.024,11.563-47.37l.018-.118c3.755-12.018,2.576-20.3,2.563-20.382l0-.053c-.484-31.614-17.3-47.423-31.325-55.119a80.16,80.16,0,0,0-30.653-9.235c-18.5-.747-32.935,2.789-42.893,10.511-7.7,5.969-10.129,12.549-10.691,14.424l-.379,1.269-.38-1.269c-.562-1.875-2.994-8.455-10.691-14.424-9.957-7.723-24.394-11.264-42.9-10.51a80.22,80.22,0,0,0-30.674,9.248c-14.012,7.7-30.816,23.5-31.3,55.105-.017.135-1.2,8.417,2.559,20.435l.018.118c0,.346.2,34.792,11.563,47.37l.066.1a44.633,44.633,0,0,0,37.746,23.377l.14.031c.252.109,25.468,10.905,51.168,12.763C1052.171,8520.915,1062.2,8520.824,1062.3,8520.822Z" transform="translate(-944.154 -8351.203)"/>
      </g>
      <path id="Trazado_101520" data-name="Trazado 101520" d="M1088.039,8421.2c-6.918,0-12.546-4.5-12.546-10.025s5.628-10.026,12.546-10.026,12.545,4.5,12.545,10.026S1094.955,8421.2,1088.039,8421.2Zm0-19.258c-6.48,0-11.752,4.142-11.752,9.232s5.271,9.231,11.752,9.231,11.751-4.141,11.751-9.231S1094.518,8401.946,1088.039,8401.946Z" transform="translate(-963.727 -8339.531)"/>
      <path id="Trazado_101521" data-name="Trazado 101521" d="M1087.232,8423.026c-8.631,0-15.652-5.6-15.652-12.487s7.021-12.488,15.652-12.488,15.65,5.6,15.65,12.488S1095.861,8423.026,1087.232,8423.026Zm0-24.182c-8.193,0-14.858,5.246-14.858,11.694s6.664,11.693,14.858,11.693,14.856-5.245,14.856-11.693S1095.423,8398.845,1087.232,8398.845Z" transform="translate(-962.92 -8338.892)"/>
      <path id="Trazado_101522" data-name="Trazado 101522" d="M1101.937,8492.774a50.1,50.1,0,0,1-9.244-.762l.166-.776c.285.062,28.833,5.85,47.641-15.8,18.846-21.693,18.818-37.4,18.816-37.558.036-.248,2.9-17.588-5.564-27.639-4.011-4.76-9.948-7.174-17.646-7.174-.142-.008-10.929-.9-29.081,8.686l-.371-.7c18.391-9.709,29.043-8.813,29.489-8.775h.009c7.9,0,14.041,2.51,18.208,7.457,8.7,10.336,5.773,28.03,5.743,28.208.009.084.063,16.069-19,38.018C1128.689,8490.243,1112.118,8492.774,1101.937,8492.774Z" transform="translate(-967.274 -8339.755)"/>
      <path id="Trazado_101523" data-name="Trazado 101523" d="M1064.944,8492.978c-10.478,0-27.123-2.558-39.362-16.646-19.061-21.94-19.866-41.058-19.872-41.248-.016-.113-1.789-15.017,6.494-24.414,4.492-5.094,11.079-7.678,19.58-7.678.262-.061,8.408-1.527,26.818,8.191l-.37.7c-18.107-9.559-26.292-8.117-26.372-8.106-8.339.008-14.727,2.5-19.062,7.418-8.049,9.13-6.318,23.68-6.3,23.825.008.225.82,19.078,19.682,40.789,18.808,21.651,48.242,15.623,48.537,15.558l.167.777A53.554,53.554,0,0,1,1064.944,8492.978Z" transform="translate(-949.301 -8339.888)"/>
      <path id="Trazado_101524" data-name="Trazado 101524" d="M1106.7,8505.313a87.137,87.137,0,0,1-13.985-1.138l.128-.781c47.831,7.74,78.383-26.953,78.685-27.3,24.75-25.262,23.526-51.124,23.511-51.383.008-.279.619-24.38-23.854-32.57-24.626-8.244-66.868,9.441-67.292,9.621l-.31-.73c.426-.182,42.938-17.979,67.855-9.645,25.048,8.385,24.4,33.068,24.4,33.316.014.223,1.273,26.42-23.719,51.926C1171.854,8476.928,1146.863,8505.311,1106.7,8505.313Z" transform="translate(-967.279 -8337.059)"/>
      <path id="Trazado_101525" data-name="Trazado 101525" d="M1051.458,8505.508c-40.64,0-68.015-28.4-68.318-28.717-24.988-25.5-23.729-51.7-23.714-51.961.006-.227.933-24.174,25.963-32.553,24.91-8.336,65.875,8.745,66.285,8.919l-.308.731c-.409-.174-41.1-17.137-65.724-8.9-24.492,8.2-25.417,31.6-25.423,31.834-.016.271-1.24,26.133,23.493,51.375.338.356,33.846,35.082,81.676,27.349l.127.784A87.956,87.956,0,0,1,1051.458,8505.508Z" transform="translate(-939.788 -8337.229)"/>
      <path id="Trazado_101526" data-name="Trazado 101526" d="M1059.318,8525.277c-68.72,0-124.628-45.254-124.628-100.878s55.908-100.878,124.628-100.878,124.629,45.254,124.629,100.878S1128.038,8525.277,1059.318,8525.277Zm0-200.168c-67.845,0-123.041,44.541-123.041,99.29s55.2,99.291,123.041,99.291,123.042-44.541,123.042-99.291S1127.163,8325.109,1059.318,8325.109Z" transform="translate(-934.689 -8323.521)" fill="red"/>
      <g id="Grupo_53913" data-name="Grupo 53913" transform="translate(124.232 0.795)">
        <rect id="Rectángulo_5231" data-name="Rectángulo 5231" width="0.794" height="1.191"/>
        <path id="Trazado_101527" data-name="Trazado 101527" d="M1091.991,8522.011h-.794v-2.383h.794Zm0-4.765h-.794v-2.384h.794Zm0-4.767h-.794V8510.1h.794Zm0-4.765h-.794v-2.382h.794Zm0-4.765h-.794v-2.383h.794Zm0-4.765h-.794V8495.8h.794Zm0-4.766h-.794v-2.383h.794Zm0-4.766h-.794v-2.382h.794Zm0-4.765h-.794v-2.382h.794Zm0-4.765h-.794v-2.383h.794Zm0-4.766h-.794v-2.383h.794Zm0-4.766h-.794v-2.382h.794Zm0-4.765h-.794v-2.382h.794Zm0-4.765h-.794v-2.383h.794Zm0-4.766h-.794v-2.383h.794Zm0-4.766h-.794v-2.383h.794Zm0-4.766h-.794v-2.381h.794Zm0-4.764h-.794v-2.383h.794Zm0-4.766h-.794v-2.383h.794Zm0-4.765h-.794v-2.383h.794Zm0-4.765h-.794v-2.383h.794Zm0-4.766h-.794v-2.383h.794Zm0-4.766h-.794V8414.8h.794Zm0-4.765h-.794v-2.383h.794Zm0-4.765h-.794v-2.383h.794Zm0-4.766h-.794V8400.5h.794Zm0-4.766h-.794v-2.382h.794Zm0-4.765h-.794v-2.382h.794Zm0-4.766h-.794V8386.2h.794Zm0-4.765h-.794v-2.383h.794Zm0-4.765h-.794v-2.383h.794Zm0-4.766h-.794v-2.382h.794Zm0-4.765h-.794v-2.383h.794Zm0-4.766h-.794v-2.383h.794Zm0-4.765h-.794v-2.383h.794Zm0-4.765h-.794v-2.383h.794Zm0-4.766h-.794v-2.383h.794Zm0-4.766h-.794v-2.382h.794Zm0-4.765h-.794v-2.383h.794Zm0-4.765h-.794v-2.383h.794Zm0-4.766h-.794v-2.383h.794Z" transform="translate(-1091.197 -8325.451)"/>
        <rect id="Rectángulo_5232" data-name="Rectángulo 5232" width="0.794" height="1.191" transform="translate(0 198.942)"/>
      </g>
      <g id="Grupo_53914" data-name="Grupo 53914" transform="translate(0.794 107.67)">
        <rect id="Rectángulo_5233" data-name="Rectángulo 5233" width="1.191" height="0.794" transform="translate(245.054)"/>
        <path id="Trazado_101528" data-name="Trazado 101528" d="M1179.3,8459.959h-2.367v-.794h2.367Zm-4.735,0H1172.2v-.794h2.368Zm-4.735,0h-2.369v-.794h2.369Zm-4.736,0h-2.367v-.794h2.367Zm-4.736,0h-2.367v-.794h2.367Zm-4.735,0h-2.367v-.794h2.367Zm-4.736,0h-2.367v-.794h2.367Zm-4.734,0h-2.369v-.794h2.369Zm-4.736,0h-2.368v-.794h2.368Zm-4.736,0h-2.367v-.794h2.367Zm-4.735,0h-2.368v-.794h2.368Zm-4.736,0h-2.367v-.794h2.367Zm-4.736,0h-2.367v-.794h2.367Zm-4.734,0h-2.369v-.794h2.369Zm-4.736,0h-2.368v-.794h2.368Zm-4.735,0H1105.9v-.794h2.368Zm-4.736,0h-2.367v-.794h2.367Zm-4.736,0h-2.367v-.794h2.367Zm-4.735,0H1091.7v-.794h2.368Zm-4.735,0h-2.368v-.794h2.368Zm-4.736,0h-2.368v-.794h2.368Zm-4.735,0h-2.368v-.794h2.368Zm-4.736,0h-2.367v-.794h2.367Zm-4.736,0h-2.367v-.794h2.367Zm-4.734,0h-2.369v-.794h2.369Zm-4.736,0h-2.368v-.794h2.368Zm-4.735,0h-2.369v-.794h2.369Zm-4.736,0h-2.367v-.794h2.367Zm-4.736,0h-2.367v-.794h2.367Zm-4.735,0h-2.368v-.794h2.368Zm-4.735,0h-2.368v-.794h2.368Zm-4.736,0h-2.368v-.794h2.368Zm-4.735,0H1025.4v-.794h2.369Zm-4.736,0h-2.367v-.794h2.367Zm-4.736,0h-2.367v-.794h2.367Zm-4.735,0H1011.2v-.794h2.368Zm-4.735,0h-2.368v-.794h2.368Zm-4.736,0h-2.368v-.794h2.368Zm-4.735,0h-2.368v-.794h2.368Zm-4.736,0h-2.367v-.794h2.367Zm-4.735,0h-2.368v-.794h2.368Zm-4.736,0h-2.367v-.794h2.367Zm-4.735,0h-2.368v-.794h2.368Zm-4.735,0h-2.369v-.794h2.369Zm-4.736,0h-2.367v-.794h2.367Zm-4.736,0h-2.367v-.794h2.367Zm-4.735,0h-2.368v-.794h2.368Zm-4.736,0h-2.367v-.794h2.367Zm-4.735,0h-2.368v-.794h2.368Zm-4.735,0h-2.369v-.794h2.369Zm-4.736,0h-2.367v-.794h2.367Z" transform="translate(-936.614 -8459.165)"/>
        <rect id="Rectángulo_5234" data-name="Rectángulo 5234" width="1.191" height="0.794"/>
      </g>
      <g id="Grupo_53916" data-name="Grupo 53916" transform="translate(100.309 90.595)">
        <g id="Grupo_53915" data-name="Grupo 53915">
          <path id="Trazado_101529" data-name="Trazado 101529" d="M1062.757,8443.811v3.069h-1.7v-8.465h3.372a3.333,3.333,0,0,1,2.3.744,2.7,2.7,0,0,1,0,3.913,3.35,3.35,0,0,1-2.3.738Zm0-1.309h1.674a1.419,1.419,0,0,0,1.076-.386,1.382,1.382,0,0,0,.366-.986,1.444,1.444,0,0,0-.364-1.009,1.39,1.39,0,0,0-1.079-.4h-1.674Z" transform="translate(-1061.059 -8437.811)" stroke="#f4c490" stroke-miterlimit="10" stroke-width="0.25"/>
          <path id="Trazado_101530" data-name="Trazado 101530" d="M1070.215,8444.212a3.377,3.377,0,0,1,.785-2.306,2.736,2.736,0,0,1,2.174-.9,2.766,2.766,0,0,1,2.186.9,3.358,3.358,0,0,1,.791,2.309v.122a3.364,3.364,0,0,1-.787,2.311,3.109,3.109,0,0,1-4.36,0,3.361,3.361,0,0,1-.788-2.311Zm1.692.118a2.732,2.732,0,0,0,.3,1.38,1.045,1.045,0,0,0,.977.519,1.033,1.033,0,0,0,.962-.522,2.713,2.713,0,0,0,.3-1.376v-.121a2.689,2.689,0,0,0-.308-1.364,1.043,1.043,0,0,0-.971-.529,1.029,1.029,0,0,0-.962.532,2.7,2.7,0,0,0-.306,1.361Z" transform="translate(-1062.947 -8438.345)" stroke="#f4c490" stroke-miterlimit="10" stroke-width="0.25"/>
          <path id="Trazado_101531" data-name="Trazado 101531" d="M1082.34,8445.683a.6.6,0,0,0-.271-.483,2.764,2.764,0,0,0-1-.359,4.05,4.05,0,0,1-1.683-.672,1.455,1.455,0,0,1-.568-1.212,1.733,1.733,0,0,1,.683-1.381,2.773,2.773,0,0,1,1.828-.567,3.006,3.006,0,0,1,1.916.563,1.67,1.67,0,0,1,.683,1.425l-.012.035h-1.64a.83.83,0,0,0-.241-.616,1.155,1.155,0,0,0-1.355-.038.634.634,0,0,0-.236.5.572.572,0,0,0,.247.477,2.685,2.685,0,0,0,1,.331,4.084,4.084,0,0,1,1.726.684,1.5,1.5,0,0,1,.564,1.241,1.655,1.655,0,0,1-.727,1.387,3.15,3.15,0,0,1-1.918.538,2.915,2.915,0,0,1-1.986-.637,1.782,1.782,0,0,1-.695-1.451l.011-.035h1.553a.879.879,0,0,0,.331.733,1.365,1.365,0,0,0,.819.227,1.181,1.181,0,0,0,.718-.186A.6.6,0,0,0,1082.34,8445.683Z" transform="translate(-1064.688 -8438.345)" stroke="#f4c490" stroke-miterlimit="10" stroke-width="0.25"/>
          <path id="Trazado_101532" data-name="Trazado 101532" d="M1088.607,8439.214v1.54h1.059v1.191h-1.059v3.2a.732.732,0,0,0,.152.522.533.533,0,0,0,.406.157,1.725,1.725,0,0,0,.23-.014c.063-.011.138-.026.224-.05l.145,1.227a3.389,3.389,0,0,1-.5.131,2.993,2.993,0,0,1-.529.044,1.809,1.809,0,0,1-1.352-.482,2.115,2.115,0,0,1-.475-1.529v-3.21h-.918v-1.191h.918v-1.54Z" transform="translate(-1066.201 -8437.976)" stroke="#f4c490" stroke-miterlimit="10" stroke-width="0.25"/>
          <path id="Trazado_101533" data-name="Trazado 101533" d="M1094.714,8447.537a2.826,2.826,0,0,1-2.173-.873,3.112,3.112,0,0,1-.814-2.214v-.232a3.442,3.442,0,0,1,.77-2.309,2.874,2.874,0,0,1,4.044-.135,2.961,2.961,0,0,1,.7,2.076v.925h-3.755l-.012.035a1.634,1.634,0,0,0,.416,1.02,1.3,1.3,0,0,0,1,.4,3.275,3.275,0,0,0,.936-.113,4.333,4.333,0,0,0,.814-.357l.459,1.05a3.156,3.156,0,0,1-1.006.522A4.406,4.406,0,0,1,1094.714,8447.537Zm-.151-5.222a.879.879,0,0,0-.744.361,1.865,1.865,0,0,0-.338.947l.018.029h2.081v-.151a1.366,1.366,0,0,0-.253-.863A.914.914,0,0,0,1094.563,8442.315Z" transform="translate(-1067.383 -8438.345)" stroke="#f4c490" stroke-miterlimit="10" stroke-width="0.25"/>
          <path id="Trazado_101534" data-name="Trazado 101534" d="M1103.23,8442.584l-.623-.018a1.125,1.125,0,0,0-.622.157.994.994,0,0,0-.372.441v4.25h-1.691v-6.291h1.575l.076.931a1.983,1.983,0,0,1,.572-.771,1.336,1.336,0,0,1,1.047-.256c.071.014.144.03.218.05Z" transform="translate(-1069.074 -8438.345)" stroke="#f4c490" stroke-miterlimit="10" stroke-width="0.25"/>
          <path id="Trazado_101535" data-name="Trazado 101535" d="M1106.981,8438.927h-1.7v-1.273h1.7Zm0,7.8h-1.7v-6.29h1.7Z" transform="translate(-1070.179 -8437.653)" stroke="#f4c490" stroke-miterlimit="10" stroke-width="0.25"/>
          <path id="Trazado_101536" data-name="Trazado 101536" d="M1108.849,8444.212a3.373,3.373,0,0,1,.786-2.306,2.736,2.736,0,0,1,2.174-.9,2.766,2.766,0,0,1,2.186.9,3.358,3.358,0,0,1,.791,2.309v.122a3.364,3.364,0,0,1-.787,2.311,3.11,3.11,0,0,1-4.361,0,3.361,3.361,0,0,1-.788-2.311Zm1.692.118a2.732,2.732,0,0,0,.3,1.38,1.044,1.044,0,0,0,.976.519,1.031,1.031,0,0,0,.962-.522,2.7,2.7,0,0,0,.306-1.376v-.121a2.68,2.68,0,0,0-.309-1.364,1.041,1.041,0,0,0-.97-.529,1.03,1.03,0,0,0-.962.532,2.7,2.7,0,0,0-.306,1.361Z" transform="translate(-1070.915 -8438.345)" stroke="#f4c490" stroke-miterlimit="10" stroke-width="0.25"/>
          <path id="Trazado_101537" data-name="Trazado 101537" d="M1120.954,8442.584l-.622-.018a1.125,1.125,0,0,0-.622.157.989.989,0,0,0-.372.441v4.25h-1.692v-6.291h1.576l.075.931a1.991,1.991,0,0,1,.573-.771,1.279,1.279,0,0,1,.81-.276,1.264,1.264,0,0,1,.236.021c.071.014.144.03.218.05Z" transform="translate(-1072.729 -8438.345)" stroke="#f4c490" stroke-miterlimit="10" stroke-width="0.25"/>
        </g>
      </g>
      <g id="Grupo_53917" data-name="Grupo 53917" transform="translate(99.047 119.308)">
        <path id="Trazado_101538" data-name="Trazado 101538" d="M1059.469,8483.054v-8.465h2.908a3.488,3.488,0,0,1,2.557.992,3.417,3.417,0,0,1,1.006,2.543v1.4a3.408,3.408,0,0,1-1.006,2.545,3.506,3.506,0,0,1-2.557.984Zm1.7-7.156v5.848h1.122a1.765,1.765,0,0,0,1.43-.615,2.413,2.413,0,0,0,.517-1.607v-1.412a2.4,2.4,0,0,0-.517-1.6,1.768,1.768,0,0,0-1.43-.615Z" transform="translate(-1059.469 -8473.984)" stroke="#f4c490" stroke-miterlimit="10" stroke-width="0.25"/>
        <path id="Trazado_101539" data-name="Trazado 101539" d="M1071.855,8483.711a2.829,2.829,0,0,1-2.174-.873,3.114,3.114,0,0,1-.814-2.214v-.233a3.441,3.441,0,0,1,.77-2.308,2.87,2.87,0,0,1,4.043-.133,2.954,2.954,0,0,1,.7,2.074v.926h-3.755l-.012.034a1.636,1.636,0,0,0,.415,1.02,1.3,1.3,0,0,0,1,.4,3.245,3.245,0,0,0,.936-.113,4.389,4.389,0,0,0,.814-.357l.46,1.049a3.114,3.114,0,0,1-1,.522A4.357,4.357,0,0,1,1071.855,8483.711Zm-.151-5.222a.882.882,0,0,0-.744.361,1.868,1.868,0,0,0-.338.946l.017.03h2.081v-.151a1.359,1.359,0,0,0-.252-.862A.912.912,0,0,0,1071.7,8478.489Z" transform="translate(-1061.407 -8474.519)" stroke="#f4c490" stroke-miterlimit="10" stroke-width="0.25"/>
        <path id="Trazado_101540" data-name="Trazado 101540" d="M1078.869,8482.9h-1.7v-9.069h1.7Z" transform="translate(-1063.12 -8473.827)" stroke="#f4c490" stroke-miterlimit="10" stroke-width="0.25"/>
        <path id="Trazado_101541" data-name="Trazado 101541" d="M1084.673,8483.589a3.651,3.651,0,0,1-.16-.454,3.328,3.328,0,0,1-.1-.487,2.352,2.352,0,0,1-.688.762,1.722,1.722,0,0,1-1.02.3,2.122,2.122,0,0,1-1.524-.509,1.823,1.823,0,0,1-.535-1.388,1.658,1.658,0,0,1,.713-1.432,3.549,3.549,0,0,1,2.078-.509h.948v-.5a.98.98,0,0,0-.238-.7,1.111,1.111,0,0,0-1.34-.049.706.706,0,0,0-.224.556l-1.64-.008-.006-.033a1.6,1.6,0,0,1,.691-1.375,3.015,3.015,0,0,1,1.924-.579,2.812,2.812,0,0,1,1.832.573,1.981,1.981,0,0,1,.7,1.631v2.6a4.941,4.941,0,0,0,.067.831,4.16,4.16,0,0,0,.212.773Zm-1.552-1.134a1.441,1.441,0,0,0,.8-.222,1.135,1.135,0,0,0,.471-.512v-.888h-.948a1.134,1.134,0,0,0-.82.27.877.877,0,0,0-.279.654.65.65,0,0,0,.21.5A.8.8,0,0,0,1083.121,8482.455Z" transform="translate(-1063.837 -8474.519)" stroke="#f4c490" stroke-miterlimit="10" stroke-width="0.25"/>
        <path id="Trazado_101542" data-name="Trazado 101542" d="M1090.669,8477.3l.075.9a2.315,2.315,0,0,1,.774-.751,2.009,2.009,0,0,1,1.029-.267,1.9,1.9,0,0,1,1.488.6,2.767,2.767,0,0,1,.535,1.878v3.931h-1.7v-3.934a1.28,1.28,0,0,0-.256-.9,1.031,1.031,0,0,0-.774-.267,1.3,1.3,0,0,0-.6.139,1.243,1.243,0,0,0-.449.387v4.574h-1.7v-6.29Z" transform="translate(-1065.577 -8474.519)" stroke="#f4c490" stroke-miterlimit="10" stroke-width="0.25"/>
        <path id="Trazado_101543" data-name="Trazado 101543" d="M1099.453,8475.389v1.541h1.059v1.189h-1.059v3.205a.736.736,0,0,0,.152.522.533.533,0,0,0,.406.157,1.706,1.706,0,0,0,.23-.015,1.871,1.871,0,0,0,.224-.05l.144,1.226a3.135,3.135,0,0,1-.5.132,2.9,2.9,0,0,1-.529.045,1.815,1.815,0,0,1-1.353-.482,2.124,2.124,0,0,1-.474-1.53v-3.21h-.917v-1.189h.917v-1.541Z" transform="translate(-1067.176 -8474.15)" stroke="#f4c490" stroke-miterlimit="10" stroke-width="0.25"/>
        <path id="Trazado_101544" data-name="Trazado 101544" d="M1105.561,8483.711a2.829,2.829,0,0,1-2.174-.873,3.114,3.114,0,0,1-.814-2.214v-.233a3.442,3.442,0,0,1,.77-2.308,2.87,2.87,0,0,1,4.043-.133,2.954,2.954,0,0,1,.7,2.074v.926h-3.755l-.012.034a1.635,1.635,0,0,0,.415,1.02,1.3,1.3,0,0,0,1,.4,3.245,3.245,0,0,0,.936-.113,4.388,4.388,0,0,0,.813-.357l.46,1.049a3.113,3.113,0,0,1-1,.522A4.358,4.358,0,0,1,1105.561,8483.711Zm-.151-5.222a.882.882,0,0,0-.744.361,1.869,1.869,0,0,0-.338.946l.017.03h2.081v-.151a1.358,1.358,0,0,0-.252-.862A.911.911,0,0,0,1105.41,8478.489Z" transform="translate(-1068.358 -8474.519)" stroke="#f4c490" stroke-miterlimit="10" stroke-width="0.25"/>
        <path id="Trazado_101545" data-name="Trazado 101545" d="M1114.076,8478.758l-.622-.018a1.126,1.126,0,0,0-.622.157,1,1,0,0,0-.372.441v4.25h-1.692v-6.29h1.576l.075.931a1.971,1.971,0,0,1,.573-.771,1.274,1.274,0,0,1,.81-.277,1.177,1.177,0,0,1,.236.021c.072.013.145.029.218.049Z" transform="translate(-1070.048 -8474.519)" stroke="#f4c490" stroke-miterlimit="10" stroke-width="0.25"/>
        <path id="Trazado_101546" data-name="Trazado 101546" d="M1115.689,8480.386a3.377,3.377,0,0,1,.785-2.306,2.739,2.739,0,0,1,2.175-.9,2.766,2.766,0,0,1,2.186.895,3.36,3.36,0,0,1,.791,2.31v.122a3.358,3.358,0,0,1-.788,2.311,3.109,3.109,0,0,1-4.36,0,3.357,3.357,0,0,1-.788-2.311Zm1.692.119a2.724,2.724,0,0,0,.3,1.378,1.161,1.161,0,0,0,1.938,0,2.691,2.691,0,0,0,.306-1.374v-.122a2.682,2.682,0,0,0-.309-1.364,1.042,1.042,0,0,0-.97-.529,1.031,1.031,0,0,0-.962.532,2.7,2.7,0,0,0-.306,1.361Z" transform="translate(-1071.063 -8474.519)" stroke="#f4c490" stroke-miterlimit="10" stroke-width="0.25"/>
      </g>
    </g>
    <g id="Grupo_53923" data-name="Grupo 53923" transform="translate(961.204 8540.967)">
      <rect id="Rectángulo_5235" data-name="Rectángulo 5235" width="1.918" height="101.73" transform="translate(98.29 40.587)" fill="red"/>
      <path id="Trazado_101547" data-name="Trazado 101547" d="M1090.712,8637.8l8.38,13.946h-16.26Z" transform="translate(-991.755 -8605.779)" fill="red"/>
      <path id="Trazado_101548" data-name="Trazado 101548" d="M1168.514,8710.311l-13.946,8.38V8702.43Z" transform="translate(-1006.549 -8619.108)" fill="red"/>
      <path id="Trazado_101549" data-name="Trazado 101549" d="M1013.8,8710.311l13.946,8.38V8702.43Z" transform="translate(-977.519 -8619.108)" fill="red"/>
      <path id="Trazado_101550" data-name="Trazado 101550" d="M1090.712,8785.7l8.38-13.947h-16.26Z" transform="translate(-991.755 -8633.405)" fill="red"/>
      <rect id="Rectángulo_5236" data-name="Rectángulo 5236" width="101.73" height="1.918" transform="translate(48.383 90.492)" fill="red"/>
      <g id="Grupo_53919" data-name="Grupo 53919" transform="translate(91.138)">
        <path id="Trazado_101551" data-name="Trazado 101551" d="M1089.054,8605.227l.149.742h.074l2.559-8.508h3.882l-5.428,15.383a7.074,7.074,0,0,1-1.545,2.417,3.965,3.965,0,0,1-2.931.983,4.508,4.508,0,0,1-.847-.074q-.389-.075-.946-.211l.421-2.633c.107.017.223.033.346.05a2.707,2.707,0,0,0,.334.024,1.963,1.963,0,0,0,1.373-.439,2.889,2.889,0,0,0,.741-1.094l.421-1.039-4.748-13.367h3.883Z" transform="translate(-1082.909 -8597.461)"/>
      </g>
      <g id="Grupo_53920" data-name="Grupo 53920" transform="translate(88.638 167.772)">
        <path id="Trazado_101552" data-name="Trazado 101552" d="M1086.733,8817.009h-6.973v-2.783h6.973Z" transform="translate(-1079.76 -8809.936)"/>
        <path id="Trazado_101553" data-name="Trazado 101553" d="M1096.7,8816.586l.148.743h.075l2.559-8.508h3.882l-5.428,15.382a7.081,7.081,0,0,1-1.546,2.417,3.958,3.958,0,0,1-2.93.983,4.509,4.509,0,0,1-.848-.074c-.259-.05-.575-.119-.945-.211l.421-2.633c.107.017.222.032.346.05a2.916,2.916,0,0,0,.334.024,1.968,1.968,0,0,0,1.373-.439,2.907,2.907,0,0,0,.741-1.094l.421-1.039-4.748-13.366h3.882Z" transform="translate(-1081.986 -8808.821)"/>
      </g>
      <g id="Grupo_53921" data-name="Grupo 53921" transform="translate(183.702 86.203)">
        <path id="Trazado_101554" data-name="Trazado 101554" d="M1205.706,8710.313h.074l2.053-4.254h4.08l-4.031,6.616,4.167,6.764h-4.068l-2.188-4.438-2.188,4.438h-4.08l4.167-6.764-4.043-6.616h4.055Z" transform="translate(-1199.523 -8706.06)"/>
      </g>
      <g id="Grupo_53922" data-name="Grupo 53922" transform="translate(0 86.203)">
        <path id="Trazado_101555" data-name="Trazado 101555" d="M975.066,8714.247h-6.973v-2.782h6.973Z" transform="translate(-968.093 -8707.174)"/>
        <path id="Trazado_101556" data-name="Trazado 101556" d="M985.288,8710.313h.075l2.053-4.254h4.08l-4.031,6.616,4.167,6.764h-4.068L985.374,8715l-2.188,4.438h-4.08l4.167-6.764-4.044-6.616h4.056Z" transform="translate(-970.364 -8706.06)"/>
      </g>
    </g>
  </g>
</svg>
