<svg xmlns="http://www.w3.org/2000/svg" xmlns:xlink="http://www.w3.org/1999/xlink" width="276.884" height="299.495" viewBox="0 0 276.884 299.495">
  <defs>
    <linearGradient id="linear-gradient" y1="0.5" x2="1" y2="0.5" gradientUnits="objectBoundingBox">
      <stop offset="0" stop-color="#5f3759"/>
      <stop offset="0.345" stop-color="#5b3658"/>
      <stop offset="0.671" stop-color="#4f3458"/>
      <stop offset="0.99" stop-color="#3c3257"/>
      <stop offset="1" stop-color="#3c3257"/>
    </linearGradient>
    <linearGradient id="linear-gradient-2" y1="0.5" x2="1" y2="0.5" gradientUnits="objectBoundingBox">
      <stop offset="0" stop-color="#f08e73"/>
      <stop offset="1" stop-color="#f9b99d"/>
    </linearGradient>
    <linearGradient id="linear-gradient-3" y1="0.5" x2="1" y2="0.5" gradientUnits="objectBoundingBox">
      <stop offset="0" stop-color="#d988ad"/>
      <stop offset="1" stop-color="#bf3976"/>
    </linearGradient>
    <linearGradient id="linear-gradient-5" y1="0.5" x2="1" y2="0.5" gradientUnits="objectBoundingBox">
      <stop offset="0.006" stop-color="#77a5bd"/>
      <stop offset="1" stop-color="#66b0a5"/>
    </linearGradient>
  </defs>
  <g id="Grupo_54182" data-name="Grupo 54182" transform="translate(-978.774 -1311.875)">
    <path id="Trazado_102614" data-name="Trazado 102614" d="M984.039,1509.4c-6.41-15.745-7.36-33.995-.667-49.622-.7,8.12,4.212,15.943,10.8,20.736s14.659,7.05,22.621,8.789a174.407,174.407,0,0,1,23.558,6.366c42.848,15.886,35.054,71.781-1.17,62.032C1022,1553.08,997.791,1543.183,984.039,1509.4Z" transform="translate(0 -11.378)" fill="#3bd0cc"/>
    <path id="Trazado_102615" data-name="Trazado 102615" d="M1069.089,1540.869c-.018,0-.037,0-.056,0-37.5-5.265-63.331-18.07-76.778-38.054a58.3,58.3,0,0,1-8.894-43.121.389.389,0,0,1,.755.19,57.5,57.5,0,0,0,8.793,42.509c13.323,19.785,38.97,32.47,76.234,37.7a.391.391,0,0,1-.054.777Z" transform="translate(-0.276 -11.348)" fill="#fff"/>
    <path id="Trazado_102616" data-name="Trazado 102616" d="M1063.562,1542.057a.367.367,0,0,1-.107-.016c-.211-.059-21.3-6.45-27.68-46.341a.392.392,0,0,1,.324-.446.4.4,0,0,1,.447.324c6.294,39.353,26.914,45.654,27.123,45.714a.39.39,0,0,1-.106.764Z" transform="translate(-4.385 -14.107)" fill="#fff"/>
    <path id="Trazado_102617" data-name="Trazado 102617" d="M1090.358,1439.371a54.34,54.34,0,0,0-6.1-11.08c-3.136-4.037-6.574-8.694-5.7-13.73.848-4.892,5.429-8.111,9.64-10.739s8.826-5.749,9.825-10.612c1.4-6.823-5.044-12.93-5.382-19.888-.23-4.74,2.418-9.136,5.417-12.815s6.49-7.067,8.5-11.367,2.143-9.952-1.221-13.3c-3.027-3.012-7.861-3.25-12.053-2.445a32.252,32.252,0,0,0-21.676,15.561c-2.5,4.41-3.96,9.447-7.191,13.35-3.211,3.878-7.836,6.246-11.863,9.268s-7.744,7.319-7.661,12.352c.068,4.229,2.823,8.071,2.861,12.3.058,6.338-5.678,10.916-9.616,15.882a33,33,0,0,0-3.132,35.043Z" transform="translate(-4.047 -1.625)" fill="#d988ad"/>
    <path id="Trazado_102618" data-name="Trazado 102618" d="M1058.412,1445.056a.363.363,0,0,1-.11,0,.392.392,0,0,1-.344-.431c.615-5.374,1.08-10.559,1.53-15.572,2.8-31.258,5.019-55.947,38.052-88.59a.389.389,0,0,1,.547.554c-32.829,32.442-35.033,57.007-37.824,88.106-.45,5.018-.916,10.206-1.531,15.589A.39.39,0,0,1,1058.412,1445.056Z" transform="translate(-6.091 -2.191)" fill="#fff"/>
    <path id="Trazado_102619" data-name="Trazado 102619" d="M1219.568,1477.167c1.288-1.329,2.965-3.1,4.358-4.808,1.462-1.721,2.819-3.536,4.131-5.374,1.343-1.8,2.468-3.781,3.7-5.629l3.19-5.853a70.391,70.391,0,0,0,7.2-24.474c.75-8.235.452-16.327-1.83-24.146-.656-3.9-2.564-7.722-3.829-11.48a14.717,14.717,0,0,0-1.26-2.791l-1.434-2.755-2.781-5.455-.667-1.31a20.472,20.472,0,0,1,36.478-18.6,21.548,21.548,0,0,1,1.62,4.324l2.117,8.455,1.016,4.2a27.292,27.292,0,0,1,.809,4.273c.665,5.872,1.781,11.506,1.539,17.476a96.395,96.395,0,0,1-22.049,63.548c-1.789,2.079-3.62,4.1-5.444,6.1-1.971,1.878-3.816,3.833-5.87,5.584-2.02,1.779-4.075,3.5-6.238,5.106a83.054,83.054,0,0,1-6.9,4.708,6.79,6.79,0,0,1-8.442-10.5Z" transform="translate(-18.332 -3.188)" fill="#3bd0cc"/>
    <g id="Grupo_54146" data-name="Grupo 54146" transform="translate(1204.932 1354.949)">
      <path id="Trazado_102620" data-name="Trazado 102620" d="M1224.015,1483.353a.234.234,0,0,1-.128-.43,86.494,86.494,0,0,0,26.281-30.942c9.548-18.836,16.294-50.278-5.777-93.1a.235.235,0,0,1,.1-.316.238.238,0,0,1,.315.1c9.785,18.985,14.79,37.351,14.876,54.589a84.34,84.34,0,0,1-9.108,38.956,86.994,86.994,0,0,1-26.433,31.1A.23.23,0,0,1,1224.015,1483.353Z" transform="translate(-1223.78 -1358.539)" fill="#fff"/>
      <path id="Trazado_102621" data-name="Trazado 102621" d="M1259.907,1408.224a.234.234,0,0,1-.225-.175c-3.84-14.5-25.3-21.9-25.52-21.977a.235.235,0,0,1-.148-.3.239.239,0,0,1,.3-.148c.22.075,21.919,7.565,25.823,22.3a.233.233,0,0,1-.166.285A.227.227,0,0,1,1259.907,1408.224Z" transform="translate(-1224.566 -1360.622)" fill="#fff"/>
      <path id="Trazado_102622" data-name="Trazado 102622" d="M1258.337,1387.189a.232.232,0,0,1-.108-.028.234.234,0,0,1-.1-.316c.066-.126,6.574-12.749,5.6-26.047a.234.234,0,0,1,.216-.25.249.249,0,0,1,.25.217c.98,13.432-5.589,26.171-5.656,26.3A.234.234,0,0,1,1258.337,1387.189Z" transform="translate(-1226.421 -1358.694)" fill="#fff"/>
      <path id="Trazado_102623" data-name="Trazado 102623" d="M1260.34,1436.7a.235.235,0,0,1-.1-.447c.116-.055,11.764-5.564,15.63-17.858a.24.24,0,0,1,.294-.154.236.236,0,0,1,.154.293c-3.931,12.5-15.762,18.087-15.882,18.142A.225.225,0,0,1,1260.34,1436.7Z" transform="translate(-1226.575 -1363.131)" fill="#fff"/>
      <path id="Trazado_102624" data-name="Trazado 102624" d="M1255,1451.995a.231.231,0,0,1-.078-.014,14.491,14.491,0,0,1-8.84-14.424.236.236,0,0,1,.234-.227l.007,0a.233.233,0,0,1,.227.24c-.376,10.716,8.437,13.937,8.526,13.968a.234.234,0,0,1-.078.455Z" transform="translate(-1225.495 -1364.6)" fill="#fff"/>
    </g>
    <path id="Trazado_102625" data-name="Trazado 102625" d="M1240.867,1481.3,1144.9,1577.3h-44l-92.6-92.6a8.058,8.058,0,0,1,0-11.446l112.243-112.274a8.152,8.152,0,0,1,11.478,0l108.843,108.875A8.057,8.057,0,0,1,1240.867,1481.3Z" transform="translate(-2.088 -3.596)" fill="#a55579"/>
    <g id="Grupo_54150" data-name="Grupo 54150" transform="translate(1094.051 1581.367)">
      <g id="Grupo_54147" data-name="Grupo 54147" transform="translate(0)">
        <path id="Trazado_102626" data-name="Trazado 102626" d="M1112.845,1615.911l-6.471-.047c-1.538-.011-2.009-1.266-2-2.8l-.719-6.47a2.783,2.783,0,0,1,2.8-2.764l6.471.046a2.784,2.784,0,0,1,2.764,2.8l-.047,6.471A2.784,2.784,0,0,1,1112.845,1615.911Z" transform="translate(-1103.658 -1603.826)" fill="#0ac4bf"/>
        <rect id="Rectángulo_5345" data-name="Rectángulo 5345" width="12.039" height="12.039" rx="1.785" transform="matrix(1, 0.007, -0.007, 1, 25.916, 0.162)" fill="#0ac4bf"/>
        <rect id="Rectángulo_5346" data-name="Rectángulo 5346" width="12.039" height="12.039" rx="1.785" transform="matrix(1, 0.007, -0.007, 1, 50.28, 0.344)" fill="#0ac4bf"/>
      </g>
      <g id="Grupo_54149" data-name="Grupo 54149" transform="translate(0.572 17.513)">
        <g id="Grupo_54148" data-name="Grupo 54148" transform="translate(0 0)">
          <rect id="Rectángulo_5347" data-name="Rectángulo 5347" width="12.039" height="12.038" rx="1.785" transform="matrix(0.007, -1, 1, 0.007, 0, 12.038)" fill="#0ac4bf"/>
          <rect id="Rectángulo_5348" data-name="Rectángulo 5348" width="12.039" height="12.039" rx="1.785" transform="translate(24.363 12.221) rotate(-89.584)" fill="#0ac4bf"/>
          <rect id="Rectángulo_5349" data-name="Rectángulo 5349" width="12.039" height="12.039" rx="1.785" transform="translate(49.494 12.403) rotate(-89.586)" fill="#0ac4bf"/>
        </g>
      </g>
    </g>
    <g id="Grupo_54153" data-name="Grupo 54153" transform="translate(1097.545 1578.689)">
      <g id="Grupo_54151" data-name="Grupo 54151" transform="translate(0.128)">
        <path id="Trazado_102627" data-name="Trazado 102627" d="M1117.227,1613.79h-.023l-6.472-.047a3.172,3.172,0,0,1-3.149-3.2l.045-6.471a3.177,3.177,0,0,1,3.173-3.15h.026l6.47.045a3.181,3.181,0,0,1,3.151,3.2l-.048,6.471a3.174,3.174,0,0,1-3.173,3.151Zm-.018-.78h.018a2.391,2.391,0,0,0,2.394-2.377l.047-6.471a2.4,2.4,0,0,0-2.377-2.412l-6.471-.045h-.019a2.4,2.4,0,0,0-2.394,2.375l-.046,6.473a2.392,2.392,0,0,0,2.376,2.41Z" transform="translate(-1107.583 -1600.925)" fill="#fff"/>
        <path id="Trazado_102628" data-name="Trazado 102628" d="M1144.453,1613.986h-.025l-6.471-.045a3.18,3.18,0,0,1-3.151-3.2l.048-6.47a3.177,3.177,0,0,1,3.174-3.151h.022l6.471.047a3.173,3.173,0,0,1,3.151,3.2l-.047,6.473a3.171,3.171,0,0,1-3.171,3.149Zm-6.425-12.085a2.4,2.4,0,0,0-2.395,2.377l-.047,6.471a2.4,2.4,0,0,0,2.377,2.412l6.471.046h.019a2.392,2.392,0,0,0,2.392-2.376l.047-6.472a2.392,2.392,0,0,0-2.377-2.411l-6.471-.047Z" transform="translate(-1109.677 -1600.94)" fill="#fff"/>
        <path id="Trazado_102629" data-name="Trazado 102629" d="M1171.674,1614.183h-.023l-6.47-.047a3.174,3.174,0,0,1-3.151-3.2l.047-6.47a3.151,3.151,0,0,1,.946-2.238,3.053,3.053,0,0,1,2.251-.914l6.471.047a3.172,3.172,0,0,1,3.151,3.2l-.047,6.471a3.174,3.174,0,0,1-3.174,3.151Zm-.017-.779h.017a2.4,2.4,0,0,0,2.395-2.378l.047-6.47a2.393,2.393,0,0,0-2.378-2.411l-6.47-.047h-.016a2.39,2.39,0,0,0-2.394,2.377l-.047,6.471a2.4,2.4,0,0,0,2.377,2.41Z" transform="translate(-1111.771 -1600.955)" fill="#fff"/>
      </g>
      <g id="Grupo_54152" data-name="Grupo 54152" transform="translate(0 17.534)">
        <path id="Trazado_102630" data-name="Trazado 102630" d="M1117.088,1632.785h-.023l-6.471-.047a3.175,3.175,0,0,1-3.15-3.2l.047-6.47a3.172,3.172,0,0,1,3.171-3.15h.026l6.471.046a3.176,3.176,0,0,1,3.15,3.2l-.047,6.47A3.177,3.177,0,0,1,1117.088,1632.785Zm-.016-.78h.016a2.4,2.4,0,0,0,2.394-2.377l.047-6.471a2.4,2.4,0,0,0-2.377-2.412l-6.47-.045h-.02a2.391,2.391,0,0,0-2.391,2.375l-.047,6.471a2.4,2.4,0,0,0,2.377,2.412Z" transform="translate(-1107.444 -1619.92)" fill="#fff"/>
        <path id="Trazado_102631" data-name="Trazado 102631" d="M1144.315,1632.981h-.026l-6.471-.045a3.18,3.18,0,0,1-3.151-3.2l.047-6.47a3.18,3.18,0,0,1,3.175-3.151h.022l6.471.047a3.172,3.172,0,0,1,3.149,3.2l-.046,6.471A3.178,3.178,0,0,1,1144.315,1632.981Zm-6.425-12.085a2.4,2.4,0,0,0-2.4,2.377l-.047,6.471a2.4,2.4,0,0,0,2.377,2.412l6.471.046h.019a2.4,2.4,0,0,0,2.393-2.378l.045-6.47a2.39,2.39,0,0,0-2.375-2.411l-6.471-.047Z" transform="translate(-1109.538 -1619.935)" fill="#fff"/>
        <path id="Trazado_102632" data-name="Trazado 102632" d="M1171.537,1633.179h-.023l-6.471-.047a3.174,3.174,0,0,1-3.15-3.2l.046-6.47a3.18,3.18,0,0,1,3.175-3.151h.022l6.471.047a3.176,3.176,0,0,1,3.151,3.2l-.047,6.471a3.174,3.174,0,0,1-3.174,3.151Zm-.017-.779a2.469,2.469,0,0,0,1.7-.688,2.384,2.384,0,0,0,.714-1.689l.047-6.47a2.4,2.4,0,0,0-2.377-2.411l-6.471-.047h-.017a2.4,2.4,0,0,0-2.4,2.377l-.046,6.471a2.393,2.393,0,0,0,2.376,2.411Z" transform="translate(-1111.633 -1619.95)" fill="#fff"/>
      </g>
    </g>
    <rect id="Rectángulo_5350" data-name="Rectángulo 5350" width="31.942" height="31.942" rx="2.799" transform="translate(1166.815 1316.705) rotate(28.322)" fill="#3bd0cc"/>
    <g id="Grupo_54156" data-name="Grupo 54156" transform="translate(1139.517 1311.875)">
      <g id="Grupo_54154" data-name="Grupo 54154" transform="translate(7.889)">
        <path id="Trazado_102633" data-name="Trazado 102633" d="M1171.465,1327.042a3.351,3.351,0,0,1-2.493-.223h0l-5.685-2.912a3.357,3.357,0,0,1-1.458-4.517l2.913-5.685a3.341,3.341,0,0,1,1.956-1.666l.068-.02a3.33,3.33,0,0,1,2.492.229l5.684,2.911a3.36,3.36,0,0,1,1.458,4.519l-2.91,5.684A3.354,3.354,0,0,1,1171.465,1327.042Zm-1.939-1.308a2.146,2.146,0,0,0,2.881-.928l2.91-5.685a2.142,2.142,0,0,0-.928-2.881l-5.684-2.911a2.342,2.342,0,0,0-1.635-.134,2.126,2.126,0,0,0-1.243,1.061l-2.913,5.685a2.14,2.14,0,0,0,.927,2.878Z" transform="translate(-1161.459 -1311.875)" fill="#fff"/>
        <path id="Trazado_102634" data-name="Trazado 102634" d="M1195.382,1339.3a3.331,3.331,0,0,1-2.492-.23l-5.684-2.91a3.361,3.361,0,0,1-1.458-4.519l2.911-5.684a3.369,3.369,0,0,1,4.518-1.458l5.685,2.913a3.356,3.356,0,0,1,1.458,4.517l-2.913,5.685a3.336,3.336,0,0,1-1.956,1.666Zm-4.349-13.862a2.145,2.145,0,0,0-1.291,1.073l-2.91,5.683a2.142,2.142,0,0,0,.928,2.881l5.684,2.911h0a2.3,2.3,0,0,0,1.635.134,2.12,2.12,0,0,0,1.243-1.061l2.913-5.685a2.139,2.139,0,0,0-.928-2.878l-5.684-2.912A2.136,2.136,0,0,0,1191.033,1325.437Z" transform="translate(-1163.299 -1312.818)" fill="#fff"/>
        <path id="Trazado_102635" data-name="Trazado 102635" d="M1219.3,1351.546a3.352,3.352,0,0,1-2.493-.224h0l-5.684-2.913a3.363,3.363,0,0,1-1.459-4.517l2.913-5.685a3.353,3.353,0,0,1,4.517-1.458l5.684,2.91a3.361,3.361,0,0,1,1.458,4.519l-2.91,5.684A3.352,3.352,0,0,1,1219.3,1351.546Zm-1.939-1.308a2.146,2.146,0,0,0,2.881-.928l2.911-5.684a2.141,2.141,0,0,0-.928-2.881l-5.683-2.91a2.3,2.3,0,0,0-1.635-.133,2.121,2.121,0,0,0-1.244,1.06l-2.913,5.685a2.143,2.143,0,0,0,.928,2.878Z" transform="translate(-1165.139 -1313.76)" fill="#fff"/>
      </g>
      <g id="Grupo_54155" data-name="Grupo 54155" transform="translate(0 15.407)">
        <path id="Trazado_102636" data-name="Trazado 102636" d="M1162.916,1343.735a3.332,3.332,0,0,1-2.492-.23l-5.683-2.91a3.362,3.362,0,0,1-1.459-4.519l2.911-5.684a3.37,3.37,0,0,1,4.52-1.458l5.684,2.913a3.356,3.356,0,0,1,1.458,4.516l-2.912,5.685a3.337,3.337,0,0,1-1.957,1.666Zm-4.349-13.862a2.14,2.14,0,0,0-1.29,1.073l-2.91,5.683a2.141,2.141,0,0,0,.928,2.881l5.683,2.91h0a2.091,2.091,0,0,0,1.635.134,2.125,2.125,0,0,0,1.244-1.06l2.913-5.685a2.141,2.141,0,0,0-.928-2.878l-5.685-2.912A2.129,2.129,0,0,0,1158.568,1329.873Z" transform="translate(-1152.913 -1328.565)" fill="#fff"/>
        <path id="Trazado_102637" data-name="Trazado 102637" d="M1186.831,1355.983a3.349,3.349,0,0,1-2.49-.224h0l-5.685-2.913a3.363,3.363,0,0,1-1.458-4.517l2.913-5.685a3.365,3.365,0,0,1,4.516-1.459l5.685,2.912a3.361,3.361,0,0,1,1.458,4.519l-2.911,5.682A3.348,3.348,0,0,1,1186.831,1355.983Zm-1.937-1.31a2.145,2.145,0,0,0,2.88-.929l2.911-5.682a2.142,2.142,0,0,0-.928-2.881l-5.685-2.912a2.144,2.144,0,0,0-2.877.929l-2.913,5.685a2.141,2.141,0,0,0,.928,2.878Z" transform="translate(-1154.753 -1329.508)" fill="#fff"/>
        <path id="Trazado_102638" data-name="Trazado 102638" d="M1210.748,1368.239a3.324,3.324,0,0,1-2.49-.23l-5.685-2.913a3.351,3.351,0,0,1-1.458-4.517l2.91-5.684a3.368,3.368,0,0,1,4.519-1.458l5.685,2.913a3.358,3.358,0,0,1,1.457,4.517l-2.913,5.685a3.34,3.34,0,0,1-1.96,1.664C1210.793,1368.223,1210.771,1368.232,1210.748,1368.239Zm-4.347-13.862a2.14,2.14,0,0,0-1.291,1.072l-2.91,5.684a2.132,2.132,0,0,0,.927,2.878l5.685,2.913h0a2.122,2.122,0,0,0,1.589.147c.014,0,.027-.01.042-.015a2.125,2.125,0,0,0,1.247-1.059l2.913-5.685a2.139,2.139,0,0,0-.928-2.878l-5.684-2.913A2.136,2.136,0,0,0,1206.4,1354.377Z" transform="translate(-1156.592 -1330.45)" fill="#fff"/>
      </g>
    </g>
    <g id="Grupo_54181" data-name="Grupo 54181" transform="translate(1013.864 1335.697)">
      <g id="Grupo_54173" data-name="Grupo 54173" transform="translate(0 25.152)">
        <g id="Grupo_54157" data-name="Grupo 54157" transform="translate(20.497)">
          <path id="Trazado_102639" data-name="Trazado 102639" d="M1219.128,1478.113H1038.993l2.643-109.827,174.82-3.355Z" transform="translate(-1038.993 -1364.93)" fill="#392b69"/>
          <path id="Trazado_102640" data-name="Trazado 102640" d="M1041.7,1475.884l2.527-105,170.062-3.264,2.556,108.264Z" transform="translate(-1039.201 -1365.137)" fill="url(#linear-gradient)"/>
        </g>
        <g id="Grupo_54159" data-name="Grupo 54159" transform="translate(97.214 22.611)">
          <path id="Trazado_102641" data-name="Trazado 102641" d="M1131.651,1443.652a5.629,5.629,0,0,1-3.221-1.2.1.1,0,0,1-.041-.1c.146-.813.26-1.733.338-2.733,1.2-15.664-6.543-49.732-6.621-50.074a.1.1,0,0,1,.027-.092.1.1,0,0,1,.092-.028c.092.02,9.147,2.115,13.346,9.54l.006.011c6.37,15.5,1.383,34.213-1.057,41.539-.513,1.542-.87,2.432-.873,2.441a.092.092,0,0,1-.022.034A2.981,2.981,0,0,1,1131.651,1443.652Zm-3.054-1.325c2.978,2.067,4.7.69,4.873.536.056-.143.393-1,.86-2.408,2.432-7.305,7.406-25.959,1.064-41.394-3.855-6.81-11.847-9.089-13.058-9.4.573,2.547,7.752,34.83,6.59,49.976C1128.85,1440.618,1128.739,1441.523,1128.6,1442.327Z" transform="translate(-1122.103 -1389.425)" fill="#fff"/>
          <path id="Trazado_102642" data-name="Trazado 102642" d="M1132.175,1447.827a5.63,5.63,0,0,1-3.222-1.2.1.1,0,0,1-.041-.1c.146-.813.26-1.733.338-2.733a.1.1,0,0,1,.159-.073,6.131,6.131,0,0,0,5.512.842.106.106,0,0,1,.1.027.1.1,0,0,1,.022.1c-.513,1.542-.869,2.432-.873,2.441a.1.1,0,0,1-.022.034A2.981,2.981,0,0,1,1132.175,1447.827Zm-3.055-1.325c3,2.085,4.686.705,4.873.536.054-.135.364-.93.8-2.232a6.313,6.313,0,0,1-5.359-.819C1129.359,1444.9,1129.253,1445.747,1129.12,1446.5Z" transform="translate(-1122.627 -1393.601)" fill="#fff"/>
          <g id="Grupo_54158" data-name="Grupo 54158" transform="translate(4.935 3.865)">
            <path id="Trazado_102643" data-name="Trazado 102643" d="M1128.632,1394.984a.1.1,0,0,1-.077-.035,14.757,14.757,0,0,0-1.073-1.164.1.1,0,1,1,.136-.146,14.562,14.562,0,0,1,1.09,1.181.1.1,0,0,1-.011.141A.1.1,0,0,1,1128.632,1394.984Z" transform="translate(-1127.45 -1393.613)" fill="#fff"/>
            <path id="Trazado_102644" data-name="Trazado 102644" d="M1134.852,1438.6a.092.092,0,0,1-.027,0,.1.1,0,0,1-.07-.123c.284-1.046.547-2.1.783-3.141a.1.1,0,0,1,.195.044c-.236,1.041-.5,2.1-.785,3.15A.1.1,0,0,1,1134.852,1438.6Zm1.429-6.322-.017,0a.1.1,0,0,1-.08-.115c.192-1.07.359-2.146.5-3.2a.1.1,0,0,1,.113-.086.1.1,0,0,1,.086.112c-.138,1.056-.3,2.135-.5,3.208A.1.1,0,0,1,1136.281,1432.277Zm.832-6.427h-.007a.1.1,0,0,1-.092-.108c.084-1.082.137-2.169.16-3.231a.1.1,0,0,1,.1-.1.1.1,0,0,1,.1.1c-.023,1.066-.077,2.157-.161,3.243A.1.1,0,0,1,1137.113,1425.851Zm.132-6.477a.1.1,0,0,1-.1-.1c-.042-1.084-.119-2.168-.229-3.226a.1.1,0,0,1,.2-.021c.11,1.062.188,2.153.23,3.239a.1.1,0,0,1-.1.1Zm-.672-6.444a.1.1,0,0,1-.1-.083c-.185-1.066-.409-2.13-.666-3.163a.1.1,0,1,1,.194-.049c.259,1.038.483,2.107.668,3.179a.1.1,0,0,1-.081.114Zm-1.568-6.283a.1.1,0,0,1-.094-.068c-.342-1.028-.726-2.046-1.141-3.025a.1.1,0,1,1,.184-.078c.418.984.8,2.007,1.146,3.04a.1.1,0,0,1-.064.126A.085.085,0,0,1,1135,1406.646Zm-2.536-5.958a.1.1,0,0,1-.089-.054c-.514-.967-1.069-1.9-1.648-2.779a.1.1,0,1,1,.166-.111c.583.882,1.141,1.823,1.658,2.8a.1.1,0,0,1-.042.135A.092.092,0,0,1,1132.469,1400.688Z" transform="translate(-1127.701 -1393.927)" fill="#fff"/>
            <path id="Trazado_102645" data-name="Trazado 102645" d="M1133.669,1446.889a.1.1,0,0,1-.031-.005.1.1,0,0,1-.063-.125q.255-.766.491-1.519a.1.1,0,0,1,.125-.066.1.1,0,0,1,.066.126q-.237.754-.492,1.521A.1.1,0,0,1,1133.669,1446.889Z" transform="translate(-1127.921 -1397.579)" fill="#fff"/>
          </g>
        </g>
        <g id="Grupo_54161" data-name="Grupo 54161" transform="translate(174.426 44.958)">
          <path id="Trazado_102646" data-name="Trazado 102646" d="M1212.787,1467.862a2.977,2.977,0,0,1-1.972-.658.1.1,0,0,1-.023-.034c0-.009-.36-.9-.872-2.441-2.441-7.327-7.427-26.042-1.058-41.538l.006-.011c4.2-7.425,13.255-9.52,13.346-9.541a.1.1,0,0,1,.093.028.1.1,0,0,1,.026.092c-.078.343-7.822,34.41-6.62,50.075.078,1,.191,1.916.338,2.732a.1.1,0,0,1-.042.1A5.624,5.624,0,0,1,1212.787,1467.862Zm-1.818-.787c.187.168,1.869,1.549,4.873-.537-.143-.807-.253-1.711-.33-2.69-1.162-15.146,6.016-47.428,6.59-49.976-1.212.311-9.2,2.59-13.058,9.4-6.341,15.434-1.368,34.089,1.064,41.394C1210.578,1466.072,1210.914,1466.933,1210.97,1467.074Z" transform="translate(-1205.75 -1413.635)" fill="#fff"/>
          <path id="Trazado_102647" data-name="Trazado 102647" d="M1213.135,1472.037a2.975,2.975,0,0,1-1.972-.658.1.1,0,0,1-.023-.034c0-.009-.36-.9-.872-2.442a.1.1,0,0,1,.022-.1.1.1,0,0,1,.1-.028,6.134,6.134,0,0,0,5.513-.842.1.1,0,0,1,.159.073c.078,1,.191,1.917.338,2.733a.1.1,0,0,1-.042.1A5.625,5.625,0,0,1,1213.135,1472.037Zm-1.818-.787c.186.168,1.869,1.549,4.873-.537-.134-.758-.24-1.6-.316-2.515a6.309,6.309,0,0,1-5.358.819C1210.952,1470.32,1211.264,1471.114,1211.317,1471.25Z" transform="translate(-1206.098 -1417.811)" fill="#fff"/>
          <g id="Grupo_54160" data-name="Grupo 54160" transform="translate(1.979 3.865)">
            <path id="Trazado_102648" data-name="Trazado 102648" d="M1217.083,1419.2a.1.1,0,0,1-.064-.024.1.1,0,0,1-.011-.14,14.064,14.064,0,0,1,1.09-1.181.1.1,0,1,1,.136.147,14.3,14.3,0,0,0-1.074,1.163A.1.1,0,0,1,1217.083,1419.2Z" transform="translate(-1208.593 -1417.823)" fill="#fff"/>
            <path id="Trazado_102649" data-name="Trazado 102649" d="M1210.414,1462.809a.1.1,0,0,1-.1-.074c-.284-1.049-.548-2.108-.785-3.149a.1.1,0,1,1,.195-.044c.235,1.038.5,2.1.783,3.141a.1.1,0,0,1-.07.123Zm-1.429-6.322a.1.1,0,0,1-.1-.082c-.193-1.073-.36-2.152-.5-3.207a.1.1,0,0,1,.086-.113.1.1,0,0,1,.112.087c.138,1.051.3,2.128.5,3.2a.1.1,0,0,1-.081.116Zm-.832-6.425a.1.1,0,0,1-.1-.092c-.083-1.088-.138-2.179-.16-3.243a.1.1,0,0,1,.1-.1.1.1,0,0,1,.1.1c.022,1.061.077,2.148.16,3.232a.1.1,0,0,1-.091.107Zm-.131-6.478h0a.1.1,0,0,1-.095-.1c.042-1.086.119-2.177.229-3.239a.1.1,0,0,1,.2.021c-.109,1.058-.186,2.143-.228,3.226A.1.1,0,0,1,1208.022,1443.584Zm.671-6.443-.017,0a.1.1,0,0,1-.081-.115c.185-1.071.41-2.141.668-3.178a.1.1,0,0,1,.121-.073.1.1,0,0,1,.073.121c-.257,1.033-.482,2.1-.666,3.164A.1.1,0,0,1,1208.693,1437.141Zm1.568-6.284a.091.091,0,0,1-.031-.006.1.1,0,0,1-.064-.125c.344-1.034.729-2.057,1.147-3.041a.1.1,0,1,1,.184.078c-.415.979-.8,2-1.141,3.025A.1.1,0,0,1,1210.262,1430.856Zm2.537-5.958a.1.1,0,0,1-.047-.012.1.1,0,0,1-.042-.135c.516-.972,1.074-1.913,1.658-2.8a.1.1,0,1,1,.166.11c-.58.878-1.135,1.813-1.648,2.78A.1.1,0,0,1,1212.8,1424.9Z" transform="translate(-1207.894 -1418.137)" fill="#fff"/>
            <path id="Trazado_102650" data-name="Trazado 102650" d="M1212.095,1471.1a.1.1,0,0,1-.094-.068q-.256-.767-.492-1.521a.1.1,0,0,1,.19-.06q.237.753.491,1.518a.1.1,0,0,1-.064.127A.125.125,0,0,1,1212.095,1471.1Z" transform="translate(-1208.172 -1421.789)" fill="#fff"/>
          </g>
        </g>
        <g id="Grupo_54162" data-name="Grupo 54162" transform="translate(120.238 51.499)">
          <path id="Trazado_102651" data-name="Trazado 102651" d="M1159.146,1475.49a10.716,10.716,0,0,1-6.1-2.092.1.1,0,0,1-.035-.043c-.224-.516-.437-1.043-.635-1.568-4.146-11.055.509-17.568.557-17.633a.1.1,0,0,1,.139-.02.1.1,0,0,1,.021.139c-.047.064-4.638,6.5-.531,17.443.192.513.4,1.028.619,1.533,6.526,4.415,11.444.856,17.139-3.265,5.351-3.872,11.414-8.26,20.223-7.284a13.1,13.1,0,0,0-.367-1.738c-2.079-7.394-10.294-13.416-10.377-13.476a.1.1,0,0,1-.022-.138.1.1,0,0,1,.139-.023c.084.061,8.355,6.123,10.452,13.584a13.308,13.308,0,0,1,.39,1.892.1.1,0,0,1-.029.083.1.1,0,0,1-.082.029c-8.8-1.022-14.862,3.363-20.21,7.233C1166.568,1472.947,1163.053,1475.49,1159.146,1475.49Z" transform="translate(-1147.324 -1422.766)" fill="#fff"/>
          <path id="Trazado_102652" data-name="Trazado 102652" d="M1156.551,1452.5a27.148,27.148,0,0,1-3.833-.227.1.1,0,0,1-.069-.046.1.1,0,0,1-.01-.082c2.6-8.342-5.5-24.58-5.578-24.744a.1.1,0,0,1,.179-.09c.082.163,8.141,16.33,5.623,24.781a40.725,40.725,0,0,0,26.559-6.739c-6.236-6.234-6.855-24.281-6.86-24.462a.1.1,0,0,1,.1-.1.1.1,0,0,1,.1.1c.005.183.628,18.316,6.888,24.412a.1.1,0,0,1-.014.154A41.485,41.485,0,0,1,1156.551,1452.5Z" transform="translate(-1147.047 -1420.726)" fill="#fff"/>
          <path id="Trazado_102653" data-name="Trazado 102653" d="M1147.438,1427.51c-.351,0-.37-.077-.385-.135-.033-.134-.09-.357,3.689-1.52,2.38-.732,5.568-1.611,8.977-2.476s6.63-1.611,9.072-2.1c3.876-.779,3.934-.555,3.967-.423h0c.033.133.09.356-3.689,1.519-2.38.732-5.568,1.611-8.976,2.476s-6.631,1.611-9.072,2.1A23.1,23.1,0,0,1,1147.438,1427.51Zm-.14-.2c.735.1,5.832-.9,12.745-2.655s11.865-3.3,12.469-3.739c-.746-.1-5.834.9-12.744,2.655S1147.9,1426.874,1147.3,1427.313Zm25.287-6.375h0Z" transform="translate(-1147.047 -1420.721)" fill="#fff"/>
          <path id="Trazado_102654" data-name="Trazado 102654" d="M1155.97,1449.786a.107.107,0,0,1-.033-.006.1.1,0,0,1-.06-.127,12.857,12.857,0,0,0,.679-3.088.1.1,0,0,1,.109-.09.1.1,0,0,1,.09.109,13.04,13.04,0,0,1-.691,3.136A.1.1,0,0,1,1155.97,1449.786Zm.69-6.3a.1.1,0,0,1-.1-.091,23.916,23.916,0,0,0-.491-3.142.1.1,0,1,1,.195-.043,24.179,24.179,0,0,1,.5,3.169.1.1,0,0,1-.09.108Zm-1.348-6.234a.1.1,0,0,1-.095-.068c-.321-.973-.7-1.976-1.125-2.983a.1.1,0,1,1,.185-.078c.426,1.012.808,2.021,1.131,3a.1.1,0,0,1-.065.127A.114.114,0,0,1,1155.312,1437.251Zm-2.476-5.89a.1.1,0,0,1-.089-.054c-.868-1.706-1.548-2.777-1.554-2.789a.1.1,0,0,1,.031-.137.1.1,0,0,1,.137.03c.007.01.692,1.09,1.564,2.805a.1.1,0,0,1-.043.134A.09.09,0,0,1,1152.837,1431.361Z" transform="translate(-1147.364 -1421.309)" fill="#fff"/>
          <path id="Trazado_102655" data-name="Trazado 102655" d="M1177.2,1444.26a.1.1,0,0,1-.069-.028,15.272,15.272,0,0,1-2.057-2.462.1.1,0,0,1,.166-.112,15.042,15.042,0,0,0,2.029,2.431.1.1,0,0,1-.069.171Zm-3.568-5.247a.1.1,0,0,1-.091-.06,21.877,21.877,0,0,1-1.051-3.028.1.1,0,0,1,.07-.123.1.1,0,0,1,.123.07,21.7,21.7,0,0,0,1.04,3,.1.1,0,0,1-.051.132A.1.1,0,0,1,1173.631,1439.013Zm-1.682-6.143a.1.1,0,0,1-.1-.086c-.149-1.026-.247-2.1-.3-3.19a.1.1,0,0,1,.095-.105.1.1,0,0,1,.1.1c.047,1.085.146,2.151.294,3.171a.1.1,0,0,1-.085.114Zm-.292-6.376h0a.1.1,0,0,1-.095-.1,29.142,29.142,0,0,1,.3-3.192.1.1,0,0,1,.115-.082.1.1,0,0,1,.081.115,28.935,28.935,0,0,0-.3,3.168A.1.1,0,0,1,1171.657,1426.494Z" transform="translate(-1148.932 -1420.905)" fill="#fff"/>
          <path id="Trazado_102656" data-name="Trazado 102656" d="M1159.268,1476.591a10.683,10.683,0,0,1-6.08-2.094.1.1,0,0,1-.035-.043c-.224-.516-.437-1.043-.635-1.568a.1.1,0,0,1,.142-.122c3.033,1.683,8.075,2.626,14.874-2.43,9.2-6.84,14.969-9.84,22.9-8.4a.1.1,0,0,1,.078.071,13.279,13.279,0,0,1,.39,1.892.1.1,0,0,1-.111.113c-8.8-1.022-14.862,3.363-20.21,7.233a42.737,42.737,0,0,1-6.489,4.153A11.283,11.283,0,0,1,1159.268,1476.591Zm-5.944-2.243a9.873,9.873,0,0,0,10.681.869,42.525,42.525,0,0,0,6.457-4.134c5.352-3.872,11.413-8.26,20.223-7.284a13.034,13.034,0,0,0-.351-1.678c-7.827-1.4-13.558,1.585-22.683,8.372-6.71,4.991-11.746,4.2-14.852,2.572C1152.965,1473.495,1153.14,1473.925,1153.324,1474.348Z" transform="translate(-1147.467 -1423.864)" fill="#fff"/>
          <path id="Trazado_102657" data-name="Trazado 102657" d="M1165,1475.581a.1.1,0,0,1-.043-.19,42.53,42.53,0,0,0,6.457-4.135c5.378-3.891,11.474-8.3,20.351-7.269a.1.1,0,0,1,.089.1c-.272,10.247-26.583,11.481-26.85,11.492Zm24.182-11.546c-7.447,0-12.837,3.9-17.651,7.384a46.765,46.765,0,0,1-6.042,3.935c3.612-.222,25.771-1.968,26.162-11.179A22.082,22.082,0,0,0,1189.183,1464.035Z" transform="translate(-1148.42 -1424.038)" fill="#fff"/>
        </g>
        <g id="Grupo_54164" data-name="Grupo 54164" transform="translate(116.731 8.056)">
          <path id="Trazado_102658" data-name="Trazado 102658" d="M1156.474,1400.714a17.8,17.8,0,0,1-5.785-.988c-3.8-1.333-6.743-3.81-7.321-6.166a4.252,4.252,0,0,1-.1-.619.1.1,0,0,1,.076-.106.1.1,0,0,1,.115.059c.981,2.4,4.372,4.8,8.247,5.846a15.605,15.605,0,0,0,13.789-2.575,70,70,0,0,1,10.279-6.293c4.633-2.459,7.981-4.235,7.81-6.846a.1.1,0,0,1,.191-.045,4.172,4.172,0,0,1,.2.618h0c.754,3.078-2.843,4.988-7.823,7.63a69.836,69.836,0,0,0-10.251,6.274A15.182,15.182,0,0,1,1156.474,1400.714Zm-12.884-7.1c.617,2.228,3.54,4.65,7.165,5.92a15.864,15.864,0,0,0,15.027-2.192,70.048,70.048,0,0,1,10.279-6.292c4.9-2.6,8.44-4.479,7.722-7.406-.005-.023-.012-.045-.018-.068-.291,2.432-3.533,4.153-7.9,6.471a69.87,69.87,0,0,0-10.252,6.274,15.8,15.8,0,0,1-13.963,2.61C1148,1397.95,1144.88,1395.867,1143.59,1393.617Z" transform="translate(-1143.248 -1374.37)" fill="#fff"/>
          <path id="Trazado_102659" data-name="Trazado 102659" d="M1156.172,1399.156a17.529,17.529,0,0,1-4.523-.6c-3.993-1.077-7.36-3.473-8.378-5.963a.082.082,0,0,1-.007-.029,4.583,4.583,0,0,1,.039-1.1c.517-3.309,4.494-6.917,10.64-9.652a.1.1,0,0,1,.081.183c-5.994,2.667-10.025,6.306-10.524,9.5a4.359,4.359,0,0,0-.039,1.036c.988,2.393,4.374,4.789,8.24,5.832a15.605,15.605,0,0,0,13.789-2.575,70.013,70.013,0,0,1,10.279-6.293c4.624-2.454,7.966-4.228,7.811-6.83a4.365,4.365,0,0,0-.608-1.014c-2.112-2.659-7.7-3.94-14.575-3.343a.1.1,0,0,1-.108-.091.1.1,0,0,1,.09-.108c6.942-.6,12.6.708,14.749,3.419a4.532,4.532,0,0,1,.642,1.076.079.079,0,0,1,.007.032c.18,2.741-3.215,4.542-7.914,7.036a69.862,69.862,0,0,0-10.252,6.274A15.209,15.209,0,0,1,1156.172,1399.156Z" transform="translate(-1143.247 -1373.988)" fill="#fff"/>
          <path id="Trazado_102660" data-name="Trazado 102660" d="M1154.686,1382.269l-.026,0a.1.1,0,0,1-.07-.123c.883-3.279,2.729-7.382,6.511-8.309,4.034-.99,7.09,2.365,8.942,5.354a.1.1,0,0,1-.17.105c-1.818-2.932-4.8-6.228-8.725-5.265-3.688.9-5.5,4.94-6.366,8.167A.1.1,0,0,1,1154.686,1382.269Z" transform="translate(-1144.119 -1373.657)" fill="#fff"/>
          <path id="Trazado_102661" data-name="Trazado 102661" d="M1155.844,1389.043c-1.079,0-2.116-.139-2.244-.662a.492.492,0,0,1,.014-.269,28.115,28.115,0,0,1,.469-3.52.1.1,0,1,1,.2.039,28.705,28.705,0,0,0-.47,3.518.353.353,0,0,0-.015.185c.1.4,1.167.578,2.862.486a37.426,37.426,0,0,0,6.541-1.072c5.386-1.322,8.8-3.049,8.607-3.834a.305.305,0,0,0-.018-.048,24.058,24.058,0,0,0-1.084-2.387.1.1,0,0,1,.042-.134.1.1,0,0,1,.135.042,24.334,24.334,0,0,1,1.089,2.4.464.464,0,0,1,.029.08c.279,1.139-4.231,2.966-8.753,4.075a37.639,37.639,0,0,1-6.578,1.077C1156.4,1389.035,1156.12,1389.043,1155.844,1389.043Z" transform="translate(-1144.042 -1374.248)" fill="#fff"/>
          <path id="Trazado_102662" data-name="Trazado 102662" d="M1165.97,1383.913a.106.106,0,0,1-.049-.013.1.1,0,0,1-.048-.063l-.423-1.728a.1.1,0,0,1,.066-.118,30.316,30.316,0,0,0,5.409-2.4.453.453,0,0,1,.611.163c.175.293.354.607.535.935a.458.458,0,0,1-.175.614h0a32.239,32.239,0,0,1-5.742,2.558l-.152.048A.114.114,0,0,1,1165.97,1383.913Zm-.3-1.761.376,1.534.05-.016a32.006,32.006,0,0,0,5.705-2.542.256.256,0,0,0,.1-.344c-.178-.324-.356-.637-.531-.928a.252.252,0,0,0-.342-.091A30.648,30.648,0,0,1,1165.667,1382.152Zm6.181-.936h0Z" transform="translate(-1144.955 -1374.109)" fill="#fff"/>
          <path id="Trazado_102663" data-name="Trazado 102663" d="M1158.217,1385.3c-.156,0-.312,0-.466-.005a16.961,16.961,0,0,1-3.743-.5.453.453,0,0,1-.328-.535c.069-.327.15-.669.245-1.047a.454.454,0,0,1,.207-.279.449.449,0,0,1,.343-.052,14.777,14.777,0,0,0,3.453.455,18.653,18.653,0,0,0,3.5-.286.106.106,0,0,1,.075.017.1.1,0,0,1,.042.066l.293,1.743a.1.1,0,0,1-.081.115A20.662,20.662,0,0,1,1158.217,1385.3Zm-3.853-2.237a.249.249,0,0,0-.129.037.255.255,0,0,0-.116.157c-.1.376-.176.715-.244,1.039a.254.254,0,0,0,.183.3,16.786,16.786,0,0,0,3.7.5,20.209,20.209,0,0,0,3.865-.288l-.26-1.546a18.891,18.891,0,0,1-3.436.271,14.973,14.973,0,0,1-3.5-.461A.283.283,0,0,0,1154.364,1383.061Z" transform="translate(-1144.049 -1374.366)" fill="#fff"/>
          <g id="Grupo_54163" data-name="Grupo 54163" transform="translate(17.191 7.553)">
            <path id="Trazado_102664" data-name="Trazado 102664" d="M1162.636,1385.515a.3.3,0,0,1-.162-.048.287.287,0,0,1-.132-.2l-.465-2.774a.277.277,0,0,1,.058-.231.294.294,0,0,1,.2-.114l2.869-.3a.3.3,0,0,1,.32.224l.57,2.324a.3.3,0,0,1-.217.361l-2.972.755A.263.263,0,0,1,1162.636,1385.515Zm2.4-3.475h-.011l-2.869.3a.1.1,0,0,0-.067.038.086.086,0,0,0-.019.072l.467,2.779a.087.087,0,0,0,.042.065.1.1,0,0,0,.077.015l2.972-.756a.1.1,0,0,0,.072-.119h0l-.569-2.323A.1.1,0,0,0,1165.038,1382.039Zm-2.244,3.033a.1.1,0,0,1-.054-.017.1.1,0,0,1-.044-.066l-.4-2.358a.1.1,0,0,1,.018-.077.1.1,0,0,1,.069-.039l2.489-.263a.1.1,0,0,1,.108.076l.482,1.965a.1.1,0,0,1-.072.12l-2.575.655Zm-.281-2.369.361,2.145,2.374-.6-.438-1.784Z" transform="translate(-1161.871 -1381.84)" fill="#fff"/>
            <path id="Trazado_102665" data-name="Trazado 102665" d="M1163.5,1384.289a.306.306,0,0,1-.072-.6l1.242-.306a.307.307,0,0,1,.336.458.3.3,0,0,1-.189.138l-1.243.306A.354.354,0,0,1,1163.5,1384.289Zm1.244-.719-.026,0-1.243.306a.105.105,0,0,0-.067.049.108.108,0,0,0-.012.081.1.1,0,0,0,.048.066.109.109,0,0,0,.081.013l1.244-.305h0a.1.1,0,0,0,.065-.048.109.109,0,0,0,.013-.081A.108.108,0,0,0,1164.742,1383.57Z" transform="translate(-1161.973 -1381.958)" fill="#fff"/>
          </g>
        </g>
        <g id="Grupo_54165" data-name="Grupo 54165" transform="translate(150.096 22.524)">
          <path id="Trazado_102666" data-name="Trazado 102666" d="M1186.742,1418.81a11.072,11.072,0,0,1-6.92-2.6.1.1,0,0,1-.033-.108,21.655,21.655,0,0,0-.388-14.136.1.1,0,0,1,.006-.094.1.1,0,0,1,.081-.047,27.669,27.669,0,0,0,20.322-12.45.1.1,0,0,1,.161-.008,21.655,21.655,0,0,0,12.417,6.769.1.1,0,0,1,.08.079,10.765,10.765,0,0,1-1.485,8.44c-1.89,2.723-5.1,4.449-9.544,5.129l-4.518,2.768c-2.626,3.65-5.622,5.726-8.907,6.172A9.487,9.487,0,0,1,1186.742,1418.81ZM1180,1416.1a10.561,10.561,0,0,0,7.989,2.428c3.233-.439,6.187-2.493,8.783-6.107a.09.09,0,0,1,.028-.027l4.552-2.788a.1.1,0,0,1,.038-.014c4.4-.67,7.571-2.369,9.43-5.049a10.557,10.557,0,0,0,1.469-8.219,22.012,22.012,0,0,1-12.385-6.726,27.938,27.938,0,0,1-20.265,12.42A22.006,22.006,0,0,1,1180,1416.1Z" transform="translate(-1179.393 -1389.332)" fill="#fff"/>
          <path id="Trazado_102667" data-name="Trazado 102667" d="M1186.777,1419.379a11.132,11.132,0,0,1-6.922-2.6.1.1,0,0,1,.107-.167c.078.039,7.87,3.808,16.693-5.933l1.056-1.226a.092.092,0,0,1,.077-.034,15.187,15.187,0,0,0,6.09-1.529c2.953-1.425,6.812-4.51,8.43-11.112a.091.091,0,0,1,.1-.076.1.1,0,0,1,.1.079c1.088,5.192-.881,11.418-9.668,13.319a8.676,8.676,0,0,0-2.7,1.072l-1.834,1.123a8.7,8.7,0,0,0-2.184,1.922C1193.06,1417.958,1189.79,1419.379,1186.777,1419.379Zm-6.242-2.332c4.063,2.922,10.078,3.592,15.423-2.955a8.891,8.891,0,0,1,2.234-1.965l1.834-1.123a8.859,8.859,0,0,1,2.766-1.1c8.4-1.818,10.468-7.64,9.6-12.646-1.7,6.383-5.506,9.4-8.434,10.813a15.539,15.539,0,0,1-6.125,1.545l-1.027,1.193C1189.363,1419.027,1182.624,1417.731,1180.535,1417.048Z" transform="translate(-1179.425 -1389.899)" fill="#fff"/>
        </g>
        <g id="Grupo_54172" data-name="Grupo 54172" transform="translate(0 4.409)">
          <g id="Grupo_54168" data-name="Grupo 54168" transform="translate(30.994)">
            <path id="Trazado_102668" data-name="Trazado 102668" d="M1116.686,1377.4q-3.65,37.2-7.3,74.393a20.081,20.081,0,0,0-6.612-5.98c-4.5-2.387-9.278-2-14.159-.54q-.862.259-1.731.558c-1.948.671-3.906,1.484-5.871,2.324-9.638,4.131-19.349,9.036-27.909,2.15a21.222,21.222,0,0,1-2.744-2.674c.032-.405.064-.812.1-1.217q2.962-37.329,5.933-74.761c7.617,10.25,16.414,8.469,25.388,4.881,7.58-3.029,15.288-7.346,22.52-6.782C1108.645,1370.094,1112.815,1372.2,1116.686,1377.4Z" transform="translate(-1050.365 -1369.707)" fill="#ffe0ce"/>
            <g id="Grupo_54166" data-name="Grupo 54166" transform="translate(5.518 17.03)">
              <path id="Trazado_102669" data-name="Trazado 102669" d="M1063.765,1449.856a15.935,15.935,0,0,1-4.971-.788,17.559,17.559,0,0,1-2.2-.976l-.013-.007a.133.133,0,0,1-.094-.14l5.837-59.523a.134.134,0,0,1,.2-.1,15.588,15.588,0,0,0,9.964,1.535.116.116,0,0,1,.057-.011c.126,0,.128.124.129.194.027,1.653.415,7.272,4.292,10.2,2.525,1.9,6.042,2.269,10.454,1.084a.136.136,0,0,1,.121.027.133.133,0,0,1,.046.115l-2.291,23.372c0,.047,0,.047-.2.264-2.953,3.277-12.653,14.641-13.5,23.288a.135.135,0,0,1-.092.114A25.614,25.614,0,0,1,1063.765,1449.856Zm-7-1.975a18.108,18.108,0,0,0,2.107.933c1.925.577,5.5,1.651,12.467-.545.912-8.717,10.6-20.071,13.558-23.353l.138-.152,2.269-23.14c-4.411,1.146-7.941.75-10.5-1.179-3.9-2.945-4.357-8.522-4.4-10.312a15.84,15.84,0,0,1-9.836-1.487Z" transform="translate(-1056.354 -1388.168)" fill="#ffe0ce"/>
              <path id="Trazado_102670" data-name="Trazado 102670" d="M1063.753,1449.979a16.081,16.081,0,0,1-5.009-.795,17.679,17.679,0,0,1-2.228-.989.263.263,0,0,1-.173-.275l5.837-59.523a.267.267,0,0,1,.392-.209,15.444,15.444,0,0,0,9.866,1.522.245.245,0,0,1,.1-.014c.109,0,.246.065.251.324.027,1.638.41,7.2,4.24,10.093,2.49,1.878,5.969,2.236,10.34,1.063a.267.267,0,0,1,.334.283l-2.292,23.372c-.009.091-.021.105-.235.341-2.946,3.27-12.623,14.6-13.466,23.212a.267.267,0,0,1-.185.228A26.086,26.086,0,0,1,1063.753,1449.979Zm-1.949-.383a16.03,16.03,0,0,0,1.949.116q.611,0,1.253-.043A16.888,16.888,0,0,1,1061.8,1449.6Zm-4.913-1.8a19.455,19.455,0,0,0,2.014.882c1.892.568,5.422,1.626,12.3-.521.971-8.747,10.636-20.07,13.583-23.341l.108-.12,2.247-22.909c-4.364,1.1-7.872.679-10.427-1.248-3.869-2.918-4.386-8.417-4.446-10.267a15.944,15.944,0,0,1-9.594-1.431Zm14.538.568-.065.02c-.1.032-.2.062-.3.093C1071.188,1448.44,1071.308,1448.4,1071.429,1448.363Zm.023-.047,0,.042h0Zm-9.007-59.893-5.836,59.523.013,0-.013-.007.008-.086,5.827-59.433.135.071Zm22.63,36.467-.078.086c-.087.1-.179.2-.277.309l.261-.291Zm2.365-23.455-.019.19-2.274,23.179,0-.007,2.287-23.364-.135.036Zm-10.993-1.45q.2.176.424.343c2.156,1.626,5.02,2.147,8.534,1.554-3.513.593-6.378.071-8.533-1.554Q1076.652,1400.161,1076.447,1399.984Zm8.967,1.9h0Zm.008,0h0Zm.008,0h0Zm.009,0h0Zm.008,0h0Zm.008,0Zm-22.271-13.077a15.875,15.875,0,0,0,9.191,1.193l.146-.02,0-.016-.027.019A15.93,15.93,0,0,1,1063.186,1388.8Zm9.34,1.2,0,.106c0-.026,0-.052,0-.075Z" transform="translate(-1056.343 -1388.156)" fill="#b2927e"/>
            </g>
            <g id="Grupo_54167" data-name="Grupo 54167" transform="translate(36.903 6.13)">
              <path id="Trazado_102671" data-name="Trazado 102671" d="M1103.033,1439.732h-.014a.118.118,0,0,1-.048-.015l-.014,0c-.078-.014-.272-.049-.753-.159l-.155-.026a17.137,17.137,0,0,0-5.509-.023.131.131,0,0,1-.11-.037.134.134,0,0,1-.04-.109c1.415-14.424-.625-30.84-1.966-39.34-.709-4.549-1.95-11.514-3.831-18.874a2.167,2.167,0,0,1-.106-.456h0a.133.133,0,0,1,.126-.12c.416-.215,1.222-.546,2.4-.983l.469-.193a52.206,52.206,0,0,1,5.3-1.919,21.182,21.182,0,0,1,10.924-.463.134.134,0,0,1,.089.069.137.137,0,0,1,0,.113c-5.656,13.18-6.589,60.38-6.626,62.382v.016a.1.1,0,0,1,0,.023.1.1,0,0,1,0,.024A.134.134,0,0,1,1103.033,1439.732Zm-3.571-.693a14.428,14.428,0,0,1,2.632.228l.161.028c.341.077.535.117.648.139.067-3.4,1.055-48.995,6.582-62.2a20.974,20.974,0,0,0-10.636.495,51.929,51.929,0,0,0-5.271,1.91l-.474.195c-1.13.421-1.912.74-2.33.951l.076.3c1.885,7.369,3.126,14.344,3.836,18.9,1.338,8.481,3.37,24.829,1.984,39.243A23.3,23.3,0,0,1,1099.462,1439.038Z" transform="translate(-1090.354 -1376.359)" fill="#ffe0ce"/>
              <path id="Trazado_102672" data-name="Trazado 102672" d="M1103.022,1439.854h-.029a.281.281,0,0,1-.075-.019c-.1-.019-.3-.056-.755-.16l-.147-.024a17.012,17.012,0,0,0-5.47-.023.27.27,0,0,1-.22-.074.265.265,0,0,1-.079-.216c1.413-14.411-.624-30.813-1.964-39.308-.709-4.544-1.948-11.506-3.829-18.861-.114-.448-.114-.448-.109-.5a.266.266,0,0,1,.218-.237c.427-.217,1.23-.546,2.389-.978l.465-.191a52.453,52.453,0,0,1,5.31-1.924,21.318,21.318,0,0,1,10.993-.466.266.266,0,0,1,.185.364c-5.646,13.16-6.578,60.332-6.615,62.333a.476.476,0,0,1,0,.052l-.01.047A.265.265,0,0,1,1103.022,1439.854Zm-.027-.276.027.01v-.006Zm.032-.258,0,.105,0,.145v-.009C1103.024,1439.508,1103.026,1439.428,1103.028,1439.319Zm-6.175-4.638c-.077,1.575-.189,3.139-.341,4.681l.106-.014-.106.013.017-.164C1096.672,1437.708,1096.778,1436.2,1096.853,1434.681Zm2.6,4.479a14.136,14.136,0,0,1,2.313.177,14.127,14.127,0,0,0-2.311-.177c-.2,0-.409,0-.621.011C1099.047,1439.164,1099.254,1439.16,1099.449,1439.16Zm0-.266a14.546,14.546,0,0,1,2.654.23l.162.027c.222.05.381.085.5.109.114-5.682,1.151-48.791,6.528-61.942a20.876,20.876,0,0,0-10.417.528,51.948,51.948,0,0,0-5.251,1.9l-.477.2c-1.046.391-1.792.692-2.225.9l.049.191c1.885,7.374,3.128,14.354,3.839,18.911,1.332,8.441,3.357,24.721,2,39.112A23.565,23.565,0,0,1,1099.451,1438.895Zm-5.683-43.555c.308,1.728.567,3.3.778,4.648.153.971.315,2.045.48,3.208-.165-1.162-.327-2.237-.48-3.208C1094.334,1398.635,1094.077,1397.067,1093.768,1395.339Zm0,0v0Zm-.28-1.538v0Zm-2.7-12.379c1.123,4.428,2.013,8.7,2.695,12.374C1092.8,1390.115,1091.914,1385.844,1090.792,1381.419Zm-.141-.553.036.138Zm-.015-.179-.027,0,0,.011Zm.136-.067c-.03.014-.058.028-.084.042l.016-.008Zm10.021-3.522c-.7.148-1.362.318-1.994.492a52.284,52.284,0,0,0-5.282,1.914l-.061.025.06-.025a52.659,52.659,0,0,1,5.283-1.914C1099.432,1377.415,1100.1,1377.245,1100.794,1377.1Zm8.864.03-.061.147c-.037.087-.073.177-.11.268.057-.141.114-.28.172-.414Z" transform="translate(-1090.343 -1376.347)" fill="#b2927e"/>
            </g>
          </g>
          <g id="Grupo_54171" data-name="Grupo 54171" transform="translate(0 34.445)">
            <path id="Trazado_102673" data-name="Trazado 102673" d="M1082.48,1459.575c-7.322-3.018-12.019-.489-15.916,3.726-3.146,3.4-5.77,7.9-8.837,11.471-3.8,4.422-8.272,7.415-15.248,5.124q-12.831-25.847-25.692-51.765c3.58,1.474,6.532,1.626,9.068.9,5.408-1.544,8.934-7.056,12.65-12.18,3.5-4.828,7.165-9.307,12.723-9.789a14.913,14.913,0,0,1,7,1.28q10.1,21.344,20.2,42.684Q1080.46,1455.3,1082.48,1459.575Z" transform="translate(-1016.788 -1407.023)" fill="#ffece2"/>
            <g id="Grupo_54169" data-name="Grupo 54169" transform="translate(8.36 21.457)">
              <path id="Trazado_102674" data-name="Trazado 102674" d="M1047.3,1480.492a.133.133,0,0,1-.12-.077l-21.173-44.727-.009-.02a.132.132,0,0,1,.065-.176.134.134,0,0,1,.093-.007c.055,0,.219-.021.552-.058l.8-.089.167-.038c1.4-.306,4.019-.874,7.737-4.845a.134.134,0,0,1,.117-.041.13.13,0,0,1,.1.075c1.966,4.152,4.588,6.774,7.583,7.582a6.761,6.761,0,0,0,4.35-.159.133.133,0,0,1,.218.033.113.113,0,0,1,.012.038h0l.412,2.863c1.847,12.82,3.758,26.076,4.931,37.624a.134.134,0,0,1-.061.125,11.416,11.416,0,0,1-5.771,1.9Zm-20.976-44.758,21.058,44.488a11.153,11.153,0,0,0,5.483-1.807c-1.173-11.523-3.078-24.745-4.922-37.531l-.386-2.681a6.826,6.826,0,0,1-2.975.376c-2.545-.206-6.179-1.731-9.108-7.8-3.7,3.9-6.325,4.475-7.74,4.783l-.181.04-.816.09C1026.556,1435.71,1026.423,1435.725,1026.324,1435.734Z" transform="translate(-1025.856 -1430.279)" fill="#ffe0ce"/>
              <path id="Trazado_102675" data-name="Trazado 102675" d="M1047.289,1480.614a.269.269,0,0,1-.241-.152l-21.172-44.729a.267.267,0,0,1,.279-.394c.066-.005.218-.023.5-.053l.834-.091.152-.035c1.391-.3,3.979-.866,7.668-4.807a.269.269,0,0,1,.234-.081.264.264,0,0,1,.2.149c1.95,4.116,4.542,6.714,7.5,7.511a6.737,6.737,0,0,0,4.234-.138.273.273,0,0,1,.1-.058.269.269,0,0,1,.317.141.276.276,0,0,1,.023.077l.413,2.863c1.848,12.822,3.758,26.078,4.931,37.629a.264.264,0,0,1-.121.251,11.564,11.564,0,0,1-5.837,1.916Zm0-.267v0Zm-21.182-44.746,21.182,44.746-.038-.08-21.14-44.659.016,0Zm22.432,44.619a11.176,11.176,0,0,1-1.161.123l-.054,0A11.212,11.212,0,0,0,1048.54,1480.22Zm-22.026-44.383,20.94,44.235a11,11,0,0,0,5.26-1.736c-1.174-11.51-3.075-24.693-4.912-37.444l-.363-2.516a7.186,7.186,0,0,1-2.878.323c-2.547-.206-6.188-1.714-9.132-7.7-3.664,3.809-6.27,4.375-7.677,4.682l-.18.04-.83.093Zm26.45,42.656-.038.024q-.4.252-.8.469Q1052.547,1478.759,1052.963,1478.493ZM1047.653,1438l.411,2.853c1.816,12.6,3.692,25.621,4.871,37.035-1.177-11.407-3.054-24.432-4.87-37.034l-.414-2.864-.028.023Zm-12.153-7.466.083.173c2.637,5.465,5.842,7.208,8.283,7.634-.226-.04-.459-.09-.7-.155-3.034-.818-5.686-3.465-7.669-7.654l-.09.1Zm-7.33,4.776c-.171.042-.33.076-.475.107l-.166.038-.848.094-.15.017.177-.019.82-.091.166-.038C1027.84,1435.387,1028,1435.353,1028.17,1435.312Z" transform="translate(-1025.845 -1430.268)" fill="#b2927e"/>
            </g>
            <g id="Grupo_54170" data-name="Grupo 54170" transform="translate(25.385 4.129)">
              <path id="Trazado_102676" data-name="Trazado 102676" d="M1068.916,1461.372a.133.133,0,0,1-.11-.058l-.01-.018c-.012-.019-.162-.24-.37-.547-6.06-8.937-20.528-30.882-23.986-41.614a.131.131,0,0,1,.022-.123c2.721-3.463,6.18-7.045,11.2-7.371a.133.133,0,0,1,.133.085c.165.409,14.58,35.2,20.318,45.508a.133.133,0,0,1,.006.118.136.136,0,0,1-.091.076,12.684,12.684,0,0,0-5.984,2.966c-.095.083-.182.159-.261.225a4.48,4.48,0,0,1-.736.663.132.132,0,0,1-.068.076A.125.125,0,0,1,1068.916,1461.372Zm-24.2-42.252c3.486,10.724,17.89,32.571,23.932,41.48l.292.431a5.084,5.084,0,0,0,.657-.606c.089-.075.174-.149.268-.231a12.825,12.825,0,0,1,5.927-2.983c-2.981-5.4-8.287-17.357-12.233-26.482-2.261-5.226-4.317-10.084-5.645-13.237-1.673-3.978-2.183-5.187-2.321-5.58C1050.75,1412.264,1047.378,1415.741,1044.714,1419.12Z" transform="translate(-1044.3 -1411.506)" fill="#ffe0ce"/>
              <path id="Trazado_102677" data-name="Trazado 102677" d="M1068.9,1461.494a.265.265,0,0,1-.221-.118l-.021-.038h0s-.151-.221-.359-.526c-6.063-8.942-20.538-30.9-24-41.648a.262.262,0,0,1,.044-.245c2.739-3.486,6.223-7.092,11.291-7.422a.267.267,0,0,1,.266.171c.131.325,14.613,35.257,20.308,45.491a.265.265,0,0,1-.169.388,12.565,12.565,0,0,0-5.928,2.937c-.1.084-.184.161-.264.228a5.125,5.125,0,0,1-.715.65.267.267,0,0,1-.117.108A.263.263,0,0,1,1068.9,1461.494Zm-.012-.287,0,0,.008.149v-.133h0l.013-.038Zm.407-.326c-.1.089-.185.164-.261.222A3.4,3.4,0,0,0,1069.3,1460.881Zm-24.448-41.746c3.519,10.731,17.874,32.5,23.893,41.378l.212.314a6.485,6.485,0,0,0,.531-.507c.1-.084.183-.158.276-.239a12.859,12.859,0,0,1,5.815-2.969c-3-5.481-8.258-17.328-12.156-26.343-2.265-5.237-4.32-10.091-5.645-13.239-1.563-3.713-2.108-5.01-2.29-5.491C1050.765,1412.429,1047.462,1415.833,1044.852,1419.135Zm-.3-.053c3.435,10.66,17.764,32.421,23.874,41.44-6.091-8.991-20.379-30.689-23.852-41.373Zm26.093,40.607c-.285.222-.516.425-.709.592l-.039.034.039-.034C1070.132,1460.113,1070.364,1459.911,1070.648,1459.69Zm3.964-2.02h0Zm1.346-.422.021.039-.168.042q-.641.161-1.2.342c.42-.135.874-.263,1.367-.383Zm-20.1-45c.234.579.725,1.75,1.739,4.159C1056.761,1414.424,1056.152,1412.964,1055.856,1412.25Z" transform="translate(-1044.289 -1411.495)" fill="#b2927e"/>
            </g>
          </g>
        </g>
        <path id="Trazado_102678" data-name="Trazado 102678" d="M1121.054,1377.408q-3.65,37.2-7.295,74.393a20.082,20.082,0,0,0-6.612-5.98l1.523-76.059C1113.013,1370.1,1117.183,1372.2,1121.054,1377.408Z" transform="translate(-1023.739 -1365.302)" fill="#ffcab3" opacity="0.4"/>
        <path id="Trazado_102679" data-name="Trazado 102679" d="M1088.907,1445.438a72.613,72.613,0,0,0-7.6,2.883q-10.1-21.344-20.2-42.684a14.914,14.914,0,0,0-7-1.28q1.289-16.261,2.582-32.537c7.617,10.25,16.414,8.469,25.388,4.881Z" transform="translate(-1019.658 -1365.46)" fill="#fff" opacity="0.25"/>
        <path id="Trazado_102680" data-name="Trazado 102680" d="M1087.793,1448.885c-1.948.671-3.906,1.483-5.871,2.324l-19.81-41.851h8.546Z" transform="translate(-1020.275 -1368.348)" fill="#b2927e" opacity="0.15"/>
        <path id="Trazado_102681" data-name="Trazado 102681" d="M1057.728,1476.532c-3.8,4.422-8.272,7.415-15.248,5.124q-12.831-25.846-25.692-51.765c3.58,1.474,6.532,1.626,9.068.9Z" transform="translate(-1016.788 -1369.928)" fill="#fff" opacity="0.25"/>
        <path id="Trazado_102682" data-name="Trazado 102682" d="M1084.29,1459.575c-7.322-3.018-12.019-.489-15.916,3.726l-28.058-46.447c3.5-4.828,7.165-9.307,12.723-9.789a14.914,14.914,0,0,1,7,1.28q10.1,21.344,20.2,42.684Q1082.27,1455.3,1084.29,1459.575Z" transform="translate(-1018.598 -1368.169)" fill="#ffcab3" opacity="0.4"/>
      </g>
      <g id="Grupo_54180" data-name="Grupo 54180" transform="translate(50.3)">
        <g id="Grupo_54178" data-name="Grupo 54178">
          <g id="Grupo_54177" data-name="Grupo 54177">
            <g id="Grupo_54176" data-name="Grupo 54176">
              <path id="Trazado_102683" data-name="Trazado 102683" d="M1106.5,1372.619h0a10.348,10.348,0,0,1-1.293-3.5l-.406-2.324.85-.132,1.525,2.081Z" transform="translate(-1073.858 -1339.912)" fill="#f28c70"/>
              <path id="Trazado_102684" data-name="Trazado 102684" d="M1108.489,1365.844l-.293.418a9.477,9.477,0,0,0-1.7,4.765l-.115,1.6-2.971,9.573,7.248,3.661v-11.735l.329-.326a7.749,7.749,0,0,0,2.26-3.889Z" transform="translate(-1073.752 -1339.849)" fill="#f28c70"/>
              <g id="Grupo_54175" data-name="Grupo 54175" transform="translate(33.672 25.054)">
                <g id="Grupo_54174" data-name="Grupo 54174">
                  <path id="Trazado_102685" data-name="Trazado 102685" d="M1110.876,1366.777l-.477.479-.651.657a.6.6,0,0,1-.971-.7l.711-1.435a.606.606,0,0,1,.9-.223l.416.3a.571.571,0,0,1,.159.169l.031.053A.609.609,0,0,1,1110.876,1366.777Z" transform="translate(-1107.832 -1364.873)" fill="#f5a38d"/>
                  <path id="Trazado_102686" data-name="Trazado 102686" d="M1108.134,1367.318h0a.547.547,0,0,1-.369-.605l.23-1.428a.546.546,0,0,1,.711-.432l.438.145a.546.546,0,0,1,.313.771l-.667,1.283A.546.546,0,0,1,1108.134,1367.318Z" transform="translate(-1107.759 -1364.825)" fill="#f5a38d"/>
                  <path id="Trazado_102687" data-name="Trazado 102687" d="M1112.956,1368.092a.536.536,0,0,1-.238.448l-.574.381-.6.4a.535.535,0,0,1-.714-.777l.4-.5.476-.6a.5.5,0,0,1,.139-.124.53.53,0,0,1,.67.091l.3.33a.512.512,0,0,1,.136.333A.083.083,0,0,1,1112.956,1368.092Z" transform="translate(-1107.986 -1365.01)" fill="#f5a38d"/>
                  <path id="Trazado_102688" data-name="Trazado 102688" d="M1111.973,1370.371h0a.465.465,0,0,1,.155-.582l1.012-.7a.463.463,0,0,1,.683.182l.168.353a.463.463,0,0,1-.288.645l-1.18.345A.465.465,0,0,1,1111.973,1370.371Z" transform="translate(-1108.079 -1365.147)" fill="#f5a38d"/>
                </g>
              </g>
              <path id="Trazado_102689" data-name="Trazado 102689" d="M1105.534,1368.232H1103.2a2.749,2.749,0,0,1-.47-.031,4.691,4.691,0,0,1-1.518-.483,5.456,5.456,0,0,1-1.486-1.118,11.067,11.067,0,0,1-.756-4.575c0-.6.031-1.182.077-1.727a18.585,18.585,0,0,1,.482-3.185c.147-.324,1.1-4.172,1.594-5.331a1.551,1.551,0,0,1,.124-.251c.432-.664.981-2.3,1.486-2.536a41.277,41.277,0,0,1,4.375-.664s.085.264.21.712c.168.584.406,1.482.616,2.511a19.006,19.006,0,0,1,.457,4.312C1108.8,1359.469,1106.429,1366.86,1105.534,1368.232Z" transform="translate(-1073.41 -1338.502)" fill="url(#linear-gradient-2)"/>
              <path id="Trazado_102690" data-name="Trazado 102690" d="M1131.477,1614.851a7.394,7.394,0,0,1-5.864.3q-.467-.129-1-.3s-16.83-43.386-18.221-55.438c-.73-6.347-1.553-34.166-1.553-34.166l15.513-44.607s1.832,18.824,1.832,38.233l-1.137,4.388Z" transform="translate(-1073.862 -1348.68)" fill="#346062"/>
              <path id="Trazado_102691" data-name="Trazado 102691" d="M1147.711,1634.519h-22.427a9.512,9.512,0,0,1,1.882-8.188,7.4,7.4,0,0,0,5.864-.3,38.469,38.469,0,0,0,11.916,5.563,3.746,3.746,0,0,1,2.765,2.921Z" transform="translate(-1075.415 -1359.865)" fill="#e04c3d"/>
              <path id="Trazado_102692" data-name="Trazado 102692" d="M1131.9,1421.6c-.089.045-.181.086-.271.127a13.965,13.965,0,0,1-9.226.838l-3.226-.816-.686-9.839Z" transform="translate(-1074.911 -1343.393)" fill="url(#linear-gradient-3)"/>
              <path id="Trazado_102693" data-name="Trazado 102693" d="M1101.841,1375.17c-2.622-.042-5.82,3.588-14.44-.835a12.34,12.34,0,0,0,1.108-2.737,19.764,19.764,0,0,0,.708-3.683,24.359,24.359,0,0,0-.047-5.1l.285-1.841h10.877l.026.556.029.648.257,5.741.042.936.19,4.245a3.02,3.02,0,0,0,.965,2.067Z" transform="translate(-1072.52 -1339.475)" fill="url(#linear-gradient-2)"/>
              <path id="Trazado_102694" data-name="Trazado 102694" d="M1116.438,1515.97l-2.406,3.587-18.58,90.962s-.353.111-.911.241c-1.321.308-3.794.73-5.512.061a3.085,3.085,0,0,1-.606-.3c-.845-.543-.428-10.8-.79-24.26v-.006c-.543-20.2-.934-46.376.5-50.9,3.94-12.417,10.21-19.182,10.21-19.182-1.336-4.763-2.429-9.351-3.324-13.652a187.733,187.733,0,0,1-3.988-30.686s-6.985-3.607-8.045-16.056c-.33-3.88,1.178-9.039,2.447-12.576.867-2.4,1.623-4.054,1.623-4.054l30.661,2.079S1121.548,1454.467,1116.438,1515.97Z" transform="translate(-1072.177 -1345.488)" fill="url(#linear-gradient-5)"/>
              <path id="Trazado_102695" data-name="Trazado 102695" d="M1108.735,1634.444h-21.64a20.383,20.383,0,0,1,2.254-9.321c1.718.669,4.191.247,5.512-.061,4.826,5.8,8.182,5.931,10.84,6.389a3.69,3.69,0,0,1,3.022,2.927Z" transform="translate(-1072.496 -1359.79)" fill="#e04c3d"/>
              <path id="Trazado_102696" data-name="Trazado 102696" d="M1117.151,1436.327v0a37.99,37.99,0,0,1-7.049,2.115c-10.5,2.082-20.161-.394-24.584-1.87-1.615-.54-2.533-.946-2.533-.946s.1-.375.234-1.048a30.068,30.068,0,0,0-.126-11.861c-1.191-5.334-3.271-11.471-4.944-16.986l-.006-.016c-1.619-5.337-2.854-10.093-2.53-12.973,1.1-9.715,10.877-17.3,10.877-17.3,8.62,4.422,11.817.793,14.44.834a2.55,2.55,0,0,1,1.616.619,32.174,32.174,0,0,1,4.349,4.343c.489.587.955,1.194,1.4,1.81a42.8,42.8,0,0,1,5.956,12.23,70.5,70.5,0,0,1,2.737,13.664c.271,2.518.428,5.01.518,7.423C1117.8,1424.533,1117.242,1431.826,1117.151,1436.327Z" transform="translate(-1071.609 -1340.588)" fill="url(#linear-gradient-3)"/>
              <path id="Trazado_102697" data-name="Trazado 102697" d="M1132.873,1415.683a3.656,3.656,0,0,1-1.3,2.8,3.567,3.567,0,0,1-.765.495c-.152.073-.3.139-.457.2a7.032,7.032,0,0,1-7.861-1.861c-.718-.809-1.518-1.714-2.375-2.7-.232-.267-.474-.543-.714-.822l0,0c-1.527-1.762-3.2-3.718-4.886-5.747-3.1-3.734-6.248-7.7-8.6-11.1-2.159-3.105-3.654-5.734-3.855-7.267a13.425,13.425,0,0,1-.115-1.645,15.531,15.531,0,0,1,.972-5.454,5.517,5.517,0,0,1,5.772-3.61,5.967,5.967,0,0,1,.667.115,16.552,16.552,0,0,1,4.124,1.625,16.034,16.034,0,0,1,4.373,3.4c6,7.029,12.321,23.456,14.811,30.329A3.61,3.61,0,0,1,1132.873,1415.683Z" transform="translate(-1073.638 -1340.856)" fill="url(#linear-gradient-3)"/>
              <path id="Trazado_102698" data-name="Trazado 102698" d="M1106.825,1347.766c-.276.255-.533.5-.772.75-3.435,3.509-3.531,6.429-3.152,8.077a1.4,1.4,0,0,1,.034.3,1.343,1.343,0,0,1-1.209,1.33c-.626-2.791-1.794-4.581-3.5-2.064-.07.1-.143.216-.216.337a6.813,6.813,0,0,0-.918,2.714c-.3,2.169.089,4.486-1.006,7.309-1.193,3.08-5.578,2.807-7.636,1.667-.632-.349-1.045-.781-1.076-1.222a12.369,12.369,0,0,0-2.273-5.829c-4.62-6.16-4.708-14.913-.787-19.015a7.332,7.332,0,0,1,.787-.717C1096.179,1332.66,1107.2,1341.219,1106.825,1347.766Z" transform="translate(-1072.066 -1337.683)" fill="#743234"/>
              <path id="Trazado_102699" data-name="Trazado 102699" d="M1103.317,1359.792a4.269,4.269,0,0,1-1.457,3.441,2.124,2.124,0,0,1-.574.3,1.845,1.845,0,0,1-.6.1,2.256,2.256,0,0,1-1.788-1.026v0a4.074,4.074,0,0,1-.609-1.226,5.432,5.432,0,0,1-.235-1.593c0-2.125,1.178-3.845,2.633-3.845,1.4,0,2.543,1.594,2.625,3.61C1103.314,1359.633,1103.317,1359.712,1103.317,1359.792Z" transform="translate(-1073.339 -1339.088)" fill="url(#linear-gradient-2)"/>
              <path id="Trazado_102700" data-name="Trazado 102700" d="M1091.089,1357.621a11.646,11.646,0,0,1-1.6,6.028,26.022,26.022,0,0,1-1.961,2.912l0,0c-2.471,3.159-6.15,6.033-10.541,3.821-8.786-7.635-6-23.32-1.134-25.144,2.182-.819,5.062-.215,7.676,1.021h.006c2.816,1.334,5.32,3.4,6.3,5.213A13.961,13.961,0,0,1,1091.089,1357.621Z" transform="translate(-1071.28 -1338.235)" fill="#572627"/>
              <path id="Trazado_102701" data-name="Trazado 102701" d="M1088.55,1366.678a26.276,26.276,0,0,0,1.962-2.915,11.644,11.644,0,0,0,1.6-6.026,10.629,10.629,0,0,0-6.807-10.982h0v0c-.244-.13-.495-.257-.746-.374.254.029,8.4,1,9.446,9.718S1088.734,1366.627,1088.55,1366.678Z" transform="translate(-1072.301 -1338.352)" fill="url(#linear-gradient-5)"/>
            </g>
            <path id="Trazado_102702" data-name="Trazado 102702" d="M1111.828,1367.227a.5.5,0,0,0-.139.124l-.476.6-.674-.644.477-.479a.608.608,0,0,0,.114-.7Z" transform="translate(-1074.3 -1339.871)" fill="#f28c70"/>
            <path id="Trazado_102703" data-name="Trazado 102703" d="M1113.1,1369.075l-.417.318-.417-.4.574-.381a.535.535,0,0,0,.238-.448Z" transform="translate(-1074.433 -1340.027)" fill="#f28c70"/>
          </g>
          <path id="Trazado_102704" data-name="Trazado 102704" d="M1119.164,1437.358a37.984,37.984,0,0,1-7.049,2.115c1.6-4.34,2.038-10.189,1.985-15.641a38.419,38.419,0,0,0-7.335-22.142c-2.72-3.756-4.689-7-4.921-8.776a13.985,13.985,0,0,1,.076-4.121,13.423,13.423,0,0,0,.115,1.645c.483,3.717,8.573,13.849,15.224,21.646.073.086.146.174.219.258.108.126.216.251.321.375l.391.457c.031.035.056.066.089.1q.562.652,1.1,1.276l0,0q.086,1.439.137,2.845c.009.26.018.521.025.781C1119.776,1426.026,1119.252,1433,1119.164,1437.358Z" transform="translate(-1073.622 -1341.615)" fill="#a76b40" opacity="0.5"/>
          <path id="Trazado_102705" data-name="Trazado 102705" d="M1131.807,1422.1a13.777,13.777,0,0,1-4.2,1.169,12.708,12.708,0,0,1-6.592-2.937c-.007-.26-.016-.521-.025-.781q-.053-1.405-.137-2.845c.858.981,2.371,2.708,3.09,3.518a7.03,7.03,0,0,0,7.861,1.861A.03.03,0,0,1,1131.807,1422.1Z" transform="translate(-1075.094 -1343.761)" fill="#a76b40" opacity="0.25"/>
          <path id="Trazado_102706" data-name="Trazado 102706" d="M1116.646,1516.143l-2.406,3.587-18.58,90.962c-3.553-46.38,19.548-95.217,19.548-95.217s-7.806-40.392-4.092-66.819a51.451,51.451,0,0,1-25.473-5.28c.229-.635.451-1.217.651-1.727,4.423,1.476,14.084,3.953,24.584,1.87a37.981,37.981,0,0,0,7.049-2.115C1118.009,1441.694,1121.7,1455.308,1116.646,1516.143Z" transform="translate(-1072.385 -1345.662)" fill="#346062" opacity="0.25"/>
          <path id="Trazado_102707" data-name="Trazado 102707" d="M1092.787,1478.289s.879,14.526,2.908,26.956a187.716,187.716,0,0,1-3.988-30.686s5.613,2.092,9.249,2.257C1098.689,1478.454,1092.787,1478.289,1092.787,1478.289Z" transform="translate(-1072.851 -1348.212)" fill="#346062" opacity="0.25"/>
          <path id="Trazado_102708" data-name="Trazado 102708" d="M1098.694,1539.492c-2.311,9.874-9.578,30.134-10.711,53.18-.543-20.2-.934-46.376.5-50.9,3.94-12.417,10.21-19.182,10.21-19.182S1101.006,1529.615,1098.694,1539.492Z" transform="translate(-1072.527 -1351.907)" fill="#8abdbf"/>
          <path id="Trazado_102709" data-name="Trazado 102709" d="M1105.5,1432.3c-4.658,1.578-18.221-3.245-21.422-9.588a21.818,21.818,0,0,1-.641,14.4,30.065,30.065,0,0,0-.126-11.861c-1.191-5.334-3.271-11.471-4.944-16.986C1078.616,1408.922,1086.82,1430.187,1105.5,1432.3Z" transform="translate(-1071.825 -1343.112)" fill="#a76b40" opacity="0.5"/>
          <path id="Trazado_102710" data-name="Trazado 102710" d="M1100.736,1367.988l-.177-4a1.845,1.845,0,0,1-.6.1,2.257,2.257,0,0,1-1.788-1.026v0a4.075,4.075,0,0,1-.609-1.226c-.15,1.949.042,4.049-.924,6.537-1.193,3.08-5.578,2.807-7.636,1.667-.121.6-.258,1.143-.4,1.623,1.8.521,7.226,1.433,10.207-.655a5.669,5.669,0,0,0,1.982-1.806Z" transform="translate(-1072.612 -1339.541)" fill="#f28c70"/>
          <path id="Trazado_102711" data-name="Trazado 102711" d="M1100.711,1362.968a1.5,1.5,0,0,1-1.179-.573,4.3,4.3,0,0,1,0-5.4.079.079,0,1,1,.122.1,4.148,4.148,0,0,0,0,5.194c.985,1.156,2.371.036,2.43-.012a.079.079,0,0,1,.1.123A2.675,2.675,0,0,1,1100.711,1362.968Z" transform="translate(-1073.378 -1339.166)" fill="#dd735b"/>
          <path id="Trazado_102712" data-name="Trazado 102712" d="M1105.534,1368.315H1103.2a2.765,2.765,0,0,1-.47-.031,4.684,4.684,0,0,1-1.518-.483,5.444,5.444,0,0,1-1.486-1.118,11.053,11.053,0,0,1-.756-4.572,2.257,2.257,0,0,0,1.788,1.026,1.842,1.842,0,0,0,.6-.1,2.133,2.133,0,0,0,.574-.3,4.27,4.27,0,0,0,1.457-3.441c0-.079,0-.159-.006-.235a1.34,1.34,0,0,0,.9-1.26,1.4,1.4,0,0,0-.034-.3c-.379-1.648-.282-4.568,3.152-8.077.159.572.355,1.349.534,2.219-.994,1.051-3.118,3.639-3.162,6.581-.054,3.852-1.385,5.414-2.6,5.886C1102.093,1364.858,1102,1367.5,1105.534,1368.315Z" transform="translate(-1073.41 -1338.585)" fill="#f28c70" opacity="0.5"/>
          <path id="Trazado_102713" data-name="Trazado 102713" d="M1107.06,1347.766s-3.916,1.184-6-4.133c-3.34-8.5-16.5-1.515-16.5-1.515a7.344,7.344,0,0,1,.787-.717C1096.414,1332.66,1107.435,1341.219,1107.06,1347.766Z" transform="translate(-1072.301 -1337.683)" fill="#914047"/>
          <path id="Trazado_102714" data-name="Trazado 102714" d="M1090.575,1363.795a11.644,11.644,0,0,0,1.6-6.026,10.63,10.63,0,0,0-6.807-10.982c.2.057,6.572,2.019,7.188,8.454.629,6.537-3.937,11.465-3.941,11.468A26.242,26.242,0,0,0,1090.575,1363.795Z" transform="translate(-1072.364 -1338.383)" fill="#a3d0c9"/>
          <path id="Trazado_102715" data-name="Trazado 102715" d="M1111.126,1395.988a9.828,9.828,0,0,1-.275-5.908c.026-.1.049-.211.068-.321a15.814,15.814,0,0,0,.24-2.764,14.245,14.245,0,0,0-1.356-6.24,2.9,2.9,0,0,0-3.619-1.46,5.515,5.515,0,0,0-3.276,3.3,15.53,15.53,0,0,0-.972,5.454,13.425,13.425,0,0,0,.115,1.645c.015.114.04.238.069.366,0,.014,0,.026.007.04s.015.048.021.073q.04.155.091.318l.015.047a28.805,28.805,0,0,0,3.651,6.424c2.356,3.4,5.5,7.365,8.6,11.1,1.686,2.029,3.359,3.985,4.886,5.747l0,0c.241.28.483.556.714.823.857.981,1.657,1.886,2.375,2.7a7,7,0,0,0,2.52,1.806C1118.483,1413.25,1113.616,1402.443,1111.126,1395.988Z" transform="translate(-1073.638 -1340.87)" fill="#fbdfc9" opacity="0.25"/>
          <path id="Trazado_102716" data-name="Trazado 102716" d="M1133.834,1415.83a3.656,3.656,0,0,1-1.3,2.8c-4.375-15.846-18.1-37.769-18.1-37.769a16.034,16.034,0,0,1,4.373,3.4c6,7.029,12.321,23.456,14.811,30.329A3.613,3.613,0,0,1,1133.834,1415.83Z" transform="translate(-1074.599 -1341.004)" fill="#a76b40" opacity="0.25"/>
          <path id="Trazado_102717" data-name="Trazado 102717" d="M1108.586,1635.128h-21.65a.4.4,0,0,1-.4-.4v-.368a.4.4,0,0,1,.4-.4l21.65.368a.4.4,0,0,1,.386.336h0A.4.4,0,0,1,1108.586,1635.128Z" transform="translate(-1072.454 -1360.475)" fill="#6f1b13"/>
          <path id="Trazado_102718" data-name="Trazado 102718" d="M1147.589,1635.128H1125.1a.4.4,0,0,1-.4-.4v-.368a.4.4,0,0,1,.4-.4l22.486.368a.4.4,0,0,1,.386.336h0A.4.4,0,0,1,1147.589,1635.128Z" transform="translate(-1075.39 -1360.475)" fill="#6f1b13"/>
        </g>
        <g id="Grupo_54179" data-name="Grupo 54179" transform="translate(14.084 274.653)" opacity="0.15">
          <path id="Trazado_102719" data-name="Trazado 102719" d="M1108.586,1635.225h-21.65c-.22,0-.4.095-.4.212v.2c0,.118.182.213.4.211l21.65-.2c.193,0,.356-.078.386-.179h0C1109.015,1635.341,1108.828,1635.225,1108.586,1635.225Z" transform="translate(-1086.538 -1635.225)" fill="#6f1b13"/>
          <path id="Trazado_102720" data-name="Trazado 102720" d="M1147.589,1635.225H1125.1c-.22,0-.4.095-.4.212v.2c0,.118.182.213.4.211l22.486-.2c.193,0,.356-.078.386-.179h0C1148.018,1635.341,1147.833,1635.225,1147.589,1635.225Z" transform="translate(-1089.474 -1635.225)" fill="#6f1b13"/>
        </g>
      </g>
    </g>
  </g>
</svg>
