<svg xmlns="http://www.w3.org/2000/svg" width="270.978" height="442.274" viewBox="0 0 270.978 442.274">
  <g id="Grupo_54815" data-name="Grupo 54815" transform="translate(-368 -2242.706)">
    <g id="Grupo_53449" data-name="Grupo 53449" transform="translate(-474.116 1336.449)">
      <g id="Grupo_53448" data-name="Grupo 53448" transform="translate(880.212 927.616)">
        <path id="Trazado_100162" data-name="Trazado 100162" d="M1059.1,1230.975l-.082-.385-.693-4.351-20.454-97.616a17.963,17.963,0,0,1-.393-3.947c.333-25.659,16.793-98.214,16.793-98.214V993.627l-9.2-23.243c-3.753-9.14-1.85-26.632-1.071-32.468a2.384,2.384,0,0,0-1.623-2.578l-43.592-14.4c-9.147,13.45-22.244,22.285-35.34,22.285s-26.193-8.835-35.34-22.285l-43.592,14.4a2.384,2.384,0,0,0-1.623,2.578c.781,5.835,2.684,23.328-1.071,32.468l-9.2,23.243v32.834s16.458,72.555,16.793,98.214a18.074,18.074,0,0,1-.393,3.947l-20.456,97.616-.692,4.351-.083.385a2.7,2.7,0,0,0,1.783,3.131c10.894,3.629,58.132,20.36,88.595,47.023h10.55c30.463-26.663,77.7-43.394,88.594-47.023A2.7,2.7,0,0,0,1059.1,1230.975Z" transform="translate(-866.979 -920.036)" fill="#e6e6e6"/>
        <path id="Trazado_100163" data-name="Trazado 100163" d="M969.269,1282.192H958.15l-.214-.187c-30.625-26.8-78.958-43.749-88.336-46.874a3.456,3.456,0,0,1-2.285-4.009l.083-.385.684-4.311,20.463-97.653a17.3,17.3,0,0,0,.376-3.781c-.331-25.285-16.61-97.333-16.775-98.056l-.018-.168.053-33.115,9.2-23.241c3.721-9.059,1.724-26.85,1.025-32.087a3.148,3.148,0,0,1,2.135-3.4l44.135-14.584.322.473c9.351,13.747,22.327,21.952,34.713,21.952s25.365-8.206,34.715-21.952l.322-.473,44.134,14.584a3.15,3.15,0,0,1,2.137,3.4c-.7,5.238-2.7,23.029,1.021,32.079l9.255,23.531-.02,33c-.164.723-16.445,72.771-16.774,98.056a17.31,17.31,0,0,0,.376,3.781l20.456,97.618.775,4.731a3.457,3.457,0,0,1-2.285,4.009c-9.379,3.125-57.712,20.07-88.336,46.874Zm-10.55-1.516H968.7c30.852-26.885,79.235-43.85,88.639-46.983a1.94,1.94,0,0,0,1.281-2.253l-.082-.382-.7-4.392-20.448-97.58a18.949,18.949,0,0,1-.408-4.113c.326-25.055,16.151-95.445,16.793-98.29V994.077l-9.146-23.108c-3.75-9.134-2.031-26.013-1.116-32.847a1.63,1.63,0,0,0-1.11-1.758l-43.049-14.224c-9.61,13.877-22.9,22.143-35.645,22.143s-26.035-8.266-35.645-22.143l-43.048,14.224a1.629,1.629,0,0,0-1.11,1.758c.915,6.833,2.633,23.713-1.121,32.856l-9.141,23.1v32.606c.641,2.845,16.466,73.235,16.793,98.29a18.854,18.854,0,0,1-.409,4.113L869.573,1226.7l-.776,4.739a1.943,1.943,0,0,0,1.283,2.252C879.484,1236.826,927.866,1253.79,958.719,1280.676Z" transform="translate(-867.238 -920.342)" fill="#4d4d4d"/>
      </g>
      <path id="Trazado_100164" data-name="Trazado 100164" d="M972.781,1295H960.648l-.211-.177c-33.622-28.3-86.689-46.186-96.984-49.485a3.588,3.588,0,0,1-2.467-4.191l.089-.405.752-4.552,22.46-103.061a17.717,17.717,0,0,0,.412-3.993c-.361-26.69-18.231-102.727-18.411-103.493l-.021-.173.058-34.943,10.1-24.53c2.778-6.5,3.176-17.638,1.151-32.208a3.272,3.272,0,0,1,2.3-3.547l48.375-15.371.32.453c10.52,14.87,25.24,24.107,38.414,24.107,13.321,0,27.6-8.946,38.2-23.931l.318-.453,48.377,15.371a3.272,3.272,0,0,1,2.3,3.547l-.035.259c-.854,6.139-3.124,22.444.858,31.765l10.157,24.826-.021,34.827c-.18.766-18.051,76.8-18.413,103.493a17.727,17.727,0,0,0,.414,3.993l22.453,103.023.849,4.994a3.588,3.588,0,0,1-2.466,4.193c-10.3,3.3-63.364,21.191-96.986,49.485Zm-11.578-1.516h11.025c33.849-28.375,86.966-46.283,97.289-49.59a2.08,2.08,0,0,0,1.448-2.417h0l-.091-.406-.767-4.634-22.445-102.985a19.25,19.25,0,0,1-.449-4.337c.359-26.447,17.735-100.757,18.434-103.732V990.964l-10.038-24.391c-4.146-9.7-1.833-26.308-.963-32.56l.035-.258a1.761,1.761,0,0,0-1.259-1.894L1006.1,916.827c-10.852,15.113-25.442,24.119-39.119,24.119-13.73,0-28.4-9.071-39.328-24.3l-47.321,15.036a1.761,1.761,0,0,0-1.26,1.892c2.064,14.843,1.63,26.255-1.254,33l-10.034,24.382v34.416c.7,2.975,18.075,77.285,18.433,103.732a19.187,19.187,0,0,1-.449,4.337l-22.451,103.023-.851,5a2.081,2.081,0,0,0,1.448,2.417C874.238,1247.2,927.351,1265.108,961.2,1293.482Z" transform="translate(9.702 4.448)" fill="#4d4d4d"/>
      <path id="Trazado_100165" data-name="Trazado 100165" d="M978.122,1304.787H964.589l-.2-.159c-37.81-29.374-97.459-47.935-109.032-51.358a3.674,3.674,0,0,1-2.722-4.334l.1-.419.845-4.722,25.242-106.922a17.042,17.042,0,0,0,.464-4.137c-.408-27.685-20.489-106.568-20.692-107.361l-.024-.188V989.074l.065-.147,11.346-25.448c3.122-6.748,3.567-18.295,1.292-33.4a3.366,3.366,0,0,1,2.537-3.664l54.27-15.917.316.413c11.839,15.448,28.417,25.046,43.265,25.046,15.012,0,31.1-9.294,43.028-24.864l.315-.413,54.27,15.918a3.364,3.364,0,0,1,2.537,3.664l-.04.261c-.961,6.366-3.51,23.279.963,32.947l11.415,25.766-.023,36.139c-.2.793-20.284,79.677-20.691,107.361a16.8,16.8,0,0,0,.464,4.135l25.231,106.884.956,5.18a3.675,3.675,0,0,1-2.722,4.334c-11.572,3.423-71.224,21.986-109.032,51.358Zm-13.013-1.516H977.6c38.034-29.448,97.729-48.025,109.328-51.455a2.184,2.184,0,0,0,1.679-2.522l-.1-.42-.863-4.812-25.223-106.841a18.324,18.324,0,0,1-.505-4.507c.4-27.43,19.916-104.48,20.713-107.62V989.4l-11.279-25.3c-4.66-10.072-2.061-27.312-1.081-33.8l.039-.261a1.867,1.867,0,0,0-1.465-1.98l-53.272-15.627c-12.185,15.692-28.567,25.046-43.914,25.046-15.409,0-31.881-9.422-44.15-25.228l-53.274,15.626a1.87,1.87,0,0,0-1.463,1.982c2.32,15.4,1.833,27.245-1.41,34.254L860.083,989.4v35.7c.8,3.141,20.313,80.191,20.716,107.622a18.545,18.545,0,0,1-.5,4.505L855.062,1244.1l-.955,5.188a2.18,2.18,0,0,0,1.676,2.525C867.382,1255.245,927.076,1273.821,965.109,1303.271Z" transform="translate(5.38 2.19)" fill="#4d4d4d"/>
      <path id="Trazado_100166" data-name="Trazado 100166" d="M985.27,1316.469H969.939l-.2-.139c-43.153-30.571-111.254-49.9-124.467-53.463-2.252-.607-3.562-2.539-3.047-4.492l.117-.441.964-4.907,28.8-111.265a16.112,16.112,0,0,0,.531-4.295c-.464-28.8-23.379-110.885-23.611-111.712l-.027-.2V987.966l13.023-26.64c3.561-7.018,4.067-19.027,1.471-34.739a3.493,3.493,0,0,1,2.837-3.793l61.826-16.537.311.37c13.528,16.1,32.486,26.1,49.476,26.1,17.177,0,35.572-9.686,49.206-25.912l.311-.369.466.124,61.361,16.411a3.489,3.489,0,0,1,2.836,3.794l-.045.281c-1.095,6.621-4,24.209,1.1,34.259l13.03,26.649-.027,37.789c-.232.827-23.149,82.908-23.611,111.712a16.112,16.112,0,0,0,.529,4.295l28.793,111.219,1.089,5.393c.519,1.955-.792,3.887-3.046,4.493-13.215,3.565-81.318,22.9-124.467,53.463Zm-14.849-1.516h14.367c43.371-30.635,111.515-49.978,124.754-53.55,1.422-.384,2.271-1.519,1.973-2.642h0l-.115-.437-.984-5-28.785-111.177a17.758,17.758,0,0,1-.576-4.7c.458-28.535,22.709-108.66,23.639-111.994V988.316l-12.87-26.323c-5.32-10.483-2.354-28.428-1.236-35.183l.045-.279a2.021,2.021,0,0,0-1.732-2.082L1028,908.162c-13.886,16.341-32.568,26.083-50.055,26.083-17.559,0-36.341-9.812-50.324-26.273l-60.9,16.287a2.021,2.021,0,0,0-1.73,2.082c2.649,16.032,2.093,28.362-1.61,35.661l-12.864,26.314v37.131c.93,3.335,23.179,83.459,23.639,112a17.747,17.747,0,0,1-.578,4.7l-28.792,111.219-1.093,5.4c-.3,1.121.552,2.256,1.974,2.64C858.906,1264.973,927.05,1284.314,970.421,1314.952Z" transform="translate(0 0)" fill="#4d4d4d"/>
      <path id="Trazado_100167" data-name="Trazado 100167" d="M930.936,1280.083a.758.758,0,0,1-.758-.758v-3.033a.758.758,0,0,1,1.516,0v3.033A.757.757,0,0,1,930.936,1280.083Zm0-6.066a.758.758,0,0,1-.758-.758v-3.033a.758.758,0,1,1,1.516,0v3.033A.757.757,0,0,1,930.936,1274.017Zm0-6.066a.758.758,0,0,1-.758-.758v-3.033a.758.758,0,0,1,1.516,0v3.033A.757.757,0,0,1,930.936,1267.951Zm0-6.066a.758.758,0,0,1-.758-.758v-3.033a.758.758,0,1,1,1.516,0v3.033A.757.757,0,0,1,930.936,1261.885Zm0-6.066a.758.758,0,0,1-.758-.758v-3.033a.758.758,0,0,1,1.516,0v3.033A.757.757,0,0,1,930.936,1255.819Zm0-6.066a.758.758,0,0,1-.758-.758v-3.033a.758.758,0,0,1,1.516,0v3.033A.757.757,0,0,1,930.936,1249.753Zm0-6.066a.758.758,0,0,1-.758-.758V1239.9a.758.758,0,1,1,1.516,0v3.033A.757.757,0,0,1,930.936,1243.687Zm0-6.066a.758.758,0,0,1-.758-.758v-3.033a.758.758,0,0,1,1.516,0v3.033A.757.757,0,0,1,930.936,1237.622Zm0-6.066a.758.758,0,0,1-.758-.758v-3.033a.758.758,0,1,1,1.516,0v3.033A.757.757,0,0,1,930.936,1231.556Zm0-6.066a.758.758,0,0,1-.758-.758V1221.7a.758.758,0,0,1,1.516,0v3.033A.757.757,0,0,1,930.936,1225.49Zm0-6.066a.758.758,0,0,1-.758-.758v-3.033a.758.758,0,1,1,1.516,0v3.033A.757.757,0,0,1,930.936,1219.424Zm0-6.066a.758.758,0,0,1-.758-.758v-3.033a.758.758,0,0,1,1.516,0v3.033A.757.757,0,0,1,930.936,1213.358Zm0-6.066a.758.758,0,0,1-.758-.758V1203.5a.758.758,0,0,1,1.516,0v3.033A.757.757,0,0,1,930.936,1207.292Zm0-6.066a.758.758,0,0,1-.758-.758v-3.033a.758.758,0,1,1,1.516,0v3.033A.757.757,0,0,1,930.936,1201.226Zm0-6.066a.758.758,0,0,1-.758-.758v-3.033a.758.758,0,0,1,1.516,0v3.033A.757.757,0,0,1,930.936,1195.16Zm0-6.066a.758.758,0,0,1-.758-.758V1185.3a.758.758,0,1,1,1.516,0v3.033A.757.757,0,0,1,930.936,1189.095Zm0-6.066a.758.758,0,0,1-.758-.758v-3.033a.758.758,0,0,1,1.516,0v3.033A.757.757,0,0,1,930.936,1183.029Zm0-6.066a.758.758,0,0,1-.758-.758v-3.033a.758.758,0,0,1,1.516,0v3.033A.757.757,0,0,1,930.936,1176.963Zm0-6.066a.758.758,0,0,1-.758-.758v-3.033a.758.758,0,1,1,1.516,0v3.033A.757.757,0,0,1,930.936,1170.9Zm0-6.066a.758.758,0,0,1-.758-.758v-3.033a.758.758,0,0,1,1.516,0v3.033A.757.757,0,0,1,930.936,1164.831Zm0-6.066a.758.758,0,0,1-.758-.758v-3.033a.758.758,0,1,1,1.516,0v3.033A.757.757,0,0,1,930.936,1158.765Zm0-6.066a.758.758,0,0,1-.758-.758v-3.033a.758.758,0,0,1,1.516,0v3.033A.757.757,0,0,1,930.936,1152.7Zm0-6.066a.758.758,0,0,1-.758-.758v-3.033a.758.758,0,1,1,1.516,0v3.033A.757.757,0,0,1,930.936,1146.634Zm0-6.066a.758.758,0,0,1-.758-.758v-3.033a.758.758,0,0,1,1.516,0v3.033A.757.757,0,0,1,930.936,1140.568Zm0-6.066a.758.758,0,0,1-.758-.758v-3.033a.758.758,0,0,1,1.516,0v3.033A.757.757,0,0,1,930.936,1134.5Zm0-6.066a.758.758,0,0,1-.758-.758v-3.033a.758.758,0,1,1,1.516,0v3.033A.757.757,0,0,1,930.936,1128.436Zm0-6.066a.758.758,0,0,1-.758-.758v-3.033a.758.758,0,0,1,1.516,0v3.033A.757.757,0,0,1,930.936,1122.37Zm0-6.066a.758.758,0,0,1-.758-.758v-3.033a.758.758,0,1,1,1.516,0v3.033A.757.757,0,0,1,930.936,1116.3Zm0-6.066a.758.758,0,0,1-.758-.758v-3.033a.758.758,0,0,1,1.516,0v3.033A.757.757,0,0,1,930.936,1110.238Zm0-6.066a.758.758,0,0,1-.758-.758v-3.033a.758.758,0,1,1,1.516,0v3.033A.757.757,0,0,1,930.936,1104.172Zm0-6.066a.758.758,0,0,1-.758-.758v-3.033a.758.758,0,0,1,1.516,0v3.033A.757.757,0,0,1,930.936,1098.107Zm0-6.066a.758.758,0,0,1-.758-.758v-3.033a.758.758,0,0,1,1.516,0v3.033A.757.757,0,0,1,930.936,1092.041Zm0-6.066a.758.758,0,0,1-.758-.758v-3.033a.758.758,0,1,1,1.516,0v3.033A.757.757,0,0,1,930.936,1085.975Zm0-6.066a.758.758,0,0,1-.758-.758v-3.033a.758.758,0,0,1,1.516,0v3.033A.757.757,0,0,1,930.936,1079.909Zm0-6.066a.758.758,0,0,1-.758-.758v-3.033a.758.758,0,1,1,1.516,0v3.033A.757.757,0,0,1,930.936,1073.843Zm0-6.066a.758.758,0,0,1-.758-.758v-3.033a.758.758,0,0,1,1.516,0v3.033A.757.757,0,0,1,930.936,1067.777Zm0-6.066a.758.758,0,0,1-.758-.758v-3.033a.758.758,0,0,1,1.516,0v3.033A.757.757,0,0,1,930.936,1061.711Zm0-6.066a.758.758,0,0,1-.758-.758v-3.033a.758.758,0,1,1,1.516,0v3.033A.757.757,0,0,1,930.936,1055.646Zm0-6.066a.758.758,0,0,1-.758-.758v-3.033a.758.758,0,0,1,1.516,0v3.033A.757.757,0,0,1,930.936,1049.58Zm0-6.066a.758.758,0,0,1-.758-.758v-3.033a.758.758,0,1,1,1.516,0v3.033A.757.757,0,0,1,930.936,1043.514Zm0-6.066a.758.758,0,0,1-.758-.758v-3.033a.758.758,0,0,1,1.516,0v3.033A.757.757,0,0,1,930.936,1037.448Zm0-6.066a.758.758,0,0,1-.758-.758v-3.033a.758.758,0,1,1,1.516,0v3.033A.757.757,0,0,1,930.936,1031.382Zm0-6.066a.758.758,0,0,1-.758-.758v-3.033a.758.758,0,0,1,1.516,0v3.033A.757.757,0,0,1,930.936,1025.316Zm0-6.066a.758.758,0,0,1-.758-.758v-3.033a.758.758,0,0,1,1.516,0v3.033A.757.757,0,0,1,930.936,1019.25Zm0-6.066a.758.758,0,0,1-.758-.758v-3.033a.758.758,0,1,1,1.516,0v3.033A.757.757,0,0,1,930.936,1013.184Zm0-6.066a.758.758,0,0,1-.758-.758v-3.033a.758.758,0,0,1,1.516,0v3.033A.757.757,0,0,1,930.936,1007.119Zm0-6.066a.758.758,0,0,1-.758-.758v-3.033a.758.758,0,1,1,1.516,0v3.033A.757.757,0,0,1,930.936,1001.053Zm0-6.066a.758.758,0,0,1-.758-.758V991.2a.758.758,0,0,1,1.516,0v3.033A.757.757,0,0,1,930.936,994.987Zm0-6.066a.758.758,0,0,1-.758-.758V985.13a.758.758,0,1,1,1.516,0v3.033A.757.757,0,0,1,930.936,988.921Zm0-6.066a.758.758,0,0,1-.758-.758v-3.033a.758.758,0,0,1,1.516,0V982.1A.757.757,0,0,1,930.936,982.855Zm0-6.066a.758.758,0,0,1-.758-.758V973a.758.758,0,0,1,1.516,0v3.033A.757.757,0,0,1,930.936,976.789Zm0-6.066a.758.758,0,0,1-.758-.758v-3.033a.758.758,0,1,1,1.516,0v3.033A.757.757,0,0,1,930.936,970.723Zm0-6.066a.758.758,0,0,1-.758-.758v-3.033a.758.758,0,0,1,1.516,0V963.9A.757.757,0,0,1,930.936,964.657Zm0-6.066a.758.758,0,0,1-.758-.758V954.8a.758.758,0,1,1,1.516,0v3.033A.757.757,0,0,1,930.936,958.592Zm0-6.066a.758.758,0,0,1-.758-.758v-3.033a.758.758,0,0,1,1.516,0v3.033A.757.757,0,0,1,930.936,952.526Zm0-6.066a.758.758,0,0,1-.758-.758v-3.033a.758.758,0,1,1,1.516,0V945.7A.757.757,0,0,1,930.936,946.46Zm0-6.066a.758.758,0,0,1-.758-.758V936.6a.758.758,0,1,1,1.516,0v3.033A.757.757,0,0,1,930.936,940.394Zm0-6.066a.758.758,0,0,1-.758-.758v-3.033a.758.758,0,0,1,1.516,0v3.033A.757.757,0,0,1,930.936,934.328Zm0-6.066a.758.758,0,0,1-.758-.758v-3.033a.758.758,0,1,1,1.516,0V927.5A.757.757,0,0,1,930.936,928.262Z" transform="translate(45.481 9.016)" fill="#4d4d4d"/>
      <path id="Trazado_100168" data-name="Trazado 100168" d="M968.06,990.6a.758.758,0,0,1,0-1.516l3.03-.008h0a.758.758,0,0,1,0,1.516l-3.036.008Zm-3.033,0h0l-3.036-.015a.758.758,0,0,1,.006-1.516H962l3.03.015a.758.758,0,0,1,0,1.516Zm9.1-.024a.758.758,0,0,1-.008-1.516q1.51-.014,3.03-.035a.746.746,0,0,1,.769.748.759.759,0,0,1-.748.769q-1.524.021-3.036.035Zm-15.165-.02h-.009l-3.037-.039a.758.758,0,0,1-.746-.77.823.823,0,0,1,.77-.746l3.031.039a.758.758,0,0,1-.009,1.516Zm21.231-.061a.758.758,0,0,1-.014-1.516l3.03-.059a.744.744,0,0,1,.775.743.757.757,0,0,1-.742.773l-3.036.059Zm-27.3-.032h-.015l-3.036-.064a.758.758,0,0,1,.036-1.516l3.03.064a.758.758,0,0,1-.015,1.516Zm33.364-.1a.758.758,0,0,1-.02-1.516l3.028-.085a.73.73,0,0,1,.782.735.759.759,0,0,1-.734.781l-3.037.085Zm-39.427-.041h-.02l-3.037-.088a.758.758,0,0,1,.024-1.516h.024l3.028.088a.758.758,0,0,1-.02,1.516Zm45.489-.143a.758.758,0,0,1-.027-1.515l3.03-.111a.717.717,0,0,1,.787.728.759.759,0,0,1-.728.787l-3.035.111Zm-51.557-.044h-.027l-3.034-.112a.759.759,0,0,1,.03-1.516l.029,0,3.03.112a.758.758,0,0,1-.027,1.515Zm57.614-.193a.758.758,0,0,1-.032-1.515l3.019-.139a.71.71,0,0,1,.793.722.757.757,0,0,1-.719.793l-3.028.139ZM934.7,989.9h-.033l-3.033-.135a.756.756,0,0,1-.722-.792.777.777,0,0,1,.79-.723l3.03.135a.758.758,0,0,1-.032,1.515Zm69.721-.249a.758.758,0,0,1-.039-1.515l3.021-.167a.741.741,0,0,1,.8.714.758.758,0,0,1-.714.8l-3.027.168Zm-75.782-.03H928.6l-3.033-.158a.757.757,0,0,1-.714-.8.731.731,0,0,1,.8-.716l3.027.158a.758.758,0,0,1-.038,1.515Zm81.828-.317a.758.758,0,0,1-.047-1.515l3.018-.194a.769.769,0,0,1,.807.707.758.758,0,0,1-.707.807l-3.024.194Zm-87.887-.009-.045,0-3.03-.18a.757.757,0,0,1-.71-.8.765.765,0,0,1,.8-.71l3.027.18a.758.758,0,0,1-.044,1.515Zm-6.054-.373-.052,0-3.031-.2a.759.759,0,0,1,.1-1.515l3.025.2a.758.758,0,0,1-.047,1.515Zm99.982-.021a.758.758,0,0,1-.052-1.515q1.506-.107,3.016-.224a.772.772,0,0,1,.813.7.757.757,0,0,1-.7.814q-1.515.116-3.025.224Zm-106.039-.4h-.058l-3.027-.228a.759.759,0,0,1-.7-.814.788.788,0,0,1,.813-.7l3.024.227a.758.758,0,0,1-.055,1.513Zm112.081-.065a.759.759,0,0,1-.061-1.515l3.015-.253a.758.758,0,1,1,.13,1.51l-3.021.255Zm-118.128-.4-.062,0-3.03-.252a.759.759,0,0,1-.69-.82.769.769,0,0,1,.82-.69l3.021.25a.759.759,0,0,1-.059,1.515Zm124.162-.124a.758.758,0,0,1-.068-1.513l3.013-.285a.78.78,0,0,1,.828.681.758.758,0,0,1-.682.828l-3.019.286C1028.634,987.913,1028.611,987.915,1028.587,987.915Zm-130.211-.393h-.068l-3.025-.277a.757.757,0,0,1-.684-.825.747.747,0,0,1,.827-.686l3.016.276a.758.758,0,0,1-.065,1.513Zm136.244-.2a.758.758,0,0,1-.076-1.512q1.5-.155,3.009-.317a.758.758,0,1,1,.164,1.507q-1.51.161-3.019.318C1034.671,987.325,1034.645,987.326,1034.619,987.326Zm-142.287-.37-.074,0q-1.565-.152-3.024-.3a.758.758,0,0,1-.676-.833.78.78,0,0,1,.831-.676q1.458.15,3.016.3a.758.758,0,0,1-.073,1.512Zm148.309-.282a.758.758,0,0,1-.083-1.51q1.5-.171,3.006-.352a.759.759,0,0,1,.181,1.507q-1.508.18-3.015.35C1040.7,986.672,1040.672,986.674,1040.641,986.674ZM886.3,986.337a.763.763,0,0,1-.083,0c-1.057-.112-2.064-.224-3.019-.331a.759.759,0,0,1,.168-1.509c.952.108,1.959.218,3.015.332a.758.758,0,0,1-.08,1.512Zm160.366-.382a.758.758,0,0,1-.094-1.51q1.5-.186,3-.384a.758.758,0,0,1,.2,1.5q-1.506.2-3.012.385A.679.679,0,0,1,1046.661,985.955Zm-166.4-.3c-.029,0-.061,0-.09,0q-1.651-.2-3.018-.367a.758.758,0,1,1,.187-1.5q1.36.168,3.009.364a.759.759,0,0,1-.088,1.512Zm172.413-.491a.758.758,0,0,1-.1-1.509l.2-.027a.767.767,0,0,1,.854.649.759.759,0,0,1-.649.854l-.19.026A.814.814,0,0,1,1052.674,985.168Zm-178.44-.259a.768.768,0,0,1-.1-.006c-1.977-.261-3.024-.417-3.024-.417a.758.758,0,0,1-.638-.861.771.771,0,0,1,.861-.638s1.04.155,3,.414a.758.758,0,0,1-.1,1.509Z" transform="translate(14.64 39.625)" fill="#4d4d4d"/>
      <path id="Trazado_100169" data-name="Trazado 100169" d="M955.044,1059.018h-.153a.758.758,0,1,1,0-1.516l3.03-.006h0a.758.758,0,0,1,0,1.516Zm-3.186-.006h0l-3.037-.021a.758.758,0,0,1,.008-1.517h.008l3.031.021a.758.758,0,0,1,0,1.516Zm9.1-.018a.758.758,0,0,1-.006-1.516l3.028-.032h.01a.758.758,0,0,1,.011,1.517l-3.037.032Zm-15.165-.036h-.01l-3.036-.045a.759.759,0,0,1-.745-.772.774.774,0,0,1,.772-.745l3.03.046a.758.758,0,0,1-.011,1.516Zm21.231-.039a.758.758,0,0,1-.014-1.517l3.031-.057a.758.758,0,1,1,.03,1.516l-3.034.058Zm-27.3-.067h-.017l-3.034-.073a.761.761,0,0,1-.739-.78.747.747,0,0,1,.78-.737l3.027.073a.758.758,0,0,1-.017,1.516Zm33.362-.061a.758.758,0,0,1-.018-1.516l3.028-.083a.8.8,0,0,1,.78.735.759.759,0,0,1-.736.781l-3.034.083Zm-39.425-.1h-.023l-3.036-.1a.758.758,0,1,1,.053-1.515l3.03.1a.758.758,0,0,1-.024,1.515Zm45.488-.079a.758.758,0,0,1-.024-1.515l3.028-.109a.77.77,0,0,1,.786.73.758.758,0,0,1-.729.785l-3.034.109Zm-51.552-.136h-.03l-3.034-.129a.757.757,0,0,1-.723-.792.717.717,0,0,1,.792-.723l3.028.129a.758.758,0,0,1-.032,1.515Zm57.615-.093a.758.758,0,0,1-.032-1.515l3.028-.134a.768.768,0,0,1,.79.723.757.757,0,0,1-.722.792l-3.031.134Zm-63.675-.177-.036,0-3.034-.158a.757.757,0,0,1-.716-.8.735.735,0,0,1,.8-.714l3.025.156a.759.759,0,0,1-.036,1.517Zm69.733-.1a.759.759,0,0,1-.038-1.516q1.5-.075,3.025-.158a.742.742,0,0,1,.8.714.758.758,0,0,1-.716.8q-1.524.084-3.031.159Zm-75.791-.229-.044,0-3.033-.188a.758.758,0,0,1-.708-.805.769.769,0,0,1,.805-.708l3.024.188a.758.758,0,0,1-.044,1.515Zm81.851-.1a.758.758,0,0,1-.046-1.515l3.024-.185a.741.741,0,0,1,.805.71.759.759,0,0,1-.71.8l-3.03.185Zm-87.9-.288h-.053q-1.558-.109-3.031-.22a.759.759,0,0,1-.7-.814.745.745,0,0,1,.814-.7q1.467.109,3.021.219a.758.758,0,0,1-.05,1.515Zm93.954-.093a.758.758,0,0,1-.049-1.515l3.021-.209a.758.758,0,1,1,.109,1.512l-3.03.211Zm-100.006-.364c-.021,0-.042,0-.062,0q-1.567-.125-3.028-.253a.758.758,0,0,1-.69-.821.768.768,0,0,1,.82-.69q1.456.127,3.019.252a.759.759,0,0,1-.059,1.515Zm106.057-.068a.759.759,0,0,1-.055-1.515l3.019-.233a.758.758,0,0,1,.121,1.512l-3.028.234Zm-112.1-.455-.073,0q-1.592-.15-3.025-.293a.758.758,0,0,1,.152-1.509q1.428.143,3.016.291a.758.758,0,0,1-.07,1.513Zm118.148-.029a.758.758,0,0,1-.062-1.514l3.021-.261a.774.774,0,0,1,.822.688.758.758,0,0,1-.69.822l-3.025.261A.439.439,0,0,1,1015.479,1056.477Zm6.043-.534a.758.758,0,0,1-.068-1.513l3.016-.285a.787.787,0,0,1,.828.682.76.76,0,0,1-.682.828l-3.022.287Zm-130.231-.041a.691.691,0,0,1-.082,0c-1.1-.116-2.112-.23-3.022-.335a.76.76,0,0,1-.667-.842.768.768,0,0,1,.842-.666q1.36.157,3.009.335a.758.758,0,0,1-.079,1.512Zm136.268-.543a.759.759,0,0,1-.076-1.513l2.243-.231a.773.773,0,0,1,.833.677.758.758,0,0,1-.676.832l-2.244.231A.713.713,0,0,1,1027.559,1055.359Zm-142.3-.156a.7.7,0,0,1-.1-.006c-1.993-.25-3.028-.406-3.028-.406a.758.758,0,0,1,.224-1.5c.006,0,1.031.155,2.993.4a.758.758,0,0,1-.094,1.51Z" transform="translate(20.337 75.934)" fill="#4d4d4d"/>
    </g>
    <path id="Trazado_105622" data-name="Trazado 105622" d="M-115.483-2.656h-4.7L-121,0h-3.662l5.215-14.219h3.223L-110.972,0h-3.682ZM-119.36-5.3h3.057l-1.533-4.932Zm11.826-5.264.107,1.24a3.583,3.583,0,0,1,3.018-1.436,3.015,3.015,0,0,1,2.466.986,4.7,4.7,0,0,1,.845,2.969V0h-3.3V-6.67a1.783,1.783,0,0,0-.322-1.177,1.491,1.491,0,0,0-1.172-.376,1.569,1.569,0,0,0-1.436.762V0h-3.291V-10.566Zm12.09-2.627v2.627h1.738v2.285h-1.738v4.834a1.234,1.234,0,0,0,.215.83,1.152,1.152,0,0,0,.85.234,4.828,4.828,0,0,0,.82-.059V-.088A6.074,6.074,0,0,1-95.415.2a3.448,3.448,0,0,1-2.51-.8,3.282,3.282,0,0,1-.811-2.432V-8.281h-1.348v-2.285h1.348v-2.627Zm9.424,5.605L-87.1-7.666a1.947,1.947,0,0,0-1.992.977V0h-3.291V-10.566H-89.3l.107,1.357a2.548,2.548,0,0,1,2.314-1.553,3.209,3.209,0,0,1,.918.117Zm.42,2.207A6.236,6.236,0,0,1-84.985-8.2a4.4,4.4,0,0,1,1.768-1.9,5.323,5.323,0,0,1,2.705-.664,4.858,4.858,0,0,1,3.74,1.47,5.64,5.64,0,0,1,1.367,4v.117a5.472,5.472,0,0,1-1.372,3.921A4.871,4.871,0,0,1-80.493.2a4.927,4.927,0,0,1-3.623-1.353,5.29,5.29,0,0,1-1.475-3.667Zm3.291.205a3.932,3.932,0,0,0,.459,2.148,1.529,1.529,0,0,0,1.357.684q1.758,0,1.8-2.705v-.332q0-2.842-1.816-2.842-1.65,0-1.787,2.451Zm18.164-.029a6.372,6.372,0,0,1-1.108,3.931A3.554,3.554,0,0,1-68.247.2,3.046,3.046,0,0,1-70.64-.869V4.063h-3.291V-10.566h3.076l.1.977a3.046,3.046,0,0,1,2.49-1.172,3.582,3.582,0,0,1,3.037,1.44,6.45,6.45,0,0,1,1.084,3.96Zm-3.291-.205q0-2.812-1.641-2.812a1.549,1.549,0,0,0-1.562.84v4.16a1.6,1.6,0,0,0,1.582.879q1.572,0,1.621-2.715Zm4.326.029A6.236,6.236,0,0,1-62.5-8.2a4.4,4.4,0,0,1,1.768-1.9,5.323,5.323,0,0,1,2.705-.664,4.858,4.858,0,0,1,3.74,1.47,5.64,5.64,0,0,1,1.367,4v.117a5.472,5.472,0,0,1-1.372,3.921A4.871,4.871,0,0,1-58,.2a4.927,4.927,0,0,1-3.623-1.353A5.29,5.29,0,0,1-63.1-4.824Zm3.291.205a3.932,3.932,0,0,0,.459,2.148A1.529,1.529,0,0,0-58-2.344q1.758,0,1.8-2.705v-.332q0-2.842-1.816-2.842-1.65,0-1.787,2.451Zm11.465-5.391.107,1.24a3.633,3.633,0,0,1,3.018-1.436A2.675,2.675,0,0,1-42.524-9.17a3.516,3.516,0,0,1,3.105-1.592q3.213,0,3.3,3.887V0h-3.3V-6.67a2.014,2.014,0,0,0-.273-1.182,1.164,1.164,0,0,0-1-.371,1.559,1.559,0,0,0-1.455.869l.01.137V0h-3.3V-6.65a2.117,2.117,0,0,0-.264-1.2A1.161,1.161,0,0,0-46.7-8.223a1.578,1.578,0,0,0-1.445.869V0H-51.44V-10.566ZM-29.126.2a5.432,5.432,0,0,1-3.936-1.45,5.008,5.008,0,0,1-1.5-3.774V-5.3a6.489,6.489,0,0,1,.6-2.861,4.395,4.395,0,0,1,1.753-1.919,5.292,5.292,0,0,1,2.734-.679A4.574,4.574,0,0,1-25.962-9.38a5.43,5.43,0,0,1,1.289,3.853v1.279h-6.543a2.372,2.372,0,0,0,.771,1.4,2.3,2.3,0,0,0,1.543.508A2.958,2.958,0,0,0-26.46-3.437l1.5,1.777A4.2,4.2,0,0,1-26.7-.308,5.891,5.891,0,0,1-29.126.2ZM-29.5-8.223q-1.445,0-1.719,1.914h3.32v-.254a1.63,1.63,0,0,0-.4-1.226A1.593,1.593,0,0,0-29.5-8.223Zm9.98-4.971v2.627h1.738v2.285h-1.738v4.834a1.234,1.234,0,0,0,.215.83,1.152,1.152,0,0,0,.85.234,4.828,4.828,0,0,0,.82-.059V-.088A6.074,6.074,0,0,1-19.487.2,3.448,3.448,0,0,1-22-.605a3.282,3.282,0,0,1-.811-2.432V-8.281h-1.348v-2.285h1.348v-2.627Zm9.424,5.605-1.084-.078a1.947,1.947,0,0,0-1.992.977V0H-16.46V-10.566h3.086l.107,1.357a2.548,2.548,0,0,1,2.314-1.553,3.209,3.209,0,0,1,.918.117ZM-5.317,0H-8.628V-10.566h3.311Zm-1.23-14.8h3.477l-2.715,3.066-2.686,0ZM2.749,0a3.716,3.716,0,0,1-.312-.947A3.06,3.06,0,0,1-.1.2a3.749,3.749,0,0,1-2.539-.9A2.875,2.875,0,0,1-3.687-2.979a2.955,2.955,0,0,1,1.27-2.6,6.468,6.468,0,0,1,3.691-.879H2.29v-.559q0-1.462-1.26-1.462A1.03,1.03,0,0,0-.142-7.319H-3.433a2.95,2.95,0,0,1,1.3-2.487A5.479,5.479,0,0,1,1.2-10.762a4.8,4.8,0,0,1,3.193.986,3.429,3.429,0,0,1,1.2,2.705v4.678A4.79,4.79,0,0,0,6.04-.166V0ZM.688-2.148a1.836,1.836,0,0,0,1.021-.264,1.653,1.653,0,0,0,.581-.6V-4.7H1.333Q-.386-4.7-.386-3.154a.942.942,0,0,0,.3.728A1.1,1.1,0,0,0,.688-2.148ZM17.5.2a5.432,5.432,0,0,1-3.936-1.45,5.008,5.008,0,0,1-1.5-3.774V-5.3a6.489,6.489,0,0,1,.6-2.861,4.395,4.395,0,0,1,1.753-1.919,5.292,5.292,0,0,1,2.734-.679A4.574,4.574,0,0,1,20.669-9.38a5.43,5.43,0,0,1,1.289,3.853v1.279H15.415a2.372,2.372,0,0,0,.771,1.4,2.3,2.3,0,0,0,1.543.508,2.958,2.958,0,0,0,2.441-1.094l1.5,1.777A4.2,4.2,0,0,1,19.932-.308,5.891,5.891,0,0,1,17.5.2Zm-.371-8.418q-1.445,0-1.719,1.914h3.32v-.254a1.63,1.63,0,0,0-.4-1.226A1.593,1.593,0,0,0,17.134-8.223Zm9.17-2.344.107,1.24a3.583,3.583,0,0,1,3.018-1.436,3.015,3.015,0,0,1,2.466.986,4.7,4.7,0,0,1,.845,2.969V0h-3.3V-6.67a1.783,1.783,0,0,0-.322-1.177,1.491,1.491,0,0,0-1.172-.376,1.569,1.569,0,0,0-1.436.762V0H23.218V-10.566ZM45.835-1.143A3.393,3.393,0,0,1,43.013.2,3.328,3.328,0,0,1,40.381-.815a4.251,4.251,0,0,1-.894-2.905v-6.846h3.291V-3.7A1.183,1.183,0,0,0,44.1-2.344a1.72,1.72,0,0,0,1.611-.811v-7.412h3.311V0H45.933Zm8.008-9.424.107,1.24a3.583,3.583,0,0,1,3.018-1.436,3.015,3.015,0,0,1,2.466.986,4.7,4.7,0,0,1,.845,2.969V0h-3.3V-6.67a1.783,1.783,0,0,0-.322-1.177,1.491,1.491,0,0,0-1.172-.376,1.569,1.569,0,0,0-1.436.762V0H50.757V-10.566ZM76.89-5.205a6.372,6.372,0,0,1-1.108,3.931A3.554,3.554,0,0,1,72.788.2,3.046,3.046,0,0,1,70.4-.869V4.063H67.1V-10.566h3.076l.1.977a3.046,3.046,0,0,1,2.49-1.172,3.582,3.582,0,0,1,3.037,1.44,6.45,6.45,0,0,1,1.084,3.96ZM73.6-5.41q0-2.812-1.641-2.812a1.549,1.549,0,0,0-1.562.84v4.16a1.6,1.6,0,0,0,1.582.879q1.572,0,1.621-2.715ZM84.292,0a3.716,3.716,0,0,1-.312-.947A3.06,3.06,0,0,1,81.44.2a3.749,3.749,0,0,1-2.539-.9,2.875,2.875,0,0,1-1.045-2.271,2.955,2.955,0,0,1,1.27-2.6,6.468,6.468,0,0,1,3.691-.879h1.016v-.559q0-1.462-1.26-1.462A1.03,1.03,0,0,0,81.4-7.319H78.11a2.95,2.95,0,0,1,1.3-2.487,5.479,5.479,0,0,1,3.325-.956,4.8,4.8,0,0,1,3.193.986,3.429,3.429,0,0,1,1.2,2.705v4.678a4.79,4.79,0,0,0,.449,2.227V0ZM82.231-2.148a1.836,1.836,0,0,0,1.021-.264,1.653,1.653,0,0,0,.581-.6V-4.7h-.957q-1.719,0-1.719,1.543a.942.942,0,0,0,.3.728A1.1,1.1,0,0,0,82.231-2.148ZM92.788-13.193v2.627h1.738v2.285H92.788v4.834a1.234,1.234,0,0,0,.215.83,1.152,1.152,0,0,0,.85.234,4.828,4.828,0,0,0,.82-.059V-.088A6.074,6.074,0,0,1,92.817.2a3.448,3.448,0,0,1-2.51-.8A3.282,3.282,0,0,1,89.5-3.037V-8.281H88.149v-2.285H89.5v-2.627Zm9.424,5.605-1.084-.078a1.947,1.947,0,0,0-1.992.977V0H95.845V-10.566h3.086l.107,1.357a2.548,2.548,0,0,1,2.314-1.553,3.209,3.209,0,0,1,.918.117Zm.42,2.207a6.236,6.236,0,0,1,.615-2.817,4.4,4.4,0,0,1,1.768-1.9,5.323,5.323,0,0,1,2.705-.664,4.858,4.858,0,0,1,3.74,1.47,5.64,5.64,0,0,1,1.367,4v.117a5.472,5.472,0,0,1-1.372,3.921A4.871,4.871,0,0,1,107.739.2a4.927,4.927,0,0,1-3.623-1.353,5.29,5.29,0,0,1-1.475-3.667Zm3.291.205a3.932,3.932,0,0,0,.459,2.148,1.529,1.529,0,0,0,1.357.684q1.758,0,1.8-2.705v-.332q0-2.842-1.816-2.842-1.65,0-1.787,2.451ZM108.169-15h3.477l-2.715,3.066-2.686,0Zm9.131,4.434.107,1.24a3.583,3.583,0,0,1,3.018-1.436,3.015,3.015,0,0,1,2.466.986,4.7,4.7,0,0,1,.845,2.969V0h-3.3V-6.67a1.783,1.783,0,0,0-.322-1.177,1.491,1.491,0,0,0-1.172-.376,1.569,1.569,0,0,0-1.436.762V0h-3.291V-10.566Z" transform="translate(503 2680.918)" fill="#12263f"/>
  </g>
</svg>
