<svg xmlns="http://www.w3.org/2000/svg" width="390.489" height="607.718" viewBox="0 0 390.489 607.718">
  <g id="Grupo_54697" data-name="Grupo 54697" transform="translate(-561.947 -1885.826)">
    <path id="Trazado_105357" data-name="Trazado 105357" d="M594.432,1900.31l-9.6,34.633a24.135,24.135,0,0,0,23.256,30.583h34.742a24.132,24.132,0,0,0,23.046-31.293l-10.538-33.923Z" transform="translate(23.234 15.303)" fill="#51310f"/>
    <path id="Trazado_105358" data-name="Trazado 105358" d="M734,2170.521c-.847,6.768-6.25,18.984-9.851,23.418a.978.978,0,0,1-1.732-.736c.354-2.777.354-4.837,1.051-11.768.619-6.092,2.347-12.5,1.438-14.549s-.872-4.891-2.271-4.776c-2.783.233-2.046,7.953-1.822,12.046.008.109.015.212.015.321a1.745,1.745,0,0,1-3.2,1.045s-3.145-9.251-3.254-15.234c-.006-.115-.006-.224-.006-.333a12.544,12.544,0,0,1,.082-1.486c.683-5.682,1.364-7.956,3.178-10.232s0-10.231,0-10.231-11.963-47.626-15.231-63.662c-3.424-16.8-11.18-65.845-11.984-70.959-.008-.042-.014-.076-.021-.111s-.014-.088-.02-.13a.481.481,0,0,0,.006.1c.006.062.014.124.021.177.027.273.055.539.082.806.021.177.033.354.047.524l.062.715c.006.109.014.219.021.321.021.259.033.512.047.757.027.471.047.927.062,1.378.027.948.027,1.849.006,2.708-.012.315-.021.621-.033.921-.008.08-.008.156-.014.239-.021.327-.041.647-.068.96-.027.356-.056.7-.088,1.024s-.076.662-.117.983c-.033.265-.074.531-.115.79q-.133.869-.306,1.645c-.021.109-.041.218-.068.321-.049.239-.1.469-.165.7s-.109.442-.171.654a20.054,20.054,0,0,1-2.34,5.464c-.068.115-.142.224-.218.333a9.841,9.841,0,0,1-1.18,1.46l-.089.089a1.1,1.1,0,0,1-.13.117.649.649,0,0,0-.074.115l-.006.006a5.819,5.819,0,0,0-.539,1.419c-.049.192-.1.389-.15.609-.029.13-.056.259-.082.4-.185.88-.348,1.931-.492,3.124-.035.294-.068.6-.1.907-.047.436-.095.894-.136,1.357-.062.648-.123,1.324-.171,2.026-.027.3-.047.606-.068.915-.13,1.847-.232,3.84-.315,5.9-.012.333-.027.675-.041,1.016-.012.4-.027.792-.041,1.193-.006.307-.021.615-.027.921-.006.115-.006.233-.006.354-.015.376-.027.759-.035,1.14-.013.668-.033,1.337-.047,2,0,.342-.006.689-.014,1.03v.144c-.006.211-.006.415-.012.621-.1,7.4.027,14.447.271,18.042.041.572.082,1.125.13,1.643a110.918,110.918,0,0,0,6.488,28.758c3.192,9.032,6.69,16.964,8.586,25.874,2.715,12.8,4.134,22.939,4.237,34.452.035,4.222-.1,8.623-.415,13.411-.948,14.433-4.339,28.527-7.755,42.536-3.083,12.627-8.335,24.706-8.247,37.816.082,12.334,1.84,25.041,1.39,37.115a201.4,201.4,0,0,1-4.652,35.559c-9.549,43.655-13.185,68.667-13.185,77.3s3.638,11.373,2.729,14.1-1.365,5-.915,7.278c.346,1.709,3.782,7.286,5.46,9.938a4.057,4.057,0,0,1,.074,4.3c-.961,1.542-3,3.263-7.348,3.948a56.2,56.2,0,0,1-15.151.177,4.118,4.118,0,0,1-2.116-.921h0a4.133,4.133,0,0,1-1.427-3.877l1.867-10.833,1.82-10.915h0a14.746,14.746,0,0,1-.557-9.285l.557-2.085s2.272-18.643.907-30.014c-2.079-17.3-2.271-34.755-2.094-52.182.206-19.836,4.59-39.331,3.486-60.83-1.563-30.573-6.48-61.9-5.974-92.264.054-3.354.156-6.875-.082-10.272-.056-.878-.138-1.758-.253-2.618a13.442,13.442,0,0,1-3.036.471,13.614,13.614,0,0,1-3.048-.471c-.117.86-.2,1.731-.253,2.618-.238,3.4-.138,6.918-.076,10.272.5,30.361-4.413,61.692-5.98,92.264-1.1,21.5,3.286,40.994,3.484,60.83.185,17.427-.012,34.877-2.087,52.182-1.364,11.37.909,30.014.909,30.014l.555,2.085a14.732,14.732,0,0,1-.555,9.285h0l1.82,10.915,1.867,10.833a4.133,4.133,0,0,1-1.427,3.877h0a4.126,4.126,0,0,1-2.116.921,56.2,56.2,0,0,1-15.151-.177c-4.346-.685-6.392-2.406-7.35-3.948a4.058,4.058,0,0,1,.074-4.3c1.678-2.65,5.115-8.228,5.454-9.939.456-2.279,0-4.549-.907-7.278s2.729-5.456,2.729-14.1-3.636-33.648-13.185-77.3a201.412,201.412,0,0,1-4.652-35.559c-.45-12.074,1.308-24.781,1.39-37.115.082-13.11-5.17-25.188-8.247-37.816-3.416-14.009-6.807-28.1-7.755-42.536-.313-4.788-.457-9.189-.416-13.411.1-11.513,1.514-21.656,4.235-34.452,1.91-9.006,5.464-17.012,8.685-26.16a110.279,110.279,0,0,0,6.39-28.478c.049-.52.09-1.065.13-1.637.247-3.6.376-10.635.274-18.03-.006-.21-.006-.416-.015-.619v-.144c-.006-.341-.012-.683-.012-1.024-.015-.674-.035-1.349-.047-2.018-.008-.382-.021-.759-.035-1.139,0-.123,0-.239-.006-.356-.008-.307-.02-.613-.029-.92-.012-.4-.027-.8-.039-1.195-.014-.341-.029-.683-.041-1.016-.035-.881-.076-1.74-.117-2.579-.012-.286-.027-.572-.047-.851-.047-.853-.095-1.678-.15-2.476-.021-.315-.047-.615-.068-.915q-.083-1.1-.177-2.108c-.041-.442-.082-.866-.13-1.275-.029-.266-.062-.518-.088-.771s-.062-.491-.1-.73-.062-.469-.094-.7c-.049-.362-.1-.709-.165-1.036-.088-.485-.177-.927-.265-1.331-.041-.15-.076-.3-.109-.436a.382.382,0,0,1-.014-.041,6.846,6.846,0,0,0-.224-.724,1.877,1.877,0,0,0-.076-.2,3.221,3.221,0,0,0-.239-.5l-.014-.021c-.027-.033-.047-.068-.068-.094,0,0-6.787-6.666-4.775-22.98-.769,4.85-8.56,54.152-11.99,71-3.274,16.036-15.239,63.662-15.239,63.662s-1.814,7.959,0,10.231,2.5,4.549,3.186,10.232a12.84,12.84,0,0,1,.074,1.82c-.115,5.982-3.26,15.234-3.26,15.234a1.706,1.706,0,0,1-1.44.788,1.734,1.734,0,0,1-1.758-1.834l.021-.321c.224-4.092.954-11.812-1.822-12.046-1.4-.115-1.364,2.729-2.273,4.776s.818,8.457,1.433,14.549c.7,6.93.7,8.991,1.051,11.768a.979.979,0,0,1-1.734.736c-3.6-4.434-9-16.65-9.849-23.418a27.052,27.052,0,0,1,.921-10.232,64.982,64.982,0,0,1,3.854-10.005c.681-1.816,8.642-86.854,8.642-86.854-.109-5.7,1.7-45.094,7.06-75.032,1.89-10.531,3.786-19.9,7.311-26.215,5.921-10.62,15.293-9.166,25.518-9.693,1.263-.059,2.5-.156,3.692-.313a19.281,19.281,0,0,0,6.84-1.972c7.422-4.045,9.5-9.745,9.318-16.942a46.779,46.779,0,0,0-.395-4.892s5.421,5.2,13.035,5.2,13.341-5.2,13.341-5.2c-.2,1.528-.333,3.009-.389,4.428-.28,7.414,1.734,13.281,9.312,17.406a19.316,19.316,0,0,0,6.861,1.979c.294.041.594.076.9.1.1.006.185.015.28.027.518.047,1.045.088,1.569.123.313.021.627.041.942.053,10.223.527,19.577-.919,25.5,9.693,3.519,6.318,5.421,15.684,7.3,26.215,5.361,29.944,7.169,69.329,7.066,75.032,0,0,7.953,85.038,8.636,86.854a65.645,65.645,0,0,1,3.86,10.005A27.082,27.082,0,0,1,734,2170.521Z" transform="translate(0 44.953)" fill="#ffc188"/>
    <g id="Grupo_54691" data-name="Grupo 54691" transform="translate(642.483 2006.409)">
      <path id="Trazado_105359" data-name="Trazado 105359" d="M606.857,1950.174c-2.192,0-4.755-3.062-5.534-4.063a1.023,1.023,0,1,1,1.615-1.257c1.427,1.833,3.346,3.414,3.947,3.272,1-.249,2.653-2.044,3.508-3.239a1.023,1.023,0,0,1,1.666,1.188c-.255.358-2.554,3.507-4.679,4.037A2.108,2.108,0,0,1,606.857,1950.174Z" transform="translate(-601.107 -1944.459)" fill="#f7b176"/>
    </g>
    <path id="Trazado_105360" data-name="Trazado 105360" d="M571.336,1996.714c2.338,4.051,7.987,9,7.858,6.464-.241-4.77-6.612-12.938-5.279-10.752C572.849,1990.81,570.367,1995.038,571.336,1996.714Z" transform="translate(9.688 112.246)" fill="#f7b176"/>
    <path id="Trazado_105361" data-name="Trazado 105361" d="M623.78,1927.709c-.2,1.528-.333,3.009-.389,4.428a19.318,19.318,0,0,1-13.594,5.544,16.963,16.963,0,0,1-12-5.082,46.84,46.84,0,0,0-.4-4.891s5.421,5.2,13.035,5.2S623.78,1927.709,623.78,1927.709Z" transform="translate(37.463 44.253)" fill="#f7b176"/>
    <path id="Trazado_105362" data-name="Trazado 105362" d="M644.174,1934.454s-3.543,40.333-27.424,40.333c-21.707,0-25.754-40.333-25.754-40.333s-3.949-44.445,26.135-44.445S644.174,1934.454,644.174,1934.454Z" transform="translate(30.511 4.419)" fill="#ffc188"/>
    <path id="Trazado_105363" data-name="Trazado 105363" d="M668.434,1998.4c-.012.314-.02.621-.033.921-.008.08-.008.156-.014.239-.021.327-.041.648-.068.96-.027.356-.055.7-.088,1.024s-.076.662-.117.983c-.033.265-.074.531-.115.79-.088.58-.191,1.127-.306,1.645-.021.109-.041.218-.068.321-.049.239-.1.469-.164.7s-.109.442-.171.654a20.07,20.07,0,0,1-2.34,5.464c-.068.115-.142.224-.218.333a9.829,9.829,0,0,1-1.18,1.46l-.089.089a1.1,1.1,0,0,1-.13.117.63.63,0,0,0-.074.115l-.006.006a5.819,5.819,0,0,0-.539,1.419c-.049.191-.1.389-.15.609-.029.13-.055.259-.082.4-.185.88-.347,1.931-.492,3.124-.035.294-.068.6-.1.907-.047.436-.095.895-.136,1.357-.062.648-.123,1.324-.171,2.026-.027.3-.047.607-.068.915-.13,1.847-.232,3.84-.315,5.9-.012.333-.027.674-.041,1.016-.012.4-.027.792-.041,1.193-.006.307-.021.615-.027.921-.006.115-.006.232-.006.354-.014.376-.027.759-.035,1.139-.012.668-.033,1.337-.047,2.005,0,.342-.006.689-.014,1.03v.144c-.006.211-.006.415-.012.621-.1,7.4.027,14.447.271,18.042.041.572.082,1.125.13,1.643a110.918,110.918,0,0,0,6.488,28.757c-2.124,3.781-11.761,11.889-20.932,25.277-9.3,13.585-18.126,32.43-18.126,32.43a13.437,13.437,0,0,1-3.036.471,13.605,13.605,0,0,1-3.048-.471s-8.664-18.743-17.866-32.294-18.939-21.911-21.09-25.7a110.27,110.27,0,0,0,6.39-28.478c.049-.52.09-1.065.13-1.637.247-3.6.376-10.635.273-18.03-.006-.21-.006-.416-.014-.619v-.144c-.006-.341-.012-.683-.012-1.024-.015-.674-.035-1.349-.047-2.018-.008-.382-.02-.759-.035-1.139,0-.123,0-.239-.006-.356-.008-.307-.021-.613-.029-.92-.012-.4-.027-.8-.039-1.194-.014-.342-.029-.683-.041-1.016-.035-.881-.076-1.74-.117-2.579-.012-.286-.027-.572-.047-.851-.047-.853-.095-1.678-.15-2.476-.021-.315-.047-.615-.068-.915q-.083-1.095-.177-2.108c-.041-.442-.082-.866-.13-1.275-.029-.265-.062-.518-.088-.771s-.062-.492-.1-.73-.062-.469-.095-.7c-.049-.362-.1-.709-.164-1.036-.089-.485-.177-.927-.265-1.331-.041-.15-.076-.3-.109-.436a.322.322,0,0,1-.014-.041,6.933,6.933,0,0,0-.224-.724,1.9,1.9,0,0,0-.076-.2,3.221,3.221,0,0,0-.239-.5l-.014-.021c-.027-.033-.047-.068-.068-.094,0,0-6.787-6.666-4.775-22.98a.386.386,0,0,0,.082.224l-.082-.224a126.338,126.338,0,0,0,9.707-50.853c1.263-.06,2.5-.156,3.692-.313.027.1.06.2.088.313,1.629,5.929,2.538,22.995,6.18,35.908a48.7,48.7,0,0,0,8.586,17.448c6.215,7.756,12.852,9.89,14.106,10.238,1.283-.354,8.146-2.556,14.456-10.682a49.159,49.159,0,0,0,8.239-17c3.642-12.913,4.549-29.978,6.18-35.908.027-.109.062-.2.088-.306v-.007c.3.041.6.074.9.109.1.006.185.015.28.027.518.047,1.045.088,1.569.123.313.021.627.041.942.053a127.018,127.018,0,0,0,9.611,50.635.119.119,0,0,0,.027-.076.423.423,0,0,0,.014.095.469.469,0,0,0,.006.1c.006.015.014.021.014.033a.463.463,0,0,1,.033.07l-.012.042-.014.033c.027.273.055.539.082.807.021.177.033.353.047.524l.062.715c.006.109.015.218.021.321.021.259.033.512.047.756.027.471.047.928.062,1.378C668.455,1996.637,668.455,1997.539,668.434,1998.4Z" transform="translate(22.29 57.184)" fill="#046b94"/>
    <g id="Grupo_54692" data-name="Grupo 54692" transform="translate(610.563 2069.071)">
      <path id="Trazado_105364" data-name="Trazado 105364" d="M615.073,1975.409c-.109.074-9.2,6.71-18.717,6.71a17.612,17.612,0,0,1-5.232-.75,13.926,13.926,0,0,1-5-2.7,5.745,5.745,0,0,0-.539-1.419,13.239,13.239,0,0,0,5.736,3.471c10.791,3.3,23.71-5.941,23.819-5.791A.348.348,0,0,1,615.073,1975.409Z" transform="translate(-585.586 -1974.928)" fill="#035b77"/>
    </g>
    <path id="Trazado_105365" data-name="Trazado 105365" d="M640.448,1996.714c-2.34,4.051-7.99,9-7.86,6.464.243-4.77,6.612-12.938,5.279-10.752C638.933,1990.81,641.415,1995.038,640.448,1996.714Z" transform="translate(74.636 112.246)" fill="#f7b176"/>
    <g id="Grupo_54693" data-name="Grupo 54693" transform="translate(655.921 2069.07)">
      <path id="Trazado_105366" data-name="Trazado 105366" d="M631.53,1980.722a13.355,13.355,0,0,0,5.732-3.465,5.809,5.809,0,0,0-.539,1.419,13.948,13.948,0,0,1-4.993,2.694,17.661,17.661,0,0,1-5.232.751c-9.522,0-18.608-6.637-18.717-6.711a.35.35,0,0,1-.076-.479c.117-.15,9.5,6.516,18.772,6.516A17.326,17.326,0,0,0,631.53,1980.722Z" transform="translate(-607.641 -1974.928)" fill="#035b77"/>
      <path id="Trazado_105367" data-name="Trazado 105367" d="M623.369,1975.191a9.83,9.83,0,0,1-1.18,1.46A14.1,14.1,0,0,0,623.369,1975.191Z" transform="translate(-592.27 -1974.649)" fill="#035b77"/>
    </g>
    <path id="Trazado_105368" data-name="Trazado 105368" d="M621.189,1909.637c2.2.962-.726,7.644-.866,8.461-.7,4.057-.378,2.377-1.073,6.435a2.792,2.792,0,0,1-2.126,1.954,1.571,1.571,0,0,1-1.462-.759c-.282-.462.354-1,.323-1.523a35.927,35.927,0,0,1,1.265-11.735,4.19,4.19,0,0,1,1.1-2.12A3.277,3.277,0,0,1,621.189,1909.637Z" transform="translate(56.677 25.038)" fill="#ffc188"/>
    <path id="Trazado_105369" data-name="Trazado 105369" d="M644.7,1934.864v-.027c-.09-6.4-6.9-21.5-12.749-24.16a7.688,7.688,0,0,0-4.707-.2c-.082.012-.156.033-.238.047-10.225,2.291-27.429,17.08-25.43,31.807-.142-.165-6.542-12.054-6.821-12.449-7.42-10.573-7.685-26.486,2.988-34.432a30.913,30.913,0,0,1,6.017-3.342,39.65,39.65,0,0,1,18.108-3.015l.008.006a37.974,37.974,0,0,1,12.263,2.762,29.271,29.271,0,0,1,5.629,3.083,21.473,21.473,0,0,1,6.207,7.04l.006.008C651.674,1912,651.45,1926.891,644.7,1934.864Z" transform="translate(29.037 3.368)" fill="#603e15"/>
    <path id="Trazado_105370" data-name="Trazado 105370" d="M610.576,1910.434c-.082.012-.156.033-.238.047a31.775,31.775,0,0,0,1-5.479c.457-4.414-1.7-13.724-6.125-15.947a14.873,14.873,0,0,1,7.5,11.111A16.573,16.573,0,0,1,610.576,1910.434Z" transform="translate(45.709 3.413)" fill="#51310f"/>
    <path id="Trazado_105371" data-name="Trazado 105371" d="M593.759,1896.513s-15.221,36.562-.568,56.2c7.305,9.792,9.777,12.05,9.777,12.05s-10.686-36.833-.683-49.794S593.759,1896.513,593.759,1896.513Z" transform="translate(26.284 11.291)" fill="#603e15"/>
    <path id="Trazado_105372" data-name="Trazado 105372" d="M840.133,2170.346c-.845,6.768-6.248,18.984-9.849,23.418a.979.979,0,0,1-1.734-.736c.356-2.777.356-4.837,1.051-11.768.621-6.092,2.346-12.5,1.44-14.548s-.874-4.891-2.272-4.776c-2.783.233-2.046,7.953-1.82,12.046.006.109.012.211.012.321a1.743,1.743,0,0,1-3.2,1.045s-3.144-9.251-3.254-15.234c-.006-.115-.006-.223-.006-.333a12.974,12.974,0,0,1,.08-1.487c.683-5.682,1.365-7.953,3.179-10.232s0-10.231,0-10.231-11.965-47.627-15.231-63.662c-3.424-16.8-11.179-65.845-11.986-70.96-.006-.041-.012-.076-.021-.111l-.006-.027a.16.16,0,0,0-.006-.053.048.048,0,0,0,0,.047l.006.027v.006c-.171.839-1.664,8.008-2.947,14.147-1,4.817-1.882,9-1.89,9.019l-.006.006a5.891,5.891,0,0,0-.539,1.419c-.047.192-.1.389-.15.609-.027.129-.055.259-.082.395-.183.881-.348,1.931-.492,3.124-.033.294-.068.6-.1.907-.049.437-.1.9-.138,1.357-.062.648-.121,1.324-.171,2.026-.027.3-.047.607-.068.915-.13,1.847-.233,3.84-.313,5.9-.014.333-.029.675-.041,1.016-.015.4-.027.792-.041,1.192-.006.307-.021.615-.027.922-.008.115-.008.232-.008.354-.012.376-.027.759-.033,1.139-.014.668-.035,1.337-.049,2.005,0,.342-.006.689-.012,1.03v.144c-.006.211-.006.415-.015.621-.074,5.429-.027,10.667.1,14.495.021.975.068,1.985.136,3.007.008.179.021.356.035.541.033.539.082,1.09.13,1.643a110.91,110.91,0,0,0,6.487,28.757c3.192,9.032,6.692,16.965,8.588,25.874,2.715,12.8,4.134,22.939,4.236,34.451.033,4.222-.1,8.624-.417,13.411-.948,14.433-4.337,28.527-7.755,42.536-3.083,12.628-8.335,24.706-8.247,37.816.082,12.334,1.843,25.041,1.392,37.115a201.609,201.609,0,0,1-4.652,35.558c-9.551,43.655-13.185,68.667-13.185,77.3s3.634,11.37,2.727,14.1-1.364,5-.913,7.278c.341,1.711,3.212,17.5-1.133,18.184a61.918,61.918,0,0,1-15.831.179,4.157,4.157,0,0,1-2.114-.921c-.954-.8.436-14.713.436-14.713l1.822-10.915a14.756,14.756,0,0,1-.56-9.283l.56-2.087s2.271-18.643.907-30.013c-2.081-17.3-2.272-34.755-2.094-52.182.2-19.836,4.59-39.331,3.484-60.83-1.561-30.573-6.478-61.9-5.974-92.264.056-3.294.15-6.745-.068-10.087-.006-.062-.006-.123-.014-.186-.047-.783-.115-1.567-.218-2.332-.006-.094-.021-.191-.033-.286a14.936,14.936,0,0,1-2.723.463c-.1.008-.2.008-.313.008s-.2,0-.3-.008a14.894,14.894,0,0,1-2.75-.463c-.015.094-.027.191-.035.286-.1.765-.171,1.542-.218,2.332-.006.062-.006.13-.012.192-.22,3.335-.123,6.787-.062,10.081.5,30.361-4.414,61.691-5.983,92.264-1.1,21.5,3.289,40.993,3.486,60.83.183,17.427-.014,34.877-2.087,52.182-1.364,11.37.907,30.013.907,30.013l.56,2.087a14.771,14.771,0,0,1-.56,9.283l1.822,10.915s1.575,13.765.436,14.713a4.159,4.159,0,0,1-2.114.921,61.92,61.92,0,0,1-15.832-.179c-4.345-.689-1.481-16.473-1.139-18.184.457-2.279,0-4.549-.907-7.278s2.727-5.456,2.727-14.1-3.636-33.648-13.185-77.3a201.62,201.62,0,0,1-4.652-35.558c-.45-12.074,1.31-24.782,1.392-37.115.08-13.11-5.17-25.188-8.247-37.816-3.418-14.009-6.807-28.1-7.755-42.536-.315-4.788-.459-9.189-.417-13.411.1-11.513,1.516-21.656,4.237-34.451,1.91-9.006,5.464-17.012,8.683-26.16a110.177,110.177,0,0,0,6.392-28.478c.047-.52.088-1.065.129-1.637.245-3.6.374-10.635.274-18.03-.008-.21-.008-.416-.014-.619v-.144c-.006-.341-.014-.683-.014-1.024-.012-.674-.033-1.349-.047-2.017-.006-.383-.021-.759-.033-1.139,0-.123,0-.239-.008-.356-.006-.306-.021-.613-.027-.919-.015-.4-.027-.8-.041-1.2-.014-.341-.027-.682-.041-1.015-.033-.88-.074-1.74-.115-2.579-.014-.286-.029-.572-.047-.852-.049-.853-.1-1.678-.15-2.476-.021-.314-.049-.615-.07-.915-.053-.73-.115-1.431-.177-2.108-.041-.442-.082-.866-.13-1.276-.027-.265-.062-.518-.089-.771s-.062-.491-.095-.729-.062-.469-.1-.7c-.047-.362-.1-.709-.162-1.037-.09-.485-.179-.927-.267-1.331-.041-.15-.074-.3-.109-.436-.006-.014-.006-.027-.012-.041s-.008-.014-.008-.027c-.1-.43-1.18-5.02-2.353-10.1-1.275-5.45-2.673-11.453-3.145-13.472.033-.321.068-.648.109-.983-.035.212-.082.5-.136.867-1.3,8.165-8.576,54.078-11.856,70.2-3.274,16.035-15.237,63.662-15.237,63.662a30.577,30.577,0,0,0-.744,7.926v.012a4.525,4.525,0,0,0,.744,2.293c1.82,2.279,2.5,4.55,3.184,10.232a12.563,12.563,0,0,1,.076,1.82c-.115,5.983-3.26,15.234-3.26,15.234a1.709,1.709,0,0,1-1.44.789,1.735,1.735,0,0,1-1.76-1.834l.021-.321c.224-4.093.307-13.839-1.822-12.046-1.1.921-1.364,2.729-2.271,4.776s.819,8.456,1.432,14.548c.7,6.93.7,8.991,1.051,11.768a.978.978,0,0,1-1.732.736c-3.6-4.434-9-16.65-9.851-23.418a27.092,27.092,0,0,1,.921-10.232,65.241,65.241,0,0,1,3.854-10c.683-1.816,8.642-86.854,8.642-86.854-.109-5.7,1.7-45.094,7.06-75.032,1.89-10.532,3.786-19.9,7.313-26.215,5.921-10.62,15.292-9.166,25.518-9.693,1.261-.059,2.5-.156,3.689-.313a19.3,19.3,0,0,0,6.842-1.972c4.44-2.421,6.97-5.435,8.247-9a17.181,17.181,0,0,0,.654-2.373,25.206,25.206,0,0,0,.415-5.565c-.006-.356-.021-.718-.041-1.086.055-1.078.062-2.188.041-3.336a.826.826,0,0,0-.006-.121,20.6,20.6,0,0,0,12.646,4.849c6.427,0,11.508-3.7,12.94-4.858-.027,1.187-.015,2.347.047,3.474-.012.2-.027.409-.033.613a25.022,25.022,0,0,0,.415,6.03,16.881,16.881,0,0,0,.648,2.373c1.275,3.574,3.807,6.583,8.247,9a19.346,19.346,0,0,0,6.863,1.979c.292.041.592.076.9.1.094.006.183.015.28.027.518.047,1.043.088,1.567.123.315.021.629.041.942.053,10.225.526,18.894-.239,24.815,10.375,3.521,6.316,5.423,15.681,7.307,26.213,5.362,29.946,7.167,69.331,7.066,75.032,0,0,8.636,84.357,9.316,86.173a65.569,65.569,0,0,1,3.862,10A27.045,27.045,0,0,1,840.133,2170.346Z" transform="translate(112.14 45.128)" fill="#ffc188"/>
    <path id="Trazado_105373" data-name="Trazado 105373" d="M729.917,1927.709c-.2,1.528-.335,3.009-.389,4.428a19.322,19.322,0,0,1-13.594,5.544,16.967,16.967,0,0,1-12-5.082,46.265,46.265,0,0,0-.395-4.891s5.423,5.2,13.035,5.2S729.917,1927.709,729.917,1927.709Z" transform="translate(149.603 44.253)" fill="#f7b176"/>
    <path id="Trazado_105374" data-name="Trazado 105374" d="M703.529,1938.655a25.2,25.2,0,0,0,.415-5.565c-.006-.356-.021-.718-.041-1.086.055-1.078.062-2.188.041-3.336a.826.826,0,0,0-.006-.121,20.6,20.6,0,0,0,12.646,4.849c6.427,0,11.508-3.7,12.94-4.858-.027,1.187-.015,2.347.047,3.474-.013.2-.027.409-.033.613a25.016,25.016,0,0,0,.415,6.03Z" transform="translate(149.592 45.128)" fill="#f7b176"/>
    <g id="Grupo_54696" data-name="Grupo 54696" transform="translate(836.361 2200.967)">
      <g id="Grupo_54694" data-name="Grupo 54694" transform="translate(33.043 0.002)">
        <path id="Trazado_105375" data-name="Trazado 105375" d="M719.249,2043.746c-2.665,0-5.244.43-7.537-.21-.012,0-.02-.008-.033-.014-.006-.061-.006-.123-.015-.185-.047-.784-.115-1.567-.218-2.332a1.018,1.018,0,0,1,.819-.123c8.561,2.388,26.6-2.326,26.76-1.773S727.175,2043.746,719.249,2043.746Z" transform="translate(-711.446 -2039.063)" fill="#f7b176"/>
      </g>
      <g id="Grupo_54695" data-name="Grupo 54695">
        <path id="Trazado_105376" data-name="Trazado 105376" d="M722.269,2041.005c-.1.765-.171,1.542-.218,2.333-.006.062-.006.129-.012.191-2.552.806-5.37.436-8.22.436-7.455,0-18.6-4.317-18.437-4.862s17.386,4.523,26.043,1.793A1,1,0,0,1,722.269,2041.005Z" transform="translate(-695.379 -2039.062)" fill="#f7b176"/>
      </g>
    </g>
    <path id="Trazado_105377" data-name="Trazado 105377" d="M681.949,2048.511c-.115,5.982-3.26,15.233-3.26,15.233a1.708,1.708,0,0,1-1.439.79,1.735,1.735,0,0,1-1.76-1.834l.02-.321c.224-4.093.954-11.813-1.822-12.046a51.927,51.927,0,0,0,3.253-6.482c.683-2.336,1-9.684,1-9.684a4.528,4.528,0,0,0,.744,2.293c1.82,2.277,2.5,4.549,3.184,10.231A12.555,12.555,0,0,1,681.949,2048.511Z" transform="translate(118.063 156.732)" fill="#f7b176"/>
    <path id="Trazado_105378" data-name="Trazado 105378" d="M742.238,2048.511c.117,5.982,3.262,15.233,3.262,15.233a1.7,1.7,0,0,0,1.438.79,1.736,1.736,0,0,0,1.761-1.834l-.021-.321c-.224-4.093-.954-11.813,1.822-12.046a51.961,51.961,0,0,1-3.253-6.482c-.683-2.336-1-9.684-1-9.684a4.547,4.547,0,0,1-.742,2.293c-1.822,2.277-2.5,4.549-3.186,10.231A12.82,12.82,0,0,0,742.238,2048.511Z" transform="translate(190.487 156.732)" fill="#f7b176"/>
    <path id="Trazado_105379" data-name="Trazado 105379" d="M773.627,2087.734c-2.12,3.78-39.057,19.741-39.057,57.707,0,.325-1.189.442-2.723.462-.1.009-.2.009-.313.009s-.2,0-.3-.009c-1.466-.027-2.75-.23-2.75-.462,0-37.285-36.807-54.2-38.956-57.993a110.273,110.273,0,0,0,6.392-28.478c.047-.52.088-1.065.13-1.637.245-3.6.374-10.635.273-18.03-.008-.21-.008-.416-.014-.619v-.144c-.006-.341-.014-.683-.014-1.024-.012-.674-.033-1.349-.047-2.018-.006-.382-.021-.759-.033-1.139,0-.123,0-.239-.008-.356-.006-.307-.021-.613-.027-.92-.014-.4-.027-.8-.041-1.194-.014-.342-.027-.683-.041-1.016-.033-.881-.074-1.74-.115-2.579-.014-.286-.029-.572-.047-.851-.049-.853-.1-1.678-.15-2.476-.021-.315-.049-.615-.07-.915-.053-.73-.115-1.432-.177-2.108-.041-.442-.082-.866-.13-1.275-.027-.265-.062-.518-.088-.771s-.062-.492-.094-.73-.062-.469-.1-.7c-.047-.362-.1-.709-.163-1.036-.09-.485-.179-.927-.267-1.331-.041-.15-.074-.3-.109-.436-.006-.014-.006-.027-.012-.041s-.008-.014-.008-.027c-.1-.43-3.786-17.9-5.041-22.982,3.192-18.479,9.666-34,9.359-52.358,1.261-.06,2.5-.156,3.69-.313.027.1.062.2.088.313,1.631,5.929-9.767,135.325,28.874,135.325,37.781,0,27.243-129.4,28.874-135.325.027-.109.06-.2.089-.306v-.007c.3.041.6.074.9.109.094.006.183.015.28.027.518.047,1.043.088,1.567.123.315.021.629.041.942.053-.294,17.409,6.221,33.321,9.407,52.05-1.071,4.816-4.57,21.877-4.578,21.9l-.006.006a5.9,5.9,0,0,0-.539,1.419c-.047.191-.1.389-.15.609-.027.13-.055.259-.082.4-.183.88-.348,1.931-.492,3.124-.033.294-.068.6-.1.907-.049.436-.1.895-.138,1.357-.062.648-.121,1.324-.171,2.026-.027.3-.047.607-.068.915-.129,1.847-.232,3.84-.313,5.9-.014.333-.029.674-.041,1.016-.014.4-.029.792-.041,1.193-.006.307-.02.615-.027.921-.008.115-.008.232-.008.354-.012.376-.027.759-.033,1.139-.014.668-.035,1.337-.049,2.005,0,.342-.006.689-.012,1.03v.144c-.006.211-.006.415-.014.621-.074,5.429-.027,10.667.1,14.495.021.974.068,1.984.136,3.006.008.179.021.356.035.541.033.538.082,1.09.13,1.643A110.915,110.915,0,0,0,773.627,2087.734Z" transform="translate(134.8 57.184)" fill="#046b94"/>
    <path id="Trazado_105380" data-name="Trazado 105380" d="M599.458,2095.829c-4.662.391-11.951-1.423-9.791-2.768,4.056-2.521,14.4-1.948,11.842-1.8C603.444,2091.216,601.387,2095.668,599.458,2095.829Z" transform="translate(28.876 216.889)" fill="#f7b176"/>
    <path id="Trazado_105381" data-name="Trazado 105381" d="M615.476,2095.829c4.662.391,11.953-1.423,9.791-2.768-4.054-2.521-14.4-1.948-11.842-1.8C611.49,2091.216,613.547,2095.668,615.476,2095.829Z" transform="translate(53.57 216.889)" fill="#f7b176"/>
    <rect id="Rect치ngulo_5526" data-name="Rect치ngulo 5526" width="603.426" height="4.636" transform="translate(650.917 1890.118) rotate(90)" fill="red"/>
    <path id="Trazado_105382" data-name="Trazado 105382" d="M772.009,1946.323q-2.551-8.209-5.1-16.418c-1.946-6.264-3.84-12.471-5.592-18.793-2.842-10.25-8.985-17.557-19.328-20.654a38.517,38.517,0,0,0-27.758,2.25c-13.2,6.641-13.431,21.335-17.436,33.608-2.219,6.8-3.918,13.816-5.832,20.716a24.135,24.135,0,0,0,23.256,30.583h34.744A24.133,24.133,0,0,0,772.009,1946.323Z" transform="translate(135.373 3.214)" fill="#51310f"/>
    <rect id="Rect치ngulo_5527" data-name="Rect치ngulo 5527" width="606.108" height="3.546" transform="translate(868.102 1885.826) rotate(90)" fill="red"/>
  </g>
</svg>
