<svg xmlns="http://www.w3.org/2000/svg" width="226.4" height="497.309" viewBox="0 0 226.4 497.309">
  <g id="Grupo_54834" data-name="Grupo 54834" transform="translate(-389.074 -1515.754)">
    <g id="Grupo_54687" data-name="Grupo 54687" transform="translate(-290.725 491.599)">
      <g id="Grupo_54684" data-name="Grupo 54684" transform="translate(698.307 1024.155)">
        <path id="Trazado_105341" data-name="Trazado 105341" d="M795.931,1024.655s-53.6,7.694-88.507,6.966c0,0-17.82,81.852-7.637,141.481s7.273,109.089,7.273,109.089l6.183,201.315h120.74l2.546-180.585s.364-104.13,21.092-137.165c0,0-23.264,8.65-43.034-16.669C800.765,1131.388,808.767,1094.537,795.931,1024.655Z" transform="translate(-695.974 -1023.958)" fill="#fff"/>
        <path id="Trazado_105342" data-name="Trazado 105342" d="M834.171,1484.4H713.431a.7.7,0,0,1-.7-.676l-6.183-201.313c.029-.556,2.788-50.134-7.263-108.993-10.089-59.081,7.464-140.927,7.642-141.747a.7.7,0,0,1,.682-.549h.014c34.5.733,87.86-6.883,88.394-6.959a.7.7,0,0,1,.785.563c5.767,31.4,7.313,55.824,8.557,75.452,1.49,23.54,2.476,39.091,9.962,48.678,19.206,24.6,42.011,16.53,42.242,16.444a.7.7,0,0,1,.834,1.025c-20.385,32.488-20.982,135.757-20.986,136.8l-2.546,180.592A.7.7,0,0,1,834.171,1484.4Zm-120.064-1.394H833.484l2.536-179.9c0-1.021.584-101.624,20.288-136.005-5.854,1.41-25.347,4.044-42.083-17.39-7.75-9.929-8.746-25.65-10.253-49.448-1.232-19.454-2.764-43.633-8.416-74.63-6.248.87-54.893,7.483-87.381,6.891-1.535,7.336-17.117,84.411-7.511,140.657,10.079,59.024,7.311,108.75,7.281,109.247Z" transform="translate(-696.163 -1024.155)" fill="#08938f"/>
      </g>
      <path id="Trazado_105343" data-name="Trazado 105343" d="M822.655,1481.945H721.311a.7.7,0,0,1-.7-.663l-5.214-110.92c-.04-1.235-4.071-123.507-10.181-205.88-6.124-82.559,16.315-135.514,16.542-136.04a.69.69,0,0,1,.743-.411c25.381,3.831,85.175,8.433,85.775,8.479a.7.7,0,0,1,.644.677c2.408,93.346,15.264,116.655,22.715,122.243,2.548,1.91,4.21,1.5,4.281,1.48a.706.706,0,0,1,.705.211.7.7,0,0,1,.128.722c-10.734,26.485-13.378,174.278-13.4,175.768v143.638A.7.7,0,0,1,822.655,1481.945Zm-100.679-1.394h99.982V1337.6c.1-6.032,2.611-146.126,13.118-175.265a8.03,8.03,0,0,1-4.119-1.677c-7.688-5.582-20.933-28.959-23.409-122.8-6.439-.5-60.415-4.754-84.71-8.363-2.244,5.534-22.01,56.933-16.226,134.89,6.11,82.4,10.142,204.7,10.182,205.928Z" transform="translate(5.295 1.524)" fill="#f5b073"/>
      <g id="Grupo_54685" data-name="Grupo 54685" transform="translate(775.077 1039.455)">
        <rect id="Rect치ngulo_5523" data-name="Rect치ngulo 5523" width="1.394" height="1.394" transform="translate(0)" fill="#999"/>
        <path id="Trazado_105344" data-name="Trazado 105344" d="M752.626,1473.105h-1.394v-2.77h1.394Zm0-5.541h-1.394v-2.77h1.394Zm0-5.542h-1.394v-2.77h1.394Zm0-5.54h-1.394v-2.772h1.394Zm0-5.542h-1.394v-2.771h1.394Zm0-5.541h-1.394v-2.772h1.394Zm0-5.542h-1.394v-2.77h1.394Zm0-5.541h-1.394v-2.771h1.394Zm0-5.542h-1.394v-2.77h1.394Zm0-5.54h-1.394v-2.771h1.394Zm0-5.543h-1.394v-2.77h1.394Zm0-5.54h-1.394v-2.772h1.394Zm0-5.542h-1.394v-2.771h1.394Zm0-5.541h-1.394v-2.77h1.394Zm0-5.542h-1.394v-2.77h1.394Zm0-5.542h-1.394v-2.77h1.394Zm0-5.541h-1.394v-2.77h1.394Zm0-5.54h-1.394v-2.771h1.394Zm0-5.542h-1.394v-2.771h1.394Zm0-5.541h-1.394v-2.77h1.394Zm0-5.542h-1.394v-2.77h1.394Zm0-5.542h-1.394v-2.77h1.394Zm0-5.54h-1.394v-2.772h1.394Zm0-5.542h-1.394v-2.772h1.394Zm0-5.542h-1.394v-2.771h1.394Zm0-5.542h-1.394v-2.77h1.394Zm0-5.542h-1.394v-2.77h1.394Zm0-5.541h-1.394v-2.77h1.394Zm0-5.54h-1.394v-2.772h1.394Zm0-5.543h-1.394v-2.77h1.394Zm0-5.54h-1.394v-2.77h1.394Zm0-5.542h-1.394v-2.771h1.394Zm0-5.542h-1.394v-2.77h1.394Zm0-5.541h-1.394v-2.77h1.394Zm0-5.542h-1.394v-2.77h1.394Zm0-5.54h-1.394v-2.771h1.394Zm0-5.542h-1.394v-2.771h1.394Zm0-5.542h-1.394v-2.771h1.394Zm0-5.542h-1.394v-2.77h1.394Zm0-5.541h-1.394v-2.77h1.394Zm0-5.542h-1.394v-2.77h1.394Zm0-5.54h-1.394v-2.771h1.394Zm0-5.542h-1.394V1237.6h1.394Zm0-5.542h-1.394v-2.77h1.394Zm0-5.542h-1.394v-2.77h1.394Zm0-5.541h-1.394v-2.77h1.394Zm0-5.542h-1.394v-2.77h1.394Zm0-5.54h-1.394V1209.9h1.394Zm0-5.543h-1.394v-2.77h1.394Zm0-5.54h-1.394v-2.77h1.394Zm0-5.542h-1.394v-2.771h1.394Zm0-5.541h-1.394v-2.77h1.394Zm0-5.54h-1.394v-2.771h1.394Zm0-5.543h-1.394v-2.77h1.394Zm0-5.54h-1.394v-2.771h1.394Zm0-5.542h-1.394v-2.771h1.394Zm0-5.541h-1.394v-2.772h1.394Zm0-5.542h-1.394v-2.77h1.394Zm0-5.542h-1.394v-2.77h1.394Zm0-5.542h-1.394v-2.77h1.394Zm0-5.54h-1.394v-2.771h1.394Zm0-5.542h-1.394v-2.771h1.394Zm0-5.541h-1.394v-2.77h1.394Zm0-5.542h-1.394v-2.77h1.394Zm0-5.542h-1.394v-2.77h1.394Zm0-5.542h-1.394v-2.77h1.394Zm0-5.54h-1.394v-2.771h1.394Zm0-5.543h-1.394v-2.77h1.394Zm0-5.54h-1.394v-2.77h1.394Zm0-5.542h-1.394v-2.772h1.394Zm0-5.542h-1.394v-2.77h1.394Zm0-5.54h-1.394v-2.771h1.394Zm0-5.543h-1.394v-2.77h1.394Zm0-5.54h-1.394v-2.771h1.394Zm0-5.541h-1.394v-2.771h1.394Zm0-5.542h-1.394v-2.771h1.394Zm0-5.542h-1.394v-2.77h1.394Zm0-5.542h-1.394v-2.77h1.394Zm0-5.542h-1.394v-2.77h1.394Z" transform="translate(-751.232 -1033.953)" fill="#999"/>
        <rect id="Rect치ngulo_5524" data-name="Rect치ngulo 5524" width="1.394" height="1.394" transform="translate(0 441.923)" fill="#999"/>
      </g>
      <path id="Trazado_105345" data-name="Trazado 105345" d="M813.587,1096.285H810.8v-1.394h2.788Zm-5.576,0h-2.788v-1.394h2.788Zm-5.576,0h-2.788v-1.394h2.788Zm-5.576,0H794.07v-1.394h2.788Zm-5.576,0h-2.788v-1.394h2.788Zm-5.576,0h-2.788v-1.394h2.788Zm-5.576,0h-2.788v-1.394h2.788Zm-5.576,0h-2.788v-1.394h2.788Zm-5.576,0h-2.788v-1.394h2.788Zm-5.576,0h-2.788v-1.394H763.4Zm-5.576,0h-2.788v-1.394h2.788Zm-5.576,0H749.46v-1.394h2.788Zm-5.576,0h-2.788v-1.394h2.788Zm-5.576,0h-2.788v-1.394H741.1Zm-5.576,0h-2.788v-1.394h2.788Zm-5.576,0h-2.788v-1.394h2.788Zm-5.576,0h-2.788v-1.394h2.788Zm-5.576,0H716v-1.394h2.788Zm-5.576,0h-2.788v-1.394h2.788Zm-5.576,0h-2.788v-1.394h2.788Z" transform="translate(5.566 27.876)" fill="#999"/>
      <path id="Trazado_105346" data-name="Trazado 105346" d="M835.233,1125.764H833.1v-1.394h2.129Zm-4.917,0h-2.788v-1.394h2.788Zm-5.576,0h-2.788v-1.394h2.788Zm-5.576,0h-2.788v-1.394h2.788Zm-5.576,0H810.8v-1.394h2.788Zm-5.576,0h-2.788v-1.394h2.788Zm-5.576,0h-2.788v-1.394h2.788Zm-5.576,0H794.07v-1.394h2.788Zm-5.576,0h-2.788v-1.394h2.788Zm-5.576,0h-2.788v-1.394h2.788Zm-5.576,0h-2.788v-1.394h2.788Zm-5.576,0h-2.788v-1.394h2.788Zm-5.576,0h-2.788v-1.394h2.788Zm-5.576,0h-2.788v-1.394H763.4Zm-5.576,0h-2.788v-1.394h2.788Zm-5.576,0H749.46v-1.394h2.788Zm-5.576,0h-2.788v-1.394h2.788Zm-5.576,0h-2.788v-1.394H741.1Zm-5.576,0h-2.788v-1.394h2.788Zm-5.576,0h-2.788v-1.394h2.788Zm-5.576,0h-2.788v-1.394h2.788Zm-5.576,0H716v-1.394h2.788Zm-5.576,0h-2.788v-1.394h2.788Zm-5.576,0h-2.788v-1.394h2.788Z" transform="translate(5.566 39.493)" fill="#999"/>
      <path id="Trazado_105347" data-name="Trazado 105347" d="M819.212,1216.807h-2.788v-1.394h2.788Zm-5.576,0h-2.788v-1.394h2.788Zm-5.576,0h-2.788v-1.394h2.788Zm-5.576,0h-2.788v-1.394h2.788Zm-5.576,0h-2.788v-1.394h2.788Zm-5.576,0h-2.788v-1.394h2.788Zm-5.576,0h-2.788v-1.394h2.788Zm-5.576,0H777.39v-1.394h2.788Zm-5.576,0h-2.788v-1.394H774.6Zm-5.576,0h-2.788v-1.394h2.788Zm-5.576,0h-2.788v-1.394h2.788Zm-5.576,0h-2.788v-1.394h2.788Zm-5.576,0h-2.788v-1.394H752.3Zm-5.576,0h-2.788v-1.394h2.788Zm-5.576,0h-2.788v-1.394h2.788Zm-5.576,0h-2.788v-1.394h2.788Zm-5.576,0H727.2v-1.394h2.788Zm-5.576,0h-2.788v-1.394h2.788Zm-5.576,0H716.05v-1.394h2.788Zm-5.576,0h-2.788v-1.394h2.788Z" transform="translate(7.783 75.371)" fill="#999"/>
      <path id="Trazado_105348" data-name="Trazado 105348" d="M813.93,1161.129h-2.788v-1.394h2.788Zm-5.576,0h-2.788v-1.394h2.788Zm-5.576,0h-2.788v-1.394h2.788Zm-5.576,0h-2.788v-1.394H797.2Zm-5.576,0h-2.788v-1.394h2.788Zm-5.576,0H783.26v-1.394h2.788Zm-5.576,0h-2.788v-1.394h2.788Zm-5.576,0h-2.788v-1.394H774.9Zm-5.576,0h-2.788v-1.394h2.788Zm-5.576,0h-2.788v-1.394h2.788Zm-5.576,0h-2.788v-1.394h2.788Zm-5.576,0H749.8v-1.394h2.788Zm-5.576,0h-2.788v-1.394h2.788Zm-5.576,0h-2.788v-1.394h2.788Zm-5.576,0h-2.788v-1.394h2.788Zm-5.576,0H727.5v-1.394h2.788Zm-5.576,0h-2.788v-1.394h2.788Zm-5.576,0h-2.788v-1.394h2.788Zm-5.576,0h-2.788v-1.394h2.788Zm-5.576,0h-2.788v-1.394h2.788Zm-2.433-3.144h-1.394V1155.2h1.394Zm109.08-.3h-1.394V1154.9h1.394Zm-109.08-5.278h-1.394v-2.788h1.394Zm109.08-.3h-1.394v-2.788h1.394Zm-109.08-5.278h-1.394v-2.788h1.394Zm109.08-.3h-1.394v-2.788h1.394Zm-109.08-5.278h-1.394v-2.788h1.394Zm109.08-.3h-1.394v-2.788h1.394Zm-109.08-5.278h-1.394v-2.788h1.394Zm109.08-.3h-1.394v-2.788h1.394Zm-109.08-5.278h-1.394v-2.788h1.394Zm109.08-.3h-1.394v-2.788h1.394Zm-109.08-5.278h-1.394v-2.788h1.394Zm109.08-.3h-1.394v-2.788h1.394Zm-109.08-5.278h-1.394v-2.788h1.394Zm109.08-.3h-1.394v-2.788h1.394Zm-109.08-5.278h-1.394v-2.788h1.394Zm109.08-.3h-1.394v-2.788h1.394Zm-109.08-5.278h-1.394v-2.788h1.394Zm109.08-.3h-1.394v-2.788h1.394Zm-109.08-5.278h-1.394v-2.788h1.394Zm109.08-.3h-1.394v-2.788h1.394Zm-109.08-5.278h-1.394v-2.788h1.394Zm109.08-.3h-1.394v-2.788h1.394Zm-109.08-5.278h-1.394v-2.788h1.394Zm109.08-.3h-1.394v-2.788h1.394Zm-109.08-5.278h-1.394V1082.7h1.394Zm109.08-.3h-1.394v-2.788h1.394Zm-109.08-5.278h-1.394v-2.788h1.394Zm109.08-.3h-1.394v-2.788h1.394Zm-109.08-5.278h-1.394v-2.788h1.394Zm109.08-.3h-1.394v-2.788h1.394Zm-109.08-5.278h-1.394v-2.788h1.394Zm109.08-.3h-1.394v-2.788h1.394Zm-109.08-5.278h-1.394V1060.4h1.394Zm109.08-.3h-1.394V1060.1h1.394Zm-109.08-5.278h-1.394v-2.788h1.394Zm109.08-.3h-1.394v-2.788h1.394Zm-109.08-5.278h-1.394v-2.788h1.394Zm109.08-.3h-1.394v-2.788h1.394Zm-109.08-5.278h-1.394v-2.788h1.394Zm109.08-.3h-1.394v-2.788h1.394Zm-109.08-5.278h-1.394v-2.788h1.394Zm109.08-.3h-1.394V1037.8h1.394Zm-1.016-4.56h-2.788v-1.394h2.788Zm-5.576,0h-2.788v-1.394h2.788Zm-5.576,0H799.67v-1.394h2.788Zm-5.576,0h-2.788v-1.394h2.788Zm-5.576,0h-2.788v-1.394h2.788Zm-5.576,0h-2.788v-1.394h2.788Zm-5.576,0h-2.788v-1.394h2.788Zm-5.576,0h-2.788v-1.394h2.788Zm-5.576,0h-2.788v-1.394H769Zm-5.576,0h-2.788v-1.394h2.788Zm-5.576,0h-2.788v-1.394h2.788Zm-5.576,0h-2.788v-1.394h2.788Zm-5.576,0h-2.788v-1.394h2.788Zm-5.576,0H738.33v-1.394h2.788Zm-5.576,0h-2.788v-1.394h2.788Zm-5.576,0h-2.788v-1.394h2.788Zm-5.576,0H721.6v-1.394h2.788Zm-5.576,0h-2.788v-1.394h2.788Zm-5.576,0h-2.788v-1.394h2.788Zm-5.576,0h-2.788v-1.394h2.788Z" transform="translate(5.292 4.128)" fill="#999"/>
      <path id="Trazado_105349" data-name="Trazado 105349" d="M713.073,1031.2l-.005-1.394q1.38,0,2.787-.017l.011,1.394C714.926,1031.189,713.994,1031.194,713.073,1031.2Zm-2.792,0q-1.426,0-2.8-.015l.011-1.394q1.363.013,2.787.015Zm-5.589-.045-2.791-.042.024-1.394,2.787.042Zm13.964-.006-.021-1.394c.926-.014,1.856-.031,2.783-.053l.032,1.394Q720.052,1031.127,718.657,1031.147Zm-19.548-.092c-1.005-.022-1.941-.046-2.794-.068l.038-1.394c.852.022,1.784.046,2.785.068Zm25.138-.035-.043-1.394q1.4-.044,2.781-.1l.057,1.393Q725.652,1030.975,724.247,1031.02Zm-30.723-.117c-1.777-.056-2.8-.1-2.8-.1l.057-1.393s1.019.043,2.785.1Zm36.31-.113-.074-1.393c.94-.049,1.867-.1,2.776-.163l.092,1.391Q731.254,1030.715,729.834,1030.79Zm5.587-.371-.114-1.39q1.42-.115,2.762-.255l.145,1.386C737.311,1030.255,736.378,1030.341,735.422,1030.419Zm5.582-.587-.183-1.382c.956-.127,1.869-.266,2.727-.417l.243,1.373C742.914,1029.561,741.982,1029.7,741,1029.832Z" transform="translate(0 1.529)" fill="#999"/>
      <g id="Grupo_54686" data-name="Grupo 54686" transform="translate(848.543 1146.065)">
        <path id="Trazado_105350" data-name="Trazado 105350" d="M822.3,1239.486s5.818-44.368,9.455-57.7,10.667-28.852,10.667-28.852l11.153-15.759s14.062-13.577,2.667-21.82c0,0-12.849-13.941-30.306,15.941,0,0-17.457,30.123-16.972,75.219l-1.939,29.337-1.7,32.487s-4.122,23.033,5.334,21.335,8.969-16.486,8.969-16.486Z" transform="translate(-803.734 -1111.405)" fill="#ee7d2f"/>
        <path id="Trazado_105351" data-name="Trazado 105351" d="M809.891,1290.658a4.453,4.453,0,0,1-3.265-1.344c-4.638-4.635-1.908-20.24-1.79-20.9l1.687-32.4,1.939-29.347c-.481-44.715,16.889-75.219,17.065-75.521,7.09-12.14,14.315-18.686,21.474-19.463a12.219,12.219,0,0,1,9.947,3.4,10.263,10.263,0,0,1,4.613,7.736c.526,7.4-6.987,14.749-7.308,15.059l-11.068,15.661c0,.039-6.986,15.5-10.566,28.63-3.554,13.037-9.29,56.5-9.434,57.594l-2.665,33.682c.022.551.392,15.335-9.542,17.118A6.18,6.18,0,0,1,809.891,1290.658ZM848.362,1113a10.845,10.845,0,0,0-1.239.07c-6.593.731-13.644,7.221-20.391,18.773-.171.3-17.352,30.494-16.877,74.861l-1.94,29.39-1.7,32.478c-.036.241-2.732,15.633,1.394,19.757a3.286,3.286,0,0,0,3.121.856c8.749-1.57,8.4-15.636,8.4-15.778l2.672-33.813c.059-.443,5.868-44.567,9.474-57.8s10.635-28.8,10.705-28.955l11.218-15.875c.158-.17,7.453-7.306,6.97-14.059a9.079,9.079,0,0,0-4.143-6.793A11.143,11.143,0,0,0,848.362,1113Z" transform="translate(-803.931 -1111.603)" fill="#c46649"/>
      </g>
    </g>
    <path id="Trazado_105628" data-name="Trazado 105628" d="M4.5,14.176V19H1.074V4.781H6.748a6.608,6.608,0,0,1,2.886.6,4.526,4.526,0,0,1,1.943,1.709,4.667,4.667,0,0,1,.688,2.515,4.114,4.114,0,0,1-1.489,3.325,6.179,6.179,0,0,1-4.087,1.245Zm0-2.646H6.748a2.118,2.118,0,0,0,1.519-.5,1.85,1.85,0,0,0,.522-1.406,2.287,2.287,0,0,0-.537-1.592,1.9,1.9,0,0,0-1.465-.605H4.5ZM19.785,19a3.716,3.716,0,0,1-.312-.947A3.06,3.06,0,0,1,16.934,19.2a3.749,3.749,0,0,1-2.539-.9,2.875,2.875,0,0,1-1.045-2.271,2.955,2.955,0,0,1,1.27-2.6,6.468,6.468,0,0,1,3.691-.879h1.016v-.559q0-1.462-1.26-1.462a1.03,1.03,0,0,0-1.172,1.158H13.6a2.95,2.95,0,0,1,1.3-2.487,5.479,5.479,0,0,1,3.325-.956,4.8,4.8,0,0,1,3.193.986,3.429,3.429,0,0,1,1.2,2.705v4.678a4.79,4.79,0,0,0,.449,2.227V19Zm-2.061-2.148a1.836,1.836,0,0,0,1.021-.264,1.653,1.653,0,0,0,.581-.6V14.3h-.957q-1.719,0-1.719,1.543a.942.942,0,0,0,.3.728A1.1,1.1,0,0,0,17.725,16.852ZM28.281,5.807V8.434H30.02v2.285H28.281v4.834a1.234,1.234,0,0,0,.215.83,1.152,1.152,0,0,0,.85.234,4.828,4.828,0,0,0,.82-.059v2.354a6.074,6.074,0,0,1-1.855.283,3.448,3.448,0,0,1-2.51-.8,3.282,3.282,0,0,1-.811-2.432V10.719H23.643V8.434H24.99V5.807Zm9.424,5.605-1.084-.078a1.947,1.947,0,0,0-1.992.977V19H31.338V8.434h3.086l.107,1.357a2.548,2.548,0,0,1,2.314-1.553,3.209,3.209,0,0,1,.918.117Zm.42,2.207A6.236,6.236,0,0,1,38.74,10.8a4.4,4.4,0,0,1,1.768-1.9,5.323,5.323,0,0,1,2.705-.664,4.858,4.858,0,0,1,3.74,1.47,5.64,5.64,0,0,1,1.367,4v.117a5.472,5.472,0,0,1-1.372,3.921,4.871,4.871,0,0,1-3.716,1.45,4.927,4.927,0,0,1-3.623-1.353,5.29,5.29,0,0,1-1.475-3.667Zm3.291.205a3.932,3.932,0,0,0,.459,2.148,1.529,1.529,0,0,0,1.357.684q1.758,0,1.8-2.705v-.332q0-2.842-1.816-2.842-1.65,0-1.787,2.451ZM43.662,4h3.477L44.424,7.066l-2.686,0Zm9.131,4.434.107,1.24a3.583,3.583,0,0,1,3.018-1.436,3.015,3.015,0,0,1,2.466.986,4.7,4.7,0,0,1,.845,2.969V19h-3.3V12.33a1.783,1.783,0,0,0-.322-1.177,1.491,1.491,0,0,0-1.172-.376A1.569,1.569,0,0,0,53,11.539V19H49.707V8.434Zm12.822,5.205A6.455,6.455,0,0,1,66.7,9.684a3.568,3.568,0,0,1,3.027-1.445,3.035,3.035,0,0,1,2.383,1.113V4h3.3V19H72.451l-.166-1.133A3.116,3.116,0,0,1,69.707,19.2a3.562,3.562,0,0,1-2.988-1.445A6.659,6.659,0,0,1,65.615,13.639Zm3.291.205q0,2.813,1.641,2.813a1.62,1.62,0,0,0,1.563-.918V11.715a1.576,1.576,0,0,0-1.543-.937q-1.523,0-1.65,2.461ZM82.393,19.2a5.432,5.432,0,0,1-3.936-1.45,5.008,5.008,0,0,1-1.5-3.774V13.7a6.489,6.489,0,0,1,.6-2.861,4.395,4.395,0,0,1,1.753-1.919,5.292,5.292,0,0,1,2.734-.679A4.574,4.574,0,0,1,85.557,9.62a5.43,5.43,0,0,1,1.289,3.853v1.279H80.3a2.372,2.372,0,0,0,.771,1.4,2.3,2.3,0,0,0,1.543.508,2.958,2.958,0,0,0,2.441-1.094l1.5,1.777a4.2,4.2,0,0,1-1.743,1.353A5.891,5.891,0,0,1,82.393,19.2Zm-.371-8.418q-1.445,0-1.719,1.914h3.32v-.254a1.63,1.63,0,0,0-.4-1.226A1.593,1.593,0,0,0,82.021,10.777Zm17.422,7.08A3.393,3.393,0,0,1,96.621,19.2a3.328,3.328,0,0,1-2.632-1.011,4.251,4.251,0,0,1-.894-2.905V8.434h3.291V15.3a1.183,1.183,0,0,0,1.318,1.357,1.72,1.72,0,0,0,1.611-.811V8.434h3.311V19H99.541Zm8.008-9.424.107,1.24a3.583,3.583,0,0,1,3.018-1.436,3.015,3.015,0,0,1,2.466.986,4.7,4.7,0,0,1,.845,2.969V19h-3.3V12.33a1.783,1.783,0,0,0-.322-1.177,1.491,1.491,0,0,0-1.172-.376,1.569,1.569,0,0,0-1.436.762V19h-3.291V8.434ZM130.5,13.795a6.372,6.372,0,0,1-1.108,3.931A3.554,3.554,0,0,1,126.4,19.2,3.046,3.046,0,0,1,124,18.131v4.932h-3.291V8.434h3.076l.1.977a3.046,3.046,0,0,1,2.49-1.172,3.582,3.582,0,0,1,3.037,1.44,6.45,6.45,0,0,1,1.084,3.96Zm-3.291-.205q0-2.812-1.641-2.812a1.549,1.549,0,0,0-1.562.84v4.16a1.6,1.6,0,0,0,1.582.879q1.572,0,1.621-2.715ZM137.9,19a3.716,3.716,0,0,1-.312-.947,3.06,3.06,0,0,1-2.539,1.143,3.749,3.749,0,0,1-2.539-.9,2.875,2.875,0,0,1-1.045-2.271,2.955,2.955,0,0,1,1.27-2.6,6.468,6.468,0,0,1,3.691-.879h1.016v-.559q0-1.462-1.26-1.462a1.03,1.03,0,0,0-1.172,1.158h-3.291a2.95,2.95,0,0,1,1.3-2.487,5.479,5.479,0,0,1,3.325-.956,4.8,4.8,0,0,1,3.193.986,3.429,3.429,0,0,1,1.2,2.705v4.678a4.79,4.79,0,0,0,.449,2.227V19Zm-2.061-2.148a1.836,1.836,0,0,0,1.021-.264,1.653,1.653,0,0,0,.581-.6V14.3h-.957q-1.719,0-1.719,1.543a.942.942,0,0,0,.3.728A1.1,1.1,0,0,0,135.84,16.852Zm9.746-8.418.107,1.24a3.583,3.583,0,0,1,3.018-1.436,3.015,3.015,0,0,1,2.466.986,4.7,4.7,0,0,1,.845,2.969V19h-3.3V12.33a1.783,1.783,0,0,0-.322-1.177,1.491,1.491,0,0,0-1.172-.376,1.569,1.569,0,0,0-1.436.762V19H142.5V8.434Zm12.09-2.627V8.434h1.738v2.285h-1.738v4.834a1.234,1.234,0,0,0,.215.83,1.152,1.152,0,0,0,.85.234,4.828,4.828,0,0,0,.82-.059v2.354a6.074,6.074,0,0,1-1.855.283,3.448,3.448,0,0,1-2.51-.8,3.282,3.282,0,0,1-.811-2.432V10.719h-1.348V8.434h1.348V5.807ZM166.66,19a3.716,3.716,0,0,1-.312-.947,3.06,3.06,0,0,1-2.539,1.143,3.749,3.749,0,0,1-2.539-.9,2.875,2.875,0,0,1-1.045-2.271,2.955,2.955,0,0,1,1.27-2.6,6.468,6.468,0,0,1,3.691-.879H166.2v-.559q0-1.462-1.26-1.462a1.03,1.03,0,0,0-1.172,1.158h-3.291a2.95,2.95,0,0,1,1.3-2.487,5.479,5.479,0,0,1,3.325-.956,4.8,4.8,0,0,1,3.193.986,3.429,3.429,0,0,1,1.2,2.705v4.678a4.79,4.79,0,0,0,.449,2.227V19ZM164.6,16.852a1.836,1.836,0,0,0,1.021-.264,1.653,1.653,0,0,0,.581-.6V14.3h-.957q-1.719,0-1.719,1.543a.942.942,0,0,0,.3.728A1.1,1.1,0,0,0,164.6,16.852ZM174.795,19h-3.3V4h3.3Zm1.611-5.381a6.236,6.236,0,0,1,.615-2.817,4.4,4.4,0,0,1,1.768-1.9,5.323,5.323,0,0,1,2.705-.664,4.858,4.858,0,0,1,3.74,1.47,5.64,5.64,0,0,1,1.367,4v.117a5.472,5.472,0,0,1-1.372,3.921,4.871,4.871,0,0,1-3.716,1.45,4.927,4.927,0,0,1-3.623-1.353,5.29,5.29,0,0,1-1.475-3.667Zm3.291.205a3.932,3.932,0,0,0,.459,2.148,1.529,1.529,0,0,0,1.357.684q1.758,0,1.8-2.705v-.332q0-2.842-1.816-2.842-1.65,0-1.787,2.451ZM181.943,4h3.477l-2.715,3.066-2.686,0Zm9.131,4.434.107,1.24A3.583,3.583,0,0,1,194.2,8.238a3.015,3.015,0,0,1,2.466.986,4.7,4.7,0,0,1,.845,2.969V19h-3.3V12.33a1.783,1.783,0,0,0-.322-1.177,1.491,1.491,0,0,0-1.172-.376,1.569,1.569,0,0,0-1.436.762V19h-3.291V8.434Z" transform="translate(388 1990)" fill="#12263f"/>
  </g>
</svg>
