<svg xmlns="http://www.w3.org/2000/svg" width="416" height="302.997" viewBox="0 0 416 302.997">
  <g id="Grupo_54836" data-name="Grupo 54836" transform="translate(-888 -2966.136)">
    <g id="Grupo_54715" data-name="Grupo 54715" transform="translate(477.875 -1280.686)">
      <g id="Grupo_53781" data-name="Grupo 53781" transform="translate(410.125 4246.822)" opacity="0.47">
        <path id="Trazado_100915" data-name="Trazado 100915" d="M649.2,4262.314c-52.812,19.89-110.51,57.814-152,61.274s-94.037,21.5-86.306,64.5,159.734,107.494,230.58,123.623,133.971-26.875,126.24-105.348-65.7-163.931-118.511-144.047Zm0,0" transform="translate(-410.125 -4236.775)" fill="#2675af" fill-rule="evenodd"/>
        <path id="Trazado_100916" data-name="Trazado 100916" d="M443.029,4292.852c-5.148,25.747,12.883,66.709,10.307,107.675s-54.1,73.146-7.731,104.164,146.21-16.971,263.431-22.825,115.293-172.046,72.782-188.433-90.173,18.144-132.678,20.486c-55.151,3.034-190.484-99.156-206.112-21.067Zm0,0" transform="translate(-397.183 -4233.589)" fill="#5cb0ed" fill-rule="evenodd"/>
        <path id="Trazado_100917" data-name="Trazado 100917" d="M451.754,4264.514c0,6.88-4.972,12.459-11.1,12.459s-11.1-5.579-11.1-12.459,4.972-12.458,11.1-12.458,11.1,5.577,11.1,12.458Zm0,0" transform="translate(-394.613 -4242.642)" fill="#85c4f2" fill-rule="evenodd"/>
        <path id="Trazado_100918" data-name="Trazado 100918" d="M596.6,4403.676a12.623,12.623,0,1,1-12.611-13.143,12.887,12.887,0,0,1,12.611,13.143Zm0,0" transform="translate(-281.325 -4132.027)" fill="#85c4f2" fill-rule="evenodd"/>
        <path id="Trazado_100919" data-name="Trazado 100919" d="M608.137,4404.484a6.209,6.209,0,1,1-6.2-5.934,6.073,6.073,0,0,1,6.2,5.934Zm0,0" transform="translate(-261.867 -4125.623)" fill="#85c4f2" fill-rule="evenodd"/>
        <path id="Trazado_100920" data-name="Trazado 100920" d="M526.672,4397.155s-18.144,2.9-24.5,13.274,2.326,14.961,5.429,8.446,5.118-14,19.076-21.721Zm0,0" transform="translate(-338.418 -4126.739)" fill="#85c4f2" fill-rule="evenodd"/>
        <path id="Trazado_100921" data-name="Trazado 100921" d="M525.671,4398.607s-9.843,13.178-10.841,23.265,5.272,7.264,5.38,1.5-.671-11.416,5.461-24.762Zm0,0" transform="translate(-326.576 -4125.579)" fill="#85c4f2" fill-rule="evenodd"/>
        <path id="Trazado_100922" data-name="Trazado 100922" d="M600.857,4299.219s21.683-26.689,19.821-43.055-18.272-8.068-15.9,1,7.2,17.4-3.925,42.05Zm0,0" transform="translate(-257.773 -4246.822)" fill="#85c4f2" fill-rule="evenodd"/>
        <path id="Trazado_100923" data-name="Trazado 100923" d="M602.749,4293.282s.025-20.2-7.683-27.964-12.633,1.466-7.675,5.36,10.85,6.664,15.358,22.6Zm0,0" transform="translate(-270.123 -4234.457)" fill="#85c4f2" fill-rule="evenodd"/>
        <path id="Trazado_100924" data-name="Trazado 100924" d="M609.28,4429.628a1.626,1.626,0,0,1-1.97-.8,1.291,1.291,0,0,1,.932-1.694c15.543-4.795,29.338-17.943,39.514-33.724,11.555-17.929,18.394-39.2,17.817-55.519a1.436,1.436,0,0,1,1.5-1.36,1.461,1.461,0,0,1,1.583,1.288c.588,16.769-6.393,38.555-18.2,56.876-10.5,16.292-24.857,29.9-41.171,34.932Zm0,0" transform="translate(-252.689 -4175.162)" fill="#85c4f2"/>
        <path id="Trazado_100925" data-name="Trazado 100925" d="M499.454,4295.261a1.712,1.712,0,0,1-2.146-.329,1.211,1.211,0,0,1,.383-1.84c31.694-19.088,55.379-31.191,73.872-37.54,18.8-6.455,32.348-7,43.516-2.888a1.263,1.263,0,0,1,.813,1.737,1.645,1.645,0,0,1-2.024.7c-10.4-3.831-23.21-3.26-41.169,2.9-18.263,6.271-41.748,18.282-73.247,37.251Zm0,0" transform="translate(-340.705 -4244.25)" fill="#85c4f2"/>
        <path id="Trazado_100926" data-name="Trazado 100926" d="M437.663,4426.345a1.249,1.249,0,0,1,.714,1.773,1.668,1.668,0,0,1-2.067.613q-.9-.378-1.779-.808l-.094-.05c-11.158-5.518-16.16-15.878-16.561-28.007-.392-11.937,3.693-25.627,10.748-38.021q1.624-2.854,3.414-5.563a1.678,1.678,0,0,1,2.1-.495,1.23,1.23,0,0,1,.583,1.8q-1.778,2.681-3.335,5.417c-6.844,12.029-10.807,25.275-10.429,36.781.367,11.246,4.914,20.8,15.034,25.794l.074.033c.509.253,1.043.493,1.6.729Zm0,0" transform="translate(-403.955 -4159.922)" fill="#85c4f2"/>
      </g>
      <g id="Grupo_54720" data-name="Grupo 54720" transform="translate(-410.24 2387.172)">
        <g id="Grupo_54716" data-name="Grupo 54716" transform="translate(1003.531 1916.086)">
          <path id="Trazado_105383" data-name="Trazado 105383" d="M1036.037,1931.876s-4.158,6.908-4.158,13.7,4.158,181.9,4.158,181.9h20.506s11.634-164.208,13.82-164.208l3.85.024v-31.42Z" transform="translate(-1031.812 -1919.508)" fill="#515067"/>
          <path id="Trazado_105384" data-name="Trazado 105384" d="M1117.667,1931.22s4.708,7.573,4.708,14.357-4.159,181.91-4.159,181.91h-20.495s-11.641-164.2-13.831-164.2l-3.846.017v-31.42Z" transform="translate(-1042.248 -1919.365)" fill="#515067"/>
          <path id="Trazado_105385" data-name="Trazado 105385" d="M1072.778,1916.086h-35.591v12.368h71.193v-12.368Z" transform="translate(-1032.962 -1916.086)" fill="#414042"/>
          <rect id="Rectángulo_5543" data-name="Rectángulo 5543" width="71.193" height="9.49" transform="translate(4.225 1.902)" fill="#754c29"/>
          <path id="Trazado_105386" data-name="Trazado 105386" d="M1084.477,1963.315h-3.861v-1.98h3.861a.956.956,0,0,0,.957-.949v-29.48h1.968v29.48A2.932,2.932,0,0,1,1084.477,1963.315Z" transform="translate(-1042.372 -1919.297)" fill="#414042"/>
          <path id="Trazado_105387" data-name="Trazado 105387" d="M1045.6,1917.484s-4.436,3.388-4.436,4.68,4.436,4.7,4.436,4.7h63.639v-9.375Z" transform="translate(-1033.824 -1916.389)" fill="#8b5e3c"/>
          <rect id="Rectángulo_5544" data-name="Rectángulo 5544" width="5.818" height="12.368" transform="translate(16.139)" fill="#676668"/>
          <rect id="Rectángulo_5545" data-name="Rectángulo 5545" width="5.822" height="12.368" transform="translate(57.671)" fill="#676668"/>
          <path id="Trazado_105388" data-name="Trazado 105388" d="M1089.316,1928.083H1079.2a2.927,2.927,0,0,1-2.929-2.926v-5.49a2.931,2.931,0,0,1,2.929-2.925h10.113a2.923,2.923,0,0,1,2.916,2.925v5.49A2.92,2.92,0,0,1,1089.316,1928.083Zm-10.113-9.369a.942.942,0,0,0-.945.953v5.49a.943.943,0,0,0,.945.956h10.113a.952.952,0,0,0,.948-.956v-5.49a.952.952,0,0,0-.948-.953Z" transform="translate(-1041.432 -1916.228)" fill="#754c29"/>
          <path id="Trazado_105389" data-name="Trazado 105389" d="M1031.911,1960.974h-.118l.118-1.976c.013,0,4.116-.106,6.189-10.443,1.287-6.5-.161-12.043-1.939-17.057l1.866-.647c1.861,5.277,3.4,11.122,2.008,18.094C1037.742,1960.391,1032.869,1960.974,1031.911,1960.974Z" transform="translate(-1031.793 -1919.286)" fill="#414042"/>
          <path id="Trazado_105390" data-name="Trazado 105390" d="M1130.927,1960.974c-.973,0-5.835-.583-8.124-12.029-1.394-6.968.143-12.813,2.008-18.094l1.851.647c-1.76,5.025-3.231,10.562-1.934,17.057,2.076,10.333,6.17,10.443,6.217,10.443h0l.092,1.976Z" transform="translate(-1051.397 -1919.286)" fill="#414042"/>
        </g>
        <g id="Grupo_54718" data-name="Grupo 54718" transform="translate(1054.332 1925.642)">
          <path id="Trazado_105391" data-name="Trazado 105391" d="M1112.78,2069.062c8.641-39.417,16.992-75.128,16.992-75.128l-33.125,9.723s1.216,13.236,4.788,61.983Z" transform="translate(-1096.647 -1942.511)" fill="#313032"/>
          <path id="Trazado_105392" data-name="Trazado 105392" d="M1206.727,1979.49c1.958-6.5-.363-15.1-.363-15.1l-27.79-10.731.09-.219-1.552-.349-6.849-2.645-.286,1.045-31.921-7.166s-5.976,5.414-7.937,11.917c-1.044,3.463-14.771,53.08-27.36,98.651l27.067,8.162c14.834-38.254,30.227-77.207,31.9-78.622l3.042.9c1.071.323-7.83,42.2-16.813,83.187l27.074,8.165C1189.725,2031.79,1205.684,1982.948,1206.727,1979.49Z" transform="translate(-1097.971 -1931.761)" fill="#414042"/>
          <g id="Grupo_54717" data-name="Grupo 54717" transform="translate(27.333)">
            <path id="Trazado_105393" data-name="Trazado 105393" d="M1185.689,1938.562l-34.075-10.276-3.768,12.493,34.075,10.276,34.086,10.279,3.768-12.493Z" transform="translate(-1135.074 -1928.286)" fill="#313032"/>
            <rect id="Rectángulo_5546" data-name="Rectángulo 5546" width="9.49" height="71.193" transform="translate(13.033 11.626) rotate(-73.218)" fill="#754c29"/>
            <path id="Trazado_105394" data-name="Trazado 105394" d="M1181.43,1988.459l-3.694-1.114.572-1.9,3.694,1.114a.956.956,0,0,0,1.191-.634l8.511-28.224,1.884.568-8.511,28.224A2.932,2.932,0,0,1,1181.43,1988.459Z" transform="translate(-1141.551 -1934.661)" fill="#313032"/>
            <path id="Trazado_105395" data-name="Trazado 105395" d="M1159.651,1933.327s-5.226,1.963-5.6,3.2,2.892,5.776,2.892,5.776l60.928,18.374,2.707-8.976Z" transform="translate(-1136.412 -1929.378)" fill="#8b5e3c"/>
            <rect id="Rectángulo_5547" data-name="Rectángulo 5547" width="14.376" height="5.818" transform="translate(23.795 17.203) rotate(-73.218)" fill="#414042"/>
            <rect id="Rectángulo_5548" data-name="Rectángulo 5548" width="14.376" height="5.82" transform="translate(63.56 29.195) rotate(-73.218)" fill="#414042"/>
            <path id="Trazado_105396" data-name="Trazado 105396" d="M1198.117,1955.94l-9.682-2.919a2.928,2.928,0,0,1-1.959-3.646l1.585-5.258a2.931,2.931,0,0,1,3.649-1.954l9.682,2.92a2.92,2.92,0,0,1,1.948,3.641l-1.585,5.258A2.92,2.92,0,0,1,1198.117,1955.94Zm-6.975-11.891a.944.944,0,0,0-1.181.641l-1.585,5.257a.943.943,0,0,0,.629,1.185l9.682,2.919a.951.951,0,0,0,1.185-.638l1.585-5.257a.953.953,0,0,0-.635-1.189Z" transform="translate(-1143.418 -1931.266)" fill="#917054"/>
            <path id="Trazado_105397" data-name="Trazado 105397" d="M1131.541,1973.379l1.692-6.088c.012,0,3.205,3.06,8.173-6.239,3.111-5.852,3.323-11.577,3.068-16.892l1.972-.08c.259,5.59.047,11.63-3.3,17.9C1137.645,1972.28,1131.572,1973.388,1131.541,1973.379Z" transform="translate(-1131.541 -1931.708)" fill="#313032"/>
            <path id="Trazado_105398" data-name="Trazado 105398" d="M1227.815,1999.447c-.931-.281-5.419-2.241-4.305-13.861.678-7.072,3.835-12.225,7.146-16.743l1.589,1.153c-3.138,4.3-6.145,9.179-6.779,15.774-.994,10.493,4.486,7.906,4.531,7.919l-2.077,5.789Z" transform="translate(-1151.431 -1937.074)" fill="#313032"/>
          </g>
        </g>
        <g id="Grupo_54719" data-name="Grupo 54719" transform="translate(901.365 1922.449)">
          <path id="Trazado_105399" data-name="Trazado 105399" d="M908.619,1979.592s-1.439,9.666,1.72,17.274l39.8,95.868,34.478-14.313s-25.382-78.614-22.944-79.626l4.327-1.767-17.5-33.992Z" transform="translate(-902.866 -1932.622)" fill="#3f57ae"/>
          <path id="Trazado_105400" data-name="Trazado 105400" d="M999.5,1941.9s7.869,5.8,11.027,13.41l39.8,95.868-34.49,14.318s-37.745-73.482-40.192-72.466l-4.3,1.814-11.728-36.388Z" transform="translate(-913.988 -1928.042)" fill="#3f57ae"/>
          <path id="Trazado_105401" data-name="Trazado 105401" d="M941.246,1940.765l-39.881,16.556,5.753,13.857L947,1954.623l39.881-16.556-5.753-13.858Z" transform="translate(-901.365 -1924.209)" fill="#2f4183"/>
          <rect id="Rectángulo_5549" data-name="Rectángulo 5549" width="86.363" height="11.51" transform="matrix(0.924, -0.383, 0.383, 0.924, 0.886, 35.247)"/>
          <rect id="Rectángulo_5550" data-name="Rectángulo 5550" width="37.756" height="1.923" transform="matrix(0.924, -0.383, 0.383, 0.924, 44.51, 153.459)" fill="#2f4183"/>
          <rect id="Rectángulo_5551" data-name="Rectángulo 5551" width="37.773" height="1.923" transform="matrix(0.924, -0.383, 0.383, 0.924, 98.693, 130.965)" fill="#2f4183"/>
          <path id="Trazado_105402" data-name="Trazado 105402" d="M977.8,1996.52l-4.87,2.022-.375-2.444,4.325-1.8a1.156,1.156,0,0,0,.633-1.508L963.8,1959.766l2.211-.918,13.712,33.028A3.562,3.562,0,0,1,977.8,1996.52Z" transform="translate(-914.894 -1931.714)" fill="#2f4183"/>
          <path id="Trazado_105403" data-name="Trazado 105403" d="M912.031,1955.367s-3.4,5.865-2.8,7.316,7.155,3.184,7.155,3.184l71.293-29.6-4.358-10.5Z" transform="translate(-903.055 -1924.547)" fill="#616364"/>
          <rect id="Rectángulo_5552" data-name="Rectángulo 5552" width="7.056" height="15.004" transform="matrix(0.924, -0.383, 0.383, 0.924, 13.35, 27.571)" fill="#3f57ae"/>
          <rect id="Rectángulo_5553" data-name="Rectángulo 5553" width="7.064" height="15.004" transform="matrix(0.924, -0.383, 0.383, 0.924, 59.877, 8.255)" fill="#3f57ae"/>
          <path id="Trazado_105404" data-name="Trazado 105404" d="M965.651,1953.926l-11.327,4.7a3.559,3.559,0,0,1-4.647-1.915l-2.555-6.154a3.559,3.559,0,0,1,1.924-4.643l11.327-4.7a3.541,3.541,0,0,1,4.624,1.925l2.554,6.154A3.54,3.54,0,0,1,965.651,1953.926Zm-15.687-5.8a1.157,1.157,0,0,0-.618,1.512l2.554,6.154a1.155,1.155,0,0,0,1.505.625l11.327-4.7a1.149,1.149,0,0,0,.608-1.5l-2.554-6.154a1.151,1.151,0,0,0-1.5-.634Z" transform="translate(-911.221 -1927.835)"/>
          <path id="Trazado_105405" data-name="Trazado 105405" d="M917.772,2018.415l-.133.055-.782-2.261c.016-.006,4.565-2.044,2.08-14.584-1.586-7.873-5.8-13.408-10.117-18.193l1.791-1.6c4.542,5.039,8.982,10.874,10.665,19.334C924.034,2015.054,918.839,2017.972,917.772,2018.415Z" transform="translate(-902.98 -1936.695)" fill="#2f4183"/>
          <path id="Trazado_105406" data-name="Trazado 105406" d="M1028.041,1972.807c-1.086.45-6.793,2.06-14.684-9.7-4.8-7.158-5.8-14.424-6.16-21.2l2.373-.13c.366,6.439,1.286,13.328,5.766,20,7.124,10.6,11.759,8.839,11.822,8.813h0l1.017,2.163Z" transform="translate(-924.297 -1928.015)" fill="#2f4183"/>
        </g>
      </g>
    </g>
  </g>
</svg>
