<svg xmlns="http://www.w3.org/2000/svg" width="574.322" height="384.392" viewBox="0 0 574.322 384.392">
  <g id="Grupo_54817" data-name="Grupo 54817" transform="translate(-800 -3514.62)">
    <path id="Trazado_105624" data-name="Trazado 105624" d="M-146.738-6.035h-5.391v3.4h6.367V0h-9.795V-14.219h9.814v2.646h-6.387v3h5.391Zm5.762-4.531V.361a3.836,3.836,0,0,1-1.074,2.891,4.127,4.127,0,0,1-2.969,1.016,7.009,7.009,0,0,1-1.553-.166V1.611a6.3,6.3,0,0,0,.928.088A1.2,1.2,0,0,0-144.277.342V-10.566Zm-3.545-2.734a1.482,1.482,0,0,1,.508-1.159,1.909,1.909,0,0,1,1.318-.452,1.909,1.909,0,0,1,1.318.452,1.482,1.482,0,0,1,.508,1.159,1.482,1.482,0,0,1-.508,1.159,1.909,1.909,0,0,1-1.318.452,1.909,1.909,0,0,1-1.318-.452A1.482,1.482,0,0,1-144.521-13.3ZM-134,.2a5.432,5.432,0,0,1-3.936-1.45,5.008,5.008,0,0,1-1.5-3.774V-5.3a6.489,6.489,0,0,1,.6-2.861,4.395,4.395,0,0,1,1.753-1.919,5.292,5.292,0,0,1,2.734-.679A4.574,4.574,0,0,1-130.84-9.38a5.43,5.43,0,0,1,1.289,3.853v1.279h-6.543a2.372,2.372,0,0,0,.771,1.4,2.3,2.3,0,0,0,1.543.508,2.958,2.958,0,0,0,2.441-1.094l1.5,1.777a4.2,4.2,0,0,1-1.743,1.353A5.891,5.891,0,0,1-134,.2Zm-.371-8.418q-1.445,0-1.719,1.914h3.32v-.254a1.63,1.63,0,0,0-.4-1.226A1.593,1.593,0,0,0-134.375-8.223Zm9.258-2.344.107,1.24a3.633,3.633,0,0,1,3.018-1.436,2.675,2.675,0,0,1,2.705,1.592,3.517,3.517,0,0,1,3.105-1.592q3.213,0,3.3,3.887V0h-3.3V-6.67a2.014,2.014,0,0,0-.273-1.182,1.164,1.164,0,0,0-1-.371,1.559,1.559,0,0,0-1.455.869l.01.137V0h-3.3V-6.65a2.117,2.117,0,0,0-.264-1.2,1.161,1.161,0,0,0-1.006-.371,1.578,1.578,0,0,0-1.445.869V0H-128.2V-10.566Zm23.926,5.361A6.372,6.372,0,0,1-102.3-1.274,3.554,3.554,0,0,1-105.293.2a3.046,3.046,0,0,1-2.393-1.064V4.063h-3.291V-10.566h3.076l.1.977a3.046,3.046,0,0,1,2.49-1.172,3.582,3.582,0,0,1,3.037,1.44,6.45,6.45,0,0,1,1.084,3.96Zm-3.291-.205q0-2.812-1.641-2.812a1.549,1.549,0,0,0-1.562.84v4.16a1.6,1.6,0,0,0,1.582.879q1.572,0,1.621-2.715ZM-96.27,0h-3.3V-15h3.3Zm1.611-5.381A6.236,6.236,0,0,1-94.043-8.2a4.4,4.4,0,0,1,1.768-1.9,5.323,5.323,0,0,1,2.705-.664,4.858,4.858,0,0,1,3.74,1.47,5.64,5.64,0,0,1,1.367,4v.117a5.472,5.472,0,0,1-1.372,3.921A4.871,4.871,0,0,1-89.551.2a4.927,4.927,0,0,1-3.623-1.353,5.29,5.29,0,0,1-1.475-3.667Zm3.291.205a3.932,3.932,0,0,0,.459,2.148,1.529,1.529,0,0,0,1.357.684q1.758,0,1.8-2.705v-.332q0-2.842-1.816-2.842-1.65,0-1.787,2.451Zm12.92-.186a6.455,6.455,0,0,1,1.084-3.955,3.568,3.568,0,0,1,3.027-1.445,3.035,3.035,0,0,1,2.383,1.113V-15h3.3V0h-2.959l-.166-1.133A3.116,3.116,0,0,1-74.355.2,3.562,3.562,0,0,1-77.344-1.25,6.659,6.659,0,0,1-78.447-5.361Zm3.291.205q0,2.813,1.641,2.813a1.62,1.62,0,0,0,1.563-.918V-7.285A1.576,1.576,0,0,0-73.5-8.223q-1.523,0-1.65,2.461ZM-61.67.2a5.432,5.432,0,0,1-3.936-1.45,5.008,5.008,0,0,1-1.5-3.774V-5.3a6.489,6.489,0,0,1,.6-2.861,4.395,4.395,0,0,1,1.753-1.919,5.292,5.292,0,0,1,2.734-.679A4.574,4.574,0,0,1-58.506-9.38a5.43,5.43,0,0,1,1.289,3.853v1.279H-63.76a2.372,2.372,0,0,0,.771,1.4,2.3,2.3,0,0,0,1.543.508A2.958,2.958,0,0,0-59-3.437l1.5,1.777A4.2,4.2,0,0,1-59.243-.308,5.891,5.891,0,0,1-61.67.2Zm-.371-8.418q-1.445,0-1.719,1.914h3.32v-.254a1.63,1.63,0,0,0-.4-1.226A1.593,1.593,0,0,0-62.041-8.223ZM-52.422,0h-3.3V-15h3.3Zm6.592-5.361a6.455,6.455,0,0,1,1.084-3.955,3.568,3.568,0,0,1,3.027-1.445,3.035,3.035,0,0,1,2.383,1.113V-15h3.3V0h-2.959l-.166-1.133A3.116,3.116,0,0,1-41.738.2,3.562,3.562,0,0,1-44.727-1.25,6.659,6.659,0,0,1-45.83-5.361Zm3.291.205q0,2.813,1.641,2.813a1.62,1.62,0,0,0,1.563-.918V-7.285a1.576,1.576,0,0,0-1.543-.937q-1.523,0-1.65,2.461ZM-29.053.2a5.432,5.432,0,0,1-3.936-1.45,5.008,5.008,0,0,1-1.5-3.774V-5.3a6.489,6.489,0,0,1,.6-2.861,4.395,4.395,0,0,1,1.753-1.919,5.292,5.292,0,0,1,2.734-.679A4.574,4.574,0,0,1-25.889-9.38,5.43,5.43,0,0,1-24.6-5.527v1.279h-6.543a2.372,2.372,0,0,0,.771,1.4,2.3,2.3,0,0,0,1.543.508,2.958,2.958,0,0,0,2.441-1.094l1.5,1.777A4.2,4.2,0,0,1-26.626-.308,5.891,5.891,0,0,1-29.053.2Zm-.371-8.418q-1.445,0-1.719,1.914h3.32v-.254a1.63,1.63,0,0,0-.4-1.226A1.593,1.593,0,0,0-29.424-8.223Zm11.68,5.254a.76.76,0,0,0-.439-.674,6.685,6.685,0,0,0-1.67-.527,7.615,7.615,0,0,1-2.031-.718,3.4,3.4,0,0,1-1.221-1.079,2.577,2.577,0,0,1-.42-1.455,2.92,2.92,0,0,1,1.2-2.4,4.948,4.948,0,0,1,3.145-.942,5.482,5.482,0,0,1,3.359.947,2.962,2.962,0,0,1,1.27,2.49h-3.3q0-1.27-1.338-1.27a1.326,1.326,0,0,0-.869.288.892.892,0,0,0-.352.718.819.819,0,0,0,.43.713,4.06,4.06,0,0,0,1.372.449,11.857,11.857,0,0,1,1.655.42A3.007,3.007,0,0,1-14.57-3.066,2.767,2.767,0,0,1-15.854-.713,5.631,5.631,0,0,1-19.18.2,5.747,5.747,0,0,1-21.6-.293a4.05,4.05,0,0,1-1.66-1.328,3.007,3.007,0,0,1-.6-1.768h3.076a1.272,1.272,0,0,0,.488,1.069,2.009,2.009,0,0,0,1.2.337,1.58,1.58,0,0,0,1.011-.273A.875.875,0,0,0-17.744-2.969ZM-7.08,0a3.716,3.716,0,0,1-.312-.947A3.06,3.06,0,0,1-9.932.2a3.749,3.749,0,0,1-2.539-.9,2.875,2.875,0,0,1-1.045-2.271,2.955,2.955,0,0,1,1.27-2.6,6.468,6.468,0,0,1,3.691-.879h1.016v-.559q0-1.462-1.26-1.462A1.03,1.03,0,0,0-9.971-7.319h-3.291a2.95,2.95,0,0,1,1.3-2.487,5.479,5.479,0,0,1,3.325-.956,4.8,4.8,0,0,1,3.193.986,3.429,3.429,0,0,1,1.2,2.705v4.678A4.79,4.79,0,0,0-3.789-.166V0ZM-9.141-2.148A1.836,1.836,0,0,0-8.12-2.412a1.653,1.653,0,0,0,.581-.6V-4.7H-8.5q-1.719,0-1.719,1.543a.942.942,0,0,0,.3.728A1.1,1.1,0,0,0-9.141-2.148ZM3.975-7.588,2.891-7.666A1.947,1.947,0,0,0,.9-6.689V0H-2.393V-10.566H.693L.8-9.209a2.548,2.548,0,0,1,2.314-1.553,3.209,3.209,0,0,1,.918.117Zm7.578,0-1.084-.078a1.947,1.947,0,0,0-1.992.977V0H5.186V-10.566H8.271l.107,1.357a2.548,2.548,0,0,1,2.314-1.553,3.209,3.209,0,0,1,.918.117Zm.42,2.207A6.236,6.236,0,0,1,12.588-8.2a4.4,4.4,0,0,1,1.768-1.9,5.323,5.323,0,0,1,2.705-.664,4.858,4.858,0,0,1,3.74,1.47,5.64,5.64,0,0,1,1.367,4v.117A5.472,5.472,0,0,1,20.8-1.255,4.871,4.871,0,0,1,17.08.2a4.927,4.927,0,0,1-3.623-1.353,5.29,5.29,0,0,1-1.475-3.667Zm3.291.205a3.932,3.932,0,0,0,.459,2.148,1.529,1.529,0,0,0,1.357.684q1.758,0,1.8-2.705v-.332q0-2.842-1.816-2.842-1.65,0-1.787,2.451ZM27.09,0h-3.3V-15h3.3Zm5.5,0h-3.3V-15h3.3ZM34.2-5.381A6.236,6.236,0,0,1,34.814-8.2a4.4,4.4,0,0,1,1.768-1.9,5.323,5.323,0,0,1,2.705-.664,4.858,4.858,0,0,1,3.74,1.47,5.64,5.64,0,0,1,1.367,4v.117a5.472,5.472,0,0,1-1.372,3.921A4.871,4.871,0,0,1,39.307.2a4.927,4.927,0,0,1-3.623-1.353,5.29,5.29,0,0,1-1.475-3.667Zm3.291.205a3.932,3.932,0,0,0,.459,2.148,1.529,1.529,0,0,0,1.357.684q1.758,0,1.8-2.705v-.332q0-2.842-1.816-2.842-1.65,0-1.787,2.451Zm12.92-.186a6.455,6.455,0,0,1,1.084-3.955,3.568,3.568,0,0,1,3.027-1.445A3.035,3.035,0,0,1,56.9-9.648V-15h3.3V0H57.246L57.08-1.133A3.116,3.116,0,0,1,54.5.2,3.562,3.562,0,0,1,51.514-1.25,6.659,6.659,0,0,1,50.41-5.361Zm3.291.205q0,2.813,1.641,2.813A1.62,1.62,0,0,0,56.9-3.262V-7.285a1.576,1.576,0,0,0-1.543-.937q-1.523,0-1.65,2.461ZM67.188.2a5.432,5.432,0,0,1-3.936-1.45,5.008,5.008,0,0,1-1.5-3.774V-5.3a6.489,6.489,0,0,1,.6-2.861A4.395,4.395,0,0,1,64.1-10.083a5.292,5.292,0,0,1,2.734-.679A4.574,4.574,0,0,1,70.352-9.38a5.43,5.43,0,0,1,1.289,3.853v1.279H65.1a2.372,2.372,0,0,0,.771,1.4,2.3,2.3,0,0,0,1.543.508,2.958,2.958,0,0,0,2.441-1.094l1.5,1.777A4.2,4.2,0,0,1,69.614-.308,5.891,5.891,0,0,1,67.188.2Zm-.371-8.418q-1.445,0-1.719,1.914h3.32v-.254a1.63,1.63,0,0,0-.4-1.226A1.593,1.593,0,0,0,66.816-8.223ZM87.754-5.205a6.372,6.372,0,0,1-1.108,3.931A3.554,3.554,0,0,1,83.652.2,3.046,3.046,0,0,1,81.26-.869V4.063H77.969V-10.566h3.076l.1.977a3.046,3.046,0,0,1,2.49-1.172,3.582,3.582,0,0,1,3.037,1.44,6.45,6.45,0,0,1,1.084,3.96ZM84.463-5.41q0-2.812-1.641-2.812a1.549,1.549,0,0,0-1.562.84v4.16a1.6,1.6,0,0,0,1.582.879q1.572,0,1.621-2.715ZM95.156,0a3.716,3.716,0,0,1-.312-.947A3.06,3.06,0,0,1,92.3.2a3.749,3.749,0,0,1-2.539-.9,2.875,2.875,0,0,1-1.045-2.271,2.955,2.955,0,0,1,1.27-2.6,6.468,6.468,0,0,1,3.691-.879H94.7v-.559q0-1.462-1.26-1.462a1.03,1.03,0,0,0-1.172,1.158H88.975a2.95,2.95,0,0,1,1.3-2.487,5.479,5.479,0,0,1,3.325-.956,4.8,4.8,0,0,1,3.193.986A3.429,3.429,0,0,1,98-7.07v4.678a4.79,4.79,0,0,0,.449,2.227V0ZM93.1-2.148a1.836,1.836,0,0,0,1.021-.264,1.653,1.653,0,0,0,.581-.6V-4.7H93.74q-1.719,0-1.719,1.543a.942.942,0,0,0,.3.728A1.1,1.1,0,0,0,93.1-2.148Zm10.557-11.045v2.627h1.738v2.285h-1.738v4.834a1.234,1.234,0,0,0,.215.83,1.152,1.152,0,0,0,.85.234,4.828,4.828,0,0,0,.82-.059V-.088A6.074,6.074,0,0,1,103.682.2a3.448,3.448,0,0,1-2.51-.8,3.282,3.282,0,0,1-.811-2.432V-8.281H99.014v-2.285h1.348v-2.627Zm9.424,5.605-1.084-.078A1.947,1.947,0,0,0,110-6.689V0h-3.291V-10.566h3.086l.107,1.357a2.548,2.548,0,0,1,2.314-1.553,3.209,3.209,0,0,1,.918.117Zm.42,2.207a6.236,6.236,0,0,1,.615-2.817,4.4,4.4,0,0,1,1.768-1.9,5.323,5.323,0,0,1,2.705-.664,4.858,4.858,0,0,1,3.74,1.47,5.64,5.64,0,0,1,1.367,4v.117a5.472,5.472,0,0,1-1.372,3.921A4.871,4.871,0,0,1,118.6.2a4.927,4.927,0,0,1-3.623-1.353,5.29,5.29,0,0,1-1.475-3.667Zm3.291.205a3.932,3.932,0,0,0,.459,2.148,1.529,1.529,0,0,0,1.357.684q1.758,0,1.8-2.705v-.332q0-2.842-1.816-2.842-1.65,0-1.787,2.451Zm11.377-5.391.107,1.24a3.583,3.583,0,0,1,3.018-1.436,3.015,3.015,0,0,1,2.466.986,4.7,4.7,0,0,1,.845,2.969V0h-3.3V-6.67a1.783,1.783,0,0,0-.322-1.177,1.491,1.491,0,0,0-1.172-.376,1.569,1.569,0,0,0-1.436.762V0h-3.291V-10.566ZM141.533.2a5.432,5.432,0,0,1-3.936-1.45,5.008,5.008,0,0,1-1.5-3.774V-5.3a6.489,6.489,0,0,1,.6-2.861,4.395,4.395,0,0,1,1.753-1.919,5.292,5.292,0,0,1,2.734-.679A4.574,4.574,0,0,1,144.7-9.38a5.43,5.43,0,0,1,1.289,3.853v1.279h-6.543a2.372,2.372,0,0,0,.771,1.4,2.3,2.3,0,0,0,1.543.508A2.958,2.958,0,0,0,144.2-3.437l1.5,1.777A4.2,4.2,0,0,1,143.96-.308,5.891,5.891,0,0,1,141.533.2Zm-.371-8.418q-1.445,0-1.719,1.914h3.32v-.254a1.63,1.63,0,0,0-.4-1.226A1.593,1.593,0,0,0,141.162-8.223Zm11.68,5.254a.76.76,0,0,0-.439-.674,6.685,6.685,0,0,0-1.67-.527,7.615,7.615,0,0,1-2.031-.718,3.4,3.4,0,0,1-1.221-1.079,2.577,2.577,0,0,1-.42-1.455,2.92,2.92,0,0,1,1.2-2.4,4.948,4.948,0,0,1,3.145-.942,5.482,5.482,0,0,1,3.359.947,2.962,2.962,0,0,1,1.27,2.49h-3.3q0-1.27-1.338-1.27a1.326,1.326,0,0,0-.869.288.892.892,0,0,0-.352.718.819.819,0,0,0,.43.713,4.06,4.06,0,0,0,1.372.449,11.857,11.857,0,0,1,1.655.42,3.007,3.007,0,0,1,2.383,2.939,2.767,2.767,0,0,1-1.284,2.354A5.632,5.632,0,0,1,151.406.2a5.747,5.747,0,0,1-2.422-.488,4.05,4.05,0,0,1-1.66-1.328,3.007,3.007,0,0,1-.6-1.768H149.8a1.272,1.272,0,0,0,.488,1.069,2.009,2.009,0,0,0,1.2.337,1.58,1.58,0,0,0,1.011-.273A.875.875,0,0,0,152.842-2.969Z" transform="translate(1115 3894.744)" fill="#12263f"/>
    <g id="Grupo_53460" data-name="Grupo 53460" transform="translate(237.948 2102.217)">
      <path id="Trazado_100192" data-name="Trazado 100192" d="M708.013,1732.935H644.9c-.163,0-16.466-.11-28.475-9.635l-1.891-1.506c-11.492-9.172-25.788-20.6-47.5-19.033l-.763.055.136-.754c.16-.884,15.791-89.132-4.038-143.458l-.31-.849.9.052c.1.01,11.583.565,18.328-8.684,7.742-10.616,6.52-29.3-3.625-55.537l-.217-.559L635.2,1471.36l.153.66c.036.154,3.863,15.448,27.316,17.615,2.608.242,10.884.16,14.422.124l1.445-.013.24,0a128.449,128.449,0,0,0,12.987-.273c22.111-2.659,25.77-17.307,25.8-17.455l.153-.659.635.237,57.117,21.428-.217.559c-10.15,26.247-11.366,44.937-3.614,55.55,6.757,9.252,18.211,8.679,18.318,8.672l.9-.053-.31.851c-19.828,54.325-4.2,142.573-4.036,143.458l.136.753-.763-.054c-21.7-1.538-36.015,9.863-47.5,19.033l-1.891,1.506C724.481,1732.825,708.178,1732.935,708.013,1732.935Zm-137-31.506c19.908,0,33.336,10.717,44.259,19.436l1.89,1.5c11.688,9.27,27.576,9.378,27.736,9.378h63.118c.16,0,16.059-.116,27.737-9.378l1.889-1.5c11.52-9.194,25.84-20.6,47.573-19.338-1.474-8.695-14.606-90.532,3.931-142.527-2.926-.065-12.455-.932-18.466-9.162-7.95-10.884-6.855-29.765,3.25-56.12l-55.4-20.785c-1,2.974-6.352,15.284-26.625,17.723-2.883.347-9.473.326-13.143.282l-.226,0-1.434.011c-3.554.036-11.876.118-14.541-.128-21.546-1.991-27.141-14.84-28.169-17.886l-55.4,20.785c10.1,26.355,11.2,45.234,3.251,56.119-6.013,8.231-15.541,9.1-18.467,9.163,18.538,52,5.407,133.832,3.932,142.527Q569.382,1701.429,571.011,1701.429Z" transform="translate(0 2.805)" fill="aqua"/>
      <path id="Trazado_100193" data-name="Trazado 100193" d="M706.807,1731.611H645.764c-.157,0-15.935-.109-27.557-9.529l-1.83-1.49c-11.108-9.063-24.932-20.335-45.92-18.807l-.762.055.133-.752c.155-.875,15.273-88.108-3.905-141.807l-.3-.846.9.053c.108.006,10.99.552,17.529-8.335,7.683-10.443,6.563-29-3.33-55.142l-.207-.549,53.659-21.078.213.568c.056.151,5.84,15,28.566,17.15,2.519.239,10.528.157,13.944.122l1.4-.012.233,0a123.43,123.43,0,0,0,12.554-.271c21.424-2.634,26.666-16.5,26.716-16.643l.206-.57,54.058,20.728-.208.553c-9.9,26.158-11.013,44.716-3.319,55.156,6.547,8.884,17.4,8.328,17.518,8.321l.9-.056-.3.849c-19.179,53.7-4.06,140.933-3.905,141.807l.133.752-.762-.055c-20.99-1.528-34.813,9.746-45.922,18.808l-1.828,1.489C722.741,1731.5,706.966,1731.611,706.807,1731.611Zm-132.5-31.156c19.263,0,32.253,10.6,42.821,19.217l1.827,1.487c11.288,9.15,26.655,9.265,26.808,9.265h61.044c.153,0,15.519-.115,26.806-9.265l1.826-1.487c11.14-9.085,24.99-20.353,46-19.122-1.433-8.629-14.121-89.489,3.8-140.87-2.828-.067-11.859-.923-17.671-8.807-7.892-10.711-6.9-29.459,2.957-55.728l-51.857-19.885c-1.251,2.713-7.759,14.443-27.45,16.863-2.79.343-9.161.321-12.714.28l-.219,0-1.386.012c-3.438.036-11.489.116-14.068-.126-20.961-1.981-28-14.553-29.327-17.365l-51.475,20.219c9.858,26.271,10.853,45.021,2.959,55.732-5.811,7.884-14.842,8.74-17.671,8.807,17.922,51.382,5.233,132.241,3.8,140.87C572.2,1700.487,573.267,1700.455,574.309,1700.455Z" transform="translate(0.17 2.901)" fill="#1caed0"/>
      <path id="Trazado_100194" data-name="Trazado 100194" d="M704.979,1730.67h-58.1c-.15,0-15.185-.109-26.253-9.483-.95-.8-1.919-1.64-2.909-2.493-10.37-8.946-23.265-20.081-42.5-18.611l-.76.057.13-.752c.147-.852,14.526-85.815-3.726-139.2l-.288-.84.887.057c.11,0,10.076.523,16.31-7.8,7.584-10.133,6.607-29.257-2.828-55.3l-.195-.538,49.867-20.225.237.518c.065.142,6.747,14.226,28.394,16.362,2.395.237,10.016.155,13.264.12l1.332-.012.223,0a111.878,111.878,0,0,0,11.941-.268c20.425-2.622,27.2-15.728,27.263-15.86l.244-.489.509.2,49.095,19.647-.2.541c-9.435,26.046-10.414,45.17-2.828,55.3,6.233,8.325,16.206,7.809,16.31,7.8l.886-.057-.288.84c-18.253,53.389-3.855,138.352-3.708,139.2l.131.752-.761-.057c-19.235-1.476-32.154,9.673-42.535,18.625-.984.85-1.946,1.679-2.891,2.48C720.161,1730.561,705.128,1730.67,704.979,1730.67Zm-126.328-31.908c17.782,0,29.946,10.5,39.84,19.032.988.851,1.953,1.685,2.9,2.486,10.742,9.1,25.342,9.2,25.487,9.2h58.1c.145,0,14.756-.114,25.488-9.2.943-.8,1.9-1.625,2.884-2.472,10.409-8.978,23.345-20.121,42.646-18.961-1.379-8.5-13.432-87.222,3.609-138.247a21.147,21.147,0,0,1-16.454-8.275c-7.908-10.544-7.082-29.348,2.456-55.9L718.061,1477.4c-1.465,2.46-9.079,13.611-27.905,16.029-2.659.342-8.732.318-12.109.278l-.207,0-1.318.011c-3.275.036-10.938.116-13.4-.126-19.985-1.971-27.643-13.92-29.093-16.543l-47.78,19.378c9.538,26.548,10.364,45.354,2.456,55.9a21.142,21.142,0,0,1-16.453,8.275c17.039,51.025,5,129.746,3.626,138.247C576.817,1698.79,577.743,1698.762,578.651,1698.762Z" transform="translate(0.405 3.004)"/>
      <path id="Trazado_100195" data-name="Trazado 100195" d="M1004.772,1718.09c-2.371,0-20.472-.36-23.832-.429-28.58-.588-34.532-5.157-35.275-5.853-30.842-17.832-55.362-16.43-55.6-16.417l-.954.063.365-.883c19.543-47.227.166-143.077-.032-144.04l-.14-.681.694-.032a24.517,24.517,0,0,0,19.278-9.993c19.375-25.655,4.026-92.215,3.868-92.884l-.131-.565,59.472-15.588.158.564c4.021,14.411,14.892,21.548,32.31,21.214.25,0,.5,0,.755,0,13.75,0,30.767-3.755,35.642-21.217l.159-.568,58.488,15.912-.152.571c-.178.668-17.564,67.126,1.137,92.655,4.537,6.193,10.912,9.523,18.948,9.9l.695.032-.141.681c-.2.963-19.576,96.813-.032,144.04l.365.883-.954-.063c-.245-.017-24.762-1.417-55.6,16.417-.743.7-6.7,5.265-35.275,5.853-3.467.07-22.64.457-24.03.427Zm-113.256-23.916c5.886,0,28.016,1.133,54.807,16.644l.148.119c.04.041,5.055,4.931,34.493,5.535,3.461.071,22.59.471,23.984.428,1.455.023,20.545-.357,24.006-.428,29.438-.6,34.453-5.495,34.5-5.544l.139-.111c27.809-16.1,50.58-16.724,55.408-16.641-18.257-45.723-1.518-134.564.178-143.21a24.763,24.763,0,0,1-19.163-10.342c-18.318-25.009-3.288-86.068-1.476-93.091l-56.218-15.294c-5.673,18.972-25.84,21.616-37.372,21.514-17.844.341-28.989-6.9-33.3-21.52l-57.227,15c1.589,6.994,14.768,68.181-4.207,93.307a25.559,25.559,0,0,1-19.482,10.426c1.7,8.647,18.434,97.488.178,143.21C891.093,1694.175,891.294,1694.174,891.516,1694.174Z" transform="translate(15.561 0.875)" fill="aqua"/>
      <path id="Trazado_100196" data-name="Trazado 100196" d="M1004.622,1716.477c-2.284,0-19.667-.351-23.121-.422-27.708-.58-33.5-5.082-34.236-5.774-29.914-17.581-53.693-16.2-53.923-16.183l-.948.065.357-.881c18.959-46.566.161-141.065-.03-142.014l-.138-.679.691-.032a23.631,23.631,0,0,0,18.524-9.63c19.038-25.136,4.066-91.127,3.913-91.791l-.13-.56L973.31,1433.2l.156.568c3.9,14.2,14.441,21.247,31.326,20.907,13.469.142,30.478-3.383,35.292-20.907l.158-.574,56.772,15.7-.149.567c-.174.662-17.132,66.543,1.255,91.558a22.881,22.881,0,0,0,18.212,9.54l.691.032-.137.679c-.192.949-18.99,95.451-.031,142.014l.358.881-.949-.065c-.228-.016-24.012-1.4-53.923,16.183-.732.693-6.529,5.194-34.237,5.774-3.562.074-21.951.465-23.313.421Zm-109.87-23.6c5.712,0,27.189,1.12,53.181,16.415l.145.12c.039.041,4.9,4.854,33.448,5.452,5.547.116,22.094.431,23.266.422,1.236.018,17.74-.307,23.288-.422,28.543-.6,33.409-5.411,33.456-5.46l.137-.112c26.935-15.849,48.983-16.494,53.745-16.41-17.7-45.067-1.481-132.608.175-141.18a23.923,23.923,0,0,1-18.431-9.984c-18.012-24.508-3.359-85.027-1.591-92l-54.5-15.07c-5.51,18.7-25,21.36-36.269,21.207-17.215.367-28.132-6.8-32.317-21.212L917,1449.428c1.552,6.94,14.4,67.592-4.25,92.214a24.682,24.682,0,0,1-18.73,10.061c1.655,8.572,17.874,96.113.175,141.18C894.356,1692.882,894.543,1692.879,894.752,1692.879Z" transform="translate(15.717 0.989)" fill="#1caed0"/>
      <path id="Trazado_100197" data-name="Trazado 100197" d="M1004.794,1714.412h-.337c-2.266,0-19.7-.359-22.349-.416-26.768-.571-32.4-5-33.112-5.695-28.9-17.31-51.889-15.957-52.11-15.937l-.944.065.349-.878c18.329-45.877.155-138.977-.03-139.912l-.133-.676.688-.034a22.671,22.671,0,0,0,17.708-9.24c18.682-24.584,4.113-90.014,3.964-90.672l-.127-.555,55.844-15.161.155.575c3.683,13.672,13.5,20.6,29.181,20.6.357,0,.718,0,1.08-.01.235,0,.471,0,.707,0,12.881,0,28.824-3.646,33.391-20.591l.156-.58,54.918,15.476-.143.563c-.169.657-16.666,65.977,1.385,90.439a21.974,21.974,0,0,0,17.416,9.155l.688.034-.133.676c-.185.935-18.358,94.038-.031,139.912l.349.878-.944-.065c-.219-.015-23.2-1.375-52.11,15.937-.717.692-6.344,5.124-33.112,5.695C1024.507,1714.052,1007.081,1714.412,1004.794,1714.412Zm-.171-1.189c1.251.03,18.1-.321,22.512-.416,27.574-.588,32.28-5.325,32.324-5.372l.138-.114c26-15.589,47.3-16.217,51.944-16.17-17.1-44.391-1.435-130.591.171-139.073a23.02,23.02,0,0,1-17.633-9.595c-17.689-23.977-3.442-83.971-1.722-90.879l-52.651-14.838c-5.335,18.414-24.208,20.975-35.078,20.889-16.65.359-27.206-6.7-31.257-20.894l-53.6,14.552c1.511,6.882,14.005,67.012-4.3,91.1a23.735,23.735,0,0,1-17.915,9.666c1.606,8.482,17.272,94.682.171,139.073,4.652-.044,25.944.58,51.944,16.17l.146.123c.038.039,4.742,4.776,32.317,5.364C986.546,1712.9,1003.39,1713.252,1004.623,1713.223Z" transform="translate(15.886 1.089)"/>
      <path id="Trazado_100198" data-name="Trazado 100198" d="M1004.745,1713.174h-.322c-2.135,0-18.456-.343-21.7-.412-25.973-.563-31.455-4.945-32.16-5.636-28.051-17.116-50.353-15.776-50.576-15.759l-.938.066.344-.876c17.794-45.373.15-137.458-.03-138.383l-.132-.673.685-.034a21.84,21.84,0,0,0,17-8.9c18.4-24.132,4.168-89.258,4.023-89.913l-.122-.552,54.245-15,.154.581c3.657,13.826,13.5,20.654,29.363,20.356.227,0,.456,0,.683,0,12.5,0,27.969-3.6,32.4-20.359l.154-.587,53.35,15.316-.14.558c-.164.654-16.279,65.657,1.51,89.676a21.178,21.178,0,0,0,16.73,8.823l.685.034-.132.673c-.18.925-17.825,93.01-.03,138.383l.344.876-.938-.066c-.223-.018-22.521-1.36-50.576,15.759-.7.691-6.187,5.072-32.162,5.636C1023.22,1712.831,1006.907,1713.174,1004.745,1713.174Zm-.162-1.189c1.288.018,18.513-.338,21.856-.411,26.753-.58,31.323-5.261,31.365-5.308l.137-.115c25.213-15.4,45.869-16.063,50.426-16-16.595-43.9-1.4-129.124.167-137.54a22.236,22.236,0,0,1-16.947-9.261c-17.438-23.549-3.524-83.247-1.845-90.116l-51.086-14.665c-5.187,18.207-23.577,20.771-34.067,20.654-16.231.318-26.423-6.624-30.36-20.66l-52.005,14.383c1.472,6.844,13.675,66.686-4.359,90.339a22.916,22.916,0,0,1-17.21,9.327c1.564,8.416,16.761,93.641.167,137.54,4.469-.076,25.21.593,50.426,16l.145.125c.035.038,4.6,4.718,31.356,5.3C986.089,1711.647,1003.332,1712.022,1004.582,1711.985Z" transform="translate(16.034 1.175)" fill="red"/>
      <path id="Trazado_100199" data-name="Trazado 100199" d="M910.523,1505.726H770.771l-.023-.57c-.006-.153-.629-15.284-1.451-19.755-1.072-5.829-7.175-16.862-7.237-16.973l-.339-.612.658-.236c.175-.063,17.452-6.276,22.583-10.045,8.583-6.307,12.859-12.2,16.993-17.9,3.479-4.794,6.763-9.321,12.332-13.776a72.027,72.027,0,0,1,23.38-12.1,30.033,30.033,0,0,1,10.324-1.324c5.115.266,13.556,2.994,19.793,7.692,4.268,3.214,10.653,10.389,17.413,17.984,5.154,5.79,10.481,11.776,15.576,16.858,9.279,9.254,17.382,13,17.463,13.037l.586.267-.312.563c-.049.086-4.846,8.776-6.553,16.578-1.416,6.474-1.433,19.58-1.433,19.712Zm-138.612-1.188H909.339c.017-2.678.172-13.494,1.457-19.372,1.493-6.831,5.289-14.3,6.378-16.352a72.149,72.149,0,0,1-17.239-13c-5.121-5.106-10.461-11.105-15.625-16.909-6.721-7.55-13.068-14.681-17.241-17.826-6.047-4.554-14.205-7.2-19.14-7.453a28.861,28.861,0,0,0-9.916,1.275,70.805,70.805,0,0,0-22.983,11.887c-5.443,4.354-8.683,8.818-12.113,13.545-4.187,5.772-8.518,11.74-17.253,18.158-4.752,3.492-18.958,8.777-22.23,9.97,1.322,2.441,6.061,11.442,7.032,16.722C771.221,1489.291,771.789,1501.683,771.912,1504.538Z" transform="translate(9.5)" fill="aqua"/>
      <path id="Trazado_100200" data-name="Trazado 100200" d="M907.87,1504.348H772.611l-.023-.57c-.006-.148-.612-14.756-1.41-19.071-1.039-5.625-6.971-16.273-7.03-16.38l-.344-.614.662-.236c.169-.06,16.958-6.058,21.944-9.7,8.34-6.089,12.493-11.776,16.512-17.277,3.38-4.629,6.575-9,11.988-13.3a70.239,70.239,0,0,1,22.726-11.682,29.5,29.5,0,0,1,10.039-1.279c4.973.257,13.18,2.891,19.243,7.429,4.149,3.1,10.356,10.031,16.926,17.366,5.008,5.59,10.187,11.369,15.139,16.275,9.015,8.934,16.887,12.549,16.966,12.585l.59.266-.315.565c-.047.084-4.709,8.471-6.366,16-1.377,6.249-1.392,18.9-1.392,19.028v.594Zm-134.119-1.189H907.279c.018-2.62.17-13.025,1.416-18.688,1.447-6.573,5.114-13.75,6.189-15.77a68.832,68.832,0,0,1-16.738-12.545c-4.977-4.932-10.167-10.725-15.188-16.328-6.53-7.289-12.7-14.174-16.752-17.208-5.875-4.4-13.8-6.947-18.594-7.194a28.228,28.228,0,0,0-9.633,1.229,69.034,69.034,0,0,0-22.33,11.475c-5.288,4.2-8.436,8.51-11.768,13.074-4.073,5.574-8.282,11.338-16.773,17.535-4.609,3.365-18.366,8.453-21.587,9.62,1.3,2.391,5.884,11.045,6.827,16.13C773.079,1488.447,773.63,1500.367,773.751,1503.159Z" transform="translate(9.599 0.086)" fill="#1caed0"/>
      <path id="Trazado_100201" data-name="Trazado 100201" d="M906.617,1503.053H774.262l-.023-.569c0-.142-.594-14.284-1.372-18.46-1.013-5.441-6.789-15.748-6.848-15.851l-.347-.616.667-.236c.163-.059,16.515-5.865,21.371-9.386,8.12-5.893,12.167-11.4,16.079-16.721,3.294-4.484,6.406-8.718,11.681-12.884a68.589,68.589,0,0,1,22.142-11.312,28.888,28.888,0,0,1,9.781-1.238c4.845.249,12.841,2.8,18.75,7.2,4.044,3.005,10.088,9.712,16.488,16.813,4.879,5.412,9.923,11.008,14.746,15.758,8.779,8.646,16.444,12.146,16.52,12.18l.594.267-.318.567c-.047.082-4.585,8.2-6.2,15.483-1.34,6.047-1.356,18.294-1.356,18.416ZM775.4,1501.865h130.03c.018-2.568.169-12.608,1.38-18.079,1.4-6.344,4.959-13.271,6.019-15.253a67.2,67.2,0,0,1-16.289-12.141c-4.849-4.774-9.9-10.384-14.795-15.808-6.359-7.056-12.366-13.719-16.314-16.656-5.719-4.254-13.436-6.721-18.1-6.961a27.749,27.749,0,0,0-9.38,1.19,67.374,67.374,0,0,0-21.745,11.105c-5.148,4.067-8.215,8.239-11.459,12.655-3.967,5.4-8.068,10.979-16.339,16.98-4.484,3.252-17.837,8.165-21.011,9.309,1.283,2.345,5.724,10.689,6.639,15.6C774.747,1487.631,775.284,1499.13,775.4,1501.865Z" transform="translate(9.688 0.159)"/>
      <path id="Trazado_100202" data-name="Trazado 100202" d="M904.987,1501.971H775.72l-.025-.569c0-.138-.579-13.866-1.34-17.919-.988-5.279-6.625-15.282-6.682-15.383l-.35-.617.67-.236c.159-.057,16.124-5.694,20.862-9.111,7.928-5.72,11.878-11.062,15.7-16.231,3.217-4.353,6.255-8.464,11.408-12.51a67.165,67.165,0,0,1,21.624-10.984,28.341,28.341,0,0,1,9.556-1.2c4.733.242,12.546,2.721,18.315,6.988,3.95,2.92,9.857,9.433,16.108,16.33,4.762,5.251,9.686,10.683,14.394,15.291,8.57,8.391,16.052,11.789,16.127,11.822l.6.267-.323.568c-.044.08-4.474,7.956-6.05,15.027-1.307,5.87-1.322,17.754-1.322,17.874Zm-128.128-1.188H903.8c.019-2.521.168-12.237,1.348-17.539a64.378,64.378,0,0,1,5.869-14.8,65.7,65.7,0,0,1-15.892-11.78c-4.732-4.634-9.669-10.079-14.443-15.344-6.21-6.85-12.078-13.321-15.932-16.172-5.583-4.127-13.115-6.524-17.672-6.758a27.228,27.228,0,0,0-9.154,1.156,65.944,65.944,0,0,0-21.231,10.78c-5.025,3.946-8.018,8-11.187,12.283-3.873,5.241-7.879,10.66-15.957,16.488-4.369,3.151-17.368,7.908-20.5,9.031,1.269,2.3,5.583,10.375,6.472,15.132C776.219,1486.971,776.74,1498.1,776.859,1500.783Z" transform="translate(9.767 0.227)" fill="red"/>
      <rect id="Rectángulo_5075" data-name="Rectángulo 5075" width="1.584" height="236.42" transform="translate(657.96 1496.039)"/>
      <rect id="Rectángulo_5076" data-name="Rectángulo 5076" width="1.584" height="158.716" transform="translate(619.598 1534.891)"/>
      <rect id="Rectángulo_5077" data-name="Rectángulo 5077" width="1.584" height="52.446" transform="translate(851.022 1434.913)"/>
      <g id="Grupo_53458" data-name="Grupo 53458" transform="translate(961.416 1534.891)">
        <rect id="Rectángulo_5078" data-name="Rectángulo 5078" width="1.584" height="9.506"/>
        <path id="Trazado_100203" data-name="Trazado 100203" d="M944.862,1657.241h-1.584v-19.957h1.584Zm0-39.915h-1.584v-19.958h1.584Zm0-39.916h-1.584v-19.957h1.584Z" transform="translate(-943.278 -1527.99)"/>
        <rect id="Rectángulo_5079" data-name="Rectángulo 5079" width="1.584" height="9.506" transform="translate(0 149.209)"/>
      </g>
      <g id="Grupo_53459" data-name="Grupo 53459" transform="translate(970.508 1520.425)">
        <rect id="Rectángulo_5080" data-name="Rectángulo 5080" width="1.584" height="9.506"/>
        <path id="Trazado_100204" data-name="Trazado 100204" d="M953.541,1673.641h-1.584V1654.9h1.584Zm0-37.475h-1.584v-18.737h1.584Zm0-37.475h-1.584v-18.737h1.584Zm0-37.474h-1.584V1542.48h1.584Z" transform="translate(-951.957 -1514.236)"/>
        <rect id="Rectángulo_5081" data-name="Rectángulo 5081" width="1.584" height="9.506" transform="translate(0 178.143)"/>
      </g>
      <rect id="Rectángulo_5082" data-name="Rectángulo 5082" width="1.584" height="236.42" transform="translate(695.236 1496.039)"/>
      <rect id="Rectángulo_5083" data-name="Rectángulo 5083" width="1.584" height="236.42" transform="translate(675.541 1496.039)"/>
      <path id="Trazado_100205" data-name="Trazado 100205" d="M703.758,1730.637H648.013c-.144,0-14.583-.108-25.216-9.462-.91-.8-1.841-1.635-2.791-2.487-9.943-8.913-22.317-20.007-40.749-18.545l-.756.059.124-.749c.142-.85,13.94-85.56-3.574-138.79l-.274-.835.878.057a19.19,19.19,0,0,0,15.321-7.37c5.3-6.976,9.186-22.276-2.415-55.549l-.183-.527,47.884-20.179.237.535c.062.141,6.469,14.176,27.221,16.3,2.292.236,9.6.155,12.72.12l1.281-.011.214,0a103.016,103.016,0,0,0,11.451-.267c19.58-2.613,26.076-15.672,26.139-15.8l.243-.507,47.63,19.807-.184.529c-11.6,33.272-7.716,48.572-2.416,55.549a19.2,19.2,0,0,0,15.323,7.37l.877-.057-.273.835c-17.519,53.235-3.7,137.94-3.561,138.79l.126.749-.758-.059c-18.458-1.468-30.827,9.638-40.779,18.558-.946.848-1.87,1.676-2.776,2.474C718.341,1730.529,703.9,1730.637,703.758,1730.637Zm-121.2-31.815c17.072,0,28.75,10.469,38.247,18.981.947.85,1.873,1.679,2.783,2.48,10.286,9.051,24.29,9.166,24.43,9.166h55.745c.139,0,14.143-.115,24.429-9.166.906-.8,1.828-1.622,2.77-2.466,9.988-8.951,22.407-20.056,40.914-18.912-1.322-8.475-12.883-86.956,3.464-137.822a20.041,20.041,0,0,1-15.472-7.832c-7.929-10.411-7.242-29.3,2.042-56.148l-45.581-18.955c-1.432,2.492-8.751,13.565-26.782,15.97a111.96,111.96,0,0,1-11.625.278l-.2,0-1.268.011c-3.137.036-10.492.116-12.855-.125-19.147-1.963-26.509-13.831-27.924-16.485l-45.807,19.3c9.284,26.849,9.972,45.739,2.043,56.15a20.04,20.04,0,0,1-15.472,7.832c16.347,50.865,4.8,129.347,3.479,137.822Q581.254,1698.822,582.553,1698.822Z" transform="translate(0.605 3.038)" fill="red"/>
      <path id="Trazado_100206" data-name="Trazado 100206" d="M1044.419,1699.919l-1.583-.029-2.893-81.424,2.893-102.968,1.583-.022,5.785,104.572Zm-.532-165.405-2.36,83.947,2.372,66.718,4.725-65.145Z" transform="translate(22.738 4.904)"/>
      <path id="Trazado_100207" data-name="Trazado 100207" d="M757.21,1446.769l-.563-.107c-13.984-2.663-38.637-2.971-62.476-3.267-5.607-.07-11.13-.138-16.4-.239-26.18-.486-82.885,3.473-83.455,3.513l-.507.036,5.526-30.8.362.034c.575.053,57.758,5.348,76.841,5.348,18.419,0,74.419-5.295,74.982-5.348l.366-.035Zm-157.226-30.01-5.218,29.084c5.73-.4,58.111-3.944,83.018-3.479,5.269.1,10.791.169,16.4.239,23.56.293,47.911.6,62.053,3.177l-5.007-29.02c-4.892.46-57.018,5.318-74.69,5.318C658.217,1422.077,604.917,1417.214,599.984,1416.759Z" transform="translate(1.511 0.166)" fill="aqua"/>
      <path id="Trazado_100208" data-name="Trazado 100208" d="M755.945,1445.753l-.564-.1c-13.784-2.465-38.084-2.749-61.582-3.023-5.529-.065-10.973-.129-16.169-.221-25.807-.464-81.7,3.213-82.262,3.25l-.512.034.1-.5,5.364-28.054.355.031c.568.049,56.932,4.948,75.744,4.948,18.157,0,73.352-4.9,73.908-4.948l.36-.031ZM600.96,1417.986l-5.132,26.848c5.7-.37,57.3-3.646,81.818-3.218,5.193.092,10.636.156,16.162.221,23.217.271,47.212.551,61.151,2.938l-4.925-26.788c-4.821.425-56.2,4.92-73.619,4.92C658.356,1422.906,605.816,1418.4,600.96,1417.986Z" transform="translate(1.561 0.225)" fill="#1caed0"/>
      <path id="Trazado_100209" data-name="Trazado 100209" d="M754.771,1445.255l-.564-.1c-13.592-2.38-37.55-2.655-60.72-2.921-5.45-.062-10.816-.124-15.94-.213-25.463-.429-80.552,3.1-81.1,3.139l-.513.032,5.388-27.6.354.03c.558.047,56.132,4.778,74.679,4.778,17.9,0,72.323-4.731,72.871-4.778l.357-.031Zm-152.813-26.814-5.054,25.9c5.669-.359,56.483-3.522,80.656-3.107,5.122.089,10.489.15,15.937.213,22.887.263,46.539.534,60.285,2.836l-4.85-25.839c-4.771.413-55.412,4.751-72.581,4.751C658.549,1423.191,606.762,1418.846,601.958,1418.441Z" transform="translate(1.612 0.247)"/>
      <path id="Trazado_100210" data-name="Trazado 100210" d="M753.576,1443.831l-.565-.09c-13.4-2.139-37.008-2.386-59.841-2.624-5.369-.057-10.657-.111-15.7-.192-25.113-.4-79.382,2.788-79.927,2.82l-.52.031,5.328-24.881.346.026c.55.043,55.314,4.293,73.59,4.293,17.642,0,71.271-4.25,71.81-4.293l.349-.027Zm-150.6-24.093-4.964,23.186c5.655-.327,55.686-3.159,79.466-2.791,5.045.08,10.332.136,15.7.192,22.545.235,45.847.479,59.391,2.545l-4.762-23.132c-4.679.369-54.6,4.268-71.525,4.268C658.739,1424.005,607.687,1420.1,602.976,1419.737Z" transform="translate(1.664 0.309)" fill="red"/>
      <path id="Trazado_100211" data-name="Trazado 100211" d="M763.4,1459.5H588.463l-.071-.309a3.58,3.58,0,0,1,.646-2.527c1-1.587,3.59-3.793,10.224-5.284,10.762-2.417,31.28-2.763,76.666-3.316,45.395.553,65.915.9,76.673,3.316h0c6.634,1.491,9.223,3.7,10.225,5.284a3.578,3.578,0,0,1,.647,2.527Zm-174.25-.792H762.712c-.055-1.04-.972-4.462-10.284-6.554-10.68-2.4-31.171-2.745-76.5-3.3-45.319.553-65.809.9-76.492,3.3C590.13,1454.247,589.21,1457.666,589.154,1458.71Z" transform="translate(1.252 1.697)" fill="aqua"/>
      <path id="Trazado_100212" data-name="Trazado 100212" d="M761.691,1458.749H590.026l-.078-.3a2.7,2.7,0,0,1,.488-2.013c.91-1.445,3.417-3.447,10.194-4.779,10.549-2.076,30.684-2.375,75.224-2.85,44.547.476,64.682.774,75.231,2.85,6.779,1.332,9.286,3.334,10.194,4.78a2.693,2.693,0,0,1,.489,2.012Zm-170.985-.792h170.3a2.483,2.483,0,0,0-.432-1.145c-.849-1.3-3.208-3.109-9.644-4.376h0c-10.482-2.063-30.591-2.359-75.08-2.835-44.479.476-64.591.772-75.072,2.835-6.435,1.266-8.8,3.079-9.643,4.376A2.5,2.5,0,0,0,590.706,1457.958Z" transform="translate(1.325 1.732)" fill="#1caed0"/>
      <path id="Trazado_100213" data-name="Trazado 100213" d="M759.95,1457.968H591.616l-.085-.281a1.972,1.972,0,0,1,.338-1.549c.8-1.285,3.206-3.064,10.15-4.228,10.348-1.736,30.092-1.984,73.761-2.381,43.677.4,63.419.645,73.768,2.381h0c6.943,1.164,9.352,2.942,10.148,4.228a1.98,1.98,0,0,1,.339,1.549Zm-167.656-.792H759.272a1.765,1.765,0,0,0-.284-.677c-.61-.925-2.663-2.65-9.57-3.808-10.291-1.725-30.013-1.974-73.638-2.37-43.619.4-63.34.644-73.631,2.37-6.907,1.157-8.96,2.883-9.57,3.808A1.78,1.78,0,0,0,592.295,1457.176Z" transform="translate(1.401 1.766)"/>
      <path id="Trazado_100214" data-name="Trazado 100214" d="M758.353,1457.6H593.077l-.1-.264a1.517,1.517,0,0,1,.236-1.237c.7-1.151,3.01-2.738,10.072-3.763,10.153-1.473,29.539-1.683,72.421-2.021,42.888.337,62.273.548,72.429,2.021,7.062,1.025,9.376,2.612,10.073,3.763a1.507,1.507,0,0,1,.235,1.236Zm-164.594-.792H757.671a1.3,1.3,0,0,0-.177-.363c-.539-.807-2.485-2.312-9.469-3.325h0c-10.1-1.466-29.469-1.676-72.313-2.013-42.839.337-62.206.548-72.307,2.013-6.984,1.013-8.931,2.518-9.47,3.325A1.345,1.345,0,0,0,593.759,1456.8Z" transform="translate(1.469 1.804)" fill="red"/>
      <path id="Trazado_100215" data-name="Trazado 100215" d="M674.4,1468.087l-1.585-.015.03-3.169,1.584.015Zm.058-6.338-1.585-.015.029-3.168,1.585.016Zm.059-6.337-1.585-.014.028-3.169,1.584.014Zm.057-6.337-1.584-.016.029-3.168,1.584.015Zm.058-6.338-1.584-.015.029-3.168,1.584.015Z" transform="translate(5.27 1.292)"/>
      <rect id="Rectángulo_5084" data-name="Rectángulo 5084" width="159.322" height="0.792" transform="translate(942.066 1478.283)"/>
      <rect id="Rectángulo_5085" data-name="Rectángulo 5085" width="159.322" height="0.792" transform="translate(942.066 1486.136)"/>
      <rect id="Rectángulo_5086" data-name="Rectángulo 5086" width="6.062" height="0.792" transform="translate(678.944 1516.171)"/>
      <rect id="Rectángulo_5087" data-name="Rectángulo 5087" width="6.062" height="0.792" transform="translate(678.944 1549.926)"/>
      <rect id="Rectángulo_5088" data-name="Rectángulo 5088" width="6.062" height="0.792" transform="translate(678.944 1583.68)"/>
      <rect id="Rectángulo_5089" data-name="Rectángulo 5089" width="6.062" height="0.792" transform="translate(678.944 1617.435)"/>
      <rect id="Rectángulo_5090" data-name="Rectángulo 5090" width="6.062" height="0.792" transform="translate(678.944 1651.19)"/>
      <rect id="Rectángulo_5091" data-name="Rectángulo 5091" width="6.062" height="0.792" transform="translate(678.944 1684.944)"/>
      <rect id="Rectángulo_5092" data-name="Rectángulo 5092" width="4.374" height="0.792" transform="translate(661.172 1516.171)"/>
      <rect id="Rectángulo_5093" data-name="Rectángulo 5093" width="4.374" height="0.792" transform="translate(661.172 1549.926)"/>
      <rect id="Rectángulo_5094" data-name="Rectángulo 5094" width="4.374" height="0.792" transform="translate(661.172 1583.68)"/>
      <rect id="Rectángulo_5095" data-name="Rectángulo 5095" width="4.374" height="0.792" transform="translate(661.172 1617.435)"/>
      <rect id="Rectángulo_5096" data-name="Rectángulo 5096" width="4.374" height="0.792" transform="translate(661.172 1651.19)"/>
      <rect id="Rectángulo_5097" data-name="Rectángulo 5097" width="4.374" height="0.792" transform="translate(661.172 1684.944)"/>
    </g>
  </g>
</svg>
