<svg xmlns="http://www.w3.org/2000/svg" width="401.753" height="404.112" viewBox="0 0 401.753 404.112">
  <g id="Grupo_54818" data-name="Grupo 54818" transform="translate(-284 -4139.813)">
    <path id="Trazado_105625" data-name="Trazado 105625" d="M-175.649-6.035h-5.391v3.4h6.367V0h-9.795V-14.219h9.814v2.646h-6.387v3h5.391Zm7.754,3.066a.76.76,0,0,0-.439-.674A6.685,6.685,0,0,0-170-4.17a7.615,7.615,0,0,1-2.031-.718,3.4,3.4,0,0,1-1.221-1.079,2.577,2.577,0,0,1-.42-1.455,2.92,2.92,0,0,1,1.2-2.4,4.948,4.948,0,0,1,3.145-.942,5.482,5.482,0,0,1,3.359.947,2.962,2.962,0,0,1,1.27,2.49H-168q0-1.27-1.338-1.27a1.326,1.326,0,0,0-.869.288.892.892,0,0,0-.352.718.819.819,0,0,0,.43.713,4.06,4.06,0,0,0,1.372.449,11.857,11.857,0,0,1,1.655.42,3.007,3.007,0,0,1,2.383,2.939,2.767,2.767,0,0,1-1.284,2.354A5.632,5.632,0,0,1-169.331.2a5.747,5.747,0,0,1-2.422-.488,4.05,4.05,0,0,1-1.66-1.328,3.007,3.007,0,0,1-.6-1.768h3.076a1.272,1.272,0,0,0,.488,1.069,2.009,2.009,0,0,0,1.2.337,1.58,1.58,0,0,0,1.011-.273A.875.875,0,0,0-167.9-2.969Zm9.18.625a1.464,1.464,0,0,0,1.074-.376,1.379,1.379,0,0,0,.371-1.05h3.086A3.653,3.653,0,0,1-155.43-.918,4.631,4.631,0,0,1-158.638.2a4.689,4.689,0,0,1-3.633-1.445,5.7,5.7,0,0,1-1.328-4v-.137a6.436,6.436,0,0,1,.591-2.827,4.3,4.3,0,0,1,1.7-1.885,5.081,5.081,0,0,1,2.637-.659A4.573,4.573,0,0,1-155.4-9.619a4.053,4.053,0,0,1,1.211,3.1h-3.086a1.807,1.807,0,0,0-.4-1.26,1.382,1.382,0,0,0-1.074-.439q-1.279,0-1.494,1.631a11.507,11.507,0,0,0-.068,1.426,4.52,4.52,0,0,0,.381,2.207A1.319,1.319,0,0,0-158.716-2.344ZM-146.841,0a3.716,3.716,0,0,1-.312-.947A3.06,3.06,0,0,1-149.692.2a3.749,3.749,0,0,1-2.539-.9,2.875,2.875,0,0,1-1.045-2.271,2.955,2.955,0,0,1,1.27-2.6,6.468,6.468,0,0,1,3.691-.879h1.016v-.559q0-1.462-1.26-1.462a1.03,1.03,0,0,0-1.172,1.158h-3.291a2.95,2.95,0,0,1,1.3-2.487,5.479,5.479,0,0,1,3.325-.956,4.8,4.8,0,0,1,3.193.986A3.429,3.429,0,0,1-144-7.07v4.678a4.79,4.79,0,0,0,.449,2.227V0ZM-148.9-2.148a1.836,1.836,0,0,0,1.021-.264,1.652,1.652,0,0,0,.581-.6V-4.7h-.957q-1.719,0-1.719,1.543a.942.942,0,0,0,.3.728A1.1,1.1,0,0,0-148.9-2.148ZM-138.706,0h-3.3V-15h3.3Zm7.979,0a3.716,3.716,0,0,1-.312-.947A3.06,3.06,0,0,1-133.579.2a3.749,3.749,0,0,1-2.539-.9,2.875,2.875,0,0,1-1.045-2.271,2.955,2.955,0,0,1,1.27-2.6,6.468,6.468,0,0,1,3.691-.879h1.016v-.559q0-1.462-1.26-1.462a1.03,1.03,0,0,0-1.172,1.158h-3.291a2.95,2.95,0,0,1,1.3-2.487,5.479,5.479,0,0,1,3.325-.956,4.8,4.8,0,0,1,3.193.986,3.429,3.429,0,0,1,1.2,2.705v4.678a4.79,4.79,0,0,0,.449,2.227V0Zm-2.061-2.148a1.836,1.836,0,0,0,1.021-.264,1.652,1.652,0,0,0,.581-.6V-4.7h-.957q-1.719,0-1.719,1.543a.942.942,0,0,0,.3.728A1.1,1.1,0,0,0-132.788-2.148Zm6.309-3.213A6.455,6.455,0,0,1-125.4-9.316a3.568,3.568,0,0,1,3.027-1.445,3.035,3.035,0,0,1,2.383,1.113V-15h3.3V0h-2.959l-.166-1.133A3.116,3.116,0,0,1-122.388.2a3.562,3.562,0,0,1-2.988-1.445A6.659,6.659,0,0,1-126.479-5.361Zm3.291.205q0,2.813,1.641,2.813a1.62,1.62,0,0,0,1.563-.918V-7.285a1.576,1.576,0,0,0-1.543-.937q-1.523,0-1.65,2.461Zm7.959-.225a6.236,6.236,0,0,1,.615-2.817,4.4,4.4,0,0,1,1.768-1.9,5.323,5.323,0,0,1,2.705-.664,4.858,4.858,0,0,1,3.74,1.47,5.64,5.64,0,0,1,1.367,4v.117a5.472,5.472,0,0,1-1.372,3.921A4.871,4.871,0,0,1-110.122.2a4.927,4.927,0,0,1-3.623-1.353,5.29,5.29,0,0,1-1.475-3.667Zm3.291.205a3.932,3.932,0,0,0,.459,2.148,1.529,1.529,0,0,0,1.357.684q1.758,0,1.8-2.705v-.332q0-2.842-1.816-2.842-1.65,0-1.787,2.451ZM-92.651,0a3.716,3.716,0,0,1-.312-.947A3.06,3.06,0,0,1-95.5.2a3.749,3.749,0,0,1-2.539-.9,2.875,2.875,0,0,1-1.045-2.271,2.955,2.955,0,0,1,1.27-2.6,6.468,6.468,0,0,1,3.691-.879h1.016v-.559q0-1.462-1.26-1.462a1.03,1.03,0,0,0-1.172,1.158h-3.291a2.95,2.95,0,0,1,1.3-2.487,5.479,5.479,0,0,1,3.325-.956,4.8,4.8,0,0,1,3.193.986,3.429,3.429,0,0,1,1.2,2.705v4.678A4.79,4.79,0,0,0-89.36-.166V0Zm-2.061-2.148a1.836,1.836,0,0,0,1.021-.264,1.653,1.653,0,0,0,.581-.6V-4.7h-.957q-1.719,0-1.719,1.543a.942.942,0,0,0,.3.728A1.1,1.1,0,0,0-94.712-2.148ZM-73.2-5.205a6.372,6.372,0,0,1-1.108,3.931A3.554,3.554,0,0,1-77.3.2,3.046,3.046,0,0,1-79.692-.869V4.063h-3.291V-10.566h3.076l.1.977a3.046,3.046,0,0,1,2.49-1.172,3.582,3.582,0,0,1,3.037,1.44A6.45,6.45,0,0,1-73.2-5.361Zm-3.291-.205q0-2.812-1.641-2.812a1.549,1.549,0,0,0-1.562.84v4.16a1.6,1.6,0,0,0,1.582.879q1.572,0,1.621-2.715ZM-65.8,0a3.716,3.716,0,0,1-.312-.947A3.06,3.06,0,0,1-68.647.2a3.749,3.749,0,0,1-2.539-.9,2.875,2.875,0,0,1-1.045-2.271,2.955,2.955,0,0,1,1.27-2.6,6.468,6.468,0,0,1,3.691-.879h1.016v-.559q0-1.462-1.26-1.462a1.03,1.03,0,0,0-1.172,1.158h-3.291a2.95,2.95,0,0,1,1.3-2.487,5.479,5.479,0,0,1,3.325-.956,4.8,4.8,0,0,1,3.193.986,3.429,3.429,0,0,1,1.2,2.705v4.678A4.79,4.79,0,0,0-62.5-.166V0Zm-2.061-2.148a1.836,1.836,0,0,0,1.021-.264,1.653,1.653,0,0,0,.581-.6V-4.7h-.957q-1.719,0-1.719,1.543a.942.942,0,0,0,.3.728A1.1,1.1,0,0,0-67.856-2.148Zm13.115-5.439-1.084-.078a1.947,1.947,0,0,0-1.992.977V0h-3.291V-10.566h3.086l.107,1.357A2.548,2.548,0,0,1-55.6-10.762a3.209,3.209,0,0,1,.918.117Zm5.508-5.605v2.627H-47.5v2.285h-1.738v4.834a1.234,1.234,0,0,0,.215.83,1.152,1.152,0,0,0,.85.234,4.828,4.828,0,0,0,.82-.059V-.088A6.074,6.074,0,0,1-49.2.2a3.448,3.448,0,0,1-2.51-.8,3.282,3.282,0,0,1-.811-2.432V-8.281h-1.348v-2.285h1.348v-2.627ZM-42.729,0h-3.3V-10.566h3.3Zm-3.5-13.3a1.482,1.482,0,0,1,.508-1.159,1.909,1.909,0,0,1,1.318-.452,1.909,1.909,0,0,1,1.318.452,1.482,1.482,0,0,1,.508,1.159,1.482,1.482,0,0,1-.508,1.159,1.909,1.909,0,0,1-1.318.452,1.909,1.909,0,0,1-1.318-.452A1.482,1.482,0,0,1-46.226-13.3Zm11.914,5.713L-35.4-7.666a1.947,1.947,0,0,0-1.992.977V0h-3.291V-10.566h3.086l.107,1.357a2.548,2.548,0,0,1,2.314-1.553,3.209,3.209,0,0,1,.918.117Zm5.752,2.227a6.455,6.455,0,0,1,1.084-3.955,3.568,3.568,0,0,1,3.027-1.445,3.035,3.035,0,0,1,2.383,1.113V-15h3.3V0h-2.959l-.166-1.133A3.116,3.116,0,0,1-24.468.2,3.562,3.562,0,0,1-27.456-1.25,6.659,6.659,0,0,1-28.56-5.361Zm3.291.205q0,2.813,1.641,2.813a1.62,1.62,0,0,0,1.563-.918V-7.285a1.576,1.576,0,0,0-1.543-.937q-1.523,0-1.65,2.461ZM-11.782.2a5.432,5.432,0,0,1-3.936-1.45,5.008,5.008,0,0,1-1.5-3.774V-5.3a6.489,6.489,0,0,1,.6-2.861,4.395,4.395,0,0,1,1.753-1.919,5.292,5.292,0,0,1,2.734-.679A4.574,4.574,0,0,1-8.618-9.38,5.43,5.43,0,0,1-7.329-5.527v1.279h-6.543a2.372,2.372,0,0,0,.771,1.4,2.3,2.3,0,0,0,1.543.508A2.958,2.958,0,0,0-9.116-3.437l1.5,1.777A4.2,4.2,0,0,1-9.355-.308,5.891,5.891,0,0,1-11.782.2Zm-.371-8.418q-1.445,0-1.719,1.914h3.32v-.254a1.63,1.63,0,0,0-.4-1.226A1.593,1.593,0,0,0-12.153-8.223ZM2.446,0h-3.3V-15h3.3ZM4.058-5.381A6.236,6.236,0,0,1,4.673-8.2,4.4,4.4,0,0,1,6.44-10.1a5.323,5.323,0,0,1,2.705-.664,4.858,4.858,0,0,1,3.74,1.47,5.64,5.64,0,0,1,1.367,4v.117a5.472,5.472,0,0,1-1.372,3.921A4.871,4.871,0,0,1,9.165.2,4.927,4.927,0,0,1,5.542-1.157,5.29,5.29,0,0,1,4.067-4.824Zm3.291.205a3.932,3.932,0,0,0,.459,2.148,1.529,1.529,0,0,0,1.357.684q1.758,0,1.8-2.705v-.332q0-2.842-1.816-2.842-1.65,0-1.787,2.451ZM21.235-2.969a.76.76,0,0,0-.439-.674,6.685,6.685,0,0,0-1.67-.527,7.615,7.615,0,0,1-2.031-.718,3.4,3.4,0,0,1-1.221-1.079,2.577,2.577,0,0,1-.42-1.455,2.92,2.92,0,0,1,1.2-2.4,4.948,4.948,0,0,1,3.145-.942,5.482,5.482,0,0,1,3.359.947,2.962,2.962,0,0,1,1.27,2.49h-3.3q0-1.27-1.338-1.27a1.326,1.326,0,0,0-.869.288.892.892,0,0,0-.352.718.819.819,0,0,0,.43.713,4.06,4.06,0,0,0,1.372.449,11.857,11.857,0,0,1,1.655.42,3.007,3.007,0,0,1,2.383,2.939A2.767,2.767,0,0,1,23.125-.713,5.631,5.631,0,0,1,19.8.2a5.747,5.747,0,0,1-2.422-.488,4.05,4.05,0,0,1-1.66-1.328,3.007,3.007,0,0,1-.6-1.768H18.2a1.272,1.272,0,0,0,.488,1.069,2.009,2.009,0,0,0,1.2.337A1.58,1.58,0,0,0,20.9-2.256.875.875,0,0,0,21.235-2.969ZM36.04.2A5.432,5.432,0,0,1,32.1-1.255a5.008,5.008,0,0,1-1.5-3.774V-5.3a6.489,6.489,0,0,1,.6-2.861,4.395,4.395,0,0,1,1.753-1.919,5.292,5.292,0,0,1,2.734-.679A4.574,4.574,0,0,1,39.2-9.38a5.43,5.43,0,0,1,1.289,3.853v1.279H33.95a2.372,2.372,0,0,0,.771,1.4,2.3,2.3,0,0,0,1.543.508,2.958,2.958,0,0,0,2.441-1.094l1.5,1.777A4.2,4.2,0,0,1,38.467-.308,5.891,5.891,0,0,1,36.04.2Zm-.371-8.418q-1.445,0-1.719,1.914h3.32v-.254a1.63,1.63,0,0,0-.4-1.226A1.593,1.593,0,0,0,35.669-8.223Zm9.688-2.344V.361a3.836,3.836,0,0,1-1.074,2.891,4.127,4.127,0,0,1-2.969,1.016A7.009,7.009,0,0,1,39.761,4.1V1.611a6.3,6.3,0,0,0,.928.088A1.2,1.2,0,0,0,42.056.342V-10.566ZM41.812-13.3a1.482,1.482,0,0,1,.508-1.159,1.909,1.909,0,0,1,1.318-.452,1.909,1.909,0,0,1,1.318.452,1.482,1.482,0,0,1,.508,1.159,1.482,1.482,0,0,1-.508,1.159,1.909,1.909,0,0,1-1.318.452,1.909,1.909,0,0,1-1.318-.452A1.482,1.482,0,0,1,41.812-13.3ZM52.329.2a5.432,5.432,0,0,1-3.936-1.45,5.008,5.008,0,0,1-1.5-3.774V-5.3a6.489,6.489,0,0,1,.6-2.861,4.395,4.395,0,0,1,1.753-1.919,5.292,5.292,0,0,1,2.734-.679A4.574,4.574,0,0,1,55.493-9.38a5.43,5.43,0,0,1,1.289,3.853v1.279H50.239a2.372,2.372,0,0,0,.771,1.4,2.3,2.3,0,0,0,1.543.508A2.958,2.958,0,0,0,55-3.437L56.5-1.66A4.2,4.2,0,0,1,54.756-.308,5.891,5.891,0,0,1,52.329.2Zm-.371-8.418q-1.445,0-1.719,1.914h3.32v-.254a1.63,1.63,0,0,0-.4-1.226A1.593,1.593,0,0,0,51.958-8.223Zm11.68,5.254a.76.76,0,0,0-.439-.674,6.685,6.685,0,0,0-1.67-.527A7.615,7.615,0,0,1,59.5-4.888a3.4,3.4,0,0,1-1.221-1.079,2.577,2.577,0,0,1-.42-1.455,2.92,2.92,0,0,1,1.2-2.4,4.948,4.948,0,0,1,3.145-.942,5.482,5.482,0,0,1,3.359.947,2.962,2.962,0,0,1,1.27,2.49h-3.3q0-1.27-1.338-1.27a1.326,1.326,0,0,0-.869.288.892.892,0,0,0-.352.718.819.819,0,0,0,.43.713,4.06,4.06,0,0,0,1.372.449,11.857,11.857,0,0,1,1.655.42,3.007,3.007,0,0,1,2.383,2.939A2.767,2.767,0,0,1,65.527-.713,5.631,5.631,0,0,1,62.2.2,5.747,5.747,0,0,1,59.78-.293a4.05,4.05,0,0,1-1.66-1.328,3.007,3.007,0,0,1-.6-1.768H60.6a1.272,1.272,0,0,0,.488,1.069,2.009,2.009,0,0,0,1.2.337A1.58,1.58,0,0,0,63.3-2.256.875.875,0,0,0,63.638-2.969Zm9.277-2.393A6.455,6.455,0,0,1,74-9.316a3.568,3.568,0,0,1,3.027-1.445,3.035,3.035,0,0,1,2.383,1.113V-15h3.3V0H79.751l-.166-1.133A3.116,3.116,0,0,1,77.007.2,3.562,3.562,0,0,1,74.019-1.25,6.659,6.659,0,0,1,72.915-5.361Zm3.291.205q0,2.813,1.641,2.813a1.62,1.62,0,0,0,1.563-.918V-7.285a1.576,1.576,0,0,0-1.543-.937q-1.523,0-1.65,2.461ZM89.692.2a5.432,5.432,0,0,1-3.936-1.45,5.008,5.008,0,0,1-1.5-3.774V-5.3a6.489,6.489,0,0,1,.6-2.861,4.395,4.395,0,0,1,1.753-1.919,5.292,5.292,0,0,1,2.734-.679A4.574,4.574,0,0,1,92.856-9.38a5.43,5.43,0,0,1,1.289,3.853v1.279H87.6a2.372,2.372,0,0,0,.771,1.4,2.3,2.3,0,0,0,1.543.508,2.958,2.958,0,0,0,2.441-1.094l1.5,1.777A4.2,4.2,0,0,1,92.119-.308,5.891,5.891,0,0,1,89.692.2Zm-.371-8.418q-1.445,0-1.719,1.914h3.32v-.254a1.63,1.63,0,0,0-.4-1.226A1.593,1.593,0,0,0,89.321-8.223Zm17.422,7.08A3.393,3.393,0,0,1,103.921.2a3.328,3.328,0,0,1-2.632-1.011,4.251,4.251,0,0,1-.894-2.905v-6.846h3.291V-3.7A1.183,1.183,0,0,0,105-2.344a1.72,1.72,0,0,0,1.611-.811v-7.412h3.311V0h-3.086Zm8.008-9.424.107,1.24a3.583,3.583,0,0,1,3.018-1.436,3.015,3.015,0,0,1,2.466.986,4.7,4.7,0,0,1,.845,2.969V0h-3.3V-6.67a1.783,1.783,0,0,0-.322-1.177,1.491,1.491,0,0,0-1.172-.376,1.569,1.569,0,0,0-1.436.762V0h-3.291V-10.566ZM137.8-5.205a6.372,6.372,0,0,1-1.108,3.931A3.554,3.554,0,0,1,133.7.2,3.046,3.046,0,0,1,131.3-.869V4.063h-3.291V-10.566h3.076l.1.977a3.046,3.046,0,0,1,2.49-1.172,3.582,3.582,0,0,1,3.037,1.44,6.45,6.45,0,0,1,1.084,3.96Zm-3.291-.205q0-2.812-1.641-2.812a1.549,1.549,0,0,0-1.562.84v4.16a1.6,1.6,0,0,0,1.582.879q1.572,0,1.621-2.715ZM145.2,0a3.716,3.716,0,0,1-.312-.947A3.06,3.06,0,0,1,142.349.2a3.749,3.749,0,0,1-2.539-.9,2.875,2.875,0,0,1-1.045-2.271,2.955,2.955,0,0,1,1.27-2.6,6.468,6.468,0,0,1,3.691-.879h1.016v-.559q0-1.462-1.26-1.462a1.03,1.03,0,0,0-1.172,1.158h-3.291a2.95,2.95,0,0,1,1.3-2.487,5.479,5.479,0,0,1,3.325-.956,4.8,4.8,0,0,1,3.193.986,3.429,3.429,0,0,1,1.2,2.705v4.678a4.79,4.79,0,0,0,.449,2.227V0ZM143.14-2.148a1.836,1.836,0,0,0,1.021-.264,1.652,1.652,0,0,0,.581-.6V-4.7h-.957q-1.719,0-1.719,1.543a.942.942,0,0,0,.3.728A1.1,1.1,0,0,0,143.14-2.148ZM153.7-13.193v2.627h1.738v2.285H153.7v4.834a1.234,1.234,0,0,0,.215.83,1.152,1.152,0,0,0,.85.234,4.828,4.828,0,0,0,.82-.059V-.088A6.074,6.074,0,0,1,153.726.2a3.448,3.448,0,0,1-2.51-.8,3.282,3.282,0,0,1-.811-2.432V-8.281h-1.348v-2.285h1.348v-2.627Zm9.424,5.605-1.084-.078a1.947,1.947,0,0,0-1.992.977V0h-3.291V-10.566h3.086l.107,1.357a2.548,2.548,0,0,1,2.314-1.553,3.209,3.209,0,0,1,.918.117Zm.42,2.207a6.236,6.236,0,0,1,.615-2.817,4.4,4.4,0,0,1,1.768-1.9,5.323,5.323,0,0,1,2.705-.664,4.858,4.858,0,0,1,3.74,1.47,5.64,5.64,0,0,1,1.367,4v.117a5.472,5.472,0,0,1-1.372,3.921A4.871,4.871,0,0,1,168.647.2a4.927,4.927,0,0,1-3.623-1.353,5.29,5.29,0,0,1-1.475-3.667Zm3.291.205a3.932,3.932,0,0,0,.459,2.148,1.529,1.529,0,0,0,1.357.684q1.758,0,1.8-2.705v-.332q0-2.842-1.816-2.842-1.65,0-1.787,2.451ZM169.077-15h3.477l-2.715,3.066-2.686,0Zm9.131,4.434.107,1.24a3.583,3.583,0,0,1,3.018-1.436,3.015,3.015,0,0,1,2.466.986,4.7,4.7,0,0,1,.845,2.969V0h-3.3V-6.67a1.783,1.783,0,0,0-.322-1.177,1.491,1.491,0,0,0-1.172-.376,1.569,1.569,0,0,0-1.436.762V0h-3.291V-10.566Z" transform="translate(485 4539.657)" fill="#12263f"/>
    <g id="Grupo_53463" data-name="Grupo 53463" transform="translate(-259.666 2402.815)">
      <path id="Trazado_100216" data-name="Trazado 100216" d="M936.578,1862.509H917.66v-1.419h18.919Zm-37.838,0H879.82v-1.419h18.92Zm-37.838,0h-18.92v-1.419H860.9Zm-37.84,0h-18.92v-1.419h18.92Zm-37.838,0H766.3v-1.419h18.92Zm-37.84,0H728.465v-1.419h18.919Zm-37.838,0h-18.92v-1.419h18.92Zm-37.84,0H652.787v-1.419h18.919Zm-37.838,0h-18.92v-1.419h18.92Zm-37.838,0h-18.92v-1.419h18.92Z" transform="translate(8.841 32.805)" fill="red"/>
      <path id="Trazado_100217" data-name="Trazado 100217" d="M592.849,2013.14c-11.9,0-22-.463-28.725-1.616l-.589-.1V1794.966l.669-.039c.292-.016,29.178-2.139,37.513-42.538l.149-.723,96.22,23.722-.238.727c-.239.726-23.512,72.91-2.495,101.9,5.772,7.963,14.467,12,25.841,12h.709v115.2l-.64.063C720.28,2005.377,641.522,2013.14,592.849,2013.14Zm-27.9-2.917c33.527,5.393,145.979-5.363,155.531-6.292v-112.5c-11.508-.166-20.347-4.4-26.28-12.58-20.538-28.335-.52-94.321,2.06-102.45l-93.309-23c-8.022,37.378-33.528,42.3-38,42.876Z" transform="translate(5.252 3.878)"/>
      <rect id="Rect치ngulo_5099" data-name="Rect치ngulo 5099" width="1.419" height="148.065" transform="translate(647.262 1815.965)"/>
      <path id="Trazado_100218" data-name="Trazado 100218" d="M869.327,2008.474H702.567V1894.33l.659-.048c7.7-.559,14.175-4.108,19.235-10.55,24.355-31,9.8-119.6,9.648-120.487l-.111-.664,95.315-21.126.277.288c11.991,12.472,40.744,12.776,41.032,12.779l.706,0Zm-165.34-1.419H867.908V1755.928c-4.612-.109-29.458-1.244-41.061-12.915l-93.229,20.663c1.435,8.875,13.847,90.525-10.041,120.932-5.174,6.586-11.762,10.294-19.59,11.034Z" transform="translate(42.007 1.178)"/>
      <rect id="Rect치ngulo_5100" data-name="Rect치ngulo 5100" width="1.419" height="152.013" transform="translate(827.245 1805.107)"/>
      <g id="Grupo_53463-2" data-name="Grupo 53463" transform="translate(921.482 1766.522)">
        <path id="Trazado_100219" data-name="Trazado 100219" d="M857.985,1956.8a9.693,9.693,0,0,1,.728,4.042c0,4.315-2.726,7.539-7.743,7.539a7.6,7.6,0,0,1-8.016-7.993,8.776,8.776,0,0,1,.657-3.633l1.635.5a7.018,7.018,0,0,0-.636,3.066c0,3.587,2.295,5.972,6.292,5.972,3.746,0,6.131-2.157,6.131-5.859a7.947,7.947,0,0,0-.636-3.247Z" transform="translate(-842.364 -1708.428)" fill="red"/>
        <path id="Trazado_100220" data-name="Trazado 100220" d="M852.456,1955.791a3.5,3.5,0,0,0,3.792-3.746,7.143,7.143,0,0,0-.568-3.043l1.431-.363a8.959,8.959,0,0,1,.7,3.678c0,3.362-2.249,5.405-5.54,5.405-3.315,0-5.927-1.976-5.927-5.177,0-3.587,3.156-4.519,5.177-4.519a4.84,4.84,0,0,1,.931.068Zm-1.43-5.835c-1.272-.023-3.248.522-3.248,2.748,0,2.043,1.862,2.907,3.248,3.065Z" transform="translate(-841.466 -1710.736)" fill="red"/>
        <path id="Trazado_100221" data-name="Trazado 100221" d="M849.572,1948.025c-1.158,0-2.066.023-2.974.091v-1.771l1.794-.114v-.044a4.071,4.071,0,0,1-2.044-3.634c0-1.522.908-3.883,4.678-3.883h6.562v2h-6.336c-1.77,0-3.27.659-3.27,2.544a2.883,2.883,0,0,0,2.043,2.679,2.97,2.97,0,0,0,.932.137h6.63v2Z" transform="translate(-841.466 -1713.209)" fill="red"/>
        <path id="Trazado_100222" data-name="Trazado 100222" d="M844.463,1934.869H847.1v-2.86h1.521v2.86h5.9c1.362,0,2.133-.386,2.133-1.5a3.737,3.737,0,0,0-.135-1.158l1.521-.09a5.432,5.432,0,0,1,.273,1.77,2.849,2.849,0,0,1-.841,2.157,4.287,4.287,0,0,1-2.884.772h-5.971v1.7H847.1v-1.7h-2.022Z" transform="translate(-841.965 -1714.97)" fill="red"/>
        <path id="Trazado_100223" data-name="Trazado 100223" d="M850.026,1931.367c-1.293,0-2.406.023-3.428.091v-1.749l2.157-.091v-.068a3.325,3.325,0,0,1-2.407-3.066,4.3,4.3,0,0,1,.044-.545h1.886a5.442,5.442,0,0,0-.046.682,2.8,2.8,0,0,0,2.543,2.68,6.372,6.372,0,0,0,.932.067h5.88v2Z" transform="translate(-841.466 -1716.574)" fill="red"/>
        <path id="Trazado_100224" data-name="Trazado 100224" d="M857.837,1922.146c0,2.952-2.178,5.267-5.653,5.267-3.679,0-5.836-2.429-5.836-5.449,0-3.156,2.293-5.29,5.631-5.29,4.088,0,5.858,2.837,5.858,5.449Zm-1.5-.091c0-1.908-1.794-3.338-4.292-3.338-1.862,0-4.2.93-4.2,3.292,0,2.339,2.18,3.361,4.27,3.361,2.406,0,4.224-1.363,4.224-3.292Z" transform="translate(-841.466 -1719.023)" fill="red"/>
        <path id="Trazado_100225" data-name="Trazado 100225" d="M852.456,1911.6a3.5,3.5,0,0,0,3.792-3.746,7.139,7.139,0,0,0-.568-3.043l1.431-.363a8.954,8.954,0,0,1,.7,3.678c0,3.361-2.249,5.4-5.54,5.4-3.315,0-5.927-1.975-5.927-5.176,0-3.588,3.156-4.519,5.177-4.519a4.743,4.743,0,0,1,.931.068Zm-1.43-5.836c-1.272-.022-3.248.522-3.248,2.749,0,2.043,1.862,2.905,3.248,3.065Z" transform="translate(-841.466 -1722.418)" fill="red"/>
        <path id="Trazado_100226" data-name="Trazado 100226" d="M855.545,1903.5a5.651,5.651,0,0,0,.771-2.656c0-1.431-.7-2.113-1.635-2.113-.953,0-1.453.568-2,2.022-.727,2-1.817,2.93-3.112,2.93-1.77,0-3.224-1.454-3.224-3.793a5.116,5.116,0,0,1,.68-2.679l1.431.477a4.506,4.506,0,0,0-.636,2.248c0,1.181.682,1.817,1.5,1.817.908,0,1.316-.636,1.884-2.066.7-1.885,1.659-2.884,3.294-2.884,1.952,0,3.315,1.521,3.315,4.087a6.272,6.272,0,0,1-.772,3.089Z" transform="translate(-841.466 -1724.278)" fill="red"/>
        <path id="Trazado_100227" data-name="Trazado 100227" d="M850.185,1896.947c-1.409,0-2.543.023-3.587.091v-1.794l1.884-.114v-.044a4.244,4.244,0,0,1-2.134-3.884c0-2.679,2.248-4.677,5.586-4.677,3.951,0,5.9,2.43,5.9,5a3.83,3.83,0,0,1-1.725,3.384v.045h5.972v2Zm2.93-2a3.2,3.2,0,0,0,.817-.091,3.056,3.056,0,0,0,2.339-2.974c0-2.113-1.725-3.339-4.246-3.339-2.2,0-4.088,1.135-4.088,3.248a3.187,3.187,0,0,0,2.476,3.042,4.756,4.756,0,0,0,.794.114Z" transform="translate(-841.466 -1726.994)" fill="red"/>
        <path id="Trazado_100228" data-name="Trazado 100228" d="M854.954,1878.461a18.581,18.581,0,0,0,2.634-.159v1.794l-1.386.181v.068a4.06,4.06,0,0,1,1.635,3.361,3.131,3.131,0,0,1-3.156,3.361c-2.656,0-4.11-2.362-4.087-6.607h-.228a2.257,2.257,0,0,0-2.544,2.5,5.3,5.3,0,0,0,.818,2.884l-1.34.454a7.112,7.112,0,0,1-.953-3.633c0-3.384,2.293-4.2,4.5-4.2Zm-2.975,1.952c-.046,2.18.34,4.656,2.474,4.656a1.751,1.751,0,0,0,1.908-1.863,2.774,2.774,0,0,0-1.84-2.7,2.04,2.04,0,0,0-.636-.091Z" transform="translate(-841.466 -1729.167)" fill="red"/>
        <path id="Trazado_100229" data-name="Trazado 100229" d="M842.487,1876.314v-2h16.122v2Z" transform="translate(-842.487 -1730.221)" fill="red"/>
        <path id="Trazado_100230" data-name="Trazado 100230" d="M842.487,1864.171H855.77c.976,0,2.089-.023,2.838-.091v1.794l-1.908.091v.046a4.028,4.028,0,0,1,2.157,3.723c0,2.656-2.247,4.722-5.586,4.722-3.678.024-5.9-2.27-5.9-4.927a3.653,3.653,0,0,1,1.657-3.315v-.045h-6.539Zm9.605,2a3.71,3.71,0,0,0-.864.091,2.942,2.942,0,0,0-2.292,2.884c0,2.067,1.816,3.292,4.222,3.292,2.249,0,4.089-1.113,4.089-3.247a3.026,3.026,0,0,0-2.407-2.929,3.177,3.177,0,0,0-.841-.091Z" transform="translate(-842.487 -1732.927)" fill="red"/>
        <path id="Trazado_100231" data-name="Trazado 100231" d="M854.954,1855.441a18.581,18.581,0,0,0,2.634-.159v1.794l-1.386.181v.068a4.06,4.06,0,0,1,1.635,3.361,3.131,3.131,0,0,1-3.156,3.361c-2.656,0-4.11-2.362-4.087-6.607h-.228a2.257,2.257,0,0,0-2.544,2.5,5.3,5.3,0,0,0,.818,2.884l-1.34.454a7.112,7.112,0,0,1-.953-3.633c0-3.384,2.293-4.2,4.5-4.2Zm-2.975,1.952c-.046,2.18.34,4.656,2.474,4.656a1.751,1.751,0,0,0,1.908-1.863,2.774,2.774,0,0,0-1.84-2.7,2.04,2.04,0,0,0-.636-.091Z" transform="translate(-841.466 -1735.253)" fill="red"/>
        <path id="Trazado_100232" data-name="Trazado 100232" d="M842.774,1845.658a15.044,15.044,0,0,0,9.31,2.839,15.377,15.377,0,0,0,9.2-2.839v1.544a14.67,14.67,0,0,1-9.219,2.975,15.04,15.04,0,0,1-9.288-2.975Z" transform="translate(-842.411 -1737.797)" fill="red"/>
        <path id="Trazado_100233" data-name="Trazado 100233" d="M852.456,1844.7a3.5,3.5,0,0,0,3.792-3.748,7.133,7.133,0,0,0-.568-3.042l1.431-.364a8.965,8.965,0,0,1,.7,3.679c0,3.361-2.249,5.4-5.54,5.4-3.315,0-5.927-1.976-5.927-5.177,0-3.587,3.156-4.518,5.177-4.518a4.858,4.858,0,0,1,.931.067Zm-1.43-5.836c-1.272-.023-3.248.522-3.248,2.748,0,2.043,1.862,2.906,3.248,3.066Z" transform="translate(-841.466 -1740.104)" fill="red"/>
        <path id="Trazado_100234" data-name="Trazado 100234" d="M845.591,1834.289a1.187,1.187,0,0,1-1.226,1.2,1.2,1.2,0,0,1-1.249-1.248,1.238,1.238,0,1,1,2.476.023Zm16.076,3.906a3.188,3.188,0,0,0-.84-2.18c-.615-.546-1.5-.772-4.133-.772h-9.241v-2h10.012c2.135,0,3.521.34,4.52,1.316a5.072,5.072,0,0,1,1.248,3.406Z" transform="translate(-842.321 -1741.139)" fill="red"/>
        <path id="Trazado_100235" data-name="Trazado 100235" d="M852.456,1831.337a3.5,3.5,0,0,0,3.792-3.746,7.144,7.144,0,0,0-.568-3.043l1.431-.363a8.959,8.959,0,0,1,.7,3.678c0,3.361-2.249,5.405-5.54,5.405-3.315,0-5.927-1.976-5.927-5.177,0-3.588,3.156-4.519,5.177-4.519a4.864,4.864,0,0,1,.931.068Zm-1.43-5.835c-1.272-.024-3.248.522-3.248,2.747,0,2.043,1.862,2.907,3.248,3.065Z" transform="translate(-841.466 -1743.636)" fill="red"/>
        <path id="Trazado_100236" data-name="Trazado 100236" d="M846.546,1818.926l6.154-2.157c1.02-.364,1.929-.659,2.839-.886v-.068c-.909-.249-1.818-.568-2.839-.931l-6.154-2.134v-2.089l10.99,4.314v1.907l-10.99,4.179Z" transform="translate(-841.414 -1747.049)" fill="red"/>
        <path id="Trazado_100237" data-name="Trazado 100237" d="M852.456,1810.077a3.5,3.5,0,0,0,3.792-3.746,7.139,7.139,0,0,0-.568-3.043l1.431-.363a8.953,8.953,0,0,1,.7,3.678c0,3.361-2.249,5.4-5.54,5.4-3.315,0-5.927-1.975-5.927-5.176,0-3.588,3.156-4.519,5.177-4.519a4.84,4.84,0,0,1,.931.068Zm-1.43-5.836c-1.272-.023-3.248.522-3.248,2.749,0,2.043,1.862,2.905,3.248,3.065Z" transform="translate(-841.466 -1749.256)" fill="red"/>
        <path id="Trazado_100238" data-name="Trazado 100238" d="M850.026,1801.49c-1.293,0-2.406.023-3.428.091v-1.749l2.157-.09v-.07a3.323,3.323,0,0,1-2.407-3.065,4.286,4.286,0,0,1,.044-.545h1.886a5.408,5.408,0,0,0-.046.681,2.8,2.8,0,0,0,2.543,2.679,6.2,6.2,0,0,0,.932.068h5.88v2Z" transform="translate(-841.466 -1750.908)" fill="red"/>
        <path id="Trazado_100239" data-name="Trazado 100239" d="M844.463,1792.747H847.1v-2.861h1.521v2.861h5.9c1.362,0,2.133-.386,2.133-1.5a3.732,3.732,0,0,0-.135-1.158l1.521-.091a5.438,5.438,0,0,1,.273,1.771,2.852,2.852,0,0,1-.841,2.157,4.294,4.294,0,0,1-2.884.771h-5.971v1.7H847.1v-1.7h-2.022Z" transform="translate(-841.965 -1752.541)" fill="red"/>
        <path id="Trazado_100240" data-name="Trazado 100240" d="M845.591,1787.621a1.188,1.188,0,0,1-1.226,1.2,1.238,1.238,0,1,1,1.226-1.226Zm12.852.953h-10.99v-2h10.99Z" transform="translate(-842.321 -1753.476)" fill="red"/>
        <path id="Trazado_100241" data-name="Trazado 100241" d="M857.18,1777.72a7.735,7.735,0,0,1,.636,3.157,5.222,5.222,0,0,1-5.61,5.472,5.6,5.6,0,0,1-5.858-5.9,6.3,6.3,0,0,1,.59-2.77l1.521.454a4.9,4.9,0,0,0-.522,2.316c0,2.52,1.884,3.883,4.155,3.883a3.768,3.768,0,0,0,4.11-3.814,5.727,5.727,0,0,0-.522-2.453Z" transform="translate(-841.466 -1755.768)" fill="red"/>
        <path id="Trazado_100242" data-name="Trazado 100242" d="M854.954,1769.772a18.4,18.4,0,0,0,2.634-.159v1.794l-1.386.182v.067a4.062,4.062,0,0,1,1.635,3.362,3.131,3.131,0,0,1-3.156,3.361c-2.656,0-4.11-2.362-4.087-6.609h-.228a2.259,2.259,0,0,0-2.544,2.5,5.3,5.3,0,0,0,.818,2.884l-1.34.454a7.116,7.116,0,0,1-.953-3.634c0-3.382,2.293-4.2,4.5-4.2Zm-2.975,1.954c-.046,2.18.34,4.654,2.474,4.654a1.75,1.75,0,0,0,1.908-1.861,2.776,2.776,0,0,0-1.84-2.7,2.082,2.082,0,0,0-.636-.09Z" transform="translate(-841.466 -1757.9)" fill="red"/>
        <path id="Trazado_100243" data-name="Trazado 100243" d="M842.487,1767.626v-2h16.122v2Z" transform="translate(-842.487 -1758.953)" fill="red"/>
        <path id="Trazado_100244" data-name="Trazado 100244" d="M861.28,1764.866a15.446,15.446,0,0,0-9.264-2.837,15.273,15.273,0,0,0-9.242,2.837v-1.544a14.65,14.65,0,0,1,9.242-2.974,15.025,15.025,0,0,1,9.264,2.974Z" transform="translate(-842.411 -1760.349)" fill="red"/>
      </g>
      <g id="Grupo_53464" data-name="Grupo 53464" transform="translate(543.666 1780.429)">
        <path id="Trazado_100245" data-name="Trazado 100245" d="M559.362,1954.455a9.7,9.7,0,0,1,.728,4.041c0,4.315-2.726,7.539-7.743,7.539a7.6,7.6,0,0,1-8.016-7.992,8.776,8.776,0,0,1,.658-3.634l1.635.5a7.017,7.017,0,0,0-.636,3.066c0,3.587,2.295,5.972,6.291,5.972,3.746,0,6.13-2.157,6.13-5.859a7.949,7.949,0,0,0-.635-3.247Z" transform="translate(-543.49 -1722.954)" fill="red"/>
        <path id="Trazado_100246" data-name="Trazado 100246" d="M553.833,1953.45a3.5,3.5,0,0,0,3.792-3.748,7.143,7.143,0,0,0-.568-3.043l1.431-.363a8.965,8.965,0,0,1,.7,3.679c0,3.361-2.249,5.4-5.54,5.4-3.315,0-5.927-1.976-5.927-5.178,0-3.587,3.156-4.519,5.178-4.519a4.861,4.861,0,0,1,.931.068Zm-1.431-5.836c-1.271-.023-3.247.522-3.247,2.748,0,2.043,1.862,2.907,3.247,3.065Z" transform="translate(-542.593 -1725.261)" fill="red"/>
        <path id="Trazado_100247" data-name="Trazado 100247" d="M550.949,1945.683c-1.158,0-2.066.023-2.974.091V1944l1.793-.114v-.044a4.07,4.07,0,0,1-2.043-3.634c0-1.521.908-3.883,4.677-3.883h6.563v2h-6.336c-1.77,0-3.27.659-3.27,2.542a2.883,2.883,0,0,0,2.043,2.679,2.97,2.97,0,0,0,.932.136h6.63v2Z" transform="translate(-542.593 -1727.734)" fill="red"/>
        <path id="Trazado_100248" data-name="Trazado 100248" d="M545.84,1932.528h2.634v-2.861h1.521v2.861h5.9c1.362,0,2.133-.387,2.133-1.5a3.737,3.737,0,0,0-.135-1.159l1.521-.09a5.431,5.431,0,0,1,.273,1.771,2.852,2.852,0,0,1-.841,2.157,4.292,4.292,0,0,1-2.884.771h-5.972v1.7h-1.521v-1.7h-2.022Z" transform="translate(-543.091 -1729.495)" fill="red"/>
        <path id="Trazado_100249" data-name="Trazado 100249" d="M551.4,1929.025c-1.293,0-2.406.023-3.428.091v-1.749l2.157-.091v-.068a3.325,3.325,0,0,1-2.407-3.065,4.249,4.249,0,0,1,.044-.545h1.886a5.38,5.38,0,0,0-.047.681,2.8,2.8,0,0,0,2.544,2.679,6.373,6.373,0,0,0,.932.067h5.88v2Z" transform="translate(-542.593 -1731.1)" fill="red"/>
        <path id="Trazado_100250" data-name="Trazado 100250" d="M559.214,1919.8c0,2.952-2.178,5.269-5.654,5.269-3.678,0-5.835-2.43-5.835-5.451,0-3.156,2.294-5.29,5.632-5.29,4.088,0,5.858,2.838,5.858,5.449Zm-1.5-.091c0-1.908-1.794-3.338-4.292-3.338-1.862,0-4.2.93-4.2,3.292,0,2.339,2.18,3.361,4.27,3.361,2.406,0,4.224-1.362,4.224-3.292Z" transform="translate(-542.593 -1733.549)" fill="red"/>
        <path id="Trazado_100251" data-name="Trazado 100251" d="M560.038,1909.572h-9.469v1.521h-1.521v-1.521h-.523a5.193,5.193,0,0,1-3.837-1.295,3.807,3.807,0,0,1-1.022-2.656,4.537,4.537,0,0,1,.319-1.7l1.542.25a3.122,3.122,0,0,0-.249,1.295c0,1.68,1.5,2.134,3.18,2.134h.59v-2.658h1.521v2.635h9.469Z" transform="translate(-543.666 -1736.302)" fill="red"/>
        <path id="Trazado_100252" data-name="Trazado 100252" d="M551.4,1904.425c-1.293,0-2.406.023-3.428.091v-1.749l2.157-.09v-.069a3.324,3.324,0,0,1-2.407-3.065,4.252,4.252,0,0,1,.044-.545h1.886a5.4,5.4,0,0,0-.047.681,2.8,2.8,0,0,0,2.544,2.679,6.174,6.174,0,0,0,.932.068h5.88v2Z" transform="translate(-542.593 -1737.603)" fill="red"/>
        <path id="Trazado_100253" data-name="Trazado 100253" d="M553.833,1898.324a3.5,3.5,0,0,0,3.792-3.746,7.139,7.139,0,0,0-.568-3.043l1.431-.363a8.954,8.954,0,0,1,.7,3.678c0,3.361-2.249,5.4-5.54,5.4-3.315,0-5.927-1.975-5.927-5.176,0-3.588,3.156-4.519,5.178-4.519a4.841,4.841,0,0,1,.931.068Zm-1.431-5.836c-1.271-.023-3.247.522-3.247,2.749,0,2.043,1.862,2.907,3.247,3.065Z" transform="translate(-542.593 -1739.834)" fill="red"/>
        <path id="Trazado_100254" data-name="Trazado 100254" d="M550.949,1890.558c-1.158,0-2.066.023-2.974.091v-1.771l1.793-.114v-.045a4.07,4.07,0,0,1-2.043-3.632c0-1.522.908-3.883,4.677-3.883h6.563v2h-6.336c-1.77,0-3.27.659-3.27,2.543a2.886,2.886,0,0,0,2.043,2.68,2.971,2.971,0,0,0,.932.135h6.63v2Z" transform="translate(-542.593 -1742.307)" fill="red"/>
        <path id="Trazado_100255" data-name="Trazado 100255" d="M545.84,1877.4h2.634v-2.861h1.521v2.861h5.9c1.362,0,2.133-.385,2.133-1.5a3.728,3.728,0,0,0-.135-1.158l1.521-.091a5.432,5.432,0,0,1,.273,1.771,2.851,2.851,0,0,1-.841,2.157,4.3,4.3,0,0,1-2.884.772h-5.972v1.7h-1.521v-1.7h-2.022Z" transform="translate(-543.091 -1744.068)" fill="red"/>
        <path id="Trazado_100256" data-name="Trazado 100256" d="M553.833,1873.6a3.5,3.5,0,0,0,3.792-3.746,7.138,7.138,0,0,0-.568-3.043l1.431-.363a8.951,8.951,0,0,1,.7,3.678c0,3.361-2.249,5.4-5.54,5.4-3.315,0-5.927-1.975-5.927-5.176,0-3.588,3.156-4.519,5.178-4.519a4.766,4.766,0,0,1,.931.068Zm-1.431-5.836c-1.271-.023-3.247.522-3.247,2.749,0,2.043,1.862,2.906,3.247,3.065Z" transform="translate(-542.593 -1746.371)" fill="red"/>
        <path id="Trazado_100257" data-name="Trazado 100257" d="M544.151,1856.658a15.044,15.044,0,0,0,9.309,2.837,15.387,15.387,0,0,0,9.2-2.837v1.544a14.678,14.678,0,0,1-9.218,2.974,15.046,15.046,0,0,1-9.288-2.974Z" transform="translate(-543.538 -1748.796)" fill="red"/>
        <path id="Trazado_100258" data-name="Trazado 100258" d="M553.833,1855.7a3.5,3.5,0,0,0,3.792-3.746,7.139,7.139,0,0,0-.568-3.043l1.431-.363a8.957,8.957,0,0,1,.7,3.678c0,3.361-2.249,5.405-5.54,5.405-3.315,0-5.927-1.976-5.927-5.177,0-3.588,3.156-4.519,5.178-4.519a4.841,4.841,0,0,1,.931.068Zm-1.431-5.836c-1.271-.023-3.247.523-3.247,2.749,0,2.043,1.862,2.907,3.247,3.065Z" transform="translate(-542.593 -1751.103)" fill="red"/>
        <path id="Trazado_100259" data-name="Trazado 100259" d="M546.968,1845.288a1.188,1.188,0,0,1-1.226,1.2,1.205,1.205,0,0,1-1.249-1.249,1.238,1.238,0,0,1,2.476.023Zm16.076,3.906a3.19,3.19,0,0,0-.84-2.18c-.614-.545-1.5-.772-4.133-.772H548.83v-2h10.012c2.135,0,3.521.34,4.52,1.318a5.07,5.07,0,0,1,1.248,3.406Z" transform="translate(-543.448 -1752.138)" fill="red"/>
        <path id="Trazado_100260" data-name="Trazado 100260" d="M553.833,1842.337a3.5,3.5,0,0,0,3.792-3.747,7.133,7.133,0,0,0-.568-3.042l1.431-.363a8.954,8.954,0,0,1,.7,3.678c0,3.361-2.249,5.4-5.54,5.4-3.315,0-5.927-1.975-5.927-5.177,0-3.587,3.156-4.518,5.178-4.518a4.961,4.961,0,0,1,.931.067ZM552.4,1836.5c-1.271-.023-3.247.522-3.247,2.748,0,2.044,1.862,2.907,3.247,3.066Z" transform="translate(-542.593 -1754.635)" fill="red"/>
        <path id="Trazado_100261" data-name="Trazado 100261" d="M547.923,1829.925l6.154-2.157c1.02-.363,1.929-.657,2.839-.885v-.068c-.909-.25-1.818-.568-2.839-.932l-6.154-2.134v-2.089l10.99,4.314v1.908l-10.99,4.178Z" transform="translate(-542.541 -1758.048)" fill="red"/>
        <path id="Trazado_100262" data-name="Trazado 100262" d="M553.833,1821.077a3.5,3.5,0,0,0,3.792-3.748,7.142,7.142,0,0,0-.568-3.043l1.431-.363a8.962,8.962,0,0,1,.7,3.678c0,3.362-2.249,5.405-5.54,5.405-3.315,0-5.927-1.976-5.927-5.177,0-3.587,3.156-4.519,5.178-4.519a4.864,4.864,0,0,1,.931.068Zm-1.431-5.836c-1.271-.023-3.247.522-3.247,2.747,0,2.043,1.862,2.907,3.247,3.065Z" transform="translate(-542.593 -1760.255)" fill="red"/>
        <path id="Trazado_100263" data-name="Trazado 100263" d="M551.4,1812.489c-1.293,0-2.406.023-3.428.091v-1.749l2.157-.09v-.07a3.323,3.323,0,0,1-2.407-3.065,4.274,4.274,0,0,1,.044-.545h1.886a5.4,5.4,0,0,0-.047.681,2.8,2.8,0,0,0,2.544,2.679,6.205,6.205,0,0,0,.932.068h5.88v2Z" transform="translate(-542.593 -1761.907)" fill="red"/>
        <path id="Trazado_100264" data-name="Trazado 100264" d="M545.84,1803.746h2.634v-2.86h1.521v2.86h5.9c1.362,0,2.133-.385,2.133-1.5a3.733,3.733,0,0,0-.135-1.158l1.521-.091a5.438,5.438,0,0,1,.273,1.771,2.849,2.849,0,0,1-.841,2.157,4.287,4.287,0,0,1-2.884.772h-5.972v1.7h-1.521v-1.7h-2.022Z" transform="translate(-543.091 -1763.539)" fill="red"/>
        <path id="Trazado_100265" data-name="Trazado 100265" d="M546.968,1798.62a1.189,1.189,0,0,1-1.226,1.2,1.238,1.238,0,1,1,1.226-1.228Zm12.852.955H548.83v-2h10.99Z" transform="translate(-543.448 -1764.474)" fill="red"/>
        <path id="Trazado_100266" data-name="Trazado 100266" d="M558.557,1788.721a7.734,7.734,0,0,1,.636,3.156,5.223,5.223,0,0,1-5.61,5.473,5.6,5.6,0,0,1-5.858-5.9,6.3,6.3,0,0,1,.591-2.77l1.521.454a4.9,4.9,0,0,0-.522,2.316c0,2.521,1.884,3.883,4.155,3.883a3.768,3.768,0,0,0,4.11-3.815,5.74,5.74,0,0,0-.522-2.453Z" transform="translate(-542.593 -1766.767)" fill="red"/>
        <path id="Trazado_100267" data-name="Trazado 100267" d="M556.331,1780.772a18.441,18.441,0,0,0,2.634-.159v1.794l-1.386.181v.068a4.059,4.059,0,0,1,1.635,3.361,3.131,3.131,0,0,1-3.156,3.361c-2.656,0-4.11-2.362-4.086-6.608h-.228a2.257,2.257,0,0,0-2.544,2.5,5.3,5.3,0,0,0,.818,2.884l-1.34.454a7.111,7.111,0,0,1-.953-3.632c0-3.384,2.294-4.2,4.5-4.2Zm-2.975,1.952c-.046,2.18.34,4.655,2.474,4.655a1.751,1.751,0,0,0,1.908-1.862,2.774,2.774,0,0,0-1.84-2.7,2.04,2.04,0,0,0-.636-.091Z" transform="translate(-542.593 -1768.899)" fill="red"/>
        <path id="Trazado_100268" data-name="Trazado 100268" d="M543.864,1778.626v-2h16.122v2Z" transform="translate(-543.614 -1769.952)" fill="red"/>
        <path id="Trazado_100269" data-name="Trazado 100269" d="M562.657,1775.867a15.446,15.446,0,0,0-9.264-2.839,15.273,15.273,0,0,0-9.242,2.839v-1.544a14.643,14.643,0,0,1,9.242-2.975,15.017,15.017,0,0,1,9.264,2.975Z" transform="translate(-543.538 -1771.348)" fill="red"/>
      </g>
      <g id="Grupo_53465" data-name="Grupo 53465" transform="translate(623.74 1870.246)">
        <path id="Trazado_100270" data-name="Trazado 100270" d="M610.63,1853.523l-1.589,4.814H607l5.2-15.3h2.385l5.223,15.3h-2.112l-1.635-4.814Zm5.018-1.544-1.522-4.4c-.317-1-.544-1.908-.771-2.793h-.068c-.2.885-.454,1.838-.748,2.77l-1.5,4.427Z" transform="translate(-606.998 -1842.215)" fill="red"/>
        <path id="Trazado_100271" data-name="Trazado 100271" d="M618.849,1842.386h2v16.123h-2Z" transform="translate(-603.865 -1842.386)" fill="red"/>
        <path id="Trazado_100272" data-name="Trazado 100272" d="M625.755,1844.362V1847h2.861v1.521h-2.861v5.9c0,1.362.387,2.134,1.5,2.134a3.721,3.721,0,0,0,1.158-.136l.091,1.521a5.436,5.436,0,0,1-1.771.273,2.85,2.85,0,0,1-2.157-.84,4.3,4.3,0,0,1-.773-2.884v-5.973h-1.7V1847h1.7v-2.02Z" transform="translate(-603.006 -1841.864)" fill="red"/>
        <path id="Trazado_100273" data-name="Trazado 100273" d="M638.24,1854.416c0,1.158.023,2.157.091,3.02H636.56l-.114-1.794H636.4a4.105,4.105,0,0,1-3.633,2.043c-1.726,0-3.793-.976-3.793-4.813v-6.427h2v6.063c0,2.089.659,3.52,2.453,3.52a2.873,2.873,0,0,0,2.634-1.84,2.731,2.731,0,0,0,.181-1.021v-6.721h2Z" transform="translate(-601.188 -1841.313)" fill="red"/>
        <path id="Trazado_100274" data-name="Trazado 100274" d="M638.943,1849.926c0-1.295-.023-2.407-.091-3.429H640.6l.091,2.157h.068a3.323,3.323,0,0,1,3.065-2.407,3.816,3.816,0,0,1,.545.047v1.884a5.692,5.692,0,0,0-.681-.045,2.8,2.8,0,0,0-2.679,2.544,6.176,6.176,0,0,0-.067.931v5.882h-2Z" transform="translate(-598.577 -1841.365)" fill="red"/>
        <path id="Trazado_100275" data-name="Trazado 100275" d="M652.63,1854.853a18.62,18.62,0,0,0,.158,2.635H651l-.183-1.385h-.067a4.063,4.063,0,0,1-3.362,1.635,3.131,3.131,0,0,1-3.359-3.156c0-2.656,2.361-4.111,6.608-4.088v-.226a2.258,2.258,0,0,0-2.5-2.544,5.291,5.291,0,0,0-2.883.817l-.455-1.339a7.123,7.123,0,0,1,3.633-.955c3.385,0,4.2,2.293,4.2,4.5Zm-1.953-2.974c-2.18-.047-4.655.34-4.655,2.474a1.751,1.751,0,0,0,1.862,1.908,2.776,2.776,0,0,0,2.7-1.84,2.079,2.079,0,0,0,.09-.636Z" transform="translate(-597.21 -1841.365)" fill="red"/>
        <path id="Trazado_100276" data-name="Trazado 100276" d="M666.825,1842.386v13.283c0,.977.023,2.09.091,2.84h-1.793l-.091-1.908h-.047a4.027,4.027,0,0,1-3.724,2.157c-2.656,0-4.722-2.248-4.722-5.586-.024-3.678,2.271-5.9,4.927-5.9a3.656,3.656,0,0,1,3.315,1.657h.044v-6.539Zm-2,9.605a3.693,3.693,0,0,0-.09-.862,2.942,2.942,0,0,0-2.884-2.293c-2.066,0-3.292,1.817-3.292,4.223,0,2.248,1.113,4.088,3.247,4.088a3.024,3.024,0,0,0,2.929-2.407,3.165,3.165,0,0,0,.09-.84Z" transform="translate(-593.901 -1842.386)" fill="red"/>
        <path id="Trazado_100277" data-name="Trazado 100277" d="M668.6,1852.355a3.5,3.5,0,0,0,3.746,3.793,7.158,7.158,0,0,0,3.043-.568l.363,1.431a8.957,8.957,0,0,1-3.678.7c-3.361,0-5.4-2.248-5.4-5.541,0-3.315,1.975-5.927,5.176-5.927,3.588,0,4.52,3.157,4.52,5.177a4.834,4.834,0,0,1-.07.931Zm5.835-1.43c.024-1.272-.522-3.247-2.747-3.247-2.043,0-2.906,1.863-3.065,3.247Z" transform="translate(-591.224 -1841.365)" fill="red"/>
        <path id="Trazado_100278" data-name="Trazado 100278" d="M679.981,1855.444a5.651,5.651,0,0,0,2.658.772c1.43,0,2.111-.7,2.111-1.635,0-.955-.568-1.454-2.022-2-2-.727-2.928-1.816-2.928-3.11,0-1.771,1.453-3.225,3.792-3.225a5.1,5.1,0,0,1,2.679.681l-.477,1.431a4.5,4.5,0,0,0-2.248-.636c-1.181,0-1.817.681-1.817,1.5,0,.909.636,1.317,2.066,1.885,1.885.7,2.884,1.658,2.884,3.292,0,1.953-1.521,3.315-4.086,3.315a6.25,6.25,0,0,1-3.088-.772Z" transform="translate(-587.83 -1841.365)" fill="red"/>
        <path id="Trazado_100279" data-name="Trazado 100279" d="M688.215,1845.49a1.189,1.189,0,0,1-1.2-1.226,1.238,1.238,0,1,1,1.226,1.226Zm-.953,12.852v-10.991h2v10.991Z" transform="translate(-585.846 -1842.22)" fill="red"/>
        <path id="Trazado_100280" data-name="Trazado 100280" d="M691.294,1855.444a5.647,5.647,0,0,0,2.658.772c1.429,0,2.11-.7,2.11-1.635,0-.955-.568-1.454-2.02-2-2-.727-2.93-1.816-2.93-3.11,0-1.771,1.454-3.225,3.792-3.225a5.109,5.109,0,0,1,2.68.681l-.477,1.431a4.5,4.5,0,0,0-2.249-.636c-1.18,0-1.816.681-1.816,1.5,0,.909.636,1.317,2.066,1.885,1.885.7,2.884,1.658,2.884,3.292,0,1.953-1.521,3.315-4.088,3.315a6.25,6.25,0,0,1-3.087-.772Z" transform="translate(-584.84 -1841.365)" fill="red"/>
        <path id="Trazado_100281" data-name="Trazado 100281" d="M706.444,1854.853a18.61,18.61,0,0,0,.158,2.635h-1.793l-.182-1.385h-.068a4.063,4.063,0,0,1-3.361,1.635,3.13,3.13,0,0,1-3.359-3.156c0-2.656,2.361-4.111,6.606-4.088v-.226a2.257,2.257,0,0,0-2.5-2.544,5.3,5.3,0,0,0-2.884.817l-.454-1.339a7.119,7.119,0,0,1,3.633-.955c3.385,0,4.2,2.293,4.2,4.5Zm-1.953-2.974c-2.178-.047-4.654.34-4.654,2.474a1.75,1.75,0,0,0,1.861,1.908,2.775,2.775,0,0,0,2.7-1.84,2.043,2.043,0,0,0,.09-.636Z" transform="translate(-582.984 -1841.365)" fill="red"/>
        <path id="Trazado_100282" data-name="Trazado 100282" d="M715.339,1842.674a15.043,15.043,0,0,0-2.838,9.31,15.373,15.373,0,0,0,2.838,9.2h-1.544a14.684,14.684,0,0,1-2.975-9.219,15.042,15.042,0,0,1,2.975-9.287Z" transform="translate(-579.552 -1842.31)" fill="red"/>
        <path id="Trazado_100283" data-name="Trazado 100283" d="M717.382,1852.355a3.5,3.5,0,0,0,3.747,3.793,7.156,7.156,0,0,0,3.042-.568l.363,1.431a8.956,8.956,0,0,1-3.678.7c-3.361,0-5.4-2.248-5.4-5.541,0-3.315,1.975-5.927,5.177-5.927,3.587,0,4.519,3.157,4.519,5.177a4.834,4.834,0,0,1-.069.931Zm5.835-1.43c.024-1.272-.522-3.247-2.746-3.247-2.044,0-2.907,1.863-3.066,3.247Z" transform="translate(-578.327 -1841.365)" fill="red"/>
        <path id="Trazado_100284" data-name="Trazado 100284" d="M722.94,1861.567a3.2,3.2,0,0,0,2.181-.841c.544-.613.771-1.5.771-4.132v-9.242h2v10.014c0,2.135-.34,3.52-1.316,4.519a5.069,5.069,0,0,1-3.406,1.249Zm3.906-16.076a1.188,1.188,0,0,1-1.2-1.226,1.2,1.2,0,0,1,1.248-1.249,1.238,1.238,0,0,1-.022,2.476Z" transform="translate(-576.348 -1842.22)" fill="red"/>
        <path id="Trazado_100285" data-name="Trazado 100285" d="M730.743,1852.355a3.5,3.5,0,0,0,3.746,3.793,7.166,7.166,0,0,0,3.043-.568l.363,1.431a8.966,8.966,0,0,1-3.678.7c-3.362,0-5.405-2.248-5.405-5.541,0-3.315,1.976-5.927,5.177-5.927,3.588,0,4.519,3.157,4.519,5.177a4.736,4.736,0,0,1-.07.931Zm5.835-1.43c.023-1.272-.522-3.247-2.747-3.247-2.043,0-2.907,1.863-3.066,3.247Z" transform="translate(-574.796 -1841.365)" fill="red"/>
        <path id="Trazado_100286" data-name="Trazado 100286" d="M742.244,1842.386h2v6.858h.046a3.556,3.556,0,0,1,1.43-1.407,3.887,3.887,0,0,1,2.043-.569c1.477,0,3.837.909,3.837,4.7v6.54h-2v-6.336c0-1.771-.657-3.248-2.544-3.248a2.9,2.9,0,0,0-2.679,2,2.412,2.412,0,0,0-.135.953v6.631h-2Z" transform="translate(-571.245 -1842.386)" fill="red"/>
        <path id="Trazado_100287" data-name="Trazado 100287" d="M756.848,1857.737c-2.951,0-5.267-2.18-5.267-5.654,0-3.678,2.43-5.836,5.449-5.836,3.156,0,5.291,2.293,5.291,5.633,0,4.086-2.839,5.858-5.451,5.858Zm.091-1.5c1.908,0,3.338-1.794,3.338-4.292,0-1.861-.932-4.2-3.292-4.2-2.338,0-3.361,2.18-3.361,4.268,0,2.407,1.362,4.224,3.292,4.224Z" transform="translate(-568.776 -1841.365)" fill="red"/>
        <path id="Trazado_100288" data-name="Trazado 100288" d="M762.087,1849.926c0-1.295-.024-2.407-.091-3.429h1.749l.091,2.157h.068a3.322,3.322,0,0,1,3.065-2.407,3.847,3.847,0,0,1,.545.047v1.884a5.692,5.692,0,0,0-.681-.045,2.8,2.8,0,0,0-2.679,2.544,6.174,6.174,0,0,0-.068.931v5.882h-2Z" transform="translate(-566.023 -1841.365)" fill="red"/>
        <path id="Trazado_100289" data-name="Trazado 100289" d="M769.017,1845.49a1.188,1.188,0,0,1-1.2-1.226,1.238,1.238,0,1,1,1.226,1.226Zm-.953,12.852v-10.991h2v10.991Z" transform="translate(-564.486 -1842.22)" fill="red"/>
        <path id="Trazado_100290" data-name="Trazado 100290" d="M771.224,1856.278l4.974-6.472c.5-.613.931-1.135,1.453-1.726v-.044h-5.972v-1.591h8.379v1.249l-4.929,6.4c-.454.591-.908,1.158-1.407,1.7v.044h6.427v1.59h-8.925Z" transform="translate(-563.584 -1841.313)" fill="red"/>
        <path id="Trazado_100291" data-name="Trazado 100291" d="M784.411,1857.737c-2.951,0-5.267-2.18-5.267-5.654,0-3.678,2.43-5.836,5.451-5.836,3.156,0,5.29,2.293,5.29,5.633,0,4.086-2.838,5.858-5.449,5.858Zm.091-1.5c1.908,0,3.338-1.794,3.338-4.292,0-1.861-.931-4.2-3.291-4.2-2.339,0-3.362,2.18-3.362,4.268,0,2.407,1.363,4.224,3.294,4.224Z" transform="translate(-561.49 -1841.365)" fill="red"/>
        <path id="Trazado_100292" data-name="Trazado 100292" d="M789.65,1849.472c0-1.158-.024-2.067-.092-2.975h1.771l.114,1.794h.046a4.07,4.07,0,0,1,3.634-2.044c1.521,0,3.882.909,3.882,4.678v6.563h-2v-6.336c0-1.771-.659-3.27-2.544-3.27a2.883,2.883,0,0,0-2.679,2.043,3,3,0,0,0-.135.931v6.631h-2Z" transform="translate(-558.737 -1841.365)" fill="red"/>
        <path id="Trazado_100293" data-name="Trazado 100293" d="M802.192,1844.362V1847h2.861v1.521h-2.861v5.9c0,1.362.387,2.134,1.5,2.134a3.722,3.722,0,0,0,1.158-.136l.09,1.521a5.427,5.427,0,0,1-1.77.273,2.85,2.85,0,0,1-2.157-.84,4.289,4.289,0,0,1-.774-2.884v-5.973h-1.7V1847h1.7v-2.02Z" transform="translate(-556.363 -1841.864)" fill="red"/>
        <path id="Trazado_100294" data-name="Trazado 100294" d="M813.391,1854.853a18.812,18.812,0,0,0,.158,2.635h-1.793l-.182-1.385h-.068a4.062,4.062,0,0,1-3.361,1.635,3.13,3.13,0,0,1-3.359-3.156c0-2.656,2.361-4.111,6.606-4.088v-.226a2.257,2.257,0,0,0-2.5-2.544,5.291,5.291,0,0,0-2.883.817l-.455-1.339a7.118,7.118,0,0,1,3.632-.955c3.385,0,4.2,2.293,4.2,4.5Zm-1.952-2.974c-2.18-.047-4.655.34-4.655,2.474a1.751,1.751,0,0,0,1.862,1.908,2.774,2.774,0,0,0,2.7-1.84,2.044,2.044,0,0,0,.091-.636Z" transform="translate(-554.711 -1841.365)" fill="red"/>
        <path id="Trazado_100295" data-name="Trazado 100295" d="M814.123,1842.386h2v16.123h-2Z" transform="translate(-552.243 -1842.386)" fill="red"/>
        <path id="Trazado_100296" data-name="Trazado 100296" d="M817.409,1861.18a15.447,15.447,0,0,0,2.838-9.265,15.269,15.269,0,0,0-2.838-9.241h1.544a14.647,14.647,0,0,1,2.975,9.241,15.026,15.026,0,0,1-2.975,9.265Z" transform="translate(-551.375 -1842.31)" fill="red"/>
      </g>
      <g id="Grupo_53466" data-name="Grupo 53466" transform="translate(591.101 1913.049)">
        <path id="Trazado_100297" data-name="Trazado 100297" d="M581.183,1876.239H588.4v1.45h-5.465v4.45h5.047v1.431h-5.047v6.06h-1.749Z" transform="translate(-581.183 -1876.239)"/>
        <path id="Trazado_100298" data-name="Trazado 100298" d="M588.413,1882.271c0-1.133-.019-2.106-.08-3h1.531l.078,1.889H590a2.908,2.908,0,0,1,2.683-2.106,3.473,3.473,0,0,1,.477.039v1.65a4.878,4.878,0,0,0-.6-.041,2.453,2.453,0,0,0-2.344,2.227,5.487,5.487,0,0,0-.059.814v5.146h-1.749Z" transform="translate(-579.293 -1875.495)"/>
        <path id="Trazado_100299" data-name="Trazado 100299" d="M594.517,1884.4a3.06,3.06,0,0,0,3.278,3.318,6.253,6.253,0,0,0,2.663-.5l.317,1.252a7.808,7.808,0,0,1-3.219.617,4.486,4.486,0,0,1-4.729-4.849c0-2.9,1.728-5.186,4.53-5.186,3.139,0,3.955,2.761,3.955,4.53a4.212,4.212,0,0,1-.061.816Zm5.107-1.253c.019-1.113-.459-2.841-2.406-2.841a2.881,2.881,0,0,0-2.682,2.841Z" transform="translate(-578.105 -1875.495)"/>
        <path id="Trazado_100300" data-name="Trazado 100300" d="M601.267,1881.874c0-1.014-.02-1.809-.081-2.6h1.551l.1,1.57h.039a3.565,3.565,0,0,1,3.18-1.788c1.331,0,3.4.8,3.4,4.093v5.743H607.7v-5.543c0-1.55-.575-2.863-2.224-2.863a2.522,2.522,0,0,0-2.345,1.789,2.592,2.592,0,0,0-.12.814v5.8h-1.747Z" transform="translate(-575.895 -1875.495)"/>
        <path id="Trazado_100301" data-name="Trazado 100301" d="M612.243,1877.4v2.3h2.5v1.333h-2.5v5.166c0,1.192.336,1.867,1.311,1.867a3.26,3.26,0,0,0,1.014-.119l.078,1.332a4.761,4.761,0,0,1-1.549.239,2.5,2.5,0,0,1-1.888-.736,3.757,3.757,0,0,1-.677-2.524v-5.226h-1.489v-1.333h1.489v-1.767Z" transform="translate(-573.818 -1875.932)"/>
        <path id="Trazado_100302" data-name="Trazado 100302" d="M616.154,1884.4a3.061,3.061,0,0,0,3.278,3.318,6.26,6.26,0,0,0,2.664-.5l.317,1.252a7.813,7.813,0,0,1-3.219.617,4.487,4.487,0,0,1-4.73-4.849c0-2.9,1.73-5.186,4.531-5.186,3.139,0,3.954,2.761,3.954,4.53a4.336,4.336,0,0,1-.059.816Zm5.107-1.253c.02-1.113-.458-2.841-2.4-2.841a2.88,2.88,0,0,0-2.682,2.841Z" transform="translate(-572.385 -1875.495)"/>
      </g>
      <g id="Grupo_53467" data-name="Grupo 53467" transform="translate(653.408 2061.88)">
        <path id="Trazado_100303" data-name="Trazado 100303" d="M640.448,2005.01H632.98v6.953h8.354v2.087H630.463v-19.284h10.442v2.089H632.98v6.1h7.467Z" transform="translate(-630.463 -1993.737)"/>
        <path id="Trazado_100304" data-name="Trazado 100304" d="M638.858,2018.12a4.021,4.021,0,0,0,2.747-1.06c.686-.771.971-1.888.971-5.207v-11.645h2.52v12.617c0,2.69-.43,4.435-1.66,5.695a6.393,6.393,0,0,1-4.291,1.573Zm4.922-20.258a1.5,1.5,0,0,1-1.517-1.544,1.518,1.518,0,0,1,1.574-1.574,1.559,1.559,0,0,1-.029,3.118Z" transform="translate(-628.244 -1993.743)"/>
        <path id="Trazado_100305" data-name="Trazado 100305" d="M648.689,2006.513c.057,3.377,2.2,4.778,4.722,4.778a9.035,9.035,0,0,0,3.833-.714l.456,1.8a11.274,11.274,0,0,1-4.635.887c-4.233,0-6.809-2.833-6.809-6.98,0-4.179,2.488-7.469,6.524-7.469,4.52,0,5.693,3.978,5.693,6.523a6.038,6.038,0,0,1-.087,1.174Zm7.353-1.8c.028-1.6-.659-4.092-3.462-4.092-2.575,0-3.662,2.347-3.863,4.092Z" transform="translate(-626.288 -1992.666)"/>
        <path id="Trazado_100306" data-name="Trazado 100306" d="M675.352,1993.952v16.738c0,1.23.03,2.632.115,3.575h-2.261l-.114-2.4h-.058a5.074,5.074,0,0,1-4.692,2.717c-3.347,0-5.95-2.832-5.95-7.037-.029-4.635,2.861-7.439,6.208-7.439a4.6,4.6,0,0,1,4.177,2.089h.057v-8.24Zm-2.517,12.1a4.668,4.668,0,0,0-.114-1.088,3.708,3.708,0,0,0-3.634-2.889c-2.6,0-4.148,2.289-4.148,5.322,0,2.832,1.4,5.15,4.09,5.15a3.812,3.812,0,0,0,3.692-3.033,3.991,3.991,0,0,0,.114-1.058Z" transform="translate(-622.022 -1993.952)"/>
        <path id="Trazado_100307" data-name="Trazado 100307" d="M677.587,2006.513c.057,3.377,2.2,4.778,4.72,4.778a9.028,9.028,0,0,0,3.835-.714l.458,1.8a11.273,11.273,0,0,1-4.635.887c-4.234,0-6.809-2.833-6.809-6.98,0-4.179,2.488-7.469,6.523-7.469,4.52,0,5.693,3.978,5.693,6.523a6.057,6.057,0,0,1-.086,1.174Zm7.352-1.8c.029-1.6-.657-4.092-3.461-4.092-2.576,0-3.663,2.347-3.864,4.092Z" transform="translate(-618.648 -1992.666)"/>
        <path id="Trazado_100308" data-name="Trazado 100308" d="M693.721,2006.513c.056,3.377,2.2,4.778,4.721,4.778a9.027,9.027,0,0,0,3.833-.714l.456,1.8a11.268,11.268,0,0,1-4.635.887c-4.233,0-6.807-2.833-6.807-6.98,0-4.179,2.487-7.469,6.523-7.469,4.52,0,5.693,3.978,5.693,6.523a6.033,6.033,0,0,1-.087,1.174Zm7.352-1.8c.028-1.6-.659-4.092-3.461-4.092-2.575,0-3.663,2.347-3.864,4.092Z" transform="translate(-614.383 -1992.666)"/>
        <path id="Trazado_100309" data-name="Trazado 100309" d="M703.272,2010.4a7.118,7.118,0,0,0,3.349.972c1.8,0,2.66-.886,2.66-2.06,0-1.2-.716-1.831-2.548-2.517-2.517-.916-3.691-2.29-3.691-3.919,0-2.233,1.832-4.064,4.779-4.064a6.424,6.424,0,0,1,3.376.858l-.6,1.8a5.668,5.668,0,0,0-2.832-.8c-1.487,0-2.288.859-2.288,1.889,0,1.144.8,1.659,2.6,2.375,2.376.886,3.634,2.087,3.634,4.148,0,2.46-1.917,4.177-5.15,4.177a7.882,7.882,0,0,1-3.89-.974Z" transform="translate(-611.374 -1992.666)"/>
        <path id="Trazado_100310" data-name="Trazado 100310" d="M722.46,2012.464a9.732,9.732,0,0,1-3.976.8c-4.177,0-6.895-2.833-6.895-7.066a7.058,7.058,0,0,1,7.437-7.383,7.91,7.91,0,0,1,3.491.745l-.571,1.917a6.174,6.174,0,0,0-2.919-.659c-3.175,0-4.892,2.375-4.892,5.236,0,3.205,2.06,5.179,4.807,5.179a7.2,7.2,0,0,0,3.089-.657Z" transform="translate(-609.017 -1992.666)"/>
        <path id="Trazado_100311" data-name="Trazado 100311" d="M732.5,2009.66a23.248,23.248,0,0,0,.2,3.319h-2.259l-.229-1.745h-.086a5.117,5.117,0,0,1-4.234,2.06,3.945,3.945,0,0,1-4.234-3.976c0-3.348,2.975-5.179,8.326-5.15v-.286c0-1.146-.315-3.234-3.147-3.205a6.667,6.667,0,0,0-3.634,1.031l-.573-1.689a8.982,8.982,0,0,1,4.578-1.2c4.263,0,5.293,2.89,5.293,5.666Zm-2.46-3.748c-2.746-.057-5.865.429-5.865,3.119a2.206,2.206,0,0,0,2.347,2.4,3.5,3.5,0,0,0,3.4-2.316,2.621,2.621,0,0,0,.114-.8Z" transform="translate(-606.355 -1992.666)"/>
        <path id="Trazado_100312" data-name="Trazado 100312" d="M733.426,1993.952h2.519v20.313h-2.519Z" transform="translate(-603.244 -1993.952)"/>
        <path id="Trazado_100313" data-name="Trazado 100313" d="M748.749,2009.66a23.238,23.238,0,0,0,.2,3.319H746.69l-.229-1.745h-.086a5.117,5.117,0,0,1-4.234,2.06,3.945,3.945,0,0,1-4.234-3.976c0-3.348,2.975-5.179,8.326-5.15v-.286c0-1.146-.315-3.234-3.147-3.205a6.667,6.667,0,0,0-3.634,1.031l-.573-1.689a8.982,8.982,0,0,1,4.578-1.2c4.263,0,5.293,2.89,5.293,5.666Zm-2.46-3.748c-2.746-.057-5.865.429-5.865,3.119a2.206,2.206,0,0,0,2.347,2.4,3.5,3.5,0,0,0,3.4-2.316,2.622,2.622,0,0,0,.114-.8Z" transform="translate(-602.06 -1992.666)"/>
        <path id="Trazado_100314" data-name="Trazado 100314" d="M761.842,1993.952v16.738c0,1.23.029,2.632.114,3.575H759.7l-.115-2.4h-.057a5.076,5.076,0,0,1-4.692,2.717c-3.348,0-5.95-2.832-5.95-7.037-.03-4.635,2.86-7.439,6.208-7.439a4.6,4.6,0,0,1,4.176,2.089h.057v-8.24Zm-2.519,12.1a4.674,4.674,0,0,0-.114-1.088,3.706,3.706,0,0,0-3.634-2.889c-2.6,0-4.148,2.289-4.148,5.322,0,2.832,1.4,5.15,4.091,5.15a3.811,3.811,0,0,0,3.691-3.033,4,4,0,0,0,.114-1.058Z" transform="translate(-599.158 -1993.952)"/>
        <path id="Trazado_100315" data-name="Trazado 100315" d="M768.282,2013.294c-3.718,0-6.637-2.746-6.637-7.123,0-4.635,3.061-7.354,6.867-7.354,3.976,0,6.666,2.89,6.666,7.1,0,5.15-3.577,7.381-6.865,7.381Zm.115-1.887c2.4,0,4.205-2.261,4.205-5.408,0-2.346-1.173-5.292-4.148-5.292-2.946,0-4.234,2.746-4.234,5.378,0,3.033,1.717,5.322,4.15,5.322Z" transform="translate(-595.784 -1992.666)"/>
      </g>
      <g id="Grupo_53468" data-name="Grupo 53468" transform="translate(840.509 1912.333)">
        <path id="Trazado_100316" data-name="Trazado 100316" d="M785.379,1883.352h-5.186v4.829H786v1.45h-7.552v-13.392H785.7v1.45h-5.5v4.232h5.186Z" transform="translate(-778.444 -1875.523)"/>
        <path id="Trazado_100317" data-name="Trazado 100317" d="M786.042,1887.1a4.946,4.946,0,0,0,2.325.675c1.252,0,1.847-.616,1.847-1.43,0-.834-.5-1.272-1.769-1.75-1.749-.636-2.563-1.588-2.563-2.721,0-1.552,1.272-2.822,3.319-2.822a4.468,4.468,0,0,1,2.344.6l-.417,1.253a3.933,3.933,0,0,0-1.967-.558c-1.033,0-1.589.6-1.589,1.313,0,.794.556,1.152,1.807,1.649,1.65.616,2.524,1.45,2.524,2.881,0,1.709-1.33,2.9-3.577,2.9a5.483,5.483,0,0,1-2.7-.677Z" transform="translate(-776.546 -1874.78)"/>
        <path id="Trazado_100318" data-name="Trazado 100318" d="M792.383,1882.41c0-1.233-.02-2.225-.081-3.141h1.572l.1,1.65h.041a3.709,3.709,0,0,1,3.4-1.867c2.345,0,4.094,1.967,4.094,4.888,0,3.458-2.127,5.166-4.372,5.166a3.35,3.35,0,0,1-2.961-1.51h-.039v5.226h-1.749Zm1.749,2.563a2.833,2.833,0,0,0,.078.716,2.678,2.678,0,0,0,2.6,2.047c1.847,0,2.921-1.511,2.921-3.716,0-1.928-.994-3.577-2.842-3.577a2.787,2.787,0,0,0-2.661,2.166,4.123,4.123,0,0,0-.1.7Z" transform="translate(-774.781 -1874.78)"/>
        <path id="Trazado_100319" data-name="Trazado 100319" d="M808.242,1886.583a16.251,16.251,0,0,0,.138,2.3H806.81l-.159-1.211h-.059a3.552,3.552,0,0,1-2.941,1.43,2.74,2.74,0,0,1-2.941-2.761c0-2.325,2.066-3.6,5.783-3.577v-.2a1.976,1.976,0,0,0-2.187-2.225,4.644,4.644,0,0,0-2.524.716l-.4-1.172a6.225,6.225,0,0,1,3.179-.834c2.961,0,3.678,2.007,3.678,3.933Zm-1.709-2.6c-1.908-.04-4.074.3-4.074,2.165a1.533,1.533,0,0,0,1.63,1.67,2.429,2.429,0,0,0,2.364-1.61,1.808,1.808,0,0,0,.08-.557Z" transform="translate(-772.558 -1874.78)"/>
        <path id="Trazado_100320" data-name="Trazado 100320" d="M808.881,1875.673h1.747v14.108h-1.747Z" transform="translate(-770.398 -1875.673)"/>
        <path id="Trazado_100321" data-name="Trazado 100321" d="M821.041,1875.673V1887.3c0,.855.019,1.828.078,2.483H819.55l-.078-1.669h-.042a3.523,3.523,0,0,1-3.258,1.888c-2.325,0-4.132-1.968-4.132-4.888-.021-3.219,1.986-5.166,4.311-5.166a3.2,3.2,0,0,1,2.9,1.45h.039v-5.723Zm-1.749,8.406a3.259,3.259,0,0,0-.08-.755,2.576,2.576,0,0,0-2.525-2.008c-1.807,0-2.88,1.589-2.88,3.7,0,1.969.975,3.578,2.841,3.578a2.647,2.647,0,0,0,2.564-2.106,2.8,2.8,0,0,0,.08-.736Z" transform="translate(-769.563 -1875.673)"/>
        <path id="Trazado_100322" data-name="Trazado 100322" d="M828.386,1886.583a16.06,16.06,0,0,0,.139,2.3h-1.57l-.159-1.211h-.058a3.556,3.556,0,0,1-2.942,1.43,2.74,2.74,0,0,1-2.941-2.761c0-2.325,2.067-3.6,5.783-3.577v-.2a1.975,1.975,0,0,0-2.186-2.225,4.641,4.641,0,0,0-2.524.716l-.4-1.172a6.23,6.23,0,0,1,3.18-.834c2.961,0,3.677,2.007,3.677,3.933Zm-1.708-2.6c-1.908-.04-4.074.3-4.074,2.165a1.532,1.532,0,0,0,1.629,1.67,2.428,2.428,0,0,0,2.364-1.61,1.772,1.772,0,0,0,.081-.557Z" transform="translate(-767.233 -1874.78)"/>
      </g>
      <path id="Trazado_100323" data-name="Trazado 100323" d="M834.757,2044.973h-1.419v-5.265h1.419Zm0-24.183h-1.419v-18.92h1.419Zm0-37.84h-1.419v-18.918h1.419Zm0-37.838h-1.419v-18.92h1.419Zm0-37.84h-1.419v-18.919h1.419Zm0-37.838h-1.419v-18.92h1.419Zm0-37.838h-1.419v-18.92h1.419Zm0-37.84h-1.419v-18.92h1.419Zm0-37.838h-1.419V1737h1.419Z" transform="translate(76.577 0)" fill="red"/>
      <path id="Trazado_100324" data-name="Trazado 100324" d="M564.954,2044.973h-1.419v-5.265h1.419Zm0-24.183h-1.419v-18.92h1.419Zm0-37.84h-1.419v-18.918h1.419Zm0-37.838h-1.419v-18.92h1.419Zm0-37.84h-1.419v-18.919h1.419Zm0-37.838h-1.419v-18.92h1.419Zm0-37.838h-1.419v-18.92h1.419Zm0-37.84h-1.419v-18.92h1.419Zm0-37.838h-1.419V1737h1.419Z" transform="translate(5.252 0)" fill="red"/>
    </g>
  </g>
</svg>
